<?xml version="1.0" standalone="no"?>
<!DOCTYPE svg PUBLIC "-//W3C//DTD SVG 1.1//EN" "http://www.w3.org/Graphics/SVG/1.1/DTD/svg11.dtd" >
<svg xmlns="http://www.w3.org/2000/svg" xmlns:xlink="http://www.w3.org/1999/xlink" version="1.1">
<metadata>
Created by FontForge 20170731 at Sat Aug  8 16:42:55 2020
 By Aleksey,,,
Copyright (c) 2016 by Mattox Shuler. All rights reserved.
</metadata>
<defs>
<font id="RiftSoft-Medium" horiz-adv-x="917" >
  <font-face 
    font-family="Rift Soft Medium"
    font-weight="500"
    font-stretch="normal"
    units-per-em="2048"
    panose-1="0 0 6 0 0 0 0 0 0 0"
    ascent="1597"
    descent="-451"
    x-height="1434"
    cap-height="1434"
    bbox="-403 -566.5 1618 2163"
    underline-thickness="102"
    underline-position="-307"
    unicode-range="U+0020-2260"
  />
<missing-glyph horiz-adv-x="1024" 
d="M840 1597v-2048h-650v2048h650zM682 1460h-338v-67h133v-76h-135v-68h340v68h-135v76h135v67zM547 1196h-205v-213h340v70h-135v143zM477 1126v-73h-67v73h67zM682 928h-340v-68h135v-76h-135v-67h205v143h135v68zM682 805h-68v-135h-272v-70h340v205zM682 555h-205v-115
h70v47h67v-96h-204v164h-68v-231h340v231zM682 201h-340v-232h340v232zM614 133v-96h-204v96h204zM682 -78h-340v-67h143l-143 -97v-67h340v67h-209l143 97h66v67z" />
    <glyph glyph-name=".notdef" horiz-adv-x="1024" 
d="M840 1597v-2048h-650v2048h650zM682 1460h-338v-67h133v-76h-135v-68h340v68h-135v76h135v67zM547 1196h-205v-213h340v70h-135v143zM477 1126v-73h-67v73h67zM682 928h-340v-68h135v-76h-135v-67h205v143h135v68zM682 805h-68v-135h-272v-70h340v205zM682 555h-205v-115
h70v47h67v-96h-204v164h-68v-231h340v231zM682 201h-340v-232h340v232zM614 133v-96h-204v96h204zM682 -78h-340v-67h143l-143 -97v-67h340v67h-209l143 97h66v67z" />
    <glyph glyph-name=".null" horiz-adv-x="0" 
 />
    <glyph glyph-name="nonmarkingreturn" horiz-adv-x="682" 
 />
    <glyph glyph-name="space" unicode=" " horiz-adv-x="327" 
 />
    <glyph glyph-name="exclam" unicode="!" horiz-adv-x="364" 
d="M203 1434q53 0 53 -54v-166l-16 -823q0 -51 -54 -51h-8q-53 0 -53 51l-19 821v168q0 26 14.5 40t39.5 14h43zM205 182q53 0 53 -53v-76q0 -53 -53 -53h-45q-54 0 -54 53v76q0 53 54 53h45z" />
    <glyph glyph-name="quotedbl" unicode="&#x22;" horiz-adv-x="600" 
d="M229 1434q28 0 40.5 -17t4.5 -45l-120 -428q-11 -41 -54 -41q-22 0 -32.5 13.5t-6.5 37.5l74 430q9 50 58 50h36zM504 1434q28 0 40.5 -17t4.5 -45l-121 -428q-11 -41 -53 -41q-22 0 -32.5 13.5t-6.5 37.5l74 430q9 50 57 50h37z" />
    <glyph glyph-name="numbersign" unicode="#" horiz-adv-x="1224" 
d="M1139 1004q53 0 53 -54v-12q0 -53 -53 -53h-207l-76 -336h201q53 0 53 -53v-13q0 -53 -53 -53h-230l-86 -383q-11 -47 -59 -47h-20q-28 0 -41 15.5t-7 43.5l84 371h-303l-86 -383q-11 -47 -59 -47h-21q-28 0 -40.5 15.5t-6.5 43.5l84 371h-180q-53 0 -53 53v13
q0 53 53 53h207l76 336h-201q-53 0 -53 53v12q0 54 53 54h229l86 382q12 48 60 48h20q28 0 40.5 -16t6.5 -44l-84 -370h303l86 382q12 48 60 48h20q28 0 40.5 -16t6.5 -44l-84 -370h181zM725 549l76 336h-301l-76 -336h301z" />
    <glyph glyph-name="dollar" unicode="$" horiz-adv-x="856" 
d="M578 731q90 -49 137 -110.5t47 -147.5v-190q0 -271 -264 -295v-94q0 -54 -54 -54h-28q-54 0 -54 54v92q-132 14 -198 86t-66 211v184q0 53 54 53h38q54 0 54 -53v-152q0 -102 44.5 -151t141.5 -49t141.5 49t44.5 151v115q0 69 -29 107t-106 81l-200 111q-99 56 -141 110
t-42 144v172q0 130 69.5 203.5t194.5 87.5v94q0 53 54 53h28q54 0 54 -53v-94q122 -15 191 -88.5t69 -202.5v-168q0 -53 -53 -53h-39q-54 0 -54 53v135q0 103 -43.5 150t-140.5 47t-140.5 -47t-43.5 -150v-100q0 -69 26 -102.5t103 -75.5z" />
    <glyph glyph-name="percent" unicode="%" horiz-adv-x="1046" 
d="M272 1442q68 0 116 -43.5t48 -130.5v-262q0 -88 -48 -131.5t-116 -43.5h-32q-71 0 -118.5 43.5t-47.5 131.5v262q0 88 47.5 131t118.5 43h32zM862 1434q22 0 29 -14.5t-2 -37.5l-637 -1349q-13 -33 -51 -33h-11q-24 0 -32.5 14t0.5 37l637 1350q13 33 51 33h16zM340 1247
q0 56 -18 80.5t-56 24.5h-22q-38 0 -56 -24.5t-18 -80.5v-221q0 -56 18 -80t56 -24h22q38 0 56 24t18 80v221zM809 602q68 0 116 -43.5t48 -130.5v-262q0 -87 -48 -130.5t-116 -43.5h-33q-71 0 -118.5 43t-47.5 131v262q0 88 47.5 131t118.5 43h33zM877 408q0 56 -18 80
t-56 24h-23q-38 0 -55.5 -24t-17.5 -80v-222q0 -56 17.5 -80t55.5 -24h23q38 0 56 24t18 80v222z" />
    <glyph glyph-name="ampersand" unicode="&#x26;" horiz-adv-x="948" 
d="M901 63q19 -28 9 -45.5t-42 -17.5h-37q-41 0 -63 35l-70 100q-41 -75 -110.5 -113t-179.5 -38h-15q-154 0 -224.5 78t-70.5 208v320q0 83 28.5 144t78.5 91q-46 68 -65 121.5t-19 120.5v88q0 150 80.5 222.5t244.5 72.5h5q328 0 325 -295v-139q0 -53 -53 -53h-35
q-53 0 -53 53v110q0 104 -47.5 149.5t-136.5 45.5q-90 0 -137.5 -45.5t-47.5 -149.5v-55q0 -57 18.5 -99t92.5 -149l266 -385l70 299q12 45 59 45h31q28 0 40.5 -15.5t6.5 -43.5l-100 -438zM418 109q76 0 118.5 37t67.5 124l-325 465q-35 -47 -35 -117v-294q0 -111 42 -163
t132 -52z" />
    <glyph glyph-name="quotesingle" unicode="'" horiz-adv-x="325" 
d="M229 1434q28 0 40.5 -17t4.5 -45l-120 -428q-11 -41 -54 -41q-22 0 -32.5 13.5t-6.5 37.5l74 430q9 50 58 50h36z" />
    <glyph glyph-name="parenleft" unicode="(" horiz-adv-x="565" 
d="M463 1403q-99 0 -147 -47t-48 -164v-950q0 -112 46 -161.5t149 -49.5q21 0 33 -14.5t12 -39.5v-22q0 -53 -45 -53q-336 0 -336 303v1024q0 303 336 303q45 0 45 -53v-23q0 -53 -45 -53z" />
    <glyph glyph-name="parenright" unicode=")" horiz-adv-x="565" 
d="M102 1403q-45 0 -45 53v23q0 53 45 53q336 0 336 -303v-1024q0 -303 -336 -303q-45 0 -45 53v22q0 25 12 39.5t33 14.5q103 0 149 49.5t46 161.5v950q0 117 -48 164t-147 47z" />
    <glyph glyph-name="asterisk" unicode="*" horiz-adv-x="675" 
d="M397 1143l119 -137q34 -39 -6 -68l-12 -10q-44 -32 -66 14l-94 156l-94 -154q-26 -46 -66 -12l-10 8q-41 30 -8 68l121 135l-181 41q-45 12 -34 59l4 12q7 23 24 30.5t39 -3.5l170 -72l-18 181q-6 51 45 51h18q49 0 43 -51l-16 -181l168 72q47 23 63 -29l2 -10
q15 -50 -33 -59z" />
    <glyph glyph-name="plus" unicode="+" horiz-adv-x="860" 
d="M698 791q26 0 41 -14.5t15 -39.5v-10q0 -53 -56 -53h-209v-211q0 -26 -14 -40.5t-39 -14.5h-10q-53 0 -53 55v211h-211q-56 0 -56 53v10q0 25 15 39.5t41 14.5h211v208q0 56 53 56h10q25 0 39 -15t14 -41v-208h209z" />
    <glyph glyph-name="comma" unicode="," horiz-adv-x="339" 
d="M193 182q53 0 53 -53v-82q0 -135 -62 -256q-24 -43 -55 -29q-27 14 -6 64q38 83 41 174h-17q-53 0 -53 53v76q0 53 53 53h46z" />
    <glyph glyph-name="hyphen" unicode="-" horiz-adv-x="565" 
d="M459 795q53 0 53 -54v-16q0 -53 -53 -53h-353q-53 0 -53 53v16q0 54 53 54h353z" />
    <glyph glyph-name="period" unicode="." horiz-adv-x="339" 
d="M193 182q53 0 53 -53v-76q0 -53 -53 -53h-46q-53 0 -53 53v76q0 53 53 53h46z" />
    <glyph glyph-name="slash" unicode="/" horiz-adv-x="653" 
d="M569 1532q27 0 39 -16t4 -43l-444 -1526q-12 -45 -59 -45h-23q-28 0 -40.5 16.5t-4.5 42.5l444 1526q12 45 60 45h24z" />
    <glyph glyph-name="zero" unicode="0" horiz-adv-x="892" 
d="M455 1450q155 0 237 -75.5t82 -227.5v-860q0 -152 -82 -227.5t-237 -75.5h-17q-155 0 -237 75.5t-82 227.5v860q0 152 82 227.5t237 75.5h17zM631 1110q0 110 -45.5 158.5t-139.5 48.5t-139 -48.5t-45 -158.5v-786q0 -110 45 -158.5t139 -48.5t139.5 48.5t45.5 158.5v786
z" />
    <glyph glyph-name="one" unicode="1" horiz-adv-x="444" 
d="M291 53q0 -53 -53 -53h-37q-54 0 -54 53v1233q0 20 13 33q34 54 41 78q15 41 45 41h6q39 0 39 -47v-1338z" />
    <glyph glyph-name="two" unicode="2" horiz-adv-x="808" 
d="M152 948q-54 0 -54 53v154q0 295 312 295h4q311 0 311 -295v-203q0 -22 -4.5 -43t-9 -38t-18 -38.5t-20.5 -34t-28.5 -35t-30 -32t-37 -34t-37.5 -32t-42.5 -35t-42.5 -34.5q-60 -50 -94.5 -82t-65.5 -70t-44 -74t-13 -77v-166h434q53 0 53 -53v-21q0 -53 -53 -53h-525
q-53 0 -53 53v244q0 53 16 102t38.5 86t64 80.5t75.5 72t91 73.5q51 41 72.5 58.5t54 47.5t44.5 49.5t22 46t10 54.5v163q0 193 -174 193q-85 0 -126.5 -47t-41.5 -146v-129q0 -53 -54 -53h-34z" />
    <glyph glyph-name="three" unicode="3" horiz-adv-x="821" 
d="M723 971q0 -205 -150 -226q48 -9 80 -31t46 -53.5t19 -59t5 -62.5v-252q0 -144 -73 -223.5t-218 -79.5h-55q-145 0 -218 79.5t-73 223.5v127q0 53 53 53h37q53 0 53 -53v-103q0 -200 168 -200h15q168 0 168 200v224q0 143 -160 143h-103q-25 0 -39 14t-14 39v21
q0 25 14 39t39 14h82q93 0 137 37.5t44 126.5v153q0 201 -168 201h-19q-168 0 -168 -201v-69q0 -54 -53 -54h-33q-53 0 -53 54v94q0 303 311 303h15q311 0 311 -303v-176z" />
    <glyph glyph-name="four" unicode="4" horiz-adv-x="774" 
d="M575 1434q54 0 54 -54v-884h63q53 0 53 -54v-24q0 -53 -53 -53h-63v-312q0 -53 -54 -53h-36q-54 0 -54 53v312h-403q-53 0 -53 53v49q0 31 12 65l397 861q15 41 62 41h75zM485 1237l-333 -741h333v741z" />
    <glyph glyph-name="five" unicode="5" horiz-adv-x="837" 
d="M729 1358q0 -53 -53 -53h-414v-465q75 94 217 94q54 0 99.5 -13t84 -41.5t60.5 -80.5t22 -123v-397q0 -295 -315 -295h-4q-315 0 -315 295v155q0 53 53 53h35q53 0 53 -53v-131q0 -99 43 -145.5t133 -46.5q88 0 131 46.5t43 145.5v346q0 90 -40.5 123t-104.5 33
q-102 0 -174 -76q-24 -31 -60 -22l-59 16q-45 12 -45 59v598q0 54 53 54h504q53 0 53 -54v-22z" />
    <glyph glyph-name="six" unicode="6" horiz-adv-x="860" 
d="M737 1067q0 -47 -53 -47h-37q-53 0 -53 53v57q0 107 -38.5 150t-127.5 43t-127.5 -43t-38.5 -150v-344q56 86 203 86q129 0 207 -68.5t78 -203.5v-321q0 -151 -76 -223t-238 -72h-4q-162 0 -237.5 72t-75.5 223v876q0 152 73 223.5t234 71.5h4q161 0 234 -71.5t73 -223.5
v-88zM434 743q-77 0 -124.5 -42t-47.5 -128v-270q0 -106 41 -149t131 -43t131 43t41 149v270q0 170 -172 170z" />
    <glyph glyph-name="seven" unicode="7" horiz-adv-x="700" 
d="M633 1358q0 -33 -8 -66l-308 -1245q-11 -47 -57 -47h-35q-28 0 -41 16t-6 43l307 1246h-401q-55 0 -55 53v22q0 54 55 54h496q53 0 53 -54v-22z" />
    <glyph glyph-name="eight" unicode="8" horiz-adv-x="841" 
d="M453 1450q145 0 217.5 -79.5t72.5 -223.5v-176q0 -208 -149 -226q149 -25 149 -247v-211q0 -144 -72.5 -223.5t-217.5 -79.5h-64q-145 0 -218 79.5t-73 223.5v211q0 221 150 247q-150 19 -150 226v176q0 144 73 223.5t218 79.5h64zM600 969v153q0 103 -43 152t-117 49
h-39q-74 0 -116.5 -49t-42.5 -152v-153q0 -164 159 -164h39q160 0 160 164zM600 311v203q0 164 -160 164h-39q-159 0 -159 -164v-203q0 -103 42.5 -151.5t116.5 -48.5h39q74 0 117 48.5t43 151.5z" />
    <glyph glyph-name="nine" unicode="9" horiz-adv-x="860" 
d="M123 367q0 47 53 47h37q53 0 53 -54v-57q0 -107 38.5 -149.5t127.5 -42.5t127.5 42.5t38.5 149.5v344q-56 -86 -203 -86q-129 0 -206.5 68.5t-77.5 204.5v321q0 151 75.5 223t237.5 72h4q162 0 237.5 -72t75.5 -223v-876q0 -152 -73 -223.5t-234 -71.5h-4
q-161 0 -234 71.5t-73 223.5v88zM426 690q77 0 124.5 42t47.5 128v270q0 106 -41 149.5t-131 43.5t-131 -43.5t-41 -149.5v-270q0 -170 172 -170z" />
    <glyph glyph-name="colon" unicode=":" horiz-adv-x="339" 
d="M193 946q53 0 53 -53v-76q0 -53 -53 -53h-46q-53 0 -53 53v76q0 53 53 53h46zM193 182q53 0 53 -53v-76q0 -53 -53 -53h-46q-53 0 -53 53v76q0 53 53 53h46z" />
    <glyph glyph-name="semicolon" unicode=";" horiz-adv-x="339" 
d="M193 946q53 0 53 -53v-76q0 -53 -53 -53h-46q-53 0 -53 53v76q0 53 53 53h46zM193 182q53 0 53 -53v-82q0 -135 -62 -256q-24 -43 -55 -29q-27 14 -6 64q38 83 41 174h-17q-53 0 -53 53v76q0 53 53 53h46z" />
    <glyph glyph-name="less" unicode="&#x3c;" horiz-adv-x="860" 
d="M700 1102v37q0 34 -18.5 44.5t-46.5 -9.5l-471 -353q-33 -23 -33 -63v-53q0 -41 33 -64l471 -352q28 -20 46.5 -9.5t18.5 44.5v36q0 42 -34 64l-424 307l424 307q34 22 34 64z" />
    <glyph glyph-name="equal" unicode="=" horiz-adv-x="860" 
d="M698 963q26 0 41 -15t15 -41v-8q0 -26 -15 -40.5t-41 -14.5h-536q-26 0 -41 14.5t-15 40.5v8q0 26 15 41t41 15h536zM698 623q26 0 41 -15t15 -41v-8q0 -26 -15 -40.5t-41 -14.5h-536q-26 0 -41 14.5t-15 40.5v8q0 26 15 41t41 15h536z" />
    <glyph glyph-name="greater" unicode="&#x3e;" horiz-adv-x="860" 
d="M160 1102q0 -42 35 -64l423 -307l-423 -307q-35 -22 -35 -64v-36q0 -34 18.5 -44.5t46.5 9.5l471 352q33 23 33 64v53q0 40 -33 63l-471 353q-28 20 -46.5 9.5t-18.5 -44.5v-37z" />
    <glyph glyph-name="question" unicode="?" horiz-adv-x="782" 
d="M375 342q-53 0 -53 53v160q0 75 32.5 139.5t104.5 128.5q50 42 76 84t26 97v126q0 105 -43 149t-131 44q-87 0 -127.5 -43.5t-40.5 -149.5v-143q0 -53 -53 -53h-35q-53 0 -53 53v168q0 152 74.5 223.5t236.5 71.5h4q162 0 237 -71.5t75 -223.5v-168q0 -47 -12 -87
t-36.5 -72.5t-44 -52.5t-51.5 -46q-63 -49 -90 -100t-27 -131v-103q0 -53 -53 -53h-16zM406 182q53 0 53 -53v-76q0 -53 -53 -53h-46q-53 0 -53 53v76q0 53 53 53h46z" />
    <glyph glyph-name="at" unicode="@" horiz-adv-x="1292" 
d="M825 1450q168 0 258.5 -74.5t90.5 -228.5v-653q0 -156 -60.5 -230t-157.5 -74q-64 0 -102.5 29.5t-48.5 71.5q-10 -49 -67 -81t-122 -32h-4q-83 0 -149 52t-66 157v504q0 100 64 154.5t153 54.5h4q60 0 107.5 -26.5t60.5 -67.5l13 45q12 36 51 36q43 0 43 -45v-643
q0 -114 78 -114q48 0 74 51.5t26 138.5v690q0 92 -60 140.5t-159 48.5h-412q-99 0 -160 -48.5t-61 -140.5v-977q0 -92 61 -140t160 -48h451q43 0 43 -43v-10q0 -43 -43 -43h-436q-336 0 -336 303v940q0 154 90 228.5t258 74.5h358zM774 424v430q0 68 -35.5 103.5t-93.5 35.5
q-59 0 -95 -35.5t-36 -103.5v-430q0 -68 36 -103.5t95 -35.5q58 0 93.5 35.5t35.5 103.5z" />
    <glyph glyph-name="A" unicode="A" horiz-adv-x="868" 
d="M817 59q9 -59 -49 -59h-43q-49 0 -57 49l-62 305h-352l-61 -305q-8 -49 -58 -49h-35q-58 0 -49 59l283 1327q9 48 59 48h78q50 0 59 -48zM281 483h299l-150 746z" />
    <glyph glyph-name="B" unicode="B" horiz-adv-x="903" 
d="M797 971q0 -39 -8 -74.5t-25 -69.5t-49.5 -56t-77.5 -26q91 -14 129.5 -77.5t38.5 -149.5v-235q0 -129 -86.5 -206t-245.5 -77h-293q-53 0 -53 53v1327q0 54 53 54h297q158 0 239 -76t81 -207v-180zM274 1303v-496h199q176 0 176 145v166q0 94 -41.5 139.5t-134.5 45.5
h-199zM657 530q0 146 -176 146h-207v-545h207q93 0 134.5 45t41.5 139v215z" />
    <glyph glyph-name="C" unicode="C" horiz-adv-x="905" 
d="M741 571q54 0 54 -53v-231q0 -303 -336 -303h-4q-336 0 -336 303v860q0 150 86 226.5t250 76.5h4q164 0 250 -76.5t86 -226.5v-197q0 -53 -54 -53h-39q-55 0 -55 53v160q0 110 -44.5 158.5t-145.5 48.5t-146 -48.5t-45 -158.5v-786q0 -110 45 -158.5t146 -48.5
t145.5 48.5t44.5 158.5v194q0 53 55 53h39z" />
    <glyph glyph-name="D" unicode="D" horiz-adv-x="923" 
d="M469 1434q165 0 250.5 -76t85.5 -228v-827q0 -303 -336 -303h-289q-53 0 -53 53v1327q0 54 53 54h289zM657 1094q0 111 -46 158.5t-150 47.5h-187v-1167h187q104 0 150 48t46 159v754z" />
    <glyph glyph-name="E" unicode="E" horiz-adv-x="774" 
d="M713 53q0 -53 -54 -53h-479q-53 0 -53 53v1327q0 54 53 54h473q54 0 54 -54v-26q0 -54 -54 -54h-379v-507h316q53 0 53 -54v-24q0 -53 -53 -53h-316v-529h385q54 0 54 -53v-27z" />
    <glyph glyph-name="F" unicode="F" horiz-adv-x="731" 
d="M180 0q-53 0 -53 53v1327q0 54 53 54h465q53 0 53 -54v-26q0 -54 -53 -54h-371v-518h308q53 0 53 -53v-24q0 -54 -53 -54h-308v-598q0 -53 -55 -53h-39z" />
    <glyph glyph-name="G" unicode="G" horiz-adv-x="921" 
d="M754 719q53 0 53 -53v-379q0 -303 -336 -303h-16q-336 0 -336 303v860q0 150 86 226.5t250 76.5h16q164 0 250 -76.5t86 -226.5v-139q0 -54 -53 -54h-39q-56 0 -56 54v102q0 111 -46 159t-150 48t-150.5 -48t-46.5 -159v-786q0 -111 46.5 -159t150.5 -48t150 48t46 159
v264h-151q-53 0 -53 55v23q0 53 53 53h246z" />
    <glyph glyph-name="H" unicode="H" horiz-adv-x="952" 
d="M127 1380q0 54 53 54h39q55 0 55 -54v-583h404v583q0 54 55 54h39q53 0 53 -54v-1327q0 -53 -53 -53h-39q-55 0 -55 53v609h-404v-609q0 -53 -55 -53h-39q-53 0 -53 53v1327z" />
    <glyph glyph-name="I" unicode="I" horiz-adv-x="415" 
d="M283 53q0 -53 -56 -53h-39q-53 0 -53 53v1327q0 54 53 54h39q56 0 56 -54v-1327z" />
    <glyph glyph-name="J" unicode="J" horiz-adv-x="565" 
d="M98 135q104 0 151.5 48.5t47.5 160.5v1036q0 54 53 54h41q53 0 53 -54v-1077q0 -303 -342 -303h-12q-53 0 -53 53v29q0 53 53 53h8z" />
    <glyph glyph-name="K" unicode="K" horiz-adv-x="880" 
d="M840 61q9 -27 -2.5 -44t-40.5 -17h-43q-47 0 -62 43l-256 696l-162 -278v-408q0 -53 -55 -53h-39q-53 0 -53 53v1327q0 54 53 54h39q55 0 55 -54v-684l377 699q19 39 64 39h49q31 0 41.5 -18t-4.5 -46l-275 -473z" />
    <glyph glyph-name="L" unicode="L" horiz-adv-x="718" 
d="M629 135q53 0 53 -53v-29q0 -53 -53 -53h-449q-53 0 -53 53v1327q0 54 53 54h39q55 0 55 -54v-1245h355z" />
    <glyph glyph-name="M" unicode="M" horiz-adv-x="1218" 
d="M948 1073l-284 -797q-15 -43 -56 -43q-44 0 -59 43l-285 797v-1020q0 -53 -53 -53h-31q-53 0 -53 53v1327q0 54 53 54h43q47 0 62 -43l319 -906l326 906q13 43 61 43h47q54 0 54 -54v-1327q0 -53 -54 -53h-37q-53 0 -53 53v1020z" />
    <glyph glyph-name="N" unicode="N" horiz-adv-x="960" 
d="M264 53q0 -53 -53 -53h-31q-53 0 -53 53v1327q0 54 53 54h51q48 0 60 -43l405 -1045v1034q0 54 54 54h30q54 0 54 -54v-1327q0 -53 -54 -53h-43q-46 0 -61 43l-412 1065v-1055z" />
    <glyph glyph-name="O" unicode="O" horiz-adv-x="925" 
d="M119 1147q0 303 336 303h16q336 0 336 -303v-860q0 -303 -336 -303h-16q-336 0 -336 303v860zM266 324q0 -111 46.5 -159t150.5 -48t150 48t46 159v786q0 111 -46 159t-150 48t-150.5 -48t-46.5 -159v-786z" />
    <glyph glyph-name="P" unicode="P" horiz-adv-x="882" 
d="M473 1434q165 0 250.5 -76t85.5 -228v-239q0 -303 -336 -303h-199v-535q0 -53 -55 -53h-39q-53 0 -53 53v1327q0 54 53 54h293zM662 928v166q0 111 -46.5 158.5t-150.5 47.5h-191v-579h191q104 0 150.5 48t46.5 159z" />
    <glyph glyph-name="Q" unicode="Q" horiz-adv-x="925" 
d="M471 1450q336 0 336 -303v-860q0 -271 -270 -299v-144q0 -53 -54 -53h-32q-54 0 -54 53v142q-278 25 -278 301v860q0 303 336 303h16zM659 324v786q0 111 -46 159t-150 48t-150.5 -48t-46.5 -159v-786q0 -111 46.5 -159t150.5 -48t150 48t46 159z" />
    <glyph glyph-name="R" unicode="R" horiz-adv-x="923" 
d="M838 61q9 -27 -2.5 -44t-40.5 -17h-43q-47 0 -62 43l-205 561h-12h-199v-551q0 -53 -55 -53h-39q-53 0 -53 53v1327q0 54 53 54h293q165 0 250.5 -76t85.5 -228v-223q0 -220 -180 -280zM274 1300v-565h191q104 0 150.5 48t46.5 159v152q0 111 -46.5 158.5t-150.5 47.5
h-191z" />
    <glyph glyph-name="S" unicode="S" horiz-adv-x="856" 
d="M758 987q0 -53 -53 -53h-39q-54 0 -54 53v135q0 103 -43.5 150t-140.5 47t-140.5 -47t-43.5 -150v-100q0 -69 26 -102.5t103 -75.5l205 -113q90 -49 137 -110.5t47 -147.5v-190q0 -154 -82.5 -226.5t-247.5 -72.5h-4q-166 0 -248 71.5t-82 227.5v184q0 53 54 53h38
q54 0 54 -53v-152q0 -102 44.5 -151t141.5 -49t141.5 49t44.5 151v115q0 69 -29 107t-106 81l-200 111q-99 56 -141 110t-42 144v172q0 146 87.5 220.5t240.5 74.5h4q153 0 240.5 -74.5t87.5 -220.5v-168z" />
    <glyph glyph-name="T" unicode="T" horiz-adv-x="716" 
d="M641 1434q53 0 53 -54v-26q0 -54 -53 -54h-209v-1247q0 -53 -53 -53h-41q-53 0 -53 53v1247h-207q-53 0 -53 54v26q0 54 53 54h563z" />
    <glyph glyph-name="U" unicode="U" 
d="M741 1434q54 0 54 -54v-1093q0 -303 -332 -303h-8q-165 0 -248.5 73.5t-83.5 229.5v1093q0 54 53 54h39q55 0 55 -54v-1056q0 -113 43 -160t146 -47t145.5 47t42.5 160v1056q0 54 55 54h39z" />
    <glyph glyph-name="V" unicode="V" horiz-adv-x="835" 
d="M735 1434q58 0 49 -60l-276 -1327q-9 -47 -59 -47h-62q-50 0 -59 47l-277 1327q-9 60 49 60h43q49 0 58 -50l221 -1134l221 1134q9 50 57 50h35z" />
    <glyph glyph-name="W" unicode="W" horiz-adv-x="1314" 
d="M1212 1434q28 0 41 -15t9 -43l-222 -1327q-9 -49 -57 -49h-43q-50 0 -59 47l-222 1102l-223 -1102q-6 -47 -57 -47h-47q-49 0 -58 49l-221 1327q-9 58 49 58h39q49 0 58 -52l166 -1103l217 1107q9 48 59 48h41q50 0 59 -48l217 -1107l166 1103q3 25 18 38.5t38 13.5h32z
" />
    <glyph glyph-name="X" unicode="X" horiz-adv-x="841" 
d="M713 1434q29 0 40.5 -17.5t2.5 -44.5l-246 -639l274 -672q12 -28 0.5 -44.5t-41.5 -16.5h-47q-47 0 -59 43l-219 559l-215 -559q-15 -43 -62 -43h-43q-29 0 -40.5 16.5t-0.5 44.5l279 678l-256 633q-11 28 0.5 45t40.5 17h47q47 0 59 -43l199 -521l184 519q16 45 62 45
h41z" />
    <glyph glyph-name="Y" unicode="Y" horiz-adv-x="847" 
d="M498 545v-492q0 -53 -54 -53h-41q-53 0 -53 53v492l-289 829q-10 28 1.5 44t41.5 16h43q46 0 62 -45l215 -676l217 676q16 45 61 45h41q30 0 41.5 -16t1.5 -44z" />
    <glyph glyph-name="Z" unicode="Z" horiz-adv-x="743" 
d="M639 127q53 0 53 -53v-21q0 -53 -53 -53h-533q-53 0 -53 53v21q0 32 13 65l454 1168h-389q-53 0 -53 53v20q0 54 53 54h494q53 0 53 -54v-20q0 -28 -12 -66l-455 -1167h428z" />
    <glyph glyph-name="bracketleft" unicode="[" horiz-adv-x="565" 
d="M268 1401v-1368h187q53 0 53 -53v-25q0 -53 -53 -53h-275q-53 0 -53 53v1524q0 53 53 53h275q53 0 53 -53v-25q0 -53 -53 -53h-187z" />
    <glyph glyph-name="backslash" unicode="\" horiz-adv-x="653" 
d="M84 1532h25q47 0 59 -45l444 -1526q8 -26 -4.5 -42.5t-40.5 -16.5h-22q-48 0 -60 45l-444 1526q-8 27 4 43t39 16z" />
    <glyph glyph-name="bracketright" unicode="]" horiz-adv-x="565" 
d="M297 1401h-186q-54 0 -54 53v25q0 53 54 53h274q53 0 53 -53v-1524q0 -53 -53 -53h-274q-54 0 -54 53v25q0 53 54 53h186v1368z" />
    <glyph glyph-name="asciicircum" unicode="^" horiz-adv-x="770" 
d="M135 741q46 0 60 41l190 514l190 -514q14 -41 60 -41h31q29 0 40.5 17t0.5 45l-232 590q-12 41 -59 41h-62q-47 0 -59 -41l-232 -590q-11 -28 0.5 -45t40.5 -17h31z" />
    <glyph glyph-name="underscore" unicode="_" horiz-adv-x="698" 
d="M655 -113q54 0 54 -53v-6q0 -53 -54 -53h-612q-53 0 -53 53v6q0 53 53 53h612z" />
    <glyph glyph-name="grave" unicode="`" horiz-adv-x="927" 
d="M408 1810q44 0 63 -36l88 -166q14 -28 7.5 -45t-31.5 -17h-19q-38 0 -61 29l-133 170q-22 26 -13 45.5t43 19.5h56z" />
    <glyph glyph-name="a" unicode="a" horiz-adv-x="868" 
d="M817 59q9 -59 -49 -59h-43q-49 0 -57 49l-62 305h-352l-61 -305q-8 -49 -58 -49h-35q-58 0 -49 59l283 1327q9 48 59 48h78q50 0 59 -48zM281 483h299l-150 746z" />
    <glyph glyph-name="b" unicode="b" horiz-adv-x="903" 
d="M797 971q0 -39 -8 -74.5t-25 -69.5t-49.5 -56t-77.5 -26q91 -14 129.5 -77.5t38.5 -149.5v-235q0 -129 -86.5 -206t-245.5 -77h-293q-53 0 -53 53v1327q0 54 53 54h297q158 0 239 -76t81 -207v-180zM274 1303v-496h199q176 0 176 145v166q0 94 -41.5 139.5t-134.5 45.5
h-199zM657 530q0 146 -176 146h-207v-545h207q93 0 134.5 45t41.5 139v215z" />
    <glyph glyph-name="c" unicode="c" horiz-adv-x="905" 
d="M741 571q54 0 54 -53v-231q0 -303 -336 -303h-4q-336 0 -336 303v860q0 150 86 226.5t250 76.5h4q164 0 250 -76.5t86 -226.5v-197q0 -53 -54 -53h-39q-55 0 -55 53v160q0 110 -44.5 158.5t-145.5 48.5t-146 -48.5t-45 -158.5v-786q0 -110 45 -158.5t146 -48.5
t145.5 48.5t44.5 158.5v194q0 53 55 53h39z" />
    <glyph glyph-name="d" unicode="d" horiz-adv-x="923" 
d="M469 1434q165 0 250.5 -76t85.5 -228v-827q0 -303 -336 -303h-289q-53 0 -53 53v1327q0 54 53 54h289zM657 1094q0 111 -46 158.5t-150 47.5h-187v-1167h187q104 0 150 48t46 159v754z" />
    <glyph glyph-name="e" unicode="e" horiz-adv-x="774" 
d="M713 53q0 -53 -54 -53h-479q-53 0 -53 53v1327q0 54 53 54h473q54 0 54 -54v-26q0 -54 -54 -54h-379v-507h316q53 0 53 -54v-24q0 -53 -53 -53h-316v-529h385q54 0 54 -53v-27z" />
    <glyph glyph-name="f" unicode="f" horiz-adv-x="731" 
d="M180 0q-53 0 -53 53v1327q0 54 53 54h465q53 0 53 -54v-26q0 -54 -53 -54h-371v-518h308q53 0 53 -53v-24q0 -54 -53 -54h-308v-598q0 -53 -55 -53h-39z" />
    <glyph glyph-name="g" unicode="g" horiz-adv-x="921" 
d="M754 719q53 0 53 -53v-379q0 -303 -336 -303h-16q-336 0 -336 303v860q0 150 86 226.5t250 76.5h16q164 0 250 -76.5t86 -226.5v-139q0 -54 -53 -54h-39q-56 0 -56 54v102q0 111 -46 159t-150 48t-150.5 -48t-46.5 -159v-786q0 -111 46.5 -159t150.5 -48t150 48t46 159
v264h-151q-53 0 -53 55v23q0 53 53 53h246z" />
    <glyph glyph-name="h" unicode="h" horiz-adv-x="952" 
d="M127 1380q0 54 53 54h39q55 0 55 -54v-583h404v583q0 54 55 54h39q53 0 53 -54v-1327q0 -53 -53 -53h-39q-55 0 -55 53v609h-404v-609q0 -53 -55 -53h-39q-53 0 -53 53v1327z" />
    <glyph glyph-name="i" unicode="i" horiz-adv-x="415" 
d="M283 53q0 -53 -56 -53h-39q-53 0 -53 53v1327q0 54 53 54h39q56 0 56 -54v-1327z" />
    <glyph glyph-name="j" unicode="j" horiz-adv-x="565" 
d="M98 135q104 0 151.5 48.5t47.5 160.5v1036q0 54 53 54h41q53 0 53 -54v-1077q0 -303 -342 -303h-12q-53 0 -53 53v29q0 53 53 53h8z" />
    <glyph glyph-name="k" unicode="k" horiz-adv-x="880" 
d="M840 61q9 -27 -2.5 -44t-40.5 -17h-43q-47 0 -62 43l-256 696l-162 -278v-408q0 -53 -55 -53h-39q-53 0 -53 53v1327q0 54 53 54h39q55 0 55 -54v-684l377 699q19 39 64 39h49q31 0 41.5 -18t-4.5 -46l-275 -473z" />
    <glyph glyph-name="l" unicode="l" horiz-adv-x="718" 
d="M629 135q53 0 53 -53v-29q0 -53 -53 -53h-449q-53 0 -53 53v1327q0 54 53 54h39q55 0 55 -54v-1245h355z" />
    <glyph glyph-name="m" unicode="m" horiz-adv-x="1218" 
d="M948 1073l-284 -797q-15 -43 -56 -43q-44 0 -59 43l-285 797v-1020q0 -53 -53 -53h-31q-53 0 -53 53v1327q0 54 53 54h43q47 0 62 -43l319 -906l326 906q13 43 61 43h47q54 0 54 -54v-1327q0 -53 -54 -53h-37q-53 0 -53 53v1020z" />
    <glyph glyph-name="n" unicode="n" horiz-adv-x="960" 
d="M264 53q0 -53 -53 -53h-31q-53 0 -53 53v1327q0 54 53 54h51q48 0 60 -43l405 -1045v1034q0 54 54 54h30q54 0 54 -54v-1327q0 -53 -54 -53h-43q-46 0 -61 43l-412 1065v-1055z" />
    <glyph glyph-name="o" unicode="o" horiz-adv-x="925" 
d="M119 1147q0 303 336 303h16q336 0 336 -303v-860q0 -303 -336 -303h-16q-336 0 -336 303v860zM266 324q0 -111 46.5 -159t150.5 -48t150 48t46 159v786q0 111 -46 159t-150 48t-150.5 -48t-46.5 -159v-786z" />
    <glyph glyph-name="p" unicode="p" horiz-adv-x="882" 
d="M473 1434q165 0 250.5 -76t85.5 -228v-239q0 -303 -336 -303h-199v-535q0 -53 -55 -53h-39q-53 0 -53 53v1327q0 54 53 54h293zM662 928v166q0 111 -46.5 158.5t-150.5 47.5h-191v-579h191q104 0 150.5 48t46.5 159z" />
    <glyph glyph-name="q" unicode="q" horiz-adv-x="925" 
d="M471 1450q336 0 336 -303v-860q0 -271 -270 -299v-144q0 -53 -54 -53h-32q-54 0 -54 53v142q-278 25 -278 301v860q0 303 336 303h16zM659 324v786q0 111 -46 159t-150 48t-150.5 -48t-46.5 -159v-786q0 -111 46.5 -159t150.5 -48t150 48t46 159z" />
    <glyph glyph-name="r" unicode="r" horiz-adv-x="923" 
d="M838 61q9 -27 -2.5 -44t-40.5 -17h-43q-47 0 -62 43l-205 561h-12h-199v-551q0 -53 -55 -53h-39q-53 0 -53 53v1327q0 54 53 54h293q165 0 250.5 -76t85.5 -228v-223q0 -220 -180 -280zM274 1300v-565h191q104 0 150.5 48t46.5 159v152q0 111 -46.5 158.5t-150.5 47.5
h-191z" />
    <glyph glyph-name="s" unicode="s" horiz-adv-x="856" 
d="M758 987q0 -53 -53 -53h-39q-54 0 -54 53v135q0 103 -43.5 150t-140.5 47t-140.5 -47t-43.5 -150v-100q0 -69 26 -102.5t103 -75.5l205 -113q90 -49 137 -110.5t47 -147.5v-190q0 -154 -82.5 -226.5t-247.5 -72.5h-4q-166 0 -248 71.5t-82 227.5v184q0 53 54 53h38
q54 0 54 -53v-152q0 -102 44.5 -151t141.5 -49t141.5 49t44.5 151v115q0 69 -29 107t-106 81l-200 111q-99 56 -141 110t-42 144v172q0 146 87.5 220.5t240.5 74.5h4q153 0 240.5 -74.5t87.5 -220.5v-168z" />
    <glyph glyph-name="t" unicode="t" horiz-adv-x="716" 
d="M641 1434q53 0 53 -54v-26q0 -54 -53 -54h-209v-1247q0 -53 -53 -53h-41q-53 0 -53 53v1247h-207q-53 0 -53 54v26q0 54 53 54h563z" />
    <glyph glyph-name="u" unicode="u" 
d="M741 1434q54 0 54 -54v-1093q0 -303 -332 -303h-8q-165 0 -248.5 73.5t-83.5 229.5v1093q0 54 53 54h39q55 0 55 -54v-1056q0 -113 43 -160t146 -47t145.5 47t42.5 160v1056q0 54 55 54h39z" />
    <glyph glyph-name="v" unicode="v" horiz-adv-x="835" 
d="M735 1434q58 0 49 -60l-276 -1327q-9 -47 -59 -47h-62q-50 0 -59 47l-277 1327q-9 60 49 60h43q49 0 58 -50l221 -1134l221 1134q9 50 57 50h35z" />
    <glyph glyph-name="w" unicode="w" horiz-adv-x="1314" 
d="M1212 1434q28 0 41 -15t9 -43l-222 -1327q-9 -49 -57 -49h-43q-50 0 -59 47l-222 1102l-223 -1102q-6 -47 -57 -47h-47q-49 0 -58 49l-221 1327q-9 58 49 58h39q49 0 58 -52l166 -1103l217 1107q9 48 59 48h41q50 0 59 -48l217 -1107l166 1103q3 25 18 38.5t38 13.5h32z
" />
    <glyph glyph-name="x" unicode="x" horiz-adv-x="841" 
d="M713 1434q29 0 40.5 -17.5t2.5 -44.5l-246 -639l274 -672q12 -28 0.5 -44.5t-41.5 -16.5h-47q-47 0 -59 43l-219 559l-215 -559q-15 -43 -62 -43h-43q-29 0 -40.5 16.5t-0.5 44.5l279 678l-256 633q-11 28 0.5 45t40.5 17h47q47 0 59 -43l199 -521l184 519q16 45 62 45
h41z" />
    <glyph glyph-name="y" unicode="y" horiz-adv-x="847" 
d="M498 545v-492q0 -53 -54 -53h-41q-53 0 -53 53v492l-289 829q-10 28 1.5 44t41.5 16h43q46 0 62 -45l215 -676l217 676q16 45 61 45h41q30 0 41.5 -16t1.5 -44z" />
    <glyph glyph-name="z" unicode="z" horiz-adv-x="743" 
d="M639 127q53 0 53 -53v-21q0 -53 -53 -53h-533q-53 0 -53 53v21q0 32 13 65l454 1168h-389q-53 0 -53 53v20q0 54 53 54h494q53 0 53 -54v-20q0 -28 -12 -66l-455 -1167h428z" />
    <glyph glyph-name="braceleft" unicode="{" horiz-adv-x="630" 
d="M528 1401q-99 0 -146.5 -46.5t-47.5 -162.5v-283q0 -73 -33 -118t-106 -66q73 -23 106 -67t33 -117v-299q0 -116 47.5 -162.5t146.5 -46.5q45 0 45 -53v-25q0 -53 -45 -53q-335 0 -335 303v327q0 51 -23 81t-74 42q-47 15 -47 58v20q0 42 47 60q51 12 74 41.5t23 80.5
v314q0 303 335 303q45 0 45 -53v-25q0 -53 -45 -53z" />
    <glyph glyph-name="bar" unicode="|" horiz-adv-x="471" 
d="M303 -152q0 -53 -53 -53h-29q-53 0 -53 53v1737q0 53 53 53h29q53 0 53 -53v-1737z" />
    <glyph glyph-name="braceright" unicode="}" horiz-adv-x="630" 
d="M102 1401q-45 0 -45 53v25q0 53 45 53q336 0 336 -303v-314q0 -51 23 -80.5t74 -41.5q47 -18 47 -60v-20q0 -43 -47 -58q-51 -12 -74 -42t-23 -81v-327q0 -303 -336 -303q-45 0 -45 53v25q0 53 45 53q99 0 147 46.5t48 162.5v299q0 73 33 117t106 67q-73 21 -106 66
t-33 118v283q0 116 -48 162.5t-147 46.5z" />
    <glyph glyph-name="asciitilde" unicode="~" horiz-adv-x="811" 
d="M184 643q0 44 21 69t53 25q30 0 67.5 -22.5t69 -50t76.5 -50t88 -22.5q73 0 125.5 54.5t52.5 162.5q0 39 -35 39h-40q-37 0 -37 -35v-6q0 -42 -19.5 -67t-52.5 -25q-28 0 -64.5 22.5t-67 50t-76 50t-89.5 22.5q-73 0 -127.5 -55t-54.5 -162q0 -39 35 -39h41q34 0 34 35v4
z" />
    <glyph glyph-name="exclamdown" unicode="&#xa1;" horiz-adv-x="364" 
d="M205 1251h-45q-54 0 -54 54v75q0 54 54 54h45q53 0 53 -54v-75q0 -54 -53 -54zM203 0h-43q-54 0 -54 53v168l19 821q0 52 53 52h8q54 0 54 -52l16 -823v-166q0 -53 -53 -53z" />
    <glyph glyph-name="cent" unicode="&#xa2;" horiz-adv-x="843" 
d="M670 856q-54 0 -54 53v25q0 110 -45.5 159.5t-146.5 49.5t-147 -49.5t-46 -159.5v-434q0 -110 46 -159.5t147 -49.5q100 0 146 52t46 157v59q0 53 54 53h39q53 0 53 -53v-96q0 -271 -268 -299v-111q0 -53 -54 -53h-28q-54 0 -54 53v109q-272 28 -272 301v508
q0 134 69.5 209.5t202.5 89.5v110q0 54 54 54h28q54 0 54 -54v-110q131 -14 199.5 -90t68.5 -209v-62q0 -53 -53 -53h-39z" />
    <glyph glyph-name="sterling" unicode="&#xa3;" horiz-adv-x="843" 
d="M772 983q0 -53 -53 -53h-39q-55 0 -55 53v147q0 91 -29.5 139t-114.5 48t-115 -48t-30 -139v-358h199q53 0 53 -53v-14q0 -54 -53 -54h-199q0 -239 -27.5 -359t-105.5 -159h495q54 0 54 -53v-27q0 -53 -54 -53h-575q-48 0 -57 47l-11 41q-7 38 29 70q62 48 83 160.5
t21 332.5h-82q-53 0 -53 54v14q0 53 53 53h82v375q0 303 291 303h4q155 0 222 -79t67 -224v-164z" />
    <glyph glyph-name="yen" unicode="&#xa5;" horiz-adv-x="847" 
d="M743 1434q30 0 41.5 -16t1.5 -44l-243 -698h143q39 0 39 -37v-14q0 -37 -39 -37h-174l-14 -43v-88h188q39 0 39 -37v-14q0 -37 -39 -37h-188v-316q0 -53 -54 -53h-41q-53 0 -53 53v316h-213q-39 0 -39 37v14q0 37 39 37h213v88l-14 43h-199q-39 0 -39 37v14q0 37 39 37
h168l-244 698q-10 28 1.5 44t41.5 16h43q46 0 62 -45l215 -676l217 676q16 45 61 45h41z" />
    <glyph glyph-name="brokenbar" unicode="&#xa6;" horiz-adv-x="471" 
d="M221 901q-53 0 -53 53v631q0 53 53 53h29q53 0 53 -53v-631q0 -53 -53 -53h-29zM250 573q53 0 53 -53v-672q0 -53 -53 -53h-29q-53 0 -53 53v672q0 53 53 53h29z" />
    <glyph glyph-name="section" unicode="&#xa7;" horiz-adv-x="860" 
d="M616 528v60q0 73 -46 121t-167 106q-172 82 -237.5 151t-65.5 167v104q0 146 87.5 220.5t240.5 74.5h4q153 0 240.5 -74.5t87.5 -220.5v-133q0 -53 -53 -53h-39q-54 0 -54 53v100q0 103 -43.5 150t-140.5 47q-96 0 -139 -47t-43 -150v-39q0 -72 42.5 -115t170.5 -104
q163 -77 233 -149t70 -172v-213q-37 65 -148 116zM248 823v-63q0 -73 40.5 -115t168.5 -102q163 -77 235 -152t72 -172v-121q0 -154 -82.5 -226.5t-247.5 -72.5h-4q-166 0 -248 71.5t-82 227.5v158q0 55 54 55h39q25 0 39 -14.5t14 -40.5v-125q0 -103 44.5 -152t141.5 -49
t140.5 49t43.5 152v51q0 73 -48 122.5t-177 111.5q-165 81 -228 147t-63 164v209q37 -54 148 -113z" />
    <glyph glyph-name="dieresis" unicode="&#xa8;" horiz-adv-x="901" 
d="M324 1718q53 0 53 -55v-64q0 -53 -53 -53h-39q-54 0 -54 53v64q0 55 54 55h39zM616 1718q54 0 54 -55v-64q0 -53 -54 -53h-38q-54 0 -54 53v64q0 55 54 55h38z" />
    <glyph glyph-name="copyright" unicode="&#xa9;" horiz-adv-x="1292" 
d="M825 1450q349 0 349 -303v-860q0 -303 -349 -303h-370q-167 0 -251.5 72t-84.5 231v860q0 303 348 303h358zM1073 1165q0 94 -58 142.5t-163 48.5h-412q-106 0 -164.5 -48.5t-58.5 -142.5v-897q0 -94 58.5 -142t164.5 -48h412q105 0 163 48t58 142v897zM846 616
q49 0 49 -47v-145q0 -99 -67 -154t-179 -55h-4q-113 0 -179.5 54t-66.5 155v586q0 96 67.5 152.5t178.5 56.5h4q111 0 178.5 -56.5t67.5 -152.5v-121q0 -47 -49 -47h-19q-49 0 -49 47v84q0 139 -131 139q-133 0 -133 -139v-512q0 -139 133 -139q131 0 131 139v108
q0 47 49 47h19z" />
    <glyph glyph-name="ordfeminine" unicode="&#xaa;" horiz-adv-x="466" 
d="M410 885q0 -12 -7.5 -19.5t-19.5 -7.5h-31q-26 0 -26 27v22q-30 -51 -119 -51q-72 0 -111 39.5t-39 112.5v61q0 73 39.5 111.5t110.5 38.5q36 0 67.5 -14.5t44.5 -41.5v115q0 82 -73 82h-23q-73 0 -73 -82q0 -25 -27 -25h-31q-26 0 -26 27v12q0 67 42.5 108.5t114.5 41.5
h31q70 0 113 -42t43 -108v-407zM319 1055q0 42 -22 62t-51 20h-25q-74 0 -74 -82v-39q0 -80 74 -80h25q29 0 51 19t22 61v39zM410 690q0 -26 -27 -26h-299q-27 0 -27 26v27q0 26 27 26h299q27 0 27 -26v-27z" />
    <glyph glyph-name="guillemotleft" unicode="&#xab;" horiz-adv-x="806" 
d="M367 924q30 21 30 65v27q0 34 -19.5 43t-45.5 -15l-271 -249q-28 -22 -28 -66v-8q0 -44 28 -66l271 -249q26 -24 45.5 -18t19.5 36v37q0 44 -30 65l-217 199zM715 924q30 21 30 65v27q0 34 -19.5 43t-45.5 -15l-270 -249q-29 -23 -29 -66v-8q0 -43 29 -66l270 -249
q26 -24 45.5 -18t19.5 36v37q0 44 -30 65l-217 199z" />
    <glyph glyph-name="registered" unicode="&#xae;" horiz-adv-x="673" 
d="M430 1446q90 0 137 -44.5t47 -121.5v-440q0 -78 -47 -123t-137 -45h-190q-88 0 -134.5 45t-46.5 123v440q0 80 47.5 123t139.5 43h184zM549 829v461q0 44 -28 70t-79 26h-211q-51 0 -78.5 -26t-27.5 -70v-461q0 -44 27.5 -71t78.5 -27h211q51 0 79 27t28 71zM406 1020
l61 -184q4 -13 -1.5 -21t-19.5 -8h-14q-22 0 -31 20l-55 181h-4h-59v-174q0 -27 -25 -27h-14q-12 0 -19.5 7.5t-7.5 19.5v450q0 12 7.5 19.5t19.5 7.5h98q57 0 88 -27.5t31 -79.5v-90q0 -72 -55 -94zM283 1249v-182h57q55 0 55 59v66q0 57 -55 57h-57z" />
    <glyph glyph-name="macron" unicode="&#xaf;" horiz-adv-x="790" 
d="M627 1599q0 -53 -54 -53h-356q-53 0 -53 53v15q0 55 53 55h356q54 0 54 -55v-15z" />
    <glyph glyph-name="degree" unicode="&#xb0;" horiz-adv-x="557" 
d="M279 1450q114 0 176.5 -69.5t62.5 -194.5q0 -126 -62.5 -195t-176.5 -69t-178 69t-64 195q0 124 64 194t178 70zM279 1362q-69 0 -108.5 -46.5t-39.5 -129.5t39.5 -129.5t108.5 -46.5t107 46.5t38 129.5t-38 129.5t-107 46.5z" />
    <glyph glyph-name="plusminus" unicode="&#xb1;" horiz-adv-x="860" 
d="M698 915q26 0 41 -14t15 -39v-10q0 -53 -56 -53h-209v-211q0 -26 -14 -41t-39 -15h-10q-53 0 -53 56v211h-211q-56 0 -56 53v10q0 25 15 39t41 14h211v209q0 56 53 56h10q25 0 39 -15t14 -41v-209h209zM698 403q26 0 41 -14t15 -39v-10q0 -53 -56 -53h-536q-56 0 -56 53
v10q0 25 15 39t41 14h536z" />
    <glyph glyph-name="acute" unicode="&#xb4;" horiz-adv-x="927" 
d="M463 1774q20 36 63 36h56q34 0 43 -19.5t-13 -45.5l-133 -170q-23 -29 -61 -29h-6q-31 0 -41 17t4 45z" />
    <glyph glyph-name="paragraph" unicode="&#xb6;" horiz-adv-x="1159" 
d="M979 1434q53 0 53 -54v-1327q0 -53 -53 -53h-39q-55 0 -55 53v1247h-129v-1247q0 -53 -54 -53h-38q-56 0 -56 53v549h-198q-336 0 -336 303v225q0 152 85.5 228t250.5 76h569z" />
    <glyph glyph-name="periodcentered" unicode="&#xb7;" horiz-adv-x="339" 
d="M193 821q53 0 53 -53v-76q0 -53 -53 -53h-46q-53 0 -53 53v76q0 53 53 53h46z" />
    <glyph glyph-name="cedilla" unicode="&#xb8;" horiz-adv-x="720" 
d="M463 0v-98q0 -92 -36 -130t-116 -38q-35 0 -65 6q-29 8 -39 41l-2 12q-7 22 2 34.5t31 12.5h34q42 0 57 14.5t15 55.5v90h119z" />
    <glyph glyph-name="ordmasculine" unicode="&#xba;" horiz-adv-x="477" 
d="M256 1442q73 0 118.5 -45t45.5 -125v-250q0 -80 -45.5 -125t-118.5 -45h-33q-75 0 -120.5 45t-45.5 125v250q0 80 45.5 125t120.5 45h33zM330 1257q0 103 -84 103h-19q-82 0 -82 -103v-221q0 -102 82 -102h19q84 0 84 102v221zM84 664q-27 0 -27 26v27q0 26 27 26h309
q27 0 27 -26v-27q0 -26 -27 -26h-309z" />
    <glyph glyph-name="guillemotright" unicode="&#xbb;" horiz-adv-x="806" 
d="M92 924l217 -199l-217 -199q-31 -22 -31 -65v-37q0 -30 20 -36t46 18l270 249q29 23 29 66v8q0 43 -29 66l-270 249q-26 24 -46 15t-20 -43v-27q0 -43 31 -65zM440 924l217 -199l-217 -199q-30 -21 -30 -65v-37q0 -30 19.5 -36t45.5 18l270 249q29 23 29 66v8
q0 43 -29 66l-270 249q-26 24 -45.5 15t-19.5 -43v-27q0 -44 30 -65z" />
    <glyph glyph-name="onequarter" unicode="&#xbc;" horiz-adv-x="1026" 
d="M203 606q0 -41 -39 -41h-29q-41 0 -41 41v719q0 14 8 25q19 22 29 51q9 33 37 33h4q14 0 22.5 -10t8.5 -27v-791zM633 1401q11 33 45 33h10q23 0 32 -12.5t1 -32.5l-494 -1356q-11 -33 -45 -33h-10q-23 0 -32 12.5t-1 32.5zM821 868q41 0 41 -41v-518h31q41 0 41 -41v-20
q0 -41 -41 -41h-31v-166q0 -41 -41 -41h-30q-41 0 -41 41v166h-211q-41 0 -41 41v28q0 23 10 50l209 510q11 32 47 32h57zM750 696l-154 -387h154v387z" />
    <glyph glyph-name="onehalf" unicode="&#xbd;" horiz-adv-x="1067" 
d="M203 606q0 -41 -39 -41h-29q-41 0 -41 41v719q0 14 8 25q19 22 29 51q10 33 37 33h4q14 0 22.5 -10t8.5 -27v-791zM633 1401q11 33 45 33h10q23 0 32 -12.5t1 -32.5l-494 -1356q-11 -33 -45 -33h-10q-23 0 -32 12.5t-1 32.5zM616 545q-41 0 -41 41v106q0 91 50 138
t147 47h2q98 0 148.5 -47t50.5 -138v-88q0 -21 -4.5 -40.5t-9.5 -34.5t-18.5 -33.5t-21 -28.5t-28 -29.5t-28.5 -26t-33.5 -28t-32.5 -27.5q-64 -54 -88.5 -93.5t-24.5 -82.5v-82h248q41 0 41 -41v-16q0 -41 -41 -41h-320q-41 0 -41 41v141q0 76 38.5 130t121.5 126
q78 64 103.5 95t25.5 73v70q0 53 -21.5 77.5t-68.5 24.5q-45 0 -65.5 -24.5t-20.5 -77.5v-90q0 -41 -41 -41h-27z" />
    <glyph glyph-name="threequarters" unicode="&#xbe;" horiz-adv-x="1261" 
d="M498 1151q0 -107 -72 -131q72 -24 72 -123v-149q0 -87 -47 -139t-140 -52h-30q-93 0 -140 52t-47 139v86q0 40 41 40h29q39 0 39 -40v-70q0 -57 22 -82t66 -25h10q44 0 66 25t22 82v125q0 78 -84 78h-61q-41 0 -41 41v16q0 41 41 41h49q51 0 73.5 20.5t22.5 71.5v82
q0 57 -22 82t-66 25h-12q-44 0 -65 -24.5t-21 -82.5v-49q0 -41 -41 -41h-27q-41 0 -41 41v65q0 191 197 191h10q197 0 197 -191v-104zM866 1401q11 33 45 33h11q23 0 31.5 -12t0.5 -33l-493 -1356q-11 -33 -45 -33h-10q-23 0 -32 12.5t-1 32.5zM1055 868q41 0 41 -41v-518
h30q41 0 41 -41v-20q0 -41 -41 -41h-30v-166q0 -41 -41 -41h-31q-39 0 -39 41v166h-211q-41 0 -41 41v28q0 23 10 50l209 510q11 32 47 32h56zM985 696l-156 -387h156v387z" />
    <glyph glyph-name="questiondown" unicode="&#xbf;" horiz-adv-x="782" 
d="M377 1251q-53 0 -53 54v75q0 54 53 54h45q53 0 53 -54v-75q0 -54 -53 -54h-45zM408 1092q53 0 53 -54v-159q0 -146 -137 -269q-51 -43 -77 -84t-26 -96v-127q0 -105 43 -148.5t131 -43.5t128 43t40 149v143q0 54 53 54h35q54 0 54 -54v-167q0 -152 -75 -223.5t-237 -71.5
h-4q-162 0 -236.5 71.5t-74.5 223.5v167q0 47 12 87.5t36 72.5t44 52.5t51 46.5q63 49 90 100t27 131v102q0 54 53 54h17z" />
    <glyph glyph-name="Agrave" unicode="&#xc0;" horiz-adv-x="868" 
d="M369 1575l-133 170q-22 26 -13 45.5t43 19.5h56q44 0 63 -36l88 -166q14 -28 7.5 -45t-31.5 -17h-19q-38 0 -61 29zM817 59q9 -59 -49 -59h-43q-49 0 -57 49l-62 305h-352l-61 -305q-8 -49 -58 -49h-35q-58 0 -49 59l283 1327q9 48 59 48h78q50 0 59 -48zM281 483h299
l-150 746z" />
    <glyph glyph-name="Aacute" unicode="&#xc1;" horiz-adv-x="868" 
d="M430 1546q-31 0 -41 17t4 45l88 166q20 36 64 36h55q34 0 43.5 -19.5t-12.5 -45.5l-133 -170q-23 -29 -62 -29h-6zM817 59q9 -59 -49 -59h-43q-49 0 -57 49l-62 305h-352l-61 -305q-8 -49 -58 -49h-35q-58 0 -49 59l283 1327q9 48 59 48h78q50 0 59 -48zM281 483h299
l-150 746z" />
    <glyph glyph-name="Acircumflex" unicode="&#xc2;" horiz-adv-x="868" 
d="M256 1546q-28 0 -36 20t11 46l113 164q19 34 64 34h49q44 0 63 -34l113 -164q19 -26 11 -46t-36 -20h-26q-43 0 -62 37l-88 129l-88 -129q-19 -37 -61 -37h-27zM817 59q9 -59 -49 -59h-43q-49 0 -57 49l-62 305h-352l-61 -305q-8 -49 -58 -49h-35q-58 0 -49 59l283 1327
q9 48 59 48h78q50 0 59 -48zM281 483h299l-150 746z" />
    <glyph glyph-name="Atilde" unicode="&#xc3;" horiz-adv-x="868" 
d="M176 1554q-45 0 -45 45q0 96 48.5 145.5t119.5 49.5q42 0 81 -21t63.5 -46.5t54.5 -46.5t57 -21q68 0 68 90q0 37 45 37h20q45 0 45 -47q0 -96 -46.5 -145.5t-115.5 -49.5q-42 0 -81.5 21t-65 46.5t-57.5 46.5t-60 21q-67 0 -67 -90q0 -35 -45 -35h-19zM817 59
q9 -59 -49 -59h-43q-49 0 -57 49l-62 305h-352l-61 -305q-8 -49 -58 -49h-35q-58 0 -49 59l283 1327q9 48 59 48h78q50 0 59 -48zM281 483h299l-150 746z" />
    <glyph glyph-name="Adieresis" unicode="&#xc4;" horiz-adv-x="868" 
d="M266 1546q-53 0 -53 53v64q0 55 53 55h39q53 0 53 -55v-64q0 -53 -53 -53h-39zM559 1546q-53 0 -53 53v64q0 55 53 55h39q53 0 53 -55v-64q0 -53 -53 -53h-39zM817 59q9 -59 -49 -59h-43q-49 0 -57 49l-62 305h-352l-61 -305q-8 -49 -58 -49h-35q-58 0 -49 59l283 1327
q9 48 59 48h78q50 0 59 -48zM281 483h299l-150 746z" />
    <glyph glyph-name="Aring" unicode="&#xc5;" horiz-adv-x="868" 
d="M432 1534q-78 0 -125 43t-47 115t47 114.5t125 42.5q77 0 123.5 -42.5t46.5 -114.5t-46.5 -115t-123.5 -43zM432 1772q-37 0 -59.5 -21t-22.5 -59t22.5 -59t59.5 -21q36 0 58 20.5t22 59.5t-22 59.5t-58 20.5zM817 59q9 -59 -49 -59h-43q-49 0 -57 49l-62 305h-352
l-61 -305q-8 -49 -58 -49h-35q-58 0 -49 59l283 1327q9 48 59 48h78q50 0 59 -48zM281 483h299l-150 746z" />
    <glyph glyph-name="AE" unicode="&#xc6;" horiz-adv-x="1269" 
d="M1155 133q53 0 53 -53v-27q0 -53 -53 -53h-479q-53 0 -53 53v301h-336l-97 -309q-12 -45 -59 -45h-41q-28 0 -40 16t-3 43l422 1332q12 43 59 43h621q53 0 53 -54v-26q0 -54 -53 -54h-379v-507h315q54 0 54 -54v-24q0 -53 -54 -53h-315v-529h385zM326 481h297v819h-43z
" />
    <glyph glyph-name="Ccedilla" unicode="&#xc7;" horiz-adv-x="905" 
d="M702 897q-55 0 -55 53v160q0 110 -44.5 158.5t-145.5 48.5t-146 -48.5t-45 -158.5v-786q0 -110 45 -158.5t146 -48.5t145.5 48.5t44.5 158.5v194q0 53 55 53h39q54 0 54 -53v-231q0 -279 -287 -301v-84q0 -92 -36 -130t-116 -38q-35 0 -65 6q-29 8 -39 41l-2 12
q-7 22 2 34.5t31 12.5h34q42 0 57 14.5t15 55.5v78q-270 25 -270 299v860q0 150 86 226.5t250 76.5h4q164 0 250 -76.5t86 -226.5v-197q0 -53 -54 -53h-39z" />
    <glyph glyph-name="Egrave" unicode="&#xc8;" horiz-adv-x="774" 
d="M303 1810q45 0 64 -36l88 -166q14 -28 7 -45t-32 -17h-18q-39 0 -62 29l-133 170q-22 26 -12.5 45.5t43.5 19.5h55zM713 53q0 -53 -54 -53h-479q-53 0 -53 53v1327q0 54 53 54h473q54 0 54 -54v-26q0 -54 -54 -54h-379v-507h316q53 0 53 -54v-24q0 -53 -53 -53h-316v-529
h385q54 0 54 -53v-27z" />
    <glyph glyph-name="Eacute" unicode="&#xc9;" horiz-adv-x="774" 
d="M463 1774q20 36 63 36h56q34 0 43 -19.5t-13 -45.5l-133 -170q-23 -29 -61 -29h-6q-31 0 -41 17t4 45zM713 53q0 -53 -54 -53h-479q-53 0 -53 53v1327q0 54 53 54h473q54 0 54 -54v-26q0 -54 -54 -54h-379v-507h316q53 0 53 -54v-24q0 -53 -53 -53h-316v-529h385
q54 0 54 -53v-27z" />
    <glyph glyph-name="Ecircumflex" unicode="&#xca;" horiz-adv-x="774" 
d="M590 1546q28 0 35.5 20t-11.5 46l-112 164q-19 34 -64 34h-49q-44 0 -63 -34l-113 -164q-19 -26 -11 -46t36 -20h26q43 0 62 37l88 129l88 -129q19 -37 61 -37h27zM713 53q0 -53 -54 -53h-479q-53 0 -53 53v1327q0 54 53 54h473q54 0 54 -54v-26q0 -54 -54 -54h-379v-507
h316q53 0 53 -54v-24q0 -53 -53 -53h-316v-529h385q54 0 54 -53v-27z" />
    <glyph glyph-name="Edieresis" unicode="&#xcb;" horiz-adv-x="774" 
d="M287 1718q53 0 53 -55v-64q0 -53 -53 -53h-39q-53 0 -53 53v64q0 55 53 55h39zM580 1718q53 0 53 -55v-64q0 -53 -53 -53h-39q-54 0 -54 53v64q0 55 54 55h39zM713 53q0 -53 -54 -53h-479q-53 0 -53 53v1327q0 54 53 54h473q54 0 54 -54v-26q0 -54 -54 -54h-379v-507h316
q53 0 53 -54v-24q0 -53 -53 -53h-316v-529h385q54 0 54 -53v-27z" />
    <glyph glyph-name="Igrave" unicode="&#xcc;" horiz-adv-x="415" 
d="M98 1810q45 0 64 -36l88 -166q14 -28 7 -45t-32 -17h-18q-39 0 -62 29l-133 170q-22 26 -12.5 45.5t43.5 19.5h55zM283 53q0 -53 -56 -53h-39q-53 0 -53 53v1327q0 54 53 54h39q56 0 56 -54v-1327z" />
    <glyph glyph-name="Iacute" unicode="&#xcd;" horiz-adv-x="415" 
d="M258 1774q20 36 64 36h55q34 0 43.5 -19.5t-12.5 -45.5l-134 -170q-23 -29 -61 -29h-6q-31 0 -41 17t4 45zM283 53q0 -53 -56 -53h-39q-53 0 -53 53v1327q0 54 53 54h39q56 0 56 -54v-1327z" />
    <glyph glyph-name="Icircumflex" unicode="&#xce;" horiz-adv-x="415" 
d="M385 1546q28 0 36 20t-11 46l-113 164q-19 34 -64 34h-49q-44 0 -63 -34l-113 -164q-19 -26 -11 -46t36 -20h26q43 0 62 37l88 129l88 -129q19 -37 61 -37h27zM283 53q0 -53 -56 -53h-39q-53 0 -53 53v1327q0 54 53 54h39q56 0 56 -54v-1327z" />
    <glyph glyph-name="Idieresis" unicode="&#xcf;" horiz-adv-x="415" 
d="M82 1718q53 0 53 -55v-64q0 -53 -53 -53h-39q-53 0 -53 53v64q0 55 53 55h39zM375 1718q53 0 53 -55v-64q0 -53 -53 -53h-39q-53 0 -53 53v64q0 55 53 55h39zM283 53q0 -53 -56 -53h-39q-53 0 -53 53v1327q0 54 53 54h39q56 0 56 -54v-1327z" />
    <glyph glyph-name="Eth" unicode="&#xd0;" horiz-adv-x="944" 
d="M489 1434q165 0 250.5 -76t85.5 -228v-827q0 -303 -336 -303h-288q-54 0 -54 53v611h-53q-53 0 -53 53v24q0 54 53 54h53v585q0 54 54 54h288zM678 340v754q0 111 -46.5 158.5t-150.5 47.5h-186v-505h172q53 0 53 -54v-24q0 -53 -53 -53h-172v-531h186q104 0 150.5 48
t46.5 159z" />
    <glyph glyph-name="Ntilde" unicode="&#xd1;" horiz-adv-x="960" 
d="M293 1589q0 90 67 90q28 0 60 -21t57.5 -46.5t65.5 -46.5t82 -21q69 0 115 49.5t46 145.5q0 47 -45 47h-20q-45 0 -45 -37q0 -90 -68 -90q-27 0 -57 21t-54.5 46.5t-63.5 46.5t-81 21q-71 0 -119.5 -49.5t-48.5 -145.5q0 -45 45 -45h19q45 0 45 35zM264 53q0 -53 -53 -53
h-31q-53 0 -53 53v1327q0 54 53 54h51q48 0 60 -43l405 -1045v1034q0 54 54 54h30q54 0 54 -54v-1327q0 -53 -54 -53h-43q-46 0 -61 43l-412 1065v-1055z" />
    <glyph glyph-name="Ograve" unicode="&#xd2;" horiz-adv-x="925" 
d="M352 1810q45 0 64 -36l88 -166q14 -28 7 -45t-32 -17h-18q-39 0 -62 29l-133 170q-22 26 -12.5 45.5t43.5 19.5h55zM119 1147q0 303 336 303h16q336 0 336 -303v-860q0 -303 -336 -303h-16q-336 0 -336 303v860zM266 324q0 -111 46.5 -159t150.5 -48t150 48t46 159v786
q0 111 -46 159t-150 48t-150.5 -48t-46.5 -159v-786z" />
    <glyph glyph-name="Oacute" unicode="&#xd3;" horiz-adv-x="925" 
d="M512 1774q20 36 63 36h56q34 0 43.5 -19.5t-12.5 -45.5l-134 -170q-23 -29 -61 -29h-6q-31 0 -41 17t4 45zM119 1147q0 303 336 303h16q336 0 336 -303v-860q0 -303 -336 -303h-16q-336 0 -336 303v860zM266 324q0 -111 46.5 -159t150.5 -48t150 48t46 159v786
q0 111 -46 159t-150 48t-150.5 -48t-46.5 -159v-786z" />
    <glyph glyph-name="Ocircumflex" unicode="&#xd4;" horiz-adv-x="925" 
d="M639 1546q28 0 36 20t-11 46l-113 164q-19 34 -64 34h-49q-44 0 -63 -34l-113 -164q-19 -26 -11 -46t36 -20h26q43 0 62 37l88 129l88 -129q19 -37 61 -37h27zM119 1147q0 303 336 303h16q336 0 336 -303v-860q0 -303 -336 -303h-16q-336 0 -336 303v860zM266 324
q0 -111 46.5 -159t150.5 -48t150 48t46 159v786q0 111 -46 159t-150 48t-150.5 -48t-46.5 -159v-786z" />
    <glyph glyph-name="Otilde" unicode="&#xd5;" horiz-adv-x="925" 
d="M270 1589q0 90 68 90q28 0 60 -21t57.5 -46.5t65 -46.5t81.5 -21q70 0 116 49.5t46 145.5q0 47 -45 47h-21q-45 0 -45 -37q0 -90 -67 -90q-27 0 -57 21t-54.5 46.5t-63.5 46.5t-81 21q-71 0 -119.5 -49.5t-48.5 -145.5q0 -45 45 -45h18q45 0 45 35zM119 1147
q0 303 336 303h16q336 0 336 -303v-860q0 -303 -336 -303h-16q-336 0 -336 303v860zM266 324q0 -111 46.5 -159t150.5 -48t150 48t46 159v786q0 111 -46 159t-150 48t-150.5 -48t-46.5 -159v-786z" />
    <glyph glyph-name="Odieresis" unicode="&#xd6;" horiz-adv-x="925" 
d="M336 1718q53 0 53 -55v-64q0 -53 -53 -53h-39q-53 0 -53 53v64q0 55 53 55h39zM629 1718q53 0 53 -55v-64q0 -53 -53 -53h-39q-53 0 -53 53v64q0 55 53 55h39zM119 1147q0 303 336 303h16q336 0 336 -303v-860q0 -303 -336 -303h-16q-336 0 -336 303v860zM266 324
q0 -111 46.5 -159t150.5 -48t150 48t46 159v786q0 111 -46 159t-150 48t-150.5 -48t-46.5 -159v-786z" />
    <glyph glyph-name="multiply" unicode="&#xd7;" horiz-adv-x="860" 
d="M662 956q36 -36 -3 -75l-151 -150l151 -149q38 -38 3 -76l-9 -6q-38 -38 -73 0l-152 151l-147 -149q-37 -37 -76 -2l-6 8q-38 38 0 74l151 149l-151 150q-40 37 0 73l6 9q38 38 76 0l147 -152l152 152q34 37 73 2z" />
    <glyph glyph-name="Oslash" unicode="&#xd8;" horiz-adv-x="925" 
d="M471 1450q336 0 336 -303v-860q0 -303 -336 -303h-16q-336 0 -336 303v860q0 303 336 303h16zM266 1110v-786q0 -86 29 -136l252 1119q-42 10 -84 10q-104 0 -150.5 -48t-46.5 -159zM659 324v786q0 87 -28 135l-252 -1118q42 -10 84 -10q104 0 150 48t46 159z" />
    <glyph glyph-name="Ugrave" unicode="&#xd9;" 
d="M348 1810q45 0 64 -36l88 -166q14 -28 7 -45t-32 -17h-18q-39 0 -62 29l-133 170q-22 26 -12.5 45.5t43.5 19.5h55zM741 1434q54 0 54 -54v-1093q0 -303 -332 -303h-8q-165 0 -248.5 73.5t-83.5 229.5v1093q0 54 53 54h39q55 0 55 -54v-1056q0 -113 43 -160t146 -47
t145.5 47t42.5 160v1056q0 54 55 54h39z" />
    <glyph glyph-name="Uacute" unicode="&#xda;" 
d="M508 1774q20 36 63 36h56q34 0 43 -19.5t-13 -45.5l-133 -170q-23 -29 -61 -29h-6q-31 0 -41 17t4 45zM741 1434q54 0 54 -54v-1093q0 -303 -332 -303h-8q-165 0 -248.5 73.5t-83.5 229.5v1093q0 54 53 54h39q55 0 55 -54v-1056q0 -113 43 -160t146 -47t145.5 47
t42.5 160v1056q0 54 55 54h39z" />
    <glyph glyph-name="Ucircumflex" unicode="&#xdb;" 
d="M635 1546q28 0 35.5 20t-11.5 46l-112 164q-19 34 -64 34h-49q-44 0 -63 -34l-113 -164q-19 -26 -11 -46t36 -20h26q43 0 62 37l88 129l88 -129q19 -37 61 -37h27zM741 1434q54 0 54 -54v-1093q0 -303 -332 -303h-8q-165 0 -248.5 73.5t-83.5 229.5v1093q0 54 53 54h39
q55 0 55 -54v-1056q0 -113 43 -160t146 -47t145.5 47t42.5 160v1056q0 54 55 54h39z" />
    <glyph glyph-name="Udieresis" unicode="&#xdc;" 
d="M332 1718q53 0 53 -55v-64q0 -53 -53 -53h-39q-53 0 -53 53v64q0 55 53 55h39zM625 1718q53 0 53 -55v-64q0 -53 -53 -53h-39q-54 0 -54 53v64q0 55 54 55h39zM741 1434q54 0 54 -54v-1093q0 -303 -332 -303h-8q-165 0 -248.5 73.5t-83.5 229.5v1093q0 54 53 54h39
q55 0 55 -54v-1056q0 -113 43 -160t146 -47t145.5 47t42.5 160v1056q0 54 55 54h39z" />
    <glyph glyph-name="Yacute" unicode="&#xdd;" horiz-adv-x="847" 
d="M473 1774q20 36 64 36h55q34 0 43.5 -19.5t-12.5 -45.5l-134 -170q-23 -29 -61 -29h-6q-31 0 -41 17t4 45zM498 545v-492q0 -53 -54 -53h-41q-53 0 -53 53v492l-289 829q-10 28 1.5 44t41.5 16h43q46 0 62 -45l215 -676l217 676q16 45 61 45h41q30 0 41.5 -16t1.5 -44z
" />
    <glyph glyph-name="Thorn" unicode="&#xde;" horiz-adv-x="882" 
d="M473 1151q336 0 336 -303v-240q0 -303 -336 -303h-199v-252q0 -53 -55 -53h-39q-53 0 -53 53v1327q0 54 53 54h39q55 0 55 -54v-229h199zM662 645v166q0 111 -46.5 159t-150.5 48h-191v-580h191q104 0 150.5 48t46.5 159z" />
    <glyph glyph-name="germandbls" unicode="&#xdf;" horiz-adv-x="1712" 
d="M758 987q0 -53 -53 -53h-39q-54 0 -54 53v135q0 103 -43.5 150t-140.5 47t-140.5 -47t-43.5 -150v-100q0 -69 26 -102.5t103 -75.5l205 -113q90 -49 137 -110.5t47 -147.5v-190q0 -154 -82.5 -226.5t-247.5 -72.5h-4q-166 0 -248 71.5t-82 227.5v184q0 53 54 53h38
q54 0 54 -53v-152q0 -102 44.5 -151t141.5 -49t141.5 49t44.5 151v115q0 69 -29 107t-106 81l-200 111q-99 56 -141 110t-42 144v172q0 146 87.5 220.5t240.5 74.5h4q153 0 240.5 -74.5t87.5 -220.5v-168zM1614 987q0 -53 -53 -53h-39q-54 0 -54 53v135q0 103 -43.5 150
t-140.5 47t-140.5 -47t-43.5 -150v-100q0 -69 26 -102.5t103 -75.5l205 -113q90 -49 137 -110.5t47 -147.5v-190q0 -154 -82.5 -226.5t-247.5 -72.5h-4q-166 0 -248 71.5t-82 227.5v184q0 53 54 53h39q53 0 53 -53v-152q0 -102 44.5 -151t141.5 -49t142 49t45 151v115
q0 69 -29 106.5t-107 81.5l-200 111q-99 56 -141 110t-42 144v172q0 146 87.5 220.5t240.5 74.5h4q153 0 240.5 -74.5t87.5 -220.5v-168z" />
    <glyph glyph-name="agrave" unicode="&#xe0;" horiz-adv-x="868" 
d="M369 1575l-133 170q-22 26 -13 45.5t43 19.5h56q44 0 63 -36l88 -166q14 -28 7.5 -45t-31.5 -17h-19q-38 0 -61 29zM817 59q9 -59 -49 -59h-43q-49 0 -57 49l-62 305h-352l-61 -305q-8 -49 -58 -49h-35q-58 0 -49 59l283 1327q9 48 59 48h78q50 0 59 -48zM281 483h299
l-150 746z" />
    <glyph glyph-name="aacute" unicode="&#xe1;" horiz-adv-x="868" 
d="M430 1546q-31 0 -41 17t4 45l88 166q20 36 64 36h55q34 0 43.5 -19.5t-12.5 -45.5l-133 -170q-23 -29 -62 -29h-6zM817 59q9 -59 -49 -59h-43q-49 0 -57 49l-62 305h-352l-61 -305q-8 -49 -58 -49h-35q-58 0 -49 59l283 1327q9 48 59 48h78q50 0 59 -48zM281 483h299
l-150 746z" />
    <glyph glyph-name="acircumflex" unicode="&#xe2;" horiz-adv-x="868" 
d="M256 1546q-28 0 -36 20t11 46l113 164q19 34 64 34h49q44 0 63 -34l113 -164q19 -26 11 -46t-36 -20h-26q-43 0 -62 37l-88 129l-88 -129q-19 -37 -61 -37h-27zM817 59q9 -59 -49 -59h-43q-49 0 -57 49l-62 305h-352l-61 -305q-8 -49 -58 -49h-35q-58 0 -49 59l283 1327
q9 48 59 48h78q50 0 59 -48zM281 483h299l-150 746z" />
    <glyph glyph-name="atilde" unicode="&#xe3;" horiz-adv-x="868" 
d="M176 1554q-45 0 -45 45q0 96 48.5 145.5t119.5 49.5q42 0 81 -21t63.5 -46.5t54.5 -46.5t57 -21q68 0 68 90q0 37 45 37h20q45 0 45 -47q0 -96 -46.5 -145.5t-115.5 -49.5q-42 0 -81.5 21t-65 46.5t-57.5 46.5t-60 21q-67 0 -67 -90q0 -35 -45 -35h-19zM817 59
q9 -59 -49 -59h-43q-49 0 -57 49l-62 305h-352l-61 -305q-8 -49 -58 -49h-35q-58 0 -49 59l283 1327q9 48 59 48h78q50 0 59 -48zM281 483h299l-150 746z" />
    <glyph glyph-name="adieresis" unicode="&#xe4;" horiz-adv-x="868" 
d="M266 1546q-53 0 -53 53v64q0 55 53 55h39q53 0 53 -55v-64q0 -53 -53 -53h-39zM559 1546q-53 0 -53 53v64q0 55 53 55h39q53 0 53 -55v-64q0 -53 -53 -53h-39zM817 59q9 -59 -49 -59h-43q-49 0 -57 49l-62 305h-352l-61 -305q-8 -49 -58 -49h-35q-58 0 -49 59l283 1327
q9 48 59 48h78q50 0 59 -48zM281 483h299l-150 746z" />
    <glyph glyph-name="aring" unicode="&#xe5;" horiz-adv-x="868" 
d="M432 1534q-78 0 -125 43t-47 115t47 114.5t125 42.5q77 0 123.5 -42.5t46.5 -114.5t-46.5 -115t-123.5 -43zM432 1772q-37 0 -59.5 -21t-22.5 -59t22.5 -59t59.5 -21q36 0 58 20.5t22 59.5t-22 59.5t-58 20.5zM817 59q9 -59 -49 -59h-43q-49 0 -57 49l-62 305h-352
l-61 -305q-8 -49 -58 -49h-35q-58 0 -49 59l283 1327q9 48 59 48h78q50 0 59 -48zM281 483h299l-150 746z" />
    <glyph glyph-name="ae" unicode="&#xe6;" horiz-adv-x="1269" 
d="M1155 133q53 0 53 -53v-27q0 -53 -53 -53h-479q-53 0 -53 53v301h-336l-97 -309q-12 -45 -59 -45h-41q-28 0 -40 16t-3 43l422 1332q12 43 59 43h621q53 0 53 -54v-26q0 -54 -53 -54h-379v-507h315q54 0 54 -54v-24q0 -53 -54 -53h-315v-529h385zM326 481h297v819h-43z
" />
    <glyph glyph-name="ccedilla" unicode="&#xe7;" horiz-adv-x="905" 
d="M702 897q-55 0 -55 53v160q0 110 -44.5 158.5t-145.5 48.5t-146 -48.5t-45 -158.5v-786q0 -110 45 -158.5t146 -48.5t145.5 48.5t44.5 158.5v194q0 53 55 53h39q54 0 54 -53v-231q0 -279 -287 -301v-84q0 -92 -36 -130t-116 -38q-35 0 -65 6q-29 8 -39 41l-2 12
q-7 22 2 34.5t31 12.5h34q42 0 57 14.5t15 55.5v78q-270 25 -270 299v860q0 150 86 226.5t250 76.5h4q164 0 250 -76.5t86 -226.5v-197q0 -53 -54 -53h-39z" />
    <glyph glyph-name="egrave" unicode="&#xe8;" horiz-adv-x="774" 
d="M303 1810q45 0 64 -36l88 -166q14 -28 7 -45t-32 -17h-18q-39 0 -62 29l-133 170q-22 26 -12.5 45.5t43.5 19.5h55zM713 53q0 -53 -54 -53h-479q-53 0 -53 53v1327q0 54 53 54h473q54 0 54 -54v-26q0 -54 -54 -54h-379v-507h316q53 0 53 -54v-24q0 -53 -53 -53h-316v-529
h385q54 0 54 -53v-27z" />
    <glyph glyph-name="eacute" unicode="&#xe9;" horiz-adv-x="774" 
d="M463 1774q20 36 63 36h56q34 0 43 -19.5t-13 -45.5l-133 -170q-23 -29 -61 -29h-6q-31 0 -41 17t4 45zM713 53q0 -53 -54 -53h-479q-53 0 -53 53v1327q0 54 53 54h473q54 0 54 -54v-26q0 -54 -54 -54h-379v-507h316q53 0 53 -54v-24q0 -53 -53 -53h-316v-529h385
q54 0 54 -53v-27z" />
    <glyph glyph-name="ecircumflex" unicode="&#xea;" horiz-adv-x="774" 
d="M590 1546q28 0 35.5 20t-11.5 46l-112 164q-19 34 -64 34h-49q-44 0 -63 -34l-113 -164q-19 -26 -11 -46t36 -20h26q43 0 62 37l88 129l88 -129q19 -37 61 -37h27zM713 53q0 -53 -54 -53h-479q-53 0 -53 53v1327q0 54 53 54h473q54 0 54 -54v-26q0 -54 -54 -54h-379v-507
h316q53 0 53 -54v-24q0 -53 -53 -53h-316v-529h385q54 0 54 -53v-27z" />
    <glyph glyph-name="edieresis" unicode="&#xeb;" horiz-adv-x="774" 
d="M287 1718q53 0 53 -55v-64q0 -53 -53 -53h-39q-53 0 -53 53v64q0 55 53 55h39zM580 1718q53 0 53 -55v-64q0 -53 -53 -53h-39q-54 0 -54 53v64q0 55 54 55h39zM713 53q0 -53 -54 -53h-479q-53 0 -53 53v1327q0 54 53 54h473q54 0 54 -54v-26q0 -54 -54 -54h-379v-507h316
q53 0 53 -54v-24q0 -53 -53 -53h-316v-529h385q54 0 54 -53v-27z" />
    <glyph glyph-name="igrave" unicode="&#xec;" horiz-adv-x="415" 
d="M98 1810q45 0 64 -36l88 -166q14 -28 7 -45t-32 -17h-18q-39 0 -62 29l-133 170q-22 26 -12.5 45.5t43.5 19.5h55zM283 53q0 -53 -56 -53h-39q-53 0 -53 53v1327q0 54 53 54h39q56 0 56 -54v-1327z" />
    <glyph glyph-name="iacute" unicode="&#xed;" horiz-adv-x="415" 
d="M258 1774q20 36 64 36h55q34 0 43.5 -19.5t-12.5 -45.5l-134 -170q-23 -29 -61 -29h-6q-31 0 -41 17t4 45zM283 53q0 -53 -56 -53h-39q-53 0 -53 53v1327q0 54 53 54h39q56 0 56 -54v-1327z" />
    <glyph glyph-name="icircumflex" unicode="&#xee;" horiz-adv-x="415" 
d="M385 1546q28 0 36 20t-11 46l-113 164q-19 34 -64 34h-49q-44 0 -63 -34l-113 -164q-19 -26 -11 -46t36 -20h26q43 0 62 37l88 129l88 -129q19 -37 61 -37h27zM283 53q0 -53 -56 -53h-39q-53 0 -53 53v1327q0 54 53 54h39q56 0 56 -54v-1327z" />
    <glyph glyph-name="idieresis" unicode="&#xef;" horiz-adv-x="415" 
d="M82 1718q53 0 53 -55v-64q0 -53 -53 -53h-39q-53 0 -53 53v64q0 55 53 55h39zM375 1718q53 0 53 -55v-64q0 -53 -53 -53h-39q-53 0 -53 53v64q0 55 53 55h39zM283 53q0 -53 -56 -53h-39q-53 0 -53 53v1327q0 54 53 54h39q56 0 56 -54v-1327z" />
    <glyph glyph-name="eth" unicode="&#xf0;" horiz-adv-x="944" 
d="M489 1434q165 0 250.5 -76t85.5 -228v-827q0 -303 -336 -303h-288q-54 0 -54 53v611h-53q-53 0 -53 53v24q0 54 53 54h53v585q0 54 54 54h288zM678 340v754q0 111 -46.5 158.5t-150.5 47.5h-186v-505h172q53 0 53 -54v-24q0 -53 -53 -53h-172v-531h186q104 0 150.5 48
t46.5 159z" />
    <glyph glyph-name="ntilde" unicode="&#xf1;" horiz-adv-x="960" 
d="M293 1589q0 90 67 90q28 0 60 -21t57.5 -46.5t65.5 -46.5t82 -21q69 0 115 49.5t46 145.5q0 47 -45 47h-20q-45 0 -45 -37q0 -90 -68 -90q-27 0 -57 21t-54.5 46.5t-63.5 46.5t-81 21q-71 0 -119.5 -49.5t-48.5 -145.5q0 -45 45 -45h19q45 0 45 35zM264 53q0 -53 -53 -53
h-31q-53 0 -53 53v1327q0 54 53 54h51q48 0 60 -43l405 -1045v1034q0 54 54 54h30q54 0 54 -54v-1327q0 -53 -54 -53h-43q-46 0 -61 43l-412 1065v-1055z" />
    <glyph glyph-name="ograve" unicode="&#xf2;" horiz-adv-x="925" 
d="M352 1810q45 0 64 -36l88 -166q14 -28 7 -45t-32 -17h-18q-39 0 -62 29l-133 170q-22 26 -12.5 45.5t43.5 19.5h55zM119 1147q0 303 336 303h16q336 0 336 -303v-860q0 -303 -336 -303h-16q-336 0 -336 303v860zM266 324q0 -111 46.5 -159t150.5 -48t150 48t46 159v786
q0 111 -46 159t-150 48t-150.5 -48t-46.5 -159v-786z" />
    <glyph glyph-name="oacute" unicode="&#xf3;" horiz-adv-x="925" 
d="M512 1774q20 36 63 36h56q34 0 43.5 -19.5t-12.5 -45.5l-134 -170q-23 -29 -61 -29h-6q-31 0 -41 17t4 45zM119 1147q0 303 336 303h16q336 0 336 -303v-860q0 -303 -336 -303h-16q-336 0 -336 303v860zM266 324q0 -111 46.5 -159t150.5 -48t150 48t46 159v786
q0 111 -46 159t-150 48t-150.5 -48t-46.5 -159v-786z" />
    <glyph glyph-name="ocircumflex" unicode="&#xf4;" horiz-adv-x="925" 
d="M639 1546q28 0 36 20t-11 46l-113 164q-19 34 -64 34h-49q-44 0 -63 -34l-113 -164q-19 -26 -11 -46t36 -20h26q43 0 62 37l88 129l88 -129q19 -37 61 -37h27zM119 1147q0 303 336 303h16q336 0 336 -303v-860q0 -303 -336 -303h-16q-336 0 -336 303v860zM266 324
q0 -111 46.5 -159t150.5 -48t150 48t46 159v786q0 111 -46 159t-150 48t-150.5 -48t-46.5 -159v-786z" />
    <glyph glyph-name="otilde" unicode="&#xf5;" horiz-adv-x="925" 
d="M270 1589q0 90 68 90q28 0 60 -21t57.5 -46.5t65 -46.5t81.5 -21q70 0 116 49.5t46 145.5q0 47 -45 47h-21q-45 0 -45 -37q0 -90 -67 -90q-27 0 -57 21t-54.5 46.5t-63.5 46.5t-81 21q-71 0 -119.5 -49.5t-48.5 -145.5q0 -45 45 -45h18q45 0 45 35zM119 1147
q0 303 336 303h16q336 0 336 -303v-860q0 -303 -336 -303h-16q-336 0 -336 303v860zM266 324q0 -111 46.5 -159t150.5 -48t150 48t46 159v786q0 111 -46 159t-150 48t-150.5 -48t-46.5 -159v-786z" />
    <glyph glyph-name="odieresis" unicode="&#xf6;" horiz-adv-x="925" 
d="M336 1718q53 0 53 -55v-64q0 -53 -53 -53h-39q-53 0 -53 53v64q0 55 53 55h39zM629 1718q53 0 53 -55v-64q0 -53 -53 -53h-39q-53 0 -53 53v64q0 55 53 55h39zM119 1147q0 303 336 303h16q336 0 336 -303v-860q0 -303 -336 -303h-16q-336 0 -336 303v860zM266 324
q0 -111 46.5 -159t150.5 -48t150 48t46 159v786q0 111 -46 159t-150 48t-150.5 -48t-46.5 -159v-786z" />
    <glyph glyph-name="divide" unicode="&#xf7;" horiz-adv-x="860" 
d="M451 1167q25 0 39 -14t14 -39v-59q0 -54 -53 -54h-41q-25 0 -39.5 14t-14.5 40v59q0 25 14.5 39t39.5 14h41zM698 791q26 0 41 -14.5t15 -39.5v-10q0 -53 -56 -53h-536q-56 0 -56 53v10q0 25 15 39.5t41 14.5h536zM451 461q53 0 53 -53v-60q0 -25 -14 -39t-39 -14h-41
q-25 0 -39.5 14t-14.5 39v60q0 53 54 53h41z" />
    <glyph glyph-name="oslash" unicode="&#xf8;" horiz-adv-x="925" 
d="M471 1450q336 0 336 -303v-860q0 -303 -336 -303h-16q-336 0 -336 303v860q0 303 336 303h16zM266 1110v-786q0 -86 29 -136l252 1119q-42 10 -84 10q-104 0 -150.5 -48t-46.5 -159zM659 324v786q0 87 -28 135l-252 -1118q42 -10 84 -10q104 0 150 48t46 159z" />
    <glyph glyph-name="ugrave" unicode="&#xf9;" 
d="M348 1810q45 0 64 -36l88 -166q14 -28 7 -45t-32 -17h-18q-39 0 -62 29l-133 170q-22 26 -12.5 45.5t43.5 19.5h55zM741 1434q54 0 54 -54v-1093q0 -303 -332 -303h-8q-165 0 -248.5 73.5t-83.5 229.5v1093q0 54 53 54h39q55 0 55 -54v-1056q0 -113 43 -160t146 -47
t145.5 47t42.5 160v1056q0 54 55 54h39z" />
    <glyph glyph-name="uacute" unicode="&#xfa;" 
d="M508 1774q20 36 63 36h56q34 0 43 -19.5t-13 -45.5l-133 -170q-23 -29 -61 -29h-6q-31 0 -41 17t4 45zM741 1434q54 0 54 -54v-1093q0 -303 -332 -303h-8q-165 0 -248.5 73.5t-83.5 229.5v1093q0 54 53 54h39q55 0 55 -54v-1056q0 -113 43 -160t146 -47t145.5 47
t42.5 160v1056q0 54 55 54h39z" />
    <glyph glyph-name="ucircumflex" unicode="&#xfb;" 
d="M635 1546q28 0 35.5 20t-11.5 46l-112 164q-19 34 -64 34h-49q-44 0 -63 -34l-113 -164q-19 -26 -11 -46t36 -20h26q43 0 62 37l88 129l88 -129q19 -37 61 -37h27zM741 1434q54 0 54 -54v-1093q0 -303 -332 -303h-8q-165 0 -248.5 73.5t-83.5 229.5v1093q0 54 53 54h39
q55 0 55 -54v-1056q0 -113 43 -160t146 -47t145.5 47t42.5 160v1056q0 54 55 54h39z" />
    <glyph glyph-name="udieresis" unicode="&#xfc;" 
d="M332 1718q53 0 53 -55v-64q0 -53 -53 -53h-39q-53 0 -53 53v64q0 55 53 55h39zM625 1718q53 0 53 -55v-64q0 -53 -53 -53h-39q-54 0 -54 53v64q0 55 54 55h39zM741 1434q54 0 54 -54v-1093q0 -303 -332 -303h-8q-165 0 -248.5 73.5t-83.5 229.5v1093q0 54 53 54h39
q55 0 55 -54v-1056q0 -113 43 -160t146 -47t145.5 47t42.5 160v1056q0 54 55 54h39z" />
    <glyph glyph-name="yacute" unicode="&#xfd;" horiz-adv-x="847" 
d="M473 1774q20 36 64 36h55q34 0 43.5 -19.5t-12.5 -45.5l-134 -170q-23 -29 -61 -29h-6q-31 0 -41 17t4 45zM498 545v-492q0 -53 -54 -53h-41q-53 0 -53 53v492l-289 829q-10 28 1.5 44t41.5 16h43q46 0 62 -45l215 -676l217 676q16 45 61 45h41q30 0 41.5 -16t1.5 -44z
" />
    <glyph glyph-name="thorn" unicode="&#xfe;" horiz-adv-x="882" 
d="M473 1151q336 0 336 -303v-240q0 -303 -336 -303h-199v-252q0 -53 -55 -53h-39q-53 0 -53 53v1327q0 54 53 54h39q55 0 55 -54v-229h199zM662 645v166q0 111 -46.5 159t-150.5 48h-191v-580h191q104 0 150.5 48t46.5 159z" />
    <glyph glyph-name="ydieresis" unicode="&#xff;" horiz-adv-x="847" 
d="M297 1718q53 0 53 -55v-64q0 -53 -53 -53h-39q-53 0 -53 53v64q0 55 53 55h39zM590 1718q53 0 53 -55v-64q0 -53 -53 -53h-39q-53 0 -53 53v64q0 55 53 55h39zM498 545v-492q0 -53 -54 -53h-41q-53 0 -53 53v492l-289 829q-10 28 1.5 44t41.5 16h43q46 0 62 -45l215 -676
l217 676q16 45 61 45h41q30 0 41.5 -16t1.5 -44z" />
    <glyph glyph-name="Amacron" unicode="&#x100;" horiz-adv-x="868" 
d="M254 1546q-53 0 -53 53v15q0 55 53 55h356q54 0 54 -55v-15q0 -53 -54 -53h-356zM817 59q9 -59 -49 -59h-43q-49 0 -57 49l-62 305h-352l-61 -305q-8 -49 -58 -49h-35q-58 0 -49 59l283 1327q9 48 59 48h78q50 0 59 -48zM281 483h299l-150 746z" />
    <glyph glyph-name="amacron" unicode="&#x101;" horiz-adv-x="868" 
d="M254 1546q-53 0 -53 53v15q0 55 53 55h356q54 0 54 -55v-15q0 -53 -54 -53h-356zM817 59q9 -59 -49 -59h-43q-49 0 -57 49l-62 305h-352l-61 -305q-8 -49 -58 -49h-35q-58 0 -49 59l283 1327q9 48 59 48h78q50 0 59 -48zM281 483h299l-150 746z" />
    <glyph glyph-name="Abreve" unicode="&#x102;" horiz-adv-x="868" 
d="M420 1544q-93 0 -147 41t-54 121v37q0 49 49 49h17q51 0 51 -49v-14q0 -84 92 -84h8q92 0 92 84v14q0 49 52 49h16q49 0 49 -49v-39q0 -78 -54 -119t-147 -41h-24zM817 59q9 -59 -49 -59h-43q-49 0 -57 49l-62 305h-352l-61 -305q-8 -49 -58 -49h-35q-58 0 -49 59
l283 1327q9 48 59 48h78q50 0 59 -48zM281 483h299l-150 746z" />
    <glyph glyph-name="abreve" unicode="&#x103;" horiz-adv-x="868" 
d="M420 1544q-93 0 -147 41t-54 121v37q0 49 49 49h17q51 0 51 -49v-14q0 -84 92 -84h8q92 0 92 84v14q0 49 52 49h16q49 0 49 -49v-39q0 -78 -54 -119t-147 -41h-24zM817 59q9 -59 -49 -59h-43q-49 0 -57 49l-62 305h-352l-61 -305q-8 -49 -58 -49h-35q-58 0 -49 59
l283 1327q9 48 59 48h78q50 0 59 -48zM281 483h299l-150 746z" />
    <glyph glyph-name="Aogonek" unicode="&#x104;" horiz-adv-x="868" 
d="M817 59q9 -59 -47 -59q-79 -37 -98 -104q-15 -56 20 -87q20 -18 51 -18q13 0 19 2q37 9 37 -18v-19q0 -27 -19 -41q-37 -22 -84 -22t-82 23t-48 61t-9 80.5t36 87t87 75.5q-9 9 -12 29l-62 305h-352l-61 -305q-8 -49 -58 -49h-35q-58 0 -49 59l283 1327q9 48 59 48h78
q50 0 59 -48zM281 483h299l-150 746z" />
    <glyph glyph-name="aogonek" unicode="&#x105;" horiz-adv-x="868" 
d="M817 59q9 -59 -47 -59q-79 -37 -98 -104q-15 -56 20 -87q20 -18 51 -18q13 0 19 2q37 9 37 -18v-19q0 -27 -19 -41q-37 -22 -84 -22t-82 23t-48 61t-9 80.5t36 87t87 75.5q-9 9 -12 29l-62 305h-352l-61 -305q-8 -49 -58 -49h-35q-58 0 -49 59l283 1327q9 48 59 48h78
q50 0 59 -48zM281 483h299l-150 746z" />
    <glyph glyph-name="Cacute" unicode="&#x106;" horiz-adv-x="905" 
d="M506 1774q20 36 63 36h56q34 0 43 -19.5t-13 -45.5l-133 -170q-23 -29 -61 -29h-6q-31 0 -41 17t4 45zM741 571q54 0 54 -53v-231q0 -303 -336 -303h-4q-336 0 -336 303v860q0 150 86 226.5t250 76.5h4q164 0 250 -76.5t86 -226.5v-197q0 -53 -54 -53h-39q-55 0 -55 53
v160q0 110 -44.5 158.5t-145.5 48.5t-146 -48.5t-45 -158.5v-786q0 -110 45 -158.5t146 -48.5t145.5 48.5t44.5 158.5v194q0 53 55 53h39z" />
    <glyph glyph-name="cacute" unicode="&#x107;" horiz-adv-x="905" 
d="M506 1774q20 36 63 36h56q34 0 43 -19.5t-13 -45.5l-133 -170q-23 -29 -61 -29h-6q-31 0 -41 17t4 45zM741 571q54 0 54 -53v-231q0 -303 -336 -303h-4q-336 0 -336 303v860q0 150 86 226.5t250 76.5h4q164 0 250 -76.5t86 -226.5v-197q0 -53 -54 -53h-39q-55 0 -55 53
v160q0 110 -44.5 158.5t-145.5 48.5t-146 -48.5t-45 -158.5v-786q0 -110 45 -158.5t146 -48.5t145.5 48.5t44.5 158.5v194q0 53 55 53h39z" />
    <glyph glyph-name="Cdotaccent" unicode="&#x10a;" horiz-adv-x="905" 
d="M477 1718q25 0 39 -14.5t14 -40.5v-64q0 -53 -53 -53h-41q-53 0 -53 53v64q0 26 14 40.5t39 14.5h41zM741 571q54 0 54 -53v-231q0 -303 -336 -303h-4q-336 0 -336 303v860q0 150 86 226.5t250 76.5h4q164 0 250 -76.5t86 -226.5v-197q0 -53 -54 -53h-39q-55 0 -55 53
v160q0 110 -44.5 158.5t-145.5 48.5t-146 -48.5t-45 -158.5v-786q0 -110 45 -158.5t146 -48.5t145.5 48.5t44.5 158.5v194q0 53 55 53h39z" />
    <glyph glyph-name="cdotaccent" unicode="&#x10b;" horiz-adv-x="905" 
d="M477 1718q25 0 39 -14.5t14 -40.5v-64q0 -53 -53 -53h-41q-53 0 -53 53v64q0 26 14 40.5t39 14.5h41zM741 571q54 0 54 -53v-231q0 -303 -336 -303h-4q-336 0 -336 303v860q0 150 86 226.5t250 76.5h4q164 0 250 -76.5t86 -226.5v-197q0 -53 -54 -53h-39q-55 0 -55 53
v160q0 110 -44.5 158.5t-145.5 48.5t-146 -48.5t-45 -158.5v-786q0 -110 45 -158.5t146 -48.5t145.5 48.5t44.5 158.5v194q0 53 55 53h39z" />
    <glyph glyph-name="Ccaron" unicode="&#x10c;" horiz-adv-x="905" 
d="M659 1747q17 26 9.5 44.5t-35.5 18.5h-25q-44 0 -63 -36l-88 -129l-86 129q-19 36 -64 36h-16q-32 0 -42 -18.5t7 -44.5l113 -164q22 -37 63 -37h51q42 0 64 37zM741 571q54 0 54 -53v-231q0 -303 -336 -303h-4q-336 0 -336 303v860q0 150 86 226.5t250 76.5h4
q164 0 250 -76.5t86 -226.5v-197q0 -53 -54 -53h-39q-55 0 -55 53v160q0 110 -44.5 158.5t-145.5 48.5t-146 -48.5t-45 -158.5v-786q0 -110 45 -158.5t146 -48.5t145.5 48.5t44.5 158.5v194q0 53 55 53h39z" />
    <glyph glyph-name="ccaron" unicode="&#x10d;" horiz-adv-x="905" 
d="M659 1747q17 26 9.5 44.5t-35.5 18.5h-25q-44 0 -63 -36l-88 -129l-86 129q-19 36 -64 36h-16q-32 0 -42 -18.5t7 -44.5l113 -164q22 -37 63 -37h51q42 0 64 37zM741 571q54 0 54 -53v-231q0 -303 -336 -303h-4q-336 0 -336 303v860q0 150 86 226.5t250 76.5h4
q164 0 250 -76.5t86 -226.5v-197q0 -53 -54 -53h-39q-55 0 -55 53v160q0 110 -44.5 158.5t-145.5 48.5t-146 -48.5t-45 -158.5v-786q0 -110 45 -158.5t146 -48.5t145.5 48.5t44.5 158.5v194q0 53 55 53h39z" />
    <glyph glyph-name="Dcaron" unicode="&#x10e;" horiz-adv-x="923" 
d="M653 1747q17 26 9.5 44.5t-35.5 18.5h-25q-44 0 -63 -36l-88 -129l-86 129q-19 36 -64 36h-16q-32 0 -42 -18.5t7 -44.5l112 -164q22 -37 64 -37h51q42 0 64 37zM469 1434q165 0 250.5 -76t85.5 -228v-827q0 -303 -336 -303h-289q-53 0 -53 53v1327q0 54 53 54h289z
M657 1094q0 111 -46 158.5t-150 47.5h-187v-1167h187q104 0 150 48t46 159v754z" />
    <glyph glyph-name="dcaron" unicode="&#x10f;" horiz-adv-x="923" 
d="M653 1747q17 26 9.5 44.5t-35.5 18.5h-25q-44 0 -63 -36l-88 -129l-86 129q-19 36 -64 36h-16q-32 0 -42 -18.5t7 -44.5l112 -164q22 -37 64 -37h51q42 0 64 37zM469 1434q165 0 250.5 -76t85.5 -228v-827q0 -303 -336 -303h-289q-53 0 -53 53v1327q0 54 53 54h289z
M657 1094q0 111 -46 158.5t-150 47.5h-187v-1167h187q104 0 150 48t46 159v754z" />
    <glyph glyph-name="Dcroat" unicode="&#x110;" horiz-adv-x="944" 
d="M489 1434q165 0 250.5 -76t85.5 -228v-827q0 -303 -336 -303h-288q-54 0 -54 53v611h-53q-53 0 -53 53v24q0 54 53 54h53v585q0 54 54 54h288zM678 340v754q0 111 -46.5 158.5t-150.5 47.5h-186v-505h172q53 0 53 -54v-24q0 -53 -53 -53h-172v-531h186q104 0 150.5 48
t46.5 159z" />
    <glyph glyph-name="dcroat" unicode="&#x111;" horiz-adv-x="944" 
d="M489 1434q165 0 250.5 -76t85.5 -228v-827q0 -303 -336 -303h-288q-54 0 -54 53v611h-53q-53 0 -53 53v24q0 54 53 54h53v585q0 54 54 54h288zM678 340v754q0 111 -46.5 158.5t-150.5 47.5h-186v-505h172q53 0 53 -54v-24q0 -53 -53 -53h-172v-531h186q104 0 150.5 48
t46.5 159z" />
    <glyph glyph-name="Emacron" unicode="&#x112;" horiz-adv-x="774" 
d="M645 1599q0 -53 -53 -53h-356q-54 0 -54 53v15q0 55 54 55h356q53 0 53 -55v-15zM713 53q0 -53 -54 -53h-479q-53 0 -53 53v1327q0 54 53 54h473q54 0 54 -54v-26q0 -54 -54 -54h-379v-507h316q53 0 53 -54v-24q0 -53 -53 -53h-316v-529h385q54 0 54 -53v-27z" />
    <glyph glyph-name="emacron" unicode="&#x113;" horiz-adv-x="774" 
d="M645 1599q0 -53 -53 -53h-356q-54 0 -54 53v15q0 55 54 55h356q53 0 53 -55v-15zM713 53q0 -53 -54 -53h-479q-53 0 -53 53v1327q0 54 53 54h473q54 0 54 -54v-26q0 -54 -54 -54h-379v-507h316q53 0 53 -54v-24q0 -53 -53 -53h-316v-529h385q54 0 54 -53v-27z" />
    <glyph glyph-name="Ebreve" unicode="&#x114;" horiz-adv-x="774" 
d="M578 1792q49 0 49 -49v-39q0 -78 -54 -119t-147 -41h-25q-93 0 -146.5 41t-53.5 121v37q0 49 49 49h16q51 0 51 -49v-14q0 -84 93 -84h8q92 0 92 84v14q0 49 51 49h17zM713 53q0 -53 -54 -53h-479q-53 0 -53 53v1327q0 54 53 54h473q54 0 54 -54v-26q0 -54 -54 -54h-379
v-507h316q53 0 53 -54v-24q0 -53 -53 -53h-316v-529h385q54 0 54 -53v-27z" />
    <glyph glyph-name="ebreve" unicode="&#x115;" horiz-adv-x="774" 
d="M578 1792q49 0 49 -49v-39q0 -78 -54 -119t-147 -41h-25q-93 0 -146.5 41t-53.5 121v37q0 49 49 49h16q51 0 51 -49v-14q0 -84 93 -84h8q92 0 92 84v14q0 49 51 49h17zM713 53q0 -53 -54 -53h-479q-53 0 -53 53v1327q0 54 53 54h473q54 0 54 -54v-26q0 -54 -54 -54h-379
v-507h316q53 0 53 -54v-24q0 -53 -53 -53h-316v-529h385q54 0 54 -53v-27z" />
    <glyph glyph-name="Edotaccent" unicode="&#x116;" horiz-adv-x="774" 
d="M434 1718q25 0 39 -14.5t14 -40.5v-64q0 -53 -53 -53h-41q-53 0 -53 53v64q0 26 14 40.5t39 14.5h41zM713 53q0 -53 -54 -53h-479q-53 0 -53 53v1327q0 54 53 54h473q54 0 54 -54v-26q0 -54 -54 -54h-379v-507h316q53 0 53 -54v-24q0 -53 -53 -53h-316v-529h385
q54 0 54 -53v-27z" />
    <glyph glyph-name="edotaccent" unicode="&#x117;" horiz-adv-x="774" 
d="M434 1718q25 0 39 -14.5t14 -40.5v-64q0 -53 -53 -53h-41q-53 0 -53 53v64q0 26 14 40.5t39 14.5h41zM713 53q0 -53 -54 -53h-479q-53 0 -53 53v1327q0 54 53 54h473q54 0 54 -54v-26q0 -54 -54 -54h-379v-507h316q53 0 53 -54v-24q0 -53 -53 -53h-316v-529h385
q54 0 54 -53v-27z" />
    <glyph glyph-name="Eogonek" unicode="&#x118;" horiz-adv-x="774" 
d="M659 133q54 0 54 -53v-27q0 -53 -54 -53q-64 -30 -88.5 -81t-5.5 -89.5t68 -38.5q12 0 18 2q37 9 37 -18v-19q0 -28 -18 -41q-37 -22 -84 -22q-55 0 -92.5 32.5t-46.5 78.5t14 100.5t78 95.5h-359q-53 0 -53 53v1327q0 54 53 54h473q54 0 54 -54v-26q0 -54 -54 -54h-379
v-507h316q53 0 53 -54v-24q0 -53 -53 -53h-316v-529h385z" />
    <glyph glyph-name="eogonek" unicode="&#x119;" horiz-adv-x="774" 
d="M659 133q54 0 54 -53v-27q0 -53 -54 -53q-64 -30 -88.5 -81t-5.5 -89.5t68 -38.5q12 0 18 2q37 9 37 -18v-19q0 -28 -18 -41q-37 -22 -84 -22q-55 0 -92.5 32.5t-46.5 78.5t14 100.5t78 95.5h-359q-53 0 -53 53v1327q0 54 53 54h473q54 0 54 -54v-26q0 -54 -54 -54h-379
v-507h316q53 0 53 -54v-24q0 -53 -53 -53h-316v-529h385z" />
    <glyph glyph-name="Ecaron" unicode="&#x11a;" horiz-adv-x="774" 
d="M616 1747q17 26 9.5 44.5t-35.5 18.5h-25q-44 0 -63 -36l-88 -129l-86 129q-19 36 -64 36h-16q-32 0 -42 -18.5t7 -44.5l113 -164q22 -37 63 -37h51q42 0 64 37zM713 53q0 -53 -54 -53h-479q-53 0 -53 53v1327q0 54 53 54h473q54 0 54 -54v-26q0 -54 -54 -54h-379v-507
h316q53 0 53 -54v-24q0 -53 -53 -53h-316v-529h385q54 0 54 -53v-27z" />
    <glyph glyph-name="ecaron" unicode="&#x11b;" horiz-adv-x="774" 
d="M616 1747q17 26 9.5 44.5t-35.5 18.5h-25q-44 0 -63 -36l-88 -129l-86 129q-19 36 -64 36h-16q-32 0 -42 -18.5t7 -44.5l113 -164q22 -37 63 -37h51q42 0 64 37zM713 53q0 -53 -54 -53h-479q-53 0 -53 53v1327q0 54 53 54h473q54 0 54 -54v-26q0 -54 -54 -54h-379v-507
h316q53 0 53 -54v-24q0 -53 -53 -53h-316v-529h385q54 0 54 -53v-27z" />
    <glyph glyph-name="Gbreve" unicode="&#x11e;" horiz-adv-x="921" 
d="M627 1792q49 0 49 -49v-39q0 -78 -54 -119t-147 -41h-24q-93 0 -147 41t-54 121v37q0 49 49 49h16q52 0 52 -49v-14q0 -84 92 -84h8q92 0 92 84v14q0 49 51 49h17zM754 719q53 0 53 -53v-379q0 -303 -336 -303h-16q-336 0 -336 303v860q0 150 86 226.5t250 76.5h16
q164 0 250 -76.5t86 -226.5v-139q0 -54 -53 -54h-39q-56 0 -56 54v102q0 111 -46 159t-150 48t-150.5 -48t-46.5 -159v-786q0 -111 46.5 -159t150.5 -48t150 48t46 159v264h-151q-53 0 -53 55v23q0 53 53 53h246z" />
    <glyph glyph-name="gbreve" unicode="&#x11f;" horiz-adv-x="921" 
d="M627 1792q49 0 49 -49v-39q0 -78 -54 -119t-147 -41h-24q-93 0 -147 41t-54 121v37q0 49 49 49h16q52 0 52 -49v-14q0 -84 92 -84h8q92 0 92 84v14q0 49 51 49h17zM754 719q53 0 53 -53v-379q0 -303 -336 -303h-16q-336 0 -336 303v860q0 150 86 226.5t250 76.5h16
q164 0 250 -76.5t86 -226.5v-139q0 -54 -53 -54h-39q-56 0 -56 54v102q0 111 -46 159t-150 48t-150.5 -48t-46.5 -159v-786q0 -111 46.5 -159t150.5 -48t150 48t46 159v264h-151q-53 0 -53 55v23q0 53 53 53h246z" />
    <glyph glyph-name="Gdotaccent" unicode="&#x120;" horiz-adv-x="921" 
d="M483 1718q25 0 39.5 -14.5t14.5 -40.5v-64q0 -53 -54 -53h-41q-53 0 -53 53v64q0 26 14 40.5t39 14.5h41zM754 719q53 0 53 -53v-379q0 -303 -336 -303h-16q-336 0 -336 303v860q0 150 86 226.5t250 76.5h16q164 0 250 -76.5t86 -226.5v-139q0 -54 -53 -54h-39
q-56 0 -56 54v102q0 111 -46 159t-150 48t-150.5 -48t-46.5 -159v-786q0 -111 46.5 -159t150.5 -48t150 48t46 159v264h-151q-53 0 -53 55v23q0 53 53 53h246z" />
    <glyph glyph-name="gdotaccent" unicode="&#x121;" horiz-adv-x="921" 
d="M483 1718q25 0 39.5 -14.5t14.5 -40.5v-64q0 -53 -54 -53h-41q-53 0 -53 53v64q0 26 14 40.5t39 14.5h41zM754 719q53 0 53 -53v-379q0 -303 -336 -303h-16q-336 0 -336 303v860q0 150 86 226.5t250 76.5h16q164 0 250 -76.5t86 -226.5v-139q0 -54 -53 -54h-39
q-56 0 -56 54v102q0 111 -46 159t-150 48t-150.5 -48t-46.5 -159v-786q0 -111 46.5 -159t150.5 -48t150 48t46 159v264h-151q-53 0 -53 55v23q0 53 53 53h246z" />
    <glyph glyph-name="Gcommaaccent" unicode="&#x122;" horiz-adv-x="921" 
d="M754 719q53 0 53 -53v-379q0 -303 -336 -303h-16q-336 0 -336 303v860q0 150 86 226.5t250 76.5h16q164 0 250 -76.5t86 -226.5v-139q0 -54 -53 -54h-39q-56 0 -56 54v102q0 111 -46 159t-150 48t-150.5 -48t-46.5 -159v-786q0 -111 46.5 -159t150.5 -48t150 48t46 159
v264h-151q-53 0 -53 55v23q0 53 53 53h246zM483 -143q54 0 54 -54v-82q0 -135 -62 -256q-23 -42 -55 -28q-27 14 -6 63q38 83 41 174h-17q-53 0 -53 54v75q0 54 53 54h45z" />
    <glyph glyph-name="gcommaaccent" unicode="&#x123;" horiz-adv-x="921" 
d="M754 719q53 0 53 -53v-379q0 -303 -336 -303h-16q-336 0 -336 303v860q0 150 86 226.5t250 76.5h16q164 0 250 -76.5t86 -226.5v-139q0 -54 -53 -54h-39q-56 0 -56 54v102q0 111 -46 159t-150 48t-150.5 -48t-46.5 -159v-786q0 -111 46.5 -159t150.5 -48t150 48t46 159
v264h-151q-53 0 -53 55v23q0 53 53 53h246zM483 -143q54 0 54 -54v-82q0 -135 -62 -256q-23 -42 -55 -28q-27 14 -6 63q38 83 41 174h-17q-53 0 -53 54v75q0 54 53 54h45z" />
    <glyph glyph-name="Hbar" unicode="&#x126;" horiz-adv-x="993" 
d="M924 1159q37 0 37 -39v-24q0 -39 -37 -39h-78v-1004q0 -53 -53 -53h-39q-56 0 -56 53v609h-403v-609q0 -53 -55 -53h-39q-54 0 -54 53v1004h-77q-37 0 -37 39v24q0 39 37 39h77v221q0 54 54 54h39q55 0 55 -54v-221h403v221q0 54 56 54h39q53 0 53 -54v-221h78zM698 797
v260h-403v-260h403z" />
    <glyph glyph-name="hbar" unicode="&#x127;" horiz-adv-x="993" 
d="M924 1159q37 0 37 -39v-24q0 -39 -37 -39h-78v-1004q0 -53 -53 -53h-39q-56 0 -56 53v609h-403v-609q0 -53 -55 -53h-39q-54 0 -54 53v1004h-77q-37 0 -37 39v24q0 39 37 39h77v221q0 54 54 54h39q55 0 55 -54v-221h403v221q0 54 56 54h39q53 0 53 -54v-221h78zM698 797
v260h-403v-260h403z" />
    <glyph glyph-name="Imacron" unicode="&#x12a;" horiz-adv-x="415" 
d="M440 1599q0 -53 -53 -53h-356q-54 0 -54 53v15q0 55 54 55h356q53 0 53 -55v-15zM283 53q0 -53 -56 -53h-39q-53 0 -53 53v1327q0 54 53 54h39q56 0 56 -54v-1327z" />
    <glyph glyph-name="imacron" unicode="&#x12b;" horiz-adv-x="415" 
d="M440 1599q0 -53 -53 -53h-356q-54 0 -54 53v15q0 55 54 55h356q53 0 53 -55v-15zM283 53q0 -53 -56 -53h-39q-53 0 -53 53v1327q0 54 53 54h39q56 0 56 -54v-1327z" />
    <glyph glyph-name="Ibreve" unicode="&#x12c;" horiz-adv-x="415" 
d="M373 1792q49 0 49 -49v-39q0 -78 -54 -119t-147 -41h-24q-93 0 -147 41t-54 121v37q0 49 49 49h16q52 0 52 -49v-14q0 -84 92 -84h8q92 0 92 84v14q0 49 51 49h17zM283 53q0 -53 -56 -53h-39q-53 0 -53 53v1327q0 54 53 54h39q56 0 56 -54v-1327z" />
    <glyph glyph-name="ibreve" unicode="&#x12d;" horiz-adv-x="415" 
d="M373 1792q49 0 49 -49v-39q0 -78 -54 -119t-147 -41h-24q-93 0 -147 41t-54 121v37q0 49 49 49h16q52 0 52 -49v-14q0 -84 92 -84h8q92 0 92 84v14q0 49 51 49h17zM283 53q0 -53 -56 -53h-39q-53 0 -53 53v1327q0 54 53 54h39q56 0 56 -54v-1327z" />
    <glyph glyph-name="Iogonek" unicode="&#x12e;" horiz-adv-x="415" 
d="M227 1434q56 0 56 -54v-1327q0 -53 -54 -53q-64 -30 -88.5 -81t-5.5 -89.5t68 -38.5q12 0 18 2q37 9 37 -18v-19q0 -28 -18 -41q-37 -22 -84 -22q-59 0 -97 36.5t-44.5 87t26 109t102.5 97.5q-8 11 -8 30v1327q0 54 53 54h39z" />
    <glyph glyph-name="iogonek" unicode="&#x12f;" horiz-adv-x="415" 
d="M227 1434q56 0 56 -54v-1327q0 -53 -54 -53q-64 -30 -88.5 -81t-5.5 -89.5t68 -38.5q12 0 18 2q37 9 37 -18v-19q0 -28 -18 -41q-37 -22 -84 -22q-59 0 -97 36.5t-44.5 87t26 109t102.5 97.5q-8 11 -8 30v1327q0 54 53 54h39z" />
    <glyph glyph-name="Idotaccent" unicode="&#x130;" horiz-adv-x="415" 
d="M229 1718q25 0 39.5 -14.5t14.5 -40.5v-64q0 -53 -54 -53h-41q-53 0 -53 53v64q0 26 14 40.5t39 14.5h41zM283 53q0 -53 -56 -53h-39q-53 0 -53 53v1327q0 54 53 54h39q56 0 56 -54v-1327z" />
    <glyph glyph-name="IJ" unicode="&#x132;" horiz-adv-x="749" 
d="M274 348q0 -53 -55 -53h-39q-53 0 -53 53v1032q0 54 53 54h39q55 0 55 -54v-1032zM283 135q104 0 151 48t47 161v1036q0 54 54 54h38q56 0 56 -54v-1077q0 -303 -342 -303h-107q-53 0 -53 53v29q0 53 53 53h103z" />
    <glyph glyph-name="ij" unicode="&#x133;" horiz-adv-x="749" 
d="M274 348q0 -53 -55 -53h-39q-53 0 -53 53v1032q0 54 53 54h39q55 0 55 -54v-1032zM283 135q104 0 151 48t47 161v1036q0 54 54 54h38q56 0 56 -54v-1077q0 -303 -342 -303h-107q-53 0 -53 53v29q0 53 53 53h103z" />
    <glyph glyph-name="Kcommaaccent" unicode="&#x136;" horiz-adv-x="880" 
d="M840 61q9 -27 -2.5 -44t-40.5 -17h-43q-47 0 -62 43l-256 696l-162 -278v-408q0 -53 -55 -53h-39q-53 0 -53 53v1327q0 54 53 54h39q55 0 55 -54v-684l377 699q19 39 64 39h49q31 0 41.5 -18t-4.5 -46l-275 -473zM508 -143q53 0 53 -54v-82q0 -137 -61 -256
q-23 -42 -56 -28q-27 14 -6 63q38 83 41 174h-16q-53 0 -53 54v75q0 54 53 54h45z" />
    <glyph glyph-name="kcommaaccent" unicode="&#x137;" horiz-adv-x="880" 
d="M840 61q9 -27 -2.5 -44t-40.5 -17h-43q-47 0 -62 43l-256 696l-162 -278v-408q0 -53 -55 -53h-39q-53 0 -53 53v1327q0 54 53 54h39q55 0 55 -54v-684l377 699q19 39 64 39h49q31 0 41.5 -18t-4.5 -46l-275 -473zM508 -143q53 0 53 -54v-82q0 -137 -61 -256
q-23 -42 -56 -28q-27 14 -6 63q38 83 41 174h-16q-53 0 -53 54v75q0 54 53 54h45z" />
    <glyph glyph-name="Lacute" unicode="&#x139;" horiz-adv-x="718" 
d="M270 1774q20 36 64 36h55q34 0 43.5 -19.5t-12.5 -45.5l-133 -170q-23 -29 -62 -29h-6q-31 0 -41 17t4 45zM629 135q53 0 53 -53v-29q0 -53 -53 -53h-449q-53 0 -53 53v1327q0 54 53 54h39q55 0 55 -54v-1245h355z" />
    <glyph glyph-name="lacute" unicode="&#x13a;" horiz-adv-x="718" 
d="M270 1774q20 36 64 36h55q34 0 43.5 -19.5t-12.5 -45.5l-133 -170q-23 -29 -62 -29h-6q-31 0 -41 17t4 45zM629 135q53 0 53 -53v-29q0 -53 -53 -53h-449q-53 0 -53 53v1327q0 54 53 54h39q55 0 55 -54v-1245h355z" />
    <glyph glyph-name="Lcommaaccent" unicode="&#x13b;" horiz-adv-x="718" 
d="M629 135q53 0 53 -53v-29q0 -53 -53 -53h-449q-53 0 -53 53v1327q0 54 53 54h39q55 0 55 -54v-1245h355zM426 -143q53 0 53 -54v-82q0 -137 -61 -256q-23 -42 -56 -28q-27 14 -6 63q38 83 41 174h-16q-53 0 -53 54v75q0 54 53 54h45z" />
    <glyph glyph-name="lcommaaccent" unicode="&#x13c;" horiz-adv-x="718" 
d="M629 135q53 0 53 -53v-29q0 -53 -53 -53h-449q-53 0 -53 53v1327q0 54 53 54h39q55 0 55 -54v-1245h355zM426 -143q53 0 53 -54v-82q0 -137 -61 -256q-23 -42 -56 -28q-27 14 -6 63q38 83 41 174h-16q-53 0 -53 54v75q0 54 53 54h45z" />
    <glyph glyph-name="Lcaron" unicode="&#x13d;" horiz-adv-x="718" 
d="M629 135q53 0 53 -53v-29q0 -53 -53 -53h-449q-53 0 -53 53v1327q0 54 53 54h39q55 0 55 -54v-1245h355zM545 1434q53 0 53 -54v-82q0 -137 -61 -256q-23 -42 -56 -28q-27 14 -6 63q38 83 41 174h-16q-54 0 -54 54v75q0 54 54 54h45z" />
    <glyph glyph-name="lcaron" unicode="&#x13e;" horiz-adv-x="718" 
d="M629 135q53 0 53 -53v-29q0 -53 -53 -53h-449q-53 0 -53 53v1327q0 54 53 54h39q55 0 55 -54v-1245h355zM545 1434q53 0 53 -54v-82q0 -137 -61 -256q-23 -42 -56 -28q-27 14 -6 63q38 83 41 174h-16q-54 0 -54 54v75q0 54 54 54h45z" />
    <glyph glyph-name="Ldot" unicode="&#x13f;" horiz-adv-x="731" 
d="M629 135q53 0 53 -53v-29q0 -53 -53 -53h-449q-53 0 -53 53v1327q0 54 53 54h39q55 0 55 -54v-1245h355zM520 915q53 0 53 -53v-76q0 -53 -53 -53h-45q-53 0 -53 53v76q0 53 53 53h45z" />
    <glyph glyph-name="ldot" unicode="&#x140;" horiz-adv-x="731" 
d="M629 135q53 0 53 -53v-29q0 -53 -53 -53h-449q-53 0 -53 53v1327q0 54 53 54h39q55 0 55 -54v-1245h355zM520 915q53 0 53 -53v-76q0 -53 -53 -53h-45q-53 0 -53 53v76q0 53 53 53h45z" />
    <glyph glyph-name="Lslash" unicode="&#x141;" horiz-adv-x="739" 
d="M649 135q53 0 53 -53v-29q0 -53 -53 -53h-448q-54 0 -54 53v598l-73 -37q-23 -12 -38.5 -2t-15.5 35v35q0 39 33 53l94 47v598q0 54 54 54h39q55 0 55 -54v-522l188 94q23 12 37.5 3t14.5 -35v-35q0 -40 -33 -54l-207 -104v-592h354z" />
    <glyph glyph-name="lslash" unicode="&#x142;" horiz-adv-x="739" 
d="M649 135q53 0 53 -53v-29q0 -53 -53 -53h-448q-54 0 -54 53v598l-73 -37q-23 -12 -38.5 -2t-15.5 35v35q0 39 33 53l94 47v598q0 54 54 54h39q55 0 55 -54v-522l188 94q23 12 37.5 3t14.5 -35v-35q0 -40 -33 -54l-207 -104v-592h354z" />
    <glyph glyph-name="Nacute" unicode="&#x143;" horiz-adv-x="960" 
d="M535 1774q20 36 63 36h55q34 0 43.5 -19.5t-12.5 -45.5l-133 -170q-23 -29 -62 -29h-6q-31 0 -41 17t4 45zM264 53q0 -53 -53 -53h-31q-53 0 -53 53v1327q0 54 53 54h51q48 0 60 -43l405 -1045v1034q0 54 54 54h30q54 0 54 -54v-1327q0 -53 -54 -53h-43q-46 0 -61 43
l-412 1065v-1055z" />
    <glyph glyph-name="nacute" unicode="&#x144;" horiz-adv-x="960" 
d="M535 1774q20 36 63 36h55q34 0 43.5 -19.5t-12.5 -45.5l-133 -170q-23 -29 -62 -29h-6q-31 0 -41 17t4 45zM264 53q0 -53 -53 -53h-31q-53 0 -53 53v1327q0 54 53 54h51q48 0 60 -43l405 -1045v1034q0 54 54 54h30q54 0 54 -54v-1327q0 -53 -54 -53h-43q-46 0 -61 43
l-412 1065v-1055z" />
    <glyph glyph-name="Ncommaaccent" unicode="&#x145;" horiz-adv-x="960" 
d="M264 53q0 -53 -53 -53h-31q-53 0 -53 53v1327q0 54 53 54h51q48 0 60 -43l405 -1045v1034q0 54 54 54h30q54 0 54 -54v-1327q0 -53 -54 -53h-43q-46 0 -61 43l-412 1065v-1055zM500 -143q53 0 53 -54v-82q0 -137 -61 -256q-23 -42 -56 -28q-27 14 -6 63q38 83 41 174h-16
q-54 0 -54 54v75q0 54 54 54h45z" />
    <glyph glyph-name="ncommaaccent" unicode="&#x146;" horiz-adv-x="960" 
d="M264 53q0 -53 -53 -53h-31q-53 0 -53 53v1327q0 54 53 54h51q48 0 60 -43l405 -1045v1034q0 54 54 54h30q54 0 54 -54v-1327q0 -53 -54 -53h-43q-46 0 -61 43l-412 1065v-1055zM500 -143q53 0 53 -54v-82q0 -137 -61 -256q-23 -42 -56 -28q-27 14 -6 63q38 83 41 174h-16
q-54 0 -54 54v75q0 54 54 54h45z" />
    <glyph glyph-name="Ncaron" unicode="&#x147;" horiz-adv-x="960" 
d="M688 1747q17 26 9.5 44.5t-35.5 18.5h-25q-45 0 -64 -36l-88 -129l-86 129q-19 36 -63 36h-17q-32 0 -41.5 -18.5t7.5 -44.5l112 -164q22 -37 64 -37h51q41 0 63 37zM264 53q0 -53 -53 -53h-31q-53 0 -53 53v1327q0 54 53 54h51q48 0 60 -43l405 -1045v1034q0 54 54 54
h30q54 0 54 -54v-1327q0 -53 -54 -53h-43q-46 0 -61 43l-412 1065v-1055z" />
    <glyph glyph-name="ncaron" unicode="&#x148;" horiz-adv-x="960" 
d="M688 1747q17 26 9.5 44.5t-35.5 18.5h-25q-45 0 -64 -36l-88 -129l-86 129q-19 36 -63 36h-17q-32 0 -41.5 -18.5t7.5 -44.5l112 -164q22 -37 64 -37h51q41 0 63 37zM264 53q0 -53 -53 -53h-31q-53 0 -53 53v1327q0 54 53 54h51q48 0 60 -43l405 -1045v1034q0 54 54 54
h30q54 0 54 -54v-1327q0 -53 -54 -53h-43q-46 0 -61 43l-412 1065v-1055z" />
    <glyph glyph-name="Eng" unicode="&#x14a;" horiz-adv-x="960" 
d="M780 1434q54 0 54 -54v-1374q0 -303 -328 -303h-6q-54 0 -54 53v25q0 53 54 53h6q87 0 132 40t52 130l-426 1104v-1055q0 -53 -53 -53h-31q-53 0 -53 53v1327q0 54 53 54h51q48 0 60 -43l405 -1045v1034q0 54 54 54h30z" />
    <glyph glyph-name="eng" unicode="&#x14b;" horiz-adv-x="960" 
d="M780 1434q54 0 54 -54v-1374q0 -303 -328 -303h-6q-54 0 -54 53v25q0 53 54 53h6q87 0 132 40t52 130l-426 1104v-1055q0 -53 -53 -53h-31q-53 0 -53 53v1327q0 54 53 54h51q48 0 60 -43l405 -1045v1034q0 54 54 54h30z" />
    <glyph glyph-name="Omacron" unicode="&#x14c;" horiz-adv-x="925" 
d="M694 1599q0 -53 -53 -53h-356q-54 0 -54 53v15q0 55 54 55h356q53 0 53 -55v-15zM119 1147q0 303 336 303h16q336 0 336 -303v-860q0 -303 -336 -303h-16q-336 0 -336 303v860zM266 324q0 -111 46.5 -159t150.5 -48t150 48t46 159v786q0 111 -46 159t-150 48t-150.5 -48
t-46.5 -159v-786z" />
    <glyph glyph-name="omacron" unicode="&#x14d;" horiz-adv-x="925" 
d="M694 1599q0 -53 -53 -53h-356q-54 0 -54 53v15q0 55 54 55h356q53 0 53 -55v-15zM119 1147q0 303 336 303h16q336 0 336 -303v-860q0 -303 -336 -303h-16q-336 0 -336 303v860zM266 324q0 -111 46.5 -159t150.5 -48t150 48t46 159v786q0 111 -46 159t-150 48t-150.5 -48
t-46.5 -159v-786z" />
    <glyph glyph-name="Obreve" unicode="&#x14e;" horiz-adv-x="925" 
d="M627 1792q49 0 49 -49v-39q0 -78 -54 -119t-147 -41h-24q-93 0 -147 41t-54 121v37q0 49 49 49h16q52 0 52 -49v-14q0 -84 92 -84h8q92 0 92 84v14q0 49 51 49h17zM119 1147q0 303 336 303h16q336 0 336 -303v-860q0 -303 -336 -303h-16q-336 0 -336 303v860zM266 324
q0 -111 46.5 -159t150.5 -48t150 48t46 159v786q0 111 -46 159t-150 48t-150.5 -48t-46.5 -159v-786z" />
    <glyph glyph-name="obreve" unicode="&#x14f;" horiz-adv-x="925" 
d="M627 1792q49 0 49 -49v-39q0 -78 -54 -119t-147 -41h-24q-93 0 -147 41t-54 121v37q0 49 49 49h16q52 0 52 -49v-14q0 -84 92 -84h8q92 0 92 84v14q0 49 51 49h17zM119 1147q0 303 336 303h16q336 0 336 -303v-860q0 -303 -336 -303h-16q-336 0 -336 303v860zM266 324
q0 -111 46.5 -159t150.5 -48t150 48t46 159v786q0 111 -46 159t-150 48t-150.5 -48t-46.5 -159v-786z" />
    <glyph glyph-name="Ohungarumlaut" unicode="&#x150;" horiz-adv-x="925" 
d="M395 1782q22 28 62 28h22q32 0 41 -18t-10 -43l-150 -174q-26 -29 -61 -29h-25q-32 0 -41 18.5t11 43.5zM670 1782q22 28 61 28h27q32 0 40 -18t-12 -43l-149 -174q-23 -29 -62 -29h-24q-32 0 -40 18.5t11 43.5zM119 1147q0 303 336 303h16q336 0 336 -303v-860
q0 -303 -336 -303h-16q-336 0 -336 303v860zM266 324q0 -111 46.5 -159t150.5 -48t150 48t46 159v786q0 111 -46 159t-150 48t-150.5 -48t-46.5 -159v-786z" />
    <glyph glyph-name="ohungarumlaut" unicode="&#x151;" horiz-adv-x="925" 
d="M395 1782q22 28 62 28h22q32 0 41 -18t-10 -43l-150 -174q-26 -29 -61 -29h-25q-32 0 -41 18.5t11 43.5zM670 1782q22 28 61 28h27q32 0 40 -18t-12 -43l-149 -174q-23 -29 -62 -29h-24q-32 0 -40 18.5t11 43.5zM119 1147q0 303 336 303h16q336 0 336 -303v-860
q0 -303 -336 -303h-16q-336 0 -336 303v860zM266 324q0 -111 46.5 -159t150.5 -48t150 48t46 159v786q0 111 -46 159t-150 48t-150.5 -48t-46.5 -159v-786z" />
    <glyph glyph-name="OE" unicode="&#x152;" horiz-adv-x="1298" 
d="M1184 133q53 0 53 -53v-27q0 -53 -53 -53h-729q-336 0 -336 303v827q0 152 85.5 228t250.5 76h723q53 0 53 -54v-26q0 -54 -53 -54h-379v-507h315q53 0 53 -54v-24q0 -53 -53 -53h-315v-529h385zM649 133v1167h-186q-104 0 -150.5 -47.5t-46.5 -158.5v-754
q0 -111 46.5 -159t150.5 -48h186z" />
    <glyph glyph-name="oe" unicode="&#x153;" horiz-adv-x="1298" 
d="M1184 133q53 0 53 -53v-27q0 -53 -53 -53h-729q-336 0 -336 303v827q0 152 85.5 228t250.5 76h723q53 0 53 -54v-26q0 -54 -53 -54h-379v-507h315q53 0 53 -54v-24q0 -53 -53 -53h-315v-529h385zM649 133v1167h-186q-104 0 -150.5 -47.5t-46.5 -158.5v-754
q0 -111 46.5 -159t150.5 -48h186z" />
    <glyph glyph-name="Racute" unicode="&#x154;" horiz-adv-x="923" 
d="M449 1546q-31 0 -41 17t4 45l88 166q20 36 63 36h55q34 0 43.5 -19.5t-12.5 -45.5l-133 -170q-23 -29 -61 -29h-6zM838 61q9 -27 -2.5 -44t-40.5 -17h-43q-47 0 -62 43l-205 561h-12h-199v-551q0 -53 -55 -53h-39q-53 0 -53 53v1327q0 54 53 54h293q165 0 250.5 -76
t85.5 -228v-223q0 -220 -180 -280zM274 1300v-565h191q104 0 150.5 48t46.5 159v152q0 111 -46.5 158.5t-150.5 47.5h-191z" />
    <glyph glyph-name="racute" unicode="&#x155;" horiz-adv-x="923" 
d="M449 1546q-31 0 -41 17t4 45l88 166q20 36 63 36h55q34 0 43.5 -19.5t-12.5 -45.5l-133 -170q-23 -29 -61 -29h-6zM838 61q9 -27 -2.5 -44t-40.5 -17h-43q-47 0 -62 43l-205 561h-12h-199v-551q0 -53 -55 -53h-39q-53 0 -53 53v1327q0 54 53 54h293q165 0 250.5 -76
t85.5 -228v-223q0 -220 -180 -280zM274 1300v-565h191q104 0 150.5 48t46.5 159v152q0 111 -46.5 158.5t-150.5 47.5h-191z" />
    <glyph glyph-name="Rcommaaccent" unicode="&#x156;" horiz-adv-x="923" 
d="M838 61q9 -27 -2.5 -44t-40.5 -17h-43q-47 0 -62 43l-205 561h-12h-199v-551q0 -53 -55 -53h-39q-53 0 -53 53v1327q0 54 53 54h293q165 0 250.5 -76t85.5 -228v-223q0 -220 -180 -280zM274 1300v-565h191q104 0 150.5 48t46.5 159v152q0 111 -46.5 158.5t-150.5 47.5
h-191zM508 -143q53 0 53 -54v-82q0 -137 -61 -256q-23 -42 -56 -28q-27 14 -6 63q38 83 41 174h-16q-53 0 -53 54v75q0 54 53 54h45z" />
    <glyph glyph-name="rcommaaccent" unicode="&#x157;" horiz-adv-x="923" 
d="M838 61q9 -27 -2.5 -44t-40.5 -17h-43q-47 0 -62 43l-205 561h-12h-199v-551q0 -53 -55 -53h-39q-53 0 -53 53v1327q0 54 53 54h293q165 0 250.5 -76t85.5 -228v-223q0 -220 -180 -280zM274 1300v-565h191q104 0 150.5 48t46.5 159v152q0 111 -46.5 158.5t-150.5 47.5
h-191zM508 -143q53 0 53 -54v-82q0 -137 -61 -256q-23 -42 -56 -28q-27 14 -6 63q38 83 41 174h-16q-53 0 -53 54v75q0 54 53 54h45z" />
    <glyph glyph-name="Rcaron" unicode="&#x158;" horiz-adv-x="923" 
d="M362 1583l-112 164q-17 26 -7 44.5t42 18.5h16q45 0 64 -36l86 -129l88 129q19 36 63 36h25q28 0 35.5 -18.5t-9.5 -44.5l-112 -164q-22 -37 -64 -37h-51q-42 0 -64 37zM838 61q9 -27 -2.5 -44t-40.5 -17h-43q-47 0 -62 43l-205 561h-12h-199v-551q0 -53 -55 -53h-39
q-53 0 -53 53v1327q0 54 53 54h293q165 0 250.5 -76t85.5 -228v-223q0 -220 -180 -280zM274 1300v-565h191q104 0 150.5 48t46.5 159v152q0 111 -46.5 158.5t-150.5 47.5h-191z" />
    <glyph glyph-name="rcaron" unicode="&#x159;" horiz-adv-x="923" 
d="M362 1583l-112 164q-17 26 -7 44.5t42 18.5h16q45 0 64 -36l86 -129l88 129q19 36 63 36h25q28 0 35.5 -18.5t-9.5 -44.5l-112 -164q-22 -37 -64 -37h-51q-42 0 -64 37zM838 61q9 -27 -2.5 -44t-40.5 -17h-43q-47 0 -62 43l-205 561h-12h-199v-551q0 -53 -55 -53h-39
q-53 0 -53 53v1327q0 54 53 54h293q165 0 250.5 -76t85.5 -228v-223q0 -220 -180 -280zM274 1300v-565h191q104 0 150.5 48t46.5 159v152q0 111 -46.5 158.5t-150.5 47.5h-191z" />
    <glyph glyph-name="Sacute" unicode="&#x15a;" horiz-adv-x="856" 
d="M477 1774q20 36 64 36h55q34 0 43.5 -19.5t-12.5 -45.5l-133 -170q-23 -29 -62 -29h-6q-31 0 -41 17t4 45zM758 987q0 -53 -53 -53h-39q-54 0 -54 53v135q0 103 -43.5 150t-140.5 47t-140.5 -47t-43.5 -150v-100q0 -69 26 -102.5t103 -75.5l205 -113q90 -49 137 -110.5
t47 -147.5v-190q0 -154 -82.5 -226.5t-247.5 -72.5h-4q-166 0 -248 71.5t-82 227.5v184q0 53 54 53h38q54 0 54 -53v-152q0 -102 44.5 -151t141.5 -49t141.5 49t44.5 151v115q0 69 -29 107t-106 81l-200 111q-99 56 -141 110t-42 144v172q0 146 87.5 220.5t240.5 74.5h4
q153 0 240.5 -74.5t87.5 -220.5v-168z" />
    <glyph glyph-name="sacute" unicode="&#x15b;" horiz-adv-x="856" 
d="M477 1774q20 36 64 36h55q34 0 43.5 -19.5t-12.5 -45.5l-133 -170q-23 -29 -62 -29h-6q-31 0 -41 17t4 45zM758 987q0 -53 -53 -53h-39q-54 0 -54 53v135q0 103 -43.5 150t-140.5 47t-140.5 -47t-43.5 -150v-100q0 -69 26 -102.5t103 -75.5l205 -113q90 -49 137 -110.5
t47 -147.5v-190q0 -154 -82.5 -226.5t-247.5 -72.5h-4q-166 0 -248 71.5t-82 227.5v184q0 53 54 53h38q54 0 54 -53v-152q0 -102 44.5 -151t141.5 -49t141.5 49t44.5 151v115q0 69 -29 107t-106 81l-200 111q-99 56 -141 110t-42 144v172q0 146 87.5 220.5t240.5 74.5h4
q153 0 240.5 -74.5t87.5 -220.5v-168z" />
    <glyph glyph-name="Scedilla" unicode="&#x15e;" horiz-adv-x="856" 
d="M578 731q90 -49 137 -110.5t47 -147.5v-190q0 -268 -260 -295v-86q0 -92 -36 -130t-116 -38q-35 0 -65 6q-29 8 -39 41l-2 12q-7 22 1.5 34.5t30.5 12.5h35q42 0 57 14.5t15 55.5v76q-143 8 -214 79.5t-71 217.5v184q0 53 54 53h38q54 0 54 -53v-152q0 -102 44.5 -151
t141.5 -49t141.5 49t44.5 151v115q0 69 -29 107t-106 81l-200 111q-99 56 -141 110t-42 144v172q0 146 87.5 220.5t240.5 74.5h4q153 0 240.5 -74.5t87.5 -220.5v-168q0 -53 -53 -53h-39q-54 0 -54 53v135q0 103 -43.5 150t-140.5 47t-140.5 -47t-43.5 -150v-100
q0 -69 26 -102.5t103 -75.5z" />
    <glyph glyph-name="scedilla" unicode="&#x15f;" horiz-adv-x="856" 
d="M578 731q90 -49 137 -110.5t47 -147.5v-190q0 -268 -260 -295v-86q0 -92 -36 -130t-116 -38q-35 0 -65 6q-29 8 -39 41l-2 12q-7 22 1.5 34.5t30.5 12.5h35q42 0 57 14.5t15 55.5v76q-143 8 -214 79.5t-71 217.5v184q0 53 54 53h38q54 0 54 -53v-152q0 -102 44.5 -151
t141.5 -49t141.5 49t44.5 151v115q0 69 -29 107t-106 81l-200 111q-99 56 -141 110t-42 144v172q0 146 87.5 220.5t240.5 74.5h4q153 0 240.5 -74.5t87.5 -220.5v-168q0 -53 -53 -53h-39q-54 0 -54 53v135q0 103 -43.5 150t-140.5 47t-140.5 -47t-43.5 -150v-100
q0 -69 26 -102.5t103 -75.5z" />
    <glyph glyph-name="Scaron" unicode="&#x160;" horiz-adv-x="856" 
d="M631 1747q17 26 9 44.5t-36 18.5h-24q-45 0 -64 -36l-88 -129l-86 129q-19 36 -63 36h-17q-32 0 -42 -18.5t7 -44.5l113 -164q22 -37 63 -37h52q41 0 63 37zM758 987q0 -53 -53 -53h-39q-54 0 -54 53v135q0 103 -43.5 150t-140.5 47t-140.5 -47t-43.5 -150v-100
q0 -69 26 -102.5t103 -75.5l205 -113q90 -49 137 -110.5t47 -147.5v-190q0 -154 -82.5 -226.5t-247.5 -72.5h-4q-166 0 -248 71.5t-82 227.5v184q0 53 54 53h38q54 0 54 -53v-152q0 -102 44.5 -151t141.5 -49t141.5 49t44.5 151v115q0 69 -29 107t-106 81l-200 111
q-99 56 -141 110t-42 144v172q0 146 87.5 220.5t240.5 74.5h4q153 0 240.5 -74.5t87.5 -220.5v-168z" />
    <glyph glyph-name="scaron" unicode="&#x161;" horiz-adv-x="856" 
d="M631 1747q17 26 9 44.5t-36 18.5h-24q-45 0 -64 -36l-88 -129l-86 129q-19 36 -63 36h-17q-32 0 -42 -18.5t7 -44.5l113 -164q22 -37 63 -37h52q41 0 63 37zM758 987q0 -53 -53 -53h-39q-54 0 -54 53v135q0 103 -43.5 150t-140.5 47t-140.5 -47t-43.5 -150v-100
q0 -69 26 -102.5t103 -75.5l205 -113q90 -49 137 -110.5t47 -147.5v-190q0 -154 -82.5 -226.5t-247.5 -72.5h-4q-166 0 -248 71.5t-82 227.5v184q0 53 54 53h38q54 0 54 -53v-152q0 -102 44.5 -151t141.5 -49t141.5 49t44.5 151v115q0 69 -29 107t-106 81l-200 111
q-99 56 -141 110t-42 144v172q0 146 87.5 220.5t240.5 74.5h4q153 0 240.5 -74.5t87.5 -220.5v-168z" />
    <glyph glyph-name="uni0162" unicode="&#x162;" horiz-adv-x="716" 
d="M25 1380q0 54 53 54h563q53 0 53 -54v-26q0 -54 -53 -54h-209v-1288q0 -10 -8 -18q-21 -18 -21 -96q0 -86 -36.5 -125t-112.5 -39q-23 0 -59 4q-37 8 -50 51q-7 23 6 37t42 14h28q33 0 48.5 15.5t15.5 54.5v1390h-207q-53 0 -53 54v26z" />
    <glyph glyph-name="uni0163" unicode="&#x163;" horiz-adv-x="716" 
d="M25 1380q0 54 53 54h563q53 0 53 -54v-26q0 -54 -53 -54h-209v-1288q0 -10 -8 -18q-21 -18 -21 -96q0 -86 -36.5 -125t-112.5 -39q-23 0 -59 4q-37 8 -50 51q-7 23 6 37t42 14h28q33 0 48.5 15.5t15.5 54.5v1390h-207q-53 0 -53 54v26z" />
    <glyph glyph-name="Tcaron" unicode="&#x164;" horiz-adv-x="716" 
d="M561 1747q17 26 9.5 44.5t-35.5 18.5h-25q-45 0 -64 -36l-88 -129l-86 129q-19 36 -63 36h-16q-32 0 -42 -18.5t7 -44.5l112 -164q22 -37 64 -37h51q42 0 64 37zM641 1434q53 0 53 -54v-26q0 -54 -53 -54h-209v-1247q0 -53 -53 -53h-41q-53 0 -53 53v1247h-207
q-53 0 -53 54v26q0 54 53 54h563z" />
    <glyph glyph-name="tcaron" unicode="&#x165;" horiz-adv-x="716" 
d="M561 1747q17 26 9.5 44.5t-35.5 18.5h-25q-45 0 -64 -36l-88 -129l-86 129q-19 36 -63 36h-16q-32 0 -42 -18.5t7 -44.5l112 -164q22 -37 64 -37h51q42 0 64 37zM641 1434q53 0 53 -54v-26q0 -54 -53 -54h-209v-1247q0 -53 -53 -53h-41q-53 0 -53 53v1247h-207
q-53 0 -53 54v26q0 54 53 54h563z" />
    <glyph glyph-name="Tbar" unicode="&#x166;" horiz-adv-x="716" 
d="M641 1434q53 0 53 -54v-26q0 -54 -53 -54h-209v-450h113q53 0 53 -55v-15q0 -53 -53 -53h-113v-674q0 -53 -53 -53h-41q-53 0 -53 53v674h-97q-53 0 -53 53v15q0 55 53 55h97v450h-207q-53 0 -53 54v26q0 54 53 54h563z" />
    <glyph glyph-name="tbar" unicode="&#x167;" horiz-adv-x="716" 
d="M641 1434q53 0 53 -54v-26q0 -54 -53 -54h-209v-450h113q53 0 53 -55v-15q0 -53 -53 -53h-113v-674q0 -53 -53 -53h-41q-53 0 -53 53v674h-97q-53 0 -53 53v15q0 55 53 55h97v450h-207q-53 0 -53 54v26q0 54 53 54h563z" />
    <glyph glyph-name="Umacron" unicode="&#x16a;" 
d="M690 1599q0 -53 -53 -53h-356q-54 0 -54 53v15q0 55 54 55h356q53 0 53 -55v-15zM741 1434q54 0 54 -54v-1093q0 -303 -332 -303h-8q-165 0 -248.5 73.5t-83.5 229.5v1093q0 54 53 54h39q55 0 55 -54v-1056q0 -113 43 -160t146 -47t145.5 47t42.5 160v1056q0 54 55 54h39
z" />
    <glyph glyph-name="umacron" unicode="&#x16b;" 
d="M690 1599q0 -53 -53 -53h-356q-54 0 -54 53v15q0 55 54 55h356q53 0 53 -55v-15zM741 1434q54 0 54 -54v-1093q0 -303 -332 -303h-8q-165 0 -248.5 73.5t-83.5 229.5v1093q0 54 53 54h39q55 0 55 -54v-1056q0 -113 43 -160t146 -47t145.5 47t42.5 160v1056q0 54 55 54h39
z" />
    <glyph glyph-name="Ubreve" unicode="&#x16c;" 
d="M623 1792q49 0 49 -49v-39q0 -78 -54 -119t-147 -41h-25q-93 0 -146.5 41t-53.5 121v37q0 49 49 49h16q51 0 51 -49v-14q0 -84 93 -84h8q92 0 92 84v14q0 49 51 49h17zM741 1434q54 0 54 -54v-1093q0 -303 -332 -303h-8q-165 0 -248.5 73.5t-83.5 229.5v1093q0 54 53 54
h39q55 0 55 -54v-1056q0 -113 43 -160t146 -47t145.5 47t42.5 160v1056q0 54 55 54h39z" />
    <glyph glyph-name="ubreve" unicode="&#x16d;" 
d="M623 1792q49 0 49 -49v-39q0 -78 -54 -119t-147 -41h-25q-93 0 -146.5 41t-53.5 121v37q0 49 49 49h16q51 0 51 -49v-14q0 -84 93 -84h8q92 0 92 84v14q0 49 51 49h17zM741 1434q54 0 54 -54v-1093q0 -303 -332 -303h-8q-165 0 -248.5 73.5t-83.5 229.5v1093q0 54 53 54
h39q55 0 55 -54v-1056q0 -113 43 -160t146 -47t145.5 47t42.5 160v1056q0 54 55 54h39z" />
    <glyph glyph-name="Uring" unicode="&#x16e;" 
d="M459 1849q77 0 123.5 -42.5t46.5 -114.5t-46.5 -115t-123.5 -43q-78 0 -125 43t-47 115t47 114.5t125 42.5zM459 1772q-37 0 -59.5 -21t-22.5 -59t22.5 -59t59.5 -21q36 0 58 20.5t22 59.5t-22 59.5t-58 20.5zM741 1434q54 0 54 -54v-1093q0 -303 -332 -303h-8
q-165 0 -248.5 73.5t-83.5 229.5v1093q0 54 53 54h39q55 0 55 -54v-1056q0 -113 43 -160t146 -47t145.5 47t42.5 160v1056q0 54 55 54h39z" />
    <glyph glyph-name="uring" unicode="&#x16f;" 
d="M459 1849q77 0 123.5 -42.5t46.5 -114.5t-46.5 -115t-123.5 -43q-78 0 -125 43t-47 115t47 114.5t125 42.5zM459 1772q-37 0 -59.5 -21t-22.5 -59t22.5 -59t59.5 -21q36 0 58 20.5t22 59.5t-22 59.5t-58 20.5zM741 1434q54 0 54 -54v-1093q0 -303 -332 -303h-8
q-165 0 -248.5 73.5t-83.5 229.5v1093q0 54 53 54h39q55 0 55 -54v-1056q0 -113 43 -160t146 -47t145.5 47t42.5 160v1056q0 54 55 54h39z" />
    <glyph glyph-name="Uhungarumlaut" unicode="&#x170;" 
d="M391 1782q22 28 62 28h22q32 0 41 -18t-10 -43l-150 -174q-26 -29 -61 -29h-25q-32 0 -41 18.5t11 43.5zM666 1782q22 28 61 28h27q32 0 40 -18t-12 -43l-149 -174q-23 -29 -62 -29h-24q-32 0 -40 18.5t11 43.5zM741 1434q54 0 54 -54v-1093q0 -303 -332 -303h-8
q-165 0 -248.5 73.5t-83.5 229.5v1093q0 54 53 54h39q55 0 55 -54v-1056q0 -113 43 -160t146 -47t145.5 47t42.5 160v1056q0 54 55 54h39z" />
    <glyph glyph-name="uhungarumlaut" unicode="&#x171;" 
d="M391 1782q22 28 62 28h22q32 0 41 -18t-10 -43l-150 -174q-26 -29 -61 -29h-25q-32 0 -41 18.5t11 43.5zM666 1782q22 28 61 28h27q32 0 40 -18t-12 -43l-149 -174q-23 -29 -62 -29h-24q-32 0 -40 18.5t11 43.5zM741 1434q54 0 54 -54v-1093q0 -303 -332 -303h-8
q-165 0 -248.5 73.5t-83.5 229.5v1093q0 54 53 54h39q55 0 55 -54v-1056q0 -113 43 -160t146 -47t145.5 47t42.5 160v1056q0 54 55 54h39z" />
    <glyph glyph-name="Uogonek" unicode="&#x172;" 
d="M741 1434q54 0 54 -54v-1093q0 -233 -195 -287q-79 -37 -98 -104q-15 -56 20 -87q20 -18 51 -18q13 0 19 2q37 9 37 -18v-19q0 -27 -19 -41q-37 -22 -84 -22q-53 0 -89.5 29.5t-47.5 72.5t6 95.5t64 93.5h-4q-165 0 -248.5 73.5t-83.5 229.5v1093q0 54 53 54h39
q55 0 55 -54v-1056q0 -113 43 -160t146 -47t145.5 47t42.5 160v1056q0 54 55 54h39z" />
    <glyph glyph-name="uogonek" unicode="&#x173;" 
d="M741 1434q54 0 54 -54v-1093q0 -233 -195 -287q-79 -37 -98 -104q-15 -56 20 -87q20 -18 51 -18q13 0 19 2q37 9 37 -18v-19q0 -27 -19 -41q-37 -22 -84 -22q-53 0 -89.5 29.5t-47.5 72.5t6 95.5t64 93.5h-4q-165 0 -248.5 73.5t-83.5 229.5v1093q0 54 53 54h39
q55 0 55 -54v-1056q0 -113 43 -160t146 -47t145.5 47t42.5 160v1056q0 54 55 54h39z" />
    <glyph glyph-name="Wcircumflex" unicode="&#x174;" horiz-adv-x="1314" 
d="M840 1546q28 0 35.5 20t-11.5 46l-112 164q-19 34 -64 34h-49q-45 0 -64 -34l-112 -164q-19 -26 -11.5 -46t35.5 -20h27q42 0 61 37l89 129l88 -129q19 -37 61 -37h27zM1212 1434q28 0 41 -15t9 -43l-222 -1327q-9 -49 -57 -49h-43q-50 0 -59 47l-222 1102l-223 -1102
q-6 -47 -57 -47h-47q-49 0 -58 49l-221 1327q-9 58 49 58h39q49 0 58 -52l166 -1103l217 1107q9 48 59 48h41q50 0 59 -48l217 -1107l166 1103q3 25 18 38.5t38 13.5h32z" />
    <glyph glyph-name="wcircumflex" unicode="&#x175;" horiz-adv-x="1314" 
d="M840 1546q28 0 35.5 20t-11.5 46l-112 164q-19 34 -64 34h-49q-45 0 -64 -34l-112 -164q-19 -26 -11.5 -46t35.5 -20h27q42 0 61 37l89 129l88 -129q19 -37 61 -37h27zM1212 1434q28 0 41 -15t9 -43l-222 -1327q-9 -49 -57 -49h-43q-50 0 -59 47l-222 1102l-223 -1102
q-6 -47 -57 -47h-47q-49 0 -58 49l-221 1327q-9 58 49 58h39q49 0 58 -52l166 -1103l217 1107q9 48 59 48h41q50 0 59 -48l217 -1107l166 1103q3 25 18 38.5t38 13.5h32z" />
    <glyph glyph-name="Ycircumflex" unicode="&#x176;" horiz-adv-x="847" 
d="M600 1546q28 0 36 20t-11 46l-113 164q-19 34 -63 34h-50q-44 0 -63 -34l-113 -164q-19 -26 -11 -46t36 -20h26q43 0 62 37l88 129l88 -129q19 -37 61 -37h27zM498 545v-492q0 -53 -54 -53h-41q-53 0 -53 53v492l-289 829q-10 28 1.5 44t41.5 16h43q46 0 62 -45l215 -676
l217 676q16 45 61 45h41q30 0 41.5 -16t1.5 -44z" />
    <glyph glyph-name="ycircumflex" unicode="&#x177;" horiz-adv-x="847" 
d="M600 1546q28 0 36 20t-11 46l-113 164q-19 34 -63 34h-50q-44 0 -63 -34l-113 -164q-19 -26 -11 -46t36 -20h26q43 0 62 37l88 129l88 -129q19 -37 61 -37h27zM498 545v-492q0 -53 -54 -53h-41q-53 0 -53 53v492l-289 829q-10 28 1.5 44t41.5 16h43q46 0 62 -45l215 -676
l217 676q16 45 61 45h41q30 0 41.5 -16t1.5 -44z" />
    <glyph glyph-name="Ydieresis" unicode="&#x178;" horiz-adv-x="847" 
d="M297 1718q53 0 53 -55v-64q0 -53 -53 -53h-39q-53 0 -53 53v64q0 55 53 55h39zM590 1718q53 0 53 -55v-64q0 -53 -53 -53h-39q-53 0 -53 53v64q0 55 53 55h39zM498 545v-492q0 -53 -54 -53h-41q-53 0 -53 53v492l-289 829q-10 28 1.5 44t41.5 16h43q46 0 62 -45l215 -676
l217 676q16 45 61 45h41q30 0 41.5 -16t1.5 -44z" />
    <glyph glyph-name="Zacute" unicode="&#x179;" horiz-adv-x="743" 
d="M436 1774q20 36 64 36h55q34 0 43.5 -19.5t-12.5 -45.5l-133 -170q-23 -29 -62 -29h-6q-31 0 -41 17t4 45zM639 127q53 0 53 -53v-21q0 -53 -53 -53h-533q-53 0 -53 53v21q0 32 13 65l454 1168h-389q-53 0 -53 53v20q0 54 53 54h494q53 0 53 -54v-20q0 -28 -12 -66
l-455 -1167h428z" />
    <glyph glyph-name="zacute" unicode="&#x17a;" horiz-adv-x="743" 
d="M436 1774q20 36 64 36h55q34 0 43.5 -19.5t-12.5 -45.5l-133 -170q-23 -29 -62 -29h-6q-31 0 -41 17t4 45zM639 127q53 0 53 -53v-21q0 -53 -53 -53h-533q-53 0 -53 53v21q0 32 13 65l454 1168h-389q-53 0 -53 53v20q0 54 53 54h494q53 0 53 -54v-20q0 -28 -12 -66
l-455 -1167h428z" />
    <glyph glyph-name="Zdotaccent" unicode="&#x17b;" horiz-adv-x="743" 
d="M408 1718q25 0 39 -14.5t14 -40.5v-64q0 -53 -53 -53h-41q-54 0 -54 53v64q0 26 14.5 40.5t39.5 14.5h41zM639 127q53 0 53 -53v-21q0 -53 -53 -53h-533q-53 0 -53 53v21q0 32 13 65l454 1168h-389q-53 0 -53 53v20q0 54 53 54h494q53 0 53 -54v-20q0 -28 -12 -66
l-455 -1167h428z" />
    <glyph glyph-name="zdotaccent" unicode="&#x17c;" horiz-adv-x="743" 
d="M408 1718q25 0 39 -14.5t14 -40.5v-64q0 -53 -53 -53h-41q-54 0 -54 53v64q0 26 14.5 40.5t39.5 14.5h41zM639 127q53 0 53 -53v-21q0 -53 -53 -53h-533q-53 0 -53 53v21q0 32 13 65l454 1168h-389q-53 0 -53 53v20q0 54 53 54h494q53 0 53 -54v-20q0 -28 -12 -66
l-455 -1167h428z" />
    <glyph glyph-name="Zcaron" unicode="&#x17d;" horiz-adv-x="743" 
d="M590 1747q17 26 9 44.5t-36 18.5h-24q-45 0 -64 -36l-88 -129l-86 129q-19 36 -63 36h-17q-32 0 -42 -18.5t7 -44.5l113 -164q22 -37 63 -37h52q41 0 63 37zM639 127q53 0 53 -53v-21q0 -53 -53 -53h-533q-53 0 -53 53v21q0 32 13 65l454 1168h-389q-53 0 -53 53v20
q0 54 53 54h494q53 0 53 -54v-20q0 -28 -12 -66l-455 -1167h428z" />
    <glyph glyph-name="zcaron" unicode="&#x17e;" horiz-adv-x="743" 
d="M590 1747q17 26 9 44.5t-36 18.5h-24q-45 0 -64 -36l-88 -129l-86 129q-19 36 -63 36h-17q-32 0 -42 -18.5t7 -44.5l113 -164q22 -37 63 -37h52q41 0 63 37zM639 127q53 0 53 -53v-21q0 -53 -53 -53h-533q-53 0 -53 53v21q0 32 13 65l454 1168h-389q-53 0 -53 53v20
q0 54 53 54h494q53 0 53 -54v-20q0 -28 -12 -66l-455 -1167h428z" />
    <glyph glyph-name="florin" unicode="&#x192;" horiz-adv-x="704" 
d="M614 1434q50 0 50 -54v-26q0 -54 -50 -54h-12q-95 0 -136.5 -47.5t-41.5 -158.5v-281h158q28 0 41 -15.5t8 -41.5l-6 -23q-9 -47 -58 -47h-143v-383q0 -303 -313 -303h-21q-49 0 -49 53v27q0 53 49 53h12q95 0 137 48t42 159v346h-158q-28 0 -41 15.5t-8 41.5l6 23
q9 47 57 47h144v317q0 304 313 304h20z" />
    <glyph glyph-name="Aringacute" unicode="&#x1fa;" horiz-adv-x="868" 
d="M430 1898q-31 0 -41 17t4 45l88 166q21 37 64 37h55q34 0 43.5 -20t-12.5 -46l-133 -170q-23 -29 -62 -29h-6zM432 1534q-78 0 -125 43t-47 115t47 114.5t125 42.5q77 0 123.5 -42.5t46.5 -114.5t-46.5 -115t-123.5 -43zM432 1772q-37 0 -59.5 -21t-22.5 -59t22.5 -59
t59.5 -21q36 0 58 20.5t22 59.5t-22 59.5t-58 20.5zM817 59q9 -59 -49 -59h-43q-49 0 -57 49l-62 305h-352l-61 -305q-8 -49 -58 -49h-35q-58 0 -49 59l283 1327q9 48 59 48h78q50 0 59 -48zM281 483h299l-150 746z" />
    <glyph glyph-name="aringacute" unicode="&#x1fb;" horiz-adv-x="868" 
d="M430 1898q-31 0 -41 17t4 45l88 166q21 37 64 37h55q34 0 43.5 -20t-12.5 -46l-133 -170q-23 -29 -62 -29h-6zM432 1534q-78 0 -125 43t-47 115t47 114.5t125 42.5q77 0 123.5 -42.5t46.5 -114.5t-46.5 -115t-123.5 -43zM432 1772q-37 0 -59.5 -21t-22.5 -59t22.5 -59
t59.5 -21q36 0 58 20.5t22 59.5t-22 59.5t-58 20.5zM817 59q9 -59 -49 -59h-43q-49 0 -57 49l-62 305h-352l-61 -305q-8 -49 -58 -49h-35q-58 0 -49 59l283 1327q9 48 59 48h78q50 0 59 -48zM281 483h299l-150 746z" />
    <glyph glyph-name="AEacute" unicode="&#x1fc;" horiz-adv-x="1269" 
d="M799 1546q-31 0 -41 17t4 45l88 166q20 36 63 36h56q34 0 43 -19.5t-13 -45.5l-133 -170q-23 -29 -61 -29h-6zM1155 133q53 0 53 -53v-27q0 -53 -53 -53h-479q-53 0 -53 53v301h-336l-97 -309q-12 -45 -59 -45h-41q-28 0 -40 16t-3 43l422 1332q12 43 59 43h621
q53 0 53 -54v-26q0 -54 -53 -54h-379v-507h315q54 0 54 -54v-24q0 -53 -54 -53h-315v-529h385zM326 481h297v819h-43z" />
    <glyph glyph-name="aeacute" unicode="&#x1fd;" horiz-adv-x="1269" 
d="M799 1546q-31 0 -41 17t4 45l88 166q20 36 63 36h56q34 0 43 -19.5t-13 -45.5l-133 -170q-23 -29 -61 -29h-6zM1155 133q53 0 53 -53v-27q0 -53 -53 -53h-479q-53 0 -53 53v301h-336l-97 -309q-12 -45 -59 -45h-41q-28 0 -40 16t-3 43l422 1332q12 43 59 43h621
q53 0 53 -54v-26q0 -54 -53 -54h-379v-507h315q54 0 54 -54v-24q0 -53 -54 -53h-315v-529h385zM326 481h297v819h-43z" />
    <glyph glyph-name="Oslashacute" unicode="&#x1fe;" horiz-adv-x="925" 
d="M461 1546q-31 0 -41 17t4 45l88 166q20 36 63 36h56q34 0 43.5 -19.5t-12.5 -45.5l-134 -170q-23 -29 -61 -29h-6zM471 1450q336 0 336 -303v-860q0 -303 -336 -303h-16q-336 0 -336 303v860q0 303 336 303h16zM266 1110v-786q0 -86 29 -136l252 1119q-42 10 -84 10
q-104 0 -150.5 -48t-46.5 -159zM659 324v786q0 87 -28 135l-252 -1118q42 -10 84 -10q104 0 150 48t46 159z" />
    <glyph glyph-name="oslashacute" unicode="&#x1ff;" horiz-adv-x="925" 
d="M461 1546q-31 0 -41 17t4 45l88 166q20 36 63 36h56q34 0 43.5 -19.5t-12.5 -45.5l-134 -170q-23 -29 -61 -29h-6zM471 1450q336 0 336 -303v-860q0 -303 -336 -303h-16q-336 0 -336 303v860q0 303 336 303h16zM266 1110v-786q0 -86 29 -136l252 1119q-42 10 -84 10
q-104 0 -150.5 -48t-46.5 -159zM659 324v786q0 87 -28 135l-252 -1118q42 -10 84 -10q104 0 150 48t46 159z" />
    <glyph glyph-name="Scommaaccent" unicode="&#x218;" horiz-adv-x="856" 
d="M758 987q0 -53 -53 -53h-39q-54 0 -54 53v135q0 103 -43.5 150t-140.5 47t-140.5 -47t-43.5 -150v-100q0 -69 26 -102.5t103 -75.5l205 -113q90 -49 137 -110.5t47 -147.5v-190q0 -154 -82.5 -226.5t-247.5 -72.5h-4q-166 0 -248 71.5t-82 227.5v184q0 53 54 53h38
q54 0 54 -53v-152q0 -102 44.5 -151t141.5 -49t141.5 49t44.5 151v115q0 69 -29 107t-106 81l-200 111q-99 56 -141 110t-42 144v172q0 146 87.5 220.5t240.5 74.5h4q153 0 240.5 -74.5t87.5 -220.5v-168zM471 -143q53 0 53 -54v-82q0 -137 -61 -256q-23 -42 -55 -28
q-28 14 -7 63q38 83 41 174h-16q-53 0 -53 54v75q0 54 53 54h45z" />
    <glyph glyph-name="scommaaccent" unicode="&#x219;" horiz-adv-x="856" 
d="M758 987q0 -53 -53 -53h-39q-54 0 -54 53v135q0 103 -43.5 150t-140.5 47t-140.5 -47t-43.5 -150v-100q0 -69 26 -102.5t103 -75.5l205 -113q90 -49 137 -110.5t47 -147.5v-190q0 -154 -82.5 -226.5t-247.5 -72.5h-4q-166 0 -248 71.5t-82 227.5v184q0 53 54 53h38
q54 0 54 -53v-152q0 -102 44.5 -151t141.5 -49t141.5 49t44.5 151v115q0 69 -29 107t-106 81l-200 111q-99 56 -141 110t-42 144v172q0 146 87.5 220.5t240.5 74.5h4q153 0 240.5 -74.5t87.5 -220.5v-168zM471 -143q53 0 53 -54v-82q0 -137 -61 -256q-23 -42 -55 -28
q-28 14 -7 63q38 83 41 174h-16q-53 0 -53 54v75q0 54 53 54h45z" />
    <glyph glyph-name="circumflex" unicode="&#x2c6;" horiz-adv-x="892" 
d="M623 1546q28 0 35.5 20t-11.5 46l-112 164q-19 34 -64 34h-49q-45 0 -64 -34l-112 -164q-19 -26 -11.5 -46t35.5 -20h27q42 0 61 37l88 129l89 -129q19 -37 61 -37h27z" />
    <glyph glyph-name="caron" unicode="&#x2c7;" horiz-adv-x="892" 
d="M647 1747q17 26 9.5 44.5t-35.5 18.5h-25q-45 0 -64 -36l-88 -129l-86 129q-19 36 -63 36h-16q-32 0 -42 -18.5t7 -44.5l112 -164q22 -37 64 -37h51q42 0 64 37z" />
    <glyph glyph-name="breve" unicode="&#x2d8;" horiz-adv-x="966" 
d="M647 1792q49 0 49 -49v-39q0 -78 -53.5 -119t-146.5 -41h-25q-93 0 -147 41t-54 121v37q0 49 49 49h17q51 0 51 -49v-14q0 -84 92 -84h8q93 0 93 84v14q0 49 51 49h16z" />
    <glyph glyph-name="dotaccent" unicode="&#x2d9;" horiz-adv-x="585" 
d="M313 1718q25 0 39.5 -14.5t14.5 -40.5v-64q0 -53 -54 -53h-41q-53 0 -53 53v64q0 26 14 40.5t39 14.5h41z" />
    <glyph glyph-name="ring" unicode="&#x2da;" horiz-adv-x="780" 
d="M393 1849q77 0 123.5 -42.5t46.5 -114.5t-46.5 -115t-123.5 -43q-78 0 -125 43t-47 115t47 114.5t125 42.5zM393 1772q-37 0 -59.5 -21t-22.5 -59t22.5 -59t59.5 -21q36 0 58 20.5t22 59.5t-22 59.5t-58 20.5z" />
    <glyph glyph-name="ogonek" unicode="&#x2db;" horiz-adv-x="804" 
d="M449 -209q12 0 18 2q37 9 37 -18v-19q0 -27 -19 -41q-37 -22 -84 -22q-48 0 -84 24.5t-48 64t-6 84t42 89t96 74.5l74 -29q-64 -30 -88.5 -81t-5.5 -89.5t68 -38.5z" />
    <glyph glyph-name="tilde" unicode="&#x2dc;" horiz-adv-x="995" 
d="M305 1589q0 90 68 90q28 0 60 -21t57.5 -46.5t65 -46.5t81.5 -21q69 0 115.5 49.5t46.5 145.5q0 47 -45 47h-21q-45 0 -45 -37q0 -90 -67 -90q-27 0 -57 21t-54.5 46.5t-63.5 46.5t-81 21q-71 0 -119.5 -49.5t-48.5 -145.5q0 -45 45 -45h18q45 0 45 35z" />
    <glyph glyph-name="hungarumlaut" unicode="&#x2dd;" horiz-adv-x="1536" 
d="M637 1782q22 28 61 28h23q32 0 41 -18t-10 -43l-150 -174q-26 -29 -61 -29h-25q-32 0 -41.5 18.5t10.5 43.5zM911 1782q22 28 62 28h26q32 0 40.5 -18t-11.5 -43l-149 -174q-23 -29 -62 -29h-24q-32 0 -40 18.5t11 43.5z" />
    <glyph glyph-name="uni0326" unicode="&#x326;" horiz-adv-x="0" 
d="M-305 -143q53 0 53 -54v-82q0 -137 -61 -256q-23 -42 -56 -28q-27 14 -6 63q38 83 41 174h-16q-53 0 -53 54v75q0 54 53 54h45z" />
    <glyph glyph-name="Wgrave" unicode="&#x1e80;" horiz-adv-x="1314" 
d="M553 1810q44 0 63 -36l89 -166q14 -28 7 -45t-32 -17h-18q-39 0 -62 29l-133 170q-22 26 -12.5 45.5t43.5 19.5h55zM1212 1434q28 0 41 -15t9 -43l-222 -1327q-9 -49 -57 -49h-43q-50 0 -59 47l-222 1102l-223 -1102q-6 -47 -57 -47h-47q-49 0 -58 49l-221 1327
q-9 58 49 58h39q49 0 58 -52l166 -1103l217 1107q9 48 59 48h41q50 0 59 -48l217 -1107l166 1103q3 25 18 38.5t38 13.5h32z" />
    <glyph glyph-name="wgrave" unicode="&#x1e81;" horiz-adv-x="1314" 
d="M553 1810q44 0 63 -36l89 -166q14 -28 7 -45t-32 -17h-18q-39 0 -62 29l-133 170q-22 26 -12.5 45.5t43.5 19.5h55zM1212 1434q28 0 41 -15t9 -43l-222 -1327q-9 -49 -57 -49h-43q-50 0 -59 47l-222 1102l-223 -1102q-6 -47 -57 -47h-47q-49 0 -58 49l-221 1327
q-9 58 49 58h39q49 0 58 -52l166 -1103l217 1107q9 48 59 48h41q50 0 59 -48l217 -1107l166 1103q3 25 18 38.5t38 13.5h32z" />
    <glyph glyph-name="Wacute" unicode="&#x1e82;" horiz-adv-x="1314" 
d="M713 1774q20 36 63 36h55q34 0 43.5 -19.5t-12.5 -45.5l-133 -170q-23 -29 -61 -29h-6q-31 0 -41 17t4 45zM1212 1434q28 0 41 -15t9 -43l-222 -1327q-9 -49 -57 -49h-43q-50 0 -59 47l-222 1102l-223 -1102q-6 -47 -57 -47h-47q-49 0 -58 49l-221 1327q-9 58 49 58h39
q49 0 58 -52l166 -1103l217 1107q9 48 59 48h41q50 0 59 -48l217 -1107l166 1103q3 25 18 38.5t38 13.5h32z" />
    <glyph glyph-name="wacute" unicode="&#x1e83;" horiz-adv-x="1314" 
d="M713 1774q20 36 63 36h55q34 0 43.5 -19.5t-12.5 -45.5l-133 -170q-23 -29 -61 -29h-6q-31 0 -41 17t4 45zM1212 1434q28 0 41 -15t9 -43l-222 -1327q-9 -49 -57 -49h-43q-50 0 -59 47l-222 1102l-223 -1102q-6 -47 -57 -47h-47q-49 0 -58 49l-221 1327q-9 58 49 58h39
q49 0 58 -52l166 -1103l217 1107q9 48 59 48h41q50 0 59 -48l217 -1107l166 1103q3 25 18 38.5t38 13.5h32z" />
    <glyph glyph-name="Wdieresis" unicode="&#x1e84;" horiz-adv-x="1314" 
d="M537 1718q53 0 53 -55v-64q0 -53 -53 -53h-39q-54 0 -54 53v64q0 55 54 55h39zM829 1718q54 0 54 -55v-64q0 -53 -54 -53h-38q-54 0 -54 53v64q0 55 54 55h38zM1212 1434q28 0 41 -15t9 -43l-222 -1327q-9 -49 -57 -49h-43q-50 0 -59 47l-222 1102l-223 -1102
q-6 -47 -57 -47h-47q-49 0 -58 49l-221 1327q-9 58 49 58h39q49 0 58 -52l166 -1103l217 1107q9 48 59 48h41q50 0 59 -48l217 -1107l166 1103q3 25 18 38.5t38 13.5h32z" />
    <glyph glyph-name="wdieresis" unicode="&#x1e85;" horiz-adv-x="1314" 
d="M537 1718q53 0 53 -55v-64q0 -53 -53 -53h-39q-54 0 -54 53v64q0 55 54 55h39zM829 1718q54 0 54 -55v-64q0 -53 -54 -53h-38q-54 0 -54 53v64q0 55 54 55h38zM1212 1434q28 0 41 -15t9 -43l-222 -1327q-9 -49 -57 -49h-43q-50 0 -59 47l-222 1102l-223 -1102
q-6 -47 -57 -47h-47q-49 0 -58 49l-221 1327q-9 58 49 58h39q49 0 58 -52l166 -1103l217 1107q9 48 59 48h41q50 0 59 -48l217 -1107l166 1103q3 25 18 38.5t38 13.5h32z" />
    <glyph glyph-name="Ygrave" unicode="&#x1ef2;" horiz-adv-x="847" 
d="M313 1810q45 0 64 -36l88 -166q14 -28 7 -45t-32 -17h-18q-39 0 -62 29l-133 170q-22 26 -12.5 45.5t43.5 19.5h55zM498 545v-492q0 -53 -54 -53h-41q-53 0 -53 53v492l-289 829q-10 28 1.5 44t41.5 16h43q46 0 62 -45l215 -676l217 676q16 45 61 45h41q30 0 41.5 -16
t1.5 -44z" />
    <glyph glyph-name="ygrave" unicode="&#x1ef3;" horiz-adv-x="847" 
d="M313 1810q45 0 64 -36l88 -166q14 -28 7 -45t-32 -17h-18q-39 0 -62 29l-133 170q-22 26 -12.5 45.5t43.5 19.5h55zM498 545v-492q0 -53 -54 -53h-41q-53 0 -53 53v492l-289 829q-10 28 1.5 44t41.5 16h43q46 0 62 -45l215 -676l217 676q16 45 61 45h41q30 0 41.5 -16
t1.5 -44z" />
    <glyph glyph-name="endash" unicode="&#x2013;" horiz-adv-x="729" 
d="M623 795q53 0 53 -54v-16q0 -53 -53 -53h-517q-53 0 -53 53v16q0 54 53 54h517z" />
    <glyph glyph-name="emdash" unicode="&#x2014;" horiz-adv-x="1036" 
d="M930 795q53 0 53 -54v-16q0 -53 -53 -53h-824q-53 0 -53 53v16q0 54 53 54h824z" />
    <glyph glyph-name="quoteleft" unicode="&#x2018;" horiz-adv-x="339" 
d="M147 1018q-53 0 -53 53v82q0 135 62 256q24 43 55 29q27 -14 6 -64q-38 -83 -41 -174h17q53 0 53 -53v-76q0 -53 -53 -53h-46z" />
    <glyph glyph-name="quoteright" unicode="&#x2019;" horiz-adv-x="339" 
d="M193 1434q53 0 53 -54v-82q0 -135 -62 -256q-23 -42 -55 -28q-27 14 -6 63q38 83 41 174h-17q-53 0 -53 54v75q0 54 53 54h46z" />
    <glyph glyph-name="quotesinglbase" unicode="&#x201a;" horiz-adv-x="339" 
d="M193 182q53 0 53 -53v-82q0 -135 -62 -256q-24 -43 -55 -29q-27 14 -6 64q38 83 41 174h-17q-53 0 -53 53v76q0 53 53 53h46z" />
    <glyph glyph-name="quotedblleft" unicode="&#x201c;" horiz-adv-x="573" 
d="M147 1018q-53 0 -53 53v82q0 135 62 256q24 43 55 29q27 -14 6 -64q-38 -83 -41 -174h17q53 0 53 -53v-76q0 -53 -53 -53h-46zM381 1018q-53 0 -53 53v82q0 137 61 256q24 43 55 29q28 -14 7 -64q-38 -83 -41 -174h16q53 0 53 -53v-76q0 -53 -53 -53h-45z" />
    <glyph glyph-name="quotedblright" unicode="&#x201d;" horiz-adv-x="573" 
d="M193 1434q53 0 53 -54v-82q0 -135 -62 -256q-23 -42 -55 -28q-27 14 -6 63q38 83 41 174h-17q-53 0 -53 54v75q0 54 53 54h46zM426 1434q53 0 53 -54v-82q0 -137 -61 -256q-23 -42 -56 -28q-27 14 -6 63q38 83 41 174h-16q-53 0 -53 54v75q0 54 53 54h45z" />
    <glyph glyph-name="quotedblbase" unicode="&#x201e;" horiz-adv-x="573" 
d="M193 182q53 0 53 -53v-82q0 -135 -62 -256q-24 -43 -55 -29q-27 14 -6 64q38 83 41 174h-17q-53 0 -53 53v76q0 53 53 53h46zM426 182q53 0 53 -53v-82q0 -137 -61 -256q-24 -43 -56 -29q-27 14 -6 64q38 83 41 174h-16q-53 0 -53 53v76q0 53 53 53h45z" />
    <glyph glyph-name="dagger" unicode="&#x2020;" horiz-adv-x="675" 
d="M586 1024q53 0 53 -53v-15q0 -55 -53 -55h-183v-848q0 -53 -53 -53h-24q-54 0 -54 53v848h-182q-53 0 -53 55v15q0 53 53 53h182v356q0 54 54 54h24q53 0 53 -54v-356h183z" />
    <glyph glyph-name="daggerdbl" unicode="&#x2021;" horiz-adv-x="675" 
d="M639 956q0 -55 -53 -55h-183v-369h183q53 0 53 -55v-14q0 -53 -53 -53h-183v-357q0 -53 -53 -53h-24q-54 0 -54 53v357h-182q-53 0 -53 53v14q0 55 53 55h182v369h-182q-53 0 -53 55v15q0 53 53 53h182v356q0 54 54 54h24q53 0 53 -54v-356h183q53 0 53 -53v-15z" />
    <glyph glyph-name="bullet" unicode="&#x2022;" horiz-adv-x="579" 
d="M291 870q68 0 101.5 -33t33.5 -108t-33.5 -108t-101.5 -33t-101.5 33t-33.5 108t33.5 108t101.5 33z" />
    <glyph glyph-name="ellipsis" unicode="&#x2026;" horiz-adv-x="1091" 
d="M193 182q53 0 53 -53v-76q0 -53 -53 -53h-46q-53 0 -53 53v76q0 53 53 53h46zM567 182q54 0 54 -53v-76q0 -53 -54 -53h-45q-53 0 -53 53v76q0 53 53 53h45zM944 182q53 0 53 -53v-76q0 -53 -53 -53h-45q-53 0 -53 53v76q0 53 53 53h45z" />
    <glyph glyph-name="perthousand" unicode="&#x2030;" horiz-adv-x="1492" 
d="M272 1442q68 0 116 -43.5t48 -130.5v-262q0 -88 -48 -131.5t-116 -43.5h-32q-71 0 -118.5 43.5t-47.5 131.5v262q0 88 47.5 131t118.5 43h32zM862 1434q22 0 29 -14.5t-2 -37.5l-637 -1349q-13 -33 -51 -33h-11q-24 0 -32.5 14t0.5 37l637 1350q13 33 51 33h16zM340 1247
q0 56 -18 80.5t-56 24.5h-22q-38 0 -56 -24.5t-18 -80.5v-221q0 -56 18 -80t56 -24h22q38 0 56 24t18 80v221zM809 602q68 0 116 -43.5t48 -130.5v-262q0 -87 -48 -130.5t-116 -43.5h-33q-71 0 -118.5 43t-47.5 131v262q0 88 47.5 131t118.5 43h33zM1255 602q68 0 116 -43.5
t48 -130.5v-262q0 -87 -48 -130.5t-116 -43.5h-32q-71 0 -118.5 43t-47.5 131v262q0 88 47.5 131t118.5 43h32zM877 408q0 56 -18 80t-56 24h-23q-38 0 -55.5 -24t-17.5 -80v-222q0 -56 17.5 -80t55.5 -24h23q38 0 56 24t18 80v222zM1323 408q0 56 -18 80t-56 24h-20
q-39 0 -57.5 -24t-18.5 -80v-222q0 -56 18.5 -80t57.5 -24h20q38 0 56 24t18 80v222z" />
    <glyph glyph-name="guilsinglleft" unicode="&#x2039;" horiz-adv-x="458" 
d="M367 924q30 21 30 65v27q0 34 -19.5 43t-45.5 -15l-271 -249q-28 -22 -28 -66v-8q0 -44 28 -66l271 -249q26 -24 45.5 -18t19.5 36v37q0 44 -30 65l-217 199z" />
    <glyph glyph-name="guilsinglright" unicode="&#x203a;" horiz-adv-x="458" 
d="M92 924l217 -199l-217 -199q-31 -22 -31 -65v-37q0 -30 20 -36t46 18l270 249q29 23 29 66v8q0 43 -29 66l-270 249q-26 24 -46 15t-20 -43v-27q0 -43 31 -65z" />
    <glyph glyph-name="fraction" unicode="&#x2044;" horiz-adv-x="188" 
d="M297 1401q11 33 45 33h10q23 0 32 -12.5t1 -32.5l-494 -1356q-11 -33 -45 -33h-10q-23 0 -32 12.5t-1 32.5z" />
    <glyph glyph-name="Euro" unicode="&#x20ac;" horiz-adv-x="925" 
d="M723 897q-55 0 -55 53v160q0 110 -45 158.5t-146 48.5t-145.5 -48.5t-44.5 -158.5v-223h221q39 0 39 -37v-14q0 -37 -39 -37h-221v-131h221q39 0 39 -37v-15q0 -36 -39 -36h-221v-256q0 -110 44.5 -158.5t145.5 -48.5t146 48.5t45 158.5v194q0 53 55 53h39q53 0 53 -53
v-231q0 -303 -336 -303h-4q-336 0 -336 303v293h-92q-39 0 -39 36v15q0 37 39 37h92v131h-92q-39 0 -39 37v14q0 37 39 37h92v260q0 150 86 226.5t250 76.5h4q164 0 250 -76.5t86 -226.5v-197q0 -53 -53 -53h-39z" />
    <glyph glyph-name="uni2120" unicode="&#x2120;" horiz-adv-x="825" 
d="M322 1272q0 -12 -7.5 -19.5t-19.5 -7.5h-23q-26 0 -26 27v37q0 65 -56 65q-59 0 -59 -65v-29q0 -27 11 -40t46 -36l70 -43q66 -42 66 -104v-64q0 -121 -134 -121q-135 0 -135 121v58q0 26 27 26h24q11 0 18 -7t7 -19v-45q0 -66 59 -66q58 0 58 66v34q0 20 -8.5 34
t-19 21.5t-38.5 24.5l-65 41q-62 37 -62 105v57q0 57 37.5 88t97.5 31q61 0 96.5 -31t35.5 -88v-51zM694 1237l-86 -244q-6 -20 -26 -20q-19 0 -25 20l-86 244v-330q0 -26 -27 -26h-24q-11 0 -18 7t-7 19v500q0 12 7 19.5t18 7.5h24q23 0 29 -21l109 -311l106 311
q6 21 29 21h26q12 0 19.5 -7.5t7.5 -19.5v-500q0 -26 -27 -26h-22q-27 0 -27 26v330z" />
    <glyph glyph-name="trademark" unicode="&#x2122;" horiz-adv-x="790" 
d="M270 1434q12 0 19.5 -7.5t7.5 -19.5v-18q0 -11 -7.5 -18t-19.5 -7h-65v-457q0 -12 -7 -19t-18 -7h-26q-27 0 -27 26v457h-66q-12 0 -19 7t-7 18v18q0 27 26 27h209zM659 1237l-86 -244q-6 -20 -26 -20q-18 0 -27 20l-84 244v-330q0 -26 -26 -26h-25q-11 0 -18 7t-7 19
v500q0 12 7 19.5t18 7.5h25q22 0 28 -21l109 -311l106 311q6 21 29 21h27q26 0 26 -27v-500q0 -26 -26 -26h-23q-27 0 -27 26v330z" />
    <glyph glyph-name="uni2153" unicode="&#x2153;" horiz-adv-x="1083" 
d="M203 606q0 -41 -39 -41h-29q-41 0 -41 41v719q0 14 8 25q19 22 29 51q9 33 37 33h4q14 0 22.5 -10t8.5 -27v-791zM633 1401q11 33 45 33h10q23 0 32 -12.5t1 -32.5l-494 -1356q-11 -33 -45 -33h-10q-23 0 -32 12.5t-1 32.5zM989 582q0 -107 -71 -131q71 -24 71 -123v-150
q0 -87 -46.5 -138.5t-139.5 -51.5h-31q-93 0 -139.5 51.5t-46.5 138.5v86q0 41 41 41h28q39 0 39 -41v-69q0 -57 22 -82t66 -25h11q44 0 65 25t21 82v124q0 42 -20.5 60t-61.5 18h-62q-41 0 -41 41v17q0 41 41 41h49q51 0 73 20.5t22 71.5v82q0 57 -21 81.5t-65 24.5h-13
q-44 0 -65 -24t-21 -82v-49q0 -41 -41 -41h-26q-41 0 -41 41v65q0 191 196 191h11q196 0 196 -191v-104z" />
    <glyph glyph-name="uni2154" unicode="&#x2154;" horiz-adv-x="1327" 
d="M139 1114q-41 0 -41 41v107q0 91 50 137.5t147 46.5h2q199 0 199 -184v-88q0 -24 -4.5 -45t-15.5 -41t-20.5 -34t-30 -34t-31.5 -30t-37.5 -32.5t-37.5 -31.5q-64 -53 -88 -93t-24 -83v-82h248q41 0 41 -41v-17q0 -41 -41 -41h-320q-41 0 -41 41v142q0 76 38.5 130
t121.5 126q78 63 103.5 94t25.5 74v69q0 54 -20.5 78.5t-69.5 24.5q-45 0 -65.5 -25t-20.5 -78v-90q0 -41 -41 -41h-27zM877 1401q11 33 45 33h10q23 0 32 -12.5t1 -32.5l-494 -1356q-11 -33 -45 -33h-10q-23 0 -32 12.5t-1 32.5zM1233 582q0 -107 -72 -131q72 -24 72 -123
v-150q0 -87 -46.5 -138.5t-139.5 -51.5h-31q-93 0 -140 51.5t-47 138.5v86q0 41 41 41h29q39 0 39 -41v-69q0 -57 22 -82t66 -25h10q44 0 66 25t22 82v124q0 78 -84 78h-61q-41 0 -41 41v17q0 41 41 41h49q51 0 73.5 20.5t22.5 71.5v82q0 57 -22 81.5t-66 24.5h-12
q-44 0 -65 -24t-21 -82v-49q0 -41 -41 -41h-27q-41 0 -41 41v65q0 191 197 191h10q197 0 197 -191v-104z" />
    <glyph glyph-name="uni2155" unicode="&#x2155;" horiz-adv-x="1107" 
d="M203 606q0 -41 -39 -41h-29q-41 0 -41 41v719q0 14 8 25q19 22 29 51q9 33 37 33h4q14 0 22.5 -10t8.5 -27v-791zM633 1401q11 33 45 33h10q23 0 32 -12.5t1 -32.5l-494 -1356q-11 -33 -45 -33h-10q-23 0 -32 12.5t-1 32.5zM1006 805q0 -41 -41 -41h-238v-248
q42 57 121 57q78 0 122 -46t44 -126v-229q0 -184 -199 -184h-4q-199 0 -199 184v104q0 41 41 41h27q41 0 41 -41v-88q0 -53 21.5 -77.5t68.5 -24.5q49 0 71.5 24.5t22.5 77.5v197q0 88 -76 88q-57 0 -94 -47q-17 -20 -41 -14l-43 10q-35 12 -35 45v356q0 41 41 41h308
q41 0 41 -41v-18z" />
    <glyph glyph-name="uni2156" unicode="&#x2156;" horiz-adv-x="1351" 
d="M139 1114q-41 0 -41 41v107q0 91 50 137.5t147 46.5h2q199 0 199 -184v-88q0 -24 -4.5 -45t-15.5 -41t-20.5 -34t-30 -34t-31.5 -30t-37.5 -32.5t-37.5 -31.5q-64 -53 -88 -93t-24 -83v-82h248q41 0 41 -41v-17q0 -41 -41 -41h-320q-41 0 -41 41v142q0 76 38.5 130
t121.5 126q78 63 103.5 94t25.5 74v69q0 54 -20.5 78.5t-69.5 24.5q-45 0 -65.5 -25t-20.5 -78v-90q0 -41 -41 -41h-27zM877 1401q11 33 45 33h10q23 0 32 -12.5t1 -32.5l-494 -1356q-11 -33 -45 -33h-10q-23 0 -32 12.5t-1 32.5zM1249 805q0 -41 -41 -41h-237v-248
q42 57 121 57q78 0 121.5 -46t43.5 -126v-229q0 -184 -198 -184h-4q-199 0 -199 184v104q0 41 41 41h27q41 0 41 -41v-88q0 -53 21.5 -77.5t68.5 -24.5q49 0 71.5 24.5t22.5 77.5v197q0 88 -76 88q-57 0 -94 -47q-17 -20 -41 -14l-43 10q-35 12 -35 45v356q0 41 41 41h307
q41 0 41 -41v-18z" />
    <glyph glyph-name="uni2157" unicode="&#x2157;" horiz-adv-x="1341" 
d="M498 1151q0 -107 -72 -131q72 -24 72 -123v-149q0 -87 -47 -139t-140 -52h-30q-93 0 -140 52t-47 139v86q0 40 41 40h29q39 0 39 -40v-70q0 -57 22 -82t66 -25h10q44 0 66 25t22 82v125q0 78 -84 78h-61q-41 0 -41 41v16q0 41 41 41h49q51 0 73.5 20.5t22.5 71.5v82
q0 57 -22 82t-66 25h-12q-44 0 -65 -24.5t-21 -82.5v-49q0 -41 -41 -41h-27q-41 0 -41 41v65q0 191 197 191h10q197 0 197 -191v-104zM866 1401q11 33 45 33h11q23 0 31.5 -12t0.5 -33l-493 -1356q-11 -33 -45 -33h-10q-23 0 -32 12.5t-1 32.5zM1239 805q0 -41 -39 -41h-239
v-248q42 57 120 57t122 -46t44 -126v-229q0 -184 -198 -184h-5q-198 0 -198 184v104q0 41 41 41h26q41 0 41 -41v-88q0 -53 21.5 -77.5t68.5 -24.5q49 0 72 24.5t23 77.5v197q0 88 -76 88q-57 0 -94 -47q-17 -20 -41 -14l-43 10q-35 12 -35 45v356q0 41 41 41h309
q39 0 39 -41v-18z" />
    <glyph glyph-name="uni2158" unicode="&#x2158;" horiz-adv-x="1355" 
d="M418 1434q39 0 39 -41v-519h30q41 0 41 -40v-21q0 -41 -41 -41h-30v-166q0 -41 -39 -41h-33q-39 0 -39 41v166h-211q-41 0 -41 41v29q0 22 10 49l209 510q11 33 47 33h58zM881 1401q11 33 45 33h10q23 0 32 -12.5t1 -32.5l-494 -1356q-11 -33 -45 -33h-10q-23 0 -32 12.5
t-1 32.5zM346 1262l-156 -388h156v388zM1253 805q0 -41 -41 -41h-239v-248q42 57 123 57q78 0 122 -46t44 -126v-229q0 -184 -199 -184h-4q-199 0 -199 184v104q0 41 41 41h27q19 0 30 -11t11 -30v-88q0 -53 20.5 -77.5t69.5 -24.5q47 0 69.5 25t22.5 77v197q0 88 -76 88
q-55 0 -92 -47q-19 -22 -41 -16l-43 12q-35 11 -35 45v356q0 41 41 41h307q41 0 41 -41v-18z" />
    <glyph glyph-name="uni2159" unicode="&#x2159;" horiz-adv-x="1110" 
d="M203 606q0 -41 -39 -41h-29q-41 0 -41 41v719q0 14 8 25q19 22 29 51q9 33 37 33h4q14 0 22.5 -10t8.5 -27v-791zM633 1401q11 33 45 33h10q23 0 32 -12.5t1 -32.5l-494 -1356q-11 -33 -45 -33h-10q-23 0 -32 12.5t-1 32.5zM1016 653q0 -32 -41 -32h-27q-41 0 -41 41v14
q0 53 -22.5 77.5t-71.5 24.5q-47 0 -69.5 -25t-22.5 -77v-209q32 65 127 65q78 0 122 -46t44 -126v-188q0 -184 -199 -184h-4q-199 0 -199 184v520q0 185 201 185h4q199 0 199 -185v-39zM825 432q-46 0 -75 -23.5t-29 -62.5v-158q0 -53 21.5 -77.5t70.5 -24.5q47 0 69.5 25
t22.5 77v156q0 88 -80 88z" />
    <glyph glyph-name="uni215A" unicode="&#x215a;" horiz-adv-x="1351" 
d="M487 1374q0 -41 -41 -41h-239v-248q43 58 123 58q78 0 122 -46t44 -126v-230q0 -184 -199 -184h-4q-199 0 -199 184v105q0 41 41 41h27q41 0 41 -41v-88q0 -54 20.5 -78.5t69.5 -24.5t71.5 25t22.5 78v196q0 88 -78 88q-55 0 -92 -47q-17 -20 -41 -14l-43 10
q-35 11 -35 45v357q0 41 41 41h307q41 0 41 -41v-19zM874 1401q11 33 46 33h10q23 0 32 -12.5t1 -32.5l-494 -1356q-11 -33 -45 -33h-10q-23 0 -32 12.5t-1 32.5zM1257 653q0 -32 -40 -32h-27q-41 0 -41 41v14q0 53 -22.5 77.5t-71.5 24.5q-47 0 -69.5 -25t-22.5 -77v-209
q32 65 127 65q78 0 121.5 -46t43.5 -126v-188q0 -184 -198 -184h-4q-199 0 -199 184v520q0 185 201 185h4q198 0 198 -185v-39zM1067 432q-46 0 -75 -23.5t-29 -62.5v-158q0 -53 21.5 -77.5t70.5 -24.5q47 0 69.5 25t22.5 77v156q0 88 -80 88z" />
    <glyph glyph-name="oneeighth" unicode="&#x215b;" horiz-adv-x="1093" 
d="M203 606q0 -41 -39 -41h-29q-41 0 -41 41v719q0 14 8 25q19 22 29 51q9 33 37 33h4q14 0 22.5 -10t8.5 -27v-791zM633 1401q11 33 45 33h10q23 0 32 -12.5t1 -32.5l-494 -1356q-11 -33 -45 -33h-10q-23 0 -32 12.5t-1 32.5zM815 877q93 0 139.5 -51.5t46.5 -139.5v-104
q0 -108 -75 -133q75 -34 75 -146v-125q0 -88 -46.5 -139t-139.5 -51h-39q-93 0 -138.5 50.5t-45.5 139.5v125q0 112 78 146q-78 26 -78 133v104q0 89 45.5 140t138.5 51h39zM891 580v90q0 106 -84 106h-23q-82 0 -82 -106v-90q0 -84 82 -84h23q42 0 63 19.5t21 64.5z
M891 195v118q0 45 -21 64.5t-63 19.5h-23q-82 0 -82 -84v-118q0 -107 82 -107h23q84 0 84 107z" />
    <glyph glyph-name="threeeighths" unicode="&#x215c;" horiz-adv-x="1329" 
d="M498 1151q0 -107 -72 -131q72 -24 72 -123v-149q0 -87 -47 -139t-140 -52h-30q-93 0 -140 52t-47 139v86q0 40 41 40h29q39 0 39 -40v-70q0 -57 22 -82t66 -25h10q44 0 66 25t22 82v125q0 78 -84 78h-61q-41 0 -41 41v16q0 41 41 41h49q51 0 73.5 20.5t22.5 71.5v82
q0 57 -22 82t-66 25h-12q-44 0 -65 -24.5t-21 -82.5v-49q0 -41 -41 -41h-27q-41 0 -41 41v65q0 191 197 191h10q197 0 197 -191v-104zM866 1401q11 33 45 33h11q23 0 31.5 -12t0.5 -33l-493 -1356q-11 -33 -45 -33h-10q-23 0 -32 12.5t-1 32.5zM1051 877q93 0 138.5 -51
t45.5 -140v-104q0 -107 -76 -133q76 -34 76 -146v-125q0 -89 -45.5 -139.5t-138.5 -50.5h-39q-94 0 -140.5 51t-46.5 139v125q0 113 80 146q-80 26 -80 133v104q0 88 47 139.5t140 51.5h39zM1124 580v90q0 106 -82 106h-22q-84 0 -84 -106v-90q0 -84 84 -84h22
q41 0 61.5 19.5t20.5 64.5zM1124 195v118q0 45 -20.5 64.5t-61.5 19.5h-22q-84 0 -84 -84v-118q0 -107 84 -107h22q82 0 82 107z" />
    <glyph glyph-name="fiveeighths" unicode="&#x215d;" horiz-adv-x="1337" 
d="M487 1374q0 -41 -41 -41h-239v-248q43 58 123 58q78 0 122 -46t44 -126v-230q0 -184 -199 -184h-4q-199 0 -199 184v105q0 41 41 41h27q41 0 41 -41v-88q0 -54 20.5 -78.5t69.5 -24.5t71.5 25t22.5 78v196q0 88 -78 88q-55 0 -92 -47q-17 -20 -41 -14l-43 10
q-35 11 -35 45v357q0 41 41 41h307q41 0 41 -41v-19zM874 1401q11 33 46 33h10q23 0 32 -12.5t1 -32.5l-494 -1356q-11 -33 -45 -33h-10q-23 0 -32 12.5t-1 32.5zM1059 877q93 0 138.5 -51t45.5 -140v-104q0 -107 -76 -133q76 -34 76 -146v-125q0 -89 -45.5 -139.5
t-138.5 -50.5h-39q-93 0 -139.5 51t-46.5 139v125q0 113 79 146q-79 26 -79 133v104q0 88 46.5 139.5t139.5 51.5h39zM1133 580v90q0 106 -82 106h-23q-84 0 -84 -106v-90q0 -84 84 -84h23q41 0 61.5 19.5t20.5 64.5zM1133 195v118q0 45 -20.5 64.5t-61.5 19.5h-23
q-84 0 -84 -84v-118q0 -107 84 -107h23q82 0 82 107z" />
    <glyph glyph-name="seveneighths" unicode="&#x215e;" horiz-adv-x="1189" 
d="M461 1370q0 -31 -6 -51l-199 -719q-8 -35 -45 -35h-29q-21 0 -29.5 12t-2.5 33l204 723h-219q-41 0 -41 41v19q0 41 41 41h285q41 0 41 -41v-23zM727 1401q11 33 45 33h10q23 0 32 -12.5t1 -32.5l-493 -1356q-11 -33 -46 -33h-10q-23 0 -32 12.5t-1 32.5zM911 877
q93 0 139 -51t46 -140v-104q0 -107 -76 -133q76 -34 76 -146v-125q0 -88 -46 -139t-139 -51h-39q-93 0 -139.5 51t-46.5 139v125q0 113 80 146q-80 26 -80 133v104q0 88 46.5 139.5t139.5 51.5h39zM985 580v90q0 106 -82 106h-22q-84 0 -84 -106v-90q0 -84 84 -84h22
q41 0 61.5 19.5t20.5 64.5zM985 195v118q0 45 -20.5 64.5t-61.5 19.5h-22q-84 0 -84 -84v-118q0 -107 84 -107h22q82 0 82 107z" />
    <glyph glyph-name="minus" unicode="&#x2212;" horiz-adv-x="860" 
d="M698 791q26 0 41 -14.5t15 -39.5v-10q0 -53 -56 -53h-536q-56 0 -56 53v10q0 25 15 39.5t41 14.5h536z" />
    <glyph glyph-name="notequal" unicode="&#x2260;" horiz-adv-x="860" 
d="M698 844h-186l-72 -221h258q26 0 41 -15t15 -41v-8q0 -26 -15 -40.5t-41 -14.5h-297l-94 -291q-11 -35 -49 -35h-2q-23 0 -33 13.5t-2 35.5l90 277h-149q-26 0 -41 14.5t-15 40.5v8q0 26 15 41t41 15h186l72 221h-258q-26 0 -41 14.5t-15 40.5v8q0 26 15 41t41 15h297
l94 290q11 35 49 35h2q23 0 33 -13.5t2 -35.5l-90 -276h149q26 0 41 -15t15 -41v-8q0 -26 -15 -40.5t-41 -14.5z" />
    <glyph glyph-name="A.ss01" 
d="M463 1450q165 0 248.5 -73.5t83.5 -229.5v-1094q0 -53 -54 -53h-39q-55 0 -55 53v465h-377v-465q0 -53 -55 -53h-39q-53 0 -53 53v1094q0 156 83.5 229.5t248.5 73.5h8zM270 651h377v459q0 113 -42.5 160t-145.5 47t-146 -47t-43 -160v-459z" />
    <glyph glyph-name="Aacute.ss01" 
d="M457 1546q-31 0 -41 17t4 45l88 166q20 36 63 36h56q34 0 43 -19.5t-13 -45.5l-133 -170q-23 -29 -61 -29h-6zM463 1450q165 0 248.5 -73.5t83.5 -229.5v-1094q0 -53 -54 -53h-39q-55 0 -55 53v465h-377v-465q0 -53 -55 -53h-39q-53 0 -53 53v1094q0 156 83.5 229.5
t248.5 73.5h8zM270 651h377v459q0 113 -42.5 160t-145.5 47t-146 -47t-43 -160v-459z" />
    <glyph glyph-name="Abreve.ss01" 
d="M446 1544q-93 0 -146.5 41t-53.5 121v37q0 49 49 49h16q51 0 51 -49v-14q0 -84 93 -84h8q92 0 92 84v14q0 49 51 49h17q49 0 49 -49v-39q0 -78 -54 -119t-147 -41h-25zM463 1450q165 0 248.5 -73.5t83.5 -229.5v-1094q0 -53 -54 -53h-39q-55 0 -55 53v465h-377v-465
q0 -53 -55 -53h-39q-53 0 -53 53v1094q0 156 83.5 229.5t248.5 73.5h8zM270 651h377v459q0 113 -42.5 160t-145.5 47t-146 -47t-43 -160v-459z" />
    <glyph glyph-name="Acircumflex.ss01" 
d="M283 1546q-28 0 -36 20t11 46l113 164q19 34 63 34h49q45 0 64 -34l112 -164q19 -26 11.5 -46t-35.5 -20h-27q-42 0 -61 37l-88 129l-88 -129q-19 -37 -62 -37h-26zM463 1450q165 0 248.5 -73.5t83.5 -229.5v-1094q0 -53 -54 -53h-39q-55 0 -55 53v465h-377v-465
q0 -53 -55 -53h-39q-53 0 -53 53v1094q0 156 83.5 229.5t248.5 73.5h8zM270 651h377v459q0 113 -42.5 160t-145.5 47t-146 -47t-43 -160v-459z" />
    <glyph glyph-name="Adieresis.ss01" 
d="M293 1546q-53 0 -53 53v64q0 55 53 55h39q53 0 53 -55v-64q0 -53 -53 -53h-39zM586 1546q-54 0 -54 53v64q0 55 54 55h39q53 0 53 -55v-64q0 -53 -53 -53h-39zM463 1450q165 0 248.5 -73.5t83.5 -229.5v-1094q0 -53 -54 -53h-39q-55 0 -55 53v465h-377v-465
q0 -53 -55 -53h-39q-53 0 -53 53v1094q0 156 83.5 229.5t248.5 73.5h8zM270 651h377v459q0 113 -42.5 160t-145.5 47t-146 -47t-43 -160v-459z" />
    <glyph glyph-name="Agrave.ss01" 
d="M395 1575l-133 170q-22 26 -12.5 45.5t43.5 19.5h55q45 0 64 -36l88 -166q14 -28 7 -45t-32 -17h-18q-39 0 -62 29zM463 1450q165 0 248.5 -73.5t83.5 -229.5v-1094q0 -53 -54 -53h-39q-55 0 -55 53v465h-377v-465q0 -53 -55 -53h-39q-53 0 -53 53v1094q0 156 83.5 229.5
t248.5 73.5h8zM270 651h377v459q0 113 -42.5 160t-145.5 47t-146 -47t-43 -160v-459z" />
    <glyph glyph-name="Amacron.ss01" 
d="M281 1546q-54 0 -54 53v15q0 55 54 55h356q53 0 53 -55v-15q0 -53 -53 -53h-356zM463 1450q165 0 248.5 -73.5t83.5 -229.5v-1094q0 -53 -54 -53h-39q-55 0 -55 53v465h-377v-465q0 -53 -55 -53h-39q-53 0 -53 53v1094q0 156 83.5 229.5t248.5 73.5h8zM270 651h377v459
q0 113 -42.5 160t-145.5 47t-146 -47t-43 -160v-459z" />
    <glyph glyph-name="Aogonek.ss01" 
d="M463 1450q165 0 248.5 -73.5t83.5 -229.5v-1094q0 -53 -54 -53q-64 -30 -88.5 -81t-5.5 -89.5t68 -38.5q12 0 18 2q37 9 37 -18v-19q0 -28 -18 -41q-37 -22 -84 -22q-59 0 -97 36.5t-44.5 87t26 109t102.5 97.5q-8 11 -8 30v465h-377v-465q0 -53 -55 -53h-39
q-53 0 -53 53v1094q0 156 83.5 229.5t248.5 73.5h8zM270 651h377v459q0 113 -42.5 160t-145.5 47t-146 -47t-43 -160v-459z" />
    <glyph glyph-name="Aring.ss01" 
d="M459 1534q-78 0 -125 43t-47 115t47 114.5t125 42.5q77 0 123.5 -42.5t46.5 -114.5t-46.5 -115t-123.5 -43zM459 1772q-37 0 -59.5 -21t-22.5 -59t22.5 -59t59.5 -21q36 0 58 20.5t22 59.5t-22 59.5t-58 20.5zM463 1450q165 0 248.5 -73.5t83.5 -229.5v-1094
q0 -53 -54 -53h-39q-55 0 -55 53v465h-377v-465q0 -53 -55 -53h-39q-53 0 -53 53v1094q0 156 83.5 229.5t248.5 73.5h8zM270 651h377v459q0 113 -42.5 160t-145.5 47t-146 -47t-43 -160v-459z" />
    <glyph glyph-name="Aringacute.ss01" 
d="M430 1898q-31 0 -41 17t4 45l88 166q21 37 64 37h55q34 0 43.5 -20t-12.5 -46l-133 -170q-23 -29 -62 -29h-6zM459 1534q-78 0 -125 43t-47 115t47 114.5t125 42.5q77 0 123.5 -42.5t46.5 -114.5t-46.5 -115t-123.5 -43zM459 1772q-37 0 -59.5 -21t-22.5 -59t22.5 -59
t59.5 -21q36 0 58 20.5t22 59.5t-22 59.5t-58 20.5zM463 1450q165 0 248.5 -73.5t83.5 -229.5v-1094q0 -53 -54 -53h-39q-55 0 -55 53v465h-377v-465q0 -53 -55 -53h-39q-53 0 -53 53v1094q0 156 83.5 229.5t248.5 73.5h8zM270 651h377v459q0 113 -42.5 160t-145.5 47
t-146 -47t-43 -160v-459z" />
    <glyph glyph-name="Atilde.ss01" 
d="M203 1554q-45 0 -45 45q0 96 48.5 145.5t119.5 49.5q42 0 81 -21t63.5 -46.5t54.5 -46.5t57 -21q67 0 67 90q0 37 45 37h21q45 0 45 -47q0 -96 -46 -145.5t-116 -49.5q-42 0 -81.5 21t-65 46.5t-57.5 46.5t-60 21q-68 0 -68 -90q0 -35 -45 -35h-18zM463 1450
q165 0 248.5 -73.5t83.5 -229.5v-1094q0 -53 -54 -53h-39q-55 0 -55 53v465h-377v-465q0 -53 -55 -53h-39q-53 0 -53 53v1094q0 156 83.5 229.5t248.5 73.5h8zM270 651h377v459q0 113 -42.5 160t-145.5 47t-146 -47t-43 -160v-459z" />
    <glyph glyph-name="AE.ss01" horiz-adv-x="1269" 
d="M1155 133q53 0 53 -53v-27q0 -53 -53 -53h-479q-53 0 -53 53v455h-353v-455q0 -53 -55 -53h-39q-53 0 -53 53v1077q0 156 83.5 230t248.5 74h694q53 0 53 -54v-26q0 -54 -53 -54h-379v-507h315q54 0 54 -54v-24q0 -53 -54 -53h-315v-529h385zM270 639h353v661h-164
q-103 0 -146 -47t-43 -159v-455z" />
    <glyph glyph-name="AEacute.ss01" horiz-adv-x="1269" 
d="M702 1546q-30 0 -40 17t4 45l88 166q20 36 63 36h55q34 0 43.5 -19.5t-12.5 -45.5l-133 -170q-23 -29 -61 -29h-7zM1155 133q53 0 53 -53v-27q0 -53 -53 -53h-479q-53 0 -53 53v455h-353v-455q0 -53 -55 -53h-39q-53 0 -53 53v1077q0 156 83.5 230t248.5 74h694
q53 0 53 -54v-26q0 -54 -53 -54h-379v-507h315q54 0 54 -54v-24q0 -53 -54 -53h-315v-529h385zM270 639h353v661h-164q-103 0 -146 -47t-43 -159v-455z" />
    <glyph glyph-name="G.ss01" horiz-adv-x="925" 
d="M807 1008q0 -54 -53 -54h-39q-56 0 -56 54v102q0 111 -46 159t-150 48t-150.5 -48t-46.5 -159v-786q0 -111 46.5 -159t150.5 -48t150 48t46 159v264h-151q-53 0 -53 55v23q0 53 53 53h246q53 0 53 -53v-623q0 -49 -39 -49q-41 0 -53 41l-19 74q-26 -59 -87.5 -92
t-145.5 -33h-17q-327 0 -327 303v860q0 150 86 226.5t250 76.5h16q164 0 250 -76.5t86 -226.5v-139z" />
    <glyph glyph-name="Gbreve.ss01" horiz-adv-x="925" 
d="M627 1792q49 0 49 -49v-39q0 -78 -54 -119t-147 -41h-24q-93 0 -147 41t-54 121v37q0 49 49 49h16q52 0 52 -49v-14q0 -84 92 -84h8q92 0 92 84v14q0 49 51 49h17zM807 1008q0 -54 -53 -54h-39q-56 0 -56 54v102q0 111 -46 159t-150 48t-150.5 -48t-46.5 -159v-786
q0 -111 46.5 -159t150.5 -48t150 48t46 159v264h-151q-53 0 -53 55v23q0 53 53 53h246q53 0 53 -53v-623q0 -49 -39 -49q-41 0 -53 41l-19 74q-26 -59 -87.5 -92t-145.5 -33h-17q-327 0 -327 303v860q0 150 86 226.5t250 76.5h16q164 0 250 -76.5t86 -226.5v-139z" />
    <glyph glyph-name="Gcommaaccent.ss01" horiz-adv-x="925" 
d="M807 1008q0 -54 -53 -54h-39q-56 0 -56 54v102q0 111 -46 159t-150 48t-150.5 -48t-46.5 -159v-786q0 -111 46.5 -159t150.5 -48t150 48t46 159v264h-151q-53 0 -53 55v23q0 53 53 53h246q53 0 53 -53v-623q0 -49 -39 -49q-41 0 -53 41l-19 74q-26 -59 -87.5 -92
t-145.5 -33h-17q-327 0 -327 303v860q0 150 86 226.5t250 76.5h16q164 0 250 -76.5t86 -226.5v-139zM483 -143q54 0 54 -54v-82q0 -135 -62 -256q-23 -42 -55 -28q-27 14 -6 63q38 83 41 174h-17q-53 0 -53 54v75q0 54 53 54h45z" />
    <glyph glyph-name="Gdotaccent.ss01" horiz-adv-x="925" 
d="M483 1718q25 0 39.5 -14.5t14.5 -40.5v-64q0 -53 -54 -53h-41q-53 0 -53 53v64q0 26 14 40.5t39 14.5h41zM807 1008q0 -54 -53 -54h-39q-56 0 -56 54v102q0 111 -46 159t-150 48t-150.5 -48t-46.5 -159v-786q0 -111 46.5 -159t150.5 -48t150 48t46 159v264h-151
q-53 0 -53 55v23q0 53 53 53h246q53 0 53 -53v-623q0 -49 -39 -49q-41 0 -53 41l-19 74q-26 -59 -87.5 -92t-145.5 -33h-17q-327 0 -327 303v860q0 150 86 226.5t250 76.5h16q164 0 250 -76.5t86 -226.5v-139z" />
    <glyph glyph-name="M.ss01" horiz-adv-x="1411" 
d="M1016 1450q126 0 199 -75t73 -226v-1096q0 -53 -53 -53h-41q-53 0 -53 53v1049q0 215 -162 215q-88 0 -143.5 -58t-55.5 -157v-1049q0 -53 -53 -53h-41q-53 0 -53 53v1049q0 215 -160 215q-89 0 -144 -57.5t-55 -157.5v-1049q0 -53 -55 -53h-39q-53 0 -53 53v1327
q0 54 53 54h39q55 0 55 -54v-69q74 139 236 139q190 0 250 -162q73 162 256 162z" />
    <glyph glyph-name="N.ss01" horiz-adv-x="921" 
d="M799 53q0 -53 -54 -53h-38q-56 0 -56 53v1049q0 215 -168 215q-91 0 -150 -56.5t-59 -158.5v-1049q0 -53 -55 -53h-39q-53 0 -53 53v1327q0 54 53 54h39q55 0 55 -54v-69q74 139 248 139q128 0 202.5 -75t74.5 -226v-1096z" />
    <glyph glyph-name="Nacute.ss01" horiz-adv-x="921" 
d="M512 1774q20 36 63 36h56q34 0 43.5 -19.5t-12.5 -45.5l-134 -170q-23 -29 -61 -29h-6q-31 0 -41 17t4 45zM799 53q0 -53 -54 -53h-38q-56 0 -56 53v1049q0 215 -168 215q-91 0 -150 -56.5t-59 -158.5v-1049q0 -53 -55 -53h-39q-53 0 -53 53v1327q0 54 53 54h39
q55 0 55 -54v-69q74 139 248 139q128 0 202.5 -75t74.5 -226v-1096z" />
    <glyph glyph-name="Ncaron.ss01" horiz-adv-x="921" 
d="M666 1747q17 26 9 44.5t-36 18.5h-25q-44 0 -63 -36l-88 -129l-86 129q-19 36 -64 36h-16q-32 0 -42 -18.5t7 -44.5l113 -164q22 -37 63 -37h51q42 0 64 37zM799 53q0 -53 -54 -53h-38q-56 0 -56 53v1049q0 215 -168 215q-91 0 -150 -56.5t-59 -158.5v-1049
q0 -53 -55 -53h-39q-53 0 -53 53v1327q0 54 53 54h39q55 0 55 -54v-69q74 139 248 139q128 0 202.5 -75t74.5 -226v-1096z" />
    <glyph glyph-name="Ncommaaccent.ss01" horiz-adv-x="921" 
d="M799 53q0 -53 -54 -53h-38q-56 0 -56 53v1049q0 215 -168 215q-91 0 -150 -56.5t-59 -158.5v-1049q0 -53 -55 -53h-39q-53 0 -53 53v1327q0 54 53 54h39q55 0 55 -54v-69q74 139 248 139q128 0 202.5 -75t74.5 -226v-1096zM483 -143q54 0 54 -54v-82q0 -135 -62 -256
q-23 -42 -55 -28q-27 14 -6 63q38 83 41 174h-17q-53 0 -53 54v75q0 54 53 54h45z" />
    <glyph glyph-name="Eng.ss01" horiz-adv-x="921" 
d="M522 1450q128 0 202.5 -75t74.5 -226v-1143q0 -303 -328 -303h-8q-53 0 -53 53v25q0 53 53 53h4q95 0 139.5 48.5t44.5 160.5v1059q0 215 -168 215q-91 0 -150 -56.5t-59 -158.5v-1049q0 -53 -55 -53h-39q-53 0 -53 53v1327q0 54 53 54h39q55 0 55 -54v-69
q74 139 248 139z" />
    <glyph glyph-name="Ntilde.ss01" horiz-adv-x="921" 
d="M270 1589q0 90 68 90q28 0 60 -21t57.5 -46.5t65 -46.5t81.5 -21q70 0 116 49.5t46 145.5q0 47 -45 47h-21q-45 0 -45 -37q0 -90 -67 -90q-27 0 -57 21t-54.5 46.5t-63.5 46.5t-81 21q-71 0 -119.5 -49.5t-48.5 -145.5q0 -45 45 -45h18q45 0 45 35zM799 53q0 -53 -54 -53
h-38q-56 0 -56 53v1049q0 215 -168 215q-91 0 -150 -56.5t-59 -158.5v-1049q0 -53 -55 -53h-39q-53 0 -53 53v1327q0 54 53 54h39q55 0 55 -54v-69q74 139 248 139q128 0 202.5 -75t74.5 -226v-1096z" />
    <glyph glyph-name="Q.ss01" horiz-adv-x="925" 
d="M471 1450q336 0 336 -303v-860q0 -276 -279 -301q-1 -64 35.5 -94.5t98.5 -18.5q27 3 42.5 -5.5t22.5 -33.5q13 -55 -39 -67q-48 -13 -89.5 -10t-74.5 16t-56 36.5t-35.5 51t-12.5 60t14 63.5q-315 9 -315 303v860q0 303 336 303h16zM659 324v786q0 111 -46 159t-150 48
t-150.5 -48t-46.5 -159v-786q0 -111 46.5 -159t150.5 -48t150 48t46 159z" />
    <glyph glyph-name="R.ss01" horiz-adv-x="915" 
d="M801 1130v-223q0 -84 -49.5 -146.5t-130.5 -72.5q88 -13 134 -71.5t46 -129.5v-297q0 -111 33 -139l7.5 -7.5l7 -7t4.5 -5.5t4 -7.5t1 -7.5q0 -18 -35 -18h-53q-117 0 -117 192v269q0 90 -47.5 123.5t-148.5 33.5h-183v-563q0 -53 -55 -53h-39q-53 0 -53 53v1327
q0 54 53 54h285q165 0 250.5 -76t85.5 -228zM274 750h183q196 0 196 180v164q0 111 -46 158.5t-150 47.5h-183v-550z" />
    <glyph glyph-name="Racute.ss01" horiz-adv-x="915" 
d="M483 1774q20 36 64 36h55q34 0 43.5 -19.5t-12.5 -45.5l-133 -170q-23 -29 -62 -29h-6q-31 0 -41 17t4 45zM801 1130v-223q0 -84 -49.5 -146.5t-130.5 -72.5q88 -13 134 -71.5t46 -129.5v-297q0 -111 33 -139l7.5 -7.5l7 -7t4.5 -5.5t4 -7.5t1 -7.5q0 -18 -35 -18h-53
q-117 0 -117 192v269q0 90 -47.5 123.5t-148.5 33.5h-183v-563q0 -53 -55 -53h-39q-53 0 -53 53v1327q0 54 53 54h285q165 0 250.5 -76t85.5 -228zM274 750h183q196 0 196 180v164q0 111 -46 158.5t-150 47.5h-183v-550z" />
    <glyph glyph-name="Rcaron.ss01" horiz-adv-x="915" 
d="M637 1747q17 26 9 44.5t-36 18.5h-24q-45 0 -64 -36l-88 -129l-86 129q-19 36 -63 36h-17q-32 0 -42 -18.5t7 -44.5l113 -164q22 -37 64 -37h51q41 0 63 37zM801 1130v-223q0 -84 -49.5 -146.5t-130.5 -72.5q88 -13 134 -71.5t46 -129.5v-297q0 -111 33 -139l7.5 -7.5
l7 -7t4.5 -5.5t4 -7.5t1 -7.5q0 -18 -35 -18h-53q-117 0 -117 192v269q0 90 -47.5 123.5t-148.5 33.5h-183v-563q0 -53 -55 -53h-39q-53 0 -53 53v1327q0 54 53 54h285q165 0 250.5 -76t85.5 -228zM274 750h183q196 0 196 180v164q0 111 -46 158.5t-150 47.5h-183v-550z" />
    <glyph glyph-name="Rcommaaccent.ss01" horiz-adv-x="915" 
d="M801 1130v-223q0 -84 -49.5 -146.5t-130.5 -72.5q88 -13 134 -71.5t46 -129.5v-297q0 -111 33 -139l7.5 -7.5l7 -7t4.5 -5.5t4 -7.5t1 -7.5q0 -18 -35 -18h-53q-117 0 -117 192v269q0 90 -47.5 123.5t-148.5 33.5h-183v-563q0 -53 -55 -53h-39q-53 0 -53 53v1327
q0 54 53 54h285q165 0 250.5 -76t85.5 -228zM274 750h183q196 0 196 180v164q0 111 -46 158.5t-150 47.5h-183v-550zM506 -143q53 0 53 -54v-82q0 -137 -61 -256q-23 -42 -56 -28q-27 14 -6 63q38 83 41 174h-16q-53 0 -53 54v75q0 54 53 54h45z" />
    <glyph glyph-name="W.ss01" horiz-adv-x="1406" 
d="M1137 1380q0 54 53 54h41q53 0 53 -54v-1079q0 -81 -26 -143t-72 -99.5t-102.5 -56t-122.5 -18.5q-86 0 -155 34t-104 107q-36 -73 -105 -107t-151 -34q-140 0 -231.5 77t-91.5 226v1093q0 54 53 54h39q55 0 55 -54v-1046q0 -113 48 -165t131 -52q180 0 180 217v1046
q0 54 53 54h41q53 0 53 -54v-1046q0 -217 180 -217q181 0 181 217v1046z" />
    <glyph glyph-name="Wacute.ss01" horiz-adv-x="1406" 
d="M752 1774q20 36 63 36h55q34 0 43.5 -19.5t-12.5 -45.5l-133 -170q-23 -29 -61 -29h-7q-30 0 -40 17t4 45zM1137 1380q0 54 53 54h41q53 0 53 -54v-1079q0 -81 -26 -143t-72 -99.5t-102.5 -56t-122.5 -18.5q-86 0 -155 34t-104 107q-36 -73 -105 -107t-151 -34
q-140 0 -231.5 77t-91.5 226v1093q0 54 53 54h39q55 0 55 -54v-1046q0 -113 48 -165t131 -52q180 0 180 217v1046q0 54 53 54h41q53 0 53 -54v-1046q0 -217 180 -217q181 0 181 217v1046z" />
    <glyph glyph-name="Wcircumflex.ss01" horiz-adv-x="1406" 
d="M879 1546q28 0 35.5 20t-11.5 46l-112 164q-19 34 -64 34h-49q-45 0 -64 -34l-112 -164q-19 -26 -11.5 -46t35.5 -20h27q42 0 61 37l88 129l89 -129q19 -37 61 -37h27zM1137 1380q0 54 53 54h41q53 0 53 -54v-1079q0 -81 -26 -143t-72 -99.5t-102.5 -56t-122.5 -18.5
q-86 0 -155 34t-104 107q-36 -73 -105 -107t-151 -34q-140 0 -231.5 77t-91.5 226v1093q0 54 53 54h39q55 0 55 -54v-1046q0 -113 48 -165t131 -52q180 0 180 217v1046q0 54 53 54h41q53 0 53 -54v-1046q0 -217 180 -217q181 0 181 217v1046z" />
    <glyph glyph-name="Wdieresis.ss01" horiz-adv-x="1406" 
d="M575 1718q54 0 54 -55v-64q0 -53 -54 -53h-38q-54 0 -54 53v64q0 55 54 55h38zM868 1718q54 0 54 -55v-64q0 -53 -54 -53h-39q-53 0 -53 53v64q0 55 53 55h39zM1137 1380q0 54 53 54h41q53 0 53 -54v-1079q0 -81 -26 -143t-72 -99.5t-102.5 -56t-122.5 -18.5
q-86 0 -155 34t-104 107q-36 -73 -105 -107t-151 -34q-140 0 -231.5 77t-91.5 226v1093q0 54 53 54h39q55 0 55 -54v-1046q0 -113 48 -165t131 -52q180 0 180 217v1046q0 54 53 54h41q53 0 53 -54v-1046q0 -217 180 -217q181 0 181 217v1046z" />
    <glyph glyph-name="Wgrave.ss01" horiz-adv-x="1406" 
d="M592 1810q44 0 63 -36l88 -166q14 -28 7.5 -45t-31.5 -17h-19q-38 0 -61 29l-133 170q-22 26 -12.5 45.5t43.5 19.5h55zM1137 1380q0 54 53 54h41q53 0 53 -54v-1079q0 -81 -26 -143t-72 -99.5t-102.5 -56t-122.5 -18.5q-86 0 -155 34t-104 107q-36 -73 -105 -107
t-151 -34q-140 0 -231.5 77t-91.5 226v1093q0 54 53 54h39q55 0 55 -54v-1046q0 -113 48 -165t131 -52q180 0 180 217v1046q0 54 53 54h41q53 0 53 -54v-1046q0 -217 180 -217q181 0 181 217v1046z" />
    <glyph glyph-name="Y.ss01" horiz-adv-x="913" 
d="M643 1380q0 54 55 54h39q54 0 54 -54v-1093q0 -303 -332 -303h-8q-165 0 -248.5 73.5t-83.5 229.5v84q0 53 53 53h39q55 0 55 -53v-47q0 -113 43 -160t146 -47t145.5 47t42.5 160v389q-75 -142 -248 -142q-128 0 -202 75.5t-74 227.5v506q0 54 53 54h39q55 0 55 -54v-458
q0 -217 168 -217q91 0 150 57.5t59 159.5v458z" />
    <glyph glyph-name="Yacute.ss01" horiz-adv-x="913" 
d="M504 1774q20 36 63 36h56q34 0 43 -19.5t-13 -45.5l-133 -170q-23 -29 -61 -29h-6q-31 0 -41 17t4 45zM643 1380q0 54 55 54h39q54 0 54 -54v-1093q0 -303 -332 -303h-8q-165 0 -248.5 73.5t-83.5 229.5v84q0 53 53 53h39q55 0 55 -53v-47q0 -113 43 -160t146 -47
t145.5 47t42.5 160v389q-75 -142 -248 -142q-128 0 -202 75.5t-74 227.5v506q0 54 53 54h39q55 0 55 -54v-458q0 -217 168 -217q91 0 150 57.5t59 159.5v458z" />
    <glyph glyph-name="Ycircumflex.ss01" horiz-adv-x="913" 
d="M631 1546q28 0 35.5 20t-11.5 46l-112 164q-19 34 -64 34h-49q-44 0 -63 -34l-113 -164q-19 -26 -11 -46t36 -20h26q43 0 62 37l88 129l88 -129q19 -37 61 -37h27zM643 1380q0 54 55 54h39q54 0 54 -54v-1093q0 -303 -332 -303h-8q-165 0 -248.5 73.5t-83.5 229.5v84
q0 53 53 53h39q55 0 55 -53v-47q0 -113 43 -160t146 -47t145.5 47t42.5 160v389q-75 -142 -248 -142q-128 0 -202 75.5t-74 227.5v506q0 54 53 54h39q55 0 55 -54v-458q0 -217 168 -217q91 0 150 57.5t59 159.5v458z" />
    <glyph glyph-name="Ydieresis.ss01" horiz-adv-x="913" 
d="M328 1718q53 0 53 -55v-64q0 -53 -53 -53h-39q-53 0 -53 53v64q0 55 53 55h39zM621 1718q53 0 53 -55v-64q0 -53 -53 -53h-39q-54 0 -54 53v64q0 55 54 55h39zM643 1380q0 54 55 54h39q54 0 54 -54v-1093q0 -303 -332 -303h-8q-165 0 -248.5 73.5t-83.5 229.5v84
q0 53 53 53h39q55 0 55 -53v-47q0 -113 43 -160t146 -47t145.5 47t42.5 160v389q-75 -142 -248 -142q-128 0 -202 75.5t-74 227.5v506q0 54 53 54h39q55 0 55 -54v-458q0 -217 168 -217q91 0 150 57.5t59 159.5v458z" />
    <glyph glyph-name="Ygrave.ss01" horiz-adv-x="913" 
d="M344 1810q45 0 64 -36l88 -166q14 -28 7 -45t-32 -17h-18q-39 0 -62 29l-133 170q-22 26 -12.5 45.5t43.5 19.5h55zM643 1380q0 54 55 54h39q54 0 54 -54v-1093q0 -303 -332 -303h-8q-165 0 -248.5 73.5t-83.5 229.5v84q0 53 53 53h39q55 0 55 -53v-47q0 -113 43 -160
t146 -47t145.5 47t42.5 160v389q-75 -142 -248 -142q-128 0 -202 75.5t-74 227.5v506q0 54 53 54h39q55 0 55 -54v-458q0 -217 168 -217q91 0 150 57.5t59 159.5v458z" />
    <glyph glyph-name="i.loclTRK" horiz-adv-x="415" 
d="M229 1718q25 0 39.5 -14.5t14.5 -40.5v-64q0 -53 -54 -53h-41q-53 0 -53 53v64q0 26 14 40.5t39 14.5h41zM283 53q0 -53 -56 -53h-39q-53 0 -53 53v1327q0 54 53 54h39q56 0 56 -54v-1327z" />
    <glyph glyph-name="a.ss01" 
d="M463 1450q165 0 248.5 -73.5t83.5 -229.5v-1094q0 -53 -54 -53h-39q-55 0 -55 53v465h-377v-465q0 -53 -55 -53h-39q-53 0 -53 53v1094q0 156 83.5 229.5t248.5 73.5h8zM270 651h377v459q0 113 -42.5 160t-145.5 47t-146 -47t-43 -160v-459z" />
    <glyph glyph-name="aacute.ss01" 
d="M457 1546q-31 0 -41 17t4 45l88 166q20 36 63 36h56q34 0 43 -19.5t-13 -45.5l-133 -170q-23 -29 -61 -29h-6zM463 1450q165 0 248.5 -73.5t83.5 -229.5v-1094q0 -53 -54 -53h-39q-55 0 -55 53v465h-377v-465q0 -53 -55 -53h-39q-53 0 -53 53v1094q0 156 83.5 229.5
t248.5 73.5h8zM270 651h377v459q0 113 -42.5 160t-145.5 47t-146 -47t-43 -160v-459z" />
    <glyph glyph-name="abreve.ss01" 
d="M446 1544q-93 0 -146.5 41t-53.5 121v37q0 49 49 49h16q51 0 51 -49v-14q0 -84 93 -84h8q92 0 92 84v14q0 49 51 49h17q49 0 49 -49v-39q0 -78 -54 -119t-147 -41h-25zM463 1450q165 0 248.5 -73.5t83.5 -229.5v-1094q0 -53 -54 -53h-39q-55 0 -55 53v465h-377v-465
q0 -53 -55 -53h-39q-53 0 -53 53v1094q0 156 83.5 229.5t248.5 73.5h8zM270 651h377v459q0 113 -42.5 160t-145.5 47t-146 -47t-43 -160v-459z" />
    <glyph glyph-name="acircumflex.ss01" 
d="M283 1546q-28 0 -36 20t11 46l113 164q19 34 63 34h49q45 0 64 -34l112 -164q19 -26 11.5 -46t-35.5 -20h-27q-42 0 -61 37l-88 129l-88 -129q-19 -37 -62 -37h-26zM463 1450q165 0 248.5 -73.5t83.5 -229.5v-1094q0 -53 -54 -53h-39q-55 0 -55 53v465h-377v-465
q0 -53 -55 -53h-39q-53 0 -53 53v1094q0 156 83.5 229.5t248.5 73.5h8zM270 651h377v459q0 113 -42.5 160t-145.5 47t-146 -47t-43 -160v-459z" />
    <glyph glyph-name="adieresis.ss01" 
d="M293 1546q-53 0 -53 53v64q0 55 53 55h39q53 0 53 -55v-64q0 -53 -53 -53h-39zM586 1546q-54 0 -54 53v64q0 55 54 55h39q53 0 53 -55v-64q0 -53 -53 -53h-39zM463 1450q165 0 248.5 -73.5t83.5 -229.5v-1094q0 -53 -54 -53h-39q-55 0 -55 53v465h-377v-465
q0 -53 -55 -53h-39q-53 0 -53 53v1094q0 156 83.5 229.5t248.5 73.5h8zM270 651h377v459q0 113 -42.5 160t-145.5 47t-146 -47t-43 -160v-459z" />
    <glyph glyph-name="agrave.ss01" 
d="M395 1575l-133 170q-22 26 -12.5 45.5t43.5 19.5h55q45 0 64 -36l88 -166q14 -28 7 -45t-32 -17h-18q-39 0 -62 29zM463 1450q165 0 248.5 -73.5t83.5 -229.5v-1094q0 -53 -54 -53h-39q-55 0 -55 53v465h-377v-465q0 -53 -55 -53h-39q-53 0 -53 53v1094q0 156 83.5 229.5
t248.5 73.5h8zM270 651h377v459q0 113 -42.5 160t-145.5 47t-146 -47t-43 -160v-459z" />
    <glyph glyph-name="amacron.ss01" 
d="M281 1546q-54 0 -54 53v15q0 55 54 55h356q53 0 53 -55v-15q0 -53 -53 -53h-356zM463 1450q165 0 248.5 -73.5t83.5 -229.5v-1094q0 -53 -54 -53h-39q-55 0 -55 53v465h-377v-465q0 -53 -55 -53h-39q-53 0 -53 53v1094q0 156 83.5 229.5t248.5 73.5h8zM270 651h377v459
q0 113 -42.5 160t-145.5 47t-146 -47t-43 -160v-459z" />
    <glyph glyph-name="aogonek.ss01" 
d="M463 1450q165 0 248.5 -73.5t83.5 -229.5v-1094q0 -53 -54 -53q-64 -30 -88.5 -81t-5.5 -89.5t68 -38.5q12 0 18 2q37 9 37 -18v-19q0 -28 -18 -41q-37 -22 -84 -22q-59 0 -97 36.5t-44.5 87t26 109t102.5 97.5q-8 11 -8 30v465h-377v-465q0 -53 -55 -53h-39
q-53 0 -53 53v1094q0 156 83.5 229.5t248.5 73.5h8zM270 651h377v459q0 113 -42.5 160t-145.5 47t-146 -47t-43 -160v-459z" />
    <glyph glyph-name="aring.ss01" 
d="M459 1534q-78 0 -125 43t-47 115t47 114.5t125 42.5q77 0 123.5 -42.5t46.5 -114.5t-46.5 -115t-123.5 -43zM459 1772q-37 0 -59.5 -21t-22.5 -59t22.5 -59t59.5 -21q36 0 58 20.5t22 59.5t-22 59.5t-58 20.5zM463 1450q165 0 248.5 -73.5t83.5 -229.5v-1094
q0 -53 -54 -53h-39q-55 0 -55 53v465h-377v-465q0 -53 -55 -53h-39q-53 0 -53 53v1094q0 156 83.5 229.5t248.5 73.5h8zM270 651h377v459q0 113 -42.5 160t-145.5 47t-146 -47t-43 -160v-459z" />
    <glyph glyph-name="aringacute.ss01" 
d="M430 1898q-31 0 -41 17t4 45l88 166q21 37 64 37h55q34 0 43.5 -20t-12.5 -46l-133 -170q-23 -29 -62 -29h-6zM459 1534q-78 0 -125 43t-47 115t47 114.5t125 42.5q77 0 123.5 -42.5t46.5 -114.5t-46.5 -115t-123.5 -43zM459 1772q-37 0 -59.5 -21t-22.5 -59t22.5 -59
t59.5 -21q36 0 58 20.5t22 59.5t-22 59.5t-58 20.5zM463 1450q165 0 248.5 -73.5t83.5 -229.5v-1094q0 -53 -54 -53h-39q-55 0 -55 53v465h-377v-465q0 -53 -55 -53h-39q-53 0 -53 53v1094q0 156 83.5 229.5t248.5 73.5h8zM270 651h377v459q0 113 -42.5 160t-145.5 47
t-146 -47t-43 -160v-459z" />
    <glyph glyph-name="atilde.ss01" 
d="M203 1554q-45 0 -45 45q0 96 48.5 145.5t119.5 49.5q42 0 81 -21t63.5 -46.5t54.5 -46.5t57 -21q67 0 67 90q0 37 45 37h21q45 0 45 -47q0 -96 -46 -145.5t-116 -49.5q-42 0 -81.5 21t-65 46.5t-57.5 46.5t-60 21q-68 0 -68 -90q0 -35 -45 -35h-18zM463 1450
q165 0 248.5 -73.5t83.5 -229.5v-1094q0 -53 -54 -53h-39q-55 0 -55 53v465h-377v-465q0 -53 -55 -53h-39q-53 0 -53 53v1094q0 156 83.5 229.5t248.5 73.5h8zM270 651h377v459q0 113 -42.5 160t-145.5 47t-146 -47t-43 -160v-459z" />
    <glyph glyph-name="ae.ss01" horiz-adv-x="1269" 
d="M1155 133q53 0 53 -53v-27q0 -53 -53 -53h-479q-53 0 -53 53v455h-353v-455q0 -53 -55 -53h-39q-53 0 -53 53v1077q0 156 83.5 230t248.5 74h694q53 0 53 -54v-26q0 -54 -53 -54h-379v-507h315q54 0 54 -54v-24q0 -53 -54 -53h-315v-529h385zM270 639h353v661h-164
q-103 0 -146 -47t-43 -159v-455z" />
    <glyph glyph-name="aeacute.ss01" horiz-adv-x="1269" 
d="M702 1546q-30 0 -40 17t4 45l88 166q20 36 63 36h55q34 0 43.5 -19.5t-12.5 -45.5l-133 -170q-23 -29 -61 -29h-7zM1155 133q53 0 53 -53v-27q0 -53 -53 -53h-479q-53 0 -53 53v455h-353v-455q0 -53 -55 -53h-39q-53 0 -53 53v1077q0 156 83.5 230t248.5 74h694
q53 0 53 -54v-26q0 -54 -53 -54h-379v-507h315q54 0 54 -54v-24q0 -53 -54 -53h-315v-529h385zM270 639h353v661h-164q-103 0 -146 -47t-43 -159v-455z" />
    <glyph glyph-name="g.ss01" horiz-adv-x="925" 
d="M807 1008q0 -54 -53 -54h-39q-56 0 -56 54v102q0 111 -46 159t-150 48t-150.5 -48t-46.5 -159v-786q0 -111 46.5 -159t150.5 -48t150 48t46 159v264h-151q-53 0 -53 55v23q0 53 53 53h246q53 0 53 -53v-623q0 -49 -39 -49q-41 0 -53 41l-19 74q-26 -59 -87.5 -92
t-145.5 -33h-17q-327 0 -327 303v860q0 150 86 226.5t250 76.5h16q164 0 250 -76.5t86 -226.5v-139z" />
    <glyph glyph-name="gbreve.ss01" horiz-adv-x="925" 
d="M627 1792q49 0 49 -49v-39q0 -78 -54 -119t-147 -41h-24q-93 0 -147 41t-54 121v37q0 49 49 49h16q52 0 52 -49v-14q0 -84 92 -84h8q92 0 92 84v14q0 49 51 49h17zM807 1008q0 -54 -53 -54h-39q-56 0 -56 54v102q0 111 -46 159t-150 48t-150.5 -48t-46.5 -159v-786
q0 -111 46.5 -159t150.5 -48t150 48t46 159v264h-151q-53 0 -53 55v23q0 53 53 53h246q53 0 53 -53v-623q0 -49 -39 -49q-41 0 -53 41l-19 74q-26 -59 -87.5 -92t-145.5 -33h-17q-327 0 -327 303v860q0 150 86 226.5t250 76.5h16q164 0 250 -76.5t86 -226.5v-139z" />
    <glyph glyph-name="gcommaaccent.ss01" horiz-adv-x="925" 
d="M807 1008q0 -54 -53 -54h-39q-56 0 -56 54v102q0 111 -46 159t-150 48t-150.5 -48t-46.5 -159v-786q0 -111 46.5 -159t150.5 -48t150 48t46 159v264h-151q-53 0 -53 55v23q0 53 53 53h246q53 0 53 -53v-623q0 -49 -39 -49q-41 0 -53 41l-19 74q-26 -59 -87.5 -92
t-145.5 -33h-17q-327 0 -327 303v860q0 150 86 226.5t250 76.5h16q164 0 250 -76.5t86 -226.5v-139zM483 -143q54 0 54 -54v-82q0 -135 -62 -256q-23 -42 -55 -28q-27 14 -6 63q38 83 41 174h-17q-53 0 -53 54v75q0 54 53 54h45z" />
    <glyph glyph-name="gdotaccent.ss01" horiz-adv-x="925" 
d="M483 1718q25 0 39.5 -14.5t14.5 -40.5v-64q0 -53 -54 -53h-41q-53 0 -53 53v64q0 26 14 40.5t39 14.5h41zM807 1008q0 -54 -53 -54h-39q-56 0 -56 54v102q0 111 -46 159t-150 48t-150.5 -48t-46.5 -159v-786q0 -111 46.5 -159t150.5 -48t150 48t46 159v264h-151
q-53 0 -53 55v23q0 53 53 53h246q53 0 53 -53v-623q0 -49 -39 -49q-41 0 -53 41l-19 74q-26 -59 -87.5 -92t-145.5 -33h-17q-327 0 -327 303v860q0 150 86 226.5t250 76.5h16q164 0 250 -76.5t86 -226.5v-139z" />
    <glyph glyph-name="m.ss01" horiz-adv-x="1411" 
d="M1016 1450q126 0 199 -75t73 -226v-1096q0 -53 -53 -53h-41q-53 0 -53 53v1049q0 215 -162 215q-88 0 -143.5 -58t-55.5 -157v-1049q0 -53 -53 -53h-41q-53 0 -53 53v1049q0 215 -160 215q-89 0 -144 -57.5t-55 -157.5v-1049q0 -53 -55 -53h-39q-53 0 -53 53v1327
q0 54 53 54h39q55 0 55 -54v-69q74 139 236 139q190 0 250 -162q73 162 256 162z" />
    <glyph glyph-name="n.ss01" horiz-adv-x="921" 
d="M799 53q0 -53 -54 -53h-38q-56 0 -56 53v1049q0 215 -168 215q-91 0 -150 -56.5t-59 -158.5v-1049q0 -53 -55 -53h-39q-53 0 -53 53v1327q0 54 53 54h39q55 0 55 -54v-69q74 139 248 139q128 0 202.5 -75t74.5 -226v-1096z" />
    <glyph glyph-name="nacute.ss01" horiz-adv-x="921" 
d="M512 1774q20 36 63 36h56q34 0 43.5 -19.5t-12.5 -45.5l-134 -170q-23 -29 -61 -29h-6q-31 0 -41 17t4 45zM799 53q0 -53 -54 -53h-38q-56 0 -56 53v1049q0 215 -168 215q-91 0 -150 -56.5t-59 -158.5v-1049q0 -53 -55 -53h-39q-53 0 -53 53v1327q0 54 53 54h39
q55 0 55 -54v-69q74 139 248 139q128 0 202.5 -75t74.5 -226v-1096z" />
    <glyph glyph-name="ncaron.ss01" horiz-adv-x="921" 
d="M666 1747q17 26 9 44.5t-36 18.5h-25q-44 0 -63 -36l-88 -129l-86 129q-19 36 -64 36h-16q-32 0 -42 -18.5t7 -44.5l113 -164q22 -37 63 -37h51q42 0 64 37zM799 53q0 -53 -54 -53h-38q-56 0 -56 53v1049q0 215 -168 215q-91 0 -150 -56.5t-59 -158.5v-1049
q0 -53 -55 -53h-39q-53 0 -53 53v1327q0 54 53 54h39q55 0 55 -54v-69q74 139 248 139q128 0 202.5 -75t74.5 -226v-1096z" />
    <glyph glyph-name="ncommaaccent.ss01" horiz-adv-x="921" 
d="M799 53q0 -53 -54 -53h-38q-56 0 -56 53v1049q0 215 -168 215q-91 0 -150 -56.5t-59 -158.5v-1049q0 -53 -55 -53h-39q-53 0 -53 53v1327q0 54 53 54h39q55 0 55 -54v-69q74 139 248 139q128 0 202.5 -75t74.5 -226v-1096zM483 -143q54 0 54 -54v-82q0 -135 -62 -256
q-23 -42 -55 -28q-27 14 -6 63q38 83 41 174h-17q-53 0 -53 54v75q0 54 53 54h45z" />
    <glyph glyph-name="eng.ss01" horiz-adv-x="921" 
d="M522 1450q128 0 202.5 -75t74.5 -226v-1143q0 -303 -328 -303h-8q-53 0 -53 53v25q0 53 53 53h4q95 0 139.5 48.5t44.5 160.5v1059q0 215 -168 215q-91 0 -150 -56.5t-59 -158.5v-1049q0 -53 -55 -53h-39q-53 0 -53 53v1327q0 54 53 54h39q55 0 55 -54v-69
q74 139 248 139z" />
    <glyph glyph-name="ntilde.ss01" horiz-adv-x="921" 
d="M270 1589q0 90 68 90q28 0 60 -21t57.5 -46.5t65 -46.5t81.5 -21q70 0 116 49.5t46 145.5q0 47 -45 47h-21q-45 0 -45 -37q0 -90 -67 -90q-27 0 -57 21t-54.5 46.5t-63.5 46.5t-81 21q-71 0 -119.5 -49.5t-48.5 -145.5q0 -45 45 -45h18q45 0 45 35zM799 53q0 -53 -54 -53
h-38q-56 0 -56 53v1049q0 215 -168 215q-91 0 -150 -56.5t-59 -158.5v-1049q0 -53 -55 -53h-39q-53 0 -53 53v1327q0 54 53 54h39q55 0 55 -54v-69q74 139 248 139q128 0 202.5 -75t74.5 -226v-1096z" />
    <glyph glyph-name="q.ss01" horiz-adv-x="925" 
d="M471 1450q336 0 336 -303v-860q0 -276 -279 -301q-1 -64 35.5 -94.5t98.5 -18.5q27 3 42.5 -5.5t22.5 -33.5q13 -55 -39 -67q-48 -13 -89.5 -10t-74.5 16t-56 36.5t-35.5 51t-12.5 60t14 63.5q-315 9 -315 303v860q0 303 336 303h16zM659 324v786q0 111 -46 159t-150 48
t-150.5 -48t-46.5 -159v-786q0 -111 46.5 -159t150.5 -48t150 48t46 159z" />
    <glyph glyph-name="r.ss01" horiz-adv-x="915" 
d="M801 1130v-223q0 -84 -49.5 -146.5t-130.5 -72.5q88 -13 134 -71.5t46 -129.5v-297q0 -111 33 -139l7.5 -7.5l7 -7t4.5 -5.5t4 -7.5t1 -7.5q0 -18 -35 -18h-53q-117 0 -117 192v269q0 90 -47.5 123.5t-148.5 33.5h-183v-563q0 -53 -55 -53h-39q-53 0 -53 53v1327
q0 54 53 54h285q165 0 250.5 -76t85.5 -228zM274 750h183q196 0 196 180v164q0 111 -46 158.5t-150 47.5h-183v-550z" />
    <glyph glyph-name="racute.ss01" horiz-adv-x="915" 
d="M483 1774q20 36 64 36h55q34 0 43.5 -19.5t-12.5 -45.5l-133 -170q-23 -29 -62 -29h-6q-31 0 -41 17t4 45zM801 1130v-223q0 -84 -49.5 -146.5t-130.5 -72.5q88 -13 134 -71.5t46 -129.5v-297q0 -111 33 -139l7.5 -7.5l7 -7t4.5 -5.5t4 -7.5t1 -7.5q0 -18 -35 -18h-53
q-117 0 -117 192v269q0 90 -47.5 123.5t-148.5 33.5h-183v-563q0 -53 -55 -53h-39q-53 0 -53 53v1327q0 54 53 54h285q165 0 250.5 -76t85.5 -228zM274 750h183q196 0 196 180v164q0 111 -46 158.5t-150 47.5h-183v-550z" />
    <glyph glyph-name="rcaron.ss01" horiz-adv-x="915" 
d="M637 1747q17 26 9 44.5t-36 18.5h-24q-45 0 -64 -36l-88 -129l-86 129q-19 36 -63 36h-17q-32 0 -42 -18.5t7 -44.5l113 -164q22 -37 64 -37h51q41 0 63 37zM801 1130v-223q0 -84 -49.5 -146.5t-130.5 -72.5q88 -13 134 -71.5t46 -129.5v-297q0 -111 33 -139l7.5 -7.5
l7 -7t4.5 -5.5t4 -7.5t1 -7.5q0 -18 -35 -18h-53q-117 0 -117 192v269q0 90 -47.5 123.5t-148.5 33.5h-183v-563q0 -53 -55 -53h-39q-53 0 -53 53v1327q0 54 53 54h285q165 0 250.5 -76t85.5 -228zM274 750h183q196 0 196 180v164q0 111 -46 158.5t-150 47.5h-183v-550z" />
    <glyph glyph-name="rcommaaccent.ss01" horiz-adv-x="915" 
d="M801 1130v-223q0 -84 -49.5 -146.5t-130.5 -72.5q88 -13 134 -71.5t46 -129.5v-297q0 -111 33 -139l7.5 -7.5l7 -7t4.5 -5.5t4 -7.5t1 -7.5q0 -18 -35 -18h-53q-117 0 -117 192v269q0 90 -47.5 123.5t-148.5 33.5h-183v-563q0 -53 -55 -53h-39q-53 0 -53 53v1327
q0 54 53 54h285q165 0 250.5 -76t85.5 -228zM274 750h183q196 0 196 180v164q0 111 -46 158.5t-150 47.5h-183v-550zM506 -143q53 0 53 -54v-82q0 -137 -61 -256q-23 -42 -56 -28q-27 14 -6 63q38 83 41 174h-16q-53 0 -53 54v75q0 54 53 54h45z" />
    <glyph glyph-name="w.ss01" horiz-adv-x="1406" 
d="M1137 1380q0 54 53 54h41q53 0 53 -54v-1079q0 -81 -26 -143t-72 -99.5t-102.5 -56t-122.5 -18.5q-86 0 -155 34t-104 107q-36 -73 -105 -107t-151 -34q-140 0 -231.5 77t-91.5 226v1093q0 54 53 54h39q55 0 55 -54v-1046q0 -113 48 -165t131 -52q180 0 180 217v1046
q0 54 53 54h41q53 0 53 -54v-1046q0 -217 180 -217q181 0 181 217v1046z" />
    <glyph glyph-name="wacute.ss01" horiz-adv-x="1406" 
d="M752 1774q20 36 63 36h55q34 0 43.5 -19.5t-12.5 -45.5l-133 -170q-23 -29 -61 -29h-7q-30 0 -40 17t4 45zM1137 1380q0 54 53 54h41q53 0 53 -54v-1079q0 -81 -26 -143t-72 -99.5t-102.5 -56t-122.5 -18.5q-86 0 -155 34t-104 107q-36 -73 -105 -107t-151 -34
q-140 0 -231.5 77t-91.5 226v1093q0 54 53 54h39q55 0 55 -54v-1046q0 -113 48 -165t131 -52q180 0 180 217v1046q0 54 53 54h41q53 0 53 -54v-1046q0 -217 180 -217q181 0 181 217v1046z" />
    <glyph glyph-name="wcircumflex.ss01" horiz-adv-x="1406" 
d="M879 1546q28 0 35.5 20t-11.5 46l-112 164q-19 34 -64 34h-49q-45 0 -64 -34l-112 -164q-19 -26 -11.5 -46t35.5 -20h27q42 0 61 37l88 129l89 -129q19 -37 61 -37h27zM1137 1380q0 54 53 54h41q53 0 53 -54v-1079q0 -81 -26 -143t-72 -99.5t-102.5 -56t-122.5 -18.5
q-86 0 -155 34t-104 107q-36 -73 -105 -107t-151 -34q-140 0 -231.5 77t-91.5 226v1093q0 54 53 54h39q55 0 55 -54v-1046q0 -113 48 -165t131 -52q180 0 180 217v1046q0 54 53 54h41q53 0 53 -54v-1046q0 -217 180 -217q181 0 181 217v1046z" />
    <glyph glyph-name="wdieresis.ss01" horiz-adv-x="1406" 
d="M575 1718q54 0 54 -55v-64q0 -53 -54 -53h-38q-54 0 -54 53v64q0 55 54 55h38zM868 1718q54 0 54 -55v-64q0 -53 -54 -53h-39q-53 0 -53 53v64q0 55 53 55h39zM1137 1380q0 54 53 54h41q53 0 53 -54v-1079q0 -81 -26 -143t-72 -99.5t-102.5 -56t-122.5 -18.5
q-86 0 -155 34t-104 107q-36 -73 -105 -107t-151 -34q-140 0 -231.5 77t-91.5 226v1093q0 54 53 54h39q55 0 55 -54v-1046q0 -113 48 -165t131 -52q180 0 180 217v1046q0 54 53 54h41q53 0 53 -54v-1046q0 -217 180 -217q181 0 181 217v1046z" />
    <glyph glyph-name="wgrave.ss01" horiz-adv-x="1406" 
d="M592 1810q44 0 63 -36l88 -166q14 -28 7.5 -45t-31.5 -17h-19q-38 0 -61 29l-133 170q-22 26 -12.5 45.5t43.5 19.5h55zM1137 1380q0 54 53 54h41q53 0 53 -54v-1079q0 -81 -26 -143t-72 -99.5t-102.5 -56t-122.5 -18.5q-86 0 -155 34t-104 107q-36 -73 -105 -107
t-151 -34q-140 0 -231.5 77t-91.5 226v1093q0 54 53 54h39q55 0 55 -54v-1046q0 -113 48 -165t131 -52q180 0 180 217v1046q0 54 53 54h41q53 0 53 -54v-1046q0 -217 180 -217q181 0 181 217v1046z" />
    <glyph glyph-name="y.ss01" horiz-adv-x="913" 
d="M643 1380q0 54 55 54h39q54 0 54 -54v-1093q0 -303 -332 -303h-8q-165 0 -248.5 73.5t-83.5 229.5v84q0 53 53 53h39q55 0 55 -53v-47q0 -113 43 -160t146 -47t145.5 47t42.5 160v389q-75 -142 -248 -142q-128 0 -202 75.5t-74 227.5v506q0 54 53 54h39q55 0 55 -54v-458
q0 -217 168 -217q91 0 150 57.5t59 159.5v458z" />
    <glyph glyph-name="yacute.ss01" horiz-adv-x="913" 
d="M504 1774q20 36 63 36h56q34 0 43 -19.5t-13 -45.5l-133 -170q-23 -29 -61 -29h-6q-31 0 -41 17t4 45zM643 1380q0 54 55 54h39q54 0 54 -54v-1093q0 -303 -332 -303h-8q-165 0 -248.5 73.5t-83.5 229.5v84q0 53 53 53h39q55 0 55 -53v-47q0 -113 43 -160t146 -47
t145.5 47t42.5 160v389q-75 -142 -248 -142q-128 0 -202 75.5t-74 227.5v506q0 54 53 54h39q55 0 55 -54v-458q0 -217 168 -217q91 0 150 57.5t59 159.5v458z" />
    <glyph glyph-name="ycircumflex.ss01" horiz-adv-x="913" 
d="M631 1546q28 0 35.5 20t-11.5 46l-112 164q-19 34 -64 34h-49q-44 0 -63 -34l-113 -164q-19 -26 -11 -46t36 -20h26q43 0 62 37l88 129l88 -129q19 -37 61 -37h27zM643 1380q0 54 55 54h39q54 0 54 -54v-1093q0 -303 -332 -303h-8q-165 0 -248.5 73.5t-83.5 229.5v84
q0 53 53 53h39q55 0 55 -53v-47q0 -113 43 -160t146 -47t145.5 47t42.5 160v389q-75 -142 -248 -142q-128 0 -202 75.5t-74 227.5v506q0 54 53 54h39q55 0 55 -54v-458q0 -217 168 -217q91 0 150 57.5t59 159.5v458z" />
    <glyph glyph-name="ydieresis.ss01" horiz-adv-x="913" 
d="M328 1718q53 0 53 -55v-64q0 -53 -53 -53h-39q-53 0 -53 53v64q0 55 53 55h39zM621 1718q53 0 53 -55v-64q0 -53 -53 -53h-39q-54 0 -54 53v64q0 55 54 55h39zM643 1380q0 54 55 54h39q54 0 54 -54v-1093q0 -303 -332 -303h-8q-165 0 -248.5 73.5t-83.5 229.5v84
q0 53 53 53h39q55 0 55 -53v-47q0 -113 43 -160t146 -47t145.5 47t42.5 160v389q-75 -142 -248 -142q-128 0 -202 75.5t-74 227.5v506q0 54 53 54h39q55 0 55 -54v-458q0 -217 168 -217q91 0 150 57.5t59 159.5v458z" />
    <glyph glyph-name="ygrave.ss01" horiz-adv-x="913" 
d="M344 1810q45 0 64 -36l88 -166q14 -28 7 -45t-32 -17h-18q-39 0 -62 29l-133 170q-22 26 -12.5 45.5t43.5 19.5h55zM643 1380q0 54 55 54h39q54 0 54 -54v-1093q0 -303 -332 -303h-8q-165 0 -248.5 73.5t-83.5 229.5v84q0 53 53 53h39q55 0 55 -53v-47q0 -113 43 -160
t146 -47t145.5 47t42.5 160v389q-75 -142 -248 -142q-128 0 -202 75.5t-74 227.5v506q0 54 53 54h39q55 0 55 -54v-458q0 -217 168 -217q91 0 150 57.5t59 159.5v458z" />
    <glyph glyph-name="one.ss01" horiz-adv-x="563" 
d="M408 53q0 -53 -54 -53h-37q-53 0 -53 53v1233l-170 -76q-28 -12 -44.5 -0.5t-16.5 41.5v23q0 43 41 61l190 84q35 15 66 15h24q54 0 54 -54v-1327z" />
    <glyph glyph-name="zero.tf" horiz-adv-x="860" 
d="M438 1450q155 0 237.5 -76t82.5 -227v-860q0 -151 -82.5 -227t-237.5 -76h-16q-155 0 -237.5 76t-82.5 227v860q0 151 82.5 227t237.5 76h16zM614 1110q0 110 -45 158.5t-139 48.5t-139 -48.5t-45 -158.5v-786q0 -110 45 -158.5t139 -48.5t139 48.5t45 158.5v786z" />
    <glyph glyph-name="one.tf" horiz-adv-x="860" 
d="M700 129q54 0 54 -53v-23q0 -53 -54 -53h-520q-53 0 -53 53v23q0 53 53 53h199v1153l-191 -78q-28 -9 -44.5 1.5t-16.5 39.5v29q0 42 41 59l211 88q30 13 65 13h25q53 0 53 -54v-1251h178z" />
    <glyph glyph-name="two.tf" horiz-adv-x="860" 
d="M176 948q-53 0 -53 53v154q0 295 311 295h4q312 0 312 -295v-203q0 -22 -4.5 -43t-9 -38.5t-17.5 -38t-21 -34t-29 -35t-30.5 -32t-36.5 -33.5t-37.5 -32t-43 -35t-42.5 -35q-60 -50 -94.5 -82t-65.5 -70t-44 -74t-13 -77v-166h434q54 0 54 -53v-21q0 -53 -54 -53h-524
q-53 0 -53 53v244q0 53 15.5 102t38 86t64 80t75.5 72t91 74q51 41 72.5 58.5t54 47.5t44.5 49.5t22 46t10 54.5v163q0 193 -174 193q-85 0 -126.5 -47t-41.5 -146v-129q0 -53 -53 -53h-35z" />
    <glyph glyph-name="three.tf" horiz-adv-x="860" 
d="M743 971q0 -205 -149 -226q48 -9 80 -31t46 -53.5t18.5 -59t4.5 -62.5v-252q0 -144 -72.5 -223.5t-217.5 -79.5h-56q-145 0 -218 79.5t-73 223.5v127q0 53 54 53h37q53 0 53 -53v-103q0 -200 168 -200h14q168 0 168 200v224q0 143 -160 143h-102q-25 0 -39 14t-14 39v21
q0 25 14 39t39 14h82q93 0 136.5 37.5t43.5 126.5v153q0 201 -168 201h-18q-168 0 -168 -201v-69q0 -54 -53 -54h-33q-54 0 -54 54v94q0 154 80.5 228.5t231.5 74.5h14q311 0 311 -303v-176z" />
    <glyph glyph-name="four.tf" horiz-adv-x="860" 
d="M604 1434q53 0 53 -54v-884h97q25 0 39 -14.5t14 -39.5v-24q0 -25 -14 -39t-39 -14h-97v-312q0 -53 -53 -53h-37q-53 0 -53 53v312h-403q-54 0 -54 53v49q0 28 13 65l395 861q18 41 63 41h76zM514 1237l-334 -741h334v741z" />
    <glyph glyph-name="five.tf" horiz-adv-x="860" 
d="M739 1358q0 -53 -53 -53h-414v-465q75 94 217 94q54 0 100 -13t84.5 -41.5t60.5 -80.5t22 -123v-397q0 -295 -316 -295h-4q-315 0 -315 295v155q0 53 53 53h35q53 0 53 -53v-131q0 -99 43 -145.5t133 -46.5q88 0 131 46.5t43 145.5v346q0 90 -40.5 123t-104.5 33
q-102 0 -174 -76q-24 -31 -60 -22l-59 16q-45 12 -45 59v598q0 54 53 54h504q53 0 53 -54v-22z" />
    <glyph glyph-name="six.tf" horiz-adv-x="860" 
d="M737 1067q0 -47 -53 -47h-37q-53 0 -53 53v57q0 107 -38.5 150t-127.5 43t-127.5 -43t-38.5 -150v-344q56 86 203 86q129 0 207 -68.5t78 -203.5v-321q0 -151 -76 -223t-238 -72h-4q-162 0 -237.5 72t-75.5 223v876q0 152 73 223.5t234 71.5h4q161 0 234 -71.5t73 -223.5
v-88zM434 743q-77 0 -124.5 -42t-47.5 -128v-270q0 -106 41 -149t131 -43t131 43t41 149v270q0 170 -172 170z" />
    <glyph glyph-name="seven.tf" horiz-adv-x="860" 
d="M768 1360q0 -35 -8 -68l-410 -1249q-16 -43 -59 -43h-37q-28 0 -40 16t-3 43l407 1246h-493q-53 0 -53 53v22q0 54 53 54h590q53 0 53 -54v-20z" />
    <glyph glyph-name="eight.tf" horiz-adv-x="860" 
d="M463 1450q145 0 218 -79.5t73 -223.5v-176q0 -207 -150 -226q150 -26 150 -247v-211q0 -144 -73 -223.5t-218 -79.5h-64q-145 0 -217.5 79.5t-72.5 223.5v211q0 222 149 247q-149 18 -149 226v176q0 144 72.5 223.5t217.5 79.5h64zM610 969v153q0 103 -42.5 152
t-116.5 49h-39q-74 0 -117 -49t-43 -152v-153q0 -164 160 -164h39q159 0 159 164zM610 311v203q0 164 -159 164h-39q-160 0 -160 -164v-203q0 -103 43 -151.5t117 -48.5h39q74 0 116.5 48.5t42.5 151.5z" />
    <glyph glyph-name="nine.tf" horiz-adv-x="860" 
d="M123 367q0 47 53 47h37q53 0 53 -54v-57q0 -107 38.5 -149.5t127.5 -42.5t127.5 42.5t38.5 149.5v344q-56 -86 -203 -86q-129 0 -206.5 68.5t-77.5 204.5v321q0 151 75.5 223t237.5 72h4q162 0 237.5 -72t75.5 -223v-876q0 -152 -73 -223.5t-234 -71.5h-4
q-161 0 -234 71.5t-73 223.5v88zM426 690q77 0 124.5 42t47.5 128v270q0 106 -41 149.5t-131 43.5t-131 -43.5t-41 -149.5v-270q0 -170 172 -170z" />
    <glyph glyph-name="colon.tf" horiz-adv-x="430" 
d="M238 946q53 0 53 -53v-76q0 -53 -53 -53h-45q-54 0 -54 53v76q0 53 54 53h45zM238 182q53 0 53 -53v-76q0 -53 -53 -53h-45q-54 0 -54 53v76q0 53 54 53h45z" />
    <glyph glyph-name="comma.tf" horiz-adv-x="430" 
d="M238 182q53 0 53 -53v-82q0 -135 -62 -256q-24 -43 -55 -29q-27 14 -6 64q38 83 41 174h-16q-54 0 -54 53v76q0 53 54 53h45z" />
    <glyph glyph-name="numbersign.tf" horiz-adv-x="860" 
d="M799 1004q53 0 53 -54v-12q0 -53 -53 -53h-109l-76 -336h123q54 0 54 -53v-13q0 -53 -54 -53h-149l-88 -383q-9 -47 -58 -47h-10q-29 0 -41 15.5t-6 43.5l84 371h-209l-86 -383q-9 -47 -57 -47h-13q-57 0 -47 59l84 371h-80q-53 0 -53 53v13q0 53 53 53h109l76 336h-123
q-53 0 -53 53v12q0 54 53 54h149l88 382q9 48 58 48h10q29 0 41 -16t6 -44l-84 -370h209l86 382q9 48 57 48h13q27 0 39.5 -16t7.5 -44l-84 -370h80zM496 549l75 336h-206l-76 -336h207z" />
    <glyph glyph-name="period.tf" horiz-adv-x="430" 
d="M238 182q53 0 53 -53v-76q0 -53 -53 -53h-45q-54 0 -54 53v76q0 53 54 53h45z" />
    <glyph glyph-name="semicolon.tf" horiz-adv-x="430" 
d="M238 946q53 0 53 -53v-76q0 -53 -53 -53h-45q-54 0 -54 53v76q0 53 54 53h45zM238 182q53 0 53 -53v-82q0 -135 -62 -256q-24 -43 -55 -29q-27 14 -6 64q38 83 41 174h-16q-54 0 -54 53v76q0 53 54 53h45z" />
    <glyph glyph-name="space.tf" horiz-adv-x="430" 
 />
    <glyph glyph-name="cent.tf" horiz-adv-x="860" 
d="M678 856q-53 0 -53 53v25q0 110 -46 159.5t-147 49.5t-146.5 -49.5t-45.5 -159.5v-434q0 -110 45.5 -159.5t146.5 -49.5q100 0 146.5 52t46.5 157v59q0 53 53 53h39q53 0 53 -53v-96q0 -271 -268 -299v-111q0 -53 -53 -53h-29q-53 0 -53 53v109q-273 28 -273 301v508
q0 134 70 209.5t203 89.5v110q0 54 53 54h29q53 0 53 -54v-110q131 -14 199.5 -90t68.5 -209v-62q0 -53 -53 -53h-39z" />
    <glyph glyph-name="dollar.tf" horiz-adv-x="860" 
d="M580 731q90 -49 137 -110.5t47 -147.5v-190q0 -271 -264 -295v-94q0 -54 -54 -54h-28q-53 0 -53 54v92q-133 14 -199 86t-66 211v184q0 53 54 53h39q53 0 53 -53v-152q0 -102 44.5 -151t141.5 -49t141.5 49t44.5 151v115q0 69 -29 107t-106 81l-200 111q-99 56 -141 110
t-42 144v172q0 130 70 203.5t195 87.5v94q0 53 53 53h28q54 0 54 -53v-94q122 -15 191 -88.5t69 -202.5v-168q0 -53 -53 -53h-39q-54 0 -54 53v135q0 103 -43.5 150t-140.5 47t-140.5 -47t-43.5 -150v-100q0 -69 26 -102.5t103 -75.5z" />
    <glyph glyph-name="Euro.tf" horiz-adv-x="860" 
d="M702 897q-55 0 -55 53v160q0 110 -44.5 158.5t-145.5 48.5t-146 -48.5t-45 -158.5v-223h223q37 0 37 -37v-14q0 -37 -37 -37h-223v-131h223q37 0 37 -37v-15q0 -36 -37 -36h-223v-256q0 -110 45 -158.5t146 -48.5t145.5 48.5t44.5 158.5v194q0 53 55 53h39q54 0 54 -53
v-231q0 -303 -336 -303h-4q-336 0 -336 303v293h-64q-37 0 -37 36v15q0 37 37 37h64v131h-64q-37 0 -37 37v14q0 37 37 37h64v260q0 150 86 226.5t250 76.5h4q164 0 250 -76.5t86 -226.5v-197q0 -53 -54 -53h-39z" />
    <glyph glyph-name="florin.tf" horiz-adv-x="860" 
d="M717 1434q53 0 53 -54v-26q0 -54 -53 -54h-37q-95 0 -136.5 -47.5t-41.5 -158.5v-281h186q28 0 41 -15.5t8 -41.5l-6 -23q-9 -47 -57 -47h-172v-383q0 -303 -314 -303h-45q-53 0 -53 53v27q0 53 53 53h37q95 0 136.5 47.5t41.5 159.5v346h-186q-28 0 -41 15.5t-8 41.5
l6 23q9 47 57 47h172v317q0 304 314 304h45z" />
    <glyph glyph-name="sterling.tf" horiz-adv-x="860" 
d="M772 983q0 -53 -53 -53h-39q-55 0 -55 53v147q0 91 -29.5 139t-114.5 48t-115 -48t-30 -139v-358h199q53 0 53 -53v-14q0 -54 -53 -54h-199q0 -239 -27.5 -359t-105.5 -159h495q54 0 54 -53v-27q0 -53 -54 -53h-575q-48 0 -57 47l-11 41q-7 38 29 70q62 48 83 160.5
t21 332.5h-82q-53 0 -53 54v14q0 53 53 53h82v375q0 303 291 303h4q155 0 222 -79t67 -224v-164z" />
    <glyph glyph-name="yen.tf" horiz-adv-x="860" 
d="M750 1434q30 0 41.5 -16t1.5 -44l-244 -698h143q39 0 39 -37v-14q0 -37 -39 -37h-174l-14 -43v-88h188q39 0 39 -37v-14q0 -37 -39 -37h-188v-316q0 -53 -53 -53h-41q-54 0 -54 53v316h-213q-39 0 -39 37v14q0 37 39 37h213v88l-14 43h-199q-39 0 -39 37v14q0 37 39 37
h168l-243 698q-10 28 1.5 44t41.5 16h43q45 0 61 -45l215 -676l217 676q16 45 62 45h41z" />
    <glyph glyph-name="percent.tf" horiz-adv-x="860" 
d="M219 1442q68 0 116 -43.5t48 -130.5v-262q0 -88 -48 -131.5t-116 -43.5h-33q-71 0 -118.5 43.5t-47.5 131.5v262q0 88 47.5 131t118.5 43h33zM727 1434q23 0 30.5 -14.5t-1.5 -37.5l-561 -1349q-13 -33 -50 -33h-10q-25 0 -33.5 14t0.5 37l562 1350q13 33 49 33h14z
M287 1247q0 56 -18 80.5t-56 24.5h-23q-38 0 -55.5 -24.5t-17.5 -80.5v-221q0 -56 17.5 -80t55.5 -24h23q38 0 56 24t18 80v221zM674 602q68 0 116 -43.5t48 -130.5v-262q0 -87 -48 -130.5t-116 -43.5h-33q-71 0 -118.5 43t-47.5 131v262q0 88 47.5 131t118.5 43h33z
M741 408q0 56 -17.5 80t-55.5 24h-23q-38 0 -56 -24t-18 -80v-222q0 -56 18 -80t56 -24h23q38 0 55.5 24t17.5 80v222z" />
    <glyph glyph-name="bar.tf" horiz-adv-x="430" 
d="M283 -152q0 -53 -54 -53h-28q-54 0 -54 53v1737q0 53 54 53h28q54 0 54 -53v-1737z" />
    <glyph glyph-name="brokenbar.tf" horiz-adv-x="430" 
d="M201 901q-54 0 -54 53v631q0 53 54 53h28q54 0 54 -53v-631q0 -53 -54 -53h-28zM229 573q54 0 54 -53v-672q0 -53 -54 -53h-28q-54 0 -54 53v672q0 53 54 53h28z" />
    </font>
</defs>
</svg>
