<?xml version="1.0" standalone="no"?>
<!DOCTYPE svg PUBLIC "-//W3C//DTD SVG 1.1//EN" "http://www.w3.org/Graphics/SVG/1.1/DTD/svg11.dtd" >
<svg xmlns="http://www.w3.org/2000/svg" xmlns:xlink="http://www.w3.org/1999/xlink" version="1.1">
<metadata>
Created by FontForge 20170731 at Sat Aug  8 16:42:48 2020
 By Aleksey,,,
Copyright (c) 2016 by Mattox Shuler. All rights reserved.
</metadata>
<defs>
<font id="RiftSoft-Regular" horiz-adv-x="917" >
  <font-face 
    font-family="Rift Soft"
    font-weight="400"
    font-stretch="normal"
    units-per-em="2048"
    panose-1="0 0 5 0 0 0 0 0 0 0"
    ascent="1597"
    descent="-451"
    x-height="1434"
    cap-height="1434"
    bbox="-387 -528.63 1610 2157"
    underline-thickness="102"
    underline-position="-307"
    unicode-range="U+0020-2260"
  />
<missing-glyph horiz-adv-x="1024" 
d="M840 1597v-2048h-650v2048h650zM682 1460h-338v-67h133v-76h-135v-68h340v68h-135v76h135v67zM547 1196h-205v-213h340v70h-135v143zM477 1126v-73h-67v73h67zM682 928h-340v-68h135v-76h-135v-67h205v143h135v68zM682 805h-68v-135h-272v-70h340v205zM682 555h-205v-115
h70v47h67v-96h-204v164h-68v-231h340v231zM682 201h-340v-232h340v232zM614 133v-96h-204v96h204zM682 -78h-340v-67h143l-143 -97v-67h340v67h-209l143 97h66v67z" />
    <glyph glyph-name=".notdef" horiz-adv-x="1024" 
d="M840 1597v-2048h-650v2048h650zM682 1460h-338v-67h133v-76h-135v-68h340v68h-135v76h135v67zM547 1196h-205v-213h340v70h-135v143zM477 1126v-73h-67v73h67zM682 928h-340v-68h135v-76h-135v-67h205v143h135v68zM682 805h-68v-135h-272v-70h340v205zM682 555h-205v-115
h70v47h67v-96h-204v164h-68v-231h340v231zM682 201h-340v-232h340v232zM614 133v-96h-204v96h204zM682 -78h-340v-67h143l-143 -97v-67h340v67h-209l143 97h66v67z" />
    <glyph glyph-name=".null" horiz-adv-x="0" 
 />
    <glyph glyph-name="nonmarkingreturn" horiz-adv-x="682" 
 />
    <glyph glyph-name="space" unicode=" " horiz-adv-x="327" 
 />
    <glyph glyph-name="exclam" unicode="!" horiz-adv-x="350" 
d="M190 1434q41 0 41 -41v-179l-10 -847q-3 -41 -43 -41h-6q-41 0 -41 41l-12 845v181q0 41 41 41h30zM193 150q20 0 31.5 -12t11.5 -32v-65q0 -41 -43 -41h-35q-43 0 -43 41v65q0 20 11.5 32t31.5 12h35z" />
    <glyph glyph-name="quotedbl" unicode="&#x22;" horiz-adv-x="544" 
d="M213 1434q22 0 32 -13t5 -35l-111 -442q-9 -33 -43 -33q-39 0 -30 43l77 443q6 37 45 37h25zM459 1434q22 0 32 -13t5 -35l-111 -442q-9 -33 -43 -33q-40 0 -31 43l78 443q6 37 45 37h25z" />
    <glyph glyph-name="numbersign" unicode="#" horiz-adv-x="1224" 
d="M1145 989q43 0 43 -41v-8q0 -41 -43 -41h-225l-84 -364h227q43 0 43 -41v-9q0 -41 -43 -41h-248l-92 -407q-5 -37 -45 -37h-14q-22 0 -32 12.5t-5 34.5l90 397h-334l-92 -407q-8 -37 -45 -37h-17q-44 0 -34 47l90 397h-205q-43 0 -43 41v9q0 41 43 41h225l84 364h-227
q-43 0 -43 41v8q0 41 43 41h248l92 408q5 37 45 37h14q22 0 32 -13t5 -35l-90 -397h334l92 408q8 37 45 37h16q21 0 30.5 -13t4.5 -35l-90 -397h205zM737 535l84 364h-334l-84 -364h334z" />
    <glyph glyph-name="dollar" unicode="$" horiz-adv-x="856" 
d="M582 709q172 -91 172 -242v-184q0 -141 -67 -213.5t-204 -83.5v-105q0 -41 -43 -41h-20q-43 0 -43 41v105q-137 11 -204 83t-67 214v190q0 20 12 31.5t32 11.5h26q19 0 30 -11.5t11 -31.5v-158q0 -120 49 -175.5t164 -55.5t164 55.5t49 175.5v115q0 76 -32 116t-119 89
l-216 117q-94 54 -132 104t-38 133v166q0 132 71 206.5t200 86.5v104q0 41 43 41h20q43 0 43 -41v-104q127 -12 197 -87t70 -206v-174q0 -43 -43 -43h-27q-19 0 -30 11.5t-11 31.5v141q0 120 -48.5 174t-162.5 54t-162.5 -54t-48.5 -174v-100q0 -76 29 -112t116 -81z" />
    <glyph glyph-name="percent" unicode="%" horiz-adv-x="1046" 
d="M272 1442q66 0 113 -44t47 -132v-258q0 -89 -47 -133t-113 -44h-32q-68 0 -115 44t-47 133v258q0 89 47 132.5t115 43.5h32zM862 1434q20 0 26.5 -12.5t-1.5 -32.5l-643 -1360q-14 -29 -45 -29h-11q-21 0 -28.5 12.5t0.5 32.5l645 1360q12 29 43 29h14zM350 1247
q0 62 -20.5 90.5t-63.5 28.5h-22q-43 0 -62.5 -28t-19.5 -91v-221q0 -63 19.5 -91t62.5 -28h22q43 0 63.5 28.5t20.5 90.5v221zM809 602q66 0 113 -44t47 -132v-258q0 -88 -47 -132t-113 -44h-33q-68 0 -115 43.5t-47 132.5v258q0 89 47 132.5t115 43.5h33zM887 408
q0 62 -20.5 90t-63.5 28h-23q-43 0 -62.5 -27.5t-19.5 -90.5v-222q0 -63 19.5 -90.5t62.5 -27.5h23q43 0 63.5 28t20.5 90v222z" />
    <glyph glyph-name="ampersand" unicode="&#x26;" horiz-adv-x="948" 
d="M901 49q13 -22 5.5 -35.5t-32.5 -13.5h-30q-31 0 -49 27l-88 123q-78 -166 -295 -166h-15q-153 0 -222 79t-69 207v320q0 88 29.5 149.5t83.5 87.5q-51 70 -70.5 122.5t-19.5 117.5v88q0 149 77.5 222t239.5 73h5q162 0 239.5 -73t77.5 -222v-151q0 -41 -43 -41h-25
q-41 0 -41 41v122q0 120 -53 172t-157 52q-103 0 -156 -52t-53 -172v-55q0 -57 21 -101t99 -155l302 -426l75 356q9 37 47 37h23q46 0 37 -45l-99 -467zM420 80q85 0 134 40.5t77 135.5l-361 506q-53 -50 -53 -144v-294q0 -125 50 -184.5t153 -59.5z" />
    <glyph glyph-name="quotesingle" unicode="'" horiz-adv-x="299" 
d="M213 1434q22 0 32 -13t5 -35l-111 -442q-9 -33 -43 -33q-39 0 -30 43l77 443q6 37 45 37h25z" />
    <glyph glyph-name="parenleft" unicode="(" horiz-adv-x="565" 
d="M463 1436q-113 0 -167 -54.5t-54 -189.5v-950q0 -129 50.5 -186.5t170.5 -57.5q37 0 37 -43v-12q0 -41 -37 -41q-328 0 -328 303v1024q0 303 328 303q37 0 37 -41v-12q0 -43 -37 -43z" />
    <glyph glyph-name="parenright" unicode=")" horiz-adv-x="565" 
d="M102 1436q-36 0 -36 43v12q0 41 36 41q328 0 328 -303v-1024q0 -303 -328 -303q-36 0 -36 41v12q0 43 36 43q120 0 171 57.5t51 186.5v950q0 135 -54 189.5t-168 54.5z" />
    <glyph glyph-name="asterisk" unicode="*" horiz-adv-x="667" 
d="M383 1153l123 -145q28 -35 -6 -58l-11 -8q-35 -25 -53 12l-102 162l-103 -160q-21 -34 -55 -10l-8 8q-34 24 -6 56l123 143l-189 47q-38 9 -26 49l4 11q12 38 51 22l178 -72l-14 191q-3 41 37 41h16q41 0 35 -41l-12 -191l178 72q39 17 51 -25l2 -8q12 -40 -27 -49z" />
    <glyph glyph-name="plus" unicode="+" horiz-adv-x="860" 
d="M702 776q41 0 41 -43v-8q0 -43 -41 -43h-225v-225q0 -41 -43 -41h-8q-43 0 -43 41v225h-225q-41 0 -41 43v8q0 43 41 43h225v225q0 41 43 41h8q43 0 43 -41v-225h225z" />
    <glyph glyph-name="comma" unicode="," horiz-adv-x="317" 
d="M176 150q20 0 31.5 -12t11.5 -32v-65q0 -135 -51 -250q-18 -35 -43 -24q-21 9 -8 49q37 85 37 184h-13q-43 0 -43 41v65q0 20 11.5 32t31.5 12h35z" />
    <glyph glyph-name="hyphen" unicode="-" horiz-adv-x="565" 
d="M465 780q43 0 43 -41v-12q0 -41 -43 -41h-365q-43 0 -43 41v12q0 41 43 41h365z" />
    <glyph glyph-name="period" unicode="." horiz-adv-x="317" 
d="M176 150q20 0 31.5 -12t11.5 -32v-65q0 -41 -43 -41h-35q-43 0 -43 41v65q0 20 11.5 32t31.5 12h35z" />
    <glyph glyph-name="slash" unicode="/" horiz-adv-x="653" 
d="M573 1532q22 0 30.5 -12.5t2.5 -34.5l-463 -1548q-8 -35 -47 -35h-14q-22 0 -31.5 12.5t-3.5 34.5l463 1548q8 35 47 35h16z" />
    <glyph glyph-name="zero" unicode="0" horiz-adv-x="892" 
d="M455 1450q151 0 231 -77t80 -226v-860q0 -149 -80 -226t-231 -77h-17q-151 0 -231 77t-80 226v860q0 149 80 226t231 77h17zM655 1110q0 126 -50.5 182t-158.5 56t-158 -56t-50 -182v-786q0 -126 50 -182t158 -56t158.5 56t50.5 182v786z" />
    <glyph glyph-name="one" unicode="1" horiz-adv-x="430" 
d="M266 41q0 -41 -43 -41h-24q-43 0 -43 41v1264q0 13 10 26q24 34 35 72q9 35 32 35h5q28 0 28 -39v-1358z" />
    <glyph glyph-name="two" unicode="2" horiz-adv-x="811" 
d="M150 958q-44 0 -44 41v156q0 295 304 295h4q303 0 303 -295v-217q0 -47 -17.5 -88t-62.5 -87t-76.5 -72.5t-104.5 -82.5q-12 -9 -18 -14q-124 -94 -174.5 -159.5t-50.5 -155.5v-179h461q43 0 43 -43v-16q0 -41 -43 -41h-529q-43 0 -43 41v242q0 66 20 121.5t63.5 106
t86 87t113.5 88.5q124 91 172.5 145t48.5 127v172q0 220 -198 220q-99 0 -146 -54.5t-47 -165.5v-131q0 -41 -41 -41h-24z" />
    <glyph glyph-name="three" unicode="3" horiz-adv-x="821" 
d="M715 971q0 -205 -156 -226q50 -9 83.5 -31t48 -53.5t19.5 -59t5 -62.5v-252q0 -142 -71 -222.5t-212 -80.5h-55q-141 0 -212 80.5t-71 222.5v133q0 43 43 43h25q43 0 43 -43v-109q0 -122 48 -174.5t144 -52.5h15q96 0 144 52.5t48 174.5v224q0 81 -45.5 119t-138.5 38
h-107q-41 0 -41 41v17q0 41 41 41h86q107 0 156 41.5t49 136.5v153q0 122 -48 175t-144 53h-19q-96 0 -144 -53t-48 -175v-75q0 -43 -43 -43h-21q-43 0 -43 43v100q0 152 78 227.5t225 75.5h15q147 0 225 -75.5t78 -227.5v-176z" />
    <glyph glyph-name="four" unicode="4" horiz-adv-x="774" 
d="M578 1434q40 0 40 -41v-912h80q43 0 43 -43v-16q0 -43 -43 -43h-80v-338q0 -41 -40 -41h-27q-41 0 -41 41v338h-434q-43 0 -43 43v39q0 25 12 49l438 891q14 33 49 33h46zM510 1251l-377 -770h377v770z" />
    <glyph glyph-name="five" unicode="5" horiz-adv-x="839" 
d="M721 1374q0 -41 -43 -41h-440v-518q78 109 237 109q51 0 95 -12t83 -39t61.5 -76.5t22.5 -116.5v-401q0 -295 -307 -295h-4q-307 0 -307 295v157q0 43 43 43h24q41 0 41 -43v-133q0 -111 49.5 -165t151.5 -54q199 0 199 219v350q0 52 -14 88t-40 52.5t-51.5 23t-58.5 6.5
q-126 0 -207 -92q-21 -24 -51 -18l-41 10q-37 12 -37 47v623q0 41 43 41h508q43 0 43 -41v-19z" />
    <glyph glyph-name="six" unicode="6" horiz-adv-x="860" 
d="M729 1059q0 -39 -43 -39h-24q-44 0 -44 41v69q0 123 -43 171.5t-147 48.5t-147 -48.5t-43 -171.5v-364q53 94 217 94q129 0 207.5 -66.5t78.5 -195.5v-319q0 -150 -72.5 -222.5t-232.5 -72.5h-4q-160 0 -232.5 72.5t-72.5 222.5v876q0 151 70 223t229 72h4q159 0 229 -72
t70 -223v-96zM434 760q-88 0 -142 -47t-54 -142v-268q0 -122 45.5 -170.5t150.5 -48.5t151 48.5t46 170.5v268q0 95 -52 142t-145 47z" />
    <glyph glyph-name="seven" unicode="7" horiz-adv-x="702" 
d="M627 1376q0 -26 -6 -53l-320 -1286q-8 -37 -45 -37h-25q-22 0 -31.5 12.5t-4.5 34.5l321 1286h-436q-41 0 -41 41v19q0 41 41 41h504q43 0 43 -41v-17z" />
    <glyph glyph-name="eight" unicode="8" horiz-adv-x="841" 
d="M453 1450q141 0 211.5 -80.5t70.5 -222.5v-176q0 -210 -155 -226q155 -22 155 -247v-211q0 -142 -70.5 -222.5t-211.5 -80.5h-64q-141 0 -212 80.5t-71 222.5v211q0 28 2.5 54t12 60.5t25.5 60t46 46t70 26.5q-156 16 -156 226v176q0 142 71 222.5t212 80.5h64zM625 969
v153q0 228 -185 228h-39q-184 0 -184 -228v-153q0 -178 184 -178h39q185 0 185 178zM625 311v203q0 178 -185 178h-39q-184 0 -184 -178v-203q0 -227 184 -227h39q185 0 185 227z" />
    <glyph glyph-name="nine" unicode="9" horiz-adv-x="860" 
d="M131 375q0 39 43 39h25q43 0 43 -41v-70q0 -123 43 -171t147 -48t147.5 48t43.5 171v365q-53 -95 -217 -95q-129 0 -208 67t-79 196v319q0 150 72.5 222.5t232.5 72.5h4q160 0 232.5 -72.5t72.5 -222.5v-876q0 -151 -70 -223t-229 -72h-4q-159 0 -229 72t-70 223v96z
M426 674q89 0 143 46.5t54 141.5v268q0 122 -46 171t-151 49t-151 -49t-46 -171v-268q0 -95 52 -141.5t145 -46.5z" />
    <glyph glyph-name="colon" unicode=":" horiz-adv-x="317" 
d="M176 922q43 0 43 -43v-66q0 -41 -43 -41h-35q-43 0 -43 41v66q0 43 43 43h35zM176 150q20 0 31.5 -12t11.5 -32v-65q0 -41 -43 -41h-35q-43 0 -43 41v65q0 20 11.5 32t31.5 12h35z" />
    <glyph glyph-name="semicolon" unicode=";" horiz-adv-x="317" 
d="M176 922q43 0 43 -43v-66q0 -41 -43 -41h-35q-43 0 -43 41v66q0 43 43 43h35zM176 150q20 0 31.5 -12t11.5 -32v-65q0 -135 -51 -250q-18 -35 -43 -24q-21 9 -8 49q37 85 37 184h-13q-43 0 -43 41v65q0 20 11.5 32t31.5 12h35z" />
    <glyph glyph-name="less" unicode="&#x3c;" horiz-adv-x="860" 
d="M696 1120v25q0 27 -15.5 35t-35.5 -9l-483 -368q-27 -24 -27 -51v-41q0 -28 27 -52l483 -368q20 -17 35.5 -9t15.5 35v25q0 32 -26 51l-449 338l449 338q26 23 26 51z" />
    <glyph glyph-name="equal" unicode="=" horiz-adv-x="860" 
d="M702 950q41 0 41 -43v-8q0 -43 -41 -43h-544q-41 0 -41 43v8q0 43 41 43h544zM702 610q41 0 41 -43v-8q0 -43 -41 -43h-544q-41 0 -41 43v8q0 43 41 43h544z" />
    <glyph glyph-name="greater" unicode="&#x3e;" horiz-adv-x="860" 
d="M164 1120q0 -28 26 -51l449 -338l-449 -338q-26 -19 -26 -51v-25q0 -27 15.5 -35t35.5 9l483 368q27 24 27 52v41q0 27 -27 51l-483 368q-20 17 -35.5 9t-15.5 -35v-25z" />
    <glyph glyph-name="question" unicode="?" horiz-adv-x="782" 
d="M375 322q-41 0 -41 43v182q0 76 33.5 140.5t109.5 129.5q56 45 82.5 89.5t26.5 101.5v122q0 121 -48 170.5t-151 49.5q-102 0 -147 -49t-45 -171v-149q0 -43 -41 -43h-25q-43 0 -43 43v174q0 151 71.5 223t231.5 72h4q160 0 231.5 -72t71.5 -223v-168q0 -132 -147 -248
q-68 -56 -92.5 -108.5t-24.5 -141.5v-124q0 -43 -41 -43h-16zM401 150q20 0 31.5 -12t11.5 -32v-65q0 -41 -43 -41h-34q-43 0 -43 41v65q0 20 11.5 32t31.5 12h34z" />
    <glyph glyph-name="at" unicode="@" horiz-adv-x="1300" 
d="M829 1450q166 0 255.5 -75.5t89.5 -227.5v-653q0 -157 -56.5 -230.5t-146.5 -73.5q-61 0 -99.5 31t-48.5 76q-10 -53 -68 -86t-124 -33h-4q-38 0 -75 11.5t-70.5 35t-54.5 65.5t-21 97v504q0 100 66 154.5t157 54.5h4q61 0 109 -25t63 -67l12 47q3 15 14.5 23.5t26.5 8.5
q35 0 35 -38v-650q0 -129 84 -129q53 0 80.5 55.5t27.5 149.5v690q0 95 -63.5 148t-165.5 53h-412q-102 0 -165.5 -53t-63.5 -148v-964q0 -95 63.5 -148t165.5 -53h457q37 0 37 -37v-10q0 -37 -37 -37h-442q-332 0 -332 303v928q0 152 89 227.5t255 75.5h358zM797 424v430
q0 75 -41.5 117.5t-106.5 42.5t-106 -42.5t-41 -117.5v-430q0 -75 41 -117.5t106 -42.5t106.5 42.5t41.5 117.5z" />
    <glyph glyph-name="A" unicode="A" horiz-adv-x="868" 
d="M809 47q9 -47 -37 -47h-31q-37 0 -45 37l-71 332h-387l-72 -332q-5 -37 -45 -37h-25q-43 0 -37 47l303 1350q5 37 46 37h49q40 0 45 -37zM260 469h342l-170 791z" />
    <glyph glyph-name="B" unicode="B" horiz-adv-x="903" 
d="M788 971q0 -38 -7.5 -73t-24 -69.5t-49.5 -57t-78 -26.5q48 -7 82.5 -30t52.5 -56.5t25.5 -67.5t7.5 -73v-235q0 -128 -83 -205.5t-241 -77.5h-295q-43 0 -43 41v1352q0 41 43 41h299q156 0 233.5 -77t77.5 -206v-180zM246 1333v-540h227q205 0 205 159v166
q0 111 -47 163t-158 52h-227zM686 530q0 160 -205 160h-235v-590h235q111 0 158 52t47 163v215z" />
    <glyph glyph-name="C" unicode="C" horiz-adv-x="905" 
d="M743 567q43 0 43 -43v-237q0 -303 -327 -303h-4q-164 0 -246 74.5t-82 228.5v860q0 148 83 225.5t245 77.5h4q162 0 244.5 -77t82.5 -226v-203q0 -43 -43 -43h-26q-41 0 -41 43v166q0 127 -50 182.5t-169 55.5t-169 -55.5t-50 -182.5v-786q0 -127 50 -182.5t169 -55.5
t169 55.5t50 182.5v200q0 43 41 43h26z" />
    <glyph glyph-name="D" unicode="D" horiz-adv-x="923" 
d="M469 1434q328 0 328 -304v-827q0 -303 -328 -303h-291q-43 0 -43 41v1352q0 41 43 41h291zM686 1094q0 128 -52 182.5t-173 54.5h-215v-1229h215q121 0 173 55t52 183v754z" />
    <glyph glyph-name="E" unicode="E" horiz-adv-x="770" 
d="M705 41q0 -41 -43 -41h-484q-43 0 -43 41v1352q0 41 43 41h477q43 0 43 -41v-19q0 -43 -43 -43h-409v-553h346q43 0 43 -43v-16q0 -43 -43 -43h-346v-574h416q43 0 43 -43v-18z" />
    <glyph glyph-name="F" unicode="F" horiz-adv-x="727" 
d="M178 0q-43 0 -43 41v1352q0 41 43 41h469q43 0 43 -41v-19q0 -43 -43 -43h-401v-563h338q43 0 43 -43v-16q0 -43 -43 -43h-338v-625q0 -41 -41 -41h-27z" />
    <glyph glyph-name="G" unicode="G" horiz-adv-x="921" 
d="M756 711q20 0 31.5 -11t11.5 -30v-383q0 -303 -328 -303h-16q-164 0 -246 74.5t-82 228.5v860q0 148 83 225.5t245 77.5h16q162 0 245 -77.5t83 -225.5v-146q0 -43 -43 -43h-27q-41 0 -41 43v109q0 128 -52 183t-173 55t-173 -55t-52 -183v-786q0 -128 52 -183t173 -55
t173 55t52 183v286h-192q-41 0 -41 41v19q0 41 41 41h260z" />
    <glyph glyph-name="H" unicode="H" horiz-adv-x="952" 
d="M135 1393q0 41 43 41h27q41 0 41 -41v-613h461v613q0 41 41 41h26q43 0 43 -41v-1352q0 -41 -43 -41h-26q-41 0 -41 41v637h-461v-637q0 -41 -41 -41h-27q-43 0 -43 41v1352z" />
    <glyph glyph-name="I" unicode="I" horiz-adv-x="399" 
d="M254 41q0 -41 -41 -41h-27q-43 0 -43 41v1352q0 41 43 41h27q41 0 41 -41v-1352z" />
    <glyph glyph-name="J" unicode="J" horiz-adv-x="561" 
d="M94 102q121 0 173 56.5t52 185.5v1049q0 41 41 41h27q43 0 43 -41v-1090q0 -303 -332 -303h-14q-43 0 -43 41v20q0 41 43 41h10z" />
    <glyph glyph-name="K" unicode="K" horiz-adv-x="880" 
d="M834 49q8 -22 -1 -35.5t-32 -13.5h-33q-36 0 -47 35l-289 751l-186 -305v-440q0 -41 -41 -41h-27q-43 0 -43 41v1352q0 41 43 41h27q41 0 41 -41v-734l438 744q16 31 51 31h33q25 0 33.5 -14t-4.5 -36l-295 -483z" />
    <glyph glyph-name="L" unicode="L" horiz-adv-x="714" 
d="M631 102q43 0 43 -41v-20q0 -41 -43 -41h-453q-43 0 -43 41v1352q0 41 43 41h27q41 0 41 -41v-1291h385z" />
    <glyph glyph-name="M" unicode="M" horiz-adv-x="1218" 
d="M973 1153l-322 -877q-12 -34 -43 -34q-33 0 -45 34l-323 877v-1112q0 -41 -41 -41h-21q-43 0 -43 41v1352q0 41 43 41h31q38 0 47 -35l348 -959l352 959q12 35 50 35h34q43 0 43 -41v-1352q0 -41 -43 -41h-24q-43 0 -43 41v1112z" />
    <glyph glyph-name="N" unicode="N" horiz-adv-x="960" 
d="M242 41q0 -41 -41 -41h-23q-43 0 -43 41v1352q0 41 43 41h37q36 0 47 -33l457 -1139v1131q0 41 41 41h22q43 0 43 -41v-1352q0 -41 -43 -41h-30q-38 0 -47 33l-463 1147v-1139z" />
    <glyph glyph-name="O" unicode="O" horiz-adv-x="925" 
d="M127 1147q0 303 328 303h16q328 0 328 -303v-860q0 -303 -328 -303h-16q-328 0 -328 303v860zM238 324q0 -128 52 -183t173 -55t173 55t52 183v786q0 128 -52 183t-173 55t-173 -55t-52 -183v-786z" />
    <glyph glyph-name="P" unicode="P" horiz-adv-x="882" 
d="M473 1434q328 0 328 -304v-225q0 -303 -328 -303h-227v-561q0 -41 -41 -41h-27q-43 0 -43 41v1352q0 41 43 41h295zM690 942v152q0 128 -52 182.5t-173 54.5h-219v-626h219q121 0 173 54.5t52 182.5z" />
    <glyph glyph-name="Q" unicode="Q" horiz-adv-x="925" 
d="M471 1450q328 0 328 -303v-860q0 -138 -70.5 -214.5t-208.5 -86.5v-148q0 -43 -41 -43h-24q-41 0 -41 43v148q-287 18 -287 301v860q0 303 328 303h16zM688 324v786q0 128 -52 183t-173 55t-173 -55t-52 -183v-786q0 -128 52 -183t173 -55t173 55t52 183z" />
    <glyph glyph-name="R" unicode="R" horiz-adv-x="923" 
d="M831 49q8 -22 -0.5 -35.5t-31.5 -13.5h-33q-36 0 -47 35l-223 583h-23h-227v-577q0 -41 -41 -41h-27q-43 0 -43 41v1352q0 41 43 41h295q328 0 328 -304v-208q0 -234 -197 -287zM465 719q121 0 173 55t52 182v138q0 128 -52 182.5t-173 54.5h-219v-612h219z" />
    <glyph glyph-name="S" unicode="S" horiz-adv-x="856" 
d="M750 981q0 -43 -43 -43h-27q-19 0 -30 11.5t-11 31.5v141q0 120 -48.5 174t-162.5 54t-162.5 -54t-48.5 -174v-100q0 -76 29 -112t116 -81l220 -120q172 -91 172 -242v-184q0 -153 -79.5 -226t-242.5 -73h-4q-164 0 -243 72.5t-79 226.5v190q0 20 12 31.5t32 11.5h26
q19 0 30 -11.5t11 -31.5v-158q0 -120 49 -175.5t164 -55.5t164 55.5t49 175.5v115q0 76 -32 116t-119 89l-216 117q-94 54 -132 104t-38 133v166q0 145 84.5 220t235.5 75h4q151 0 235.5 -75t84.5 -220v-174z" />
    <glyph glyph-name="T" unicode="T" horiz-adv-x="708" 
d="M637 1434q43 0 43 -41v-19q0 -43 -43 -43h-227v-1290q0 -41 -43 -41h-27q-41 0 -41 41v1290h-227q-43 0 -43 43v19q0 41 43 41h565z" />
    <glyph glyph-name="U" unicode="U" 
d="M743 1434q43 0 43 -41v-1106q0 -153 -80 -228t-243 -75h-8q-164 0 -244 74.5t-80 228.5v1106q0 41 43 41h27q41 0 41 -41v-1069q0 -129 48.5 -183.5t168.5 -54.5t168.5 54.5t48.5 183.5v1069q0 41 41 41h26z" />
    <glyph glyph-name="V" unicode="V" horiz-adv-x="835" 
d="M739 1434q46 0 37 -48l-291 -1349q-8 -37 -45 -37h-45q-37 0 -45 37l-291 1349q-6 48 37 48h31q40 0 45 -37l248 -1196l250 1196q5 37 45 37h24z" />
    <glyph glyph-name="W" unicode="W" horiz-adv-x="1314" 
d="M1214 1434q45 0 39 -45l-229 -1350q-6 -39 -45 -39h-31q-38 0 -47 37l-242 1180l-245 -1180q-5 -37 -43 -37h-35q-39 0 -45 39l-230 1350q-6 45 39 45h27q39 0 45 -39l188 -1170l238 1172q6 37 47 37h31q38 0 47 -37l235 -1172l191 1170q6 39 43 39h22z" />
    <glyph glyph-name="X" unicode="X" horiz-adv-x="833" 
d="M711 1434q23 0 31.5 -14t0.5 -36l-258 -649l287 -686q10 -23 1.5 -36t-32.5 -13h-34q-39 0 -48 33l-245 602l-244 -602q-11 -33 -47 -33h-31q-24 0 -33 13t0 36l293 694l-270 641q-9 23 0 36.5t33 13.5h35q36 0 47 -33l225 -565l211 563q9 35 49 35h29z" />
    <glyph glyph-name="Y" unicode="Y" horiz-adv-x="847" 
d="M479 559v-518q0 -41 -41 -41h-28q-41 0 -41 41v518l-301 827q-15 48 32 48h29q37 0 49 -35l246 -709l248 709q9 35 47 35h29q47 0 32 -48z" />
    <glyph glyph-name="Z" unicode="Z" horiz-adv-x="735" 
d="M635 100q43 0 43 -43v-16q0 -41 -43 -41h-535q-43 0 -43 41v16q0 27 11 52l475 1224h-418q-43 0 -43 43v17q0 41 43 41h496q43 0 43 -41v-17q0 -18 -11 -51l-475 -1225h457z" />
    <glyph glyph-name="bracketleft" unicode="[" horiz-adv-x="565" 
d="M242 1434v-1434h215q43 0 43 -41v-16q0 -41 -43 -41h-279q-43 0 -43 41v1548q0 41 43 41h279q43 0 43 -41v-16q0 -41 -43 -41h-215z" />
    <glyph glyph-name="backslash" unicode="\" horiz-adv-x="653" 
d="M80 1532h16q39 0 47 -35l463 -1548q6 -22 -3.5 -34.5t-31.5 -12.5h-14q-39 0 -47 35l-463 1548q-6 22 2.5 34.5t30.5 12.5z" />
    <glyph glyph-name="bracketright" unicode="]" horiz-adv-x="565" 
d="M324 1434h-215q-43 0 -43 41v16q0 41 43 41h278q43 0 43 -41v-1548q0 -41 -43 -41h-278q-43 0 -43 41v16q0 41 43 41h215v1434z" />
    <glyph glyph-name="asciicircum" unicode="^" horiz-adv-x="770" 
d="M125 750q39 0 47 32l213 543l213 -543q8 -32 47 -32h25q23 0 31 13.5t-1 35.5l-247 602q-9 33 -45 33h-43q-39 0 -48 -33l-247 -602q-9 -22 -1 -35.5t31 -13.5h25z" />
    <glyph glyph-name="underscore" unicode="_" horiz-adv-x="677" 
d="M647 -125q41 0 41 -43v-6q0 -43 -41 -43h-616q-41 0 -41 43v6q0 43 41 43h616z" />
    <glyph glyph-name="grave" unicode="`" horiz-adv-x="927" 
d="M406 1802q35 0 51 -30l98 -179q10 -22 5.5 -34.5t-23.5 -12.5h-17q-30 0 -47 23l-139 180q-17 20 -9 36.5t33 16.5h48z" />
    <glyph glyph-name="a" unicode="a" horiz-adv-x="868" 
d="M809 47q9 -47 -37 -47h-31q-37 0 -45 37l-71 332h-387l-72 -332q-5 -37 -45 -37h-25q-43 0 -37 47l303 1350q5 37 46 37h49q40 0 45 -37zM260 469h342l-170 791z" />
    <glyph glyph-name="b" unicode="b" horiz-adv-x="903" 
d="M788 971q0 -38 -7.5 -73t-24 -69.5t-49.5 -57t-78 -26.5q48 -7 82.5 -30t52.5 -56.5t25.5 -67.5t7.5 -73v-235q0 -128 -83 -205.5t-241 -77.5h-295q-43 0 -43 41v1352q0 41 43 41h299q156 0 233.5 -77t77.5 -206v-180zM246 1333v-540h227q205 0 205 159v166
q0 111 -47 163t-158 52h-227zM686 530q0 160 -205 160h-235v-590h235q111 0 158 52t47 163v215z" />
    <glyph glyph-name="c" unicode="c" horiz-adv-x="905" 
d="M743 567q43 0 43 -43v-237q0 -303 -327 -303h-4q-164 0 -246 74.5t-82 228.5v860q0 148 83 225.5t245 77.5h4q162 0 244.5 -77t82.5 -226v-203q0 -43 -43 -43h-26q-41 0 -41 43v166q0 127 -50 182.5t-169 55.5t-169 -55.5t-50 -182.5v-786q0 -127 50 -182.5t169 -55.5
t169 55.5t50 182.5v200q0 43 41 43h26z" />
    <glyph glyph-name="d" unicode="d" horiz-adv-x="923" 
d="M469 1434q328 0 328 -304v-827q0 -303 -328 -303h-291q-43 0 -43 41v1352q0 41 43 41h291zM686 1094q0 128 -52 182.5t-173 54.5h-215v-1229h215q121 0 173 55t52 183v754z" />
    <glyph glyph-name="e" unicode="e" horiz-adv-x="770" 
d="M705 41q0 -41 -43 -41h-484q-43 0 -43 41v1352q0 41 43 41h477q43 0 43 -41v-19q0 -43 -43 -43h-409v-553h346q43 0 43 -43v-16q0 -43 -43 -43h-346v-574h416q43 0 43 -43v-18z" />
    <glyph glyph-name="f" unicode="f" horiz-adv-x="727" 
d="M178 0q-43 0 -43 41v1352q0 41 43 41h469q43 0 43 -41v-19q0 -43 -43 -43h-401v-563h338q43 0 43 -43v-16q0 -43 -43 -43h-338v-625q0 -41 -41 -41h-27z" />
    <glyph glyph-name="g" unicode="g" horiz-adv-x="921" 
d="M756 711q20 0 31.5 -11t11.5 -30v-383q0 -303 -328 -303h-16q-164 0 -246 74.5t-82 228.5v860q0 148 83 225.5t245 77.5h16q162 0 245 -77.5t83 -225.5v-146q0 -43 -43 -43h-27q-41 0 -41 43v109q0 128 -52 183t-173 55t-173 -55t-52 -183v-786q0 -128 52 -183t173 -55
t173 55t52 183v286h-192q-41 0 -41 41v19q0 41 41 41h260z" />
    <glyph glyph-name="h" unicode="h" horiz-adv-x="952" 
d="M135 1393q0 41 43 41h27q41 0 41 -41v-613h461v613q0 41 41 41h26q43 0 43 -41v-1352q0 -41 -43 -41h-26q-41 0 -41 41v637h-461v-637q0 -41 -41 -41h-27q-43 0 -43 41v1352z" />
    <glyph glyph-name="i" unicode="i" horiz-adv-x="399" 
d="M254 41q0 -41 -41 -41h-27q-43 0 -43 41v1352q0 41 43 41h27q41 0 41 -41v-1352z" />
    <glyph glyph-name="j" unicode="j" horiz-adv-x="561" 
d="M94 102q121 0 173 56.5t52 185.5v1049q0 41 41 41h27q43 0 43 -41v-1090q0 -303 -332 -303h-14q-43 0 -43 41v20q0 41 43 41h10z" />
    <glyph glyph-name="k" unicode="k" horiz-adv-x="880" 
d="M834 49q8 -22 -1 -35.5t-32 -13.5h-33q-36 0 -47 35l-289 751l-186 -305v-440q0 -41 -41 -41h-27q-43 0 -43 41v1352q0 41 43 41h27q41 0 41 -41v-734l438 744q16 31 51 31h33q25 0 33.5 -14t-4.5 -36l-295 -483z" />
    <glyph glyph-name="l" unicode="l" horiz-adv-x="714" 
d="M631 102q43 0 43 -41v-20q0 -41 -43 -41h-453q-43 0 -43 41v1352q0 41 43 41h27q41 0 41 -41v-1291h385z" />
    <glyph glyph-name="m" unicode="m" horiz-adv-x="1218" 
d="M973 1153l-322 -877q-12 -34 -43 -34q-33 0 -45 34l-323 877v-1112q0 -41 -41 -41h-21q-43 0 -43 41v1352q0 41 43 41h31q38 0 47 -35l348 -959l352 959q12 35 50 35h34q43 0 43 -41v-1352q0 -41 -43 -41h-24q-43 0 -43 41v1112z" />
    <glyph glyph-name="n" unicode="n" horiz-adv-x="960" 
d="M242 41q0 -41 -41 -41h-23q-43 0 -43 41v1352q0 41 43 41h37q36 0 47 -33l457 -1139v1131q0 41 41 41h22q43 0 43 -41v-1352q0 -41 -43 -41h-30q-38 0 -47 33l-463 1147v-1139z" />
    <glyph glyph-name="o" unicode="o" horiz-adv-x="925" 
d="M127 1147q0 303 328 303h16q328 0 328 -303v-860q0 -303 -328 -303h-16q-328 0 -328 303v860zM238 324q0 -128 52 -183t173 -55t173 55t52 183v786q0 128 -52 183t-173 55t-173 -55t-52 -183v-786z" />
    <glyph glyph-name="p" unicode="p" horiz-adv-x="882" 
d="M473 1434q328 0 328 -304v-225q0 -303 -328 -303h-227v-561q0 -41 -41 -41h-27q-43 0 -43 41v1352q0 41 43 41h295zM690 942v152q0 128 -52 182.5t-173 54.5h-219v-626h219q121 0 173 54.5t52 182.5z" />
    <glyph glyph-name="q" unicode="q" horiz-adv-x="925" 
d="M471 1450q328 0 328 -303v-860q0 -138 -70.5 -214.5t-208.5 -86.5v-148q0 -43 -41 -43h-24q-41 0 -41 43v148q-287 18 -287 301v860q0 303 328 303h16zM688 324v786q0 128 -52 183t-173 55t-173 -55t-52 -183v-786q0 -128 52 -183t173 -55t173 55t52 183z" />
    <glyph glyph-name="r" unicode="r" horiz-adv-x="923" 
d="M831 49q8 -22 -0.5 -35.5t-31.5 -13.5h-33q-36 0 -47 35l-223 583h-23h-227v-577q0 -41 -41 -41h-27q-43 0 -43 41v1352q0 41 43 41h295q328 0 328 -304v-208q0 -234 -197 -287zM465 719q121 0 173 55t52 182v138q0 128 -52 182.5t-173 54.5h-219v-612h219z" />
    <glyph glyph-name="s" unicode="s" horiz-adv-x="856" 
d="M750 981q0 -43 -43 -43h-27q-19 0 -30 11.5t-11 31.5v141q0 120 -48.5 174t-162.5 54t-162.5 -54t-48.5 -174v-100q0 -76 29 -112t116 -81l220 -120q172 -91 172 -242v-184q0 -153 -79.5 -226t-242.5 -73h-4q-164 0 -243 72.5t-79 226.5v190q0 20 12 31.5t32 11.5h26
q19 0 30 -11.5t11 -31.5v-158q0 -120 49 -175.5t164 -55.5t164 55.5t49 175.5v115q0 76 -32 116t-119 89l-216 117q-94 54 -132 104t-38 133v166q0 145 84.5 220t235.5 75h4q151 0 235.5 -75t84.5 -220v-174z" />
    <glyph glyph-name="t" unicode="t" horiz-adv-x="708" 
d="M637 1434q43 0 43 -41v-19q0 -43 -43 -43h-227v-1290q0 -41 -43 -41h-27q-41 0 -41 41v1290h-227q-43 0 -43 43v19q0 41 43 41h565z" />
    <glyph glyph-name="u" unicode="u" 
d="M743 1434q43 0 43 -41v-1106q0 -153 -80 -228t-243 -75h-8q-164 0 -244 74.5t-80 228.5v1106q0 41 43 41h27q41 0 41 -41v-1069q0 -129 48.5 -183.5t168.5 -54.5t168.5 54.5t48.5 183.5v1069q0 41 41 41h26z" />
    <glyph glyph-name="v" unicode="v" horiz-adv-x="835" 
d="M739 1434q46 0 37 -48l-291 -1349q-8 -37 -45 -37h-45q-37 0 -45 37l-291 1349q-6 48 37 48h31q40 0 45 -37l248 -1196l250 1196q5 37 45 37h24z" />
    <glyph glyph-name="w" unicode="w" horiz-adv-x="1314" 
d="M1214 1434q45 0 39 -45l-229 -1350q-6 -39 -45 -39h-31q-38 0 -47 37l-242 1180l-245 -1180q-5 -37 -43 -37h-35q-39 0 -45 39l-230 1350q-6 45 39 45h27q39 0 45 -39l188 -1170l238 1172q6 37 47 37h31q38 0 47 -37l235 -1172l191 1170q6 39 43 39h22z" />
    <glyph glyph-name="x" unicode="x" horiz-adv-x="833" 
d="M711 1434q23 0 31.5 -14t0.5 -36l-258 -649l287 -686q10 -23 1.5 -36t-32.5 -13h-34q-39 0 -48 33l-245 602l-244 -602q-11 -33 -47 -33h-31q-24 0 -33 13t0 36l293 694l-270 641q-9 23 0 36.5t33 13.5h35q36 0 47 -33l225 -565l211 563q9 35 49 35h29z" />
    <glyph glyph-name="y" unicode="y" horiz-adv-x="847" 
d="M479 559v-518q0 -41 -41 -41h-28q-41 0 -41 41v518l-301 827q-15 48 32 48h29q37 0 49 -35l246 -709l248 709q9 35 47 35h29q47 0 32 -48z" />
    <glyph glyph-name="z" unicode="z" horiz-adv-x="735" 
d="M635 100q43 0 43 -43v-16q0 -41 -43 -41h-535q-43 0 -43 41v16q0 27 11 52l475 1224h-418q-43 0 -43 43v17q0 41 43 41h496q43 0 43 -41v-17q0 -18 -11 -51l-475 -1225h457z" />
    <glyph glyph-name="braceleft" unicode="{" horiz-adv-x="630" 
d="M528 1434q-114 0 -167.5 -54t-53.5 -188v-283q0 -147 -129 -184q129 -43 129 -184v-299q0 -134 53.5 -188t167.5 -54q37 0 37 -41v-16q0 -41 -37 -41q-327 0 -327 303v342q0 54 -25 83.5t-80 41.5q-39 9 -39 45v12q0 36 39 45q55 12 80 43t25 84v328q0 303 327 303
q37 0 37 -41v-16q0 -41 -37 -41z" />
    <glyph glyph-name="bar" unicode="|" horiz-adv-x="456" 
d="M281 -164q0 -41 -43 -41h-19q-43 0 -43 41v1761q0 41 43 41h19q43 0 43 -41v-1761z" />
    <glyph glyph-name="braceright" unicode="}" horiz-adv-x="630" 
d="M102 1434q-36 0 -36 41v16q0 41 36 41q328 0 328 -303v-328q0 -53 25 -84t80 -43q38 -9 38 -45v-12q0 -36 -38 -45q-55 -12 -80 -41.5t-25 -83.5v-342q0 -303 -328 -303q-36 0 -36 41v16q0 41 36 41q114 0 168 54t54 188v299q0 141 129 184q-129 37 -129 184v283
q0 134 -54 188t-168 54z" />
    <glyph glyph-name="asciitilde" unicode="~" horiz-adv-x="811" 
d="M168 647q0 55 25 85t61 30q32 0 70 -26t68.5 -57t76 -57t90.5 -26q71 0 122.5 53.5t51.5 159.5q0 35 -35 35h-22q-16 0 -25.5 -9t-9.5 -26v-4q0 -54 -23 -84.5t-61 -30.5q-31 0 -67.5 26t-67 57t-76 57t-92.5 26q-71 0 -123.5 -53.5t-52.5 -159.5q0 -35 35 -35h22
q33 0 33 35v4z" />
    <glyph glyph-name="exclamdown" unicode="&#xa1;" horiz-adv-x="350" 
d="M193 1284h-35q-43 0 -43 43v66q0 41 43 41h35q43 0 43 -41v-66q0 -43 -43 -43zM190 0h-30q-41 0 -41 41v180l12 846q0 41 41 41h6q40 0 43 -41l10 -848v-178q0 -41 -41 -41z" />
    <glyph glyph-name="cent" unicode="&#xa2;" horiz-adv-x="843" 
d="M684 860q-19 0 -30 11.5t-11 31.5v27q0 126 -50 181.5t-169 55.5t-169 -55.5t-50 -181.5v-426q0 -126 50 -182t169 -56q116 0 167.5 60.5t51.5 177.5v61q0 20 11 31.5t30 11.5h27q43 0 43 -43v-98q0 -277 -275 -301v-125q0 -41 -43 -41h-20q-43 0 -43 41v125
q-279 21 -279 301v500q0 136 71 213.5t208 87.5v125q0 41 43 41h20q43 0 43 -41v-125q136 -12 205.5 -88.5t69.5 -212.5v-64q0 -43 -43 -43h-27z" />
    <glyph glyph-name="sterling" unicode="&#xa3;" horiz-adv-x="843" 
d="M764 981q0 -43 -43 -43h-27q-41 0 -41 43v149q0 53 -6 88.5t-23.5 67t-52.5 47t-88 15.5t-88 -15.5t-52.5 -47t-23.5 -67t-6 -88.5v-374h228q43 0 43 -41v-13q0 -40 -43 -40h-228q0 -246 -30.5 -383.5t-108.5 -176.5h526q43 0 43 -43v-18q0 -41 -43 -41h-583
q-39 0 -45 37l-9 29q-5 33 23 55q68 51 92.5 179.5t24.5 361.5h-101q-43 0 -43 40v13q0 41 43 41h101v391q0 144 62.5 223.5t215.5 79.5h4q153 0 216 -79.5t63 -223.5v-166z" />
    <glyph glyph-name="yen" unicode="&#xa5;" horiz-adv-x="847" 
d="M748 1434q47 0 32 -48l-260 -714h170q17 0 26 -9.5t9 -25.5v-10q0 -35 -35 -35h-198l-13 -33v-106h211q35 0 35 -35v-10q0 -16 -9 -25.5t-26 -9.5h-211v-332q0 -41 -41 -41h-28q-41 0 -41 41v332h-236q-17 0 -26 9.5t-9 25.5v10q0 35 35 35h236v106l-13 33h-223
q-35 0 -35 35v10q0 16 9 25.5t26 9.5h195l-260 714q-15 48 32 48h29q37 0 49 -35l246 -709l248 709q9 35 47 35h29z" />
    <glyph glyph-name="brokenbar" unicode="&#xa6;" horiz-adv-x="456" 
d="M219 901q-43 0 -43 41v655q0 41 43 41h19q43 0 43 -41v-655q0 -41 -43 -41h-19zM238 573q43 0 43 -41v-696q0 -41 -43 -41h-19q-43 0 -43 41v696q0 41 43 41h19z" />
    <glyph glyph-name="section" unicode="&#xa7;" horiz-adv-x="860" 
d="M645 504v76q0 79 -47 129t-178 110q-127 59 -196 111t-92 98t-23 109v100q0 145 84 220t235 75h4q151 0 235.5 -75t84.5 -220v-160q0 -41 -43 -41h-27q-41 0 -41 41v127q0 120 -48.5 174t-162.5 54t-162.5 -54t-48.5 -174v-37q0 -81 43.5 -126t179.5 -109
q175 -84 244.5 -156t69.5 -164v-200q-35 57 -111 92zM219 846v-76q0 -81 40 -123.5t177 -107.5q176 -84 248 -159t72 -163v-119q0 -153 -79.5 -226t-242.5 -73h-4q-164 0 -242.5 72.5t-78.5 226.5v181q0 40 43 40h26q41 0 41 -40v-148q0 -120 49 -175.5t164 -55.5t164 55.5
t49 175.5v51q0 81 -49 131.5t-193 120.5q-120 58 -184 106t-87 92.5t-23 106.5v193q33 -45 110 -86z" />
    <glyph glyph-name="dieresis" unicode="&#xa8;" horiz-adv-x="901" 
d="M330 1690q43 0 43 -41v-62q0 -41 -43 -41h-33q-41 0 -41 41v62q0 41 41 41h33zM604 1690q41 0 41 -41v-62q0 -41 -41 -41h-33q-43 0 -43 41v62q0 41 43 41h33z" />
    <glyph glyph-name="copyright" unicode="&#xa9;" horiz-adv-x="1300" 
d="M829 1450q169 0 257 -72.5t88 -230.5v-860q0 -158 -88 -230.5t-257 -72.5h-370q-167 0 -249.5 72t-82.5 231v860q0 158 88 230.5t256 72.5h358zM1087 1165q0 98 -60.5 151.5t-170.5 53.5h-412q-110 0 -170.5 -53.5t-60.5 -151.5v-897q0 -98 60.5 -151.5t170.5 -53.5h412
q110 0 170.5 53.5t60.5 151.5v897zM856 612q39 0 39 -39v-149q0 -96 -65.5 -152.5t-176.5 -56.5h-4q-111 0 -176 55.5t-65 153.5v586q0 93 66 151t175 58h4q109 0 175.5 -58t66.5 -151v-125q0 -39 -39 -39h-14q-39 0 -39 39v88q0 78 -38 119t-114 41q-74 0 -112.5 -41.5
t-38.5 -118.5v-512q0 -77 38.5 -118.5t112.5 -41.5q76 0 114 41t38 119v112q0 39 39 39h14z" />
    <glyph glyph-name="ordfeminine" unicode="&#xaa;" horiz-adv-x="466" 
d="M406 881q0 -9 -7.5 -16t-17.5 -7h-23q-10 0 -17 7t-7 16v30q-31 -55 -119 -55q-75 0 -114.5 39t-39.5 113v57q0 73 40 111t114 38q90 0 113 -57v121q0 46 -18.5 70t-63.5 24h-23q-45 0 -63.5 -24t-18.5 -70q0 -9 -7 -15t-17 -6h-23q-10 0 -17 7t-7 18v10q0 65 41 107.5
t112 42.5h31q69 0 110.5 -42.5t41.5 -107.5v-411zM328 1051q0 49 -25.5 71.5t-56.5 22.5h-25q-82 0 -82 -94v-35q0 -90 82 -90h25q32 0 57 21t25 69v35zM406 696q0 -10 -7 -17t-18 -7h-295q-11 0 -18 7t-7 17v23q0 10 7 17t18 7h295q11 0 18 -7t7 -17v-23z" />
    <glyph glyph-name="guillemotleft" unicode="&#xab;" horiz-adv-x="806" 
d="M369 952q24 18 24 52v18q0 27 -16 34.5t-35 -12.5l-281 -262q-24 -21 -24 -51v-12q0 -30 24 -51l281 -262q19 -20 35 -15t16 29v26q0 33 -24 54l-244 225zM717 952q24 18 24 52v18q0 27 -16 34.5t-35 -12.5l-280 -262q-25 -22 -25 -51v-12q0 -29 25 -51l280 -262
q19 -20 35 -15t16 29v26q0 33 -24 54l-244 225z" />
    <glyph glyph-name="registered" unicode="&#xae;" horiz-adv-x="673" 
d="M430 1446q89 0 134.5 -45t45.5 -121v-440q0 -78 -45.5 -123t-134.5 -45h-190q-87 0 -132 45.5t-45 122.5v440q0 79 46 122.5t137 43.5h184zM551 829v461q0 47 -27.5 75t-81.5 28h-211q-54 0 -81 -27.5t-27 -75.5v-461q0 -48 27 -76t81 -28h211q54 0 81.5 28t27.5 76z
M401 1018l64 -187q6 -24 -19 -24h-14q-17 0 -26 18l-56 183h-8h-63v-179q0 -22 -23 -22h-12q-23 0 -23 22v459q0 23 23 23h98q56 0 86.5 -28.5t30.5 -78.5v-90q0 -71 -58 -96zM279 1255v-194h61q59 0 59 65v66q0 63 -59 63h-61z" />
    <glyph glyph-name="macron" unicode="&#xaf;" horiz-adv-x="790" 
d="M627 1587q0 -41 -41 -41h-381q-41 0 -41 41v12q0 41 41 41h381q41 0 41 -41v-12z" />
    <glyph glyph-name="degree" unicode="&#xb0;" horiz-adv-x="548" 
d="M274 1450q111 0 173.5 -68.5t62.5 -191.5t-62.5 -191.5t-173.5 -68.5q-110 0 -172.5 68.5t-62.5 191.5t62.5 191.5t172.5 68.5zM274 1372q-71 0 -111 -48t-40 -134t40 -134t111 -48q72 0 112 48t40 134t-40 134t-112 48z" />
    <glyph glyph-name="plusminus" unicode="&#xb1;" horiz-adv-x="860" 
d="M702 901q41 0 41 -43v-8q0 -43 -41 -43h-225v-225q0 -41 -43 -41h-8q-43 0 -43 41v225h-225q-41 0 -41 43v8q0 43 41 43h225v225q0 41 43 41h8q43 0 43 -41v-225h225zM702 389q41 0 41 -43v-8q0 -43 -41 -43h-544q-41 0 -41 43v8q0 43 41 43h544z" />
    <glyph glyph-name="acute" unicode="&#xb4;" horiz-adv-x="927" 
d="M481 1772q15 30 49 30h48q26 0 33.5 -16.5t-9.5 -36.5l-139 -180q-17 -23 -47 -23h-6q-48 0 -29 47z" />
    <glyph glyph-name="paragraph" unicode="&#xb6;" horiz-adv-x="1134" 
d="M956 1434q43 0 43 -41v-1352q0 -41 -43 -41h-26q-41 0 -41 41v1290h-141v-1290q0 -41 -43 -41h-27q-41 0 -41 41v582h-227q-328 0 -328 303v204q0 304 328 304h546z" />
    <glyph glyph-name="periodcentered" unicode="&#xb7;" horiz-adv-x="317" 
d="M176 805q43 0 43 -43v-66q0 -41 -43 -41h-35q-43 0 -43 41v66q0 43 43 43h35z" />
    <glyph glyph-name="cedilla" unicode="&#xb8;" horiz-adv-x="720" 
d="M451 0v-98q0 -86 -33 -122t-111 -36q-30 0 -57 6q-22 2 -33 31l-4 8q-6 17 1 28t26 11h32q48 0 66 17.5t18 64.5v90h95z" />
    <glyph glyph-name="ordmasculine" unicode="&#xba;" horiz-adv-x="477" 
d="M256 1442q71 0 115.5 -46.5t44.5 -123.5v-250q0 -77 -44.5 -123.5t-115.5 -46.5h-33q-74 0 -118 46t-44 124v250q0 78 44 124t118 46h33zM338 1257q0 115 -92 115h-19q-94 0 -94 -115v-221q0 -114 94 -114h19q92 0 92 114v221zM86 672q-11 0 -18 7t-7 17v23q0 10 7 17
t18 7h305q11 0 18 -7t7 -17v-23q0 -10 -7 -17t-18 -7h-305z" />
    <glyph glyph-name="guillemotright" unicode="&#xbb;" horiz-adv-x="806" 
d="M90 952l244 -227l-244 -225q-24 -21 -24 -54v-26q0 -24 16 -29t35 15l280 262q25 22 25 51v12q0 29 -25 51l-280 262q-19 20 -35 12.5t-16 -34.5v-18q0 -34 24 -52zM438 952l244 -227l-244 -225q-24 -21 -24 -54v-26q0 -24 16 -29t35 15l280 262q25 22 25 51v12
q0 29 -25 51l-280 262q-19 20 -35 12.5t-16 -34.5v-18q0 -34 24 -52z" />
    <glyph glyph-name="onequarter" unicode="&#xbc;" horiz-adv-x="1017" 
d="M188 600q0 -35 -34 -35h-21q-35 0 -35 35v733q0 10 6 19q18 25 27 53q6 29 29 29h2q26 0 26 -33v-801zM637 1405q12 29 39 29h8q41 0 29 -39l-502 -1366q-12 -29 -39 -29h-8q-41 0 -29 39zM809 868q33 0 33 -34v-537h43q35 0 35 -33v-18q0 -35 -35 -35h-43v-176
q0 -35 -33 -35h-25q-34 0 -34 35v176h-224q-32 0 -32 35v24q0 13 8 41l225 531q12 26 41 26h41zM750 717l-175 -420h175v420z" />
    <glyph glyph-name="onehalf" unicode="&#xbd;" horiz-adv-x="1060" 
d="M188 600q0 -35 -34 -35h-21q-35 0 -35 35v733q0 10 6 19q18 25 27 53q6 29 29 29h2q26 0 26 -33v-801zM637 1405q12 29 39 29h8q41 0 29 -39l-502 -1366q-12 -29 -39 -29h-8q-41 0 -29 39zM606 547q-33 0 -33 35v110q0 89 49.5 137t143.5 48h2q94 0 143.5 -48t49.5 -137
v-84q0 -21 -5 -41t-10 -34.5t-20 -34t-22 -29t-29.5 -30t-30 -26.5t-36 -29t-34.5 -28q-66 -54 -89 -95t-23 -89v-90h266q33 0 33 -33v-14q0 -35 -33 -35h-326q-33 0 -33 35v139q0 74 37 128.5t117 121.5q49 40 68 56t41.5 40.5t29 44t6.5 45.5v66q0 60 -25 89.5t-79 29.5
q-102 0 -102 -119v-94q0 -35 -33 -35h-23z" />
    <glyph glyph-name="threequarters" unicode="&#xbe;" horiz-adv-x="1257" 
d="M494 1151q0 -110 -78 -131q78 -21 78 -123v-149q0 -85 -45.5 -138t-137.5 -53h-30q-92 0 -137.5 53t-45.5 138v92q0 34 35 34h21q34 0 34 -34v-76q0 -67 26 -96t77 -29h10q51 0 76.5 29t25.5 96v121q0 49 -25 69.5t-73 20.5h-63q-35 0 -35 33v16q0 33 35 33h51
q58 0 84 23t26 81v78q0 67 -25.5 96t-76.5 29h-12q-51 0 -76 -28.5t-25 -96.5v-55q0 -35 -34 -35h-21q-35 0 -35 35v71q0 90 46.5 140.5t146.5 50.5h10q100 0 146.5 -50.5t46.5 -140.5v-104zM877 1405q12 29 38 29h9q40 0 28 -39l-501 -1366q-12 -29 -39 -29h-9
q-40 0 -28 39zM1049 868q34 0 34 -34v-537h43q15 0 24 -9t9 -24v-18q0 -35 -33 -35h-43v-176q0 -35 -34 -35h-25q-33 0 -33 35v176h-223q-35 0 -35 35v24q0 18 10 41l226 531q9 26 41 26h39zM991 717l-174 -420h174v420z" />
    <glyph glyph-name="questiondown" unicode="&#xbf;" horiz-adv-x="782" 
d="M381 1284q-43 0 -43 43v66q0 41 43 41h35q43 0 43 -41v-66q0 -43 -43 -43h-35zM408 1112q41 0 41 -43v-182q0 -76 -34 -141t-110 -130q-56 -45 -82 -89t-26 -101v-123q0 -121 47.5 -170t150.5 -49q102 0 147.5 48.5t45.5 170.5v150q0 43 41 43h24q43 0 43 -43v-174
q0 -151 -71.5 -223t-231.5 -72h-4q-160 0 -231.5 72t-71.5 223v167q0 132 147 248q68 56 92.5 108.5t24.5 141.5v125q0 43 41 43h17z" />
    <glyph glyph-name="Agrave" unicode="&#xc0;" horiz-adv-x="868" 
d="M381 1569l-139 180q-17 20 -9 36.5t33 16.5h47q36 0 52 -30l98 -179q10 -22 5 -34.5t-24 -12.5h-16q-30 0 -47 23zM809 47q9 -47 -37 -47h-31q-37 0 -45 37l-71 332h-387l-72 -332q-5 -37 -45 -37h-25q-43 0 -37 47l303 1350q5 37 46 37h49q40 0 45 -37zM260 469h342
l-170 791z" />
    <glyph glyph-name="Aacute" unicode="&#xc1;" horiz-adv-x="868" 
d="M432 1546q-48 0 -29 47l101 179q15 30 49 30h47q26 0 34 -16.5t-9 -36.5l-140 -180q-17 -23 -47 -23h-6zM809 47q9 -47 -37 -47h-31q-37 0 -45 37l-71 332h-387l-72 -332q-5 -37 -45 -37h-25q-43 0 -37 47l303 1350q5 37 46 37h49q40 0 45 -37zM260 469h342l-170 791z
" />
    <glyph glyph-name="Acircumflex" unicode="&#xc2;" horiz-adv-x="868" 
d="M252 1546q-22 0 -28 15.5t7 35.5l129 177q17 28 50 28h45q32 0 49 -28l129 -177q13 -20 7 -35.5t-28 -15.5h-24q-32 0 -49 29l-107 147l-106 -147q-17 -29 -50 -29h-24zM809 47q9 -47 -37 -47h-31q-37 0 -45 37l-71 332h-387l-72 -332q-5 -37 -45 -37h-25q-43 0 -37 47
l303 1350q5 37 46 37h49q40 0 45 -37zM260 469h342l-170 791z" />
    <glyph glyph-name="Atilde" unicode="&#xc3;" horiz-adv-x="868" 
d="M176 1554q-39 0 -39 39q0 95 45 145t115 50q36 0 68.5 -16t56.5 -39t46.5 -46t47 -39t49.5 -16q72 0 72 111q0 33 39 33h12q39 0 39 -37q0 -97 -44 -146t-114 -49q-35 0 -67.5 16t-56.5 38.5t-46.5 45t-47.5 38.5t-50 16q-76 0 -76 -109q0 -35 -37 -35h-12zM809 47
q9 -47 -37 -47h-31q-37 0 -45 37l-71 332h-387l-72 -332q-5 -37 -45 -37h-25q-43 0 -37 47l303 1350q5 37 46 37h49q40 0 45 -37zM260 469h342l-170 791z" />
    <glyph glyph-name="Adieresis" unicode="&#xc4;" horiz-adv-x="868" 
d="M279 1546q-41 0 -41 41v62q0 41 41 41h32q43 0 43 -41v-62q0 -41 -43 -41h-32zM553 1546q-43 0 -43 41v62q0 41 43 41h33q41 0 41 -41v-62q0 -41 -41 -41h-33zM809 47q9 -47 -37 -47h-31q-37 0 -45 37l-71 332h-387l-72 -332q-5 -37 -45 -37h-25q-43 0 -37 47l303 1350
q5 37 46 37h49q40 0 45 -37zM260 469h342l-170 791z" />
    <glyph glyph-name="Aring" unicode="&#xc5;" horiz-adv-x="868" 
d="M432 1534q-78 0 -123 43t-45 115t45 114.5t123 42.5q76 0 121 -42.5t45 -114.5t-45 -115t-121 -43zM432 1780q-40 0 -65 -22t-25 -66t25 -66t65 -22t64 22t24 66t-24 66t-64 22zM809 47q9 -47 -37 -47h-31q-37 0 -45 37l-71 332h-387l-72 -332q-5 -37 -45 -37h-25
q-43 0 -37 47l303 1350q5 37 46 37h49q40 0 45 -37zM260 469h342l-170 791z" />
    <glyph glyph-name="AE" unicode="&#xc6;" horiz-adv-x="1265" 
d="M1157 102q43 0 43 -43v-18q0 -41 -43 -41h-483q-43 0 -43 41v328h-365l-106 -334q-11 -35 -47 -35h-27q-48 0 -33 47l439 1352q8 35 47 35h612q43 0 43 -41v-19q0 -43 -43 -43h-410v-553h346q43 0 43 -43v-16q0 -43 -43 -43h-346v-574h416zM299 467h332v864h-56z" />
    <glyph glyph-name="Ccedilla" unicode="&#xc7;" horiz-adv-x="905" 
d="M717 901q-41 0 -41 43v166q0 127 -50 182.5t-169 55.5t-169 -55.5t-50 -182.5v-786q0 -127 50 -182.5t169 -55.5t169 55.5t50 182.5v200q0 43 41 43h26q43 0 43 -43v-237q0 -285 -290 -303v-82q0 -86 -33 -122t-111 -36q-30 0 -57 6q-22 2 -33 31l-4 8q-6 17 1 28t26 11
h32q48 0 66 17.5t18 64.5v76q-274 21 -274 301v860q0 148 83 225.5t245 77.5h4q162 0 244.5 -77t82.5 -226v-203q0 -43 -43 -43h-26z" />
    <glyph glyph-name="Egrave" unicode="&#xc8;" horiz-adv-x="770" 
d="M295 1802q35 0 51 -30l98 -179q10 -22 5.5 -34.5t-23.5 -12.5h-16q-31 0 -48 23l-139 180q-17 20 -8.5 36.5t33.5 16.5h47zM705 41q0 -41 -43 -41h-484q-43 0 -43 41v1352q0 41 43 41h477q43 0 43 -41v-19q0 -43 -43 -43h-409v-553h346q43 0 43 -43v-16q0 -43 -43 -43
h-346v-574h416q43 0 43 -43v-18z" />
    <glyph glyph-name="Eacute" unicode="&#xc9;" horiz-adv-x="770" 
d="M485 1772q15 30 50 30h47q26 0 33.5 -16.5t-9.5 -36.5l-139 -180q-17 -23 -47 -23h-6q-48 0 -29 47zM705 41q0 -41 -43 -41h-484q-43 0 -43 41v1352q0 41 43 41h477q43 0 43 -41v-19q0 -43 -43 -43h-409v-553h346q43 0 43 -43v-16q0 -43 -43 -43h-346v-574h416
q43 0 43 -43v-18z" />
    <glyph glyph-name="Ecircumflex" unicode="&#xca;" horiz-adv-x="770" 
d="M594 1546q22 0 28 15.5t-8 35.5l-129 177q-17 28 -49 28h-45q-32 0 -49 -28l-129 -177q-14 -20 -8 -35.5t28 -15.5h25q32 0 49 29l107 147l106 -147q17 -29 49 -29h25zM705 41q0 -41 -43 -41h-484q-43 0 -43 41v1352q0 41 43 41h477q43 0 43 -41v-19q0 -43 -43 -43h-409
v-553h346q43 0 43 -43v-16q0 -43 -43 -43h-346v-574h416q43 0 43 -43v-18z" />
    <glyph glyph-name="Edieresis" unicode="&#xcb;" horiz-adv-x="770" 
d="M293 1690q43 0 43 -41v-62q0 -41 -43 -41h-33q-41 0 -41 41v62q0 41 41 41h33zM567 1690q41 0 41 -41v-62q0 -41 -41 -41h-32q-43 0 -43 41v62q0 41 43 41h32zM705 41q0 -41 -43 -41h-484q-43 0 -43 41v1352q0 41 43 41h477q43 0 43 -41v-19q0 -43 -43 -43h-409v-553h346
q43 0 43 -43v-16q0 -43 -43 -43h-346v-574h416q43 0 43 -43v-18z" />
    <glyph glyph-name="Igrave" unicode="&#xcc;" horiz-adv-x="399" 
d="M80 1802q35 0 51 -30l98 -179q10 -22 5.5 -34.5t-23.5 -12.5h-16q-31 0 -48 23l-139 180q-17 20 -8.5 36.5t33.5 16.5h47zM254 41q0 -41 -41 -41h-27q-43 0 -43 41v1352q0 41 43 41h27q41 0 41 -41v-1352z" />
    <glyph glyph-name="Iacute" unicode="&#xcd;" horiz-adv-x="399" 
d="M270 1772q15 30 49 30h48q26 0 33.5 -16.5t-9.5 -36.5l-139 -180q-17 -23 -47 -23h-6q-48 0 -29 47zM254 41q0 -41 -41 -41h-27q-43 0 -43 41v1352q0 41 43 41h27q41 0 41 -41v-1352z" />
    <glyph glyph-name="Icircumflex" unicode="&#xce;" horiz-adv-x="399" 
d="M379 1546q22 0 28 15.5t-8 35.5l-129 177q-17 28 -49 28h-45q-32 0 -49 -28l-129 -177q-14 -20 -8 -35.5t28 -15.5h25q32 0 49 29l107 147l106 -147q17 -29 49 -29h25zM254 41q0 -41 -41 -41h-27q-43 0 -43 41v1352q0 41 43 41h27q41 0 41 -41v-1352z" />
    <glyph glyph-name="Idieresis" unicode="&#xcf;" horiz-adv-x="399" 
d="M78 1690q43 0 43 -41v-62q0 -41 -43 -41h-33q-41 0 -41 41v62q0 41 41 41h33zM352 1690q41 0 41 -41v-62q0 -41 -41 -41h-33q-43 0 -43 41v62q0 41 43 41h33zM254 41q0 -41 -41 -41h-27q-43 0 -43 41v1352q0 41 43 41h27q41 0 41 -41v-1352z" />
    <glyph glyph-name="Eth" unicode="&#xd0;" horiz-adv-x="944" 
d="M489 1434q328 0 328 -304v-827q0 -303 -328 -303h-290q-43 0 -43 41v637h-68q-43 0 -43 43v16q0 43 43 43h68v613q0 41 43 41h290zM707 340v754q0 127 -52 182t-174 55h-215v-551h213q41 0 41 -43v-16q0 -43 -41 -43h-213v-576h215q121 0 173.5 55t52.5 183z" />
    <glyph glyph-name="Ntilde" unicode="&#xd1;" horiz-adv-x="960" 
d="M279 1589q0 109 75 109q25 0 50 -16t47.5 -38.5t47 -45t57 -38.5t67.5 -16q70 0 113.5 49t43.5 146q0 37 -39 37h-12q-39 0 -39 -33q0 -111 -72 -111q-25 0 -49.5 16t-47 39t-46.5 46t-56.5 39t-68.5 16q-70 0 -115 -50t-45 -145q0 -39 39 -39h13q37 0 37 35zM242 41
q0 -41 -41 -41h-23q-43 0 -43 41v1352q0 41 43 41h37q36 0 47 -33l457 -1139v1131q0 41 41 41h22q43 0 43 -41v-1352q0 -41 -43 -41h-30q-38 0 -47 33l-463 1147v-1139z" />
    <glyph glyph-name="Ograve" unicode="&#xd2;" horiz-adv-x="925" 
d="M344 1802q35 0 51 -30l99 -179q10 -22 5 -34.5t-24 -12.5h-16q-30 0 -47 23l-140 180q-17 20 -8.5 36.5t33.5 16.5h47zM127 1147q0 303 328 303h16q328 0 328 -303v-860q0 -303 -328 -303h-16q-328 0 -328 303v860zM238 324q0 -128 52 -183t173 -55t173 55t52 183v786
q0 128 -52 183t-173 55t-173 -55t-52 -183v-786z" />
    <glyph glyph-name="Oacute" unicode="&#xd3;" horiz-adv-x="925" 
d="M535 1772q15 30 49 30h47q26 0 33.5 -16.5t-9.5 -36.5l-139 -180q-17 -23 -47 -23h-6q-48 0 -29 47zM127 1147q0 303 328 303h16q328 0 328 -303v-860q0 -303 -328 -303h-16q-328 0 -328 303v860zM238 324q0 -128 52 -183t173 -55t173 55t52 183v786q0 128 -52 183
t-173 55t-173 -55t-52 -183v-786z" />
    <glyph glyph-name="Ocircumflex" unicode="&#xd4;" horiz-adv-x="925" 
d="M643 1546q22 0 28 15.5t-7 35.5l-129 177q-17 28 -50 28h-45q-32 0 -49 -28l-129 -177q-13 -20 -7 -35.5t28 -15.5h24q32 0 49 29l107 147l106 -147q17 -29 49 -29h25zM127 1147q0 303 328 303h16q328 0 328 -303v-860q0 -303 -328 -303h-16q-328 0 -328 303v860z
M238 324q0 -128 52 -183t173 -55t173 55t52 183v786q0 128 -52 183t-173 55t-173 -55t-52 -183v-786z" />
    <glyph glyph-name="Otilde" unicode="&#xd5;" horiz-adv-x="925" 
d="M256 1589q0 109 76 109q25 0 50 -16t47.5 -38.5t46.5 -45t56.5 -38.5t67.5 -16q70 0 114 49t44 146q0 37 -39 37h-12q-39 0 -39 -33q0 -111 -72 -111q-25 0 -49.5 16t-47 39t-46.5 46t-56.5 39t-68.5 16q-70 0 -115 -50t-45 -145q0 -39 39 -39h12q37 0 37 35zM127 1147
q0 303 328 303h16q328 0 328 -303v-860q0 -303 -328 -303h-16q-328 0 -328 303v860zM238 324q0 -128 52 -183t173 -55t173 55t52 183v786q0 128 -52 183t-173 55t-173 -55t-52 -183v-786z" />
    <glyph glyph-name="Odieresis" unicode="&#xd6;" horiz-adv-x="925" 
d="M342 1690q43 0 43 -41v-62q0 -41 -43 -41h-33q-41 0 -41 41v62q0 41 41 41h33zM616 1690q41 0 41 -41v-62q0 -41 -41 -41h-32q-43 0 -43 41v62q0 41 43 41h32zM127 1147q0 303 328 303h16q328 0 328 -303v-860q0 -303 -328 -303h-16q-328 0 -328 303v860zM238 324
q0 -128 52 -183t173 -55t173 55t52 183v786q0 128 -52 183t-173 55t-173 -55t-52 -183v-786z" />
    <glyph glyph-name="multiply" unicode="&#xd7;" horiz-adv-x="860" 
d="M655 948q27 -28 -2 -57l-161 -162l161 -162q29 -29 2 -57l-8 -6q-29 -28 -57 0l-162 162l-160 -160q-28 -31 -57 -2l-6 8q-29 28 0 57l162 160l-162 160q-29 29 0 57l6 8q29 29 57 -2l160 -161l162 163q28 28 57 0z" />
    <glyph glyph-name="Oslash" unicode="&#xd8;" horiz-adv-x="925" 
d="M471 1450q328 0 328 -303v-860q0 -303 -328 -303h-16q-328 0 -328 303v860q0 303 328 303h16zM238 1110v-786q0 -126 51 -183l268 1196q-49 11 -94 11q-121 0 -173 -55t-52 -183zM688 324v786q0 125 -51 182l-268 -1196q45 -10 94 -10q121 0 173 55t52 183z" />
    <glyph glyph-name="Ugrave" unicode="&#xd9;" 
d="M340 1802q35 0 51 -30l98 -179q10 -22 5.5 -34.5t-23.5 -12.5h-16q-30 0 -47 23l-140 180q-17 20 -8.5 36.5t33.5 16.5h47zM743 1434q43 0 43 -41v-1106q0 -153 -80 -228t-243 -75h-8q-164 0 -244 74.5t-80 228.5v1106q0 41 43 41h27q41 0 41 -41v-1069
q0 -129 48.5 -183.5t168.5 -54.5t168.5 54.5t48.5 183.5v1069q0 41 41 41h26z" />
    <glyph glyph-name="Uacute" unicode="&#xda;" 
d="M530 1772q15 30 50 30h47q26 0 33.5 -16.5t-9.5 -36.5l-139 -180q-17 -23 -47 -23h-6q-48 0 -29 47zM743 1434q43 0 43 -41v-1106q0 -153 -80 -228t-243 -75h-8q-164 0 -244 74.5t-80 228.5v1106q0 41 43 41h27q41 0 41 -41v-1069q0 -129 48.5 -183.5t168.5 -54.5
t168.5 54.5t48.5 183.5v1069q0 41 41 41h26z" />
    <glyph glyph-name="Ucircumflex" unicode="&#xdb;" 
d="M639 1546q22 0 28 15.5t-8 35.5l-129 177q-17 28 -49 28h-45q-32 0 -49 -28l-129 -177q-13 -20 -7 -35.5t28 -15.5h24q32 0 49 29l107 147l106 -147q17 -29 49 -29h25zM743 1434q43 0 43 -41v-1106q0 -153 -80 -228t-243 -75h-8q-164 0 -244 74.5t-80 228.5v1106
q0 41 43 41h27q41 0 41 -41v-1069q0 -129 48.5 -183.5t168.5 -54.5t168.5 54.5t48.5 183.5v1069q0 41 41 41h26z" />
    <glyph glyph-name="Udieresis" unicode="&#xdc;" 
d="M338 1690q43 0 43 -41v-62q0 -41 -43 -41h-33q-41 0 -41 41v62q0 41 41 41h33zM612 1690q41 0 41 -41v-62q0 -41 -41 -41h-32q-43 0 -43 41v62q0 41 43 41h32zM743 1434q43 0 43 -41v-1106q0 -153 -80 -228t-243 -75h-8q-164 0 -244 74.5t-80 228.5v1106q0 41 43 41h27
q41 0 41 -41v-1069q0 -129 48.5 -183.5t168.5 -54.5t168.5 54.5t48.5 183.5v1069q0 41 41 41h26z" />
    <glyph glyph-name="Yacute" unicode="&#xdd;" horiz-adv-x="847" 
d="M496 1772q15 30 49 30h47q26 0 33.5 -16.5t-9.5 -36.5l-139 -180q-17 -23 -47 -23h-6q-48 0 -29 47zM479 559v-518q0 -41 -41 -41h-28q-41 0 -41 41v518l-301 827q-15 48 32 48h29q37 0 49 -35l246 -709l248 709q9 35 47 35h29q47 0 32 -48z" />
    <glyph glyph-name="Thorn" unicode="&#xde;" horiz-adv-x="882" 
d="M473 1145q162 0 245 -76.5t83 -226.5v-228q0 -150 -83 -226.5t-245 -76.5h-227v-270q0 -41 -41 -41h-27q-43 0 -43 41v1352q0 41 43 41h27q41 0 41 -41v-248h227zM690 651v154q0 127 -52 182t-173 55h-219v-628h219q121 0 173 55t52 182z" />
    <glyph glyph-name="germandbls" unicode="&#xdf;" horiz-adv-x="1712" 
d="M750 981q0 -43 -43 -43h-27q-19 0 -30 11.5t-11 31.5v141q0 120 -48.5 174t-162.5 54t-162.5 -54t-48.5 -174v-100q0 -76 29 -112t116 -81l220 -120q172 -91 172 -242v-184q0 -153 -79.5 -226t-242.5 -73h-4q-164 0 -243 72.5t-79 226.5v190q0 20 12 31.5t32 11.5h26
q19 0 30 -11.5t11 -31.5v-158q0 -120 49 -175.5t164 -55.5t164 55.5t49 175.5v115q0 76 -32 116t-119 89l-216 117q-94 54 -132 104t-38 133v166q0 145 84.5 220t235.5 75h4q151 0 235.5 -75t84.5 -220v-174zM1606 981q0 -43 -43 -43h-27q-19 0 -30 11.5t-11 31.5v141
q0 120 -48.5 174t-162.5 54t-162.5 -54t-48.5 -174v-100q0 -53 15 -86t43 -54.5t88 -52.5l219 -120q172 -91 172 -242v-184q0 -153 -79.5 -226t-242.5 -73h-4q-164 0 -242.5 72.5t-78.5 226.5v190q0 43 43 43h26q19 0 30 -11.5t11 -31.5v-158q0 -120 49 -175.5t164 -55.5
t164 55.5t49 175.5v115q0 76 -32 116t-119 89l-215 117q-94 54 -132 104t-38 133v166q0 145 84 220t235 75h4q151 0 235.5 -75t84.5 -220v-174z" />
    <glyph glyph-name="agrave" unicode="&#xe0;" horiz-adv-x="868" 
d="M381 1569l-139 180q-17 20 -9 36.5t33 16.5h47q36 0 52 -30l98 -179q10 -22 5 -34.5t-24 -12.5h-16q-30 0 -47 23zM809 47q9 -47 -37 -47h-31q-37 0 -45 37l-71 332h-387l-72 -332q-5 -37 -45 -37h-25q-43 0 -37 47l303 1350q5 37 46 37h49q40 0 45 -37zM260 469h342
l-170 791z" />
    <glyph glyph-name="aacute" unicode="&#xe1;" horiz-adv-x="868" 
d="M432 1546q-48 0 -29 47l101 179q15 30 49 30h47q26 0 34 -16.5t-9 -36.5l-140 -180q-17 -23 -47 -23h-6zM809 47q9 -47 -37 -47h-31q-37 0 -45 37l-71 332h-387l-72 -332q-5 -37 -45 -37h-25q-43 0 -37 47l303 1350q5 37 46 37h49q40 0 45 -37zM260 469h342l-170 791z
" />
    <glyph glyph-name="acircumflex" unicode="&#xe2;" horiz-adv-x="868" 
d="M252 1546q-22 0 -28 15.5t7 35.5l129 177q17 28 50 28h45q32 0 49 -28l129 -177q13 -20 7 -35.5t-28 -15.5h-24q-32 0 -49 29l-107 147l-106 -147q-17 -29 -50 -29h-24zM809 47q9 -47 -37 -47h-31q-37 0 -45 37l-71 332h-387l-72 -332q-5 -37 -45 -37h-25q-43 0 -37 47
l303 1350q5 37 46 37h49q40 0 45 -37zM260 469h342l-170 791z" />
    <glyph glyph-name="atilde" unicode="&#xe3;" horiz-adv-x="868" 
d="M176 1554q-39 0 -39 39q0 95 45 145t115 50q36 0 68.5 -16t56.5 -39t46.5 -46t47 -39t49.5 -16q72 0 72 111q0 33 39 33h12q39 0 39 -37q0 -97 -44 -146t-114 -49q-35 0 -67.5 16t-56.5 38.5t-46.5 45t-47.5 38.5t-50 16q-76 0 -76 -109q0 -35 -37 -35h-12zM809 47
q9 -47 -37 -47h-31q-37 0 -45 37l-71 332h-387l-72 -332q-5 -37 -45 -37h-25q-43 0 -37 47l303 1350q5 37 46 37h49q40 0 45 -37zM260 469h342l-170 791z" />
    <glyph glyph-name="adieresis" unicode="&#xe4;" horiz-adv-x="868" 
d="M279 1546q-41 0 -41 41v62q0 41 41 41h32q43 0 43 -41v-62q0 -41 -43 -41h-32zM553 1546q-43 0 -43 41v62q0 41 43 41h33q41 0 41 -41v-62q0 -41 -41 -41h-33zM809 47q9 -47 -37 -47h-31q-37 0 -45 37l-71 332h-387l-72 -332q-5 -37 -45 -37h-25q-43 0 -37 47l303 1350
q5 37 46 37h49q40 0 45 -37zM260 469h342l-170 791z" />
    <glyph glyph-name="aring" unicode="&#xe5;" horiz-adv-x="868" 
d="M432 1534q-78 0 -123 43t-45 115t45 114.5t123 42.5q76 0 121 -42.5t45 -114.5t-45 -115t-121 -43zM432 1780q-40 0 -65 -22t-25 -66t25 -66t65 -22t64 22t24 66t-24 66t-64 22zM809 47q9 -47 -37 -47h-31q-37 0 -45 37l-71 332h-387l-72 -332q-5 -37 -45 -37h-25
q-43 0 -37 47l303 1350q5 37 46 37h49q40 0 45 -37zM260 469h342l-170 791z" />
    <glyph glyph-name="ae" unicode="&#xe6;" horiz-adv-x="1265" 
d="M1157 102q43 0 43 -43v-18q0 -41 -43 -41h-483q-43 0 -43 41v328h-365l-106 -334q-11 -35 -47 -35h-27q-48 0 -33 47l439 1352q8 35 47 35h612q43 0 43 -41v-19q0 -43 -43 -43h-410v-553h346q43 0 43 -43v-16q0 -43 -43 -43h-346v-574h416zM299 467h332v864h-56z" />
    <glyph glyph-name="ccedilla" unicode="&#xe7;" horiz-adv-x="905" 
d="M717 901q-41 0 -41 43v166q0 127 -50 182.5t-169 55.5t-169 -55.5t-50 -182.5v-786q0 -127 50 -182.5t169 -55.5t169 55.5t50 182.5v200q0 43 41 43h26q43 0 43 -43v-237q0 -285 -290 -303v-82q0 -86 -33 -122t-111 -36q-30 0 -57 6q-22 2 -33 31l-4 8q-6 17 1 28t26 11
h32q48 0 66 17.5t18 64.5v76q-274 21 -274 301v860q0 148 83 225.5t245 77.5h4q162 0 244.5 -77t82.5 -226v-203q0 -43 -43 -43h-26z" />
    <glyph glyph-name="egrave" unicode="&#xe8;" horiz-adv-x="770" 
d="M295 1802q35 0 51 -30l98 -179q10 -22 5.5 -34.5t-23.5 -12.5h-16q-31 0 -48 23l-139 180q-17 20 -8.5 36.5t33.5 16.5h47zM705 41q0 -41 -43 -41h-484q-43 0 -43 41v1352q0 41 43 41h477q43 0 43 -41v-19q0 -43 -43 -43h-409v-553h346q43 0 43 -43v-16q0 -43 -43 -43
h-346v-574h416q43 0 43 -43v-18z" />
    <glyph glyph-name="eacute" unicode="&#xe9;" horiz-adv-x="770" 
d="M485 1772q15 30 50 30h47q26 0 33.5 -16.5t-9.5 -36.5l-139 -180q-17 -23 -47 -23h-6q-48 0 -29 47zM705 41q0 -41 -43 -41h-484q-43 0 -43 41v1352q0 41 43 41h477q43 0 43 -41v-19q0 -43 -43 -43h-409v-553h346q43 0 43 -43v-16q0 -43 -43 -43h-346v-574h416
q43 0 43 -43v-18z" />
    <glyph glyph-name="ecircumflex" unicode="&#xea;" horiz-adv-x="770" 
d="M594 1546q22 0 28 15.5t-8 35.5l-129 177q-17 28 -49 28h-45q-32 0 -49 -28l-129 -177q-14 -20 -8 -35.5t28 -15.5h25q32 0 49 29l107 147l106 -147q17 -29 49 -29h25zM705 41q0 -41 -43 -41h-484q-43 0 -43 41v1352q0 41 43 41h477q43 0 43 -41v-19q0 -43 -43 -43h-409
v-553h346q43 0 43 -43v-16q0 -43 -43 -43h-346v-574h416q43 0 43 -43v-18z" />
    <glyph glyph-name="edieresis" unicode="&#xeb;" horiz-adv-x="770" 
d="M293 1690q43 0 43 -41v-62q0 -41 -43 -41h-33q-41 0 -41 41v62q0 41 41 41h33zM567 1690q41 0 41 -41v-62q0 -41 -41 -41h-32q-43 0 -43 41v62q0 41 43 41h32zM705 41q0 -41 -43 -41h-484q-43 0 -43 41v1352q0 41 43 41h477q43 0 43 -41v-19q0 -43 -43 -43h-409v-553h346
q43 0 43 -43v-16q0 -43 -43 -43h-346v-574h416q43 0 43 -43v-18z" />
    <glyph glyph-name="igrave" unicode="&#xec;" horiz-adv-x="399" 
d="M80 1802q35 0 51 -30l98 -179q10 -22 5.5 -34.5t-23.5 -12.5h-16q-31 0 -48 23l-139 180q-17 20 -8.5 36.5t33.5 16.5h47zM254 41q0 -41 -41 -41h-27q-43 0 -43 41v1352q0 41 43 41h27q41 0 41 -41v-1352z" />
    <glyph glyph-name="iacute" unicode="&#xed;" horiz-adv-x="399" 
d="M270 1772q15 30 49 30h48q26 0 33.5 -16.5t-9.5 -36.5l-139 -180q-17 -23 -47 -23h-6q-48 0 -29 47zM254 41q0 -41 -41 -41h-27q-43 0 -43 41v1352q0 41 43 41h27q41 0 41 -41v-1352z" />
    <glyph glyph-name="icircumflex" unicode="&#xee;" horiz-adv-x="399" 
d="M379 1546q22 0 28 15.5t-8 35.5l-129 177q-17 28 -49 28h-45q-32 0 -49 -28l-129 -177q-14 -20 -8 -35.5t28 -15.5h25q32 0 49 29l107 147l106 -147q17 -29 49 -29h25zM254 41q0 -41 -41 -41h-27q-43 0 -43 41v1352q0 41 43 41h27q41 0 41 -41v-1352z" />
    <glyph glyph-name="idieresis" unicode="&#xef;" horiz-adv-x="399" 
d="M78 1690q43 0 43 -41v-62q0 -41 -43 -41h-33q-41 0 -41 41v62q0 41 41 41h33zM352 1690q41 0 41 -41v-62q0 -41 -41 -41h-33q-43 0 -43 41v62q0 41 43 41h33zM254 41q0 -41 -41 -41h-27q-43 0 -43 41v1352q0 41 43 41h27q41 0 41 -41v-1352z" />
    <glyph glyph-name="eth" unicode="&#xf0;" horiz-adv-x="944" 
d="M489 1434q328 0 328 -304v-827q0 -303 -328 -303h-290q-43 0 -43 41v637h-68q-43 0 -43 43v16q0 43 43 43h68v613q0 41 43 41h290zM707 340v754q0 127 -52 182t-174 55h-215v-551h213q41 0 41 -43v-16q0 -43 -41 -43h-213v-576h215q121 0 173.5 55t52.5 183z" />
    <glyph glyph-name="ntilde" unicode="&#xf1;" horiz-adv-x="960" 
d="M279 1589q0 109 75 109q25 0 50 -16t47.5 -38.5t47 -45t57 -38.5t67.5 -16q70 0 113.5 49t43.5 146q0 37 -39 37h-12q-39 0 -39 -33q0 -111 -72 -111q-25 0 -49.5 16t-47 39t-46.5 46t-56.5 39t-68.5 16q-70 0 -115 -50t-45 -145q0 -39 39 -39h13q37 0 37 35zM242 41
q0 -41 -41 -41h-23q-43 0 -43 41v1352q0 41 43 41h37q36 0 47 -33l457 -1139v1131q0 41 41 41h22q43 0 43 -41v-1352q0 -41 -43 -41h-30q-38 0 -47 33l-463 1147v-1139z" />
    <glyph glyph-name="ograve" unicode="&#xf2;" horiz-adv-x="925" 
d="M344 1802q35 0 51 -30l99 -179q10 -22 5 -34.5t-24 -12.5h-16q-30 0 -47 23l-140 180q-17 20 -8.5 36.5t33.5 16.5h47zM127 1147q0 303 328 303h16q328 0 328 -303v-860q0 -303 -328 -303h-16q-328 0 -328 303v860zM238 324q0 -128 52 -183t173 -55t173 55t52 183v786
q0 128 -52 183t-173 55t-173 -55t-52 -183v-786z" />
    <glyph glyph-name="oacute" unicode="&#xf3;" horiz-adv-x="925" 
d="M535 1772q15 30 49 30h47q26 0 33.5 -16.5t-9.5 -36.5l-139 -180q-17 -23 -47 -23h-6q-48 0 -29 47zM127 1147q0 303 328 303h16q328 0 328 -303v-860q0 -303 -328 -303h-16q-328 0 -328 303v860zM238 324q0 -128 52 -183t173 -55t173 55t52 183v786q0 128 -52 183
t-173 55t-173 -55t-52 -183v-786z" />
    <glyph glyph-name="ocircumflex" unicode="&#xf4;" horiz-adv-x="925" 
d="M643 1546q22 0 28 15.5t-7 35.5l-129 177q-17 28 -50 28h-45q-32 0 -49 -28l-129 -177q-13 -20 -7 -35.5t28 -15.5h24q32 0 49 29l107 147l106 -147q17 -29 49 -29h25zM127 1147q0 303 328 303h16q328 0 328 -303v-860q0 -303 -328 -303h-16q-328 0 -328 303v860z
M238 324q0 -128 52 -183t173 -55t173 55t52 183v786q0 128 -52 183t-173 55t-173 -55t-52 -183v-786z" />
    <glyph glyph-name="otilde" unicode="&#xf5;" horiz-adv-x="925" 
d="M256 1589q0 109 76 109q25 0 50 -16t47.5 -38.5t46.5 -45t56.5 -38.5t67.5 -16q70 0 114 49t44 146q0 37 -39 37h-12q-39 0 -39 -33q0 -111 -72 -111q-25 0 -49.5 16t-47 39t-46.5 46t-56.5 39t-68.5 16q-70 0 -115 -50t-45 -145q0 -39 39 -39h12q37 0 37 35zM127 1147
q0 303 328 303h16q328 0 328 -303v-860q0 -303 -328 -303h-16q-328 0 -328 303v860zM238 324q0 -128 52 -183t173 -55t173 55t52 183v786q0 128 -52 183t-173 55t-173 -55t-52 -183v-786z" />
    <glyph glyph-name="odieresis" unicode="&#xf6;" horiz-adv-x="925" 
d="M342 1690q43 0 43 -41v-62q0 -41 -43 -41h-33q-41 0 -41 41v62q0 41 41 41h33zM616 1690q41 0 41 -41v-62q0 -41 -41 -41h-32q-43 0 -43 41v62q0 41 43 41h32zM127 1147q0 303 328 303h16q328 0 328 -303v-860q0 -303 -328 -303h-16q-328 0 -328 303v860zM238 324
q0 -128 52 -183t173 -55t173 55t52 183v786q0 128 -52 183t-173 55t-173 -55t-52 -183v-786z" />
    <glyph glyph-name="divide" unicode="&#xf7;" horiz-adv-x="860" 
d="M446 1147q43 0 43 -41v-57q0 -43 -43 -43h-32q-43 0 -43 43v57q0 41 43 41h32zM702 776q41 0 41 -43v-8q0 -43 -41 -43h-544q-41 0 -41 43v8q0 43 41 43h544zM446 453q43 0 43 -43v-58q0 -43 -43 -43h-32q-43 0 -43 43v58q0 43 43 43h32z" />
    <glyph glyph-name="oslash" unicode="&#xf8;" horiz-adv-x="925" 
d="M471 1450q328 0 328 -303v-860q0 -303 -328 -303h-16q-328 0 -328 303v860q0 303 328 303h16zM238 1110v-786q0 -126 51 -183l268 1196q-49 11 -94 11q-121 0 -173 -55t-52 -183zM688 324v786q0 125 -51 182l-268 -1196q45 -10 94 -10q121 0 173 55t52 183z" />
    <glyph glyph-name="ugrave" unicode="&#xf9;" 
d="M340 1802q35 0 51 -30l98 -179q10 -22 5.5 -34.5t-23.5 -12.5h-16q-30 0 -47 23l-140 180q-17 20 -8.5 36.5t33.5 16.5h47zM743 1434q43 0 43 -41v-1106q0 -153 -80 -228t-243 -75h-8q-164 0 -244 74.5t-80 228.5v1106q0 41 43 41h27q41 0 41 -41v-1069
q0 -129 48.5 -183.5t168.5 -54.5t168.5 54.5t48.5 183.5v1069q0 41 41 41h26z" />
    <glyph glyph-name="uacute" unicode="&#xfa;" 
d="M530 1772q15 30 50 30h47q26 0 33.5 -16.5t-9.5 -36.5l-139 -180q-17 -23 -47 -23h-6q-48 0 -29 47zM743 1434q43 0 43 -41v-1106q0 -153 -80 -228t-243 -75h-8q-164 0 -244 74.5t-80 228.5v1106q0 41 43 41h27q41 0 41 -41v-1069q0 -129 48.5 -183.5t168.5 -54.5
t168.5 54.5t48.5 183.5v1069q0 41 41 41h26z" />
    <glyph glyph-name="ucircumflex" unicode="&#xfb;" 
d="M639 1546q22 0 28 15.5t-8 35.5l-129 177q-17 28 -49 28h-45q-32 0 -49 -28l-129 -177q-13 -20 -7 -35.5t28 -15.5h24q32 0 49 29l107 147l106 -147q17 -29 49 -29h25zM743 1434q43 0 43 -41v-1106q0 -153 -80 -228t-243 -75h-8q-164 0 -244 74.5t-80 228.5v1106
q0 41 43 41h27q41 0 41 -41v-1069q0 -129 48.5 -183.5t168.5 -54.5t168.5 54.5t48.5 183.5v1069q0 41 41 41h26z" />
    <glyph glyph-name="udieresis" unicode="&#xfc;" 
d="M338 1690q43 0 43 -41v-62q0 -41 -43 -41h-33q-41 0 -41 41v62q0 41 41 41h33zM612 1690q41 0 41 -41v-62q0 -41 -41 -41h-32q-43 0 -43 41v62q0 41 43 41h32zM743 1434q43 0 43 -41v-1106q0 -153 -80 -228t-243 -75h-8q-164 0 -244 74.5t-80 228.5v1106q0 41 43 41h27
q41 0 41 -41v-1069q0 -129 48.5 -183.5t168.5 -54.5t168.5 54.5t48.5 183.5v1069q0 41 41 41h26z" />
    <glyph glyph-name="yacute" unicode="&#xfd;" horiz-adv-x="847" 
d="M496 1772q15 30 49 30h47q26 0 33.5 -16.5t-9.5 -36.5l-139 -180q-17 -23 -47 -23h-6q-48 0 -29 47zM479 559v-518q0 -41 -41 -41h-28q-41 0 -41 41v518l-301 827q-15 48 32 48h29q37 0 49 -35l246 -709l248 709q9 35 47 35h29q47 0 32 -48z" />
    <glyph glyph-name="thorn" unicode="&#xfe;" horiz-adv-x="882" 
d="M473 1145q162 0 245 -76.5t83 -226.5v-228q0 -150 -83 -226.5t-245 -76.5h-227v-270q0 -41 -41 -41h-27q-43 0 -43 41v1352q0 41 43 41h27q41 0 41 -41v-248h227zM690 651v154q0 127 -52 182t-173 55h-219v-628h219q121 0 173 55t52 182z" />
    <glyph glyph-name="ydieresis" unicode="&#xff;" horiz-adv-x="847" 
d="M303 1690q43 0 43 -41v-62q0 -41 -43 -41h-33q-41 0 -41 41v62q0 41 41 41h33zM578 1690q40 0 40 -41v-62q0 -41 -40 -41h-33q-43 0 -43 41v62q0 41 43 41h33zM479 559v-518q0 -41 -41 -41h-28q-41 0 -41 41v518l-301 827q-15 48 32 48h29q37 0 49 -35l246 -709l248 709
q9 35 47 35h29q47 0 32 -48z" />
    <glyph glyph-name="Amacron" unicode="&#x100;" horiz-adv-x="868" 
d="M242 1546q-41 0 -41 41v12q0 41 41 41h381q41 0 41 -41v-12q0 -41 -41 -41h-381zM809 47q9 -47 -37 -47h-31q-37 0 -45 37l-71 332h-387l-72 -332q-5 -37 -45 -37h-25q-43 0 -37 47l303 1350q5 37 46 37h49q40 0 45 -37zM260 469h342l-170 791z" />
    <glyph glyph-name="amacron" unicode="&#x101;" horiz-adv-x="868" 
d="M242 1546q-41 0 -41 41v12q0 41 41 41h381q41 0 41 -41v-12q0 -41 -41 -41h-381zM809 47q9 -47 -37 -47h-31q-37 0 -45 37l-71 332h-387l-72 -332q-5 -37 -45 -37h-25q-43 0 -37 47l303 1350q5 37 46 37h49q40 0 45 -37zM260 469h342l-170 791z" />
    <glyph glyph-name="Abreve" unicode="&#x102;" horiz-adv-x="868" 
d="M420 1544q-91 0 -144 41.5t-53 120.5v37q0 41 41 41h12q39 0 39 -41v-19q0 -51 27 -74.5t86 -23.5h8q59 0 86 23.5t27 74.5v19q0 41 39 41h12q41 0 41 -41v-39q0 -78 -53.5 -119t-143.5 -41h-24zM809 47q9 -47 -37 -47h-31q-37 0 -45 37l-71 332h-387l-72 -332
q-5 -37 -45 -37h-25q-43 0 -37 47l303 1350q5 37 46 37h49q40 0 45 -37zM260 469h342l-170 791z" />
    <glyph glyph-name="abreve" unicode="&#x103;" horiz-adv-x="868" 
d="M420 1544q-91 0 -144 41.5t-53 120.5v37q0 41 41 41h12q39 0 39 -41v-19q0 -51 27 -74.5t86 -23.5h8q59 0 86 23.5t27 74.5v19q0 41 39 41h12q41 0 41 -41v-39q0 -78 -53.5 -119t-143.5 -41h-24zM809 47q9 -47 -37 -47h-31q-37 0 -45 37l-71 332h-387l-72 -332
q-5 -37 -45 -37h-25q-43 0 -37 47l303 1350q5 37 46 37h49q40 0 45 -37zM260 469h342l-170 791z" />
    <glyph glyph-name="Aogonek" unicode="&#x104;" horiz-adv-x="868" 
d="M772 -211q35 9 35 -12v-10q0 -24 -16 -37q-33 -23 -76 -23q-57 0 -92 36t-39 85.5t27 103.5t94 86q-6 6 -9 19l-71 332h-387l-72 -332q-5 -37 -45 -37h-25q-43 0 -37 47l303 1350q5 37 46 37h49q40 0 45 -37l307 -1350q9 -47 -37 -47q-62 -31 -85.5 -83.5t-4 -92
t67.5 -39.5q10 0 22 4zM260 469h342l-170 791z" />
    <glyph glyph-name="aogonek" unicode="&#x105;" horiz-adv-x="868" 
d="M772 -211q35 9 35 -12v-10q0 -24 -16 -37q-33 -23 -76 -23q-57 0 -92 36t-39 85.5t27 103.5t94 86q-6 6 -9 19l-71 332h-387l-72 -332q-5 -37 -45 -37h-25q-43 0 -37 47l303 1350q5 37 46 37h49q40 0 45 -37l307 -1350q9 -47 -37 -47q-62 -31 -85.5 -83.5t-4 -92
t67.5 -39.5q10 0 22 4zM260 469h342l-170 791z" />
    <glyph glyph-name="Cacute" unicode="&#x106;" horiz-adv-x="905" 
d="M528 1772q15 30 50 30h47q26 0 33.5 -16.5t-9.5 -36.5l-139 -180q-17 -23 -47 -23h-6q-48 0 -29 47zM743 567q43 0 43 -43v-237q0 -303 -327 -303h-4q-164 0 -246 74.5t-82 228.5v860q0 148 83 225.5t245 77.5h4q162 0 244.5 -77t82.5 -226v-203q0 -43 -43 -43h-26
q-41 0 -41 43v166q0 127 -50 182.5t-169 55.5t-169 -55.5t-50 -182.5v-786q0 -127 50 -182.5t169 -55.5t169 55.5t50 182.5v200q0 43 41 43h26z" />
    <glyph glyph-name="cacute" unicode="&#x107;" horiz-adv-x="905" 
d="M528 1772q15 30 50 30h47q26 0 33.5 -16.5t-9.5 -36.5l-139 -180q-17 -23 -47 -23h-6q-48 0 -29 47zM743 567q43 0 43 -43v-237q0 -303 -327 -303h-4q-164 0 -246 74.5t-82 228.5v860q0 148 83 225.5t245 77.5h4q162 0 244.5 -77t82.5 -226v-203q0 -43 -43 -43h-26
q-41 0 -41 43v166q0 127 -50 182.5t-169 55.5t-169 -55.5t-50 -182.5v-786q0 -127 50 -182.5t169 -55.5t169 55.5t50 182.5v200q0 43 41 43h26z" />
    <glyph glyph-name="Cdotaccent" unicode="&#x10a;" horiz-adv-x="905" 
d="M473 1690q43 0 43 -41v-62q0 -41 -43 -41h-33q-43 0 -43 41v62q0 41 43 41h33zM743 567q43 0 43 -43v-237q0 -303 -327 -303h-4q-164 0 -246 74.5t-82 228.5v860q0 148 83 225.5t245 77.5h4q162 0 244.5 -77t82.5 -226v-203q0 -43 -43 -43h-26q-41 0 -41 43v166
q0 127 -50 182.5t-169 55.5t-169 -55.5t-50 -182.5v-786q0 -127 50 -182.5t169 -55.5t169 55.5t50 182.5v200q0 43 41 43h26z" />
    <glyph glyph-name="cdotaccent" unicode="&#x10b;" horiz-adv-x="905" 
d="M473 1690q43 0 43 -41v-62q0 -41 -43 -41h-33q-43 0 -43 41v62q0 41 43 41h33zM743 567q43 0 43 -43v-237q0 -303 -327 -303h-4q-164 0 -246 74.5t-82 228.5v860q0 148 83 225.5t245 77.5h4q162 0 244.5 -77t82.5 -226v-203q0 -43 -43 -43h-26q-41 0 -41 43v166
q0 127 -50 182.5t-169 55.5t-169 -55.5t-50 -182.5v-786q0 -127 50 -182.5t169 -55.5t169 55.5t50 182.5v200q0 43 41 43h26z" />
    <glyph glyph-name="Ccaron" unicode="&#x10c;" horiz-adv-x="905" 
d="M657 1751q14 20 8 35.5t-28 15.5h-25q-32 0 -49 -28l-106 -148l-107 148q-17 28 -49 28h-18q-25 0 -32.5 -15.5t7.5 -35.5l127 -178q18 -27 49 -27h45q31 0 49 27zM743 567q43 0 43 -43v-237q0 -303 -327 -303h-4q-164 0 -246 74.5t-82 228.5v860q0 148 83 225.5
t245 77.5h4q162 0 244.5 -77t82.5 -226v-203q0 -43 -43 -43h-26q-41 0 -41 43v166q0 127 -50 182.5t-169 55.5t-169 -55.5t-50 -182.5v-786q0 -127 50 -182.5t169 -55.5t169 55.5t50 182.5v200q0 43 41 43h26z" />
    <glyph glyph-name="ccaron" unicode="&#x10d;" horiz-adv-x="905" 
d="M657 1751q14 20 8 35.5t-28 15.5h-25q-32 0 -49 -28l-106 -148l-107 148q-17 28 -49 28h-18q-25 0 -32.5 -15.5t7.5 -35.5l127 -178q18 -27 49 -27h45q31 0 49 27zM743 567q43 0 43 -43v-237q0 -303 -327 -303h-4q-164 0 -246 74.5t-82 228.5v860q0 148 83 225.5
t245 77.5h4q162 0 244.5 -77t82.5 -226v-203q0 -43 -43 -43h-26q-41 0 -41 43v166q0 127 -50 182.5t-169 55.5t-169 -55.5t-50 -182.5v-786q0 -127 50 -182.5t169 -55.5t169 55.5t50 182.5v200q0 43 41 43h26z" />
    <glyph glyph-name="Dcaron" unicode="&#x10e;" horiz-adv-x="923" 
d="M651 1751q14 20 8 35.5t-28 15.5h-25q-32 0 -49 -28l-106 -148l-107 148q-17 28 -49 28h-19q-25 0 -32 -15.5t8 -35.5l127 -178q18 -27 49 -27h45q31 0 49 27zM469 1434q328 0 328 -304v-827q0 -303 -328 -303h-291q-43 0 -43 41v1352q0 41 43 41h291zM686 1094
q0 128 -52 182.5t-173 54.5h-215v-1229h215q121 0 173 55t52 183v754z" />
    <glyph glyph-name="dcaron" unicode="&#x10f;" horiz-adv-x="923" 
d="M651 1751q14 20 8 35.5t-28 15.5h-25q-32 0 -49 -28l-106 -148l-107 148q-17 28 -49 28h-19q-25 0 -32 -15.5t8 -35.5l127 -178q18 -27 49 -27h45q31 0 49 27zM469 1434q328 0 328 -304v-827q0 -303 -328 -303h-291q-43 0 -43 41v1352q0 41 43 41h291zM686 1094
q0 128 -52 182.5t-173 54.5h-215v-1229h215q121 0 173 55t52 183v754z" />
    <glyph glyph-name="Dcroat" unicode="&#x110;" horiz-adv-x="944" 
d="M489 1434q328 0 328 -304v-827q0 -303 -328 -303h-290q-43 0 -43 41v637h-68q-43 0 -43 43v16q0 43 43 43h68v613q0 41 43 41h290zM707 340v754q0 127 -52 182t-174 55h-215v-551h213q41 0 41 -43v-16q0 -43 -41 -43h-213v-576h215q121 0 173.5 55t52.5 183z" />
    <glyph glyph-name="dcroat" unicode="&#x111;" horiz-adv-x="944" 
d="M489 1434q328 0 328 -304v-827q0 -303 -328 -303h-290q-43 0 -43 41v637h-68q-43 0 -43 43v16q0 43 43 43h68v613q0 41 43 41h290zM707 340v754q0 127 -52 182t-174 55h-215v-551h213q41 0 41 -43v-16q0 -43 -41 -43h-213v-576h215q121 0 173.5 55t52.5 183z" />
    <glyph glyph-name="Emacron" unicode="&#x112;" horiz-adv-x="770" 
d="M645 1587q0 -41 -41 -41h-381q-41 0 -41 41v12q0 41 41 41h381q41 0 41 -41v-12zM705 41q0 -41 -43 -41h-484q-43 0 -43 41v1352q0 41 43 41h477q43 0 43 -41v-19q0 -43 -43 -43h-409v-553h346q43 0 43 -43v-16q0 -43 -43 -43h-346v-574h416q43 0 43 -43v-18z" />
    <glyph glyph-name="emacron" unicode="&#x113;" horiz-adv-x="770" 
d="M645 1587q0 -41 -41 -41h-381q-41 0 -41 41v12q0 41 41 41h381q41 0 41 -41v-12zM705 41q0 -41 -43 -41h-484q-43 0 -43 41v1352q0 41 43 41h477q43 0 43 -41v-19q0 -43 -43 -43h-409v-553h346q43 0 43 -43v-16q0 -43 -43 -43h-346v-574h416q43 0 43 -43v-18z" />
    <glyph glyph-name="Ebreve" unicode="&#x114;" horiz-adv-x="770" 
d="M582 1784q41 0 41 -41v-39q0 -78 -53.5 -119t-143.5 -41h-25q-91 0 -143.5 41t-52.5 121v37q0 41 41 41h12q39 0 39 -41v-19q0 -51 27 -74.5t86 -23.5h8q58 0 85 23.5t27 74.5v19q0 41 39 41h13zM705 41q0 -41 -43 -41h-484q-43 0 -43 41v1352q0 41 43 41h477
q43 0 43 -41v-19q0 -43 -43 -43h-409v-553h346q43 0 43 -43v-16q0 -43 -43 -43h-346v-574h416q43 0 43 -43v-18z" />
    <glyph glyph-name="ebreve" unicode="&#x115;" horiz-adv-x="770" 
d="M582 1784q41 0 41 -41v-39q0 -78 -53.5 -119t-143.5 -41h-25q-91 0 -143.5 41t-52.5 121v37q0 41 41 41h12q39 0 39 -41v-19q0 -51 27 -74.5t86 -23.5h8q58 0 85 23.5t27 74.5v19q0 41 39 41h13zM705 41q0 -41 -43 -41h-484q-43 0 -43 41v1352q0 41 43 41h477
q43 0 43 -41v-19q0 -43 -43 -43h-409v-553h346q43 0 43 -43v-16q0 -43 -43 -43h-346v-574h416q43 0 43 -43v-18z" />
    <glyph glyph-name="Edotaccent" unicode="&#x116;" horiz-adv-x="770" 
d="M430 1690q43 0 43 -41v-62q0 -41 -43 -41h-33q-43 0 -43 41v62q0 41 43 41h33zM705 41q0 -41 -43 -41h-484q-43 0 -43 41v1352q0 41 43 41h477q43 0 43 -41v-19q0 -43 -43 -43h-409v-553h346q43 0 43 -43v-16q0 -43 -43 -43h-346v-574h416q43 0 43 -43v-18z" />
    <glyph glyph-name="edotaccent" unicode="&#x117;" horiz-adv-x="770" 
d="M430 1690q43 0 43 -41v-62q0 -41 -43 -41h-33q-43 0 -43 41v62q0 41 43 41h33zM705 41q0 -41 -43 -41h-484q-43 0 -43 41v1352q0 41 43 41h477q43 0 43 -41v-19q0 -43 -43 -43h-409v-553h346q43 0 43 -43v-16q0 -43 -43 -43h-346v-574h416q43 0 43 -43v-18z" />
    <glyph glyph-name="Eogonek" unicode="&#x118;" horiz-adv-x="770" 
d="M662 0q-62 -31 -85.5 -83.5t-4.5 -92t67 -39.5q11 0 23 4q34 9 34 -12v-10q0 -24 -16 -37q-33 -23 -76 -23q-71 0 -107 52.5t-19 123t85 117.5h-385q-43 0 -43 41v1352q0 41 43 41h477q43 0 43 -41v-19q0 -43 -43 -43h-409v-553h346q43 0 43 -43v-16q0 -43 -43 -43h-346
v-574h416q43 0 43 -43v-18q0 -41 -43 -41z" />
    <glyph glyph-name="eogonek" unicode="&#x119;" horiz-adv-x="770" 
d="M662 0q-62 -31 -85.5 -83.5t-4.5 -92t67 -39.5q11 0 23 4q34 9 34 -12v-10q0 -24 -16 -37q-33 -23 -76 -23q-71 0 -107 52.5t-19 123t85 117.5h-385q-43 0 -43 41v1352q0 41 43 41h477q43 0 43 -41v-19q0 -43 -43 -43h-409v-553h346q43 0 43 -43v-16q0 -43 -43 -43h-346
v-574h416q43 0 43 -43v-18q0 -41 -43 -41z" />
    <glyph glyph-name="Ecaron" unicode="&#x11a;" horiz-adv-x="770" 
d="M614 1751q14 20 8 35.5t-28 15.5h-25q-32 0 -49 -28l-106 -148l-107 148q-17 28 -49 28h-18q-25 0 -32.5 -15.5t7.5 -35.5l127 -178q18 -27 49 -27h45q31 0 49 27zM705 41q0 -41 -43 -41h-484q-43 0 -43 41v1352q0 41 43 41h477q43 0 43 -41v-19q0 -43 -43 -43h-409v-553
h346q43 0 43 -43v-16q0 -43 -43 -43h-346v-574h416q43 0 43 -43v-18z" />
    <glyph glyph-name="ecaron" unicode="&#x11b;" horiz-adv-x="770" 
d="M614 1751q14 20 8 35.5t-28 15.5h-25q-32 0 -49 -28l-106 -148l-107 148q-17 28 -49 28h-18q-25 0 -32.5 -15.5t7.5 -35.5l127 -178q18 -27 49 -27h45q31 0 49 27zM705 41q0 -41 -43 -41h-484q-43 0 -43 41v1352q0 41 43 41h477q43 0 43 -41v-19q0 -43 -43 -43h-409v-553
h346q43 0 43 -43v-16q0 -43 -43 -43h-346v-574h416q43 0 43 -43v-18z" />
    <glyph glyph-name="Gbreve" unicode="&#x11e;" horiz-adv-x="921" 
d="M631 1784q41 0 41 -41v-39q0 -78 -53.5 -119t-143.5 -41h-24q-91 0 -144 41.5t-53 120.5v37q0 41 41 41h12q39 0 39 -41v-19q0 -51 27 -74.5t86 -23.5h8q59 0 86 23.5t27 74.5v19q0 41 38 41h13zM756 711q20 0 31.5 -11t11.5 -30v-383q0 -303 -328 -303h-16
q-164 0 -246 74.5t-82 228.5v860q0 148 83 225.5t245 77.5h16q162 0 245 -77.5t83 -225.5v-146q0 -43 -43 -43h-27q-41 0 -41 43v109q0 128 -52 183t-173 55t-173 -55t-52 -183v-786q0 -128 52 -183t173 -55t173 55t52 183v286h-192q-41 0 -41 41v19q0 41 41 41h260z" />
    <glyph glyph-name="gbreve" unicode="&#x11f;" horiz-adv-x="921" 
d="M631 1784q41 0 41 -41v-39q0 -78 -53.5 -119t-143.5 -41h-24q-91 0 -144 41.5t-53 120.5v37q0 41 41 41h12q39 0 39 -41v-19q0 -51 27 -74.5t86 -23.5h8q59 0 86 23.5t27 74.5v19q0 41 38 41h13zM756 711q20 0 31.5 -11t11.5 -30v-383q0 -303 -328 -303h-16
q-164 0 -246 74.5t-82 228.5v860q0 148 83 225.5t245 77.5h16q162 0 245 -77.5t83 -225.5v-146q0 -43 -43 -43h-27q-41 0 -41 43v109q0 128 -52 183t-173 55t-173 -55t-52 -183v-786q0 -128 52 -183t173 -55t173 55t52 183v286h-192q-41 0 -41 41v19q0 41 41 41h260z" />
    <glyph glyph-name="Gdotaccent" unicode="&#x120;" horiz-adv-x="921" 
d="M479 1690q43 0 43 -41v-62q0 -41 -43 -41h-33q-43 0 -43 41v62q0 41 43 41h33zM756 711q20 0 31.5 -11t11.5 -30v-383q0 -303 -328 -303h-16q-164 0 -246 74.5t-82 228.5v860q0 148 83 225.5t245 77.5h16q162 0 245 -77.5t83 -225.5v-146q0 -43 -43 -43h-27q-41 0 -41 43
v109q0 128 -52 183t-173 55t-173 -55t-52 -183v-786q0 -128 52 -183t173 -55t173 55t52 183v286h-192q-41 0 -41 41v19q0 41 41 41h260z" />
    <glyph glyph-name="gdotaccent" unicode="&#x121;" horiz-adv-x="921" 
d="M479 1690q43 0 43 -41v-62q0 -41 -43 -41h-33q-43 0 -43 41v62q0 41 43 41h33zM756 711q20 0 31.5 -11t11.5 -30v-383q0 -303 -328 -303h-16q-164 0 -246 74.5t-82 228.5v860q0 148 83 225.5t245 77.5h16q162 0 245 -77.5t83 -225.5v-146q0 -43 -43 -43h-27q-41 0 -41 43
v109q0 128 -52 183t-173 55t-173 -55t-52 -183v-786q0 -128 52 -183t173 -55t173 55t52 183v286h-192q-41 0 -41 41v19q0 41 41 41h260z" />
    <glyph glyph-name="Gcommaaccent" unicode="&#x122;" horiz-adv-x="921" 
d="M756 711q20 0 31.5 -11t11.5 -30v-383q0 -303 -328 -303h-16q-164 0 -246 74.5t-82 228.5v860q0 148 83 225.5t245 77.5h16q162 0 245 -77.5t83 -225.5v-146q0 -43 -43 -43h-27q-41 0 -41 43v109q0 128 -52 183t-173 55t-173 -55t-52 -183v-786q0 -128 52 -183t173 -55
t173 55t52 183v286h-192q-41 0 -41 41v19q0 41 41 41h260zM479 -143q43 0 43 -43v-66q0 -135 -51 -250q-18 -35 -43 -24q-21 9 -8 49q37 85 37 184h-13q-43 0 -43 41v66q0 43 43 43h35z" />
    <glyph glyph-name="gcommaaccent" unicode="&#x123;" horiz-adv-x="921" 
d="M756 711q20 0 31.5 -11t11.5 -30v-383q0 -303 -328 -303h-16q-164 0 -246 74.5t-82 228.5v860q0 148 83 225.5t245 77.5h16q162 0 245 -77.5t83 -225.5v-146q0 -43 -43 -43h-27q-41 0 -41 43v109q0 128 -52 183t-173 55t-173 -55t-52 -183v-786q0 -128 52 -183t173 -55
t173 55t52 183v286h-192q-41 0 -41 41v19q0 41 41 41h260zM479 -143q43 0 43 -43v-66q0 -135 -51 -250q-18 -35 -43 -24q-21 9 -8 49q37 85 37 184h-13q-43 0 -43 41v66q0 43 43 43h35z" />
    <glyph glyph-name="Hbar" unicode="&#x126;" horiz-adv-x="993" 
d="M922 1153q15 0 24.5 -10t9.5 -27v-16q0 -17 -9.5 -27t-24.5 -10h-84v-1022q0 -41 -43 -41h-27q-41 0 -41 41v637h-461v-637q0 -41 -41 -41h-26q-43 0 -43 41v1022h-84q-15 0 -25 10t-10 27v16q0 17 10 27t25 10h84v240q0 41 43 41h26q41 0 41 -41v-240h461v240
q0 41 41 41h27q43 0 43 -41v-240h84zM727 780v283h-461v-283h461z" />
    <glyph glyph-name="hbar" unicode="&#x127;" horiz-adv-x="993" 
d="M922 1153q15 0 24.5 -10t9.5 -27v-16q0 -17 -9.5 -27t-24.5 -10h-84v-1022q0 -41 -43 -41h-27q-41 0 -41 41v637h-461v-637q0 -41 -41 -41h-26q-43 0 -43 41v1022h-84q-15 0 -25 10t-10 27v16q0 17 10 27t25 10h84v240q0 41 43 41h26q41 0 41 -41v-240h461v240
q0 41 41 41h27q43 0 43 -41v-240h84zM727 780v283h-461v-283h461z" />
    <glyph glyph-name="Imacron" unicode="&#x12a;" horiz-adv-x="399" 
d="M430 1587q0 -41 -41 -41h-381q-41 0 -41 41v12q0 41 41 41h381q41 0 41 -41v-12zM254 41q0 -41 -41 -41h-27q-43 0 -43 41v1352q0 41 43 41h27q41 0 41 -41v-1352z" />
    <glyph glyph-name="imacron" unicode="&#x12b;" horiz-adv-x="399" 
d="M430 1587q0 -41 -41 -41h-381q-41 0 -41 41v12q0 41 41 41h381q41 0 41 -41v-12zM254 41q0 -41 -41 -41h-27q-43 0 -43 41v1352q0 41 43 41h27q41 0 41 -41v-1352z" />
    <glyph glyph-name="Ibreve" unicode="&#x12c;" horiz-adv-x="399" 
d="M367 1784q41 0 41 -41v-39q0 -78 -53.5 -119t-143.5 -41h-25q-91 0 -143.5 41t-52.5 121v37q0 41 41 41h12q39 0 39 -41v-19q0 -51 27 -74.5t86 -23.5h8q58 0 85 23.5t27 74.5v19q0 41 39 41h13zM254 41q0 -41 -41 -41h-27q-43 0 -43 41v1352q0 41 43 41h27q41 0 41 -41
v-1352z" />
    <glyph glyph-name="ibreve" unicode="&#x12d;" horiz-adv-x="399" 
d="M367 1784q41 0 41 -41v-39q0 -78 -53.5 -119t-143.5 -41h-25q-91 0 -143.5 41t-52.5 121v37q0 41 41 41h12q39 0 39 -41v-19q0 -51 27 -74.5t86 -23.5h8q58 0 85 23.5t27 74.5v19q0 41 39 41h13zM254 41q0 -41 -41 -41h-27q-43 0 -43 41v1352q0 41 43 41h27q41 0 41 -41
v-1352z" />
    <glyph glyph-name="Iogonek" unicode="&#x12e;" horiz-adv-x="399" 
d="M213 0q-62 -31 -85.5 -83.5t-4.5 -92t67 -39.5q11 0 23 4q35 9 35 -12v-10q0 -23 -17 -37q-33 -23 -75 -23q-58 0 -93.5 36.5t-39.5 86t28 104t96 86.5q-4 12 -4 21v1352q0 41 43 41h27q41 0 41 -41v-1352q0 -41 -41 -41z" />
    <glyph glyph-name="iogonek" unicode="&#x12f;" horiz-adv-x="399" 
d="M213 0q-62 -31 -85.5 -83.5t-4.5 -92t67 -39.5q11 0 23 4q35 9 35 -12v-10q0 -23 -17 -37q-33 -23 -75 -23q-58 0 -93.5 36.5t-39.5 86t28 104t96 86.5q-4 12 -4 21v1352q0 41 43 41h27q41 0 41 -41v-1352q0 -41 -41 -41z" />
    <glyph glyph-name="Idotaccent" unicode="&#x130;" horiz-adv-x="399" 
d="M215 1690q43 0 43 -41v-62q0 -41 -43 -41h-33q-43 0 -43 41v62q0 41 43 41h33zM254 41q0 -41 -41 -41h-27q-43 0 -43 41v1352q0 41 43 41h27q41 0 41 -41v-1352z" />
    <glyph glyph-name="IJ" unicode="&#x132;" horiz-adv-x="718" 
d="M246 309q0 -43 -41 -43h-27q-43 0 -43 43v1084q0 41 43 41h27q41 0 41 -41v-1084zM252 102q121 0 173 56.5t52 185.5v1049q0 41 43 41h27q41 0 41 -41v-1090q0 -303 -332 -303h-78q-43 0 -43 41v20q0 41 43 41h74z" />
    <glyph glyph-name="ij" unicode="&#x133;" horiz-adv-x="718" 
d="M246 309q0 -43 -41 -43h-27q-43 0 -43 43v1084q0 41 43 41h27q41 0 41 -41v-1084zM252 102q121 0 173 56.5t52 185.5v1049q0 41 43 41h27q41 0 41 -41v-1090q0 -303 -332 -303h-78q-43 0 -43 41v20q0 41 43 41h74z" />
    <glyph glyph-name="Kcommaaccent" unicode="&#x136;" horiz-adv-x="880" 
d="M834 49q8 -22 -1 -35.5t-32 -13.5h-33q-36 0 -47 35l-289 751l-186 -305v-440q0 -41 -41 -41h-27q-43 0 -43 41v1352q0 41 43 41h27q41 0 41 -41v-734l438 744q16 31 51 31h33q25 0 33.5 -14t-4.5 -36l-295 -483zM504 -143q43 0 43 -43v-66q0 -135 -51 -250
q-18 -35 -43 -24q-22 10 -9 49q37 85 37 184h-12q-43 0 -43 41v66q0 43 43 43h35z" />
    <glyph glyph-name="kcommaaccent" unicode="&#x137;" horiz-adv-x="880" 
d="M834 49q8 -22 -1 -35.5t-32 -13.5h-33q-36 0 -47 35l-289 751l-186 -305v-440q0 -41 -41 -41h-27q-43 0 -43 41v1352q0 41 43 41h27q41 0 41 -41v-734l438 744q16 31 51 31h33q25 0 33.5 -14t-4.5 -36l-295 -483zM504 -143q43 0 43 -43v-66q0 -135 -51 -250
q-18 -35 -43 -24q-22 10 -9 49q37 85 37 184h-12q-43 0 -43 41v66q0 43 43 43h35z" />
    <glyph glyph-name="Lacute" unicode="&#x139;" horiz-adv-x="714" 
d="M293 1772q15 30 49 30h47q26 0 34 -16.5t-9 -36.5l-140 -180q-17 -23 -47 -23h-6q-47 0 -28 47zM631 102q43 0 43 -41v-20q0 -41 -43 -41h-453q-43 0 -43 41v1352q0 41 43 41h27q41 0 41 -41v-1291h385z" />
    <glyph glyph-name="lacute" unicode="&#x13a;" horiz-adv-x="714" 
d="M293 1772q15 30 49 30h47q26 0 34 -16.5t-9 -36.5l-140 -180q-17 -23 -47 -23h-6q-47 0 -28 47zM631 102q43 0 43 -41v-20q0 -41 -43 -41h-453q-43 0 -43 41v1352q0 41 43 41h27q41 0 41 -41v-1291h385z" />
    <glyph glyph-name="Lcommaaccent" unicode="&#x13b;" horiz-adv-x="714" 
d="M631 102q43 0 43 -41v-20q0 -41 -43 -41h-453q-43 0 -43 41v1352q0 41 43 41h27q41 0 41 -41v-1291h385zM422 -143q43 0 43 -43v-66q0 -135 -51 -250q-18 -35 -43 -24q-22 10 -9 49q37 85 37 184h-12q-43 0 -43 41v66q0 43 43 43h35z" />
    <glyph glyph-name="lcommaaccent" unicode="&#x13c;" horiz-adv-x="714" 
d="M631 102q43 0 43 -41v-20q0 -41 -43 -41h-453q-43 0 -43 41v1352q0 41 43 41h27q41 0 41 -41v-1291h385zM422 -143q43 0 43 -43v-66q0 -135 -51 -250q-18 -35 -43 -24q-22 10 -9 49q37 85 37 184h-12q-43 0 -43 41v66q0 43 43 43h35z" />
    <glyph glyph-name="Lcaron" unicode="&#x13d;" horiz-adv-x="714" 
d="M631 102q43 0 43 -41v-20q0 -41 -43 -41h-453q-43 0 -43 41v1352q0 41 43 41h27q41 0 41 -41v-1291h385zM526 1434q43 0 43 -43v-66q0 -135 -51 -250q-18 -35 -43 -24q-21 9 -8 49q37 85 37 184h-12q-43 0 -43 41v66q0 43 43 43h34z" />
    <glyph glyph-name="lcaron" unicode="&#x13e;" horiz-adv-x="714" 
d="M631 102q43 0 43 -41v-20q0 -41 -43 -41h-453q-43 0 -43 41v1352q0 41 43 41h27q41 0 41 -41v-1291h385zM526 1434q43 0 43 -43v-66q0 -135 -51 -250q-18 -35 -43 -24q-21 9 -8 49q37 85 37 184h-12q-43 0 -43 41v66q0 43 43 43h34z" />
    <glyph glyph-name="Ldot" unicode="&#x13f;" horiz-adv-x="731" 
d="M631 102q43 0 43 -41v-20q0 -41 -43 -41h-453q-43 0 -43 41v1352q0 41 43 41h27q41 0 41 -41v-1291h385zM494 899q43 0 43 -43v-65q0 -41 -43 -41h-35q-43 0 -43 41v65q0 43 43 43h35z" />
    <glyph glyph-name="ldot" unicode="&#x140;" horiz-adv-x="731" 
d="M631 102q43 0 43 -41v-20q0 -41 -43 -41h-453q-43 0 -43 41v1352q0 41 43 41h27q41 0 41 -41v-1291h385zM494 899q43 0 43 -43v-65q0 -41 -43 -41h-35q-43 0 -43 41v65q0 43 43 43h35z" />
    <glyph glyph-name="Lslash" unicode="&#x141;" horiz-adv-x="735" 
d="M651 102q43 0 43 -41v-20q0 -41 -43 -41h-452q-43 0 -43 41v631l-90 -47q-20 -10 -33 -3t-13 29v25q0 29 29 45l107 55v617q0 41 43 41h26q41 0 41 -41v-559l215 110q20 9 32.5 1.5t12.5 -30.5v-24q0 -29 -28 -45l-232 -119v-625h385z" />
    <glyph glyph-name="lslash" unicode="&#x142;" horiz-adv-x="735" 
d="M651 102q43 0 43 -41v-20q0 -41 -43 -41h-452q-43 0 -43 41v631l-90 -47q-20 -10 -33 -3t-13 29v25q0 29 29 45l107 55v617q0 41 43 41h26q41 0 41 -41v-559l215 110q20 9 32.5 1.5t12.5 -30.5v-24q0 -29 -28 -45l-232 -119v-625h385z" />
    <glyph glyph-name="Nacute" unicode="&#x143;" horiz-adv-x="960" 
d="M557 1772q15 30 49 30h47q26 0 34 -16.5t-9 -36.5l-139 -180q-17 -23 -47 -23h-7q-47 0 -28 47zM242 41q0 -41 -41 -41h-23q-43 0 -43 41v1352q0 41 43 41h37q36 0 47 -33l457 -1139v1131q0 41 41 41h22q43 0 43 -41v-1352q0 -41 -43 -41h-30q-38 0 -47 33l-463 1147
v-1139z" />
    <glyph glyph-name="nacute" unicode="&#x144;" horiz-adv-x="960" 
d="M557 1772q15 30 49 30h47q26 0 34 -16.5t-9 -36.5l-139 -180q-17 -23 -47 -23h-7q-47 0 -28 47zM242 41q0 -41 -41 -41h-23q-43 0 -43 41v1352q0 41 43 41h37q36 0 47 -33l457 -1139v1131q0 41 41 41h22q43 0 43 -41v-1352q0 -41 -43 -41h-30q-38 0 -47 33l-463 1147
v-1139z" />
    <glyph glyph-name="Ncommaaccent" unicode="&#x145;" horiz-adv-x="960" 
d="M242 41q0 -41 -41 -41h-23q-43 0 -43 41v1352q0 41 43 41h37q36 0 47 -33l457 -1139v1131q0 41 41 41h22q43 0 43 -41v-1352q0 -41 -43 -41h-30q-38 0 -47 33l-463 1147v-1139zM496 -143q43 0 43 -43v-66q0 -133 -52 -250q-18 -35 -43 -24q-21 9 -8 49q37 85 37 184h-12
q-43 0 -43 41v66q0 43 43 43h35z" />
    <glyph glyph-name="ncommaaccent" unicode="&#x146;" horiz-adv-x="960" 
d="M242 41q0 -41 -41 -41h-23q-43 0 -43 41v1352q0 41 43 41h37q36 0 47 -33l457 -1139v1131q0 41 41 41h22q43 0 43 -41v-1352q0 -41 -43 -41h-30q-38 0 -47 33l-463 1147v-1139zM496 -143q43 0 43 -43v-66q0 -133 -52 -250q-18 -35 -43 -24q-21 9 -8 49q37 85 37 184h-12
q-43 0 -43 41v66q0 43 43 43h35z" />
    <glyph glyph-name="Ncaron" unicode="&#x147;" horiz-adv-x="960" 
d="M686 1751q14 20 8 35.5t-28 15.5h-25q-32 0 -49 -28l-107 -148l-106 148q-17 28 -49 28h-19q-25 0 -32 -15.5t8 -35.5l127 -178q18 -27 49 -27h45q31 0 49 27zM242 41q0 -41 -41 -41h-23q-43 0 -43 41v1352q0 41 43 41h37q36 0 47 -33l457 -1139v1131q0 41 41 41h22
q43 0 43 -41v-1352q0 -41 -43 -41h-30q-38 0 -47 33l-463 1147v-1139z" />
    <glyph glyph-name="ncaron" unicode="&#x148;" horiz-adv-x="960" 
d="M686 1751q14 20 8 35.5t-28 15.5h-25q-32 0 -49 -28l-107 -148l-106 148q-17 28 -49 28h-19q-25 0 -32 -15.5t8 -35.5l127 -178q18 -27 49 -27h45q31 0 49 27zM242 41q0 -41 -41 -41h-23q-43 0 -43 41v1352q0 41 43 41h37q36 0 47 -33l457 -1139v1131q0 41 41 41h22
q43 0 43 -41v-1352q0 -41 -43 -41h-30q-38 0 -47 33l-463 1147v-1139z" />
    <glyph glyph-name="Eng" unicode="&#x14a;" horiz-adv-x="960" 
d="M782 1434q43 0 43 -41v-1373q0 -153 -81 -228t-234 -75h-6q-43 0 -43 43v17q0 43 43 43h4q98 0 148 44t59 142l-473 1174v-1139q0 -41 -41 -41h-23q-43 0 -43 41v1352q0 41 43 41h37q36 0 47 -33l457 -1139v1131q0 41 41 41h22z" />
    <glyph glyph-name="eng" unicode="&#x14b;" horiz-adv-x="960" 
d="M782 1434q43 0 43 -41v-1373q0 -153 -81 -228t-234 -75h-6q-43 0 -43 43v17q0 43 43 43h4q98 0 148 44t59 142l-473 1174v-1139q0 -41 -41 -41h-23q-43 0 -43 41v1352q0 41 43 41h37q36 0 47 -33l457 -1139v1131q0 41 41 41h22z" />
    <glyph glyph-name="Omacron" unicode="&#x14c;" horiz-adv-x="925" 
d="M694 1587q0 -41 -41 -41h-381q-41 0 -41 41v12q0 41 41 41h381q41 0 41 -41v-12zM127 1147q0 303 328 303h16q328 0 328 -303v-860q0 -303 -328 -303h-16q-328 0 -328 303v860zM238 324q0 -128 52 -183t173 -55t173 55t52 183v786q0 128 -52 183t-173 55t-173 -55
t-52 -183v-786z" />
    <glyph glyph-name="omacron" unicode="&#x14d;" horiz-adv-x="925" 
d="M694 1587q0 -41 -41 -41h-381q-41 0 -41 41v12q0 41 41 41h381q41 0 41 -41v-12zM127 1147q0 303 328 303h16q328 0 328 -303v-860q0 -303 -328 -303h-16q-328 0 -328 303v860zM238 324q0 -128 52 -183t173 -55t173 55t52 183v786q0 128 -52 183t-173 55t-173 -55
t-52 -183v-786z" />
    <glyph glyph-name="Obreve" unicode="&#x14e;" horiz-adv-x="925" 
d="M631 1784q41 0 41 -41v-39q0 -78 -53.5 -119t-143.5 -41h-24q-91 0 -144 41.5t-53 120.5v37q0 41 41 41h12q39 0 39 -41v-19q0 -51 27 -74.5t86 -23.5h8q59 0 86 23.5t27 74.5v19q0 41 38 41h13zM127 1147q0 303 328 303h16q328 0 328 -303v-860q0 -303 -328 -303h-16
q-328 0 -328 303v860zM238 324q0 -128 52 -183t173 -55t173 55t52 183v786q0 128 -52 183t-173 55t-173 -55t-52 -183v-786z" />
    <glyph glyph-name="obreve" unicode="&#x14f;" horiz-adv-x="925" 
d="M631 1784q41 0 41 -41v-39q0 -78 -53.5 -119t-143.5 -41h-24q-91 0 -144 41.5t-53 120.5v37q0 41 41 41h12q39 0 39 -41v-19q0 -51 27 -74.5t86 -23.5h8q59 0 86 23.5t27 74.5v19q0 41 38 41h13zM127 1147q0 303 328 303h16q328 0 328 -303v-860q0 -303 -328 -303h-16
q-328 0 -328 303v860zM238 324q0 -128 52 -183t173 -55t173 55t52 183v786q0 128 -52 183t-173 55t-173 -55t-52 -183v-786z" />
    <glyph glyph-name="Ohungarumlaut" unicode="&#x150;" horiz-adv-x="925" 
d="M414 1778q18 24 49 24h20q26 0 33 -15.5t-8 -35.5l-162 -182q-23 -23 -51 -23h-21q-26 0 -32.5 15t8.5 34zM684 1778q21 24 51 24h23q26 0 32 -15.5t-10 -35.5l-162 -182q-20 -23 -49 -23h-22q-26 0 -32.5 15t9.5 34zM127 1147q0 303 328 303h16q328 0 328 -303v-860
q0 -303 -328 -303h-16q-328 0 -328 303v860zM238 324q0 -128 52 -183t173 -55t173 55t52 183v786q0 128 -52 183t-173 55t-173 -55t-52 -183v-786z" />
    <glyph glyph-name="ohungarumlaut" unicode="&#x151;" horiz-adv-x="925" 
d="M414 1778q18 24 49 24h20q26 0 33 -15.5t-8 -35.5l-162 -182q-23 -23 -51 -23h-21q-26 0 -32.5 15t8.5 34zM684 1778q21 24 51 24h23q26 0 32 -15.5t-10 -35.5l-162 -182q-20 -23 -49 -23h-22q-26 0 -32.5 15t9.5 34zM127 1147q0 303 328 303h16q328 0 328 -303v-860
q0 -303 -328 -303h-16q-328 0 -328 303v860zM238 324q0 -128 52 -183t173 -55t173 55t52 183v786q0 128 -52 183t-173 55t-173 -55t-52 -183v-786z" />
    <glyph glyph-name="OE" unicode="&#x152;" horiz-adv-x="1310" 
d="M1202 102q43 0 43 -43v-18q0 -41 -43 -41h-747q-328 0 -328 303v827q0 304 328 304h741q43 0 43 -41v-19q0 -43 -43 -43h-408v-553h345q43 0 43 -43v-16q0 -43 -43 -43h-345v-574h414zM238 340q0 -128 52 -183t173 -55h213v1229h-213q-121 0 -173 -54.5t-52 -182.5v-754z
" />
    <glyph glyph-name="oe" unicode="&#x153;" horiz-adv-x="1310" 
d="M1202 102q43 0 43 -43v-18q0 -41 -43 -41h-747q-328 0 -328 303v827q0 304 328 304h741q43 0 43 -41v-19q0 -43 -43 -43h-408v-553h345q43 0 43 -43v-16q0 -43 -43 -43h-345v-574h414zM238 340q0 -128 52 -183t173 -55h213v1229h-213q-121 0 -173 -54.5t-52 -182.5v-754z
" />
    <glyph glyph-name="Racute" unicode="&#x154;" horiz-adv-x="923" 
d="M451 1546q-48 0 -29 47l100 179q15 30 49 30h47q26 0 34 -16.5t-9 -36.5l-139 -180q-17 -23 -47 -23h-6zM831 49q8 -22 -0.5 -35.5t-31.5 -13.5h-33q-36 0 -47 35l-223 583h-23h-227v-577q0 -41 -41 -41h-27q-43 0 -43 41v1352q0 41 43 41h295q328 0 328 -304v-208
q0 -234 -197 -287zM465 719q121 0 173 55t52 182v138q0 128 -52 182.5t-173 54.5h-219v-612h219z" />
    <glyph glyph-name="racute" unicode="&#x155;" horiz-adv-x="923" 
d="M451 1546q-48 0 -29 47l100 179q15 30 49 30h47q26 0 34 -16.5t-9 -36.5l-139 -180q-17 -23 -47 -23h-6zM831 49q8 -22 -0.5 -35.5t-31.5 -13.5h-33q-36 0 -47 35l-223 583h-23h-227v-577q0 -41 -41 -41h-27q-43 0 -43 41v1352q0 41 43 41h295q328 0 328 -304v-208
q0 -234 -197 -287zM465 719q121 0 173 55t52 182v138q0 128 -52 182.5t-173 54.5h-219v-612h219z" />
    <glyph glyph-name="Rcommaaccent" unicode="&#x156;" horiz-adv-x="923" 
d="M831 49q8 -22 -0.5 -35.5t-31.5 -13.5h-33q-36 0 -47 35l-223 583h-23h-227v-577q0 -41 -41 -41h-27q-43 0 -43 41v1352q0 41 43 41h295q328 0 328 -304v-208q0 -234 -197 -287zM465 719q121 0 173 55t52 182v138q0 128 -52 182.5t-173 54.5h-219v-612h219zM504 -143
q43 0 43 -43v-66q0 -135 -51 -250q-18 -35 -43 -24q-22 10 -9 49q37 85 37 184h-12q-43 0 -43 41v66q0 43 43 43h35z" />
    <glyph glyph-name="rcommaaccent" unicode="&#x157;" horiz-adv-x="923" 
d="M831 49q8 -22 -0.5 -35.5t-31.5 -13.5h-33q-36 0 -47 35l-223 583h-23h-227v-577q0 -41 -41 -41h-27q-43 0 -43 41v1352q0 41 43 41h295q328 0 328 -304v-208q0 -234 -197 -287zM465 719q121 0 173 55t52 182v138q0 128 -52 182.5t-173 54.5h-219v-612h219zM504 -143
q43 0 43 -43v-66q0 -135 -51 -250q-18 -35 -43 -24q-22 10 -9 49q37 85 37 184h-12q-43 0 -43 41v66q0 43 43 43h35z" />
    <glyph glyph-name="Rcaron" unicode="&#x158;" horiz-adv-x="923" 
d="M379 1573l-127 178q-15 20 -8 35.5t32 15.5h19q32 0 49 -28l107 -148l106 148q17 28 49 28h25q22 0 28 -15.5t-8 -35.5l-129 -178q-18 -27 -49 -27h-45q-31 0 -49 27zM831 49q8 -22 -0.5 -35.5t-31.5 -13.5h-33q-36 0 -47 35l-223 583h-23h-227v-577q0 -41 -41 -41h-27
q-43 0 -43 41v1352q0 41 43 41h295q328 0 328 -304v-208q0 -234 -197 -287zM465 719q121 0 173 55t52 182v138q0 128 -52 182.5t-173 54.5h-219v-612h219z" />
    <glyph glyph-name="rcaron" unicode="&#x159;" horiz-adv-x="923" 
d="M379 1573l-127 178q-15 20 -8 35.5t32 15.5h19q32 0 49 -28l107 -148l106 148q17 28 49 28h25q22 0 28 -15.5t-8 -35.5l-129 -178q-18 -27 -49 -27h-45q-31 0 -49 27zM831 49q8 -22 -0.5 -35.5t-31.5 -13.5h-33q-36 0 -47 35l-223 583h-23h-227v-577q0 -41 -41 -41h-27
q-43 0 -43 41v1352q0 41 43 41h295q328 0 328 -304v-208q0 -234 -197 -287zM465 719q121 0 173 55t52 182v138q0 128 -52 182.5t-173 54.5h-219v-612h219z" />
    <glyph glyph-name="Sacute" unicode="&#x15a;" horiz-adv-x="856" 
d="M500 1772q15 30 49 30h47q26 0 34 -16.5t-9 -36.5l-140 -180q-17 -23 -47 -23h-6q-48 0 -29 47zM750 981q0 -43 -43 -43h-27q-19 0 -30 11.5t-11 31.5v141q0 120 -48.5 174t-162.5 54t-162.5 -54t-48.5 -174v-100q0 -76 29 -112t116 -81l220 -120q172 -91 172 -242v-184
q0 -153 -79.5 -226t-242.5 -73h-4q-164 0 -243 72.5t-79 226.5v190q0 20 12 31.5t32 11.5h26q19 0 30 -11.5t11 -31.5v-158q0 -120 49 -175.5t164 -55.5t164 55.5t49 175.5v115q0 76 -32 116t-119 89l-216 117q-94 54 -132 104t-38 133v166q0 145 84.5 220t235.5 75h4
q151 0 235.5 -75t84.5 -220v-174z" />
    <glyph glyph-name="sacute" unicode="&#x15b;" horiz-adv-x="856" 
d="M500 1772q15 30 49 30h47q26 0 34 -16.5t-9 -36.5l-140 -180q-17 -23 -47 -23h-6q-48 0 -29 47zM750 981q0 -43 -43 -43h-27q-19 0 -30 11.5t-11 31.5v141q0 120 -48.5 174t-162.5 54t-162.5 -54t-48.5 -174v-100q0 -76 29 -112t116 -81l220 -120q172 -91 172 -242v-184
q0 -153 -79.5 -226t-242.5 -73h-4q-164 0 -243 72.5t-79 226.5v190q0 20 12 31.5t32 11.5h26q19 0 30 -11.5t11 -31.5v-158q0 -120 49 -175.5t164 -55.5t164 55.5t49 175.5v115q0 76 -32 116t-119 89l-216 117q-94 54 -132 104t-38 133v166q0 145 84.5 220t235.5 75h4
q151 0 235.5 -75t84.5 -220v-174z" />
    <glyph glyph-name="Scedilla" unicode="&#x15e;" horiz-adv-x="856" 
d="M582 709q172 -91 172 -242v-184q0 -273 -262 -297v-84q0 -86 -33 -122t-111 -36q-30 0 -57 6q-22 2 -33 31l-4 8q-6 17 1 28t26 11h32q48 0 66 17.5t18 64.5v74q-148 6 -219.5 79t-71.5 220v190q0 20 12 31.5t32 11.5h26q19 0 30 -11.5t11 -31.5v-158q0 -120 49 -175.5
t164 -55.5t164 55.5t49 175.5v115q0 76 -32 116t-119 89l-216 117q-94 54 -132 104t-38 133v166q0 145 84.5 220t235.5 75h4q151 0 235.5 -75t84.5 -220v-174q0 -43 -43 -43h-27q-19 0 -30 11.5t-11 31.5v141q0 120 -48.5 174t-162.5 54t-162.5 -54t-48.5 -174v-100
q0 -76 29 -112t116 -81z" />
    <glyph glyph-name="scedilla" unicode="&#x15f;" horiz-adv-x="856" 
d="M582 709q172 -91 172 -242v-184q0 -273 -262 -297v-84q0 -86 -33 -122t-111 -36q-30 0 -57 6q-22 2 -33 31l-4 8q-6 17 1 28t26 11h32q48 0 66 17.5t18 64.5v74q-148 6 -219.5 79t-71.5 220v190q0 20 12 31.5t32 11.5h26q19 0 30 -11.5t11 -31.5v-158q0 -120 49 -175.5
t164 -55.5t164 55.5t49 175.5v115q0 76 -32 116t-119 89l-216 117q-94 54 -132 104t-38 133v166q0 145 84.5 220t235.5 75h4q151 0 235.5 -75t84.5 -220v-174q0 -43 -43 -43h-27q-19 0 -30 11.5t-11 31.5v141q0 120 -48.5 174t-162.5 54t-162.5 -54t-48.5 -174v-100
q0 -76 29 -112t116 -81z" />
    <glyph glyph-name="Scaron" unicode="&#x160;" horiz-adv-x="856" 
d="M629 1751q13 20 7 35.5t-28 15.5h-24q-32 0 -49 -28l-107 -148l-106 148q-17 28 -50 28h-18q-25 0 -32.5 -15.5t7.5 -35.5l127 -178q18 -27 50 -27h45q31 0 49 27zM750 981q0 -43 -43 -43h-27q-19 0 -30 11.5t-11 31.5v141q0 120 -48.5 174t-162.5 54t-162.5 -54
t-48.5 -174v-100q0 -76 29 -112t116 -81l220 -120q172 -91 172 -242v-184q0 -153 -79.5 -226t-242.5 -73h-4q-164 0 -243 72.5t-79 226.5v190q0 20 12 31.5t32 11.5h26q19 0 30 -11.5t11 -31.5v-158q0 -120 49 -175.5t164 -55.5t164 55.5t49 175.5v115q0 76 -32 116t-119 89
l-216 117q-94 54 -132 104t-38 133v166q0 145 84.5 220t235.5 75h4q151 0 235.5 -75t84.5 -220v-174z" />
    <glyph glyph-name="scaron" unicode="&#x161;" horiz-adv-x="856" 
d="M629 1751q13 20 7 35.5t-28 15.5h-24q-32 0 -49 -28l-107 -148l-106 148q-17 28 -50 28h-18q-25 0 -32.5 -15.5t7.5 -35.5l127 -178q18 -27 50 -27h45q31 0 49 27zM750 981q0 -43 -43 -43h-27q-19 0 -30 11.5t-11 31.5v141q0 120 -48.5 174t-162.5 54t-162.5 -54
t-48.5 -174v-100q0 -76 29 -112t116 -81l220 -120q172 -91 172 -242v-184q0 -153 -79.5 -226t-242.5 -73h-4q-164 0 -243 72.5t-79 226.5v190q0 20 12 31.5t32 11.5h26q19 0 30 -11.5t11 -31.5v-158q0 -120 49 -175.5t164 -55.5t164 55.5t49 175.5v115q0 76 -32 116t-119 89
l-216 117q-94 54 -132 104t-38 133v166q0 145 84.5 220t235.5 75h4q151 0 235.5 -75t84.5 -220v-174z" />
    <glyph glyph-name="uni0162" unicode="&#x162;" horiz-adv-x="708" 
d="M29 1393q0 41 43 41h565q43 0 43 -41v-19q0 -43 -43 -43h-227v-1321q0 -2 -7 -16q-12 -19 -12 -92q0 -82 -33.5 -120t-107.5 -38q-37 0 -53 4q-29 6 -39 37q-8 19 0.5 31t31.5 12h35q37 0 55.5 18.5t18.5 63.5v1421h-227q-43 0 -43 43v19z" />
    <glyph glyph-name="uni0163" unicode="&#x163;" horiz-adv-x="708" 
d="M29 1393q0 41 43 41h565q43 0 43 -41v-19q0 -43 -43 -43h-227v-1321q0 -2 -7 -16q-12 -19 -12 -92q0 -82 -33.5 -120t-107.5 -38q-37 0 -53 4q-29 6 -39 37q-8 19 0.5 31t31.5 12h35q37 0 55.5 18.5t18.5 63.5v1421h-227q-43 0 -43 43v19z" />
    <glyph glyph-name="Tcaron" unicode="&#x164;" horiz-adv-x="708" 
d="M555 1751q14 20 8 35.5t-28 15.5h-25q-32 0 -49 -28l-107 -148l-106 148q-17 28 -49 28h-19q-25 0 -32 -15.5t8 -35.5l127 -178q18 -27 49 -27h45q31 0 49 27zM637 1434q43 0 43 -41v-19q0 -43 -43 -43h-227v-1290q0 -41 -43 -41h-27q-41 0 -41 41v1290h-227
q-43 0 -43 43v19q0 41 43 41h565z" />
    <glyph glyph-name="tcaron" unicode="&#x165;" horiz-adv-x="708" 
d="M555 1751q14 20 8 35.5t-28 15.5h-25q-32 0 -49 -28l-107 -148l-106 148q-17 28 -49 28h-19q-25 0 -32 -15.5t8 -35.5l127 -178q18 -27 49 -27h45q31 0 49 27zM637 1434q43 0 43 -41v-19q0 -43 -43 -43h-227v-1290q0 -41 -43 -41h-27q-41 0 -41 41v1290h-227
q-43 0 -43 43v19q0 41 43 41h565z" />
    <glyph glyph-name="Tbar" unicode="&#x166;" horiz-adv-x="708" 
d="M637 1434q43 0 43 -41v-19q0 -43 -43 -43h-227v-510h143q41 0 41 -41v-12q0 -41 -41 -41h-143v-686q0 -41 -43 -41h-27q-41 0 -41 41v686h-127q-41 0 -41 41v12q0 41 41 41h127v510h-227q-43 0 -43 43v19q0 41 43 41h565z" />
    <glyph glyph-name="tbar" unicode="&#x167;" horiz-adv-x="708" 
d="M637 1434q43 0 43 -41v-19q0 -43 -43 -43h-227v-510h143q41 0 41 -41v-12q0 -41 -41 -41h-143v-686q0 -41 -43 -41h-27q-41 0 -41 41v686h-127q-41 0 -41 41v12q0 41 41 41h127v510h-227q-43 0 -43 43v19q0 41 43 41h565z" />
    <glyph glyph-name="Umacron" unicode="&#x16a;" 
d="M690 1587q0 -41 -41 -41h-381q-41 0 -41 41v12q0 41 41 41h381q41 0 41 -41v-12zM743 1434q43 0 43 -41v-1106q0 -153 -80 -228t-243 -75h-8q-164 0 -244 74.5t-80 228.5v1106q0 41 43 41h27q41 0 41 -41v-1069q0 -129 48.5 -183.5t168.5 -54.5t168.5 54.5t48.5 183.5
v1069q0 41 41 41h26z" />
    <glyph glyph-name="umacron" unicode="&#x16b;" 
d="M690 1587q0 -41 -41 -41h-381q-41 0 -41 41v12q0 41 41 41h381q41 0 41 -41v-12zM743 1434q43 0 43 -41v-1106q0 -153 -80 -228t-243 -75h-8q-164 0 -244 74.5t-80 228.5v1106q0 41 43 41h27q41 0 41 -41v-1069q0 -129 48.5 -183.5t168.5 -54.5t168.5 54.5t48.5 183.5
v1069q0 41 41 41h26z" />
    <glyph glyph-name="Ubreve" unicode="&#x16c;" 
d="M627 1784q41 0 41 -41v-39q0 -78 -53.5 -119t-143.5 -41h-25q-91 0 -143.5 41t-52.5 121v37q0 41 41 41h12q39 0 39 -41v-19q0 -51 27 -74.5t86 -23.5h8q58 0 85 23.5t27 74.5v19q0 41 39 41h13zM743 1434q43 0 43 -41v-1106q0 -153 -80 -228t-243 -75h-8
q-164 0 -244 74.5t-80 228.5v1106q0 41 43 41h27q41 0 41 -41v-1069q0 -129 48.5 -183.5t168.5 -54.5t168.5 54.5t48.5 183.5v1069q0 41 41 41h26z" />
    <glyph glyph-name="ubreve" unicode="&#x16d;" 
d="M627 1784q41 0 41 -41v-39q0 -78 -53.5 -119t-143.5 -41h-25q-91 0 -143.5 41t-52.5 121v37q0 41 41 41h12q39 0 39 -41v-19q0 -51 27 -74.5t86 -23.5h8q58 0 85 23.5t27 74.5v19q0 41 39 41h13zM743 1434q43 0 43 -41v-1106q0 -153 -80 -228t-243 -75h-8
q-164 0 -244 74.5t-80 228.5v1106q0 41 43 41h27q41 0 41 -41v-1069q0 -129 48.5 -183.5t168.5 -54.5t168.5 54.5t48.5 183.5v1069q0 41 41 41h26z" />
    <glyph glyph-name="Uring" unicode="&#x16e;" 
d="M459 1849q76 0 121 -42.5t45 -114.5t-45 -115t-121 -43q-78 0 -123 43t-45 115t45 114.5t123 42.5zM459 1780q-40 0 -65 -22t-25 -66t25 -66t65 -22t64 22t24 66t-24 66t-64 22zM743 1434q43 0 43 -41v-1106q0 -153 -80 -228t-243 -75h-8q-164 0 -244 74.5t-80 228.5
v1106q0 41 43 41h27q41 0 41 -41v-1069q0 -129 48.5 -183.5t168.5 -54.5t168.5 54.5t48.5 183.5v1069q0 41 41 41h26z" />
    <glyph glyph-name="uring" unicode="&#x16f;" 
d="M459 1849q76 0 121 -42.5t45 -114.5t-45 -115t-121 -43q-78 0 -123 43t-45 115t45 114.5t123 42.5zM459 1780q-40 0 -65 -22t-25 -66t25 -66t65 -22t64 22t24 66t-24 66t-64 22zM743 1434q43 0 43 -41v-1106q0 -153 -80 -228t-243 -75h-8q-164 0 -244 74.5t-80 228.5
v1106q0 41 43 41h27q41 0 41 -41v-1069q0 -129 48.5 -183.5t168.5 -54.5t168.5 54.5t48.5 183.5v1069q0 41 41 41h26z" />
    <glyph glyph-name="Uhungarumlaut" unicode="&#x170;" 
d="M410 1778q18 24 49 24h20q26 0 33 -15.5t-8 -35.5l-162 -182q-23 -23 -51 -23h-21q-26 0 -32.5 15t8.5 34zM680 1778q21 24 51 24h23q26 0 32 -15.5t-10 -35.5l-162 -182q-20 -23 -49 -23h-22q-26 0 -32.5 15t9.5 34zM743 1434q43 0 43 -41v-1106q0 -153 -80 -228
t-243 -75h-8q-164 0 -244 74.5t-80 228.5v1106q0 41 43 41h27q41 0 41 -41v-1069q0 -129 48.5 -183.5t168.5 -54.5t168.5 54.5t48.5 183.5v1069q0 41 41 41h26z" />
    <glyph glyph-name="uhungarumlaut" unicode="&#x171;" 
d="M410 1778q18 24 49 24h20q26 0 33 -15.5t-8 -35.5l-162 -182q-23 -23 -51 -23h-21q-26 0 -32.5 15t8.5 34zM680 1778q21 24 51 24h23q26 0 32 -15.5t-10 -35.5l-162 -182q-20 -23 -49 -23h-22q-26 0 -32.5 15t9.5 34zM743 1434q43 0 43 -41v-1106q0 -153 -80 -228
t-243 -75h-8q-164 0 -244 74.5t-80 228.5v1106q0 41 43 41h27q41 0 41 -41v-1069q0 -129 48.5 -183.5t168.5 -54.5t168.5 54.5t48.5 183.5v1069q0 41 41 41h26z" />
    <glyph glyph-name="Uogonek" unicode="&#x172;" 
d="M743 1434q43 0 43 -41v-1106q0 -235 -188 -287q-62 -31 -85.5 -83.5t-4.5 -92t67 -39.5q11 0 23 4q35 9 35 -12v-10q0 -23 -17 -37q-33 -23 -75 -23q-68 0 -104.5 47.5t-25.5 114t68 115.5h-16h-8q-164 0 -244 74.5t-80 228.5v1106q0 41 43 41h27q41 0 41 -41v-1069
q0 -129 48.5 -183.5t168.5 -54.5t168.5 54.5t48.5 183.5v1069q0 41 41 41h26z" />
    <glyph glyph-name="uogonek" unicode="&#x173;" 
d="M743 1434q43 0 43 -41v-1106q0 -235 -188 -287q-62 -31 -85.5 -83.5t-4.5 -92t67 -39.5q11 0 23 4q35 9 35 -12v-10q0 -23 -17 -37q-33 -23 -75 -23q-68 0 -104.5 47.5t-25.5 114t68 115.5h-16h-8q-164 0 -244 74.5t-80 228.5v1106q0 41 43 41h27q41 0 41 -41v-1069
q0 -129 48.5 -183.5t168.5 -54.5t168.5 54.5t48.5 183.5v1069q0 41 41 41h26z" />
    <glyph glyph-name="Wcircumflex" unicode="&#x174;" horiz-adv-x="1314" 
d="M844 1546q22 0 28 15.5t-8 35.5l-129 177q-17 28 -49 28h-45q-32 0 -49 -28l-129 -177q-14 -20 -8 -35.5t28 -15.5h25q32 0 49 29l107 147l106 -147q17 -29 49 -29h25zM1214 1434q45 0 39 -45l-229 -1350q-6 -39 -45 -39h-31q-38 0 -47 37l-242 1180l-245 -1180
q-5 -37 -43 -37h-35q-39 0 -45 39l-230 1350q-6 45 39 45h27q39 0 45 -39l188 -1170l238 1172q6 37 47 37h31q38 0 47 -37l235 -1172l191 1170q6 39 43 39h22z" />
    <glyph glyph-name="wcircumflex" unicode="&#x175;" horiz-adv-x="1314" 
d="M844 1546q22 0 28 15.5t-8 35.5l-129 177q-17 28 -49 28h-45q-32 0 -49 -28l-129 -177q-14 -20 -8 -35.5t28 -15.5h25q32 0 49 29l107 147l106 -147q17 -29 49 -29h25zM1214 1434q45 0 39 -45l-229 -1350q-6 -39 -45 -39h-31q-38 0 -47 37l-242 1180l-245 -1180
q-5 -37 -43 -37h-35q-39 0 -45 39l-230 1350q-6 45 39 45h27q39 0 45 -39l188 -1170l238 1172q6 37 47 37h31q38 0 47 -37l235 -1172l191 1170q6 39 43 39h22z" />
    <glyph glyph-name="Ycircumflex" unicode="&#x176;" horiz-adv-x="847" 
d="M604 1546q22 0 28 15.5t-7 35.5l-129 177q-17 28 -50 28h-45q-32 0 -49 -28l-129 -177q-13 -20 -7 -35.5t28 -15.5h24q32 0 49 29l107 147l106 -147q17 -29 50 -29h24zM479 559v-518q0 -41 -41 -41h-28q-41 0 -41 41v518l-301 827q-15 48 32 48h29q37 0 49 -35l246 -709
l248 709q9 35 47 35h29q47 0 32 -48z" />
    <glyph glyph-name="ycircumflex" unicode="&#x177;" horiz-adv-x="847" 
d="M604 1546q22 0 28 15.5t-7 35.5l-129 177q-17 28 -50 28h-45q-32 0 -49 -28l-129 -177q-13 -20 -7 -35.5t28 -15.5h24q32 0 49 29l107 147l106 -147q17 -29 50 -29h24zM479 559v-518q0 -41 -41 -41h-28q-41 0 -41 41v518l-301 827q-15 48 32 48h29q37 0 49 -35l246 -709
l248 709q9 35 47 35h29q47 0 32 -48z" />
    <glyph glyph-name="Ydieresis" unicode="&#x178;" horiz-adv-x="847" 
d="M303 1690q43 0 43 -41v-62q0 -41 -43 -41h-33q-41 0 -41 41v62q0 41 41 41h33zM578 1690q40 0 40 -41v-62q0 -41 -40 -41h-33q-43 0 -43 41v62q0 41 43 41h33zM479 559v-518q0 -41 -41 -41h-28q-41 0 -41 41v518l-301 827q-15 48 32 48h29q37 0 49 -35l246 -709l248 709
q9 35 47 35h29q47 0 32 -48z" />
    <glyph glyph-name="Zacute" unicode="&#x179;" horiz-adv-x="735" 
d="M455 1772q15 30 49 30h47q26 0 33.5 -16.5t-9.5 -36.5l-139 -180q-17 -23 -47 -23h-6q-48 0 -29 47zM635 100q43 0 43 -43v-16q0 -41 -43 -41h-535q-43 0 -43 41v16q0 27 11 52l475 1224h-418q-43 0 -43 43v17q0 41 43 41h496q43 0 43 -41v-17q0 -18 -11 -51l-475 -1225
h457z" />
    <glyph glyph-name="zacute" unicode="&#x17a;" horiz-adv-x="735" 
d="M455 1772q15 30 49 30h47q26 0 33.5 -16.5t-9.5 -36.5l-139 -180q-17 -23 -47 -23h-6q-48 0 -29 47zM635 100q43 0 43 -43v-16q0 -41 -43 -41h-535q-43 0 -43 41v16q0 27 11 52l475 1224h-418q-43 0 -43 43v17q0 41 43 41h496q43 0 43 -41v-17q0 -18 -11 -51l-475 -1225
h457z" />
    <glyph glyph-name="Zdotaccent" unicode="&#x17b;" horiz-adv-x="735" 
d="M399 1690q43 0 43 -41v-62q0 -41 -43 -41h-32q-43 0 -43 41v62q0 41 43 41h32zM635 100q43 0 43 -43v-16q0 -41 -43 -41h-535q-43 0 -43 41v16q0 27 11 52l475 1224h-418q-43 0 -43 43v17q0 41 43 41h496q43 0 43 -41v-17q0 -18 -11 -51l-475 -1225h457z" />
    <glyph glyph-name="zdotaccent" unicode="&#x17c;" horiz-adv-x="735" 
d="M399 1690q43 0 43 -41v-62q0 -41 -43 -41h-32q-43 0 -43 41v62q0 41 43 41h32zM635 100q43 0 43 -43v-16q0 -41 -43 -41h-535q-43 0 -43 41v16q0 27 11 52l475 1224h-418q-43 0 -43 43v17q0 41 43 41h496q43 0 43 -41v-17q0 -18 -11 -51l-475 -1225h457z" />
    <glyph glyph-name="Zcaron" unicode="&#x17d;" horiz-adv-x="735" 
d="M584 1751q13 20 7 35.5t-28 15.5h-24q-33 0 -50 -28l-106 -148l-107 148q-17 28 -49 28h-18q-25 0 -32.5 -15.5t7.5 -35.5l127 -178q18 -27 49 -27h46q31 0 49 27zM635 100q43 0 43 -43v-16q0 -41 -43 -41h-535q-43 0 -43 41v16q0 27 11 52l475 1224h-418q-43 0 -43 43
v17q0 41 43 41h496q43 0 43 -41v-17q0 -18 -11 -51l-475 -1225h457z" />
    <glyph glyph-name="zcaron" unicode="&#x17e;" horiz-adv-x="735" 
d="M584 1751q13 20 7 35.5t-28 15.5h-24q-33 0 -50 -28l-106 -148l-107 148q-17 28 -49 28h-18q-25 0 -32.5 -15.5t7.5 -35.5l127 -178q18 -27 49 -27h46q31 0 49 27zM635 100q43 0 43 -43v-16q0 -41 -43 -41h-535q-43 0 -43 41v16q0 27 11 52l475 1224h-418q-43 0 -43 43
v17q0 41 43 41h496q43 0 43 -41v-17q0 -18 -11 -51l-475 -1225h457z" />
    <glyph glyph-name="florin" unicode="&#x192;" horiz-adv-x="704" 
d="M618 1434q41 0 41 -41v-21q0 -41 -41 -41h-16q-108 0 -151 -54t-43 -183v-295h182q22 0 32 -12.5t5 -34.5l-2 -15q-9 -37 -47 -37h-170v-397q0 -303 -297 -303h-25q-41 0 -41 41v20q0 41 41 41h16q108 0 151.5 54.5t43.5 183.5v360h-182q-22 0 -32 13t-5 35l2 14
q10 37 47 37h170v331q0 304 297 304h24z" />
    <glyph glyph-name="Aringacute" unicode="&#x1fa;" horiz-adv-x="868" 
d="M432 1901q-48 0 -29 47l101 178q16 31 49 31h47q26 0 34 -17t-9 -37l-140 -180q-17 -22 -47 -22h-6zM432 1534q-78 0 -123 43t-45 115t45 114.5t123 42.5q76 0 121 -42.5t45 -114.5t-45 -115t-121 -43zM432 1780q-40 0 -65 -22t-25 -66t25 -66t65 -22t64 22t24 66t-24 66
t-64 22zM809 47q9 -47 -37 -47h-31q-37 0 -45 37l-71 332h-387l-72 -332q-5 -37 -45 -37h-25q-43 0 -37 47l303 1350q5 37 46 37h49q40 0 45 -37zM260 469h342l-170 791z" />
    <glyph glyph-name="aringacute" unicode="&#x1fb;" horiz-adv-x="868" 
d="M432 1901q-48 0 -29 47l101 178q16 31 49 31h47q26 0 34 -17t-9 -37l-140 -180q-17 -22 -47 -22h-6zM432 1534q-78 0 -123 43t-45 115t45 114.5t123 42.5q76 0 121 -42.5t45 -114.5t-45 -115t-121 -43zM432 1780q-40 0 -65 -22t-25 -66t25 -66t65 -22t64 22t24 66t-24 66
t-64 22zM809 47q9 -47 -37 -47h-31q-37 0 -45 37l-71 332h-387l-72 -332q-5 -37 -45 -37h-25q-43 0 -37 47l303 1350q5 37 46 37h49q40 0 45 -37zM260 469h342l-170 791z" />
    <glyph glyph-name="AEacute" unicode="&#x1fc;" horiz-adv-x="1265" 
d="M801 1546q-48 0 -29 47l100 179q15 30 50 30h47q26 0 33.5 -16.5t-9.5 -36.5l-139 -180q-17 -23 -47 -23h-6zM1157 102q43 0 43 -43v-18q0 -41 -43 -41h-483q-43 0 -43 41v328h-365l-106 -334q-11 -35 -47 -35h-27q-48 0 -33 47l439 1352q8 35 47 35h612q43 0 43 -41v-19
q0 -43 -43 -43h-410v-553h346q43 0 43 -43v-16q0 -43 -43 -43h-346v-574h416zM299 467h332v864h-56z" />
    <glyph glyph-name="aeacute" unicode="&#x1fd;" horiz-adv-x="1265" 
d="M801 1546q-48 0 -29 47l100 179q15 30 50 30h47q26 0 33.5 -16.5t-9.5 -36.5l-139 -180q-17 -23 -47 -23h-6zM1157 102q43 0 43 -43v-18q0 -41 -43 -41h-483q-43 0 -43 41v328h-365l-106 -334q-11 -35 -47 -35h-27q-48 0 -33 47l439 1352q8 35 47 35h612q43 0 43 -41v-19
q0 -43 -43 -43h-410v-553h346q43 0 43 -43v-16q0 -43 -43 -43h-346v-574h416zM299 467h332v864h-56z" />
    <glyph glyph-name="Oslashacute" unicode="&#x1fe;" horiz-adv-x="925" 
d="M463 1546q-48 0 -29 47l101 179q15 30 49 30h47q26 0 33.5 -16.5t-9.5 -36.5l-139 -180q-17 -23 -47 -23h-6zM471 1450q328 0 328 -303v-860q0 -303 -328 -303h-16q-328 0 -328 303v860q0 303 328 303h16zM238 1110v-786q0 -126 51 -183l268 1196q-49 11 -94 11
q-121 0 -173 -55t-52 -183zM688 324v786q0 125 -51 182l-268 -1196q45 -10 94 -10q121 0 173 55t52 183z" />
    <glyph glyph-name="oslashacute" unicode="&#x1ff;" horiz-adv-x="925" 
d="M463 1546q-48 0 -29 47l101 179q15 30 49 30h47q26 0 33.5 -16.5t-9.5 -36.5l-139 -180q-17 -23 -47 -23h-6zM471 1450q328 0 328 -303v-860q0 -303 -328 -303h-16q-328 0 -328 303v860q0 303 328 303h16zM238 1110v-786q0 -126 51 -183l268 1196q-49 11 -94 11
q-121 0 -173 -55t-52 -183zM688 324v786q0 125 -51 182l-268 -1196q45 -10 94 -10q121 0 173 55t52 183z" />
    <glyph glyph-name="Scommaaccent" unicode="&#x218;" horiz-adv-x="856" 
d="M750 981q0 -43 -43 -43h-27q-19 0 -30 11.5t-11 31.5v141q0 120 -48.5 174t-162.5 54t-162.5 -54t-48.5 -174v-100q0 -76 29 -112t116 -81l220 -120q172 -91 172 -242v-184q0 -153 -79.5 -226t-242.5 -73h-4q-164 0 -243 72.5t-79 226.5v190q0 20 12 31.5t32 11.5h26
q19 0 30 -11.5t11 -31.5v-158q0 -120 49 -175.5t164 -55.5t164 55.5t49 175.5v115q0 76 -32 116t-119 89l-216 117q-94 54 -132 104t-38 133v166q0 145 84.5 220t235.5 75h4q151 0 235.5 -75t84.5 -220v-174zM469 -143q43 0 43 -43v-66q0 -135 -51 -250q-18 -35 -43 -24
q-21 9 -8 49q36 83 36 184h-12q-43 0 -43 41v66q0 43 43 43h35z" />
    <glyph glyph-name="scommaaccent" unicode="&#x219;" horiz-adv-x="856" 
d="M750 981q0 -43 -43 -43h-27q-19 0 -30 11.5t-11 31.5v141q0 120 -48.5 174t-162.5 54t-162.5 -54t-48.5 -174v-100q0 -76 29 -112t116 -81l220 -120q172 -91 172 -242v-184q0 -153 -79.5 -226t-242.5 -73h-4q-164 0 -243 72.5t-79 226.5v190q0 20 12 31.5t32 11.5h26
q19 0 30 -11.5t11 -31.5v-158q0 -120 49 -175.5t164 -55.5t164 55.5t49 175.5v115q0 76 -32 116t-119 89l-216 117q-94 54 -132 104t-38 133v166q0 145 84.5 220t235.5 75h4q151 0 235.5 -75t84.5 -220v-174zM469 -143q43 0 43 -43v-66q0 -135 -51 -250q-18 -35 -43 -24
q-21 9 -8 49q36 83 36 184h-12q-43 0 -43 41v66q0 43 43 43h35z" />
    <glyph glyph-name="circumflex" unicode="&#x2c6;" horiz-adv-x="892" 
d="M627 1546q22 0 28 15.5t-8 35.5l-129 177q-17 28 -49 28h-45q-32 0 -49 -28l-129 -177q-14 -20 -8 -35.5t28 -15.5h25q32 0 49 29l106 147l107 -147q17 -29 49 -29h25z" />
    <glyph glyph-name="caron" unicode="&#x2c7;" horiz-adv-x="892" 
d="M645 1751q14 20 8 35.5t-28 15.5h-25q-32 0 -49 -28l-107 -148l-106 148q-17 28 -49 28h-19q-25 0 -32 -15.5t8 -35.5l127 -178q18 -27 49 -27h45q31 0 49 27z" />
    <glyph glyph-name="breve" unicode="&#x2d8;" horiz-adv-x="966" 
d="M651 1784q41 0 41 -41v-39q0 -78 -53 -119t-143 -41h-25q-91 0 -144 41.5t-53 120.5v37q0 41 41 41h13q39 0 39 -41v-19q0 -51 27 -74.5t85 -23.5h8q59 0 86 23.5t27 74.5v19q0 41 39 41h12z" />
    <glyph glyph-name="dotaccent" unicode="&#x2d9;" horiz-adv-x="585" 
d="M309 1690q43 0 43 -41v-62q0 -41 -43 -41h-33q-43 0 -43 41v62q0 41 43 41h33z" />
    <glyph glyph-name="ring" unicode="&#x2da;" horiz-adv-x="780" 
d="M393 1849q76 0 121 -42.5t45 -114.5t-45 -115t-121 -43q-78 0 -123 43t-45 115t45 114.5t123 42.5zM393 1780q-40 0 -65 -22t-25 -66t25 -66t65 -22t64 22t24 66t-24 66t-64 22z" />
    <glyph glyph-name="ogonek" unicode="&#x2db;" horiz-adv-x="804" 
d="M440 -215q11 0 23 4q35 9 35 -12v-10q0 -23 -17 -37q-33 -23 -75 -23q-47 0 -80.5 24.5t-43.5 63t-3.5 81t41 83.5t88.5 66l55 -25q-62 -31 -85.5 -83.5t-4.5 -92t67 -39.5z" />
    <glyph glyph-name="tilde" unicode="&#x2dc;" horiz-adv-x="995" 
d="M291 1589q0 109 76 109q25 0 50 -16t47.5 -38.5t46.5 -45t56.5 -38.5t67.5 -16q70 0 114 49t44 146q0 37 -39 37h-13q-39 0 -39 -33q0 -111 -71 -111q-30 0 -62 24.5t-57.5 53.5t-66 53.5t-83.5 24.5q-70 0 -114.5 -50t-44.5 -145q0 -39 39 -39h12q37 0 37 35z" />
    <glyph glyph-name="hungarumlaut" unicode="&#x2dd;" horiz-adv-x="1536" 
d="M655 1778q18 24 50 24h20q26 0 33 -15.5t-8 -35.5l-162 -182q-23 -23 -51 -23h-21q-26 0 -32.5 15t8.5 34zM926 1778q21 24 51 24h22q26 0 32 -15.5t-9 -35.5l-162 -182q-20 -23 -49 -23h-23q-26 0 -32 15t10 34z" />
    <glyph glyph-name="uni0326" unicode="&#x326;" horiz-adv-x="0" 
d="M-309 -143q43 0 43 -43v-66q0 -135 -51 -250q-18 -35 -43 -24q-22 10 -9 49q37 85 37 184h-12q-43 0 -43 41v66q0 43 43 43h35z" />
    <glyph glyph-name="Wgrave" unicode="&#x1e80;" horiz-adv-x="1314" 
d="M545 1802q35 0 51 -30l98 -179q10 -22 5.5 -34.5t-23.5 -12.5h-17q-30 0 -47 23l-139 180q-17 20 -8.5 36.5t33.5 16.5h47zM1214 1434q45 0 39 -45l-229 -1350q-6 -39 -45 -39h-31q-38 0 -47 37l-242 1180l-245 -1180q-5 -37 -43 -37h-35q-39 0 -45 39l-230 1350
q-6 45 39 45h27q39 0 45 -39l188 -1170l238 1172q6 37 47 37h31q38 0 47 -37l235 -1172l191 1170q6 39 43 39h22z" />
    <glyph glyph-name="wgrave" unicode="&#x1e81;" horiz-adv-x="1314" 
d="M545 1802q35 0 51 -30l98 -179q10 -22 5.5 -34.5t-23.5 -12.5h-17q-30 0 -47 23l-139 180q-17 20 -8.5 36.5t33.5 16.5h47zM1214 1434q45 0 39 -45l-229 -1350q-6 -39 -45 -39h-31q-38 0 -47 37l-242 1180l-245 -1180q-5 -37 -43 -37h-35q-39 0 -45 39l-230 1350
q-6 45 39 45h27q39 0 45 -39l188 -1170l238 1172q6 37 47 37h31q38 0 47 -37l235 -1172l191 1170q6 39 43 39h22z" />
    <glyph glyph-name="Wacute" unicode="&#x1e82;" horiz-adv-x="1314" 
d="M735 1772q15 30 49 30h47q26 0 34 -16.5t-9 -36.5l-139 -180q-17 -23 -47 -23h-6q-48 0 -29 47zM1214 1434q45 0 39 -45l-229 -1350q-6 -39 -45 -39h-31q-38 0 -47 37l-242 1180l-245 -1180q-5 -37 -43 -37h-35q-39 0 -45 39l-230 1350q-6 45 39 45h27q39 0 45 -39
l188 -1170l238 1172q6 37 47 37h31q38 0 47 -37l235 -1172l191 1170q6 39 43 39h22z" />
    <glyph glyph-name="wacute" unicode="&#x1e83;" horiz-adv-x="1314" 
d="M735 1772q15 30 49 30h47q26 0 34 -16.5t-9 -36.5l-139 -180q-17 -23 -47 -23h-6q-48 0 -29 47zM1214 1434q45 0 39 -45l-229 -1350q-6 -39 -45 -39h-31q-38 0 -47 37l-242 1180l-245 -1180q-5 -37 -43 -37h-35q-39 0 -45 39l-230 1350q-6 45 39 45h27q39 0 45 -39
l188 -1170l238 1172q6 37 47 37h31q38 0 47 -37l235 -1172l191 1170q6 39 43 39h22z" />
    <glyph glyph-name="Wdieresis" unicode="&#x1e84;" horiz-adv-x="1314" 
d="M543 1690q43 0 43 -41v-62q0 -41 -43 -41h-33q-41 0 -41 41v62q0 41 41 41h33zM817 1690q41 0 41 -41v-62q0 -41 -41 -41h-33q-43 0 -43 41v62q0 41 43 41h33zM1214 1434q45 0 39 -45l-229 -1350q-6 -39 -45 -39h-31q-38 0 -47 37l-242 1180l-245 -1180q-5 -37 -43 -37
h-35q-39 0 -45 39l-230 1350q-6 45 39 45h27q39 0 45 -39l188 -1170l238 1172q6 37 47 37h31q38 0 47 -37l235 -1172l191 1170q6 39 43 39h22z" />
    <glyph glyph-name="wdieresis" unicode="&#x1e85;" horiz-adv-x="1314" 
d="M543 1690q43 0 43 -41v-62q0 -41 -43 -41h-33q-41 0 -41 41v62q0 41 41 41h33zM817 1690q41 0 41 -41v-62q0 -41 -41 -41h-33q-43 0 -43 41v62q0 41 43 41h33zM1214 1434q45 0 39 -45l-229 -1350q-6 -39 -45 -39h-31q-38 0 -47 37l-242 1180l-245 -1180q-5 -37 -43 -37
h-35q-39 0 -45 39l-230 1350q-6 45 39 45h27q39 0 45 -39l188 -1170l238 1172q6 37 47 37h31q38 0 47 -37l235 -1172l191 1170q6 39 43 39h22z" />
    <glyph glyph-name="Ygrave" unicode="&#x1ef2;" horiz-adv-x="847" 
d="M305 1802q35 0 51 -30l99 -179q10 -22 5 -34.5t-24 -12.5h-16q-30 0 -47 23l-140 180q-17 20 -8.5 36.5t33.5 16.5h47zM479 559v-518q0 -41 -41 -41h-28q-41 0 -41 41v518l-301 827q-15 48 32 48h29q37 0 49 -35l246 -709l248 709q9 35 47 35h29q47 0 32 -48z" />
    <glyph glyph-name="ygrave" unicode="&#x1ef3;" horiz-adv-x="847" 
d="M305 1802q35 0 51 -30l99 -179q10 -22 5 -34.5t-24 -12.5h-16q-30 0 -47 23l-140 180q-17 20 -8.5 36.5t33.5 16.5h47zM479 559v-518q0 -41 -41 -41h-28q-41 0 -41 41v518l-301 827q-15 48 32 48h29q37 0 49 -35l246 -709l248 709q9 35 47 35h29q47 0 32 -48z" />
    <glyph glyph-name="endash" unicode="&#x2013;" horiz-adv-x="729" 
d="M629 780q43 0 43 -41v-12q0 -41 -43 -41h-529q-43 0 -43 41v12q0 41 43 41h529z" />
    <glyph glyph-name="emdash" unicode="&#x2014;" horiz-adv-x="1036" 
d="M936 780q43 0 43 -41v-12q0 -41 -43 -41h-836q-43 0 -43 41v12q0 41 43 41h836z" />
    <glyph glyph-name="quoteleft" unicode="&#x2018;" horiz-adv-x="317" 
d="M141 1057q-43 0 -43 43v65q0 133 52 250q19 35 43 25q21 -9 8 -49q-37 -85 -37 -185h12q43 0 43 -41v-65q0 -43 -43 -43h-35z" />
    <glyph glyph-name="quoteright" unicode="&#x2019;" horiz-adv-x="317" 
d="M176 1434q43 0 43 -43v-66q0 -135 -51 -250q-18 -35 -43 -24q-21 9 -8 49q37 85 37 184h-13q-43 0 -43 41v66q0 43 43 43h35z" />
    <glyph glyph-name="quotesinglbase" unicode="&#x201a;" horiz-adv-x="317" 
d="M176 150q20 0 31.5 -12t11.5 -32v-65q0 -135 -51 -250q-18 -35 -43 -24q-21 9 -8 49q37 85 37 184h-13q-43 0 -43 41v65q0 20 11.5 32t31.5 12h35z" />
    <glyph glyph-name="quotedblleft" unicode="&#x201c;" horiz-adv-x="518" 
d="M139 1057q-43 0 -43 43v65q0 135 51 250q19 35 43 25q22 -10 9 -49q-37 -85 -37 -185h12q43 0 43 -41v-65q0 -43 -43 -43h-35zM342 1057q-43 0 -43 43v65q0 135 51 250q19 35 43 25q21 -9 8 -49q-36 -83 -36 -185h12q43 0 43 -41v-65q0 -43 -43 -43h-35z" />
    <glyph glyph-name="quotedblright" unicode="&#x201d;" horiz-adv-x="518" 
d="M176 1434q43 0 43 -43v-66q0 -135 -51 -250q-18 -35 -43 -24q-21 9 -8 49q37 85 37 184h-13q-43 0 -43 41v66q0 43 43 43h35zM379 1434q43 0 43 -43v-66q0 -135 -51 -250q-18 -35 -43 -24q-22 10 -9 49q37 85 37 184h-12q-43 0 -43 41v66q0 43 43 43h35z" />
    <glyph glyph-name="quotedblbase" unicode="&#x201e;" horiz-adv-x="518" 
d="M176 150q20 0 31.5 -12t11.5 -32v-65q0 -135 -51 -250q-18 -35 -43 -24q-21 9 -8 49q37 85 37 184h-13q-43 0 -43 41v65q0 20 11.5 32t31.5 12h35zM379 150q20 0 31.5 -12t11.5 -32v-65q0 -135 -51 -250q-18 -35 -43 -24q-22 10 -9 49q37 85 37 184h-12q-43 0 -43 41v65
q0 20 11.5 32t31.5 12h35z" />
    <glyph glyph-name="dagger" unicode="&#x2020;" horiz-adv-x="675" 
d="M592 1024q43 0 43 -41v-12q0 -41 -43 -41h-203v-889q0 -41 -43 -41h-16q-43 0 -43 41v889h-203q-43 0 -43 41v12q0 41 43 41h203v369q0 41 43 41h16q43 0 43 -41v-369h203z" />
    <glyph glyph-name="daggerdbl" unicode="&#x2021;" horiz-adv-x="675" 
d="M635 971q0 -41 -43 -41h-203v-426h203q43 0 43 -41v-12q0 -41 -43 -41h-203v-369q0 -41 -43 -41h-16q-43 0 -43 41v369h-203q-43 0 -43 41v12q0 41 43 41h203v426h-203q-43 0 -43 41v12q0 41 43 41h203v369q0 41 43 41h16q43 0 43 -41v-369h203q43 0 43 -41v-12z" />
    <glyph glyph-name="bullet" unicode="&#x2022;" horiz-adv-x="571" 
d="M287 856q60 0 89.5 -30.5t29.5 -96.5t-29.5 -96.5t-89.5 -30.5q-123 0 -123 127t123 127z" />
    <glyph glyph-name="ellipsis" unicode="&#x2026;" horiz-adv-x="1028" 
d="M176 150q20 0 31.5 -12t11.5 -32v-65q0 -41 -43 -41h-35q-43 0 -43 41v65q0 20 11.5 32t31.5 12h35zM532 150q20 0 31.5 -12t11.5 -32v-65q0 -41 -43 -41h-34q-43 0 -43 41v65q0 20 11.5 32t31.5 12h34zM887 150q20 0 31.5 -12t11.5 -32v-65q0 -41 -43 -41h-35
q-43 0 -43 41v65q0 20 11.5 32t31.5 12h35z" />
    <glyph glyph-name="perthousand" unicode="&#x2030;" horiz-adv-x="1488" 
d="M272 1442q66 0 113 -44t47 -132v-258q0 -89 -47 -133t-113 -44h-32q-68 0 -115 44t-47 133v258q0 89 47 132.5t115 43.5h32zM862 1434q20 0 26.5 -12.5t-1.5 -32.5l-643 -1360q-14 -29 -45 -29h-11q-21 0 -28.5 12.5t0.5 32.5l645 1360q12 29 43 29h14zM350 1247
q0 62 -20.5 90.5t-63.5 28.5h-22q-43 0 -62.5 -28t-19.5 -91v-221q0 -63 19.5 -91t62.5 -28h22q43 0 63.5 28.5t20.5 90.5v221zM809 602q66 0 113 -44t47 -132v-258q0 -88 -47 -132t-113 -44h-33q-68 0 -115 43.5t-47 132.5v258q0 89 47 132.5t115 43.5h33zM1251 602
q66 0 113 -44t47 -132v-258q0 -88 -47 -132t-113 -44h-32q-68 0 -115 43.5t-47 132.5v258q0 89 47 132.5t115 43.5h32zM887 408q0 62 -20.5 90t-63.5 28h-23q-43 0 -62.5 -27.5t-19.5 -90.5v-222q0 -63 19.5 -90.5t62.5 -27.5h23q43 0 63.5 28t20.5 90v222zM1327 408
q0 63 -19.5 90.5t-62.5 27.5h-22q-43 0 -63.5 -28t-20.5 -90v-222q0 -62 20.5 -90t63.5 -28h22q43 0 62.5 27.5t19.5 90.5v222z" />
    <glyph glyph-name="guilsinglleft" unicode="&#x2039;" horiz-adv-x="458" 
d="M369 952q24 18 24 52v18q0 27 -16 34.5t-35 -12.5l-281 -262q-24 -21 -24 -51v-12q0 -30 24 -51l281 -262q19 -20 35 -15t16 29v26q0 33 -24 54l-244 225z" />
    <glyph glyph-name="guilsinglright" unicode="&#x203a;" horiz-adv-x="458" 
d="M90 952l244 -227l-244 -225q-24 -21 -24 -54v-26q0 -24 16 -29t35 15l280 262q25 22 25 51v12q0 29 -25 51l-280 262q-19 20 -35 12.5t-16 -34.5v-18q0 -34 24 -52z" />
    <glyph glyph-name="fraction" unicode="&#x2044;" horiz-adv-x="188" 
d="M307 1405q12 29 39 29h8q41 0 29 -39l-502 -1366q-12 -29 -39 -29h-8q-41 0 -29 39z" />
    <glyph glyph-name="Euro" unicode="&#x20ac;" horiz-adv-x="925" 
d="M737 901q-41 0 -41 43v166q0 127 -50 182.5t-169 55.5t-169 -55.5t-50 -182.5v-227h254q17 0 26 -9.5t9 -25.5v-10q0 -35 -35 -35h-254v-139h254q35 0 35 -35v-11q0 -34 -35 -34h-254v-260q0 -127 50 -182.5t169 -55.5t169 55.5t50 182.5v200q0 43 41 43h27q43 0 43 -43
v-237q0 -303 -328 -303h-4q-164 0 -246 74.5t-82 228.5v297h-104q-35 0 -35 34v11q0 35 35 35h104v139h-104q-35 0 -35 35v10q0 16 9 25.5t26 9.5h104v264q0 148 83 225.5t245 77.5h4q162 0 245 -77.5t83 -225.5v-203q0 -43 -43 -43h-27z" />
    <glyph glyph-name="uni2120" unicode="&#x2120;" horiz-adv-x="829" 
d="M322 1268q0 -23 -23 -23h-23q-22 0 -22 23v41q0 71 -64 71q-63 0 -63 -71v-29q0 -27 12 -41t47 -37l70 -43q68 -40 68 -104v-62q0 -121 -134 -121q-131 0 -131 121v62q0 22 23 22h22q9 0 16 -6t7 -16v-49q0 -72 63 -72q66 0 66 72v34q0 20 -9.5 34t-20 21.5t-40.5 24.5
l-65 41q-62 39 -62 107v55q0 57 35.5 88t95.5 31q61 0 96.5 -31t35.5 -88v-55zM702 1260l-94 -265q-6 -18 -22 -18q-17 0 -23 18l-94 265v-357q0 -10 -7 -16t-16 -6h-22q-23 0 -23 22v508q0 23 23 23h20q22 0 27 -19l115 -317l110 317q5 19 27 19h25q22 0 22 -23v-508
q0 -22 -22 -22h-23q-23 0 -23 22v357z" />
    <glyph glyph-name="trademark" unicode="&#x2122;" horiz-adv-x="790" 
d="M270 1434q23 0 23 -23v-18q0 -9 -6.5 -16t-16.5 -7h-69v-467q0 -10 -7 -16t-16 -6h-24q-9 0 -16 6t-7 16v467h-70q-10 0 -16 7t-6 16v18q0 23 22 23h209zM664 1260l-95 -265q-6 -18 -22 -18q-17 0 -23 18l-94 265v-357q0 -22 -22 -22h-23q-23 0 -23 22v508q0 23 23 23h21
q21 0 26 -19l115 -317l110 317q5 19 27 19h25q22 0 22 -23v-508q0 -22 -22 -22h-23q-22 0 -22 22v357z" />
    <glyph glyph-name="uni2153" unicode="&#x2153;" horiz-adv-x="1079" 
d="M188 600q0 -35 -34 -35h-21q-35 0 -35 35v733q0 10 6 19q18 25 27 53q6 29 29 29h2q26 0 26 -33v-801zM637 1405q12 29 39 29h8q41 0 29 -39l-502 -1366q-12 -29 -39 -29h-8q-41 0 -29 39zM981 582q0 -110 -78 -131q78 -21 78 -123v-150q0 -85 -45 -137.5t-137 -52.5h-31
q-92 0 -137 52.5t-45 137.5v92q0 35 35 35h22q33 0 33 -35v-75q0 -67 25.5 -96t76.5 -29h10q53 0 78 29t25 96v120q0 49 -24.5 70t-73.5 21h-64q-35 0 -35 32v17q0 32 35 32h51q59 0 85 23.5t26 81.5v78q0 67 -25 96t-78 29h-12q-51 0 -75.5 -28.5t-24.5 -96.5v-56
q0 -34 -35 -34h-20q-35 0 -35 34v72q0 191 192 191h10q100 0 146.5 -50.5t46.5 -140.5v-104z" />
    <glyph glyph-name="uni2154" unicode="&#x2154;" horiz-adv-x="1327" 
d="M137 1116q-35 0 -35 35v111q0 89 49.5 136.5t143.5 47.5h2q95 0 145 -47.5t50 -136.5v-84q0 -21 -5 -41t-10 -34.5t-20 -34t-22 -29t-29.5 -30t-30 -26.5t-36 -29t-34.5 -28q-67 -53 -89.5 -94.5t-22.5 -90.5v-90h264q35 0 35 -33v-14q0 -35 -35 -35h-324q-35 0 -35 35
v139q0 74 37 128.5t119 121.5q62 51 85.5 72.5t40.5 51t17 63.5v65q0 60 -25 89.5t-79 29.5q-100 0 -100 -119v-94q0 -35 -35 -35h-21zM883 1405q12 29 39 29h8q40 0 28 -39l-501 -1366q-12 -29 -39 -29h-8q-41 0 -29 39zM1229 582q0 -110 -78 -131q78 -21 78 -123v-150
q0 -85 -45 -137.5t-137 -52.5h-31q-92 0 -137 52.5t-45 137.5v92q0 35 34 35h21q35 0 35 -35v-75q0 -67 25.5 -96t76.5 -29h10q51 0 77 29t26 96v120q0 91 -99 91h-63q-35 0 -35 32v17q0 32 35 32h51q58 0 84.5 23.5t26.5 81.5v78q0 67 -26 96t-77 29h-12q-51 0 -75.5 -28.5
t-24.5 -96.5v-56q0 -34 -35 -34h-21q-34 0 -34 34v72q0 191 192 191h10q100 0 146.5 -50.5t46.5 -140.5v-104z" />
    <glyph glyph-name="uni2155" unicode="&#x2155;" horiz-adv-x="1095" 
d="M188 600q0 -35 -34 -35h-21q-35 0 -35 35v733q0 10 6 19q18 25 27 53q6 29 29 29h2q26 0 26 -33v-801zM637 1405q12 29 39 29h8q41 0 29 -39l-502 -1366q-12 -29 -39 -29h-8q-41 0 -29 39zM989 815q0 -33 -33 -33h-258v-286q43 73 138 73q75 0 118 -45.5t43 -122.5v-229
q0 -184 -194 -184h-4q-193 0 -193 184v109q0 32 33 32h20q35 0 35 -32v-93q0 -59 25 -88.5t80 -29.5q110 0 110 118v197q0 53 -25 76.5t-65 23.5q-64 0 -110 -57q-18 -18 -39 -12l-31 8q-29 9 -29 37v368q0 35 33 35h313q33 0 33 -35v-14z" />
    <glyph glyph-name="uni2156" unicode="&#x2156;" horiz-adv-x="1343" 
d="M137 1116q-35 0 -35 35v111q0 89 49.5 136.5t143.5 47.5h2q95 0 145 -47.5t50 -136.5v-84q0 -21 -5 -41t-10 -34.5t-20 -34t-22 -29t-29.5 -30t-30 -26.5t-36 -29t-34.5 -28q-67 -53 -89.5 -94.5t-22.5 -90.5v-90h264q35 0 35 -33v-14q0 -35 -35 -35h-324q-35 0 -35 35
v139q0 74 37 128.5t119 121.5q62 51 85.5 72.5t40.5 51t17 63.5v65q0 60 -25 89.5t-79 29.5q-100 0 -100 -119v-94q0 -35 -35 -35h-21zM883 1405q12 29 39 29h8q40 0 28 -39l-501 -1366q-12 -29 -39 -29h-8q-41 0 -29 39zM1237 815q0 -33 -35 -33h-256v-286q43 73 137 73
q75 0 118.5 -45.5t43.5 -122.5v-229q0 -184 -194 -184h-4q-195 0 -195 184v109q0 32 35 32h20q35 0 35 -32v-93q0 -59 25 -88.5t80 -29.5q108 0 108 118v197q0 100 -88 100q-65 0 -111 -57q-18 -18 -41 -12l-28 8q-31 9 -31 37v368q0 35 35 35h311q35 0 35 -35v-14z" />
    <glyph glyph-name="uni2157" unicode="&#x2157;" horiz-adv-x="1337" 
d="M494 1151q0 -110 -78 -131q78 -21 78 -123v-149q0 -85 -45.5 -138t-137.5 -53h-30q-92 0 -137.5 53t-45.5 138v92q0 34 35 34h21q34 0 34 -34v-76q0 -67 26 -96t77 -29h10q51 0 76.5 29t25.5 96v121q0 49 -25 69.5t-73 20.5h-63q-35 0 -35 33v16q0 33 35 33h51
q58 0 84 23t26 81v78q0 67 -25.5 96t-76.5 29h-12q-51 0 -76 -28.5t-25 -96.5v-55q0 -35 -34 -35h-21q-35 0 -35 35v71q0 90 46.5 140.5t146.5 50.5h10q100 0 146.5 -50.5t46.5 -140.5v-104zM877 1405q12 29 38 29h9q40 0 28 -39l-501 -1366q-12 -29 -39 -29h-9
q-40 0 -28 39zM1231 815q0 -33 -35 -33h-256v-286q43 73 135 73q76 0 120 -45.5t44 -122.5v-229q0 -184 -195 -184h-4q-194 0 -194 184v109q0 32 35 32h20q33 0 33 -32v-93q0 -118 106 -118q109 0 109 118v197q0 53 -25 76.5t-63 23.5q-65 0 -111 -57q-18 -18 -41 -12l-30 8
q-29 10 -29 37v368q0 35 35 35h311q35 0 35 -35v-14z" />
    <glyph glyph-name="uni2158" unicode="&#x2158;" horiz-adv-x="1349" 
d="M414 1434q35 0 35 -35v-537h40q35 0 35 -33v-18q0 -35 -35 -35h-40v-176q0 -35 -35 -35h-25q-35 0 -35 35v176h-221q-35 0 -35 35v25q0 15 11 41l223 530q12 27 41 27h41zM889 1405q12 29 39 29h8q41 0 29 -39l-502 -1366q-12 -29 -39 -29h-8q-41 0 -29 39zM354 1282
l-172 -420h172v420zM1241 815q0 -33 -33 -33h-258v-286q43 73 137 73q75 0 118.5 -45.5t43.5 -122.5v-229q0 -184 -192 -184h-4q-195 0 -195 184v109q0 32 33 32h22q33 0 33 -32v-93q0 -60 25.5 -89t81.5 -29q108 0 108 118v197q0 53 -25 76.5t-65 23.5q-64 0 -110 -57
q-20 -20 -39 -14l-31 10q-29 9 -29 37v368q0 35 33 35h313q33 0 33 -35v-14z" />
    <glyph glyph-name="uni2159" unicode="&#x2159;" horiz-adv-x="1097" 
d="M188 600q0 -35 -34 -35h-21q-35 0 -35 35v733q0 10 6 19q18 25 27 53q6 29 29 29h2q26 0 26 -33v-801zM637 1405q12 29 39 29h8q41 0 29 -39l-502 -1366q-12 -29 -39 -29h-8q-41 0 -29 39zM999 653q0 -30 -34 -30h-21q-35 0 -35 34v19q0 119 -108 119q-107 0 -107 -119
v-223q32 75 142 75q75 0 118 -45.5t43 -122.5v-188q0 -184 -194 -184h-4q-193 0 -193 184v520q0 185 195 185h4q194 0 194 -185v-39zM819 444q-53 0 -89 -27t-36 -69v-160q0 -60 25.5 -89t81.5 -29q108 0 108 118v156q0 100 -90 100z" />
    <glyph glyph-name="uni215A" unicode="&#x215a;" horiz-adv-x="1345" 
d="M483 1384q0 -32 -34 -32h-256v-287q44 74 135 74q76 0 120 -45.5t44 -122.5v-230q0 -184 -195 -184h-4q-195 0 -195 184v109q0 33 35 33h21q34 0 34 -33v-92q0 -119 105 -119q108 0 108 119v196q0 53 -25 77t-63 24q-64 0 -110 -58q-18 -18 -41 -12l-31 8q-29 10 -29 37
v369q0 35 35 35h312q34 0 34 -35v-15zM885 1405q12 29 39 29h8q41 0 29 -39l-502 -1366q-12 -29 -39 -29h-8q-41 0 -29 39zM1247 653q0 -30 -35 -30h-20q-33 0 -33 34v19q0 119 -110 119q-105 0 -105 -119v-223q14 35 50.5 55t88.5 20q76 0 120 -45.5t44 -122.5v-188
q0 -184 -194 -184h-4q-195 0 -195 184v520q0 185 195 185h4q194 0 194 -185v-39zM1067 444q-53 0 -88 -27t-35 -69v-160q0 -59 25 -88.5t80 -29.5q108 0 108 118v156q0 100 -90 100z" />
    <glyph glyph-name="oneeighth" unicode="&#x215b;" horiz-adv-x="1087" 
d="M188 600q0 -35 -34 -35h-21q-35 0 -35 35v733q0 10 6 19q18 25 27 53q6 29 29 29h2q26 0 26 -33v-801zM637 1405q12 29 39 29h8q41 0 29 -39l-502 -1366q-12 -29 -39 -29h-8q-41 0 -29 39zM809 877q92 0 136 -52t44 -139v-104q0 -106 -76 -133q76 -35 76 -146v-125
q0 -87 -44 -138.5t-136 -51.5h-39q-92 0 -135 51.5t-43 138.5v125q0 112 78 146q-78 27 -78 133v104q0 88 43 139.5t135 51.5h39zM901 580v90q0 125 -100 125h-23q-98 0 -98 -125v-90q0 -93 98 -93h23q52 0 76 22t24 71zM901 195v118q0 49 -24 71t-76 22h-23q-98 0 -98 -93
v-118q0 -125 98 -125h23q100 0 100 125z" />
    <glyph glyph-name="threeeighths" unicode="&#x215c;" horiz-adv-x="1329" 
d="M494 1151q0 -110 -78 -131q78 -21 78 -123v-149q0 -85 -45.5 -138t-137.5 -53h-30q-92 0 -137.5 53t-45.5 138v92q0 34 35 34h21q34 0 34 -34v-76q0 -67 26 -96t77 -29h10q51 0 76.5 29t25.5 96v121q0 49 -25 69.5t-73 20.5h-63q-35 0 -35 33v16q0 33 35 33h51
q58 0 84 23t26 81v78q0 67 -25.5 96t-76.5 29h-12q-51 0 -76 -28.5t-25 -96.5v-55q0 -35 -34 -35h-21q-35 0 -35 35v71q0 90 46.5 140.5t146.5 50.5h10q100 0 146.5 -50.5t46.5 -140.5v-104zM877 1405q12 29 38 29h9q40 0 28 -39l-501 -1366q-12 -29 -39 -29h-9
q-40 0 -28 39zM1051 877q92 0 136 -52t44 -139v-104q0 -106 -78 -133q78 -35 78 -146v-125q0 -87 -44 -138.5t-136 -51.5h-39q-92 0 -136.5 51.5t-44.5 138.5v125q0 111 80 146q-80 28 -80 133v104q0 87 44.5 139t136.5 52h39zM1141 580v90q0 125 -99 125h-22
q-98 0 -98 -125v-90q0 -93 98 -93h22q50 0 74.5 22t24.5 71zM1141 195v118q0 49 -24.5 71t-74.5 22h-22q-98 0 -98 -93v-118q0 -125 98 -125h22q99 0 99 125z" />
    <glyph glyph-name="fiveeighths" unicode="&#x215d;" horiz-adv-x="1337" 
d="M483 1384q0 -32 -34 -32h-256v-287q44 74 135 74q76 0 120 -45.5t44 -122.5v-230q0 -184 -195 -184h-4q-195 0 -195 184v109q0 33 35 33h21q34 0 34 -33v-92q0 -119 105 -119q108 0 108 119v196q0 53 -25 77t-63 24q-64 0 -110 -58q-18 -18 -41 -12l-31 8q-29 10 -29 37
v369q0 35 35 35h312q34 0 34 -35v-15zM885 1405q12 29 39 29h8q41 0 29 -39l-502 -1366q-12 -29 -39 -29h-8q-41 0 -29 39zM1059 877q92 0 136 -52t44 -139v-104q0 -106 -78 -133q78 -35 78 -146v-125q0 -87 -44 -138.5t-136 -51.5h-39q-92 0 -136 51.5t-44 138.5v125
q0 111 80 146q-80 28 -80 133v104q0 87 44 139t136 52h39zM1149 580v90q0 125 -98 125h-23q-98 0 -98 -125v-90q0 -93 98 -93h23q50 0 74 22t24 71zM1149 195v118q0 49 -24 71t-74 22h-23q-98 0 -98 -93v-118q0 -125 98 -125h23q98 0 98 125z" />
    <glyph glyph-name="seveneighths" unicode="&#x215e;" horiz-adv-x="1189" 
d="M457 1382q0 -25 -6 -41l-209 -747q-10 -29 -37 -29h-23q-18 0 -25 10.5t-1 28.5l213 748h-236q-35 0 -35 32v15q0 35 35 35h289q35 0 35 -35v-17zM737 1405q12 29 39 29h8q41 0 29 -39l-502 -1366q-12 -29 -39 -29h-8q-40 0 -28 39zM911 877q92 0 136.5 -52t44.5 -139
v-104q0 -106 -78 -133q78 -35 78 -146v-125q0 -87 -44.5 -138.5t-136.5 -51.5h-39q-92 0 -136 51.5t-44 138.5v125q0 111 80 146q-80 28 -80 133v104q0 87 44 139t136 52h39zM1001 580v90q0 125 -98 125h-22q-99 0 -99 -125v-90q0 -93 99 -93h22q50 0 74 22t24 71zM1001 195
v118q0 49 -24 71t-74 22h-22q-99 0 -99 -93v-118q0 -125 99 -125h22q98 0 98 125z" />
    <glyph glyph-name="minus" unicode="&#x2212;" horiz-adv-x="860" 
d="M702 776q41 0 41 -43v-8q0 -43 -41 -43h-544q-41 0 -41 43v8q0 43 41 43h544z" />
    <glyph glyph-name="notequal" unicode="&#x2260;" horiz-adv-x="860" 
d="M702 856h-192l-80 -246h272q41 0 41 -43v-8q0 -43 -41 -43h-301l-98 -307q-12 -31 -43 -31h-2q-41 0 -31 43l95 295h-164q-41 0 -41 43v8q0 43 41 43h192l80 246h-272q-41 0 -41 43v8q0 43 41 43h301l98 307q12 31 43 31h2q41 0 31 -43l-94 -295h163q41 0 41 -43v-8
q0 -43 -41 -43z" />
    <glyph glyph-name="A.ss01" 
d="M463 1450q163 0 243 -75t80 -228v-1106q0 -41 -43 -41h-26q-41 0 -41 41v498h-434v-498q0 -41 -41 -41h-27q-43 0 -43 41v1106q0 154 80 228.5t244 74.5h8zM242 641h434v469q0 129 -48.5 183.5t-168.5 54.5t-168.5 -54.5t-48.5 -183.5v-469z" />
    <glyph glyph-name="Aacute.ss01" 
d="M459 1546q-48 0 -29 47l100 179q15 30 50 30h47q26 0 33.5 -16.5t-9.5 -36.5l-139 -180q-17 -23 -47 -23h-6zM463 1450q163 0 243 -75t80 -228v-1106q0 -41 -43 -41h-26q-41 0 -41 41v498h-434v-498q0 -41 -41 -41h-27q-43 0 -43 41v1106q0 154 80 228.5t244 74.5h8z
M242 641h434v469q0 129 -48.5 183.5t-168.5 54.5t-168.5 -54.5t-48.5 -183.5v-469z" />
    <glyph glyph-name="Abreve.ss01" 
d="M446 1544q-91 0 -143.5 41t-52.5 121v37q0 41 41 41h12q39 0 39 -41v-19q0 -51 27 -74.5t86 -23.5h8q58 0 85 23.5t27 74.5v19q0 41 39 41h13q41 0 41 -41v-39q0 -78 -53.5 -119t-143.5 -41h-25zM463 1450q163 0 243 -75t80 -228v-1106q0 -41 -43 -41h-26q-41 0 -41 41
v498h-434v-498q0 -41 -41 -41h-27q-43 0 -43 41v1106q0 154 80 228.5t244 74.5h8zM242 641h434v469q0 129 -48.5 183.5t-168.5 54.5t-168.5 -54.5t-48.5 -183.5v-469z" />
    <glyph glyph-name="Acircumflex.ss01" 
d="M279 1546q-22 0 -28 15.5t7 35.5l129 177q17 28 49 28h45q32 0 49 -28l129 -177q14 -20 8 -35.5t-28 -15.5h-25q-32 0 -49 29l-106 147l-107 -147q-17 -29 -49 -29h-24zM463 1450q163 0 243 -75t80 -228v-1106q0 -41 -43 -41h-26q-41 0 -41 41v498h-434v-498
q0 -41 -41 -41h-27q-43 0 -43 41v1106q0 154 80 228.5t244 74.5h8zM242 641h434v469q0 129 -48.5 183.5t-168.5 54.5t-168.5 -54.5t-48.5 -183.5v-469z" />
    <glyph glyph-name="Adieresis.ss01" 
d="M305 1546q-41 0 -41 41v62q0 41 41 41h33q43 0 43 -41v-62q0 -41 -43 -41h-33zM580 1546q-43 0 -43 41v62q0 41 43 41h32q41 0 41 -41v-62q0 -41 -41 -41h-32zM463 1450q163 0 243 -75t80 -228v-1106q0 -41 -43 -41h-26q-41 0 -41 41v498h-434v-498q0 -41 -41 -41h-27
q-43 0 -43 41v1106q0 154 80 228.5t244 74.5h8zM242 641h434v469q0 129 -48.5 183.5t-168.5 54.5t-168.5 -54.5t-48.5 -183.5v-469z" />
    <glyph glyph-name="Agrave.ss01" 
d="M408 1569l-140 180q-17 20 -8.5 36.5t33.5 16.5h47q35 0 51 -30l98 -179q10 -22 5.5 -34.5t-23.5 -12.5h-16q-30 0 -47 23zM463 1450q163 0 243 -75t80 -228v-1106q0 -41 -43 -41h-26q-41 0 -41 41v498h-434v-498q0 -41 -41 -41h-27q-43 0 -43 41v1106q0 154 80 228.5
t244 74.5h8zM242 641h434v469q0 129 -48.5 183.5t-168.5 54.5t-168.5 -54.5t-48.5 -183.5v-469z" />
    <glyph glyph-name="Amacron.ss01" 
d="M268 1546q-41 0 -41 41v12q0 41 41 41h381q41 0 41 -41v-12q0 -41 -41 -41h-381zM463 1450q163 0 243 -75t80 -228v-1106q0 -41 -43 -41h-26q-41 0 -41 41v498h-434v-498q0 -41 -41 -41h-27q-43 0 -43 41v1106q0 154 80 228.5t244 74.5h8zM242 641h434v469
q0 129 -48.5 183.5t-168.5 54.5t-168.5 -54.5t-48.5 -183.5v-469z" />
    <glyph glyph-name="Aogonek.ss01" 
d="M743 0q-62 -31 -85.5 -83.5t-4 -92t67.5 -39.5q10 0 22 4q35 9 35 -12v-10q0 -24 -16 -37q-33 -23 -76 -23q-46 0 -79.5 24t-44 61.5t-5 79t38 82.5t84.5 66q-4 12 -4 21v498h-434v-498q0 -41 -41 -41h-27q-43 0 -43 41v1106q0 154 80 228.5t244 74.5h8q163 0 243 -75
t80 -228v-1106q0 -41 -43 -41zM242 641h434v469q0 129 -48.5 183.5t-168.5 54.5t-168.5 -54.5t-48.5 -183.5v-469z" />
    <glyph glyph-name="Aring.ss01" 
d="M459 1534q-78 0 -123 43t-45 115t45 114.5t123 42.5q76 0 121 -42.5t45 -114.5t-45 -115t-121 -43zM459 1780q-40 0 -65 -22t-25 -66t25 -66t65 -22t64 22t24 66t-24 66t-64 22zM463 1450q163 0 243 -75t80 -228v-1106q0 -41 -43 -41h-26q-41 0 -41 41v498h-434v-498
q0 -41 -41 -41h-27q-43 0 -43 41v1106q0 154 80 228.5t244 74.5h8zM242 641h434v469q0 129 -48.5 183.5t-168.5 54.5t-168.5 -54.5t-48.5 -183.5v-469z" />
    <glyph glyph-name="Aringacute.ss01" 
d="M432 1901q-48 0 -29 47l101 178q16 31 49 31h47q26 0 34 -17t-9 -37l-140 -180q-17 -22 -47 -22h-6zM459 1534q-78 0 -123 43t-45 115t45 114.5t123 42.5q76 0 121 -42.5t45 -114.5t-45 -115t-121 -43zM459 1780q-40 0 -65 -22t-25 -66t25 -66t65 -22t64 22t24 66t-24 66
t-64 22zM463 1450q163 0 243 -75t80 -228v-1106q0 -41 -43 -41h-26q-41 0 -41 41v498h-434v-498q0 -41 -41 -41h-27q-43 0 -43 41v1106q0 154 80 228.5t244 74.5h8zM242 641h434v469q0 129 -48.5 183.5t-168.5 54.5t-168.5 -54.5t-48.5 -183.5v-469z" />
    <glyph glyph-name="Atilde.ss01" 
d="M203 1554q-39 0 -39 39q0 95 45 145t115 50q36 0 68.5 -16t56.5 -39t46.5 -46t47 -39t49.5 -16q72 0 72 111q0 33 38 33h13q39 0 39 -37q0 -97 -44 -146t-114 -49q-35 0 -67.5 16t-56.5 38.5t-46.5 45t-47.5 38.5t-50 16q-76 0 -76 -109q0 -35 -37 -35h-12zM463 1450
q163 0 243 -75t80 -228v-1106q0 -41 -43 -41h-26q-41 0 -41 41v498h-434v-498q0 -41 -41 -41h-27q-43 0 -43 41v1106q0 154 80 228.5t244 74.5h8zM242 641h434v469q0 129 -48.5 183.5t-168.5 54.5t-168.5 -54.5t-48.5 -183.5v-469z" />
    <glyph glyph-name="AE.ss01" horiz-adv-x="1271" 
d="M1163 102q43 0 43 -43v-18q0 -41 -43 -41h-483q-43 0 -43 41v481h-395v-481q0 -41 -41 -41h-27q-43 0 -43 41v1089q0 155 80.5 229.5t243.5 74.5h702q43 0 43 -41v-19q0 -43 -43 -43h-409v-553h346q43 0 43 -43v-16q0 -43 -43 -43h-346v-574h415zM242 625h395v706h-178
q-120 0 -168.5 -54t-48.5 -183v-469z" />
    <glyph glyph-name="AEacute.ss01" horiz-adv-x="1271" 
d="M705 1546q-48 0 -29 47l100 179q15 30 49 30h47q26 0 34 -16.5t-9 -36.5l-139 -180q-17 -23 -47 -23h-6zM1163 102q43 0 43 -43v-18q0 -41 -43 -41h-483q-43 0 -43 41v481h-395v-481q0 -41 -41 -41h-27q-43 0 -43 41v1089q0 155 80.5 229.5t243.5 74.5h702q43 0 43 -41
v-19q0 -43 -43 -43h-409v-553h346q43 0 43 -43v-16q0 -43 -43 -43h-346v-574h415zM242 625h395v706h-178q-120 0 -168.5 -54t-48.5 -183v-469z" />
    <glyph glyph-name="G.ss01" horiz-adv-x="925" 
d="M799 1001q0 -43 -43 -43h-27q-41 0 -41 43v109q0 128 -52 183t-173 55t-173 -55t-52 -183v-786q0 -128 52 -183t173 -55t173 55t52 183v286h-192q-41 0 -41 41v19q0 41 41 41h260q20 0 31.5 -11t11.5 -30v-635q0 -39 -33 -39q-34 0 -43 35l-14 78q-30 -60 -94.5 -92.5
t-147.5 -32.5h-16q-324 0 -324 303v860q0 148 83 225.5t245 77.5h16q162 0 245 -77.5t83 -225.5v-146z" />
    <glyph glyph-name="Gbreve.ss01" horiz-adv-x="925" 
d="M631 1784q41 0 41 -41v-39q0 -78 -53.5 -119t-143.5 -41h-24q-91 0 -144 41.5t-53 120.5v37q0 41 41 41h12q39 0 39 -41v-19q0 -51 27 -74.5t86 -23.5h8q59 0 86 23.5t27 74.5v19q0 41 38 41h13zM799 1001q0 -43 -43 -43h-27q-41 0 -41 43v109q0 128 -52 183t-173 55
t-173 -55t-52 -183v-786q0 -128 52 -183t173 -55t173 55t52 183v286h-192q-41 0 -41 41v19q0 41 41 41h260q20 0 31.5 -11t11.5 -30v-635q0 -39 -33 -39q-34 0 -43 35l-14 78q-30 -60 -94.5 -92.5t-147.5 -32.5h-16q-324 0 -324 303v860q0 148 83 225.5t245 77.5h16
q162 0 245 -77.5t83 -225.5v-146z" />
    <glyph glyph-name="Gcommaaccent.ss01" horiz-adv-x="925" 
d="M799 1001q0 -43 -43 -43h-27q-41 0 -41 43v109q0 128 -52 183t-173 55t-173 -55t-52 -183v-786q0 -128 52 -183t173 -55t173 55t52 183v286h-192q-41 0 -41 41v19q0 41 41 41h260q20 0 31.5 -11t11.5 -30v-635q0 -39 -33 -39q-34 0 -43 35l-14 78q-30 -60 -94.5 -92.5
t-147.5 -32.5h-16q-324 0 -324 303v860q0 148 83 225.5t245 77.5h16q162 0 245 -77.5t83 -225.5v-146zM479 -143q43 0 43 -43v-66q0 -135 -51 -250q-18 -35 -43 -24q-21 9 -8 49q37 85 37 184h-13q-43 0 -43 41v66q0 43 43 43h35z" />
    <glyph glyph-name="Gdotaccent.ss01" horiz-adv-x="925" 
d="M479 1690q43 0 43 -41v-62q0 -41 -43 -41h-33q-43 0 -43 41v62q0 41 43 41h33zM799 1001q0 -43 -43 -43h-27q-41 0 -41 43v109q0 128 -52 183t-173 55t-173 -55t-52 -183v-786q0 -128 52 -183t173 -55t173 55t52 183v286h-192q-41 0 -41 41v19q0 41 41 41h260
q20 0 31.5 -11t11.5 -30v-635q0 -39 -33 -39q-34 0 -43 35l-14 78q-30 -60 -94.5 -92.5t-147.5 -32.5h-16q-324 0 -324 303v860q0 148 83 225.5t245 77.5h16q162 0 245 -77.5t83 -225.5v-146z" />
    <glyph glyph-name="M.ss01" horiz-adv-x="1425" 
d="M1018 1450q129 0 202.5 -75.5t73.5 -223.5v-1110q0 -41 -43 -41h-26q-41 0 -41 41v1063q0 244 -183 244q-101 0 -166 -65.5t-65 -178.5v-1063q0 -41 -41 -41h-29q-41 0 -41 41v1063q0 244 -182 244q-100 0 -165.5 -66t-65.5 -178v-1063q0 -41 -41 -41h-27q-43 0 -43 41
v1352q0 41 43 41h27q41 0 41 -41v-95q78 152 250 152q199 0 256 -172q77 172 266 172z" />
    <glyph glyph-name="N.ss01" horiz-adv-x="921" 
d="M791 41q0 -41 -43 -41h-27q-41 0 -41 41v1063q0 244 -191 244q-104 0 -173.5 -64.5t-69.5 -179.5v-1063q0 -41 -41 -41h-27q-43 0 -43 41v1352q0 41 43 41h27q41 0 41 -41v-95q78 152 264 152q131 0 206 -75.5t75 -223.5v-1110z" />
    <glyph glyph-name="Nacute.ss01" horiz-adv-x="921" 
d="M535 1772q15 30 49 30h47q26 0 33.5 -16.5t-9.5 -36.5l-139 -180q-17 -23 -47 -23h-6q-48 0 -29 47zM791 41q0 -41 -43 -41h-27q-41 0 -41 41v1063q0 244 -191 244q-104 0 -173.5 -64.5t-69.5 -179.5v-1063q0 -41 -41 -41h-27q-43 0 -43 41v1352q0 41 43 41h27
q41 0 41 -41v-95q78 152 264 152q131 0 206 -75.5t75 -223.5v-1110z" />
    <glyph glyph-name="Ncaron.ss01" horiz-adv-x="921" 
d="M664 1751q13 20 7 35.5t-28 15.5h-25q-32 0 -49 -28l-106 -148l-107 148q-17 28 -49 28h-18q-25 0 -32.5 -15.5t7.5 -35.5l127 -178q18 -27 49 -27h45q32 0 50 27zM791 41q0 -41 -43 -41h-27q-41 0 -41 41v1063q0 244 -191 244q-104 0 -173.5 -64.5t-69.5 -179.5v-1063
q0 -41 -41 -41h-27q-43 0 -43 41v1352q0 41 43 41h27q41 0 41 -41v-95q78 152 264 152q131 0 206 -75.5t75 -223.5v-1110z" />
    <glyph glyph-name="Ncommaaccent.ss01" horiz-adv-x="921" 
d="M791 41q0 -41 -43 -41h-27q-41 0 -41 41v1063q0 244 -191 244q-104 0 -173.5 -64.5t-69.5 -179.5v-1063q0 -41 -41 -41h-27q-43 0 -43 41v1352q0 41 43 41h27q41 0 41 -41v-95q78 152 264 152q131 0 206 -75.5t75 -223.5v-1110zM479 -143q43 0 43 -43v-66
q0 -135 -51 -250q-18 -35 -43 -24q-21 9 -8 49q37 85 37 184h-13q-43 0 -43 41v66q0 43 43 43h35z" />
    <glyph glyph-name="Eng.ss01" horiz-adv-x="921" 
d="M510 1450q131 0 206 -75.5t75 -223.5v-1131q0 -153 -81 -228t-235 -75h-8q-41 0 -41 43v17q0 43 41 43h4q110 0 159.5 55.5t49.5 183.5v1045q0 244 -191 244q-104 0 -173.5 -64.5t-69.5 -179.5v-1063q0 -41 -41 -41h-27q-43 0 -43 41v1352q0 41 43 41h27q41 0 41 -41v-95
q78 152 264 152z" />
    <glyph glyph-name="Ntilde.ss01" horiz-adv-x="921" 
d="M256 1589q0 109 76 109q25 0 50 -16t47.5 -38.5t46.5 -45t56.5 -38.5t67.5 -16q70 0 114 49t44 146q0 37 -39 37h-12q-39 0 -39 -33q0 -111 -72 -111q-25 0 -49.5 16t-47 39t-46.5 46t-56.5 39t-68.5 16q-70 0 -115 -50t-45 -145q0 -39 39 -39h12q37 0 37 35zM791 41
q0 -41 -43 -41h-27q-41 0 -41 41v1063q0 244 -191 244q-104 0 -173.5 -64.5t-69.5 -179.5v-1063q0 -41 -41 -41h-27q-43 0 -43 41v1352q0 41 43 41h27q41 0 41 -41v-95q78 152 264 152q131 0 206 -75.5t75 -223.5v-1110z" />
    <glyph glyph-name="Q.ss01" horiz-adv-x="925" 
d="M471 1450q328 0 328 -303v-860q0 -138 -70 -214t-207 -87q-13 -70 26 -106t107 -17q40 9 54 -33q13 -43 -27 -55q-48 -15 -88.5 -12.5t-72.5 15t-53.5 36t-32 51t-8.5 59t17 60.5q-317 3 -317 303v860q0 303 328 303h16zM688 324v786q0 128 -52 183t-173 55t-173 -55
t-52 -183v-786q0 -128 52 -183t173 -55t173 55t52 183z" />
    <glyph glyph-name="R.ss01" horiz-adv-x="915" 
d="M793 1130v-217q0 -88 -49.5 -151t-131.5 -72q89 -11 135 -67t46 -129v-301q0 -44 1.5 -67t8.5 -47t22 -36q25 -21 25 -31q0 -12 -35 -12h-41q-29 0 -48.5 16.5t-28.5 46.5t-12 60t-3 70v272q0 96 -54.5 132t-170.5 36h-211v-592q0 -41 -41 -41h-27q-43 0 -43 41v1352
q0 41 43 41h287q328 0 328 -304zM246 735h211q110 0 167.5 50.5t57.5 150.5v158q0 128 -52 182.5t-173 54.5h-211v-596z" />
    <glyph glyph-name="Racute.ss01" horiz-adv-x="915" 
d="M506 1772q15 30 49 30h47q26 0 34 -16.5t-9 -36.5l-140 -180q-17 -23 -47 -23h-6q-47 0 -28 47zM793 1130v-217q0 -88 -49.5 -151t-131.5 -72q89 -11 135 -67t46 -129v-301q0 -44 1.5 -67t8.5 -47t22 -36q25 -21 25 -31q0 -12 -35 -12h-41q-29 0 -48.5 16.5t-28.5 46.5
t-12 60t-3 70v272q0 96 -54.5 132t-170.5 36h-211v-592q0 -41 -41 -41h-27q-43 0 -43 41v1352q0 41 43 41h287q328 0 328 -304zM246 735h211q110 0 167.5 50.5t57.5 150.5v158q0 128 -52 182.5t-173 54.5h-211v-596z" />
    <glyph glyph-name="Rcaron.ss01" horiz-adv-x="915" 
d="M635 1751q13 20 7 35.5t-28 15.5h-24q-32 0 -49 -28l-107 -148l-106 148q-17 28 -49 28h-19q-25 0 -32 -15.5t8 -35.5l126 -178q18 -27 50 -27h45q31 0 49 27zM793 1130v-217q0 -88 -49.5 -151t-131.5 -72q89 -11 135 -67t46 -129v-301q0 -44 1.5 -67t8.5 -47t22 -36
q25 -21 25 -31q0 -12 -35 -12h-41q-29 0 -48.5 16.5t-28.5 46.5t-12 60t-3 70v272q0 96 -54.5 132t-170.5 36h-211v-592q0 -41 -41 -41h-27q-43 0 -43 41v1352q0 41 43 41h287q328 0 328 -304zM246 735h211q110 0 167.5 50.5t57.5 150.5v158q0 128 -52 182.5t-173 54.5h-211
v-596z" />
    <glyph glyph-name="Rcommaaccent.ss01" horiz-adv-x="915" 
d="M793 1130v-217q0 -88 -49.5 -151t-131.5 -72q89 -11 135 -67t46 -129v-301q0 -44 1.5 -67t8.5 -47t22 -36q25 -21 25 -31q0 -12 -35 -12h-41q-29 0 -48.5 16.5t-28.5 46.5t-12 60t-3 70v272q0 96 -54.5 132t-170.5 36h-211v-592q0 -41 -41 -41h-27q-43 0 -43 41v1352
q0 41 43 41h287q328 0 328 -304zM246 735h211q110 0 167.5 50.5t57.5 150.5v158q0 128 -52 182.5t-173 54.5h-211v-596zM502 -143q43 0 43 -43v-66q0 -135 -51 -250q-18 -35 -43 -24q-22 10 -9 49q37 85 37 184h-12q-43 0 -43 41v66q0 43 43 43h35z" />
    <glyph glyph-name="W.ss01" horiz-adv-x="1421" 
d="M1180 1393q0 41 41 41h26q43 0 43 -41v-1086q0 -82 -25.5 -145t-69.5 -101t-99.5 -57.5t-120.5 -19.5q-91 0 -162 37t-104 116q-23 -54 -66.5 -89.5t-92 -49.5t-104.5 -14q-136 0 -225.5 78t-89.5 225v1106q0 41 43 41h27q41 0 41 -41v-1059q0 -248 207 -248
q206 0 206 248v1059q0 41 41 41h29q41 0 41 -41v-1059q0 -248 207 -248t207 248v1059z" />
    <glyph glyph-name="Wacute.ss01" horiz-adv-x="1421" 
d="M782 1772q15 30 49 30h48q26 0 33.5 -16.5t-9.5 -36.5l-139 -180q-17 -23 -47 -23h-6q-48 0 -29 47zM1180 1393q0 41 41 41h26q43 0 43 -41v-1086q0 -82 -25.5 -145t-69.5 -101t-99.5 -57.5t-120.5 -19.5q-91 0 -162 37t-104 116q-23 -54 -66.5 -89.5t-92 -49.5
t-104.5 -14q-136 0 -225.5 78t-89.5 225v1106q0 41 43 41h27q41 0 41 -41v-1059q0 -248 207 -248q206 0 206 248v1059q0 41 41 41h29q41 0 41 -41v-1059q0 -248 207 -248t207 248v1059z" />
    <glyph glyph-name="Wcircumflex.ss01" horiz-adv-x="1421" 
d="M891 1546q22 0 28 15.5t-8 35.5l-129 177q-17 28 -49 28h-45q-32 0 -49 -28l-129 -177q-14 -20 -8 -35.5t28 -15.5h25q32 0 49 29l107 147l106 -147q17 -29 49 -29h25zM1180 1393q0 41 41 41h26q43 0 43 -41v-1086q0 -82 -25.5 -145t-69.5 -101t-99.5 -57.5t-120.5 -19.5
q-91 0 -162 37t-104 116q-23 -54 -66.5 -89.5t-92 -49.5t-104.5 -14q-136 0 -225.5 78t-89.5 225v1106q0 41 43 41h27q41 0 41 -41v-1059q0 -248 207 -248q206 0 206 248v1059q0 41 41 41h29q41 0 41 -41v-1059q0 -248 207 -248t207 248v1059z" />
    <glyph glyph-name="Wdieresis.ss01" horiz-adv-x="1421" 
d="M590 1690q43 0 43 -41v-62q0 -41 -43 -41h-33q-41 0 -41 41v62q0 41 41 41h33zM864 1690q41 0 41 -41v-62q0 -41 -41 -41h-33q-43 0 -43 41v62q0 41 43 41h33zM1180 1393q0 41 41 41h26q43 0 43 -41v-1086q0 -82 -25.5 -145t-69.5 -101t-99.5 -57.5t-120.5 -19.5
q-91 0 -162 37t-104 116q-23 -54 -66.5 -89.5t-92 -49.5t-104.5 -14q-136 0 -225.5 78t-89.5 225v1106q0 41 43 41h27q41 0 41 -41v-1059q0 -248 207 -248q206 0 206 248v1059q0 41 41 41h29q41 0 41 -41v-1059q0 -248 207 -248t207 248v1059z" />
    <glyph glyph-name="Wgrave.ss01" horiz-adv-x="1421" 
d="M592 1802q35 0 51 -30l98 -179q10 -22 5.5 -34.5t-23.5 -12.5h-16q-31 0 -48 23l-139 180q-17 20 -8.5 36.5t33.5 16.5h47zM1180 1393q0 41 41 41h26q43 0 43 -41v-1086q0 -82 -25.5 -145t-69.5 -101t-99.5 -57.5t-120.5 -19.5q-91 0 -162 37t-104 116
q-23 -54 -66.5 -89.5t-92 -49.5t-104.5 -14q-136 0 -225.5 78t-89.5 225v1106q0 41 43 41h27q41 0 41 -41v-1059q0 -248 207 -248q206 0 206 248v1059q0 41 41 41h29q41 0 41 -41v-1059q0 -248 207 -248t207 248v1059z" />
    <glyph glyph-name="Y.ss01" horiz-adv-x="913" 
d="M672 1393q0 41 41 41h26q43 0 43 -41v-1106q0 -153 -80 -228t-243 -75h-8q-164 0 -244 74.5t-80 228.5v100q0 41 43 41h27q41 0 41 -41v-63q0 -129 48.5 -183.5t168.5 -54.5t168.5 54.5t48.5 183.5v413q-80 -153 -264 -153q-131 0 -206 76.5t-75 226.5v506q0 41 43 41h27
q41 0 41 -41v-459q0 -250 190 -250q103 0 173.5 66.5t70.5 183.5v459z" />
    <glyph glyph-name="Yacute.ss01" horiz-adv-x="913" 
d="M526 1772q15 30 49 30h48q26 0 33.5 -16.5t-9.5 -36.5l-139 -180q-17 -23 -47 -23h-6q-48 0 -29 47zM672 1393q0 41 41 41h26q43 0 43 -41v-1106q0 -153 -80 -228t-243 -75h-8q-164 0 -244 74.5t-80 228.5v100q0 41 43 41h27q41 0 41 -41v-63q0 -129 48.5 -183.5
t168.5 -54.5t168.5 54.5t48.5 183.5v413q-80 -153 -264 -153q-131 0 -206 76.5t-75 226.5v506q0 41 43 41h27q41 0 41 -41v-459q0 -250 190 -250q103 0 173.5 66.5t70.5 183.5v459z" />
    <glyph glyph-name="Ycircumflex.ss01" horiz-adv-x="913" 
d="M635 1546q22 0 28 15.5t-8 35.5l-129 177q-17 28 -49 28h-45q-32 0 -49 -28l-129 -177q-14 -20 -8 -35.5t28 -15.5h25q32 0 49 29l107 147l106 -147q17 -29 49 -29h25zM672 1393q0 41 41 41h26q43 0 43 -41v-1106q0 -153 -80 -228t-243 -75h-8q-164 0 -244 74.5
t-80 228.5v100q0 41 43 41h27q41 0 41 -41v-63q0 -129 48.5 -183.5t168.5 -54.5t168.5 54.5t48.5 183.5v413q-80 -153 -264 -153q-131 0 -206 76.5t-75 226.5v506q0 41 43 41h27q41 0 41 -41v-459q0 -250 190 -250q103 0 173.5 66.5t70.5 183.5v459z" />
    <glyph glyph-name="Ydieresis.ss01" horiz-adv-x="913" 
d="M334 1690q43 0 43 -41v-62q0 -41 -43 -41h-33q-41 0 -41 41v62q0 41 41 41h33zM608 1690q41 0 41 -41v-62q0 -41 -41 -41h-33q-43 0 -43 41v62q0 41 43 41h33zM672 1393q0 41 41 41h26q43 0 43 -41v-1106q0 -153 -80 -228t-243 -75h-8q-164 0 -244 74.5t-80 228.5v100
q0 41 43 41h27q41 0 41 -41v-63q0 -129 48.5 -183.5t168.5 -54.5t168.5 54.5t48.5 183.5v413q-80 -153 -264 -153q-131 0 -206 76.5t-75 226.5v506q0 41 43 41h27q41 0 41 -41v-459q0 -250 190 -250q103 0 173.5 66.5t70.5 183.5v459z" />
    <glyph glyph-name="Ygrave.ss01" horiz-adv-x="913" 
d="M336 1802q35 0 51 -30l98 -179q10 -22 5.5 -34.5t-23.5 -12.5h-16q-31 0 -48 23l-139 180q-17 20 -8.5 36.5t33.5 16.5h47zM672 1393q0 41 41 41h26q43 0 43 -41v-1106q0 -153 -80 -228t-243 -75h-8q-164 0 -244 74.5t-80 228.5v100q0 41 43 41h27q41 0 41 -41v-63
q0 -129 48.5 -183.5t168.5 -54.5t168.5 54.5t48.5 183.5v413q-80 -153 -264 -153q-131 0 -206 76.5t-75 226.5v506q0 41 43 41h27q41 0 41 -41v-459q0 -250 190 -250q103 0 173.5 66.5t70.5 183.5v459z" />
    <glyph glyph-name="i.loclTRK" horiz-adv-x="399" 
d="M215 1690q43 0 43 -41v-62q0 -41 -43 -41h-33q-43 0 -43 41v62q0 41 43 41h33zM254 41q0 -41 -41 -41h-27q-43 0 -43 41v1352q0 41 43 41h27q41 0 41 -41v-1352z" />
    <glyph glyph-name="a.ss01" 
d="M463 1450q163 0 243 -75t80 -228v-1106q0 -41 -43 -41h-26q-41 0 -41 41v498h-434v-498q0 -41 -41 -41h-27q-43 0 -43 41v1106q0 154 80 228.5t244 74.5h8zM242 641h434v469q0 129 -48.5 183.5t-168.5 54.5t-168.5 -54.5t-48.5 -183.5v-469z" />
    <glyph glyph-name="aacute.ss01" 
d="M459 1546q-48 0 -29 47l100 179q15 30 50 30h47q26 0 33.5 -16.5t-9.5 -36.5l-139 -180q-17 -23 -47 -23h-6zM463 1450q163 0 243 -75t80 -228v-1106q0 -41 -43 -41h-26q-41 0 -41 41v498h-434v-498q0 -41 -41 -41h-27q-43 0 -43 41v1106q0 154 80 228.5t244 74.5h8z
M242 641h434v469q0 129 -48.5 183.5t-168.5 54.5t-168.5 -54.5t-48.5 -183.5v-469z" />
    <glyph glyph-name="abreve.ss01" 
d="M446 1544q-91 0 -143.5 41t-52.5 121v37q0 41 41 41h12q39 0 39 -41v-19q0 -51 27 -74.5t86 -23.5h8q58 0 85 23.5t27 74.5v19q0 41 39 41h13q41 0 41 -41v-39q0 -78 -53.5 -119t-143.5 -41h-25zM463 1450q163 0 243 -75t80 -228v-1106q0 -41 -43 -41h-26q-41 0 -41 41
v498h-434v-498q0 -41 -41 -41h-27q-43 0 -43 41v1106q0 154 80 228.5t244 74.5h8zM242 641h434v469q0 129 -48.5 183.5t-168.5 54.5t-168.5 -54.5t-48.5 -183.5v-469z" />
    <glyph glyph-name="acircumflex.ss01" 
d="M279 1546q-22 0 -28 15.5t7 35.5l129 177q17 28 49 28h45q32 0 49 -28l129 -177q14 -20 8 -35.5t-28 -15.5h-25q-32 0 -49 29l-106 147l-107 -147q-17 -29 -49 -29h-24zM463 1450q163 0 243 -75t80 -228v-1106q0 -41 -43 -41h-26q-41 0 -41 41v498h-434v-498
q0 -41 -41 -41h-27q-43 0 -43 41v1106q0 154 80 228.5t244 74.5h8zM242 641h434v469q0 129 -48.5 183.5t-168.5 54.5t-168.5 -54.5t-48.5 -183.5v-469z" />
    <glyph glyph-name="adieresis.ss01" 
d="M305 1546q-41 0 -41 41v62q0 41 41 41h33q43 0 43 -41v-62q0 -41 -43 -41h-33zM580 1546q-43 0 -43 41v62q0 41 43 41h32q41 0 41 -41v-62q0 -41 -41 -41h-32zM463 1450q163 0 243 -75t80 -228v-1106q0 -41 -43 -41h-26q-41 0 -41 41v498h-434v-498q0 -41 -41 -41h-27
q-43 0 -43 41v1106q0 154 80 228.5t244 74.5h8zM242 641h434v469q0 129 -48.5 183.5t-168.5 54.5t-168.5 -54.5t-48.5 -183.5v-469z" />
    <glyph glyph-name="agrave.ss01" 
d="M408 1569l-140 180q-17 20 -8.5 36.5t33.5 16.5h47q35 0 51 -30l98 -179q10 -22 5.5 -34.5t-23.5 -12.5h-16q-30 0 -47 23zM463 1450q163 0 243 -75t80 -228v-1106q0 -41 -43 -41h-26q-41 0 -41 41v498h-434v-498q0 -41 -41 -41h-27q-43 0 -43 41v1106q0 154 80 228.5
t244 74.5h8zM242 641h434v469q0 129 -48.5 183.5t-168.5 54.5t-168.5 -54.5t-48.5 -183.5v-469z" />
    <glyph glyph-name="amacron.ss01" 
d="M268 1546q-41 0 -41 41v12q0 41 41 41h381q41 0 41 -41v-12q0 -41 -41 -41h-381zM463 1450q163 0 243 -75t80 -228v-1106q0 -41 -43 -41h-26q-41 0 -41 41v498h-434v-498q0 -41 -41 -41h-27q-43 0 -43 41v1106q0 154 80 228.5t244 74.5h8zM242 641h434v469
q0 129 -48.5 183.5t-168.5 54.5t-168.5 -54.5t-48.5 -183.5v-469z" />
    <glyph glyph-name="aogonek.ss01" 
d="M743 0q-62 -31 -85.5 -83.5t-4 -92t67.5 -39.5q10 0 22 4q35 9 35 -12v-10q0 -24 -16 -37q-33 -23 -76 -23q-46 0 -79.5 24t-44 61.5t-5 79t38 82.5t84.5 66q-4 12 -4 21v498h-434v-498q0 -41 -41 -41h-27q-43 0 -43 41v1106q0 154 80 228.5t244 74.5h8q163 0 243 -75
t80 -228v-1106q0 -41 -43 -41zM242 641h434v469q0 129 -48.5 183.5t-168.5 54.5t-168.5 -54.5t-48.5 -183.5v-469z" />
    <glyph glyph-name="aring.ss01" 
d="M459 1534q-78 0 -123 43t-45 115t45 114.5t123 42.5q76 0 121 -42.5t45 -114.5t-45 -115t-121 -43zM459 1780q-40 0 -65 -22t-25 -66t25 -66t65 -22t64 22t24 66t-24 66t-64 22zM463 1450q163 0 243 -75t80 -228v-1106q0 -41 -43 -41h-26q-41 0 -41 41v498h-434v-498
q0 -41 -41 -41h-27q-43 0 -43 41v1106q0 154 80 228.5t244 74.5h8zM242 641h434v469q0 129 -48.5 183.5t-168.5 54.5t-168.5 -54.5t-48.5 -183.5v-469z" />
    <glyph glyph-name="aringacute.ss01" 
d="M432 1901q-48 0 -29 47l101 178q16 31 49 31h47q26 0 34 -17t-9 -37l-140 -180q-17 -22 -47 -22h-6zM459 1534q-78 0 -123 43t-45 115t45 114.5t123 42.5q76 0 121 -42.5t45 -114.5t-45 -115t-121 -43zM459 1780q-40 0 -65 -22t-25 -66t25 -66t65 -22t64 22t24 66t-24 66
t-64 22zM463 1450q163 0 243 -75t80 -228v-1106q0 -41 -43 -41h-26q-41 0 -41 41v498h-434v-498q0 -41 -41 -41h-27q-43 0 -43 41v1106q0 154 80 228.5t244 74.5h8zM242 641h434v469q0 129 -48.5 183.5t-168.5 54.5t-168.5 -54.5t-48.5 -183.5v-469z" />
    <glyph glyph-name="atilde.ss01" 
d="M203 1554q-39 0 -39 39q0 95 45 145t115 50q36 0 68.5 -16t56.5 -39t46.5 -46t47 -39t49.5 -16q72 0 72 111q0 33 38 33h13q39 0 39 -37q0 -97 -44 -146t-114 -49q-35 0 -67.5 16t-56.5 38.5t-46.5 45t-47.5 38.5t-50 16q-76 0 -76 -109q0 -35 -37 -35h-12zM463 1450
q163 0 243 -75t80 -228v-1106q0 -41 -43 -41h-26q-41 0 -41 41v498h-434v-498q0 -41 -41 -41h-27q-43 0 -43 41v1106q0 154 80 228.5t244 74.5h8zM242 641h434v469q0 129 -48.5 183.5t-168.5 54.5t-168.5 -54.5t-48.5 -183.5v-469z" />
    <glyph glyph-name="ae.ss01" horiz-adv-x="1271" 
d="M1163 102q43 0 43 -43v-18q0 -41 -43 -41h-483q-43 0 -43 41v481h-395v-481q0 -41 -41 -41h-27q-43 0 -43 41v1089q0 155 80.5 229.5t243.5 74.5h702q43 0 43 -41v-19q0 -43 -43 -43h-409v-553h346q43 0 43 -43v-16q0 -43 -43 -43h-346v-574h415zM242 625h395v706h-178
q-120 0 -168.5 -54t-48.5 -183v-469z" />
    <glyph glyph-name="aeacute.ss01" horiz-adv-x="1271" 
d="M705 1546q-48 0 -29 47l100 179q15 30 49 30h47q26 0 34 -16.5t-9 -36.5l-139 -180q-17 -23 -47 -23h-6zM1163 102q43 0 43 -43v-18q0 -41 -43 -41h-483q-43 0 -43 41v481h-395v-481q0 -41 -41 -41h-27q-43 0 -43 41v1089q0 155 80.5 229.5t243.5 74.5h702q43 0 43 -41
v-19q0 -43 -43 -43h-409v-553h346q43 0 43 -43v-16q0 -43 -43 -43h-346v-574h415zM242 625h395v706h-178q-120 0 -168.5 -54t-48.5 -183v-469z" />
    <glyph glyph-name="g.ss01" horiz-adv-x="925" 
d="M799 1001q0 -43 -43 -43h-27q-41 0 -41 43v109q0 128 -52 183t-173 55t-173 -55t-52 -183v-786q0 -128 52 -183t173 -55t173 55t52 183v286h-192q-41 0 -41 41v19q0 41 41 41h260q20 0 31.5 -11t11.5 -30v-635q0 -39 -33 -39q-34 0 -43 35l-14 78q-30 -60 -94.5 -92.5
t-147.5 -32.5h-16q-324 0 -324 303v860q0 148 83 225.5t245 77.5h16q162 0 245 -77.5t83 -225.5v-146z" />
    <glyph glyph-name="gbreve.ss01" horiz-adv-x="925" 
d="M631 1784q41 0 41 -41v-39q0 -78 -53.5 -119t-143.5 -41h-24q-91 0 -144 41.5t-53 120.5v37q0 41 41 41h12q39 0 39 -41v-19q0 -51 27 -74.5t86 -23.5h8q59 0 86 23.5t27 74.5v19q0 41 38 41h13zM799 1001q0 -43 -43 -43h-27q-41 0 -41 43v109q0 128 -52 183t-173 55
t-173 -55t-52 -183v-786q0 -128 52 -183t173 -55t173 55t52 183v286h-192q-41 0 -41 41v19q0 41 41 41h260q20 0 31.5 -11t11.5 -30v-635q0 -39 -33 -39q-34 0 -43 35l-14 78q-30 -60 -94.5 -92.5t-147.5 -32.5h-16q-324 0 -324 303v860q0 148 83 225.5t245 77.5h16
q162 0 245 -77.5t83 -225.5v-146z" />
    <glyph glyph-name="gcommaaccent.ss01" horiz-adv-x="925" 
d="M799 1001q0 -43 -43 -43h-27q-41 0 -41 43v109q0 128 -52 183t-173 55t-173 -55t-52 -183v-786q0 -128 52 -183t173 -55t173 55t52 183v286h-192q-41 0 -41 41v19q0 41 41 41h260q20 0 31.5 -11t11.5 -30v-635q0 -39 -33 -39q-34 0 -43 35l-14 78q-30 -60 -94.5 -92.5
t-147.5 -32.5h-16q-324 0 -324 303v860q0 148 83 225.5t245 77.5h16q162 0 245 -77.5t83 -225.5v-146zM479 -143q43 0 43 -43v-66q0 -135 -51 -250q-18 -35 -43 -24q-21 9 -8 49q37 85 37 184h-13q-43 0 -43 41v66q0 43 43 43h35z" />
    <glyph glyph-name="gdotaccent.ss01" horiz-adv-x="925" 
d="M479 1690q43 0 43 -41v-62q0 -41 -43 -41h-33q-43 0 -43 41v62q0 41 43 41h33zM799 1001q0 -43 -43 -43h-27q-41 0 -41 43v109q0 128 -52 183t-173 55t-173 -55t-52 -183v-786q0 -128 52 -183t173 -55t173 55t52 183v286h-192q-41 0 -41 41v19q0 41 41 41h260
q20 0 31.5 -11t11.5 -30v-635q0 -39 -33 -39q-34 0 -43 35l-14 78q-30 -60 -94.5 -92.5t-147.5 -32.5h-16q-324 0 -324 303v860q0 148 83 225.5t245 77.5h16q162 0 245 -77.5t83 -225.5v-146z" />
    <glyph glyph-name="m.ss01" horiz-adv-x="1425" 
d="M1018 1450q129 0 202.5 -75.5t73.5 -223.5v-1110q0 -41 -43 -41h-26q-41 0 -41 41v1063q0 244 -183 244q-101 0 -166 -65.5t-65 -178.5v-1063q0 -41 -41 -41h-29q-41 0 -41 41v1063q0 244 -182 244q-100 0 -165.5 -66t-65.5 -178v-1063q0 -41 -41 -41h-27q-43 0 -43 41
v1352q0 41 43 41h27q41 0 41 -41v-95q78 152 250 152q199 0 256 -172q77 172 266 172z" />
    <glyph glyph-name="n.ss01" horiz-adv-x="921" 
d="M791 41q0 -41 -43 -41h-27q-41 0 -41 41v1063q0 244 -191 244q-104 0 -173.5 -64.5t-69.5 -179.5v-1063q0 -41 -41 -41h-27q-43 0 -43 41v1352q0 41 43 41h27q41 0 41 -41v-95q78 152 264 152q131 0 206 -75.5t75 -223.5v-1110z" />
    <glyph glyph-name="nacute.ss01" horiz-adv-x="921" 
d="M535 1772q15 30 49 30h47q26 0 33.5 -16.5t-9.5 -36.5l-139 -180q-17 -23 -47 -23h-6q-48 0 -29 47zM791 41q0 -41 -43 -41h-27q-41 0 -41 41v1063q0 244 -191 244q-104 0 -173.5 -64.5t-69.5 -179.5v-1063q0 -41 -41 -41h-27q-43 0 -43 41v1352q0 41 43 41h27
q41 0 41 -41v-95q78 152 264 152q131 0 206 -75.5t75 -223.5v-1110z" />
    <glyph glyph-name="ncaron.ss01" horiz-adv-x="921" 
d="M664 1751q13 20 7 35.5t-28 15.5h-25q-32 0 -49 -28l-106 -148l-107 148q-17 28 -49 28h-18q-25 0 -32.5 -15.5t7.5 -35.5l127 -178q18 -27 49 -27h45q32 0 50 27zM791 41q0 -41 -43 -41h-27q-41 0 -41 41v1063q0 244 -191 244q-104 0 -173.5 -64.5t-69.5 -179.5v-1063
q0 -41 -41 -41h-27q-43 0 -43 41v1352q0 41 43 41h27q41 0 41 -41v-95q78 152 264 152q131 0 206 -75.5t75 -223.5v-1110z" />
    <glyph glyph-name="ncommaaccent.ss01" horiz-adv-x="921" 
d="M791 41q0 -41 -43 -41h-27q-41 0 -41 41v1063q0 244 -191 244q-104 0 -173.5 -64.5t-69.5 -179.5v-1063q0 -41 -41 -41h-27q-43 0 -43 41v1352q0 41 43 41h27q41 0 41 -41v-95q78 152 264 152q131 0 206 -75.5t75 -223.5v-1110zM479 -143q43 0 43 -43v-66
q0 -135 -51 -250q-18 -35 -43 -24q-21 9 -8 49q37 85 37 184h-13q-43 0 -43 41v66q0 43 43 43h35z" />
    <glyph glyph-name="eng.ss01" horiz-adv-x="921" 
d="M510 1450q131 0 206 -75.5t75 -223.5v-1131q0 -153 -81 -228t-235 -75h-8q-41 0 -41 43v17q0 43 41 43h4q110 0 159.5 55.5t49.5 183.5v1045q0 244 -191 244q-104 0 -173.5 -64.5t-69.5 -179.5v-1063q0 -41 -41 -41h-27q-43 0 -43 41v1352q0 41 43 41h27q41 0 41 -41v-95
q78 152 264 152z" />
    <glyph glyph-name="ntilde.ss01" horiz-adv-x="921" 
d="M256 1589q0 109 76 109q25 0 50 -16t47.5 -38.5t46.5 -45t56.5 -38.5t67.5 -16q70 0 114 49t44 146q0 37 -39 37h-12q-39 0 -39 -33q0 -111 -72 -111q-25 0 -49.5 16t-47 39t-46.5 46t-56.5 39t-68.5 16q-70 0 -115 -50t-45 -145q0 -39 39 -39h12q37 0 37 35zM791 41
q0 -41 -43 -41h-27q-41 0 -41 41v1063q0 244 -191 244q-104 0 -173.5 -64.5t-69.5 -179.5v-1063q0 -41 -41 -41h-27q-43 0 -43 41v1352q0 41 43 41h27q41 0 41 -41v-95q78 152 264 152q131 0 206 -75.5t75 -223.5v-1110z" />
    <glyph glyph-name="q.ss01" horiz-adv-x="925" 
d="M471 1450q328 0 328 -303v-860q0 -138 -70 -214t-207 -87q-13 -70 26 -106t107 -17q40 9 54 -33q13 -43 -27 -55q-48 -15 -88.5 -12.5t-72.5 15t-53.5 36t-32 51t-8.5 59t17 60.5q-317 3 -317 303v860q0 303 328 303h16zM688 324v786q0 128 -52 183t-173 55t-173 -55
t-52 -183v-786q0 -128 52 -183t173 -55t173 55t52 183z" />
    <glyph glyph-name="r.ss01" horiz-adv-x="915" 
d="M793 1130v-217q0 -88 -49.5 -151t-131.5 -72q89 -11 135 -67t46 -129v-301q0 -44 1.5 -67t8.5 -47t22 -36q25 -21 25 -31q0 -12 -35 -12h-41q-29 0 -48.5 16.5t-28.5 46.5t-12 60t-3 70v272q0 96 -54.5 132t-170.5 36h-211v-592q0 -41 -41 -41h-27q-43 0 -43 41v1352
q0 41 43 41h287q328 0 328 -304zM246 735h211q110 0 167.5 50.5t57.5 150.5v158q0 128 -52 182.5t-173 54.5h-211v-596z" />
    <glyph glyph-name="racute.ss01" horiz-adv-x="915" 
d="M506 1772q15 30 49 30h47q26 0 34 -16.5t-9 -36.5l-140 -180q-17 -23 -47 -23h-6q-47 0 -28 47zM793 1130v-217q0 -88 -49.5 -151t-131.5 -72q89 -11 135 -67t46 -129v-301q0 -44 1.5 -67t8.5 -47t22 -36q25 -21 25 -31q0 -12 -35 -12h-41q-29 0 -48.5 16.5t-28.5 46.5
t-12 60t-3 70v272q0 96 -54.5 132t-170.5 36h-211v-592q0 -41 -41 -41h-27q-43 0 -43 41v1352q0 41 43 41h287q328 0 328 -304zM246 735h211q110 0 167.5 50.5t57.5 150.5v158q0 128 -52 182.5t-173 54.5h-211v-596z" />
    <glyph glyph-name="rcaron.ss01" horiz-adv-x="915" 
d="M635 1751q13 20 7 35.5t-28 15.5h-24q-32 0 -49 -28l-107 -148l-106 148q-17 28 -49 28h-19q-25 0 -32 -15.5t8 -35.5l126 -178q18 -27 50 -27h45q31 0 49 27zM793 1130v-217q0 -88 -49.5 -151t-131.5 -72q89 -11 135 -67t46 -129v-301q0 -44 1.5 -67t8.5 -47t22 -36
q25 -21 25 -31q0 -12 -35 -12h-41q-29 0 -48.5 16.5t-28.5 46.5t-12 60t-3 70v272q0 96 -54.5 132t-170.5 36h-211v-592q0 -41 -41 -41h-27q-43 0 -43 41v1352q0 41 43 41h287q328 0 328 -304zM246 735h211q110 0 167.5 50.5t57.5 150.5v158q0 128 -52 182.5t-173 54.5h-211
v-596z" />
    <glyph glyph-name="rcommaaccent.ss01" horiz-adv-x="915" 
d="M793 1130v-217q0 -88 -49.5 -151t-131.5 -72q89 -11 135 -67t46 -129v-301q0 -44 1.5 -67t8.5 -47t22 -36q25 -21 25 -31q0 -12 -35 -12h-41q-29 0 -48.5 16.5t-28.5 46.5t-12 60t-3 70v272q0 96 -54.5 132t-170.5 36h-211v-592q0 -41 -41 -41h-27q-43 0 -43 41v1352
q0 41 43 41h287q328 0 328 -304zM246 735h211q110 0 167.5 50.5t57.5 150.5v158q0 128 -52 182.5t-173 54.5h-211v-596zM502 -143q43 0 43 -43v-66q0 -135 -51 -250q-18 -35 -43 -24q-22 10 -9 49q37 85 37 184h-12q-43 0 -43 41v66q0 43 43 43h35z" />
    <glyph glyph-name="w.ss01" horiz-adv-x="1421" 
d="M1180 1393q0 41 41 41h26q43 0 43 -41v-1086q0 -82 -25.5 -145t-69.5 -101t-99.5 -57.5t-120.5 -19.5q-91 0 -162 37t-104 116q-23 -54 -66.5 -89.5t-92 -49.5t-104.5 -14q-136 0 -225.5 78t-89.5 225v1106q0 41 43 41h27q41 0 41 -41v-1059q0 -248 207 -248
q206 0 206 248v1059q0 41 41 41h29q41 0 41 -41v-1059q0 -248 207 -248t207 248v1059z" />
    <glyph glyph-name="wacute.ss01" horiz-adv-x="1421" 
d="M782 1772q15 30 49 30h48q26 0 33.5 -16.5t-9.5 -36.5l-139 -180q-17 -23 -47 -23h-6q-48 0 -29 47zM1180 1393q0 41 41 41h26q43 0 43 -41v-1086q0 -82 -25.5 -145t-69.5 -101t-99.5 -57.5t-120.5 -19.5q-91 0 -162 37t-104 116q-23 -54 -66.5 -89.5t-92 -49.5
t-104.5 -14q-136 0 -225.5 78t-89.5 225v1106q0 41 43 41h27q41 0 41 -41v-1059q0 -248 207 -248q206 0 206 248v1059q0 41 41 41h29q41 0 41 -41v-1059q0 -248 207 -248t207 248v1059z" />
    <glyph glyph-name="wcircumflex.ss01" horiz-adv-x="1421" 
d="M891 1546q22 0 28 15.5t-8 35.5l-129 177q-17 28 -49 28h-45q-32 0 -49 -28l-129 -177q-14 -20 -8 -35.5t28 -15.5h25q32 0 49 29l107 147l106 -147q17 -29 49 -29h25zM1180 1393q0 41 41 41h26q43 0 43 -41v-1086q0 -82 -25.5 -145t-69.5 -101t-99.5 -57.5t-120.5 -19.5
q-91 0 -162 37t-104 116q-23 -54 -66.5 -89.5t-92 -49.5t-104.5 -14q-136 0 -225.5 78t-89.5 225v1106q0 41 43 41h27q41 0 41 -41v-1059q0 -248 207 -248q206 0 206 248v1059q0 41 41 41h29q41 0 41 -41v-1059q0 -248 207 -248t207 248v1059z" />
    <glyph glyph-name="wdieresis.ss01" horiz-adv-x="1421" 
d="M590 1690q43 0 43 -41v-62q0 -41 -43 -41h-33q-41 0 -41 41v62q0 41 41 41h33zM864 1690q41 0 41 -41v-62q0 -41 -41 -41h-33q-43 0 -43 41v62q0 41 43 41h33zM1180 1393q0 41 41 41h26q43 0 43 -41v-1086q0 -82 -25.5 -145t-69.5 -101t-99.5 -57.5t-120.5 -19.5
q-91 0 -162 37t-104 116q-23 -54 -66.5 -89.5t-92 -49.5t-104.5 -14q-136 0 -225.5 78t-89.5 225v1106q0 41 43 41h27q41 0 41 -41v-1059q0 -248 207 -248q206 0 206 248v1059q0 41 41 41h29q41 0 41 -41v-1059q0 -248 207 -248t207 248v1059z" />
    <glyph glyph-name="wgrave.ss01" horiz-adv-x="1421" 
d="M592 1802q35 0 51 -30l98 -179q10 -22 5.5 -34.5t-23.5 -12.5h-16q-31 0 -48 23l-139 180q-17 20 -8.5 36.5t33.5 16.5h47zM1180 1393q0 41 41 41h26q43 0 43 -41v-1086q0 -82 -25.5 -145t-69.5 -101t-99.5 -57.5t-120.5 -19.5q-91 0 -162 37t-104 116
q-23 -54 -66.5 -89.5t-92 -49.5t-104.5 -14q-136 0 -225.5 78t-89.5 225v1106q0 41 43 41h27q41 0 41 -41v-1059q0 -248 207 -248q206 0 206 248v1059q0 41 41 41h29q41 0 41 -41v-1059q0 -248 207 -248t207 248v1059z" />
    <glyph glyph-name="y.ss01" horiz-adv-x="913" 
d="M672 1393q0 41 41 41h26q43 0 43 -41v-1106q0 -153 -80 -228t-243 -75h-8q-164 0 -244 74.5t-80 228.5v100q0 41 43 41h27q41 0 41 -41v-63q0 -129 48.5 -183.5t168.5 -54.5t168.5 54.5t48.5 183.5v413q-80 -153 -264 -153q-131 0 -206 76.5t-75 226.5v506q0 41 43 41h27
q41 0 41 -41v-459q0 -250 190 -250q103 0 173.5 66.5t70.5 183.5v459z" />
    <glyph glyph-name="yacute.ss01" horiz-adv-x="913" 
d="M526 1772q15 30 49 30h48q26 0 33.5 -16.5t-9.5 -36.5l-139 -180q-17 -23 -47 -23h-6q-48 0 -29 47zM672 1393q0 41 41 41h26q43 0 43 -41v-1106q0 -153 -80 -228t-243 -75h-8q-164 0 -244 74.5t-80 228.5v100q0 41 43 41h27q41 0 41 -41v-63q0 -129 48.5 -183.5
t168.5 -54.5t168.5 54.5t48.5 183.5v413q-80 -153 -264 -153q-131 0 -206 76.5t-75 226.5v506q0 41 43 41h27q41 0 41 -41v-459q0 -250 190 -250q103 0 173.5 66.5t70.5 183.5v459z" />
    <glyph glyph-name="ycircumflex.ss01" horiz-adv-x="913" 
d="M635 1546q22 0 28 15.5t-8 35.5l-129 177q-17 28 -49 28h-45q-32 0 -49 -28l-129 -177q-14 -20 -8 -35.5t28 -15.5h25q32 0 49 29l107 147l106 -147q17 -29 49 -29h25zM672 1393q0 41 41 41h26q43 0 43 -41v-1106q0 -153 -80 -228t-243 -75h-8q-164 0 -244 74.5
t-80 228.5v100q0 41 43 41h27q41 0 41 -41v-63q0 -129 48.5 -183.5t168.5 -54.5t168.5 54.5t48.5 183.5v413q-80 -153 -264 -153q-131 0 -206 76.5t-75 226.5v506q0 41 43 41h27q41 0 41 -41v-459q0 -250 190 -250q103 0 173.5 66.5t70.5 183.5v459z" />
    <glyph glyph-name="ydieresis.ss01" horiz-adv-x="913" 
d="M334 1690q43 0 43 -41v-62q0 -41 -43 -41h-33q-41 0 -41 41v62q0 41 41 41h33zM608 1690q41 0 41 -41v-62q0 -41 -41 -41h-33q-43 0 -43 41v62q0 41 43 41h33zM672 1393q0 41 41 41h26q43 0 43 -41v-1106q0 -153 -80 -228t-243 -75h-8q-164 0 -244 74.5t-80 228.5v100
q0 41 43 41h27q41 0 41 -41v-63q0 -129 48.5 -183.5t168.5 -54.5t168.5 54.5t48.5 183.5v413q-80 -153 -264 -153q-131 0 -206 76.5t-75 226.5v506q0 41 43 41h27q41 0 41 -41v-459q0 -250 190 -250q103 0 173.5 66.5t70.5 183.5v459z" />
    <glyph glyph-name="ygrave.ss01" horiz-adv-x="913" 
d="M336 1802q35 0 51 -30l98 -179q10 -22 5.5 -34.5t-23.5 -12.5h-16q-31 0 -48 23l-139 180q-17 20 -8.5 36.5t33.5 16.5h47zM672 1393q0 41 41 41h26q43 0 43 -41v-1106q0 -153 -80 -228t-243 -75h-8q-164 0 -244 74.5t-80 228.5v100q0 41 43 41h27q41 0 41 -41v-63
q0 -129 48.5 -183.5t168.5 -54.5t168.5 54.5t48.5 183.5v413q-80 -153 -264 -153q-131 0 -206 76.5t-75 226.5v506q0 41 43 41h27q41 0 41 -41v-459q0 -250 190 -250q103 0 173.5 66.5t70.5 183.5v459z" />
    <glyph glyph-name="one.ss01" horiz-adv-x="550" 
d="M385 41q0 -41 -41 -41h-25q-43 0 -43 41v1280l-190 -92q-22 -9 -35.5 0.5t-13.5 32.5v16q0 35 33 49l202 94q26 13 52 13h20q41 0 41 -41v-1352z" />
    <glyph glyph-name="zero.tf" horiz-adv-x="860" 
d="M438 1450q151 0 231.5 -77t80.5 -226v-860q0 -149 -80.5 -226t-231.5 -77h-16q-151 0 -231 77t-80 226v860q0 149 80 226t231 77h16zM639 1110q0 126 -50.5 182t-158.5 56t-158.5 -56t-50.5 -182v-786q0 -126 50.5 -182t158.5 -56t158.5 56t50.5 182v786z" />
    <glyph glyph-name="one.tf" horiz-adv-x="860" 
d="M702 100q43 0 43 -41v-18q0 -41 -43 -41h-524q-43 0 -43 41v18q0 41 43 41h217v1219l-211 -92q-22 -8 -35.5 0t-13.5 30v21q0 33 33 47l223 98q22 11 51 11h21q43 0 43 -41v-1293h196z" />
    <glyph glyph-name="two.tf" horiz-adv-x="860" 
d="M174 958q-43 0 -43 41v156q0 295 303 295h4q303 0 303 -295v-217q0 -38 -14 -74.5t-36 -66.5t-58 -64t-70.5 -61.5t-83.5 -65.5q-11 -8 -16 -12q-124 -94 -174.5 -159.5t-50.5 -155.5v-179h460q43 0 43 -43v-16q0 -41 -43 -41h-528q-43 0 -43 41v242q0 66 20 121.5
t63.5 106t86 87t113.5 88.5q124 91 172.5 145t48.5 127v172q0 220 -199 220q-99 0 -145.5 -54.5t-46.5 -165.5v-131q0 -41 -41 -41h-25z" />
    <glyph glyph-name="three.tf" horiz-adv-x="860" 
d="M735 971q0 -205 -155 -226q50 -9 83 -30.5t47.5 -53.5t19.5 -59.5t5 -62.5v-252q0 -142 -70.5 -222.5t-211.5 -80.5h-56q-141 0 -211.5 80.5t-70.5 222.5v133q0 43 43 43h24q43 0 43 -43v-109q0 -122 48.5 -174.5t144.5 -52.5h14q96 0 144.5 52.5t48.5 174.5v224
q0 81 -46 119t-139 38h-106q-41 0 -41 41v17q0 41 41 41h86q107 0 156 41.5t49 136.5v153q0 122 -48.5 175t-144.5 53h-18q-96 0 -144.5 -53t-48.5 -175v-75q0 -43 -43 -43h-20q-43 0 -43 43v100q0 152 78 227.5t225 75.5h14q147 0 225 -75.5t78 -227.5v-176z" />
    <glyph glyph-name="four.tf" horiz-adv-x="860" 
d="M604 1434q41 0 41 -41v-912h119q41 0 41 -43v-16q0 -43 -41 -43h-119v-338q0 -41 -41 -41h-24q-43 0 -43 41v338h-435q-41 0 -41 43v39q0 20 11 49l440 891q11 33 49 33h43zM537 1251l-377 -770h377v770z" />
    <glyph glyph-name="five.tf" horiz-adv-x="860" 
d="M731 1374q0 -41 -43 -41h-440v-518q78 109 237 109q51 0 95 -12t83.5 -39t62 -76.5t22.5 -116.5v-401q0 -147 -78 -221t-230 -74h-4q-307 0 -307 295v157q0 43 43 43h25q41 0 41 -43v-133q0 -111 49 -165t151 -54q199 0 199 219v350q0 52 -14 88t-40 52.5t-51.5 23
t-58.5 6.5q-126 0 -207 -92q-21 -24 -51 -18l-41 10q-37 12 -37 47v623q0 41 43 41h508q43 0 43 -41v-19z" />
    <glyph glyph-name="six.tf" horiz-adv-x="860" 
d="M729 1059q0 -39 -43 -39h-24q-44 0 -44 41v69q0 123 -43 171.5t-147 48.5t-147 -48.5t-43 -171.5v-364q53 94 217 94q129 0 207.5 -66.5t78.5 -195.5v-319q0 -150 -72.5 -222.5t-232.5 -72.5h-4q-160 0 -232.5 72.5t-72.5 222.5v876q0 151 70 223t229 72h4q159 0 229 -72
t70 -223v-96zM434 760q-88 0 -142 -47t-54 -142v-268q0 -122 45.5 -170.5t150.5 -48.5t151 48.5t46 170.5v268q0 95 -52 142t-145 47z" />
    <glyph glyph-name="seven.tf" horiz-adv-x="860" 
d="M764 1376q0 -29 -8 -53l-430 -1288q-12 -35 -47 -35h-25q-50 0 -35 47l430 1286h-530q-41 0 -41 41v19q0 41 41 41h602q43 0 43 -41v-17z" />
    <glyph glyph-name="eight.tf" horiz-adv-x="860" 
d="M463 1450q141 0 211.5 -80.5t70.5 -222.5v-176q0 -210 -155 -226q155 -22 155 -247v-211q0 -142 -70.5 -222.5t-211.5 -80.5h-64q-141 0 -211.5 80.5t-70.5 222.5v211q0 225 155 247q-155 16 -155 226v176q0 142 70.5 222.5t211.5 80.5h64zM635 969v153q0 228 -184 228
h-39q-185 0 -185 -228v-153q0 -178 185 -178h39q184 0 184 178zM635 311v203q0 178 -184 178h-39q-185 0 -185 -178v-203q0 -227 185 -227h39q184 0 184 227z" />
    <glyph glyph-name="nine.tf" horiz-adv-x="860" 
d="M131 375q0 39 43 39h25q43 0 43 -41v-70q0 -123 43 -171t147 -48t147.5 48t43.5 171v365q-53 -95 -217 -95q-129 0 -208 67t-79 196v319q0 150 72.5 222.5t232.5 72.5h4q160 0 232.5 -72.5t72.5 -222.5v-876q0 -151 -70 -223t-229 -72h-4q-159 0 -229 72t-70 223v96z
M426 674q89 0 143 46.5t54 141.5v268q0 122 -46 171t-151 49t-151 -49t-46 -171v-268q0 -95 52 -141.5t145 -46.5z" />
    <glyph glyph-name="colon.tf" horiz-adv-x="430" 
d="M233 922q43 0 43 -43v-66q0 -41 -43 -41h-34q-43 0 -43 41v66q0 43 43 43h34zM233 150q20 0 31.5 -12t11.5 -32v-65q0 -41 -43 -41h-34q-43 0 -43 41v65q0 20 11.5 32t31.5 12h34z" />
    <glyph glyph-name="comma.tf" horiz-adv-x="430" 
d="M233 150q20 0 31.5 -12t11.5 -32v-65q0 -135 -51 -250q-18 -35 -43 -24q-21 9 -8 49q37 85 37 184h-12q-43 0 -43 41v65q0 20 11.5 32t31.5 12h34z" />
    <glyph glyph-name="numbersign.tf" horiz-adv-x="860" 
d="M809 989q41 0 41 -41v-8q0 -41 -41 -41h-119l-84 -364h142q40 0 40 -41v-9q0 -41 -40 -41h-162l-92 -407q-8 -37 -45 -37h-11q-47 0 -37 47l91 397h-248l-92 -407q-5 -37 -46 -37h-10q-43 0 -37 47l91 397h-97q-43 0 -43 41v9q0 41 43 41h117l84 364h-139q-43 0 -43 41v8
q0 41 43 41h159l93 408q8 37 45 37h10q47 0 37 -48l-90 -397h247l93 408q5 37 45 37h10q44 0 37 -48l-90 -397h98zM512 535l84 364h-248l-84 -364h248z" />
    <glyph glyph-name="period.tf" horiz-adv-x="430" 
d="M233 150q41 0 41 -44v-65q0 -41 -41 -41h-36q-41 0 -41 41v65q0 44 41 44h36z" />
    <glyph glyph-name="semicolon.tf" horiz-adv-x="430" 
d="M233 922q43 0 43 -43v-66q0 -41 -43 -41h-34q-43 0 -43 41v66q0 43 43 43h34zM233 150q20 0 31.5 -12t11.5 -32v-65q0 -135 -51 -250q-18 -35 -43 -24q-21 9 -8 49q37 85 37 184h-12q-43 0 -43 41v65q0 20 11.5 32t31.5 12h34z" />
    <glyph glyph-name="space.tf" horiz-adv-x="430" 
 />
    <glyph glyph-name="cent.tf" horiz-adv-x="860" 
d="M692 860q-19 0 -30 11.5t-11 31.5v27q0 126 -50 181.5t-169 55.5t-169 -55.5t-50 -181.5v-426q0 -126 50 -182t169 -56q116 0 167.5 60.5t51.5 177.5v61q0 20 11 31.5t30 11.5h27q43 0 43 -43v-98q0 -277 -275 -301v-125q0 -41 -43 -41h-20q-43 0 -43 41v125
q-279 21 -279 301v500q0 136 71 213.5t208 87.5v125q0 41 43 41h20q43 0 43 -41v-125q136 -12 205.5 -88.5t69.5 -212.5v-64q0 -43 -43 -43h-27z" />
    <glyph glyph-name="dollar.tf" horiz-adv-x="860" 
d="M584 709q172 -91 172 -242v-184q0 -141 -67 -213.5t-204 -83.5v-105q0 -41 -43 -41h-20q-43 0 -43 41v105q-137 11 -203.5 83t-66.5 214v190q0 43 43 43h26q19 0 30 -11.5t11 -31.5v-158q0 -120 49 -175.5t164 -55.5t164 55.5t49 175.5v115q0 76 -32 116t-119 89
l-215 117q-94 54 -132 104t-38 133v166q0 133 70.5 207t199.5 86v104q0 41 43 41h20q43 0 43 -41v-104q127 -12 197 -87t70 -206v-174q0 -43 -43 -43h-27q-19 0 -30 11.5t-11 31.5v141q0 120 -48.5 174t-162.5 54t-162.5 -54t-48.5 -174v-100q0 -53 15 -86t43 -54.5
t88 -52.5z" />
    <glyph glyph-name="Euro.tf" horiz-adv-x="860" 
d="M719 901q-41 0 -41 43v166q0 127 -50 182.5t-169 55.5t-169 -55.5t-50 -182.5v-227h254q34 0 34 -35v-10q0 -35 -34 -35h-254v-139h254q34 0 34 -35v-11q0 -34 -34 -34h-254v-260q0 -127 50 -182.5t169 -55.5t169 55.5t50 182.5v200q0 43 41 43h26q43 0 43 -43v-237
q0 -303 -327 -303h-4q-164 0 -246 74.5t-82 228.5v297h-70q-34 0 -34 34v11q0 35 34 35h70v139h-70q-34 0 -34 35v10q0 35 34 35h70v264q0 148 83 225.5t245 77.5h4q162 0 244.5 -77t82.5 -226v-203q0 -43 -43 -43h-26z" />
    <glyph glyph-name="florin.tf" horiz-adv-x="860" 
d="M723 1434q43 0 43 -41v-19q0 -43 -43 -43h-43q-108 0 -151.5 -54t-43.5 -183v-295h211q22 0 32 -12.5t5 -34.5l-2 -15q-9 -37 -47 -37h-199v-397q0 -303 -297 -303h-51q-43 0 -43 41v18q0 43 43 43h43q108 0 151.5 54.5t43.5 183.5v360h-211q-22 0 -32 13t-5 35l2 14
q10 37 47 37h199v331q0 304 297 304h51z" />
    <glyph glyph-name="sterling.tf" horiz-adv-x="860" 
d="M762 981q0 -43 -43 -43h-27q-41 0 -41 43v149q0 53 -6 88.5t-23.5 67t-52.5 47t-88 15.5t-88 -15.5t-52.5 -47t-23.5 -67t-6 -88.5v-374h228q43 0 43 -41v-13q0 -40 -43 -40h-228q0 -246 -30.5 -383.5t-108.5 -176.5h526q43 0 43 -43v-18q0 -41 -43 -41h-583
q-39 0 -45 37l-9 29q-5 33 23 55q68 51 92.5 179.5t24.5 361.5h-101q-43 0 -43 40v13q0 41 43 41h101v391q0 144 62.5 223.5t215.5 79.5h4q153 0 216 -79.5t63 -223.5v-166z" />
    <glyph glyph-name="yen.tf" horiz-adv-x="860" 
d="M754 1434q47 0 32 -48l-260 -714h170q17 0 26 -9.5t9 -25.5v-10q0 -35 -35 -35h-198l-13 -33v-106h211q35 0 35 -35v-10q0 -16 -9 -25.5t-26 -9.5h-211v-332q0 -41 -41 -41h-28q-41 0 -41 41v332h-236q-17 0 -26 9.5t-9 25.5v10q0 35 35 35h236v106l-13 33h-223
q-35 0 -35 35v10q0 16 9 25.5t26 9.5h195l-260 714q-15 48 32 48h29q37 0 49 -35l246 -709l248 709q9 35 47 35h29z" />
    <glyph glyph-name="percent.tf" horiz-adv-x="860" 
d="M219 1442q66 0 113 -44t47 -132v-258q0 -89 -47 -133t-113 -44h-33q-68 0 -114.5 44t-46.5 133v258q0 89 46.5 132.5t114.5 43.5h33zM729 1434q41 0 25 -45l-570 -1360q-13 -29 -43 -29h-8q-45 0 -29 45l570 1360q13 29 43 29h12zM297 1247q0 62 -20.5 90.5t-63.5 28.5
h-23q-43 0 -62 -28t-19 -91v-221q0 -63 19 -91t62 -28h23q43 0 63.5 28.5t20.5 90.5v221zM674 602q66 0 113 -44t47 -132v-258q0 -88 -47 -132t-113 -44h-33q-68 0 -115 43.5t-47 132.5v258q0 89 47 132.5t115 43.5h33zM750 408q0 63 -19.5 90.5t-62.5 27.5h-23
q-43 0 -62.5 -27.5t-19.5 -90.5v-222q0 -63 19.5 -90.5t62.5 -27.5h23q43 0 62.5 27.5t19.5 90.5v222z" />
    <glyph glyph-name="bar.tf" horiz-adv-x="430" 
d="M266 -164q0 -41 -41 -41h-20q-41 0 -41 41v1761q0 41 41 41h20q41 0 41 -41v-1761z" />
    <glyph glyph-name="brokenbar.tf" horiz-adv-x="430" 
d="M205 901q-41 0 -41 41v655q0 41 41 41h20q41 0 41 -41v-655q0 -41 -41 -41h-20zM225 573q41 0 41 -41v-696q0 -41 -41 -41h-20q-41 0 -41 41v696q0 41 41 41h20z" />
    </font>
</defs>
</svg>
