<?xml version="1.0" standalone="no"?>
<!DOCTYPE svg PUBLIC "-//W3C//DTD SVG 1.1//EN" "http://www.w3.org/Graphics/SVG/1.1/DTD/svg11.dtd" >
<svg xmlns="http://www.w3.org/2000/svg" xmlns:xlink="http://www.w3.org/1999/xlink" version="1.1">
<metadata>
Created by FontForge 20170731 at Sat Aug  8 16:42:54 2020
 By Aleksey,,,
Copyright (c) 2016 by Mattox Shuler. All rights reserved.
</metadata>
<defs>
<font id="RiftSoft-DemiItalic" horiz-adv-x="917" >
  <font-face 
    font-family="Rift Soft Demi"
    font-weight="600"
    font-style="italic"
    font-stretch="normal"
    units-per-em="2048"
    panose-1="0 0 7 0 0 0 0 0 0 0"
    ascent="1597"
    descent="-451"
    x-height="1434"
    cap-height="1434"
    bbox="-593.6 -620.333 1745.51 2173"
    underline-thickness="102"
    underline-position="-307"
    slope="-10"
    unicode-range="U+0020-2260"
  />
<missing-glyph horiz-adv-x="1024" 
d="M840 1597v-2048h-650v2048h650zM682 1460h-338v-67h133v-76h-135v-68h340v68h-135v76h135v67zM547 1196h-205v-213h340v70h-135v143zM477 1126v-73h-67v73h67zM682 928h-340v-68h135v-76h-135v-67h205v143h135v68zM682 805h-68v-135h-272v-70h340v205zM682 555h-205v-115
h70v47h67v-96h-204v164h-68v-231h340v231zM682 201h-340v-232h340v232zM614 133v-96h-204v96h204zM682 -78h-340v-67h143l-143 -97v-67h340v67h-209l143 97h66v67z" />
    <glyph glyph-name=".notdef" horiz-adv-x="1024" 
d="M840 1597v-2048h-650v2048h650zM682 1460h-338v-67h133v-76h-135v-68h340v68h-135v76h135v67zM547 1196h-205v-213h340v70h-135v143zM477 1126v-73h-67v73h67zM682 928h-340v-68h135v-76h-135v-67h205v143h135v68zM682 805h-68v-135h-272v-70h340v205zM682 555h-205v-115
h70v47h67v-96h-204v164h-68v-231h340v231zM682 201h-340v-232h340v232zM614 133v-96h-204v96h204zM682 -78h-340v-67h143l-143 -97v-67h340v67h-209l143 97h66v67z" />
    <glyph glyph-name=".null" horiz-adv-x="0" 
 />
    <glyph glyph-name="nonmarkingreturn" horiz-adv-x="682" 
 />
    <glyph glyph-name="space" unicode=" " horiz-adv-x="327" 
 />
    <glyph glyph-name="exclam" unicode="!" horiz-adv-x="380" 
d="M375 1434q34 0 51 -19.5t10 -52.5l-24 -148l-162 -798q-15 -60 -76 -60h-10q-35 0 -52 20t-12 54l117 782l29 160q9 62 71 62h58zM162 225q73 0 61 -73l-16 -91q-9 -61 -72 -61h-57q-34 0 -51 18.5t-11 53.5l17 92q12 61 73 61h56z" />
    <glyph glyph-name="quotedbl" unicode="&#x22;" horiz-adv-x="667" 
d="M401 1434q40 0 55 -23.5t-3 -58.5l-207 -418q-20 -39 -68 -39q-29 0 -40.5 16t-2.5 45l139 422q18 56 78 56h49zM713 1434q40 0 55 -23.5t-4 -58.5l-207 -418q-20 -39 -68 -39q-29 0 -40.5 16t-2.5 45l140 422q18 56 78 56h49z" />
    <glyph glyph-name="numbersign" unicode="#" horiz-adv-x="1224" 
d="M1214 1020q34 0 50 -18.5t10 -53.5l-4 -20q-9 -60 -70 -60h-192l-121 -303h166q71 0 59 -71l-4 -21q-9 -59 -70 -59h-213l-145 -361q-20 -53 -80 -53h-29q-38 0 -52.5 21.5t-0.5 56.5l135 336h-254l-145 -361q-20 -53 -80 -53h-29q-38 0 -52.5 21.5t-0.5 56.5l135 336
h-145q-34 0 -49.5 18.5t-9.5 52.5l4 21q9 59 71 59h191l121 303h-166q-34 0 -50 19t-10 53l4 21q9 59 72 59h211l145 362q21 52 80 52h29q38 0 52.5 -21.5t0.5 -56.5l-135 -336h254l145 362q21 52 80 52h29q38 0 52.5 -21.5t0.5 -56.5l-135 -336h145zM715 565l121 303h-254
l-121 -303h254z" />
    <glyph glyph-name="dollar" unicode="$" horiz-adv-x="856" 
d="M682 1442q109 -20 166.5 -92.5t34.5 -194.5l-29 -166q-9 -61 -74 -61h-51q-73 0 -61 71l22 123q13 84 -18.5 122t-108.5 38q-155 0 -180 -160l-18 -98q-10 -64 6.5 -99t72.5 -71l170 -102q30 -19 51.5 -35t43.5 -36t34 -39.5t22.5 -45.5t9.5 -53.5t-5 -63.5l-37 -196
q-25 -141 -98.5 -211t-208.5 -84l-16 -86q-12 -62 -74 -62h-37q-34 0 -50 18.5t-9 53.5l12 78q-118 16 -174.5 88t-32.5 205l31 182q12 61 76 61h51q73 0 61 -71l-24 -140q-13 -84 18.5 -123.5t108.5 -39.5q158 0 184 163l20 113q12 66 -7 103t-79 73l-166 103
q-87 54 -126 118.5t-25 149.5l31 180q47 255 309 291l16 86q12 61 74 61h35q73 0 61 -71z" />
    <glyph glyph-name="percent" unicode="%" horiz-adv-x="1046" 
d="M436 1442q67 0 111 -43.5t28 -128.5l-47 -266q-14 -89 -66.5 -131t-131.5 -42h-33q-69 0 -113 43.5t-30 129.5l47 266q32 172 202 172h33zM1020 1434q24 0 31 -16.5t-7 -39.5l-866 -1347q-16 -31 -55 -31h-19q-27 0 -35.5 16t5.5 39l866 1348q16 31 55 31h25zM459 1247
q14 86 -49 86h-21q-64 0 -78 -86l-39 -221q-16 -86 47 -86h21q64 0 80 86zM825 602q67 0 111.5 -43.5t28.5 -128.5l-47 -266q-14 -88 -67.5 -130t-133.5 -42h-33q-69 0 -112 43t-29 129l47 266q32 172 203 172h32zM848 408q14 86 -49 86h-21q-64 0 -78 -86l-38 -222
q-16 -86 47 -86h20q64 0 80 86z" />
    <glyph glyph-name="ampersand" unicode="&#x26;" horiz-adv-x="948" 
d="M698 1034l15 92q16 87 -17.5 122.5t-107.5 35.5t-121 -35.5t-61 -122.5l-11 -55q-11 -52 -2 -96t56 -139l169 -344l103 239q23 51 80 51h37q38 0 52 -22.5t-1 -57.5l-174 -405l108 -217q17 -34 2 -57t-53 -23h-41q-58 0 -80 49l-33 66q-51 -67 -123.5 -99t-185.5 -32h-14
q-143 0 -209.5 79t-42.5 207l57 320q29 171 144 235q-29 67 -37.5 121t0.5 121l14 88q28 155 120.5 225t270.5 70h4q156 0 234.5 -73t50.5 -222l-22 -131q-9 -61 -72 -61h-47q-35 0 -51.5 18t-10.5 53zM530 287l-208 411q-21 -41 -29 -80l-51 -294q-17 -95 8 -137t100 -42
q67 0 106 32.5t74 109.5z" />
    <glyph glyph-name="quotesingle" unicode="'" horiz-adv-x="356" 
d="M401 1434q40 0 55 -23.5t-3 -58.5l-207 -418q-20 -39 -68 -39q-29 0 -40.5 16t-2.5 45l139 422q18 56 78 56h49z" />
    <glyph glyph-name="parenleft" unicode="(" horiz-adv-x="565" 
d="M612 1364q-80 0 -128 -39t-64 -133l-168 -950q-17 -92 16.5 -132t116.5 -40q27 0 39 -18.5t6 -53.5l-6 -37q-9 -59 -68 -59q-157 0 -240 76t-55 227l181 1024q28 159 124.5 231t276.5 72q27 0 38.5 -18.5t4.5 -53.5l-6 -37q-9 -59 -68 -59z" />
    <glyph glyph-name="parenright" unicode=")" horiz-adv-x="563" 
d="M252 1364q-27 0 -39 18.5t-6 53.5l6 37q9 59 68 59q157 0 240 -75.5t57 -227.5l-181 -1024q-29 -158 -126.5 -230.5t-276.5 -72.5q-27 0 -38.5 18.5t-4.5 52.5l6 37q9 60 68 60q82 0 128.5 39.5t63.5 132.5l168 950q16 94 -18.5 133t-114.5 39z" />
    <glyph glyph-name="asterisk" unicode="*" horiz-adv-x="688" 
d="M522 1128l92 -120q35 -47 -12 -82l-22 -15q-55 -39 -80 25l-51 141l-115 -155q-37 -50 -82 -11l-8 9q-47 41 0 81l141 129l-156 33q-30 4 -40 25t4 49l6 16q29 53 80 25l145 -68l8 174q3 58 62 58h20q31 0 43.5 -18.5t3.5 -49.5l-51 -164l168 74q29 14 49 2.5t23 -43.5
l2 -12q9 -57 -47 -66z" />
    <glyph glyph-name="plus" unicode="+" horiz-adv-x="860" 
d="M741 807q34 0 51 -18.5t11 -53.5l-2 -12q-11 -61 -74 -61h-199l-34 -201q-9 -60 -72 -60h-10q-34 0 -51 18.5t-11 53.5l33 189h-184q-74 0 -62 71l2 12q9 62 72 62h199l34 201q9 59 74 59h8q74 0 62 -72l-33 -188h186z" />
    <glyph glyph-name="comma" unicode="," horiz-adv-x="368" 
d="M156 225q73 0 61 -73l-16 -97q-28 -154 -144 -291q-22 -28 -55 -8q-15 9 -17.5 24t9.5 30q67 98 92 190h-14q-34 0 -51 18.5t-11 53.5l17 92q12 61 73 61h56z" />
    <glyph glyph-name="hyphen" unicode="-" horiz-adv-x="565" 
d="M496 813q35 0 52 -19.5t11 -54.5l-6 -24q-9 -62 -72 -62h-334q-35 0 -52 19.5t-11 54.5l6 25q9 61 72 61h334z" />
    <glyph glyph-name="period" unicode="." horiz-adv-x="368" 
d="M156 225q73 0 61 -73l-16 -91q-9 -61 -72 -61h-57q-34 0 -51 18.5t-11 53.5l17 92q12 61 73 61h56z" />
    <glyph glyph-name="slash" unicode="/" horiz-adv-x="653" 
d="M735 1532q38 0 52 -22.5t-1 -57.5l-684 -1499q-20 -51 -77 -51h-33q-38 0 -52 22.5t1 57.5l682 1499q23 51 79 51h33z" />
    <glyph glyph-name="zero" unicode="0" horiz-adv-x="892" 
d="M621 1450q149 0 227 -76t51 -227l-151 -860q-28 -158 -121 -230.5t-265 -72.5h-16q-150 0 -228 76t-50 227l151 860q28 158 120.5 230.5t264.5 72.5h17zM707 1110q15 92 -16 131t-109 39q-77 0 -123 -39t-60 -131l-139 -786q-17 -92 15 -131t110 -39q76 0 120.5 39
t61.5 131z" />
    <glyph glyph-name="one" unicode="1" horiz-adv-x="464" 
d="M242 61q-9 -61 -74 -61h-49q-34 0 -51 18.5t-11 53.5l211 1198q2 15 17 33q57 57 77 98q17 39 62 39h4q26 0 39 -16t8 -42z" />
    <glyph glyph-name="two" unicode="2" horiz-adv-x="811" 
d="M233 934q-34 0 -50 19.5t-9 54.5l25 147q28 156 116 225.5t260 69.5h5q150 0 224 -73t46 -222l-31 -186q-6 -30 -16.5 -57.5t-20 -48.5t-31.5 -46.5t-35 -40.5t-47 -43t-50.5 -41t-62 -48t-67.5 -52q-58 -45 -84.5 -66.5t-64.5 -55t-55 -55.5t-32 -50t-20 -56l-26 -147
h395q34 0 51 -18.5t11 -53.5l-7 -29q-9 -61 -71 -61h-520q-34 0 -51 18.5t-11 53.5l43 241q9 52 32 99.5t47.5 81.5t76 81t84.5 73t106 82q11 9 17 13q128 96 157 124q56 53 66 112l26 151q31 158 -114 158q-70 0 -110.5 -36.5t-55.5 -121.5l-25 -135q-12 -61 -73 -61h-48z
" />
    <glyph glyph-name="three" unicode="3" horiz-adv-x="821" 
d="M817 971q-7 -45 -18.5 -79.5t-32 -67t-54.5 -53t-81 -26.5q75 -16 98 -75.5t10 -130.5l-43 -252q-27 -152 -110.5 -227.5t-245.5 -75.5h-55q-139 0 -208 80t-42 223l20 125q11 61 74 61h49q35 0 52.5 -19t11.5 -53l-17 -90q-31 -166 109 -166h14q135 0 166 166l39 224
q23 127 -107 127h-90q-34 0 -50.5 19t-10.5 54l4 25q9 61 74 61h82q75 0 118 34.5t56 113.5l28 153q27 166 -108 166h-19q-138 0 -165 -166l-13 -67q-9 -62 -73 -62h-46q-73 0 -61 72l14 82q28 160 118 231.5t259 71.5h15q146 0 222 -75t48 -228z" />
    <glyph glyph-name="four" unicode="4" horiz-adv-x="774" 
d="M729 1434q74 0 62 -72l-148 -850h35q73 0 61 -72l-6 -30q-9 -62 -74 -62h-47l-49 -287q-11 -61 -74 -61h-49q-34 0 -50.5 18.5t-10.5 53.5l47 276h-358q-34 0 -51 18.5t-11 53.5l10 57q5 36 29 80l492 829q26 48 79 48h113zM582 1217l-402 -705h277z" />
    <glyph glyph-name="five" unicode="5" horiz-adv-x="839" 
d="M885 1329q-9 -61 -72 -61h-387l-70 -400q37 39 82 59.5t123 20.5q51 0 95 -15t79.5 -46.5t49.5 -87t1 -129.5l-69 -391q-26 -155 -116 -225t-263 -70h-4q-150 0 -227 73t-50 222l29 161q9 60 74 60h45q73 0 61 -72l-20 -125q-15 -85 14.5 -121.5t101.5 -36.5
q73 0 115.5 36.5t57.5 121.5l59 340q14 80 -13.5 110.5t-82.5 30.5q-84 0 -148 -61q-31 -36 -69 -25l-74 21q-61 19 -49 82l100 571q9 62 72 62h499q34 0 51 -18.5t11 -53.5z" />
    <glyph glyph-name="six" unicode="6" horiz-adv-x="860" 
d="M850 1077q-9 -57 -72 -57h-51q-34 0 -50.5 19t-10.5 53l6 38q17 89 -9 123.5t-98 34.5q-73 0 -110 -34t-54 -124l-55 -319q64 74 197 74q56 0 102.5 -16.5t81.5 -49t49.5 -88.5t1.5 -129l-57 -323q-27 -157 -113.5 -226t-263.5 -69h-4q-154 0 -227.5 72.5t-46.5 222.5
l153 876q28 158 112.5 226.5t260.5 68.5h4q153 0 223.5 -72t42.5 -223zM471 721q-142 0 -166 -146l-49 -272q-14 -89 13.5 -123.5t101.5 -34.5q73 0 113.5 35t54.5 123l49 272q13 80 -17 113t-100 33z" />
    <glyph glyph-name="seven" unicode="7" horiz-adv-x="700" 
d="M788 1337q-8 -40 -22 -77l-510 -1207q-20 -53 -78 -53h-47q-38 0 -53 22.5t0 57.5l502 1188h-353q-34 0 -50 19t-9 54l4 31q9 62 72 62h485q74 0 62 -72z" />
    <glyph glyph-name="eight" unicode="8" horiz-adv-x="841" 
d="M618 1450q139 0 207.5 -79.5t42.5 -223.5l-30 -176q-7 -46 -19 -80.5t-32.5 -67t-54.5 -52.5t-81 -26q39 -6 65 -35t33.5 -66t10 -77t-5.5 -69l-37 -211q-27 -152 -111 -227.5t-246 -75.5h-63q-139 0 -208 80t-42 223l37 211q7 43 17.5 77.5t31 72.5t56 63.5t83.5 33.5
q-38 5 -63.5 28.5t-34.5 56t-11.5 70.5t5.5 71l31 176q26 152 110 227.5t246 75.5h63zM649 969l29 153q14 86 -14.5 126t-85.5 40h-39q-59 0 -101.5 -40t-56.5 -126l-29 -153q-13 -77 16.5 -112.5t88.5 -35.5h39q57 0 98.5 35.5t54.5 112.5zM535 311l34 203
q14 77 -14.5 112.5t-87.5 35.5h-39q-57 0 -99.5 -35.5t-56.5 -112.5l-34 -203q-14 -86 14 -126t86 -40h39q57 0 100.5 40.5t57.5 125.5z" />
    <glyph glyph-name="nine" unicode="9" horiz-adv-x="860" 
d="M84 358q9 56 72 56h49q36 0 52 -18.5t9 -53.5l-6 -39q-15 -90 10.5 -124t98.5 -34q72 0 109 34.5t52 123.5l56 320q-64 -74 -197 -74q-56 0 -102.5 16.5t-81.5 49t-49.5 88t-1.5 128.5l57 324q28 157 115 226t264 69h4q154 0 227 -72.5t45 -222.5l-153 -876
q-27 -158 -111 -226.5t-260 -68.5h-4q-153 0 -224 72t-44 223zM461 713q65 0 110 35t58 110l47 272q17 88 -11.5 123t-101.5 35q-74 0 -113.5 -34.5t-56.5 -123.5l-47 -272q-14 -79 16 -112t99 -33z" />
    <glyph glyph-name="colon" unicode=":" horiz-adv-x="368" 
d="M287 975q35 0 51 -19.5t10 -54.5l-16 -90q-9 -61 -72 -61h-57q-35 0 -51.5 18t-10.5 53l17 92q12 62 73 62h56zM156 225q73 0 61 -73l-16 -91q-9 -61 -72 -61h-57q-34 0 -51 18.5t-11 53.5l17 92q12 61 73 61h56z" />
    <glyph glyph-name="semicolon" unicode=";" horiz-adv-x="368" 
d="M287 975q35 0 51 -19.5t10 -54.5l-16 -90q-9 -61 -72 -61h-57q-35 0 -51.5 18t-10.5 53l17 92q12 62 73 62h56zM156 225q73 0 61 -73l-16 -97q-28 -154 -144 -291q-22 -28 -55 -8q-15 9 -17.5 24t9.5 30q67 98 92 190h-14q-34 0 -51 18.5t-11 53.5l17 92q12 61 73 61h56z
" />
    <glyph glyph-name="less" unicode="&#x3c;" horiz-adv-x="860" 
d="M754 995q42 24 51 74l8 51q8 44 -14.5 60t-59.5 -9l-518 -329q-42 -26 -51 -74l-12 -68q-9 -53 32 -88l396 -323q32 -25 56 -15.5t32 48.5l8 51q11 52 -35 86l-342 266z" />
    <glyph glyph-name="equal" unicode="=" horiz-adv-x="860" 
d="M770 977q35 0 52.5 -20t11.5 -54l-3 -12q-4 -29 -24 -45.5t-49 -16.5h-531q-35 0 -51 20t-10 54l2 10q9 64 74 64h528zM711 637q35 0 52 -19.5t11 -54.5l-2 -12q-12 -62 -74 -62h-530q-35 0 -51.5 19.5t-10.5 54.5l3 10q9 64 71 64h531z" />
    <glyph glyph-name="greater" unicode="&#x3e;" horiz-adv-x="860" 
d="M256 1092q-11 -51 33 -86l344 -269l-449 -270q-42 -24 -51 -74l-8 -51q-8 -44 14.5 -60t59.5 9l518 330q43 26 51 73l12 68q9 53 -32 88l-396 324q-32 26 -56 16.5t-32 -49.5z" />
    <glyph glyph-name="question" unicode="?" horiz-adv-x="782" 
d="M356 365q-34 0 -51.5 19t-11.5 54l24 129q14 79 53.5 141.5t123.5 127.5q51 38 82.5 75t39.5 86l23 133q16 87 -14 122.5t-101 35.5t-110 -34.5t-56 -123.5l-26 -141q-9 -61 -74 -61h-45q-73 0 -61 71l26 156q28 157 114.5 226t262.5 69h4q154 0 226 -72.5t44 -222.5
l-28 -168q-9 -53 -26 -93.5t-43 -70.5t-48.5 -49t-57.5 -45q-3 -2 -5 -3.5t-4.5 -3t-4.5 -3.5q-67 -47 -104.5 -94t-48.5 -115l-15 -84q-12 -61 -73 -61h-15zM354 225q35 0 51.5 -19t10.5 -54l-17 -91q-9 -61 -71 -61h-58q-34 0 -50.5 18.5t-10.5 53.5l16 92q12 61 74 61h55
z" />
    <glyph glyph-name="at" unicode="@" horiz-adv-x="1280" 
d="M985 1450q158 0 242.5 -75.5t58.5 -227.5l-117 -653q-51 -304 -286 -304q-61 0 -98 28t-42 63q-19 -45 -77 -74t-129 -29h-5q-32 0 -64 11.5t-60.5 34.5t-42 65.5t-3.5 97.5l91 504q18 103 84 156t161 53h4q53 0 97.5 -29t50.5 -65l27 47q19 34 63 34q54 0 45 -55
l-113 -633q-14 -96 54 -96q43 0 76 47.5t47 124.5l120 690q17 87 -32.5 130.5t-145.5 43.5h-411q-96 0 -161 -43.5t-79 -130.5l-174 -991q-14 -87 34.5 -130.5t143.5 -43.5h440q25 0 36.5 -14t6.5 -39l-2 -15q-6 -43 -53 -43h-434q-156 0 -236 75t-53 229l170 954
q27 158 127 230.5t281 72.5h358zM731 424l78 430q17 115 -90 115t-127 -115l-78 -430q-10 -65 14 -90t76 -25q49 0 83 28t44 87z" />
    <glyph glyph-name="A" unicode="A" horiz-adv-x="868" 
d="M715 1366l35 -1298q0 -68 -68 -68h-55q-68 0 -68 68l-2 270h-307l-100 -283q-18 -55 -78 -55h-52q-36 0 -50.5 22t-2.5 56l488 1302q22 54 77 54h113q32 0 51 -18t19 -50zM307 500h250l-4 692z" />
    <glyph glyph-name="B" unicode="B" horiz-adv-x="903" 
d="M891 971q-15 -94 -64.5 -155t-136.5 -71q81 -13 112.5 -77.5t16.5 -149.5l-43 -235q-22 -134 -120.5 -208.5t-272.5 -74.5h-285q-34 0 -50.5 18.5t-10.5 53.5l229 1300q9 62 72 62h301q150 0 228.5 -77t54.5 -206zM440 1266l-80 -443h168q143 0 166 129l29 166
q27 148 -117 148h-166zM629 530q21 129 -123 129h-174l-84 -491h174q144 0 168 147z" />
    <glyph glyph-name="C" unicode="C" horiz-adv-x="905" 
d="M743 578q36 0 53 -18.5t11 -53.5l-39 -219q-27 -160 -124 -231.5t-277 -71.5h-5q-158 0 -240.5 74t-53.5 229l151 860q26 155 124.5 229t277.5 74h4q75 0 134.5 -18.5t100.5 -55t57.5 -95t2.5 -134.5l-35 -195q-9 -61 -74 -61h-55q-34 0 -51 18.5t-11 53.5l27 147
q15 92 -16.5 131t-112.5 39t-126 -39.5t-60 -130.5l-140 -786q-17 -91 15 -130.5t114 -39.5q80 0 125 39t62 131l34 192q9 62 72 62h55z" />
    <glyph glyph-name="D" unicode="D" horiz-adv-x="923" 
d="M631 1434q157 0 240 -76.5t55 -227.5l-146 -827q-28 -158 -125 -230.5t-276 -72.5h-281q-34 0 -50.5 18.5t-10.5 53.5l229 1300q9 62 72 62h293zM727 1094q17 92 -16.5 131t-118.5 39h-154l-190 -1094h153q83 0 129.5 39t63.5 131z" />
    <glyph glyph-name="E" unicode="E" horiz-adv-x="780" 
d="M645 61q-9 -61 -72 -61h-475q-34 0 -50.5 18.5t-10.5 53.5l229 1300q9 62 72 62h469q34 0 50.5 -19t10.5 -53l-6 -39q-12 -59 -74 -59h-350l-78 -451h275q34 0 50.5 -19.5t10.5 -54.5l-6 -37q-12 -61 -74 -61h-286l-82 -471h344q34 0 50 -18.5t9 -53.5z" />
    <glyph glyph-name="F" unicode="F" horiz-adv-x="735" 
d="M98 0q-34 0 -50.5 18.5t-10.5 53.5l229 1300q9 62 72 62h461q34 0 50.5 -19t10.5 -53l-6 -39q-12 -59 -74 -59h-342l-80 -461h267q34 0 50.5 -19.5t10.5 -54.5l-6 -37q-12 -61 -74 -61h-278l-101 -570q-9 -61 -73 -61h-56z" />
    <glyph glyph-name="G" unicode="G" horiz-adv-x="921" 
d="M782 727q36 0 53 -18.5t11 -53.5l-66 -368q-27 -160 -124 -231.5t-277 -71.5h-17q-158 0 -240.5 74t-53.5 229l151 860q26 155 124.5 229t277.5 74h16q75 0 134.5 -18.5t100.5 -55t57.5 -95t2.5 -134.5l-23 -137q-12 -62 -75 -62h-56q-34 0 -50.5 18.5t-10.5 53.5l16 90
q15 93 -18 131.5t-117 38.5q-83 0 -130.5 -39t-61.5 -131l-140 -786q-17 -92 16.5 -131t118.5 -39q83 0 129.5 39t63.5 131l43 239h-98q-74 0 -62 72l4 33q12 59 74 59h227z" />
    <glyph glyph-name="H" unicode="H" horiz-adv-x="952" 
d="M266 1372q9 62 72 62h55q74 0 62 -72l-95 -547h338l99 557q12 62 73 62h56q34 0 50.5 -18.5t10.5 -53.5l-229 -1301q-9 -61 -72 -61h-55q-74 0 -62 72l101 571h-340l-103 -582q-9 -61 -73 -61h-56q-34 0 -50.5 18.5t-10.5 53.5z" />
    <glyph glyph-name="I" unicode="I" horiz-adv-x="438" 
d="M236 61q-9 -61 -74 -61h-56q-34 0 -50.5 18.5t-10.5 53.5l229 1300q9 62 72 62h55q74 0 62 -72z" />
    <glyph glyph-name="J" unicode="J" horiz-adv-x="569" 
d="M43 174q83 0 130.5 39t64.5 131l180 1028q12 62 74 62h55q34 0 50.5 -18.5t10.5 -53.5l-186 -1059q-27 -160 -125.5 -231.5t-280.5 -71.5h-4q-35 0 -51 19t-10 53l8 41q9 61 72 61h12z" />
    <glyph glyph-name="K" unicode="K" horiz-adv-x="880" 
d="M909 1434q41 0 53.5 -25t-10.5 -59l-327 -455l145 -821q6 -35 -10.5 -54.5t-50.5 -19.5h-58q-63 0 -69 61l-105 629l-182 -252l-68 -377q-9 -61 -73 -61h-56q-34 0 -50.5 18.5t-10.5 53.5l229 1300q9 62 72 62h55q74 0 62 -72l-107 -619l424 646q25 45 82 45h55z" />
    <glyph glyph-name="L" unicode="L" horiz-adv-x="724" 
d="M561 174q35 0 51.5 -19t10.5 -55l-7 -39q-9 -61 -73 -61h-445q-34 0 -50.5 18.5t-10.5 53.5l229 1300q9 62 72 62h55q74 0 62 -72l-207 -1188h313z" />
    <glyph glyph-name="M" unicode="M" horiz-adv-x="1218" 
d="M999 975l-366 -705q-22 -49 -80 -49q-49 0 -61 62l-117 692l-160 -914q-11 -61 -74 -61h-43q-34 0 -50.5 18.5t-10.5 53.5l229 1300q9 62 72 62h55q65 0 74 -62l141 -829l439 841q24 50 79 50h66q34 0 50.5 -18.5t10.5 -53.5l-229 -1301q-9 -61 -72 -61h-49
q-36 0 -52 18.5t-9 53.5z" />
    <glyph glyph-name="N" unicode="N" horiz-adv-x="960" 
d="M213 61q-11 -61 -74 -61h-41q-34 0 -50.5 18.5t-10.5 53.5l229 1300q9 62 72 62h65q62 0 74 -62l180 -926l162 926q12 62 74 62h41q34 0 50.5 -18.5t10.5 -53.5l-229 -1301q-9 -61 -72 -61h-55q-65 0 -74 61l-184 959z" />
    <glyph glyph-name="O" unicode="O" horiz-adv-x="925" 
d="M219 1147q28 159 125 231t277 72h16q156 0 239 -76t56 -227l-152 -860q-28 -158 -125 -230.5t-276 -72.5h-17q-157 0 -239.5 76t-54.5 227zM266 324q-17 -92 16.5 -131t118.5 -39q83 0 129.5 39t63.5 131l139 786q15 93 -18 131.5t-117 38.5q-83 0 -130.5 -39t-61.5 -131
z" />
    <glyph glyph-name="P" unicode="P" horiz-adv-x="882" 
d="M635 1434q157 0 240 -76.5t55 -227.5l-43 -256q-29 -158 -127 -230.5t-277 -72.5h-166l-90 -510q-9 -61 -73 -61h-56q-34 0 -50.5 18.5t-10.5 53.5l229 1300q9 62 72 62h297zM700 911l31 183q17 92 -16.5 131t-118.5 39h-158l-90 -521h158q83 0 130 38.5t64 129.5z" />
    <glyph glyph-name="Q" unicode="Q" horiz-adv-x="925" 
d="M637 1450q156 0 239 -76t56 -227l-152 -860q-25 -138 -102 -211t-213 -88l-25 -135q-12 -62 -73 -62h-41q-74 0 -62 72l23 127q-122 16 -182.5 90.5t-36.5 206.5l151 860q28 159 125 231t277 72h16zM733 1110q15 93 -18 131.5t-117 38.5q-83 0 -130.5 -39t-61.5 -131
l-140 -786q-17 -92 16.5 -131t118.5 -39q83 0 129.5 39t63.5 131z" />
    <glyph glyph-name="R" unicode="R" horiz-adv-x="923" 
d="M635 1434q157 0 240 -76.5t55 -227.5l-41 -239q-40 -217 -217 -277l96 -540q6 -35 -10.5 -54.5t-50.5 -19.5h-58q-63 0 -69 61l-88 527h-7h-166l-92 -527q-9 -61 -73 -61h-56q-34 0 -50.5 18.5t-10.5 53.5l229 1300q9 62 72 62h297zM731 1094q17 92 -16.5 131t-118.5 39
h-158l-88 -508h158q84 0 130.5 38.5t63.5 131.5z" />
    <glyph glyph-name="S" unicode="S" horiz-adv-x="856" 
d="M854 989q-9 -61 -74 -61h-51q-73 0 -61 71l22 123q13 84 -18.5 122t-108.5 38q-155 0 -180 -160l-18 -98q-10 -64 6.5 -99t72.5 -71l170 -102q30 -19 51.5 -35t43.5 -36t34 -39.5t22.5 -45.5t9.5 -53.5t-5 -63.5l-37 -196q-28 -160 -120.5 -229.5t-272.5 -69.5h-4
q-76 0 -134.5 16.5t-99.5 51t-56 93.5t-1 138l31 182q12 61 76 61h51q73 0 61 -71l-24 -140q-13 -84 18.5 -123.5t108.5 -39.5q158 0 184 163l20 113q12 66 -7 103t-79 73l-166 103q-87 54 -126 118.5t-25 149.5l31 180q53 295 393 295h4q144 0 229 -74.5t58 -220.5z" />
    <glyph glyph-name="T" unicode="T" horiz-adv-x="745" 
d="M807 1434q35 0 51 -19t10 -53l-6 -39q-9 -59 -74 -59h-186l-213 -1203q-9 -61 -74 -61h-53q-73 0 -61 72l209 1192h-177q-73 0 -61 71l6 37q9 62 74 62h555z" />
    <glyph glyph-name="U" unicode="U" 
d="M895 1434q34 0 50.5 -18.5t10.5 -53.5l-188 -1075q-28 -160 -122.5 -231.5t-274.5 -71.5h-9q-158 0 -238.5 74t-51.5 229l190 1085q9 62 72 62h55q74 0 62 -72l-181 -1038q-17 -93 13 -131.5t114 -38.5q81 0 124.5 38.5t60.5 131.5l184 1048q12 62 74 62h55z" />
    <glyph glyph-name="V" unicode="V" horiz-adv-x="833" 
d="M889 1434q36 0 50.5 -22t2.5 -56l-485 -1301q-21 -55 -78 -55h-86q-32 0 -51 18t-19 50l-28 1298q0 68 65 68h55q68 0 68 -68l2 -1057l375 1069q17 56 78 56h51z" />
    <glyph glyph-name="W" unicode="W" horiz-adv-x="1314" 
d="M1364 1434q35 0 50 -21.5t5 -56.5l-438 -1301q-18 -55 -78 -55h-57q-68 0 -68 68l-18 999l-377 -1012q-21 -55 -78 -55h-63q-68 0 -68 68l19 1298q0 32 18.5 50t50.5 18h49q34 0 51.5 -18.5t14.5 -51.5l-43 -1020l379 1036q19 54 75 54h52q67 0 67 -68l15 -1022l319 1032
q16 58 76 58h47z" />
    <glyph glyph-name="X" unicode="X" horiz-adv-x="854" 
d="M868 1434q40 0 55 -23.5t-5 -58.5l-338 -619l145 -659q7 -35 -9 -54.5t-52 -19.5h-60q-63 0 -72 61l-96 502l-274 -514q-22 -49 -78 -49h-55q-40 0 -53.5 23.5t6.5 58.5l374 653l-133 625q-6 35 10.5 54.5t51.5 19.5h59q63 0 72 -62l82 -461l235 473q21 50 80 50h55z" />
    <glyph glyph-name="Y" unicode="Y" horiz-adv-x="847" 
d="M522 528l-82 -467q-9 -61 -73 -61h-56q-34 0 -50 18.5t-9 53.5l78 456l-129 834q-5 34 11.5 53t51.5 19h58q65 0 71 -66l68 -627l293 641q24 52 80 52h57q40 0 54 -23t-3 -57z" />
    <glyph glyph-name="Z" unicode="Z" horiz-adv-x="755" 
d="M573 162q34 0 51 -18.5t11 -53.5l-6 -29q-9 -61 -72 -61h-526q-34 0 -51 18.5t-11 53.5l4 20q8 45 29 80l621 1100h-342q-34 0 -51 19t-11 52l4 29q9 62 74 62h485q35 0 51.5 -19t10.5 -53l-4 -21q-8 -41 -27 -79l-620 -1100h380z" />
    <glyph glyph-name="bracketleft" unicode="[" horiz-adv-x="563" 
d="M449 1362l-228 -1290h148q34 0 49.5 -19.5t9.5 -54.5l-6 -35q-9 -61 -72 -61h-270q-35 0 -51.5 18t-10.5 53l265 1497q9 62 71 62h271q34 0 50.5 -18.5t10.5 -53.5l-6 -37q-12 -61 -74 -61h-157z" />
    <glyph glyph-name="backslash" unicode="\" horiz-adv-x="653" 
d="M201 1460q-4 34 12.5 53t50.5 19h31q66 0 72 -64l161 -1495q3 -34 -14 -52.5t-51 -18.5h-31q-66 0 -72 63z" />
    <glyph glyph-name="bracketright" unicode="]" horiz-adv-x="563" 
d="M414 1362h-148q-34 0 -49.5 19.5t-9.5 54.5l6 34q9 62 72 62h270q34 0 50.5 -18.5t10.5 -53.5l-264 -1497q-9 -61 -71 -61h-271q-34 0 -50.5 19t-10.5 52l6 37q12 62 74 62h157z" />
    <glyph glyph-name="asciicircum" unicode="^" horiz-adv-x="770" 
d="M193 729q56 0 77 49l252 482l78 -469q9 -62 72 -62h35q34 0 50.5 19t10.5 55l-111 569q-12 62 -73 62h-82q-56 0 -80 -50l-311 -575q-19 -35 -6 -57.5t53 -22.5h35z" />
    <glyph glyph-name="underscore" unicode="_" horiz-adv-x="720" 
d="M545 -98q38 0 55.5 -20.5t9.5 -57.5q-12 -62 -75 -62h-598q-37 0 -54.5 21.5t-11.5 56.5q12 62 76 62h598z" />
    <glyph glyph-name="grave" unicode="`" horiz-adv-x="927" 
d="M631 1823q58 0 76 -54l55 -151q12 -34 -0.5 -53t-44.5 -19h-23q-49 0 -76 43l-98 154q-21 35 -8 57.5t53 22.5h66z" />
    <glyph glyph-name="a" unicode="a" horiz-adv-x="868" 
d="M715 1366l35 -1298q0 -68 -68 -68h-55q-68 0 -68 68l-2 270h-307l-100 -283q-18 -55 -78 -55h-52q-36 0 -50.5 22t-2.5 56l488 1302q22 54 77 54h113q32 0 51 -18t19 -50zM307 500h250l-4 692z" />
    <glyph glyph-name="b" unicode="b" horiz-adv-x="903" 
d="M891 971q-15 -94 -64.5 -155t-136.5 -71q81 -13 112.5 -77.5t16.5 -149.5l-43 -235q-22 -134 -120.5 -208.5t-272.5 -74.5h-285q-34 0 -50.5 18.5t-10.5 53.5l229 1300q9 62 72 62h301q150 0 228.5 -77t54.5 -206zM440 1266l-80 -443h168q143 0 166 129l29 166
q27 148 -117 148h-166zM629 530q21 129 -123 129h-174l-84 -491h174q144 0 168 147z" />
    <glyph glyph-name="c" unicode="c" horiz-adv-x="905" 
d="M743 578q36 0 53 -18.5t11 -53.5l-39 -219q-27 -160 -124 -231.5t-277 -71.5h-5q-158 0 -240.5 74t-53.5 229l151 860q26 155 124.5 229t277.5 74h4q75 0 134.5 -18.5t100.5 -55t57.5 -95t2.5 -134.5l-35 -195q-9 -61 -74 -61h-55q-34 0 -51 18.5t-11 53.5l27 147
q15 92 -16.5 131t-112.5 39t-126 -39.5t-60 -130.5l-140 -786q-17 -91 15 -130.5t114 -39.5q80 0 125 39t62 131l34 192q9 62 72 62h55z" />
    <glyph glyph-name="d" unicode="d" horiz-adv-x="923" 
d="M631 1434q157 0 240 -76.5t55 -227.5l-146 -827q-28 -158 -125 -230.5t-276 -72.5h-281q-34 0 -50.5 18.5t-10.5 53.5l229 1300q9 62 72 62h293zM727 1094q17 92 -16.5 131t-118.5 39h-154l-190 -1094h153q83 0 129.5 39t63.5 131z" />
    <glyph glyph-name="e" unicode="e" horiz-adv-x="780" 
d="M645 61q-9 -61 -72 -61h-475q-34 0 -50.5 18.5t-10.5 53.5l229 1300q9 62 72 62h469q34 0 50.5 -19t10.5 -53l-6 -39q-12 -59 -74 -59h-350l-78 -451h275q34 0 50.5 -19.5t10.5 -54.5l-6 -37q-12 -61 -74 -61h-286l-82 -471h344q34 0 50 -18.5t9 -53.5z" />
    <glyph glyph-name="f" unicode="f" horiz-adv-x="735" 
d="M98 0q-34 0 -50.5 18.5t-10.5 53.5l229 1300q9 62 72 62h461q34 0 50.5 -19t10.5 -53l-6 -39q-12 -59 -74 -59h-342l-80 -461h267q34 0 50.5 -19.5t10.5 -54.5l-6 -37q-12 -61 -74 -61h-278l-101 -570q-9 -61 -73 -61h-56z" />
    <glyph glyph-name="g" unicode="g" horiz-adv-x="921" 
d="M782 727q36 0 53 -18.5t11 -53.5l-66 -368q-27 -160 -124 -231.5t-277 -71.5h-17q-158 0 -240.5 74t-53.5 229l151 860q26 155 124.5 229t277.5 74h16q75 0 134.5 -18.5t100.5 -55t57.5 -95t2.5 -134.5l-23 -137q-12 -62 -75 -62h-56q-34 0 -50.5 18.5t-10.5 53.5l16 90
q15 93 -18 131.5t-117 38.5q-83 0 -130.5 -39t-61.5 -131l-140 -786q-17 -92 16.5 -131t118.5 -39q83 0 129.5 39t63.5 131l43 239h-98q-74 0 -62 72l4 33q12 59 74 59h227z" />
    <glyph glyph-name="h" unicode="h" horiz-adv-x="952" 
d="M266 1372q9 62 72 62h55q74 0 62 -72l-95 -547h338l99 557q12 62 73 62h56q34 0 50.5 -18.5t10.5 -53.5l-229 -1301q-9 -61 -72 -61h-55q-74 0 -62 72l101 571h-340l-103 -582q-9 -61 -73 -61h-56q-34 0 -50.5 18.5t-10.5 53.5z" />
    <glyph glyph-name="i" unicode="i" horiz-adv-x="438" 
d="M236 61q-9 -61 -74 -61h-56q-34 0 -50.5 18.5t-10.5 53.5l229 1300q9 62 72 62h55q74 0 62 -72z" />
    <glyph glyph-name="j" unicode="j" horiz-adv-x="569" 
d="M43 174q83 0 130.5 39t64.5 131l180 1028q12 62 74 62h55q34 0 50.5 -18.5t10.5 -53.5l-186 -1059q-27 -160 -125.5 -231.5t-280.5 -71.5h-4q-35 0 -51 19t-10 53l8 41q9 61 72 61h12z" />
    <glyph glyph-name="k" unicode="k" horiz-adv-x="880" 
d="M909 1434q41 0 53.5 -25t-10.5 -59l-327 -455l145 -821q6 -35 -10.5 -54.5t-50.5 -19.5h-58q-63 0 -69 61l-105 629l-182 -252l-68 -377q-9 -61 -73 -61h-56q-34 0 -50.5 18.5t-10.5 53.5l229 1300q9 62 72 62h55q74 0 62 -72l-107 -619l424 646q25 45 82 45h55z" />
    <glyph glyph-name="l" unicode="l" horiz-adv-x="724" 
d="M561 174q35 0 51.5 -19t10.5 -55l-7 -39q-9 -61 -73 -61h-445q-34 0 -50.5 18.5t-10.5 53.5l229 1300q9 62 72 62h55q74 0 62 -72l-207 -1188h313z" />
    <glyph glyph-name="m" unicode="m" horiz-adv-x="1218" 
d="M999 975l-366 -705q-22 -49 -80 -49q-49 0 -61 62l-117 692l-160 -914q-11 -61 -74 -61h-43q-34 0 -50.5 18.5t-10.5 53.5l229 1300q9 62 72 62h55q65 0 74 -62l141 -829l439 841q24 50 79 50h66q34 0 50.5 -18.5t10.5 -53.5l-229 -1301q-9 -61 -72 -61h-49
q-36 0 -52 18.5t-9 53.5z" />
    <glyph glyph-name="n" unicode="n" horiz-adv-x="960" 
d="M213 61q-11 -61 -74 -61h-41q-34 0 -50.5 18.5t-10.5 53.5l229 1300q9 62 72 62h65q62 0 74 -62l180 -926l162 926q12 62 74 62h41q34 0 50.5 -18.5t10.5 -53.5l-229 -1301q-9 -61 -72 -61h-55q-65 0 -74 61l-184 959z" />
    <glyph glyph-name="o" unicode="o" horiz-adv-x="925" 
d="M219 1147q28 159 125 231t277 72h16q156 0 239 -76t56 -227l-152 -860q-28 -158 -125 -230.5t-276 -72.5h-17q-157 0 -239.5 76t-54.5 227zM266 324q-17 -92 16.5 -131t118.5 -39q83 0 129.5 39t63.5 131l139 786q15 93 -18 131.5t-117 38.5q-83 0 -130.5 -39t-61.5 -131
z" />
    <glyph glyph-name="p" unicode="p" horiz-adv-x="882" 
d="M635 1434q157 0 240 -76.5t55 -227.5l-43 -256q-29 -158 -127 -230.5t-277 -72.5h-166l-90 -510q-9 -61 -73 -61h-56q-34 0 -50.5 18.5t-10.5 53.5l229 1300q9 62 72 62h297zM700 911l31 183q17 92 -16.5 131t-118.5 39h-158l-90 -521h158q83 0 130 38.5t64 129.5z" />
    <glyph glyph-name="q" unicode="q" horiz-adv-x="925" 
d="M637 1450q156 0 239 -76t56 -227l-152 -860q-25 -138 -102 -211t-213 -88l-25 -135q-12 -62 -73 -62h-41q-74 0 -62 72l23 127q-122 16 -182.5 90.5t-36.5 206.5l151 860q28 159 125 231t277 72h16zM733 1110q15 93 -18 131.5t-117 38.5q-83 0 -130.5 -39t-61.5 -131
l-140 -786q-17 -92 16.5 -131t118.5 -39q83 0 129.5 39t63.5 131z" />
    <glyph glyph-name="r" unicode="r" horiz-adv-x="923" 
d="M635 1434q157 0 240 -76.5t55 -227.5l-41 -239q-40 -217 -217 -277l96 -540q6 -35 -10.5 -54.5t-50.5 -19.5h-58q-63 0 -69 61l-88 527h-7h-166l-92 -527q-9 -61 -73 -61h-56q-34 0 -50.5 18.5t-10.5 53.5l229 1300q9 62 72 62h297zM731 1094q17 92 -16.5 131t-118.5 39
h-158l-88 -508h158q84 0 130.5 38.5t63.5 131.5z" />
    <glyph glyph-name="s" unicode="s" horiz-adv-x="856" 
d="M854 989q-9 -61 -74 -61h-51q-73 0 -61 71l22 123q13 84 -18.5 122t-108.5 38q-155 0 -180 -160l-18 -98q-10 -64 6.5 -99t72.5 -71l170 -102q30 -19 51.5 -35t43.5 -36t34 -39.5t22.5 -45.5t9.5 -53.5t-5 -63.5l-37 -196q-28 -160 -120.5 -229.5t-272.5 -69.5h-4
q-76 0 -134.5 16.5t-99.5 51t-56 93.5t-1 138l31 182q12 61 76 61h51q73 0 61 -71l-24 -140q-13 -84 18.5 -123.5t108.5 -39.5q158 0 184 163l20 113q12 66 -7 103t-79 73l-166 103q-87 54 -126 118.5t-25 149.5l31 180q53 295 393 295h4q144 0 229 -74.5t58 -220.5z" />
    <glyph glyph-name="t" unicode="t" horiz-adv-x="745" 
d="M807 1434q35 0 51 -19t10 -53l-6 -39q-9 -59 -74 -59h-186l-213 -1203q-9 -61 -74 -61h-53q-73 0 -61 72l209 1192h-177q-73 0 -61 71l6 37q9 62 74 62h555z" />
    <glyph glyph-name="u" unicode="u" 
d="M895 1434q34 0 50.5 -18.5t10.5 -53.5l-188 -1075q-28 -160 -122.5 -231.5t-274.5 -71.5h-9q-158 0 -238.5 74t-51.5 229l190 1085q9 62 72 62h55q74 0 62 -72l-181 -1038q-17 -93 13 -131.5t114 -38.5q81 0 124.5 38.5t60.5 131.5l184 1048q12 62 74 62h55z" />
    <glyph glyph-name="v" unicode="v" horiz-adv-x="833" 
d="M889 1434q36 0 50.5 -22t2.5 -56l-485 -1301q-21 -55 -78 -55h-86q-32 0 -51 18t-19 50l-28 1298q0 68 65 68h55q68 0 68 -68l2 -1057l375 1069q17 56 78 56h51z" />
    <glyph glyph-name="w" unicode="w" horiz-adv-x="1314" 
d="M1364 1434q35 0 50 -21.5t5 -56.5l-438 -1301q-18 -55 -78 -55h-57q-68 0 -68 68l-18 999l-377 -1012q-21 -55 -78 -55h-63q-68 0 -68 68l19 1298q0 32 18.5 50t50.5 18h49q34 0 51.5 -18.5t14.5 -51.5l-43 -1020l379 1036q19 54 75 54h52q67 0 67 -68l15 -1022l319 1032
q16 58 76 58h47z" />
    <glyph glyph-name="x" unicode="x" horiz-adv-x="854" 
d="M868 1434q40 0 55 -23.5t-5 -58.5l-338 -619l145 -659q7 -35 -9 -54.5t-52 -19.5h-60q-63 0 -72 61l-96 502l-274 -514q-22 -49 -78 -49h-55q-40 0 -53.5 23.5t6.5 58.5l374 653l-133 625q-6 35 10.5 54.5t51.5 19.5h59q63 0 72 -62l82 -461l235 473q21 50 80 50h55z" />
    <glyph glyph-name="y" unicode="y" horiz-adv-x="847" 
d="M522 528l-82 -467q-9 -61 -73 -61h-56q-34 0 -50 18.5t-9 53.5l78 456l-129 834q-5 34 11.5 53t51.5 19h58q65 0 71 -66l68 -627l293 641q24 52 80 52h57q40 0 54 -23t-3 -57z" />
    <glyph glyph-name="z" unicode="z" horiz-adv-x="755" 
d="M573 162q34 0 51 -18.5t11 -53.5l-6 -29q-9 -61 -72 -61h-526q-34 0 -51 18.5t-11 53.5l4 20q8 45 29 80l621 1100h-342q-34 0 -51 19t-11 52l4 29q9 62 74 62h485q35 0 51.5 -19t10.5 -53l-4 -21q-8 -41 -27 -79l-620 -1100h380z" />
    <glyph glyph-name="braceleft" unicode="{" horiz-adv-x="630" 
d="M678 1362q-80 0 -128.5 -38.5t-64.5 -131.5l-51 -283q-15 -84 -54.5 -122t-129.5 -62q144 -45 121 -184l-54 -299q-16 -93 19 -131.5t117 -38.5q26 0 37.5 -19.5t5.5 -54.5l-7 -35q-9 -61 -67 -61q-74 0 -132.5 17t-101 52.5t-59 95t-2.5 138.5l53 311q19 91 -55 117
q-61 28 -53 80l6 28q8 53 67 68q94 26 109 125l53 295q29 161 127 232t275 71q26 0 38.5 -19.5t6.5 -52.5l-6 -37q-12 -61 -70 -61z" />
    <glyph glyph-name="bar" unicode="|" horiz-adv-x="487" 
d="M215 -143q-9 -62 -74 -62h-39q-34 0 -50.5 18.5t-10.5 53.5l303 1710q9 61 72 61h41q34 0 50.5 -18t10.5 -53z" />
    <glyph glyph-name="braceright" unicode="}" horiz-adv-x="628" 
d="M250 1362q-26 0 -37.5 19.5t-5.5 54.5l6 34q9 62 68 62q74 0 132 -17t100.5 -52t59 -94.5t2.5 -139.5l-51 -295q-18 -93 56 -119q31 -17 43 -33t8 -45l-4 -32q-10 -50 -70 -68q-92 -26 -106 -121l-56 -311q-29 -160 -126.5 -231.5t-274.5 -71.5q-27 0 -39 19t-6 52l6 37
q12 62 70 62q80 0 127 38t65 132l53 299q15 83 54 121t129 63q-143 44 -119 184l51 283q14 94 -20 132t-115 38z" />
    <glyph glyph-name="asciitilde" unicode="~" horiz-adv-x="811" 
d="M225 627q14 78 76 78q26 0 60.5 -18.5t64 -41t71.5 -41t81 -18.5q85 0 141.5 54.5t77.5 168.5q6 45 -41 45h-51q-45 0 -48 -29q-13 -77 -73 -77q-25 0 -57.5 18.5t-60 40.5t-68.5 40.5t-81 18.5q-86 0 -146 -55t-81 -168q-3 -21 7.5 -33t33.5 -12h47q41 0 47 29z" />
    <glyph glyph-name="exclamdown" unicode="&#xa1;" horiz-adv-x="378" 
d="M420 1270q-9 -62 -72 -62h-57q-34 0 -51 19.5t-11 54.5l17 90q9 62 71 62h58q34 0 50.5 -18.5t10.5 -53.5zM207 61q-9 -61 -72 -61h-57q-34 0 -51 18.5t-11 53.5l27 149l160 797q15 59 76 59h10q35 0 51.5 -19.5t11.5 -53.5l-116 -785z" />
    <glyph glyph-name="cent" unicode="&#xa2;" horiz-adv-x="843" 
d="M645 1274q118 -20 176 -95t37 -202l-12 -66q-11 -61 -74 -61h-53q-34 0 -51 18.5t-11 53.5l2 18q17 91 -15.5 131.5t-113.5 40.5q-82 0 -128.5 -40t-63.5 -132l-78 -446q-17 -91 15.5 -131.5t113.5 -40.5q164 0 193 172l12 63q11 61 74 61h51q35 0 51 -18.5t10 -52.5
l-14 -90q-26 -139 -103 -211.5t-214 -87.5l-17 -97q-9 -61 -74 -61h-34q-74 0 -62 72l14 88q-119 18 -177 91t-36 206l93 520q25 135 102 208.5t215 90.5l16 96q12 62 74 62h37q34 0 50 -18.5t9 -53.5z" />
    <glyph glyph-name="sterling" unicode="&#xa3;" horiz-adv-x="843" 
d="M866 977q-9 -59 -73 -59h-54q-75 0 -63 71l24 141q6 43 4.5 76.5t-24 53.5t-66.5 20q-65 0 -97 -39.5t-44 -110.5l-59 -337h157q34 0 50 -18.5t10 -53.5l-4 -23q-9 -61 -72 -61h-168q-41 -229 -84.5 -332t-126.5 -135h455q34 0 50 -18.5t9 -53.5l-6 -37q-9 -61 -72 -61
h-565q-32 0 -51 18t-19 50v49q-1 28 10 45.5t36 36.5q67 43 101 137.5t71 300.5h-54q-34 0 -49.5 19t-9.5 53l2 24q12 60 72 60h65l64 354q25 150 106 226.5t250 76.5h4q146 0 211.5 -81t40.5 -222z" />
    <glyph glyph-name="yen" unicode="&#xa5;" horiz-adv-x="847" 
d="M891 1434q40 0 54 -23t-3 -57l-342 -672h111q43 0 37 -43l-5 -21q-6 -36 -43 -36h-151l-27 -54l-12 -65h162q43 0 37 -45l-4 -19q-3 -37 -41 -37h-170l-54 -301q-9 -61 -73 -61h-56q-34 0 -50 18.5t-9 53.5l49 290h-184q-40 0 -37 44l4 20q6 37 43 37h192l11 65l-8 54
h-166q-43 0 -37 45l4 18q3 37 41 37h141l-104 680q-5 34 11.5 53t51.5 19h58q65 0 71 -66l68 -627l293 641q24 52 80 52h57z" />
    <glyph glyph-name="brokenbar" unicode="&#xa6;" horiz-adv-x="487" 
d="M299 901q-34 0 -50.5 18.5t-10.5 53.5l106 604q9 61 72 61h41q34 0 50.5 -18t10.5 -53l-106 -604q-9 -62 -74 -62h-39zM268 573q35 0 51.5 -18t10.5 -53l-115 -645q-9 -62 -74 -62h-39q-34 0 -50.5 18.5t-10.5 53.5l115 645q9 61 71 61h41z" />
    <glyph glyph-name="section" unicode="&#xa7;" horiz-adv-x="860" 
d="M594 559l6 41q10 64 -27 109.5t-139 101.5q-136 75 -195.5 147.5t-41.5 171.5l20 107q50 295 391 295h4q68 0 125 -17.5t99.5 -52t60 -92.5t4.5 -133l-18 -109q-12 -61 -76 -61h-51q-35 0 -51.5 19.5t-10.5 56.5l13 61q13 84 -18.5 122t-106.5 38q-77 0 -121.5 -38
t-57.5 -122l-8 -39q-10 -64 24.5 -103t143.5 -97q143 -75 199 -146.5t37 -179.5l-39 -225q-36 80 -166 145zM330 797l-8 -52q-10 -63 23 -101t142 -97q143 -74 200 -147t38 -179l-23 -123q-28 -160 -120.5 -229.5t-272.5 -69.5h-4q-76 0 -134.5 16.5t-99.5 51t-56 93.5
t-1 138l25 140q9 61 74 61h53q34 0 50.5 -19.5t10.5 -54.5l-18 -94q-26 -164 125 -164q156 0 182 164l10 51q10 64 -28 110t-144 103q-65 37 -109 69.5t-76.5 71t-43.5 82.5t-2 95l41 227q14 -29 43.5 -57t50.5 -42t62 -38q7 -4 10 -6z" />
    <glyph glyph-name="dieresis" unicode="&#xa8;" horiz-adv-x="901" 
d="M528 1751q34 0 51 -19.5t11 -54.5l-15 -69q-9 -62 -73 -62h-43q-34 0 -51 18.5t-11 53.5l13 72q11 61 73 61h45zM844 1751q35 0 51 -19.5t10 -54.5l-12 -69q-12 -62 -74 -62h-45q-34 0 -50.5 18.5t-10.5 53.5l14 72q9 61 74 61h43z" />
    <glyph glyph-name="copyright" unicode="&#xa9;" horiz-adv-x="1280" 
d="M985 1450q159 0 243 -74.5t58 -228.5l-151 -860q-29 -160 -128 -231.5t-280 -71.5h-371q-157 0 -236.5 74t-51.5 229l151 860q27 160 126.5 231.5t281.5 71.5h358zM1171 1165q15 88 -33 131t-147 43h-411q-98 0 -161.5 -43t-80.5 -131l-158 -897q-15 -88 33.5 -131
t146.5 -43h412q206 0 242 174zM844 623q32 0 47.5 -19.5t9.5 -54.5l-22 -125q-19 -107 -89.5 -158t-197.5 -51h-4q-50 0 -92 12.5t-74 37t-46 66t-5 93.5l104 586q35 209 289 209h4q102 0 166.5 -55.5t48.5 -153.5l-20 -113q-9 -61 -72 -61h-8q-34 0 -51 19t-11 54l10 64
q10 60 -12 87t-76 27q-112 0 -129 -114l-90 -512q-22 -115 88 -115q109 0 129 115l19 100q9 62 74 62h10z" />
    <glyph glyph-name="ordfeminine" unicode="&#xaa;" horiz-adv-x="466" 
d="M483 887q-6 -29 -37 -29h-36q-32 0 -29 35l2 12q-38 -49 -127 -49q-59 0 -94.5 41t-22.5 111l13 63q12 75 52 112.5t115 37.5q31 0 62 -14t41 -36l20 107q10 70 -49 70h-22q-58 0 -72 -62q-8 -26 -35 -26h-37q-36 0 -30 30q25 152 190 152h31q63 0 105.5 -41.5
t29.5 -108.5zM403 1057q6 34 -8.5 51.5t-40.5 17.5h-24q-60 0 -74 -69l-8 -41q-11 -68 51 -68h25q26 0 45.5 17t25.5 51zM446 680q-6 -29 -34 -29h-301q-15 0 -23.5 9t-5.5 24l4 33q6 28 37 28h299q35 0 29 -34z" />
    <glyph glyph-name="guillemotleft" unicode="&#xab;" horiz-adv-x="806" 
d="M670 1051q34 26 55.5 12.5t13.5 -55.5l-8 -50q-8 -44 -43 -69l-223 -170l156 -164q33 -33 24 -82l-8 -51q-6 -37 -31 -44t-51 21l-59 64l-7 -41q-6 -37 -30.5 -44t-50.5 21l-220 240q-33 33 -24 80l2 16q6 43 43 70l313 246q34 26 56 12t14 -55l-4 -21z" />
    <glyph glyph-name="registered" unicode="&#xae;" horiz-adv-x="673" 
d="M594 1446q86 0 129.5 -45t30.5 -121l-78 -440q-26 -168 -217 -168h-191q-84 0 -126 45t-29 123l77 440q27 166 220 166h184zM684 1290q8 41 -15.5 64.5t-72.5 23.5h-211q-51 0 -83 -23.5t-38 -64.5l-82 -461q-6 -42 16.5 -66t71.5 -24h211q50 0 81.5 24t39.5 66z
M481 1311q54 0 84 -27.5t23 -79.5l-17 -90q-15 -73 -73 -96l28 -180q3 -14 -4 -22.5t-20 -8.5h-17q-27 0 -30 27l-25 174h-2h-51l-33 -174q-3 -27 -33 -27h-14q-15 0 -22.5 8.5t-4.5 22.5l78 446q6 27 33 27h100zM510 1192q8 51 -41 51h-51l-31 -170h51q52 0 60 53z" />
    <glyph glyph-name="macron" unicode="&#xaf;" horiz-adv-x="790" 
d="M823 1626q-9 -59 -71 -59h-328q-35 0 -50.5 18t-8.5 53l2 23q9 61 71 61h330q33 0 49 -19t10 -52z" />
    <glyph glyph-name="degree" unicode="&#xb0;" horiz-adv-x="565" 
d="M451 1450q108 0 164.5 -72.5t33.5 -197.5q-24 -130 -98.5 -200.5t-196.5 -70.5q-110 0 -166.5 73t-33.5 198q22 130 97 200t200 70zM432 1348q-66 0 -111.5 -44.5t-58.5 -123.5q-14 -80 15.5 -125t95.5 -45q64 0 108.5 45t59.5 125q13 79 -15.5 123.5t-93.5 44.5z" />
    <glyph glyph-name="plusminus" unicode="&#xb1;" horiz-adv-x="860" 
d="M764 932q34 0 50.5 -18.5t10.5 -53.5l-2 -12q-12 -62 -73 -62h-199l-35 -200q-9 -60 -72 -60h-10q-34 0 -50.5 18.5t-10.5 53.5l33 188h-185q-73 0 -61 72l2 12q9 62 71 62h199l35 201q9 59 74 59h8q73 0 61 -72l-32 -188h186zM674 420q34 0 50.5 -18.5t10.5 -53.5
l-2 -12q-12 -62 -74 -62h-528q-73 0 -61 72l2 12q9 62 71 62h531z" />
    <glyph glyph-name="acute" unicode="&#xb4;" horiz-adv-x="927" 
d="M666 1780q28 43 79 43h62q44 0 56 -25.5t-19 -56.5l-158 -162q-33 -33 -78 -33h-8q-39 0 -51.5 22t8.5 56z" />
    <glyph glyph-name="paragraph" unicode="&#xb6;" horiz-adv-x="1189" 
d="M1161 1434q74 0 62 -72l-228 -1301q-11 -61 -73 -61h-56q-34 0 -50.5 18.5t-10.5 53.5l209 1192h-115l-211 -1203q-9 -61 -72 -61h-55q-73 0 -61 72l88 508h-166q-157 0 -240 75.5t-55 227.5l43 247q28 158 125 231t276 73h590z" />
    <glyph glyph-name="periodcentered" unicode="&#xb7;" horiz-adv-x="368" 
d="M264 844q35 0 51.5 -19.5t10.5 -54.5l-17 -90q-9 -62 -71 -62h-58q-34 0 -50.5 18.5t-10.5 53.5l16 92q12 62 74 62h55z" />
    <glyph glyph-name="cedilla" unicode="&#xb8;" horiz-adv-x="720" 
d="M387 0l-16 -98q-18 -102 -62 -141.5t-131 -39.5q-39 0 -69 9q-40 8 -43 55v14q0 56 49 56h43q31 0 45 11.5t20 43.5l17 90h147z" />
    <glyph glyph-name="ordmasculine" unicode="&#xba;" horiz-adv-x="477" 
d="M420 1442q67 0 111 -45t28 -125l-43 -250q-30 -170 -201 -170h-32q-69 0 -112.5 44.5t-29.5 125.5l43 250q30 170 203 170h33zM449 1257q16 91 -56 91h-16q-69 0 -88 -91l-39 -221q-16 -90 57 -90h17q70 0 86 90zM111 651q-15 0 -23.5 9t-5.5 24l4 33q6 28 37 28h309
q35 0 29 -34l-4 -31q-6 -29 -35 -29h-311z" />
    <glyph glyph-name="guillemotright" unicode="&#xbb;" horiz-adv-x="806" 
d="M137 977q-8 -47 25 -80l153 -166l-221 -170q-19 -14 -29 -28.5t-14 -38.5l-8 -52q-7 -43 14.5 -56t55.5 13l313 246q37 27 43 70l2 16q8 47 -25 80l-219 240q-26 28 -50 20.5t-30 -45.5zM485 977q-8 -44 23 -80l156 -166l-222 -170q-38 -25 -43 -67l-10 -52
q-7 -43 15.5 -56t56.5 13l313 246q34 25 43 70l2 16q6 50 -24 80l-220 240q-26 28 -50 20.5t-31 -45.5z" />
    <glyph glyph-name="onequarter" unicode="&#xbc;" horiz-adv-x="1038" 
d="M780 1401q17 33 58 33h12q28 0 37.5 -16.5t-4.5 -41.5l-717 -1343q-17 -33 -55 -33h-13q-28 0 -37.5 16t2.5 41zM240 610q-9 -45 -52 -45h-36q-25 0 -37.5 14.5t-8.5 38.5l123 701q3 17 13 22q28 25 47 62q19 31 47 31h4q43 0 37 -43zM895 868q51 0 45 -53l-88 -493h16
q22 0 32.5 -14t6.5 -38l-2 -26q-10 -43 -55 -43h-19l-28 -156q-6 -45 -53 -45h-37q-25 0 -37 14t-8 39l26 148h-190q-54 0 -45 53l4 33q5 25 20 55l279 492q19 34 59 34h74zM778 668l-188 -346h127z" />
    <glyph glyph-name="onehalf" unicode="&#xbd;" horiz-adv-x="1075" 
d="M780 1401q17 33 58 33h12q28 0 37.5 -16.5t-4.5 -41.5l-717 -1343q-17 -33 -55 -33h-13q-28 0 -37.5 16t2.5 41zM240 610q-9 -45 -52 -45h-36q-25 0 -37.5 14.5t-8.5 38.5l123 701q3 17 13 22q32 32 47 62q19 31 47 31h4q43 0 37 -43zM637 543q-51 0 -45 53l18 96
q15 95 69 140t165 45h2q94 0 141.5 -47.5t32.5 -137.5l-16 -94q-4 -23 -11 -43t-22 -41t-23 -33t-33.5 -34t-34 -29.5t-43 -34.5t-42.5 -33q-76 -61 -106 -92.5t-36 -64.5l-12 -74h223q25 0 37 -13.5t8 -37.5l-4 -23q-6 -45 -53 -45h-315q-51 0 -45 53l26 142q5 32 19.5 62
t30.5 52.5t47 51t53 46t65 50.5q90 70 107 90q21 24 26 53l15 76q7 43 -7.5 62.5t-52.5 19.5q-37 0 -56.5 -19.5t-27.5 -62.5l-14 -88q-9 -45 -53 -45h-33z" />
    <glyph glyph-name="threequarters" unicode="&#xbe;" horiz-adv-x="1265" 
d="M616 1151q-10 -59 -29.5 -88t-56.5 -43q27 -12 38 -45t3 -78l-26 -149q-16 -93 -69 -142t-157 -49h-30q-86 0 -131.5 52.5t-28.5 138.5l14 81q9 45 54 45h34q25 0 37 -14t8 -39l-8 -57q-17 -86 51 -86h11q70 0 84 86l22 127q11 65 -53 65h-55q-25 0 -37 14t-8 40l4 22
q6 43 53 43h51q40 0 61.5 18.5t30.5 59.5l15 86q17 86 -54 86h-12q-35 0 -55 -20t-27 -66l-8 -45q-6 -45 -53 -45h-35q-51 0 -45 53l10 53q16 97 69.5 144t166.5 47h10q94 0 140.5 -50t29.5 -141zM1006 1401q17 33 57 33h12q28 0 37.5 -16.5t-4.5 -41.5l-717 -1343
q-17 -33 -55 -33h-12q-28 0 -37.5 16t2.5 41zM1122 868q51 0 45 -53l-88 -493h17q22 0 33 -13.5t8 -38.5l-4 -26q-10 -43 -56 -43h-18l-29 -156q-6 -45 -53 -45h-37q-25 0 -37 14t-8 39l27 148h-191q-54 0 -45 53l4 33q6 30 21 55l278 492q19 34 60 34h73zM1006 668
l-189 -346h127z" />
    <glyph glyph-name="questiondown" unicode="&#xbf;" horiz-adv-x="782" 
d="M502 1208q-36 0 -53 19.5t-11 54.5l17 90q9 62 71 62h58q34 0 50.5 -19t10.5 -53l-16 -92q-9 -62 -72 -62h-55zM500 1069q34 0 50.5 -19.5t10.5 -54.5l-22 -129q-14 -79 -53.5 -140.5t-125.5 -127.5q-106 -79 -122 -162l-23 -133q-14 -88 15.5 -123t101.5 -35
q70 0 110 35t54 123l26 141q9 62 74 62h45q73 0 61 -72l-26 -155q-27 -157 -112.5 -226t-262.5 -69h-4q-154 0 -226.5 72.5t-45.5 222.5l28 167q8 45 24.5 83t29.5 60.5t43 50.5t42 37.5t50 37.5q67 47 104.5 94t48.5 115l15 84q12 61 75 61h15z" />
    <glyph glyph-name="Agrave" unicode="&#xc0;" horiz-adv-x="868" 
d="M541 1589l-99 154q-21 35 -8 57.5t53 22.5h66q58 0 76 -54l55 -151q12 -34 -0.5 -53t-44.5 -19h-23q-48 0 -75 43zM715 1366l35 -1298q0 -68 -68 -68h-55q-68 0 -68 68l-2 270h-307l-100 -283q-18 -55 -78 -55h-52q-36 0 -50.5 22t-2.5 56l488 1302q22 54 77 54h113
q32 0 51 -18t19 -50zM307 500h250l-4 692z" />
    <glyph glyph-name="Aacute" unicode="&#xc1;" horiz-adv-x="868" 
d="M821 1823q44 0 56 -25.5t-19 -56.5l-158 -162q-33 -33 -77 -33h-9q-39 0 -51.5 22t8.5 56l109 156q28 43 80 43h61zM645 1434q32 0 51 -18t19 -50l35 -1298q0 -68 -68 -68h-55q-68 0 -68 68l-2 270h-307l-100 -283q-18 -55 -78 -55h-52q-36 0 -50.5 22t-2.5 56l488 1302
q22 54 77 54h113zM307 500h250l-4 692z" />
    <glyph glyph-name="Acircumflex" unicode="&#xc2;" horiz-adv-x="868" 
d="M834 1624q15 -35 2 -56.5t-48 -21.5h-20q-60 0 -80 56l-41 98l-86 -111q-30 -43 -82 -43h-33q-34 0 -40 25t20 59l125 154q33 39 82 39h55q58 0 78 -51zM645 1434q32 0 51 -18t19 -50l35 -1298q0 -68 -68 -68h-55q-68 0 -68 68l-2 270h-307l-100 -283q-18 -55 -78 -55
h-52q-36 0 -50.5 22t-2.5 56l488 1302q22 54 77 54h113zM307 500h250l-4 692z" />
    <glyph glyph-name="Atilde" unicode="&#xc3;" horiz-adv-x="868" 
d="M924 1796q20 0 28.5 -10.5t5.5 -28.5q-38 -211 -202 -211q-38 0 -74 17.5t-58.5 39t-51 39t-54.5 17.5q-27 0 -46.5 -20t-25.5 -56q-6 -29 -40 -29h-56q-39 0 -33 39q18 108 72.5 159.5t136.5 51.5q39 0 73.5 -17.5t56 -38.5t48 -38.5t50.5 -17.5q28 0 46.5 20t24.5 55
q6 29 41 29h58zM645 1434q32 0 51 -18t19 -50l35 -1298q0 -68 -68 -68h-55q-68 0 -68 68l-2 270h-307l-100 -283q-18 -55 -78 -55h-52q-36 0 -50.5 22t-2.5 56l488 1302q22 54 77 54h113zM307 500h250l-4 692z" />
    <glyph glyph-name="Adieresis" unicode="&#xc4;" horiz-adv-x="868" 
d="M440 1546q-34 0 -50.5 18.5t-10.5 53.5l12 72q11 61 74 61h45q34 0 50.5 -19.5t10.5 -54.5l-14 -69q-9 -62 -74 -62h-43zM825 1751q35 0 51.5 -19.5t10.5 -54.5l-13 -69q-12 -62 -73 -62h-45q-34 0 -51 18.5t-11 53.5l15 72q9 61 73 61h43zM645 1434q32 0 51 -18t19 -50
l35 -1298q0 -68 -68 -68h-55q-68 0 -68 68l-2 270h-307l-100 -283q-18 -55 -78 -55h-52q-36 0 -50.5 22t-2.5 56l488 1302q22 54 77 54h113zM307 500h250l-4 692z" />
    <glyph glyph-name="Aring" unicode="&#xc5;" horiz-adv-x="868" 
d="M668 1849q70 0 113.5 -43t31.5 -114q-12 -75 -64 -116.5t-137 -41.5q-72 0 -115 43.5t-30 114.5q12 75 63.5 116t137.5 41zM711 1692q6 33 -10 51t-48 18t-55 -18t-29 -51t11 -50.5t49 -17.5t54 17.5t28 50.5zM645 1434q32 0 51 -18t19 -50l35 -1298q0 -68 -68 -68h-55
q-68 0 -68 68l-2 270h-307l-100 -283q-18 -55 -78 -55h-52q-36 0 -50.5 22t-2.5 56l488 1302q22 54 77 54h113zM307 500h250l-4 692z" />
    <glyph glyph-name="AE" unicode="&#xc6;" horiz-adv-x="1275" 
d="M1303 1434q34 0 50.5 -19t10.5 -53l-6 -39q-12 -59 -74 -59h-350l-78 -451h274q34 0 51 -19.5t11 -54.5l-6 -37q-12 -61 -74 -61h-287l-82 -471h344q35 0 51 -18.5t9 -53.5l-6 -37q-9 -61 -72 -61h-475q-34 0 -51 18.5t-11 53.5l48 264h-295l-135 -285q-20 -51 -80 -51
h-56q-38 0 -52 23t1 57l633 1302q24 52 80 52h135v-2q6 2 23 2h469zM362 500h246l135 764h-20z" />
    <glyph glyph-name="Ccedilla" unicode="&#xc7;" horiz-adv-x="905" 
d="M625 1450q75 0 134.5 -18.5t100.5 -55t57.5 -95t2.5 -134.5l-35 -195q-9 -61 -74 -61h-55q-34 0 -51 18.5t-11 53.5l27 147q15 92 -16.5 131t-112.5 39t-126 -39.5t-60 -130.5l-140 -786q-17 -91 15 -130.5t114 -39.5q80 0 125 39t62 131l34 192q9 62 72 62h55
q36 0 53 -18.5t11 -53.5l-39 -219q-25 -145 -107 -217.5t-231 -83.5l-14 -84q-18 -102 -62 -141.5t-131 -39.5q-39 0 -69 9q-40 8 -43 55v14q0 56 49 56h43q31 0 45 11.5t20 43.5l15 80q-122 16 -181 89.5t-34 207.5l151 860q26 155 124.5 229t277.5 74h4z" />
    <glyph glyph-name="Egrave" unicode="&#xc8;" horiz-adv-x="780" 
d="M535 1823q57 0 75 -54l56 -151q12 -34 -0.5 -53t-44.5 -19h-23q-49 0 -76 43l-98 154q-21 35 -8 57.5t53 22.5h66zM645 61q-9 -61 -72 -61h-475q-34 0 -50.5 18.5t-10.5 53.5l229 1300q9 62 72 62h469q34 0 50.5 -19t10.5 -53l-6 -39q-12 -59 -74 -59h-350l-78 -451h275
q34 0 50.5 -19.5t10.5 -54.5l-6 -37q-12 -61 -74 -61h-286l-82 -471h344q34 0 50 -18.5t9 -53.5z" />
    <glyph glyph-name="Eacute" unicode="&#xc9;" horiz-adv-x="780" 
d="M662 1780q28 43 79 43h62q44 0 56 -25.5t-19 -56.5l-158 -162q-33 -33 -78 -33h-8q-39 0 -51.5 22t8.5 56zM645 61q-9 -61 -72 -61h-475q-34 0 -50.5 18.5t-10.5 53.5l229 1300q9 62 72 62h469q34 0 50.5 -19t10.5 -53l-6 -39q-12 -59 -74 -59h-350l-78 -451h275
q34 0 50.5 -19.5t10.5 -54.5l-6 -37q-12 -61 -74 -61h-286l-82 -471h344q34 0 50 -18.5t9 -53.5z" />
    <glyph glyph-name="Ecircumflex" unicode="&#xca;" horiz-adv-x="780" 
d="M770 1546q35 0 47.5 21.5t-2.5 56.5l-67 148q-20 51 -78 51h-56q-49 0 -82 -39l-124 -154q-26 -34 -20 -59t40 -25h33q52 0 82 43l86 111l41 -98q20 -56 80 -56h20zM645 61q-9 -61 -72 -61h-475q-34 0 -50.5 18.5t-10.5 53.5l229 1300q9 62 72 62h469q34 0 50.5 -19
t10.5 -53l-6 -39q-12 -59 -74 -59h-350l-78 -451h275q34 0 50.5 -19.5t10.5 -54.5l-6 -37q-12 -61 -74 -61h-286l-82 -471h344q34 0 50 -18.5t9 -53.5z" />
    <glyph glyph-name="Edieresis" unicode="&#xcb;" horiz-adv-x="780" 
d="M492 1751q34 0 50.5 -19.5t10.5 -54.5l-14 -69q-9 -62 -74 -62h-43q-34 0 -51 18.5t-11 53.5l13 72q11 61 73 61h46zM807 1751q35 0 51 -19.5t10 -54.5l-12 -69q-12 -62 -74 -62h-45q-34 0 -50.5 18.5t-10.5 53.5l14 72q9 61 74 61h43zM645 61q-9 -61 -72 -61h-475
q-34 0 -50.5 18.5t-10.5 53.5l229 1300q9 62 72 62h469q34 0 50.5 -19t10.5 -53l-6 -39q-12 -59 -74 -59h-350l-78 -451h275q34 0 50.5 -19.5t10.5 -54.5l-6 -37q-12 -61 -74 -61h-286l-82 -471h344q34 0 50 -18.5t9 -53.5z" />
    <glyph glyph-name="Igrave" unicode="&#xcc;" horiz-adv-x="438" 
d="M340 1823q58 0 76 -54l55 -151q12 -34 -0.5 -53t-44.5 -19h-23q-48 0 -75 43l-99 154q-21 35 -8 57.5t53 22.5h66zM236 61q-9 -61 -74 -61h-56q-34 0 -50.5 18.5t-10.5 53.5l229 1300q9 62 72 62h55q74 0 62 -72z" />
    <glyph glyph-name="Iacute" unicode="&#xcd;" horiz-adv-x="438" 
d="M467 1780q28 43 80 43h61q44 0 56 -25.5t-19 -56.5l-158 -162q-33 -33 -77 -33h-9q-39 0 -51.5 22t8.5 56zM236 61q-9 -61 -74 -61h-56q-34 0 -50.5 18.5t-10.5 53.5l229 1300q9 62 72 62h55q74 0 62 -72z" />
    <glyph glyph-name="Icircumflex" unicode="&#xce;" horiz-adv-x="438" 
d="M575 1546q35 0 48 21.5t-2 56.5l-68 148q-20 51 -78 51h-55q-49 0 -82 -39l-125 -154q-26 -34 -20 -59t40 -25h33q52 0 82 43l86 111l41 -98q20 -56 80 -56h20zM236 61q-9 -61 -74 -61h-56q-34 0 -50.5 18.5t-10.5 53.5l229 1300q9 62 72 62h55q74 0 62 -72z" />
    <glyph glyph-name="Idieresis" unicode="&#xcf;" horiz-adv-x="438" 
d="M297 1751q34 0 50.5 -19.5t10.5 -54.5l-14 -69q-9 -62 -74 -62h-43q-34 0 -50.5 18.5t-10.5 53.5l12 72q11 61 74 61h45zM612 1751q35 0 51.5 -19.5t10.5 -54.5l-12 -69q-12 -62 -74 -62h-45q-34 0 -51 18.5t-11 53.5l15 72q9 61 73 61h43zM236 61q-9 -61 -74 -61h-56
q-34 0 -50.5 18.5t-10.5 53.5l229 1300q9 62 72 62h55q74 0 62 -72z" />
    <glyph glyph-name="Eth" unicode="&#xd0;" horiz-adv-x="944" 
d="M651 1434q157 0 240 -76.5t55 -227.5l-145 -827q-28 -157 -125.5 -230t-276.5 -73h-280q-34 0 -51 18.5t-11 53.5l101 573h-25q-73 0 -61 72l6 35q9 61 74 61h36l99 559q9 62 71 62h293zM748 1094q17 92 -17 131t-119 39h-153l-78 -451h119q34 0 50.5 -18.5t10.5 -53.5
l-6 -34q-12 -62 -74 -62h-131l-82 -475h154q82 0 128.5 39t63.5 131z" />
    <glyph glyph-name="Ntilde" unicode="&#xd1;" horiz-adv-x="960" 
d="M500 1583q6 36 25 56t46 20q26 0 54.5 -17.5t51 -39t58.5 -39t74 -17.5q165 0 203 211q3 18 -6 28.5t-29 10.5h-57q-35 0 -41 -29q-6 -35 -24.5 -55t-47.5 -20q-24 0 -50.5 17.5t-47.5 38.5t-55.5 38.5t-73.5 17.5q-82 0 -136.5 -51.5t-72.5 -159.5q-6 -39 32 -39h56
q35 0 41 29zM213 61q-11 -61 -74 -61h-41q-34 0 -50.5 18.5t-10.5 53.5l229 1300q9 62 72 62h65q62 0 74 -62l180 -926l162 926q12 62 74 62h41q34 0 50.5 -18.5t10.5 -53.5l-229 -1301q-9 -61 -72 -61h-55q-65 0 -74 61l-184 959z" />
    <glyph glyph-name="Ograve" unicode="&#xd2;" horiz-adv-x="925" 
d="M584 1823q57 0 75 -54l56 -151q12 -34 -0.5 -53t-44.5 -19h-23q-49 0 -76 43l-98 154q-21 35 -8 57.5t53 22.5h66zM219 1147q28 159 125 231t277 72h16q156 0 239 -76t56 -227l-152 -860q-28 -158 -125 -230.5t-276 -72.5h-17q-157 0 -239.5 76t-54.5 227zM266 324
q-17 -92 16.5 -131t118.5 -39q83 0 129.5 39t63.5 131l139 786q15 93 -18 131.5t-117 38.5q-83 0 -130.5 -39t-61.5 -131z" />
    <glyph glyph-name="Oacute" unicode="&#xd3;" horiz-adv-x="925" 
d="M711 1780q28 43 80 43h61q44 0 56 -25.5t-19 -56.5l-158 -162q-33 -33 -78 -33h-8q-39 0 -51.5 22t8.5 56zM219 1147q28 159 125 231t277 72h16q156 0 239 -76t56 -227l-152 -860q-28 -158 -125 -230.5t-276 -72.5h-17q-157 0 -239.5 76t-54.5 227zM266 324
q-17 -92 16.5 -131t118.5 -39q83 0 129.5 39t63.5 131l139 786q15 93 -18 131.5t-117 38.5q-83 0 -130.5 -39t-61.5 -131z" />
    <glyph glyph-name="Ocircumflex" unicode="&#xd4;" horiz-adv-x="925" 
d="M819 1546q35 0 47.5 21.5t-2.5 56.5l-67 148q-20 51 -78 51h-55q-49 0 -82 -39l-125 -154q-26 -34 -20 -59t40 -25h33q52 0 82 43l86 111l41 -98q20 -56 80 -56h20zM219 1147q28 159 125 231t277 72h16q156 0 239 -76t56 -227l-152 -860q-28 -158 -125 -230.5t-276 -72.5
h-17q-157 0 -239.5 76t-54.5 227zM266 324q-17 -92 16.5 -131t118.5 -39q83 0 129.5 39t63.5 131l139 786q15 93 -18 131.5t-117 38.5q-83 0 -130.5 -39t-61.5 -131z" />
    <glyph glyph-name="Otilde" unicode="&#xd5;" horiz-adv-x="925" 
d="M477 1583q6 36 25.5 56t46.5 20q26 0 54.5 -17.5t51 -39t58 -39t73.5 -17.5q165 0 203 211q3 18 -6 28.5t-29 10.5h-57q-35 0 -41 -29q-6 -35 -24.5 -55t-47.5 -20q-24 0 -50.5 17.5t-47.5 38.5t-55.5 38.5t-73.5 17.5q-82 0 -136.5 -51.5t-72.5 -159.5q-6 -39 33 -39h55
q35 0 41 29zM219 1147q28 159 125 231t277 72h16q156 0 239 -76t56 -227l-152 -860q-28 -158 -125 -230.5t-276 -72.5h-17q-157 0 -239.5 76t-54.5 227zM266 324q-17 -92 16.5 -131t118.5 -39q83 0 129.5 39t63.5 131l139 786q15 93 -18 131.5t-117 38.5q-83 0 -130.5 -39
t-61.5 -131z" />
    <glyph glyph-name="Odieresis" unicode="&#xd6;" horiz-adv-x="925" 
d="M541 1751q34 0 50.5 -19.5t10.5 -54.5l-14 -69q-9 -62 -74 -62h-43q-34 0 -50.5 18.5t-10.5 53.5l12 72q11 61 74 61h45zM856 1751q35 0 51.5 -19.5t10.5 -54.5l-13 -69q-12 -62 -74 -62h-45q-34 0 -50.5 18.5t-10.5 53.5l14 72q9 61 74 61h43zM219 1147q28 159 125 231
t277 72h16q156 0 239 -76t56 -227l-152 -860q-28 -158 -125 -230.5t-276 -72.5h-17q-157 0 -239.5 76t-54.5 227zM266 324q-17 -92 16.5 -131t118.5 -39q83 0 129.5 39t63.5 131l139 786q15 93 -18 131.5t-117 38.5q-83 0 -130.5 -39t-61.5 -131z" />
    <glyph glyph-name="multiply" unicode="&#xd7;" horiz-adv-x="860" 
d="M748 967q39 -48 -7 -88l-172 -144l115 -139q42 -45 -6 -86l-25 -23q-48 -42 -88 11l-108 137l-172 -148q-43 -43 -86 7l-9 10q-40 46 9 88l170 143l-115 135q-37 46 6 86l25 23q46 40 88 -8l108 -137l172 147q46 43 86 -6z" />
    <glyph glyph-name="Oslash" unicode="&#xd8;" horiz-adv-x="925" 
d="M637 1450q156 0 239 -76t56 -227l-152 -860q-28 -158 -125 -230.5t-276 -72.5h-17q-157 0 -239.5 76t-54.5 227l151 860q28 159 125 231t277 72h16zM266 324q-6 -38 -6 -64l406 1012q-27 8 -68 8q-83 0 -130.5 -39t-61.5 -131zM733 1110q7 41 4 64l-403 -1012
q27 -8 67 -8q83 0 129.5 39t63.5 131z" />
    <glyph glyph-name="Ugrave" unicode="&#xd9;" 
d="M580 1823q57 0 75 -54l56 -151q12 -34 -0.5 -53t-44.5 -19h-23q-49 0 -76 43l-98 154q-21 35 -8 57.5t53 22.5h66zM895 1434q34 0 50.5 -18.5t10.5 -53.5l-188 -1075q-28 -160 -122.5 -231.5t-274.5 -71.5h-9q-158 0 -238.5 74t-51.5 229l190 1085q9 62 72 62h55
q74 0 62 -72l-181 -1038q-17 -93 13 -131.5t114 -38.5q81 0 124.5 38.5t60.5 131.5l184 1048q12 62 74 62h55z" />
    <glyph glyph-name="Uacute" unicode="&#xda;" 
d="M707 1780q28 43 79 43h62q44 0 56 -25.5t-19 -56.5l-158 -162q-33 -33 -78 -33h-8q-39 0 -51.5 22t8.5 56zM895 1434q34 0 50.5 -18.5t10.5 -53.5l-188 -1075q-28 -160 -122.5 -231.5t-274.5 -71.5h-9q-158 0 -238.5 74t-51.5 229l190 1085q9 62 72 62h55q74 0 62 -72
l-181 -1038q-17 -93 13 -131.5t114 -38.5q81 0 124.5 38.5t60.5 131.5l184 1048q12 62 74 62h55z" />
    <glyph glyph-name="Ucircumflex" unicode="&#xdb;" 
d="M815 1546q35 0 47.5 21.5t-2.5 56.5l-67 148q-20 51 -78 51h-56q-48 0 -81 -39l-125 -154q-26 -34 -20 -59t40 -25h33q52 0 82 43l86 111l41 -98q20 -56 80 -56h20zM895 1434q34 0 50.5 -18.5t10.5 -53.5l-188 -1075q-28 -160 -122.5 -231.5t-274.5 -71.5h-9
q-158 0 -238.5 74t-51.5 229l190 1085q9 62 72 62h55q74 0 62 -72l-181 -1038q-17 -93 13 -131.5t114 -38.5q81 0 124.5 38.5t60.5 131.5l184 1048q12 62 74 62h55z" />
    <glyph glyph-name="Udieresis" unicode="&#xdc;" 
d="M537 1751q34 0 50.5 -19.5t10.5 -54.5l-14 -69q-9 -62 -74 -62h-43q-34 0 -50.5 18.5t-10.5 53.5l12 72q11 61 74 61h45zM852 1751q35 0 51 -19.5t10 -54.5l-12 -69q-12 -62 -74 -62h-45q-34 0 -50.5 18.5t-10.5 53.5l14 72q9 61 74 61h43zM895 1434q34 0 50.5 -18.5
t10.5 -53.5l-188 -1075q-28 -160 -122.5 -231.5t-274.5 -71.5h-9q-158 0 -238.5 74t-51.5 229l190 1085q9 62 72 62h55q74 0 62 -72l-181 -1038q-17 -93 13 -131.5t114 -38.5q81 0 124.5 38.5t60.5 131.5l184 1048q12 62 74 62h55z" />
    <glyph glyph-name="Yacute" unicode="&#xdd;" horiz-adv-x="847" 
d="M672 1780q28 43 80 43h61q44 0 56 -25.5t-19 -56.5l-158 -162q-33 -33 -78 -33h-8q-39 0 -51.5 22t8.5 56zM522 528l-82 -467q-9 -61 -73 -61h-56q-34 0 -50 18.5t-9 53.5l78 456l-129 834q-5 34 11.5 53t51.5 19h58q65 0 71 -66l68 -627l293 641q24 52 80 52h57
q40 0 54 -23t-3 -57z" />
    <glyph glyph-name="Thorn" unicode="&#xde;" horiz-adv-x="882" 
d="M588 1159q156 0 239 -76t56 -227l-45 -256q-29 -158 -126 -230.5t-276 -72.5h-168l-41 -236q-9 -61 -73 -61h-56q-34 0 -50.5 18.5t-10.5 53.5l229 1300q9 62 72 62h55q36 0 53 -18.5t11 -53.5l-35 -203h166zM651 637l33 182q17 92 -16.5 130t-118.5 38h-158l-92 -518
h158q85 0 131 38t63 130z" />
    <glyph glyph-name="germandbls" unicode="&#xdf;" horiz-adv-x="1712" 
d="M854 989q-9 -61 -74 -61h-51q-73 0 -61 71l22 123q13 84 -18.5 122t-108.5 38q-155 0 -180 -160l-18 -98q-10 -64 6.5 -99t72.5 -71l170 -102q30 -19 51.5 -35t43.5 -36t34 -39.5t22.5 -45.5t9.5 -53.5t-5 -63.5l-37 -196q-28 -160 -120.5 -229.5t-272.5 -69.5h-4
q-76 0 -134.5 16.5t-99.5 51t-56 93.5t-1 138l31 182q12 61 76 61h51q73 0 61 -71l-24 -140q-13 -84 18.5 -123.5t108.5 -39.5q158 0 184 163l20 113q12 66 -7 103t-79 73l-166 103q-87 54 -126 118.5t-25 149.5l31 180q53 295 393 295h4q144 0 229 -74.5t58 -220.5z
M1710 989q-9 -61 -74 -61h-51q-73 0 -61 71l22 123q13 84 -18.5 122t-108.5 38q-155 0 -180 -160l-18 -98q-10 -64 6.5 -99t72.5 -71l170 -102q30 -19 51.5 -35t43.5 -36t34 -39.5t22.5 -45.5t9.5 -53.5t-5 -63.5l-37 -196q-28 -160 -120.5 -229.5t-272.5 -69.5h-4
q-76 0 -134.5 16.5t-99.5 51t-56 93.5t-1 138l31 182q12 61 76 61h51q73 0 61 -71l-24 -140q-13 -84 18.5 -123.5t108.5 -39.5q158 0 184 163l20 113q12 66 -7 103t-79 73l-165 103q-87 54 -126.5 118.5t-25.5 149.5l31 180q53 295 393 295h4q144 0 229 -74.5t58 -220.5z
" />
    <glyph glyph-name="agrave" unicode="&#xe0;" horiz-adv-x="868" 
d="M541 1589l-99 154q-21 35 -8 57.5t53 22.5h66q58 0 76 -54l55 -151q12 -34 -0.5 -53t-44.5 -19h-23q-48 0 -75 43zM715 1366l35 -1298q0 -68 -68 -68h-55q-68 0 -68 68l-2 270h-307l-100 -283q-18 -55 -78 -55h-52q-36 0 -50.5 22t-2.5 56l488 1302q22 54 77 54h113
q32 0 51 -18t19 -50zM307 500h250l-4 692z" />
    <glyph glyph-name="aacute" unicode="&#xe1;" horiz-adv-x="868" 
d="M821 1823q44 0 56 -25.5t-19 -56.5l-158 -162q-33 -33 -77 -33h-9q-39 0 -51.5 22t8.5 56l109 156q28 43 80 43h61zM645 1434q32 0 51 -18t19 -50l35 -1298q0 -68 -68 -68h-55q-68 0 -68 68l-2 270h-307l-100 -283q-18 -55 -78 -55h-52q-36 0 -50.5 22t-2.5 56l488 1302
q22 54 77 54h113zM307 500h250l-4 692z" />
    <glyph glyph-name="acircumflex" unicode="&#xe2;" horiz-adv-x="868" 
d="M834 1624q15 -35 2 -56.5t-48 -21.5h-20q-60 0 -80 56l-41 98l-86 -111q-30 -43 -82 -43h-33q-34 0 -40 25t20 59l125 154q33 39 82 39h55q58 0 78 -51zM645 1434q32 0 51 -18t19 -50l35 -1298q0 -68 -68 -68h-55q-68 0 -68 68l-2 270h-307l-100 -283q-18 -55 -78 -55
h-52q-36 0 -50.5 22t-2.5 56l488 1302q22 54 77 54h113zM307 500h250l-4 692z" />
    <glyph glyph-name="atilde" unicode="&#xe3;" horiz-adv-x="868" 
d="M924 1796q20 0 28.5 -10.5t5.5 -28.5q-38 -211 -202 -211q-38 0 -74 17.5t-58.5 39t-51 39t-54.5 17.5q-27 0 -46.5 -20t-25.5 -56q-6 -29 -40 -29h-56q-39 0 -33 39q18 108 72.5 159.5t136.5 51.5q39 0 73.5 -17.5t56 -38.5t48 -38.5t50.5 -17.5q28 0 46.5 20t24.5 55
q6 29 41 29h58zM645 1434q32 0 51 -18t19 -50l35 -1298q0 -68 -68 -68h-55q-68 0 -68 68l-2 270h-307l-100 -283q-18 -55 -78 -55h-52q-36 0 -50.5 22t-2.5 56l488 1302q22 54 77 54h113zM307 500h250l-4 692z" />
    <glyph glyph-name="adieresis" unicode="&#xe4;" horiz-adv-x="868" 
d="M440 1546q-34 0 -50.5 18.5t-10.5 53.5l12 72q11 61 74 61h45q34 0 50.5 -19.5t10.5 -54.5l-14 -69q-9 -62 -74 -62h-43zM825 1751q35 0 51.5 -19.5t10.5 -54.5l-13 -69q-12 -62 -73 -62h-45q-34 0 -51 18.5t-11 53.5l15 72q9 61 73 61h43zM645 1434q32 0 51 -18t19 -50
l35 -1298q0 -68 -68 -68h-55q-68 0 -68 68l-2 270h-307l-100 -283q-18 -55 -78 -55h-52q-36 0 -50.5 22t-2.5 56l488 1302q22 54 77 54h113zM307 500h250l-4 692z" />
    <glyph glyph-name="aring" unicode="&#xe5;" horiz-adv-x="868" 
d="M668 1849q70 0 113.5 -43t31.5 -114q-12 -75 -64 -116.5t-137 -41.5q-72 0 -115 43.5t-30 114.5q12 75 63.5 116t137.5 41zM711 1692q6 33 -10 51t-48 18t-55 -18t-29 -51t11 -50.5t49 -17.5t54 17.5t28 50.5zM645 1434q32 0 51 -18t19 -50l35 -1298q0 -68 -68 -68h-55
q-68 0 -68 68l-2 270h-307l-100 -283q-18 -55 -78 -55h-52q-36 0 -50.5 22t-2.5 56l488 1302q22 54 77 54h113zM307 500h250l-4 692z" />
    <glyph glyph-name="ae" unicode="&#xe6;" horiz-adv-x="1275" 
d="M1303 1434q34 0 50.5 -19t10.5 -53l-6 -39q-12 -59 -74 -59h-350l-78 -451h274q34 0 51 -19.5t11 -54.5l-6 -37q-12 -61 -74 -61h-287l-82 -471h344q35 0 51 -18.5t9 -53.5l-6 -37q-9 -61 -72 -61h-475q-34 0 -51 18.5t-11 53.5l48 264h-295l-135 -285q-20 -51 -80 -51
h-56q-38 0 -52 23t1 57l633 1302q24 52 80 52h135v-2q6 2 23 2h469zM362 500h246l135 764h-20z" />
    <glyph glyph-name="ccedilla" unicode="&#xe7;" horiz-adv-x="905" 
d="M625 1450q75 0 134.5 -18.5t100.5 -55t57.5 -95t2.5 -134.5l-35 -195q-9 -61 -74 -61h-55q-34 0 -51 18.5t-11 53.5l27 147q15 92 -16.5 131t-112.5 39t-126 -39.5t-60 -130.5l-140 -786q-17 -91 15 -130.5t114 -39.5q80 0 125 39t62 131l34 192q9 62 72 62h55
q36 0 53 -18.5t11 -53.5l-39 -219q-25 -145 -107 -217.5t-231 -83.5l-14 -84q-18 -102 -62 -141.5t-131 -39.5q-39 0 -69 9q-40 8 -43 55v14q0 56 49 56h43q31 0 45 11.5t20 43.5l15 80q-122 16 -181 89.5t-34 207.5l151 860q26 155 124.5 229t277.5 74h4z" />
    <glyph glyph-name="egrave" unicode="&#xe8;" horiz-adv-x="780" 
d="M535 1823q57 0 75 -54l56 -151q12 -34 -0.5 -53t-44.5 -19h-23q-49 0 -76 43l-98 154q-21 35 -8 57.5t53 22.5h66zM645 61q-9 -61 -72 -61h-475q-34 0 -50.5 18.5t-10.5 53.5l229 1300q9 62 72 62h469q34 0 50.5 -19t10.5 -53l-6 -39q-12 -59 -74 -59h-350l-78 -451h275
q34 0 50.5 -19.5t10.5 -54.5l-6 -37q-12 -61 -74 -61h-286l-82 -471h344q34 0 50 -18.5t9 -53.5z" />
    <glyph glyph-name="eacute" unicode="&#xe9;" horiz-adv-x="780" 
d="M662 1780q28 43 79 43h62q44 0 56 -25.5t-19 -56.5l-158 -162q-33 -33 -78 -33h-8q-39 0 -51.5 22t8.5 56zM645 61q-9 -61 -72 -61h-475q-34 0 -50.5 18.5t-10.5 53.5l229 1300q9 62 72 62h469q34 0 50.5 -19t10.5 -53l-6 -39q-12 -59 -74 -59h-350l-78 -451h275
q34 0 50.5 -19.5t10.5 -54.5l-6 -37q-12 -61 -74 -61h-286l-82 -471h344q34 0 50 -18.5t9 -53.5z" />
    <glyph glyph-name="ecircumflex" unicode="&#xea;" horiz-adv-x="780" 
d="M770 1546q35 0 47.5 21.5t-2.5 56.5l-67 148q-20 51 -78 51h-56q-49 0 -82 -39l-124 -154q-26 -34 -20 -59t40 -25h33q52 0 82 43l86 111l41 -98q20 -56 80 -56h20zM645 61q-9 -61 -72 -61h-475q-34 0 -50.5 18.5t-10.5 53.5l229 1300q9 62 72 62h469q34 0 50.5 -19
t10.5 -53l-6 -39q-12 -59 -74 -59h-350l-78 -451h275q34 0 50.5 -19.5t10.5 -54.5l-6 -37q-12 -61 -74 -61h-286l-82 -471h344q34 0 50 -18.5t9 -53.5z" />
    <glyph glyph-name="edieresis" unicode="&#xeb;" horiz-adv-x="780" 
d="M492 1751q34 0 50.5 -19.5t10.5 -54.5l-14 -69q-9 -62 -74 -62h-43q-34 0 -51 18.5t-11 53.5l13 72q11 61 73 61h46zM807 1751q35 0 51 -19.5t10 -54.5l-12 -69q-12 -62 -74 -62h-45q-34 0 -50.5 18.5t-10.5 53.5l14 72q9 61 74 61h43zM645 61q-9 -61 -72 -61h-475
q-34 0 -50.5 18.5t-10.5 53.5l229 1300q9 62 72 62h469q34 0 50.5 -19t10.5 -53l-6 -39q-12 -59 -74 -59h-350l-78 -451h275q34 0 50.5 -19.5t10.5 -54.5l-6 -37q-12 -61 -74 -61h-286l-82 -471h344q34 0 50 -18.5t9 -53.5z" />
    <glyph glyph-name="igrave" unicode="&#xec;" horiz-adv-x="438" 
d="M340 1823q58 0 76 -54l55 -151q12 -34 -0.5 -53t-44.5 -19h-23q-48 0 -75 43l-99 154q-21 35 -8 57.5t53 22.5h66zM236 61q-9 -61 -74 -61h-56q-34 0 -50.5 18.5t-10.5 53.5l229 1300q9 62 72 62h55q74 0 62 -72z" />
    <glyph glyph-name="iacute" unicode="&#xed;" horiz-adv-x="438" 
d="M467 1780q28 43 80 43h61q44 0 56 -25.5t-19 -56.5l-158 -162q-33 -33 -77 -33h-9q-39 0 -51.5 22t8.5 56zM236 61q-9 -61 -74 -61h-56q-34 0 -50.5 18.5t-10.5 53.5l229 1300q9 62 72 62h55q74 0 62 -72z" />
    <glyph glyph-name="icircumflex" unicode="&#xee;" horiz-adv-x="438" 
d="M575 1546q35 0 48 21.5t-2 56.5l-68 148q-20 51 -78 51h-55q-49 0 -82 -39l-125 -154q-26 -34 -20 -59t40 -25h33q52 0 82 43l86 111l41 -98q20 -56 80 -56h20zM236 61q-9 -61 -74 -61h-56q-34 0 -50.5 18.5t-10.5 53.5l229 1300q9 62 72 62h55q74 0 62 -72z" />
    <glyph glyph-name="idieresis" unicode="&#xef;" horiz-adv-x="438" 
d="M297 1751q34 0 50.5 -19.5t10.5 -54.5l-14 -69q-9 -62 -74 -62h-43q-34 0 -50.5 18.5t-10.5 53.5l12 72q11 61 74 61h45zM612 1751q35 0 51.5 -19.5t10.5 -54.5l-12 -69q-12 -62 -74 -62h-45q-34 0 -51 18.5t-11 53.5l15 72q9 61 73 61h43zM236 61q-9 -61 -74 -61h-56
q-34 0 -50.5 18.5t-10.5 53.5l229 1300q9 62 72 62h55q74 0 62 -72z" />
    <glyph glyph-name="eth" unicode="&#xf0;" horiz-adv-x="944" 
d="M651 1434q157 0 240 -76.5t55 -227.5l-145 -827q-28 -157 -125.5 -230t-276.5 -73h-280q-34 0 -51 18.5t-11 53.5l101 573h-25q-73 0 -61 72l6 35q9 61 74 61h36l99 559q9 62 71 62h293zM748 1094q17 92 -17 131t-119 39h-153l-78 -451h119q34 0 50.5 -18.5t10.5 -53.5
l-6 -34q-12 -62 -74 -62h-131l-82 -475h154q82 0 128.5 39t63.5 131z" />
    <glyph glyph-name="ntilde" unicode="&#xf1;" horiz-adv-x="960" 
d="M500 1583q6 36 25 56t46 20q26 0 54.5 -17.5t51 -39t58.5 -39t74 -17.5q165 0 203 211q3 18 -6 28.5t-29 10.5h-57q-35 0 -41 -29q-6 -35 -24.5 -55t-47.5 -20q-24 0 -50.5 17.5t-47.5 38.5t-55.5 38.5t-73.5 17.5q-82 0 -136.5 -51.5t-72.5 -159.5q-6 -39 32 -39h56
q35 0 41 29zM213 61q-11 -61 -74 -61h-41q-34 0 -50.5 18.5t-10.5 53.5l229 1300q9 62 72 62h65q62 0 74 -62l180 -926l162 926q12 62 74 62h41q34 0 50.5 -18.5t10.5 -53.5l-229 -1301q-9 -61 -72 -61h-55q-65 0 -74 61l-184 959z" />
    <glyph glyph-name="ograve" unicode="&#xf2;" horiz-adv-x="925" 
d="M584 1823q57 0 75 -54l56 -151q12 -34 -0.5 -53t-44.5 -19h-23q-49 0 -76 43l-98 154q-21 35 -8 57.5t53 22.5h66zM219 1147q28 159 125 231t277 72h16q156 0 239 -76t56 -227l-152 -860q-28 -158 -125 -230.5t-276 -72.5h-17q-157 0 -239.5 76t-54.5 227zM266 324
q-17 -92 16.5 -131t118.5 -39q83 0 129.5 39t63.5 131l139 786q15 93 -18 131.5t-117 38.5q-83 0 -130.5 -39t-61.5 -131z" />
    <glyph glyph-name="oacute" unicode="&#xf3;" horiz-adv-x="925" 
d="M711 1780q28 43 80 43h61q44 0 56 -25.5t-19 -56.5l-158 -162q-33 -33 -78 -33h-8q-39 0 -51.5 22t8.5 56zM219 1147q28 159 125 231t277 72h16q156 0 239 -76t56 -227l-152 -860q-28 -158 -125 -230.5t-276 -72.5h-17q-157 0 -239.5 76t-54.5 227zM266 324
q-17 -92 16.5 -131t118.5 -39q83 0 129.5 39t63.5 131l139 786q15 93 -18 131.5t-117 38.5q-83 0 -130.5 -39t-61.5 -131z" />
    <glyph glyph-name="ocircumflex" unicode="&#xf4;" horiz-adv-x="925" 
d="M819 1546q35 0 47.5 21.5t-2.5 56.5l-67 148q-20 51 -78 51h-55q-49 0 -82 -39l-125 -154q-26 -34 -20 -59t40 -25h33q52 0 82 43l86 111l41 -98q20 -56 80 -56h20zM219 1147q28 159 125 231t277 72h16q156 0 239 -76t56 -227l-152 -860q-28 -158 -125 -230.5t-276 -72.5
h-17q-157 0 -239.5 76t-54.5 227zM266 324q-17 -92 16.5 -131t118.5 -39q83 0 129.5 39t63.5 131l139 786q15 93 -18 131.5t-117 38.5q-83 0 -130.5 -39t-61.5 -131z" />
    <glyph glyph-name="otilde" unicode="&#xf5;" horiz-adv-x="925" 
d="M477 1583q6 36 25.5 56t46.5 20q26 0 54.5 -17.5t51 -39t58 -39t73.5 -17.5q165 0 203 211q3 18 -6 28.5t-29 10.5h-57q-35 0 -41 -29q-6 -35 -24.5 -55t-47.5 -20q-24 0 -50.5 17.5t-47.5 38.5t-55.5 38.5t-73.5 17.5q-82 0 -136.5 -51.5t-72.5 -159.5q-6 -39 33 -39h55
q35 0 41 29zM219 1147q28 159 125 231t277 72h16q156 0 239 -76t56 -227l-152 -860q-28 -158 -125 -230.5t-276 -72.5h-17q-157 0 -239.5 76t-54.5 227zM266 324q-17 -92 16.5 -131t118.5 -39q83 0 129.5 39t63.5 131l139 786q15 93 -18 131.5t-117 38.5q-83 0 -130.5 -39
t-61.5 -131z" />
    <glyph glyph-name="odieresis" unicode="&#xf6;" horiz-adv-x="925" 
d="M541 1751q34 0 50.5 -19.5t10.5 -54.5l-14 -69q-9 -62 -74 -62h-43q-34 0 -50.5 18.5t-10.5 53.5l12 72q11 61 74 61h45zM856 1751q35 0 51.5 -19.5t10.5 -54.5l-13 -69q-12 -62 -74 -62h-45q-34 0 -50.5 18.5t-10.5 53.5l14 72q9 61 74 61h43zM219 1147q28 159 125 231
t277 72h16q156 0 239 -76t56 -227l-152 -860q-28 -158 -125 -230.5t-276 -72.5h-17q-157 0 -239.5 76t-54.5 227zM266 324q-17 -92 16.5 -131t118.5 -39q83 0 129.5 39t63.5 131l139 786q15 93 -18 131.5t-117 38.5q-83 0 -130.5 -39t-61.5 -131z" />
    <glyph glyph-name="divide" unicode="&#xf7;" horiz-adv-x="860" 
d="M567 1190q34 0 51 -18.5t11 -53.5l-13 -61q-9 -62 -73 -62h-43q-74 0 -62 72l13 63q9 60 71 60h45zM741 807q34 0 51 -18.5t11 -53.5l-2 -12q-11 -61 -74 -61h-528q-74 0 -62 71l2 12q9 62 72 62h530zM440 473q34 0 51 -18.5t11 -53.5l-13 -61q-11 -61 -73 -61h-43
q-74 0 -62 71l13 62q9 61 71 61h45z" />
    <glyph glyph-name="oslash" unicode="&#xf8;" horiz-adv-x="925" 
d="M637 1450q156 0 239 -76t56 -227l-152 -860q-28 -158 -125 -230.5t-276 -72.5h-17q-157 0 -239.5 76t-54.5 227l151 860q28 159 125 231t277 72h16zM266 324q-6 -38 -6 -64l406 1012q-27 8 -68 8q-83 0 -130.5 -39t-61.5 -131zM733 1110q7 41 4 64l-403 -1012
q27 -8 67 -8q83 0 129.5 39t63.5 131z" />
    <glyph glyph-name="ugrave" unicode="&#xf9;" 
d="M580 1823q57 0 75 -54l56 -151q12 -34 -0.5 -53t-44.5 -19h-23q-49 0 -76 43l-98 154q-21 35 -8 57.5t53 22.5h66zM895 1434q34 0 50.5 -18.5t10.5 -53.5l-188 -1075q-28 -160 -122.5 -231.5t-274.5 -71.5h-9q-158 0 -238.5 74t-51.5 229l190 1085q9 62 72 62h55
q74 0 62 -72l-181 -1038q-17 -93 13 -131.5t114 -38.5q81 0 124.5 38.5t60.5 131.5l184 1048q12 62 74 62h55z" />
    <glyph glyph-name="uacute" unicode="&#xfa;" 
d="M707 1780q28 43 79 43h62q44 0 56 -25.5t-19 -56.5l-158 -162q-33 -33 -78 -33h-8q-39 0 -51.5 22t8.5 56zM895 1434q34 0 50.5 -18.5t10.5 -53.5l-188 -1075q-28 -160 -122.5 -231.5t-274.5 -71.5h-9q-158 0 -238.5 74t-51.5 229l190 1085q9 62 72 62h55q74 0 62 -72
l-181 -1038q-17 -93 13 -131.5t114 -38.5q81 0 124.5 38.5t60.5 131.5l184 1048q12 62 74 62h55z" />
    <glyph glyph-name="ucircumflex" unicode="&#xfb;" 
d="M815 1546q35 0 47.5 21.5t-2.5 56.5l-67 148q-20 51 -78 51h-56q-48 0 -81 -39l-125 -154q-26 -34 -20 -59t40 -25h33q52 0 82 43l86 111l41 -98q20 -56 80 -56h20zM895 1434q34 0 50.5 -18.5t10.5 -53.5l-188 -1075q-28 -160 -122.5 -231.5t-274.5 -71.5h-9
q-158 0 -238.5 74t-51.5 229l190 1085q9 62 72 62h55q74 0 62 -72l-181 -1038q-17 -93 13 -131.5t114 -38.5q81 0 124.5 38.5t60.5 131.5l184 1048q12 62 74 62h55z" />
    <glyph glyph-name="udieresis" unicode="&#xfc;" 
d="M537 1751q34 0 50.5 -19.5t10.5 -54.5l-14 -69q-9 -62 -74 -62h-43q-34 0 -50.5 18.5t-10.5 53.5l12 72q11 61 74 61h45zM852 1751q35 0 51 -19.5t10 -54.5l-12 -69q-12 -62 -74 -62h-45q-34 0 -50.5 18.5t-10.5 53.5l14 72q9 61 74 61h43zM895 1434q34 0 50.5 -18.5
t10.5 -53.5l-188 -1075q-28 -160 -122.5 -231.5t-274.5 -71.5h-9q-158 0 -238.5 74t-51.5 229l190 1085q9 62 72 62h55q74 0 62 -72l-181 -1038q-17 -93 13 -131.5t114 -38.5q81 0 124.5 38.5t60.5 131.5l184 1048q12 62 74 62h55z" />
    <glyph glyph-name="yacute" unicode="&#xfd;" horiz-adv-x="847" 
d="M672 1780q28 43 80 43h61q44 0 56 -25.5t-19 -56.5l-158 -162q-33 -33 -78 -33h-8q-39 0 -51.5 22t8.5 56zM522 528l-82 -467q-9 -61 -73 -61h-56q-34 0 -50 18.5t-9 53.5l78 456l-129 834q-5 34 11.5 53t51.5 19h58q65 0 71 -66l68 -627l293 641q24 52 80 52h57
q40 0 54 -23t-3 -57z" />
    <glyph glyph-name="thorn" unicode="&#xfe;" horiz-adv-x="882" 
d="M588 1159q156 0 239 -76t56 -227l-45 -256q-29 -158 -126 -230.5t-276 -72.5h-168l-41 -236q-9 -61 -73 -61h-56q-34 0 -50.5 18.5t-10.5 53.5l229 1300q9 62 72 62h55q36 0 53 -18.5t11 -53.5l-35 -203h166zM651 637l33 182q17 92 -16.5 130t-118.5 38h-158l-92 -518
h158q85 0 131 38t63 130z" />
    <glyph glyph-name="ydieresis" unicode="&#xff;" horiz-adv-x="847" 
d="M502 1751q34 0 50.5 -19.5t10.5 -54.5l-14 -69q-9 -62 -74 -62h-43q-34 0 -50.5 18.5t-10.5 53.5l12 72q11 61 74 61h45zM817 1751q35 0 51.5 -19.5t10.5 -54.5l-13 -69q-12 -62 -73 -62h-45q-34 0 -51 18.5t-11 53.5l14 72q9 61 74 61h43zM522 528l-82 -467
q-9 -61 -73 -61h-56q-34 0 -50 18.5t-9 53.5l78 456l-129 834q-5 34 11.5 53t51.5 19h58q65 0 71 -66l68 -627l293 641q24 52 80 52h57q40 0 54 -23t-3 -57z" />
    <glyph glyph-name="Amacron" unicode="&#x100;" horiz-adv-x="868" 
d="M805 1722q33 0 49 -19t10 -52l-4 -25q-9 -59 -72 -59h-327q-35 0 -51 18.5t-9 52.5l2 23q9 61 72 61h330zM645 1434q32 0 51 -18t19 -50l35 -1298q0 -68 -68 -68h-55q-68 0 -68 68l-2 270h-307l-100 -283q-18 -55 -78 -55h-52q-36 0 -50.5 22t-2.5 56l488 1302
q22 54 77 54h113zM307 500h250l-4 692z" />
    <glyph glyph-name="amacron" unicode="&#x101;" horiz-adv-x="868" 
d="M805 1722q33 0 49 -19t10 -52l-4 -25q-9 -59 -72 -59h-327q-35 0 -51 18.5t-9 52.5l2 23q9 61 72 61h330zM645 1434q32 0 51 -18t19 -50l35 -1298q0 -68 -68 -68h-55q-68 0 -68 68l-2 270h-307l-100 -283q-18 -55 -78 -55h-52q-36 0 -50.5 22t-2.5 56l488 1302
q22 54 77 54h113zM307 500h250l-4 692z" />
    <glyph glyph-name="Abreve" unicode="&#x102;" horiz-adv-x="868" 
d="M821 1804q58 0 49 -55l-8 -45q-29 -160 -235 -160h-25q-91 0 -141.5 41t-36.5 121l8 51q6 47 57 47h39q27 0 40.5 -14t9.5 -41l-3 -14q-12 -70 56 -70h8q70 0 82 70l4 22q9 47 55 47h41zM645 1434q32 0 51 -18t19 -50l35 -1298q0 -68 -68 -68h-55q-68 0 -68 68l-2 270
h-307l-100 -283q-18 -55 -78 -55h-52q-36 0 -50.5 22t-2.5 56l488 1302q22 54 77 54h113zM307 500h250l-4 692z" />
    <glyph glyph-name="abreve" unicode="&#x103;" horiz-adv-x="868" 
d="M821 1804q58 0 49 -55l-8 -45q-29 -160 -235 -160h-25q-91 0 -141.5 41t-36.5 121l8 51q6 47 57 47h39q27 0 40.5 -14t9.5 -41l-3 -14q-12 -70 56 -70h8q70 0 82 70l4 22q9 47 55 47h41zM645 1434q32 0 51 -18t19 -50l35 -1298q0 -68 -68 -68h-55q-68 0 -68 68l-2 270
h-307l-100 -283q-18 -55 -78 -55h-52q-36 0 -50.5 22t-2.5 56l488 1302q22 54 77 54h113zM307 500h250l-4 692z" />
    <glyph glyph-name="Aogonek" unicode="&#x104;" horiz-adv-x="868" 
d="M715 1366l35 -1298q0 -68 -68 -68q-88 -38 -119 -105q-25 -54 6 -83q17 -15 45 -15h15q21 3 29.5 -2.5t7.5 -23.5l-7 -31q-7 -30 -26 -39q-47 -27 -101 -27q-83 0 -115 60.5t7.5 145.5t144.5 145q-10 20 -10 43l-2 270h-307l-100 -283q-18 -55 -78 -55h-52
q-36 0 -50.5 22t-2.5 56l488 1302q22 54 77 54h113q32 0 51 -18t19 -50zM307 500h250l-4 692z" />
    <glyph glyph-name="aogonek" unicode="&#x105;" horiz-adv-x="868" 
d="M715 1366l35 -1298q0 -68 -68 -68q-88 -38 -119 -105q-25 -54 6 -83q17 -15 45 -15h15q21 3 29.5 -2.5t7.5 -23.5l-7 -31q-7 -30 -26 -39q-47 -27 -101 -27q-83 0 -115 60.5t7.5 145.5t144.5 145q-10 20 -10 43l-2 270h-307l-100 -283q-18 -55 -78 -55h-52
q-36 0 -50.5 22t-2.5 56l488 1302q22 54 77 54h113q32 0 51 -18t19 -50zM307 500h250l-4 692z" />
    <glyph glyph-name="Cacute" unicode="&#x106;" horiz-adv-x="905" 
d="M705 1780q28 43 79 43h62q44 0 56 -25.5t-19 -56.5l-158 -162q-33 -33 -78 -33h-8q-39 0 -51.5 22t8.5 56zM743 578q36 0 53 -18.5t11 -53.5l-39 -219q-27 -160 -124 -231.5t-277 -71.5h-5q-158 0 -240.5 74t-53.5 229l151 860q26 155 124.5 229t277.5 74h4
q75 0 134.5 -18.5t100.5 -55t57.5 -95t2.5 -134.5l-35 -195q-9 -61 -74 -61h-55q-34 0 -51 18.5t-11 53.5l27 147q15 92 -16.5 131t-112.5 39t-126 -39.5t-60 -130.5l-140 -786q-17 -91 15 -130.5t114 -39.5q80 0 125 39t62 131l34 192q9 62 72 62h55z" />
    <glyph glyph-name="cacute" unicode="&#x107;" horiz-adv-x="905" 
d="M705 1780q28 43 79 43h62q44 0 56 -25.5t-19 -56.5l-158 -162q-33 -33 -78 -33h-8q-39 0 -51.5 22t8.5 56zM743 578q36 0 53 -18.5t11 -53.5l-39 -219q-27 -160 -124 -231.5t-277 -71.5h-5q-158 0 -240.5 74t-53.5 229l151 860q26 155 124.5 229t277.5 74h4
q75 0 134.5 -18.5t100.5 -55t57.5 -95t2.5 -134.5l-35 -195q-9 -61 -74 -61h-55q-34 0 -51 18.5t-11 53.5l27 147q15 92 -16.5 131t-112.5 39t-126 -39.5t-60 -130.5l-140 -786q-17 -91 15 -130.5t114 -39.5q80 0 125 39t62 131l34 192q9 62 72 62h55z" />
    <glyph glyph-name="Cdotaccent" unicode="&#x10a;" horiz-adv-x="905" 
d="M692 1751q34 0 51 -19.5t11 -54.5l-15 -69q-9 -62 -71 -62h-45q-34 0 -51 18.5t-11 53.5l14 72q9 61 72 61h45zM743 578q36 0 53 -18.5t11 -53.5l-39 -219q-27 -160 -124 -231.5t-277 -71.5h-5q-158 0 -240.5 74t-53.5 229l151 860q26 155 124.5 229t277.5 74h4
q75 0 134.5 -18.5t100.5 -55t57.5 -95t2.5 -134.5l-35 -195q-9 -61 -74 -61h-55q-34 0 -51 18.5t-11 53.5l27 147q15 92 -16.5 131t-112.5 39t-126 -39.5t-60 -130.5l-140 -786q-17 -91 15 -130.5t114 -39.5q80 0 125 39t62 131l34 192q9 62 72 62h55z" />
    <glyph glyph-name="cdotaccent" unicode="&#x10b;" horiz-adv-x="905" 
d="M692 1751q34 0 51 -19.5t11 -54.5l-15 -69q-9 -62 -71 -62h-45q-34 0 -51 18.5t-11 53.5l14 72q9 61 72 61h45zM743 578q36 0 53 -18.5t11 -53.5l-39 -219q-27 -160 -124 -231.5t-277 -71.5h-5q-158 0 -240.5 74t-53.5 229l151 860q26 155 124.5 229t277.5 74h4
q75 0 134.5 -18.5t100.5 -55t57.5 -95t2.5 -134.5l-35 -195q-9 -61 -74 -61h-55q-34 0 -51 18.5t-11 53.5l27 147q15 92 -16.5 131t-112.5 39t-126 -39.5t-60 -130.5l-140 -786q-17 -91 15 -130.5t114 -39.5q80 0 125 39t62 131l34 192q9 62 72 62h55z" />
    <glyph glyph-name="Ccaron" unicode="&#x10c;" horiz-adv-x="905" 
d="M874 1741q26 34 21 58t-39 24h-35q-54 0 -82 -43l-84 -111l-43 100q-18 54 -77 54h-15q-38 0 -52.5 -21.5t-0.5 -56.5l70 -148q20 -51 77 -51h56q49 0 82 41zM743 578q36 0 53 -18.5t11 -53.5l-39 -219q-27 -160 -124 -231.5t-277 -71.5h-5q-158 0 -240.5 74t-53.5 229
l151 860q26 155 124.5 229t277.5 74h4q75 0 134.5 -18.5t100.5 -55t57.5 -95t2.5 -134.5l-35 -195q-9 -61 -74 -61h-55q-34 0 -51 18.5t-11 53.5l27 147q15 92 -16.5 131t-112.5 39t-126 -39.5t-60 -130.5l-140 -786q-17 -91 15 -130.5t114 -39.5q80 0 125 39t62 131l34 192
q9 62 72 62h55z" />
    <glyph glyph-name="ccaron" unicode="&#x10d;" horiz-adv-x="905" 
d="M874 1741q26 34 21 58t-39 24h-35q-54 0 -82 -43l-84 -111l-43 100q-18 54 -77 54h-15q-38 0 -52.5 -21.5t-0.5 -56.5l70 -148q20 -51 77 -51h56q49 0 82 41zM743 578q36 0 53 -18.5t11 -53.5l-39 -219q-27 -160 -124 -231.5t-277 -71.5h-5q-158 0 -240.5 74t-53.5 229
l151 860q26 155 124.5 229t277.5 74h4q75 0 134.5 -18.5t100.5 -55t57.5 -95t2.5 -134.5l-35 -195q-9 -61 -74 -61h-55q-34 0 -51 18.5t-11 53.5l27 147q15 92 -16.5 131t-112.5 39t-126 -39.5t-60 -130.5l-140 -786q-17 -91 15 -130.5t114 -39.5q80 0 125 39t62 131l34 192
q9 62 72 62h55z" />
    <glyph glyph-name="Dcaron" unicode="&#x10e;" horiz-adv-x="923" 
d="M868 1741q26 34 21 58t-39 24h-35q-54 0 -82 -43l-84 -111l-43 100q-18 54 -78 54h-14q-38 0 -52.5 -21.5t-0.5 -56.5l69 -148q20 -51 78 -51h56q48 0 81 41zM631 1434q157 0 240 -76.5t55 -227.5l-146 -827q-28 -158 -125 -230.5t-276 -72.5h-281q-34 0 -50.5 18.5
t-10.5 53.5l229 1300q9 62 72 62h293zM727 1094q17 92 -16.5 131t-118.5 39h-154l-190 -1094h153q83 0 129.5 39t63.5 131z" />
    <glyph glyph-name="dcaron" unicode="&#x10f;" horiz-adv-x="923" 
d="M868 1741q26 34 21 58t-39 24h-35q-54 0 -82 -43l-84 -111l-43 100q-18 54 -78 54h-14q-38 0 -52.5 -21.5t-0.5 -56.5l69 -148q20 -51 78 -51h56q48 0 81 41zM631 1434q157 0 240 -76.5t55 -227.5l-146 -827q-28 -158 -125 -230.5t-276 -72.5h-281q-34 0 -50.5 18.5
t-10.5 53.5l229 1300q9 62 72 62h293zM727 1094q17 92 -16.5 131t-118.5 39h-154l-190 -1094h153q83 0 129.5 39t63.5 131z" />
    <glyph glyph-name="Dcroat" unicode="&#x110;" horiz-adv-x="944" 
d="M651 1434q157 0 240 -76.5t55 -227.5l-145 -827q-28 -157 -125.5 -230t-276.5 -73h-280q-34 0 -51 18.5t-11 53.5l101 573h-25q-73 0 -61 72l6 35q9 61 74 61h36l99 559q9 62 71 62h293zM748 1094q17 92 -17 131t-119 39h-153l-78 -451h119q34 0 50.5 -18.5t10.5 -53.5
l-6 -34q-12 -62 -74 -62h-131l-82 -475h154q82 0 128.5 39t63.5 131z" />
    <glyph glyph-name="dcroat" unicode="&#x111;" horiz-adv-x="944" 
d="M651 1434q157 0 240 -76.5t55 -227.5l-145 -827q-28 -157 -125.5 -230t-276.5 -73h-280q-34 0 -51 18.5t-11 53.5l101 573h-25q-73 0 -61 72l6 35q9 61 74 61h36l99 559q9 62 71 62h293zM748 1094q17 92 -17 131t-119 39h-153l-78 -451h119q34 0 50.5 -18.5t10.5 -53.5
l-6 -34q-12 -62 -74 -62h-131l-82 -475h154q82 0 128.5 39t63.5 131z" />
    <glyph glyph-name="Emacron" unicode="&#x112;" horiz-adv-x="780" 
d="M842 1626q-9 -59 -72 -59h-328q-35 0 -50.5 18t-8.5 53l2 23q9 61 72 61h329q33 0 49.5 -19t10.5 -52zM645 61q-9 -61 -72 -61h-475q-34 0 -50.5 18.5t-10.5 53.5l229 1300q9 62 72 62h469q34 0 50.5 -19t10.5 -53l-6 -39q-12 -59 -74 -59h-350l-78 -451h275
q34 0 50.5 -19.5t10.5 -54.5l-6 -37q-12 -61 -74 -61h-286l-82 -471h344q34 0 50 -18.5t9 -53.5z" />
    <glyph glyph-name="emacron" unicode="&#x113;" horiz-adv-x="780" 
d="M842 1626q-9 -59 -72 -59h-328q-35 0 -50.5 18t-8.5 53l2 23q9 61 72 61h329q33 0 49.5 -19t10.5 -52zM645 61q-9 -61 -72 -61h-475q-34 0 -50.5 18.5t-10.5 53.5l229 1300q9 62 72 62h469q34 0 50.5 -19t10.5 -53l-6 -39q-12 -59 -74 -59h-350l-78 -451h275
q34 0 50.5 -19.5t10.5 -54.5l-6 -37q-12 -61 -74 -61h-286l-82 -471h344q34 0 50 -18.5t9 -53.5z" />
    <glyph glyph-name="Ebreve" unicode="&#x114;" horiz-adv-x="780" 
d="M803 1804q58 0 49 -55l-8 -45q-29 -160 -236 -160h-24q-91 0 -141.5 41t-36.5 121l8 51q6 47 57 47h39q58 0 49 -55l-2 -14q-12 -70 55 -70h9q69 0 81 70l5 22q9 47 55 47h41zM645 61q-9 -61 -72 -61h-475q-34 0 -50.5 18.5t-10.5 53.5l229 1300q9 62 72 62h469
q34 0 50.5 -19t10.5 -53l-6 -39q-12 -59 -74 -59h-350l-78 -451h275q34 0 50.5 -19.5t10.5 -54.5l-6 -37q-12 -61 -74 -61h-286l-82 -471h344q34 0 50 -18.5t9 -53.5z" />
    <glyph glyph-name="ebreve" unicode="&#x115;" horiz-adv-x="780" 
d="M803 1804q58 0 49 -55l-8 -45q-29 -160 -236 -160h-24q-91 0 -141.5 41t-36.5 121l8 51q6 47 57 47h39q58 0 49 -55l-2 -14q-12 -70 55 -70h9q69 0 81 70l5 22q9 47 55 47h41zM645 61q-9 -61 -72 -61h-475q-34 0 -50.5 18.5t-10.5 53.5l229 1300q9 62 72 62h469
q34 0 50.5 -19t10.5 -53l-6 -39q-12 -59 -74 -59h-350l-78 -451h275q34 0 50.5 -19.5t10.5 -54.5l-6 -37q-12 -61 -74 -61h-286l-82 -471h344q34 0 50 -18.5t9 -53.5z" />
    <glyph glyph-name="Edotaccent" unicode="&#x116;" horiz-adv-x="780" 
d="M649 1751q34 0 51 -19.5t11 -54.5l-15 -69q-9 -62 -71 -62h-45q-34 0 -51 18.5t-11 53.5l14 72q9 61 72 61h45zM645 61q-9 -61 -72 -61h-475q-34 0 -50.5 18.5t-10.5 53.5l229 1300q9 62 72 62h469q34 0 50.5 -19t10.5 -53l-6 -39q-12 -59 -74 -59h-350l-78 -451h275
q34 0 50.5 -19.5t10.5 -54.5l-6 -37q-12 -61 -74 -61h-286l-82 -471h344q34 0 50 -18.5t9 -53.5z" />
    <glyph glyph-name="edotaccent" unicode="&#x117;" horiz-adv-x="780" 
d="M649 1751q34 0 51 -19.5t11 -54.5l-15 -69q-9 -62 -71 -62h-45q-34 0 -51 18.5t-11 53.5l14 72q9 61 72 61h45zM645 61q-9 -61 -72 -61h-475q-34 0 -50.5 18.5t-10.5 53.5l229 1300q9 62 72 62h469q34 0 50.5 -19t10.5 -53l-6 -39q-12 -59 -74 -59h-350l-78 -451h275
q34 0 50.5 -19.5t10.5 -54.5l-6 -37q-12 -61 -74 -61h-286l-82 -471h344q34 0 50 -18.5t9 -53.5z" />
    <glyph glyph-name="Eogonek" unicode="&#x118;" horiz-adv-x="780" 
d="M807 1434q34 0 50.5 -19t10.5 -53l-6 -39q-12 -59 -74 -59h-350l-78 -451h275q34 0 50.5 -19.5t10.5 -54.5l-6 -37q-12 -61 -74 -61h-286l-82 -471h344q34 0 50 -18.5t9 -53.5l-6 -37q-9 -61 -72 -61h-2q-88 -38 -119 -105q-24 -53 6 -82q16 -16 46 -16h14
q21 3 29.5 -2.5t7.5 -23.5l-6 -31q-7 -29 -27 -39q-47 -27 -100 -27q-46 0 -78 21t-42 56.5t-3.5 77t38.5 87.5t83 84h-322q-34 0 -50.5 18.5t-10.5 53.5l229 1300q9 62 72 62h469z" />
    <glyph glyph-name="eogonek" unicode="&#x119;" horiz-adv-x="780" 
d="M807 1434q34 0 50.5 -19t10.5 -53l-6 -39q-12 -59 -74 -59h-350l-78 -451h275q34 0 50.5 -19.5t10.5 -54.5l-6 -37q-12 -61 -74 -61h-286l-82 -471h344q34 0 50 -18.5t9 -53.5l-6 -37q-9 -61 -72 -61h-2q-88 -38 -119 -105q-24 -53 6 -82q16 -16 46 -16h14
q21 3 29.5 -2.5t7.5 -23.5l-6 -31q-7 -29 -27 -39q-47 -27 -100 -27q-46 0 -78 21t-42 56.5t-3.5 77t38.5 87.5t83 84h-322q-34 0 -50.5 18.5t-10.5 53.5l229 1300q9 62 72 62h469z" />
    <glyph glyph-name="Ecaron" unicode="&#x11a;" horiz-adv-x="780" 
d="M831 1741q26 34 21 58t-39 24h-35q-54 0 -82 -43l-84 -111l-43 100q-18 54 -77 54h-15q-38 0 -52.5 -21.5t-0.5 -56.5l70 -148q20 -51 77 -51h56q49 0 82 41zM645 61q-9 -61 -72 -61h-475q-34 0 -50.5 18.5t-10.5 53.5l229 1300q9 62 72 62h469q34 0 50.5 -19t10.5 -53
l-6 -39q-12 -59 -74 -59h-350l-78 -451h275q34 0 50.5 -19.5t10.5 -54.5l-6 -37q-12 -61 -74 -61h-286l-82 -471h344q34 0 50 -18.5t9 -53.5z" />
    <glyph glyph-name="ecaron" unicode="&#x11b;" horiz-adv-x="780" 
d="M831 1741q26 34 21 58t-39 24h-35q-54 0 -82 -43l-84 -111l-43 100q-18 54 -77 54h-15q-38 0 -52.5 -21.5t-0.5 -56.5l70 -148q20 -51 77 -51h56q49 0 82 41zM645 61q-9 -61 -72 -61h-475q-34 0 -50.5 18.5t-10.5 53.5l229 1300q9 62 72 62h469q34 0 50.5 -19t10.5 -53
l-6 -39q-12 -59 -74 -59h-350l-78 -451h275q34 0 50.5 -19.5t10.5 -54.5l-6 -37q-12 -61 -74 -61h-286l-82 -471h344q34 0 50 -18.5t9 -53.5z" />
    <glyph glyph-name="Gbreve" unicode="&#x11e;" horiz-adv-x="921" 
d="M852 1804q58 0 49 -55l-8 -45q-29 -160 -236 -160h-24q-91 0 -141.5 41t-36.5 121l8 51q6 47 57 47h39q58 0 49 -55l-2 -14q-12 -70 56 -70h8q70 0 82 70l4 22q9 47 55 47h41zM782 727q36 0 53 -18.5t11 -53.5l-66 -368q-27 -160 -124 -231.5t-277 -71.5h-17
q-158 0 -240.5 74t-53.5 229l151 860q26 155 124.5 229t277.5 74h16q75 0 134.5 -18.5t100.5 -55t57.5 -95t2.5 -134.5l-23 -137q-12 -62 -75 -62h-56q-34 0 -50.5 18.5t-10.5 53.5l16 90q15 93 -18 131.5t-117 38.5q-83 0 -130.5 -39t-61.5 -131l-140 -786
q-17 -92 16.5 -131t118.5 -39q83 0 129.5 39t63.5 131l43 239h-98q-74 0 -62 72l4 33q12 59 74 59h227z" />
    <glyph glyph-name="gbreve" unicode="&#x11f;" horiz-adv-x="921" 
d="M852 1804q58 0 49 -55l-8 -45q-29 -160 -236 -160h-24q-91 0 -141.5 41t-36.5 121l8 51q6 47 57 47h39q58 0 49 -55l-2 -14q-12 -70 56 -70h8q70 0 82 70l4 22q9 47 55 47h41zM782 727q36 0 53 -18.5t11 -53.5l-66 -368q-27 -160 -124 -231.5t-277 -71.5h-17
q-158 0 -240.5 74t-53.5 229l151 860q26 155 124.5 229t277.5 74h16q75 0 134.5 -18.5t100.5 -55t57.5 -95t2.5 -134.5l-23 -137q-12 -62 -75 -62h-56q-34 0 -50.5 18.5t-10.5 53.5l16 90q15 93 -18 131.5t-117 38.5q-83 0 -130.5 -39t-61.5 -131l-140 -786
q-17 -92 16.5 -131t118.5 -39q83 0 129.5 39t63.5 131l43 239h-98q-74 0 -62 72l4 33q12 59 74 59h227z" />
    <glyph glyph-name="Gdotaccent" unicode="&#x120;" horiz-adv-x="921" 
d="M698 1751q34 0 51 -19.5t11 -54.5l-15 -69q-9 -62 -71 -62h-45q-34 0 -51 18.5t-11 53.5l15 72q9 61 71 61h45zM782 727q36 0 53 -18.5t11 -53.5l-66 -368q-27 -160 -124 -231.5t-277 -71.5h-17q-158 0 -240.5 74t-53.5 229l151 860q26 155 124.5 229t277.5 74h16
q75 0 134.5 -18.5t100.5 -55t57.5 -95t2.5 -134.5l-23 -137q-12 -62 -75 -62h-56q-34 0 -50.5 18.5t-10.5 53.5l16 90q15 93 -18 131.5t-117 38.5q-83 0 -130.5 -39t-61.5 -131l-140 -786q-17 -92 16.5 -131t118.5 -39q83 0 129.5 39t63.5 131l43 239h-98q-74 0 -62 72l4 33
q12 59 74 59h227z" />
    <glyph glyph-name="gdotaccent" unicode="&#x121;" horiz-adv-x="921" 
d="M698 1751q34 0 51 -19.5t11 -54.5l-15 -69q-9 -62 -71 -62h-45q-34 0 -51 18.5t-11 53.5l15 72q9 61 71 61h45zM782 727q36 0 53 -18.5t11 -53.5l-66 -368q-27 -160 -124 -231.5t-277 -71.5h-17q-158 0 -240.5 74t-53.5 229l151 860q26 155 124.5 229t277.5 74h16
q75 0 134.5 -18.5t100.5 -55t57.5 -95t2.5 -134.5l-23 -137q-12 -62 -75 -62h-56q-34 0 -50.5 18.5t-10.5 53.5l16 90q15 93 -18 131.5t-117 38.5q-83 0 -130.5 -39t-61.5 -131l-140 -786q-17 -92 16.5 -131t118.5 -39q83 0 129.5 39t63.5 131l43 239h-98q-74 0 -62 72l4 33
q12 59 74 59h227z" />
    <glyph glyph-name="Gcommaaccent" unicode="&#x122;" horiz-adv-x="921" 
d="M782 727q36 0 53 -18.5t11 -53.5l-66 -368q-27 -160 -124 -231.5t-277 -71.5h-17q-158 0 -240.5 74t-53.5 229l151 860q26 155 124.5 229t277.5 74h16q75 0 134.5 -18.5t100.5 -55t57.5 -95t2.5 -134.5l-23 -137q-12 -62 -75 -62h-56q-34 0 -50.5 18.5t-10.5 53.5l16 90
q15 93 -18 131.5t-117 38.5q-83 0 -130.5 -39t-61.5 -131l-140 -786q-17 -92 16.5 -131t118.5 -39q83 0 129.5 39t63.5 131l43 239h-98q-74 0 -62 72l4 33q12 59 74 59h227zM367 -143q35 0 51 -19.5t10 -54.5l-16 -96q-28 -154 -144 -291q-22 -28 -55 -8q-15 9 -17.5 23.5
t9.5 29.5q67 98 92 190h-14q-34 0 -51 18.5t-11 53.5l17 92q12 62 73 62h56z" />
    <glyph glyph-name="gcommaaccent" unicode="&#x123;" horiz-adv-x="921" 
d="M782 727q36 0 53 -18.5t11 -53.5l-66 -368q-27 -160 -124 -231.5t-277 -71.5h-17q-158 0 -240.5 74t-53.5 229l151 860q26 155 124.5 229t277.5 74h16q75 0 134.5 -18.5t100.5 -55t57.5 -95t2.5 -134.5l-23 -137q-12 -62 -75 -62h-56q-34 0 -50.5 18.5t-10.5 53.5l16 90
q15 93 -18 131.5t-117 38.5q-83 0 -130.5 -39t-61.5 -131l-140 -786q-17 -92 16.5 -131t118.5 -39q83 0 129.5 39t63.5 131l43 239h-98q-74 0 -62 72l4 33q12 59 74 59h227zM367 -143q35 0 51 -19.5t10 -54.5l-16 -96q-28 -154 -144 -291q-22 -28 -55 -8q-15 9 -17.5 23.5
t9.5 29.5q67 98 92 190h-14q-34 0 -51 18.5t-11 53.5l17 92q12 62 73 62h56z" />
    <glyph glyph-name="Hbar" unicode="&#x126;" horiz-adv-x="993" 
d="M1036 1167q45 0 39 -45l-6 -37q-6 -36 -45 -36h-72l-174 -988q-9 -61 -71 -61h-56q-73 0 -61 72l100 571h-340l-102 -582q-9 -61 -74 -61h-55q-34 0 -51 18.5t-11 53.5l172 977h-63q-21 0 -31 12t-6 33l6 36q6 37 45 37h70l37 205q9 62 71 62h56q73 0 61 -72l-33 -195
h338l37 205q12 62 74 62h55q34 0 51 -18.5t11 -53.5l-35 -195h63zM719 815l41 234h-338l-41 -234h338z" />
    <glyph glyph-name="hbar" unicode="&#x127;" horiz-adv-x="993" 
d="M1036 1167q45 0 39 -45l-6 -37q-6 -36 -45 -36h-72l-174 -988q-9 -61 -71 -61h-56q-73 0 -61 72l100 571h-340l-102 -582q-9 -61 -74 -61h-55q-34 0 -51 18.5t-11 53.5l172 977h-63q-21 0 -31 12t-6 33l6 36q6 37 45 37h70l37 205q9 62 71 62h56q73 0 61 -72l-33 -195
h338l37 205q12 62 74 62h55q34 0 51 -18.5t11 -53.5l-35 -195h63zM719 815l41 234h-338l-41 -234h338z" />
    <glyph glyph-name="Imacron" unicode="&#x12a;" horiz-adv-x="438" 
d="M647 1626q-9 -59 -72 -59h-327q-35 0 -51 18.5t-9 52.5l2 23q9 61 72 61h330q33 0 49 -19t10 -52zM236 61q-9 -61 -74 -61h-56q-34 0 -50.5 18.5t-10.5 53.5l229 1300q9 62 72 62h55q74 0 62 -72z" />
    <glyph glyph-name="imacron" unicode="&#x12b;" horiz-adv-x="438" 
d="M647 1626q-9 -59 -72 -59h-327q-35 0 -51 18.5t-9 52.5l2 23q9 61 72 61h330q33 0 49 -19t10 -52zM236 61q-9 -61 -74 -61h-56q-34 0 -50.5 18.5t-10.5 53.5l229 1300q9 62 72 62h55q74 0 62 -72z" />
    <glyph glyph-name="Ibreve" unicode="&#x12c;" horiz-adv-x="438" 
d="M608 1804q58 0 49 -55l-8 -45q-29 -160 -235 -160h-25q-91 0 -141.5 41t-36.5 121l8 51q6 47 57 47h39q27 0 40.5 -14t9.5 -41l-3 -14q-12 -70 56 -70h8q70 0 82 70l4 22q9 47 55 47h41zM236 61q-9 -61 -74 -61h-56q-34 0 -50.5 18.5t-10.5 53.5l229 1300q9 62 72 62h55
q74 0 62 -72z" />
    <glyph glyph-name="ibreve" unicode="&#x12d;" horiz-adv-x="438" 
d="M608 1804q58 0 49 -55l-8 -45q-29 -160 -235 -160h-25q-91 0 -141.5 41t-36.5 121l8 51q6 47 57 47h39q27 0 40.5 -14t9.5 -41l-3 -14q-12 -70 56 -70h8q70 0 82 70l4 22q9 47 55 47h41zM236 61q-9 -61 -74 -61h-56q-34 0 -50.5 18.5t-10.5 53.5l229 1300q9 62 72 62h55
q74 0 62 -72z" />
    <glyph glyph-name="Iogonek" unicode="&#x12e;" horiz-adv-x="438" 
d="M401 1434q74 0 62 -72l-227 -1301q-9 -61 -74 -61q-88 -38 -119 -105q-25 -54 6 -83q17 -15 45 -15h15q21 3 29 -2.5t7 -23.5l-6 -31q-7 -30 -26 -39q-47 -27 -101 -27q-83 0 -115 60.5t7.5 146t144.5 146.5q-10 17 -4 45l229 1300q9 62 72 62h55z" />
    <glyph glyph-name="iogonek" unicode="&#x12f;" horiz-adv-x="438" 
d="M401 1434q74 0 62 -72l-227 -1301q-9 -61 -74 -61q-88 -38 -119 -105q-25 -54 6 -83q17 -15 45 -15h15q21 3 29 -2.5t7 -23.5l-6 -31q-7 -30 -26 -39q-47 -27 -101 -27q-83 0 -115 60.5t7.5 146t144.5 146.5q-10 17 -4 45l229 1300q9 62 72 62h55z" />
    <glyph glyph-name="Idotaccent" unicode="&#x130;" horiz-adv-x="438" 
d="M455 1751q34 0 50.5 -19.5t10.5 -54.5l-14 -69q-9 -62 -72 -62h-45q-34 0 -50.5 18.5t-10.5 53.5l14 72q9 61 72 61h45zM236 61q-9 -61 -74 -61h-56q-34 0 -50.5 18.5t-10.5 53.5l229 1300q9 62 72 62h55q74 0 62 -72z" />
    <glyph glyph-name="IJ" unicode="&#x132;" horiz-adv-x="788" 
d="M262 174q83 0 130.5 39t64.5 131l180 1028q9 62 74 62h55q34 0 50 -18.5t9 -53.5l-184 -1059q-29 -161 -126.5 -232t-278.5 -71h-136q-35 0 -52 18.5t-11 53.5l6 41q12 61 76 61h143zM287 387q-12 -59 -74 -59h-55q-35 0 -51.5 18t-10.5 53l170 973q12 62 74 62h55
q34 0 51 -18.5t11 -53.5z" />
    <glyph glyph-name="ij" unicode="&#x133;" horiz-adv-x="788" 
d="M262 174q83 0 130.5 39t64.5 131l180 1028q9 62 74 62h55q34 0 50 -18.5t9 -53.5l-184 -1059q-29 -161 -126.5 -232t-278.5 -71h-136q-35 0 -52 18.5t-11 53.5l6 41q12 61 76 61h143zM287 387q-12 -59 -74 -59h-55q-35 0 -51.5 18t-10.5 53l170 973q12 62 74 62h55
q34 0 51 -18.5t11 -53.5z" />
    <glyph glyph-name="Kcommaaccent" unicode="&#x136;" horiz-adv-x="880" 
d="M909 1434q41 0 53.5 -25t-10.5 -59l-327 -455l145 -821q6 -35 -10.5 -54.5t-50.5 -19.5h-58q-63 0 -69 61l-105 629l-182 -252l-68 -377q-9 -61 -73 -61h-56q-34 0 -50.5 18.5t-10.5 53.5l229 1300q9 62 72 62h55q74 0 62 -72l-107 -619l424 646q25 45 82 45h55z
M391 -143q35 0 51.5 -19.5t10.5 -54.5l-17 -96q-28 -155 -143 -291q-22 -28 -55 -8q-15 9 -18 23.5t9 29.5q69 100 93 190h-15q-34 0 -50.5 18.5t-10.5 53.5l16 92q12 62 74 62h55z" />
    <glyph glyph-name="kcommaaccent" unicode="&#x137;" horiz-adv-x="880" 
d="M909 1434q41 0 53.5 -25t-10.5 -59l-327 -455l145 -821q6 -35 -10.5 -54.5t-50.5 -19.5h-58q-63 0 -69 61l-105 629l-182 -252l-68 -377q-9 -61 -73 -61h-56q-34 0 -50.5 18.5t-10.5 53.5l229 1300q9 62 72 62h55q74 0 62 -72l-107 -619l424 646q25 45 82 45h55z
M391 -143q35 0 51.5 -19.5t10.5 -54.5l-17 -96q-28 -155 -143 -291q-22 -28 -55 -8q-15 9 -18 23.5t9 29.5q69 100 93 190h-15q-34 0 -50.5 18.5t-10.5 53.5l16 92q12 62 74 62h55z" />
    <glyph glyph-name="Lacute" unicode="&#x139;" horiz-adv-x="724" 
d="M469 1780q28 43 80 43h61q44 0 56 -25.5t-19 -56.5l-158 -162q-33 -33 -77 -33h-9q-39 0 -51.5 22t8.5 56zM561 174q35 0 51.5 -19t10.5 -55l-7 -39q-9 -61 -73 -61h-445q-34 0 -50.5 18.5t-10.5 53.5l229 1300q9 62 72 62h55q74 0 62 -72l-207 -1188h313z" />
    <glyph glyph-name="lacute" unicode="&#x13a;" horiz-adv-x="724" 
d="M469 1780q28 43 80 43h61q44 0 56 -25.5t-19 -56.5l-158 -162q-33 -33 -77 -33h-9q-39 0 -51.5 22t8.5 56zM561 174q35 0 51.5 -19t10.5 -55l-7 -39q-9 -61 -73 -61h-445q-34 0 -50.5 18.5t-10.5 53.5l229 1300q9 62 72 62h55q74 0 62 -72l-207 -1188h313z" />
    <glyph glyph-name="Lcommaaccent" unicode="&#x13b;" horiz-adv-x="724" 
d="M561 174q35 0 51.5 -19t10.5 -55l-7 -39q-9 -61 -73 -61h-445q-34 0 -50.5 18.5t-10.5 53.5l229 1300q9 62 72 62h55q74 0 62 -72l-207 -1188h313zM309 -143q35 0 51.5 -19.5t10.5 -54.5l-17 -96q-28 -155 -143 -291q-22 -28 -55 -8q-15 9 -18 23.5t9 29.5q69 100 93 190
h-15q-34 0 -50.5 18.5t-10.5 53.5l16 92q12 62 74 62h55z" />
    <glyph glyph-name="lcommaaccent" unicode="&#x13c;" horiz-adv-x="724" 
d="M561 174q35 0 51.5 -19t10.5 -55l-7 -39q-9 -61 -73 -61h-445q-34 0 -50.5 18.5t-10.5 53.5l229 1300q9 62 72 62h55q74 0 62 -72l-207 -1188h313zM309 -143q35 0 51.5 -19.5t10.5 -54.5l-17 -96q-28 -155 -143 -291q-22 -28 -55 -8q-15 9 -18 23.5t9 29.5q69 100 93 190
h-15q-34 0 -50.5 18.5t-10.5 53.5l16 92q12 62 74 62h55z" />
    <glyph glyph-name="Lcaron" unicode="&#x13d;" horiz-adv-x="724" 
d="M561 174q35 0 51.5 -19t10.5 -55l-7 -39q-9 -61 -73 -61h-445q-34 0 -50.5 18.5t-10.5 53.5l229 1300q9 62 72 62h55q74 0 62 -72l-207 -1188h313zM721 1434q35 0 51 -19.5t10 -54.5l-16 -96q-28 -155 -143 -291q-22 -28 -56 -8q-15 9 -17.5 23.5t9.5 29.5q67 98 92 190
h-14q-34 0 -51 18.5t-11 53.5l17 92q12 62 74 62h55z" />
    <glyph glyph-name="lcaron" unicode="&#x13e;" horiz-adv-x="724" 
d="M561 174q35 0 51.5 -19t10.5 -55l-7 -39q-9 -61 -73 -61h-445q-34 0 -50.5 18.5t-10.5 53.5l229 1300q9 62 72 62h55q74 0 62 -72l-207 -1188h313zM721 1434q35 0 51 -19.5t10 -54.5l-16 -96q-28 -155 -143 -291q-22 -28 -56 -8q-15 9 -17.5 23.5t9.5 29.5q67 98 92 190
h-14q-34 0 -51 18.5t-11 53.5l17 92q12 62 74 62h55z" />
    <glyph glyph-name="Ldot" unicode="&#x13f;" horiz-adv-x="731" 
d="M561 174q35 0 51.5 -19t10.5 -55l-7 -39q-9 -61 -73 -61h-445q-34 0 -50.5 18.5t-10.5 53.5l229 1300q9 62 72 62h55q74 0 62 -72l-207 -1188h313zM618 938q35 0 51.5 -19.5t10.5 -54.5l-16 -90q-9 -61 -72 -61h-57q-35 0 -51.5 18t-10.5 53l16 93q12 61 74 61h55z" />
    <glyph glyph-name="ldot" unicode="&#x140;" horiz-adv-x="731" 
d="M561 174q35 0 51.5 -19t10.5 -55l-7 -39q-9 -61 -73 -61h-445q-34 0 -50.5 18.5t-10.5 53.5l229 1300q9 62 72 62h55q74 0 62 -72l-207 -1188h313zM618 938q35 0 51.5 -19.5t10.5 -54.5l-16 -90q-9 -61 -72 -61h-57q-35 0 -51.5 18t-10.5 53l16 93q12 61 74 61h55z" />
    <glyph glyph-name="Lslash" unicode="&#x141;" horiz-adv-x="745" 
d="M582 174q34 0 50.5 -19t10.5 -55l-6 -39q-9 -61 -74 -61h-444q-34 0 -51 18.5t-11 53.5l99 557l-41 -19q-35 -17 -54.5 -2t-13.5 54l4 28q9 47 53 64l80 37l103 581q9 62 71 62h56q73 0 61 -72l-84 -477l160 71q34 17 53.5 3t13.5 -48l-6 -34q-8 -46 -51 -64l-196 -90
l-97 -549h314z" />
    <glyph glyph-name="lslash" unicode="&#x142;" horiz-adv-x="745" 
d="M582 174q34 0 50.5 -19t10.5 -55l-6 -39q-9 -61 -74 -61h-444q-34 0 -51 18.5t-11 53.5l99 557l-41 -19q-35 -17 -54.5 -2t-13.5 54l4 28q9 47 53 64l80 37l103 581q9 62 71 62h56q73 0 61 -72l-84 -477l160 71q34 17 53.5 3t13.5 -48l-6 -34q-8 -46 -51 -64l-196 -90
l-97 -549h314z" />
    <glyph glyph-name="Nacute" unicode="&#x143;" horiz-adv-x="960" 
d="M733 1780q28 43 80 43h61q44 0 56 -25.5t-19 -56.5l-157 -162q-33 -33 -78 -33h-8q-39 0 -51.5 22t8.5 56zM213 61q-11 -61 -74 -61h-41q-34 0 -50.5 18.5t-10.5 53.5l229 1300q9 62 72 62h65q62 0 74 -62l180 -926l162 926q12 62 74 62h41q34 0 50.5 -18.5t10.5 -53.5
l-229 -1301q-9 -61 -72 -61h-55q-65 0 -74 61l-184 959z" />
    <glyph glyph-name="nacute" unicode="&#x144;" horiz-adv-x="960" 
d="M733 1780q28 43 80 43h61q44 0 56 -25.5t-19 -56.5l-157 -162q-33 -33 -78 -33h-8q-39 0 -51.5 22t8.5 56zM213 61q-11 -61 -74 -61h-41q-34 0 -50.5 18.5t-10.5 53.5l229 1300q9 62 72 62h65q62 0 74 -62l180 -926l162 926q12 62 74 62h41q34 0 50.5 -18.5t10.5 -53.5
l-229 -1301q-9 -61 -72 -61h-55q-65 0 -74 61l-184 959z" />
    <glyph glyph-name="Ncommaaccent" unicode="&#x145;" horiz-adv-x="960" 
d="M213 61q-11 -61 -74 -61h-41q-34 0 -50.5 18.5t-10.5 53.5l229 1300q9 62 72 62h65q62 0 74 -62l180 -926l162 926q12 62 74 62h41q34 0 50.5 -18.5t10.5 -53.5l-229 -1301q-9 -61 -72 -61h-55q-65 0 -74 61l-184 959zM383 -143q35 0 51 -19.5t10 -54.5l-16 -96
q-28 -155 -143 -291q-22 -28 -56 -8q-15 9 -17.5 23.5t9.5 29.5q67 98 92 190h-14q-34 0 -50.5 18.5t-10.5 53.5l16 92q12 62 74 62h55z" />
    <glyph glyph-name="ncommaaccent" unicode="&#x146;" horiz-adv-x="960" 
d="M213 61q-11 -61 -74 -61h-41q-34 0 -50.5 18.5t-10.5 53.5l229 1300q9 62 72 62h65q62 0 74 -62l180 -926l162 926q12 62 74 62h41q34 0 50.5 -18.5t10.5 -53.5l-229 -1301q-9 -61 -72 -61h-55q-65 0 -74 61l-184 959zM383 -143q35 0 51 -19.5t10 -54.5l-16 -96
q-28 -155 -143 -291q-22 -28 -56 -8q-15 9 -17.5 23.5t9.5 29.5q67 98 92 190h-14q-34 0 -50.5 18.5t-10.5 53.5l16 92q12 62 74 62h55z" />
    <glyph glyph-name="Ncaron" unicode="&#x147;" horiz-adv-x="960" 
d="M903 1741q26 34 21 58t-39 24h-35q-54 0 -82 -43l-84 -111l-43 100q-18 54 -78 54h-14q-38 0 -52.5 -21.5t-0.5 -56.5l69 -148q20 -51 78 -51h55q49 0 82 41zM213 61q-11 -61 -74 -61h-41q-34 0 -50.5 18.5t-10.5 53.5l229 1300q9 62 72 62h65q62 0 74 -62l180 -926
l162 926q12 62 74 62h41q34 0 50.5 -18.5t10.5 -53.5l-229 -1301q-9 -61 -72 -61h-55q-65 0 -74 61l-184 959z" />
    <glyph glyph-name="ncaron" unicode="&#x148;" horiz-adv-x="960" 
d="M903 1741q26 34 21 58t-39 24h-35q-54 0 -82 -43l-84 -111l-43 100q-18 54 -78 54h-14q-38 0 -52.5 -21.5t-0.5 -56.5l69 -148q20 -51 78 -51h55q49 0 82 41zM213 61q-11 -61 -74 -61h-41q-34 0 -50.5 18.5t-10.5 53.5l229 1300q9 62 72 62h65q62 0 74 -62l180 -926
l162 926q12 62 74 62h41q34 0 50.5 -18.5t10.5 -53.5l-229 -1301q-9 -61 -72 -61h-55q-65 0 -74 61l-184 959z" />
    <glyph glyph-name="Eng" unicode="&#x14a;" horiz-adv-x="960" 
d="M754 -14q-29 -158 -129 -230.5t-271 -72.5h-8q-34 0 -49.5 19t-9.5 54l6 33q11 61 72 61h22q76 0 123 35.5t65 116.5l-194 1018l-168 -959q-11 -61 -74 -61h-41q-34 0 -50.5 18.5t-10.5 53.5l229 1300q9 62 72 62h65q62 0 74 -62l180 -926l162 926q12 62 74 62h41
q34 0 50.5 -18.5t10.5 -53.5z" />
    <glyph glyph-name="eng" unicode="&#x14b;" horiz-adv-x="960" 
d="M754 -14q-29 -158 -129 -230.5t-271 -72.5h-8q-34 0 -49.5 19t-9.5 54l6 33q11 61 72 61h22q76 0 123 35.5t65 116.5l-194 1018l-168 -959q-11 -61 -74 -61h-41q-34 0 -50.5 18.5t-10.5 53.5l229 1300q9 62 72 62h65q62 0 74 -62l180 -926l162 926q12 62 74 62h41
q34 0 50.5 -18.5t10.5 -53.5z" />
    <glyph glyph-name="Omacron" unicode="&#x14c;" horiz-adv-x="925" 
d="M891 1626q-9 -59 -72 -59h-327q-35 0 -51 18.5t-9 52.5l2 23q9 61 72 61h330q33 0 49 -19t10 -52zM219 1147q28 159 125 231t277 72h16q156 0 239 -76t56 -227l-152 -860q-28 -158 -125 -230.5t-276 -72.5h-17q-157 0 -239.5 76t-54.5 227zM266 324q-17 -92 16.5 -131
t118.5 -39q83 0 129.5 39t63.5 131l139 786q15 93 -18 131.5t-117 38.5q-83 0 -130.5 -39t-61.5 -131z" />
    <glyph glyph-name="omacron" unicode="&#x14d;" horiz-adv-x="925" 
d="M891 1626q-9 -59 -72 -59h-327q-35 0 -51 18.5t-9 52.5l2 23q9 61 72 61h330q33 0 49 -19t10 -52zM219 1147q28 159 125 231t277 72h16q156 0 239 -76t56 -227l-152 -860q-28 -158 -125 -230.5t-276 -72.5h-17q-157 0 -239.5 76t-54.5 227zM266 324q-17 -92 16.5 -131
t118.5 -39q83 0 129.5 39t63.5 131l139 786q15 93 -18 131.5t-117 38.5q-83 0 -130.5 -39t-61.5 -131z" />
    <glyph glyph-name="Obreve" unicode="&#x14e;" horiz-adv-x="925" 
d="M852 1804q58 0 49 -55l-8 -45q-29 -160 -236 -160h-24q-91 0 -141.5 41t-36.5 121l8 51q6 47 57 47h39q58 0 49 -55l-2 -14q-12 -70 56 -70h8q70 0 82 70l4 22q9 47 55 47h41zM219 1147q28 159 125 231t277 72h16q156 0 239 -76t56 -227l-152 -860q-28 -158 -125 -230.5
t-276 -72.5h-17q-157 0 -239.5 76t-54.5 227zM266 324q-17 -92 16.5 -131t118.5 -39q83 0 129.5 39t63.5 131l139 786q15 93 -18 131.5t-117 38.5q-83 0 -130.5 -39t-61.5 -131z" />
    <glyph glyph-name="obreve" unicode="&#x14f;" horiz-adv-x="925" 
d="M852 1804q58 0 49 -55l-8 -45q-29 -160 -236 -160h-24q-91 0 -141.5 41t-36.5 121l8 51q6 47 57 47h39q58 0 49 -55l-2 -14q-12 -70 56 -70h8q70 0 82 70l4 22q9 47 55 47h41zM219 1147q28 159 125 231t277 72h16q156 0 239 -76t56 -227l-152 -860q-28 -158 -125 -230.5
t-276 -72.5h-17q-157 0 -239.5 76t-54.5 227zM266 324q-17 -92 16.5 -131t118.5 -39q83 0 129.5 39t63.5 131l139 786q15 93 -18 131.5t-117 38.5q-83 0 -130.5 -39t-61.5 -131z" />
    <glyph glyph-name="Ohungarumlaut" unicode="&#x150;" horiz-adv-x="925" 
d="M600 1792q36 31 74 31h31q39 0 48 -22t-18 -50l-172 -174q-31 -31 -71 -31h-33q-40 0 -49.5 22.5t16.5 51.5zM881 1792q27 31 71 31h33q39 0 48.5 -22t-17.5 -50l-172 -174q-31 -31 -72 -31h-33q-38 0 -47 22.5t17 51.5zM219 1147q28 159 125 231t277 72h16
q156 0 239 -76t56 -227l-152 -860q-28 -158 -125 -230.5t-276 -72.5h-17q-157 0 -239.5 76t-54.5 227zM266 324q-17 -92 16.5 -131t118.5 -39q83 0 129.5 39t63.5 131l139 786q15 93 -18 131.5t-117 38.5q-83 0 -130.5 -39t-61.5 -131z" />
    <glyph glyph-name="ohungarumlaut" unicode="&#x151;" horiz-adv-x="925" 
d="M600 1792q36 31 74 31h31q39 0 48 -22t-18 -50l-172 -174q-31 -31 -71 -31h-33q-40 0 -49.5 22.5t16.5 51.5zM881 1792q27 31 71 31h33q39 0 48.5 -22t-17.5 -50l-172 -174q-31 -31 -72 -31h-33q-38 0 -47 22.5t17 51.5zM219 1147q28 159 125 231t277 72h16
q156 0 239 -76t56 -227l-152 -860q-28 -158 -125 -230.5t-276 -72.5h-17q-157 0 -239.5 76t-54.5 227zM266 324q-17 -92 16.5 -131t118.5 -39q83 0 129.5 39t63.5 131l139 786q15 93 -18 131.5t-117 38.5q-83 0 -130.5 -39t-61.5 -131z" />
    <glyph glyph-name="OE" unicode="&#x152;" horiz-adv-x="1284" 
d="M1309 1434q34 0 50.5 -19t10.5 -53l-6 -39q-12 -59 -74 -59h-350l-78 -451h275q34 0 50.5 -19.5t10.5 -54.5l-6 -37q-12 -61 -74 -61h-287l-81 -471h344q34 0 50 -18.5t9 -53.5l-6 -37q-9 -61 -72 -61h-710q-157 0 -240 76t-55 227l145 827q28 158 125 231t276 73h693z
M268 340q-17 -92 16.5 -131t118.5 -39h152l195 1094h-156q-83 0 -129.5 -39t-63.5 -131z" />
    <glyph glyph-name="oe" unicode="&#x153;" horiz-adv-x="1284" 
d="M1309 1434q34 0 50.5 -19t10.5 -53l-6 -39q-12 -59 -74 -59h-350l-78 -451h275q34 0 50.5 -19.5t10.5 -54.5l-6 -37q-12 -61 -74 -61h-287l-81 -471h344q34 0 50 -18.5t9 -53.5l-6 -37q-9 -61 -72 -61h-710q-157 0 -240 76t-55 227l145 827q28 158 125 231t276 73h693z
M268 340q-17 -92 16.5 -131t118.5 -39h152l195 1094h-156q-83 0 -129.5 -39t-63.5 -131z" />
    <glyph glyph-name="Racute" unicode="&#x154;" horiz-adv-x="923" 
d="M633 1546q-39 0 -51.5 22t8.5 56l108 156q28 43 80 43h62q44 0 56 -25.5t-19 -56.5l-158 -162q-33 -33 -78 -33h-8zM635 1434q157 0 240 -76.5t55 -227.5l-41 -239q-40 -217 -217 -277l96 -540q6 -35 -10.5 -54.5t-50.5 -19.5h-58q-63 0 -69 61l-88 527h-7h-166l-92 -527
q-9 -61 -73 -61h-56q-34 0 -50.5 18.5t-10.5 53.5l229 1300q9 62 72 62h297zM731 1094q17 92 -16.5 131t-118.5 39h-158l-88 -508h158q84 0 130.5 38.5t63.5 131.5z" />
    <glyph glyph-name="racute" unicode="&#x155;" horiz-adv-x="923" 
d="M633 1546q-39 0 -51.5 22t8.5 56l108 156q28 43 80 43h62q44 0 56 -25.5t-19 -56.5l-158 -162q-33 -33 -78 -33h-8zM635 1434q157 0 240 -76.5t55 -227.5l-41 -239q-40 -217 -217 -277l96 -540q6 -35 -10.5 -54.5t-50.5 -19.5h-58q-63 0 -69 61l-88 527h-7h-166l-92 -527
q-9 -61 -73 -61h-56q-34 0 -50.5 18.5t-10.5 53.5l229 1300q9 62 72 62h297zM731 1094q17 92 -16.5 131t-118.5 39h-158l-88 -508h158q84 0 130.5 38.5t63.5 131.5z" />
    <glyph glyph-name="Rcommaaccent" unicode="&#x156;" horiz-adv-x="923" 
d="M635 1434q157 0 240 -76.5t55 -227.5l-41 -239q-40 -217 -217 -277l96 -540q6 -35 -10.5 -54.5t-50.5 -19.5h-58q-63 0 -69 61l-88 527h-7h-166l-92 -527q-9 -61 -73 -61h-56q-34 0 -50.5 18.5t-10.5 53.5l229 1300q9 62 72 62h297zM731 1094q17 92 -16.5 131t-118.5 39
h-158l-88 -508h158q84 0 130.5 38.5t63.5 131.5zM391 -143q35 0 51.5 -19.5t10.5 -54.5l-17 -96q-28 -155 -143 -291q-22 -28 -55 -8q-15 9 -18 23.5t9 29.5q69 100 93 190h-15q-34 0 -50.5 18.5t-10.5 53.5l16 92q12 62 74 62h55z" />
    <glyph glyph-name="rcommaaccent" unicode="&#x157;" horiz-adv-x="923" 
d="M635 1434q157 0 240 -76.5t55 -227.5l-41 -239q-40 -217 -217 -277l96 -540q6 -35 -10.5 -54.5t-50.5 -19.5h-58q-63 0 -69 61l-88 527h-7h-166l-92 -527q-9 -61 -73 -61h-56q-34 0 -50.5 18.5t-10.5 53.5l229 1300q9 62 72 62h297zM731 1094q17 92 -16.5 131t-118.5 39
h-158l-88 -508h158q84 0 130.5 38.5t63.5 131.5zM391 -143q35 0 51.5 -19.5t10.5 -54.5l-17 -96q-28 -155 -143 -291q-22 -28 -55 -8q-15 9 -18 23.5t9 29.5q69 100 93 190h-15q-34 0 -50.5 18.5t-10.5 53.5l16 92q12 62 74 62h55z" />
    <glyph glyph-name="Rcaron" unicode="&#x158;" horiz-adv-x="923" 
d="M530 1597l-69 148q-14 35 0.5 56.5t52.5 21.5h14q60 0 78 -54l43 -100l84 111q28 43 82 43h35q34 0 39 -24t-21 -58l-123 -154q-33 -41 -81 -41h-56q-58 0 -78 51zM635 1434q157 0 240 -76.5t55 -227.5l-41 -239q-40 -217 -217 -277l96 -540q6 -35 -10.5 -54.5
t-50.5 -19.5h-58q-63 0 -69 61l-88 527h-7h-166l-92 -527q-9 -61 -73 -61h-56q-34 0 -50.5 18.5t-10.5 53.5l229 1300q9 62 72 62h297zM731 1094q17 92 -16.5 131t-118.5 39h-158l-88 -508h158q84 0 130.5 38.5t63.5 131.5z" />
    <glyph glyph-name="rcaron" unicode="&#x159;" horiz-adv-x="923" 
d="M530 1597l-69 148q-14 35 0.5 56.5t52.5 21.5h14q60 0 78 -54l43 -100l84 111q28 43 82 43h35q34 0 39 -24t-21 -58l-123 -154q-33 -41 -81 -41h-56q-58 0 -78 51zM635 1434q157 0 240 -76.5t55 -227.5l-41 -239q-40 -217 -217 -277l96 -540q6 -35 -10.5 -54.5
t-50.5 -19.5h-58q-63 0 -69 61l-88 527h-7h-166l-92 -527q-9 -61 -73 -61h-56q-34 0 -50.5 18.5t-10.5 53.5l229 1300q9 62 72 62h297zM731 1094q17 92 -16.5 131t-118.5 39h-158l-88 -508h158q84 0 130.5 38.5t63.5 131.5z" />
    <glyph glyph-name="Sacute" unicode="&#x15a;" horiz-adv-x="856" 
d="M676 1780q28 43 80 43h61q44 0 56 -25.5t-19 -56.5l-158 -162q-33 -33 -78 -33h-8q-39 0 -51.5 22t8.5 56zM854 989q-9 -61 -74 -61h-51q-73 0 -61 71l22 123q13 84 -18.5 122t-108.5 38q-155 0 -180 -160l-18 -98q-10 -64 6.5 -99t72.5 -71l170 -102q30 -19 51.5 -35
t43.5 -36t34 -39.5t22.5 -45.5t9.5 -53.5t-5 -63.5l-37 -196q-28 -160 -120.5 -229.5t-272.5 -69.5h-4q-76 0 -134.5 16.5t-99.5 51t-56 93.5t-1 138l31 182q12 61 76 61h51q73 0 61 -71l-24 -140q-13 -84 18.5 -123.5t108.5 -39.5q158 0 184 163l20 113q12 66 -7 103
t-79 73l-166 103q-87 54 -126 118.5t-25 149.5l31 180q53 295 393 295h4q144 0 229 -74.5t58 -220.5z" />
    <glyph glyph-name="sacute" unicode="&#x15b;" horiz-adv-x="856" 
d="M676 1780q28 43 80 43h61q44 0 56 -25.5t-19 -56.5l-158 -162q-33 -33 -78 -33h-8q-39 0 -51.5 22t8.5 56zM854 989q-9 -61 -74 -61h-51q-73 0 -61 71l22 123q13 84 -18.5 122t-108.5 38q-155 0 -180 -160l-18 -98q-10 -64 6.5 -99t72.5 -71l170 -102q30 -19 51.5 -35
t43.5 -36t34 -39.5t22.5 -45.5t9.5 -53.5t-5 -63.5l-37 -196q-28 -160 -120.5 -229.5t-272.5 -69.5h-4q-76 0 -134.5 16.5t-99.5 51t-56 93.5t-1 138l31 182q12 61 76 61h51q73 0 61 -71l-24 -140q-13 -84 18.5 -123.5t108.5 -39.5q158 0 184 163l20 113q12 66 -7 103
t-79 73l-166 103q-87 54 -126 118.5t-25 149.5l31 180q53 295 393 295h4q144 0 229 -74.5t58 -220.5z" />
    <glyph glyph-name="Scedilla" unicode="&#x15e;" horiz-adv-x="856" 
d="M596 1450q144 0 229 -74.5t58 -220.5l-29 -166q-9 -61 -74 -61h-51q-73 0 -61 71l22 123q13 84 -18.5 122t-108.5 38q-155 0 -180 -160l-18 -98q-10 -64 6.5 -99t72.5 -71l170 -102q30 -19 51.5 -35t43.5 -36t34 -39.5t22.5 -45.5t9.5 -53.5t-5 -63.5l-37 -196
q-25 -141 -98.5 -211t-210.5 -84l-14 -86q-18 -102 -62 -141.5t-131 -39.5q-40 0 -70 9q-40 8 -43 55v14q0 25 13 40.5t37 15.5h43q31 0 45 11.5t20 43.5l14 76q-130 13 -193 85t-38 212l31 182q12 61 76 61h51q73 0 61 -71l-24 -140q-13 -84 18.5 -123.5t108.5 -39.5
q158 0 184 163l20 113q12 66 -7 103t-79 73l-166 103q-87 54 -126 118.5t-25 149.5l31 180q53 295 393 295h4z" />
    <glyph glyph-name="scedilla" unicode="&#x15f;" horiz-adv-x="856" 
d="M596 1450q144 0 229 -74.5t58 -220.5l-29 -166q-9 -61 -74 -61h-51q-73 0 -61 71l22 123q13 84 -18.5 122t-108.5 38q-155 0 -180 -160l-18 -98q-10 -64 6.5 -99t72.5 -71l170 -102q30 -19 51.5 -35t43.5 -36t34 -39.5t22.5 -45.5t9.5 -53.5t-5 -63.5l-37 -196
q-25 -141 -98.5 -211t-210.5 -84l-14 -86q-18 -102 -62 -141.5t-131 -39.5q-40 0 -70 9q-40 8 -43 55v14q0 25 13 40.5t37 15.5h43q31 0 45 11.5t20 43.5l14 76q-130 13 -193 85t-38 212l31 182q12 61 76 61h51q73 0 61 -71l-24 -140q-13 -84 18.5 -123.5t108.5 -39.5
q158 0 184 163l20 113q12 66 -7 103t-79 73l-166 103q-87 54 -126 118.5t-25 149.5l31 180q53 295 393 295h4z" />
    <glyph glyph-name="Scaron" unicode="&#x160;" horiz-adv-x="856" 
d="M846 1741q26 34 20.5 58t-39.5 24h-34q-54 0 -82 -43l-84 -111l-43 100q-18 54 -78 54h-14q-38 0 -53 -21.5t-1 -56.5l70 -148q20 -51 78 -51h55q49 0 82 41zM854 989q-9 -61 -74 -61h-51q-73 0 -61 71l22 123q13 84 -18.5 122t-108.5 38q-155 0 -180 -160l-18 -98
q-10 -64 6.5 -99t72.5 -71l170 -102q30 -19 51.5 -35t43.5 -36t34 -39.5t22.5 -45.5t9.5 -53.5t-5 -63.5l-37 -196q-28 -160 -120.5 -229.5t-272.5 -69.5h-4q-76 0 -134.5 16.5t-99.5 51t-56 93.5t-1 138l31 182q12 61 76 61h51q73 0 61 -71l-24 -140q-13 -84 18.5 -123.5
t108.5 -39.5q158 0 184 163l20 113q12 66 -7 103t-79 73l-166 103q-87 54 -126 118.5t-25 149.5l31 180q53 295 393 295h4q144 0 229 -74.5t58 -220.5z" />
    <glyph glyph-name="scaron" unicode="&#x161;" horiz-adv-x="856" 
d="M846 1741q26 34 20.5 58t-39.5 24h-34q-54 0 -82 -43l-84 -111l-43 100q-18 54 -78 54h-14q-38 0 -53 -21.5t-1 -56.5l70 -148q20 -51 78 -51h55q49 0 82 41zM854 989q-9 -61 -74 -61h-51q-73 0 -61 71l22 123q13 84 -18.5 122t-108.5 38q-155 0 -180 -160l-18 -98
q-10 -64 6.5 -99t72.5 -71l170 -102q30 -19 51.5 -35t43.5 -36t34 -39.5t22.5 -45.5t9.5 -53.5t-5 -63.5l-37 -196q-28 -160 -120.5 -229.5t-272.5 -69.5h-4q-76 0 -134.5 16.5t-99.5 51t-56 93.5t-1 138l31 182q12 61 76 61h51q73 0 61 -71l-24 -140q-13 -84 18.5 -123.5
t108.5 -39.5q158 0 184 163l20 113q12 66 -7 103t-79 73l-166 103q-87 54 -126 118.5t-25 149.5l31 180q53 295 393 295h4q144 0 229 -74.5t58 -220.5z" />
    <glyph glyph-name="uni0162" unicode="&#x162;" horiz-adv-x="745" 
d="M178 1372q9 62 74 62h555q35 0 51 -19t10 -53l-6 -39q-9 -59 -74 -59h-186l-219 -1246q-2 -12 -18 -24q-34 -21 -48 -103q-17 -91 -64 -130.5t-128 -39.5q-31 0 -62 7q-46 8 -49 65q-3 29 13 45.5t47 16.5h35q29 0 43 12t18 43l240 1354h-177q-73 0 -61 71z" />
    <glyph glyph-name="uni0163" unicode="&#x163;" horiz-adv-x="745" 
d="M178 1372q9 62 74 62h555q35 0 51 -19t10 -53l-6 -39q-9 -59 -74 -59h-186l-219 -1246q-2 -12 -18 -24q-34 -21 -48 -103q-17 -91 -64 -130.5t-128 -39.5q-31 0 -62 7q-46 8 -49 65q-3 29 13 45.5t47 16.5h35q29 0 43 12t18 43l240 1354h-177q-73 0 -61 71z" />
    <glyph glyph-name="Tcaron" unicode="&#x164;" horiz-adv-x="745" 
d="M791 1741q26 34 20.5 58t-39.5 24h-35q-54 0 -82 -43l-84 -111l-43 100q-18 54 -77 54h-15q-38 0 -52.5 -21.5t-0.5 -56.5l70 -148q20 -51 77 -51h56q49 0 82 41zM807 1434q35 0 51 -19t10 -53l-6 -39q-9 -59 -74 -59h-186l-213 -1203q-9 -61 -74 -61h-53q-73 0 -61 72
l209 1192h-177q-73 0 -61 71l6 37q9 62 74 62h555z" />
    <glyph glyph-name="tcaron" unicode="&#x165;" horiz-adv-x="745" 
d="M791 1741q26 34 20.5 58t-39.5 24h-35q-54 0 -82 -43l-84 -111l-43 100q-18 54 -77 54h-15q-38 0 -52.5 -21.5t-0.5 -56.5l70 -148q20 -51 77 -51h56q49 0 82 41zM807 1434q35 0 51 -19t10 -53l-6 -39q-9 -59 -74 -59h-186l-213 -1203q-9 -61 -74 -61h-53q-73 0 -61 72
l209 1192h-177q-73 0 -61 71l6 37q9 62 74 62h555z" />
    <glyph glyph-name="Tbar" unicode="&#x166;" horiz-adv-x="745" 
d="M807 1434q35 0 51 -19t10 -53l-6 -39q-9 -59 -74 -59h-186l-63 -361h61q33 0 49 -19.5t10 -52.5l-4 -24q-9 -59 -71 -59h-74l-121 -687q-9 -61 -74 -61h-53q-73 0 -61 72l118 676h-63q-35 0 -50.5 18t-8.5 53l2 23q9 61 71 61h76l64 361h-177q-73 0 -61 71l6 37
q9 62 74 62h555z" />
    <glyph glyph-name="tbar" unicode="&#x167;" horiz-adv-x="745" 
d="M807 1434q35 0 51 -19t10 -53l-6 -39q-9 -59 -74 -59h-186l-63 -361h61q33 0 49 -19.5t10 -52.5l-4 -24q-9 -59 -71 -59h-74l-121 -687q-9 -61 -74 -61h-53q-73 0 -61 72l118 676h-63q-35 0 -50.5 18t-8.5 53l2 23q9 61 71 61h76l64 361h-177q-73 0 -61 71l6 37
q9 62 74 62h555z" />
    <glyph glyph-name="Umacron" unicode="&#x16a;" 
d="M887 1626q-9 -59 -72 -59h-328q-35 0 -50.5 18t-8.5 53l2 23q9 61 72 61h329q33 0 49.5 -19t10.5 -52zM895 1434q34 0 50.5 -18.5t10.5 -53.5l-188 -1075q-28 -160 -122.5 -231.5t-274.5 -71.5h-9q-158 0 -238.5 74t-51.5 229l190 1085q9 62 72 62h55q74 0 62 -72
l-181 -1038q-17 -93 13 -131.5t114 -38.5q81 0 124.5 38.5t60.5 131.5l184 1048q12 62 74 62h55z" />
    <glyph glyph-name="umacron" unicode="&#x16b;" 
d="M887 1626q-9 -59 -72 -59h-328q-35 0 -50.5 18t-8.5 53l2 23q9 61 72 61h329q33 0 49.5 -19t10.5 -52zM895 1434q34 0 50.5 -18.5t10.5 -53.5l-188 -1075q-28 -160 -122.5 -231.5t-274.5 -71.5h-9q-158 0 -238.5 74t-51.5 229l190 1085q9 62 72 62h55q74 0 62 -72
l-181 -1038q-17 -93 13 -131.5t114 -38.5q81 0 124.5 38.5t60.5 131.5l184 1048q12 62 74 62h55z" />
    <glyph glyph-name="Ubreve" unicode="&#x16c;" 
d="M848 1804q58 0 49 -55l-8 -45q-29 -160 -236 -160h-24q-91 0 -141.5 41t-36.5 121l8 51q6 47 57 47h39q58 0 49 -55l-2 -14q-12 -70 55 -70h9q70 0 82 70l4 22q9 47 55 47h41zM895 1434q34 0 50.5 -18.5t10.5 -53.5l-188 -1075q-28 -160 -122.5 -231.5t-274.5 -71.5h-9
q-158 0 -238.5 74t-51.5 229l190 1085q9 62 72 62h55q74 0 62 -72l-181 -1038q-17 -93 13 -131.5t114 -38.5q81 0 124.5 38.5t60.5 131.5l184 1048q12 62 74 62h55z" />
    <glyph glyph-name="ubreve" unicode="&#x16d;" 
d="M848 1804q58 0 49 -55l-8 -45q-29 -160 -236 -160h-24q-91 0 -141.5 41t-36.5 121l8 51q6 47 57 47h39q58 0 49 -55l-2 -14q-12 -70 55 -70h9q70 0 82 70l4 22q9 47 55 47h41zM895 1434q34 0 50.5 -18.5t10.5 -53.5l-188 -1075q-28 -160 -122.5 -231.5t-274.5 -71.5h-9
q-158 0 -238.5 74t-51.5 229l190 1085q9 62 72 62h55q74 0 62 -72l-181 -1038q-17 -93 13 -131.5t114 -38.5q81 0 124.5 38.5t60.5 131.5l184 1048q12 62 74 62h55z" />
    <glyph glyph-name="Uring" unicode="&#x16e;" 
d="M694 1849q71 0 114.5 -43t31.5 -114q-12 -75 -64 -116.5t-137 -41.5q-72 0 -115 43.5t-30 114.5q12 75 63 116t137 41zM680 1761q-32 0 -55 -18t-29 -51t10.5 -50.5t48.5 -17.5t54 17.5t28 50.5t-9.5 51t-47.5 18zM895 1434q34 0 50.5 -18.5t10.5 -53.5l-188 -1075
q-28 -160 -122.5 -231.5t-274.5 -71.5h-9q-158 0 -238.5 74t-51.5 229l190 1085q9 62 72 62h55q74 0 62 -72l-181 -1038q-17 -93 13 -131.5t114 -38.5q81 0 124.5 38.5t60.5 131.5l184 1048q12 62 74 62h55z" />
    <glyph glyph-name="uring" unicode="&#x16f;" 
d="M694 1849q71 0 114.5 -43t31.5 -114q-12 -75 -64 -116.5t-137 -41.5q-72 0 -115 43.5t-30 114.5q12 75 63 116t137 41zM680 1761q-32 0 -55 -18t-29 -51t10.5 -50.5t48.5 -17.5t54 17.5t28 50.5t-9.5 51t-47.5 18zM895 1434q34 0 50.5 -18.5t10.5 -53.5l-188 -1075
q-28 -160 -122.5 -231.5t-274.5 -71.5h-9q-158 0 -238.5 74t-51.5 229l190 1085q9 62 72 62h55q74 0 62 -72l-181 -1038q-17 -93 13 -131.5t114 -38.5q81 0 124.5 38.5t60.5 131.5l184 1048q12 62 74 62h55z" />
    <glyph glyph-name="Uhungarumlaut" unicode="&#x170;" 
d="M596 1792q36 31 74 31h30q39 0 48.5 -22t-17.5 -50l-172 -174q-31 -31 -72 -31h-32q-40 0 -49.5 22.5t16.5 51.5zM877 1792q27 31 71 31h33q39 0 48.5 -22t-17.5 -50l-172 -174q-31 -31 -72 -31h-33q-38 0 -47 22.5t17 51.5zM895 1434q34 0 50.5 -18.5t10.5 -53.5
l-188 -1075q-28 -160 -122.5 -231.5t-274.5 -71.5h-9q-158 0 -238.5 74t-51.5 229l190 1085q9 62 72 62h55q74 0 62 -72l-181 -1038q-17 -93 13 -131.5t114 -38.5q81 0 124.5 38.5t60.5 131.5l184 1048q12 62 74 62h55z" />
    <glyph glyph-name="uhungarumlaut" unicode="&#x171;" 
d="M596 1792q36 31 74 31h30q39 0 48.5 -22t-17.5 -50l-172 -174q-31 -31 -72 -31h-32q-40 0 -49.5 22.5t16.5 51.5zM877 1792q27 31 71 31h33q39 0 48.5 -22t-17.5 -50l-172 -174q-31 -31 -72 -31h-33q-38 0 -47 22.5t17 51.5zM895 1434q34 0 50.5 -18.5t10.5 -53.5
l-188 -1075q-28 -160 -122.5 -231.5t-274.5 -71.5h-9q-158 0 -238.5 74t-51.5 229l190 1085q9 62 72 62h55q74 0 62 -72l-181 -1038q-17 -93 13 -131.5t114 -38.5q81 0 124.5 38.5t60.5 131.5l184 1048q12 62 74 62h55z" />
    <glyph glyph-name="Uogonek" unicode="&#x172;" 
d="M895 1434q34 0 50.5 -18.5t10.5 -53.5l-188 -1075q-22 -123 -82.5 -193t-167.5 -96q-86 -38 -116 -104q-24 -54 7 -82q17 -15 46 -15h14q21 3 29.5 -2.5t7.5 -23.5l-6 -31q-7 -29 -27 -39q-47 -27 -100 -27q-74 0 -108 50t-12 124t97 136q-152 3 -229.5 77t-48.5 226
l190 1085q9 62 72 62h55q74 0 62 -72l-181 -1038q-17 -93 13 -131.5t114 -38.5q81 0 124.5 38.5t60.5 131.5l184 1048q12 62 74 62h55z" />
    <glyph glyph-name="uogonek" unicode="&#x173;" 
d="M895 1434q34 0 50.5 -18.5t10.5 -53.5l-188 -1075q-22 -123 -82.5 -193t-167.5 -96q-86 -38 -116 -104q-24 -54 7 -82q17 -15 46 -15h14q21 3 29.5 -2.5t7.5 -23.5l-6 -31q-7 -29 -27 -39q-47 -27 -100 -27q-74 0 -108 50t-12 124t97 136q-152 3 -229.5 77t-48.5 226
l190 1085q9 62 72 62h55q74 0 62 -72l-181 -1038q-17 -93 13 -131.5t114 -38.5q81 0 124.5 38.5t60.5 131.5l184 1048q12 62 74 62h55z" />
    <glyph glyph-name="Wcircumflex" unicode="&#x174;" horiz-adv-x="1314" 
d="M1020 1546q35 0 47.5 21.5t-2.5 56.5l-68 148q-20 51 -77 51h-56q-49 0 -82 -39l-125 -154q-26 -34 -19.5 -59t40.5 -25h33q52 0 82 43l86 111l41 -98q20 -56 79 -56h21zM1364 1434q35 0 50 -21.5t5 -56.5l-438 -1301q-18 -55 -78 -55h-57q-68 0 -68 68l-18 999
l-377 -1012q-21 -55 -78 -55h-63q-68 0 -68 68l19 1298q0 32 18.5 50t50.5 18h49q34 0 51.5 -18.5t14.5 -51.5l-43 -1020l379 1036q19 54 75 54h52q67 0 67 -68l15 -1022l319 1032q16 58 76 58h47z" />
    <glyph glyph-name="wcircumflex" unicode="&#x175;" horiz-adv-x="1314" 
d="M1020 1546q35 0 47.5 21.5t-2.5 56.5l-68 148q-20 51 -77 51h-56q-49 0 -82 -39l-125 -154q-26 -34 -19.5 -59t40.5 -25h33q52 0 82 43l86 111l41 -98q20 -56 79 -56h21zM1364 1434q35 0 50 -21.5t5 -56.5l-438 -1301q-18 -55 -78 -55h-57q-68 0 -68 68l-18 999
l-377 -1012q-21 -55 -78 -55h-63q-68 0 -68 68l19 1298q0 32 18.5 50t50.5 18h49q34 0 51.5 -18.5t14.5 -51.5l-43 -1020l379 1036q19 54 75 54h52q67 0 67 -68l15 -1022l319 1032q16 58 76 58h47z" />
    <glyph glyph-name="Ycircumflex" unicode="&#x176;" horiz-adv-x="847" 
d="M780 1546q35 0 47.5 21.5t-2.5 56.5l-67 148q-20 51 -78 51h-55q-49 0 -82 -39l-125 -154q-26 -34 -20 -59t40 -25h33q52 0 82 43l86 111l41 -98q20 -56 80 -56h20zM522 528l-82 -467q-9 -61 -73 -61h-56q-34 0 -50 18.5t-9 53.5l78 456l-129 834q-5 34 11.5 53t51.5 19
h58q65 0 71 -66l68 -627l293 641q24 52 80 52h57q40 0 54 -23t-3 -57z" />
    <glyph glyph-name="ycircumflex" unicode="&#x177;" horiz-adv-x="847" 
d="M780 1546q35 0 47.5 21.5t-2.5 56.5l-67 148q-20 51 -78 51h-55q-49 0 -82 -39l-125 -154q-26 -34 -20 -59t40 -25h33q52 0 82 43l86 111l41 -98q20 -56 80 -56h20zM522 528l-82 -467q-9 -61 -73 -61h-56q-34 0 -50 18.5t-9 53.5l78 456l-129 834q-5 34 11.5 53t51.5 19
h58q65 0 71 -66l68 -627l293 641q24 52 80 52h57q40 0 54 -23t-3 -57z" />
    <glyph glyph-name="Ydieresis" unicode="&#x178;" horiz-adv-x="847" 
d="M502 1751q34 0 50.5 -19.5t10.5 -54.5l-14 -69q-9 -62 -74 -62h-43q-34 0 -50.5 18.5t-10.5 53.5l12 72q11 61 74 61h45zM817 1751q35 0 51.5 -19.5t10.5 -54.5l-13 -69q-12 -62 -73 -62h-45q-34 0 -51 18.5t-11 53.5l14 72q9 61 74 61h43zM522 528l-82 -467
q-9 -61 -73 -61h-56q-34 0 -50 18.5t-9 53.5l78 456l-129 834q-5 34 11.5 53t51.5 19h58q65 0 71 -66l68 -627l293 641q24 52 80 52h57q40 0 54 -23t-3 -57z" />
    <glyph glyph-name="Zacute" unicode="&#x179;" horiz-adv-x="755" 
d="M641 1780q28 43 80 43h61q44 0 56 -25.5t-19 -56.5l-157 -162q-33 -33 -78 -33h-9q-39 0 -51.5 22t8.5 56zM573 162q34 0 51 -18.5t11 -53.5l-6 -29q-9 -61 -72 -61h-526q-34 0 -51 18.5t-11 53.5l4 20q8 45 29 80l621 1100h-342q-34 0 -51 19t-11 52l4 29q9 62 74 62
h485q35 0 51.5 -19t10.5 -53l-4 -21q-8 -41 -27 -79l-620 -1100h380z" />
    <glyph glyph-name="zacute" unicode="&#x17a;" horiz-adv-x="755" 
d="M641 1780q28 43 80 43h61q44 0 56 -25.5t-19 -56.5l-157 -162q-33 -33 -78 -33h-9q-39 0 -51.5 22t8.5 56zM573 162q34 0 51 -18.5t11 -53.5l-6 -29q-9 -61 -72 -61h-526q-34 0 -51 18.5t-11 53.5l4 20q8 45 29 80l621 1100h-342q-34 0 -51 19t-11 52l4 29q9 62 74 62
h485q35 0 51.5 -19t10.5 -53l-4 -21q-8 -41 -27 -79l-620 -1100h380z" />
    <glyph glyph-name="Zdotaccent" unicode="&#x17b;" horiz-adv-x="755" 
d="M629 1751q34 0 50.5 -19.5t10.5 -54.5l-14 -69q-9 -62 -72 -62h-45q-34 0 -50.5 18.5t-10.5 53.5l14 72q9 61 72 61h45zM573 162q34 0 51 -18.5t11 -53.5l-6 -29q-9 -61 -72 -61h-526q-34 0 -51 18.5t-11 53.5l4 20q8 45 29 80l621 1100h-342q-34 0 -51 19t-11 52l4 29
q9 62 74 62h485q35 0 51.5 -19t10.5 -53l-4 -21q-8 -41 -27 -79l-620 -1100h380z" />
    <glyph glyph-name="zdotaccent" unicode="&#x17c;" horiz-adv-x="755" 
d="M629 1751q34 0 50.5 -19.5t10.5 -54.5l-14 -69q-9 -62 -72 -62h-45q-34 0 -50.5 18.5t-10.5 53.5l14 72q9 61 72 61h45zM573 162q34 0 51 -18.5t11 -53.5l-6 -29q-9 -61 -72 -61h-526q-34 0 -51 18.5t-11 53.5l4 20q8 45 29 80l621 1100h-342q-34 0 -51 19t-11 52l4 29
q9 62 74 62h485q35 0 51.5 -19t10.5 -53l-4 -21q-8 -41 -27 -79l-620 -1100h380z" />
    <glyph glyph-name="Zcaron" unicode="&#x17d;" horiz-adv-x="755" 
d="M811 1741q26 34 21 58t-39 24h-35q-54 0 -82 -43l-84 -111l-43 100q-18 54 -78 54h-14q-38 0 -53 -21.5t-1 -56.5l70 -148q20 -51 78 -51h55q49 0 82 41zM573 162q34 0 51 -18.5t11 -53.5l-6 -29q-9 -61 -72 -61h-526q-34 0 -51 18.5t-11 53.5l4 20q8 45 29 80l621 1100
h-342q-34 0 -51 19t-11 52l4 29q9 62 74 62h485q35 0 51.5 -19t10.5 -53l-4 -21q-8 -41 -27 -79l-620 -1100h380z" />
    <glyph glyph-name="zcaron" unicode="&#x17e;" horiz-adv-x="755" 
d="M811 1741q26 34 21 58t-39 24h-35q-54 0 -82 -43l-84 -111l-43 100q-18 54 -78 54h-14q-38 0 -53 -21.5t-1 -56.5l70 -148q20 -51 78 -51h55q49 0 82 41zM573 162q34 0 51 -18.5t11 -53.5l-6 -29q-9 -61 -72 -61h-526q-34 0 -51 18.5t-11 53.5l4 20q8 45 29 80l621 1100
h-342q-34 0 -51 19t-11 52l4 29q9 62 74 62h485q35 0 51.5 -19t10.5 -53l-4 -21q-8 -41 -27 -79l-620 -1100h380z" />
    <glyph glyph-name="florin" unicode="&#x192;" horiz-adv-x="704" 
d="M766 1434q30 0 44.5 -18t8.5 -48l-8 -49q-8 -55 -63 -55h-15q-78 0 -122.5 -39t-61.5 -131l-45 -260h121q35 0 49.5 -22t1.5 -56l-14 -37q-18 -53 -76 -53h-113l-63 -363q-29 -157 -124 -230t-266 -73h-10q-31 0 -45 17.5t-8 48.5l8 51q11 53 66 53h12q78 0 122.5 39
t61.5 131l58 326h-121q-35 0 -49.5 21.5t-1.5 55.5l14 37q19 54 76 54h110l54 296q29 159 123 231.5t266 72.5h10z" />
    <glyph glyph-name="Aringacute" unicode="&#x1fa;" horiz-adv-x="868" 
d="M870 2173q44 0 56 -25.5t-19 -56.5l-157 -162q-33 -33 -78 -33h-8q-39 0 -51.5 22t8.5 56l108 156q28 43 80 43h61zM668 1849q70 0 113.5 -43t31.5 -114q-12 -75 -64 -116.5t-137 -41.5q-72 0 -115 43.5t-30 114.5q12 75 63.5 116t137.5 41zM711 1692q6 33 -10 51t-48 18
t-55 -18t-29 -51t11 -50.5t49 -17.5t54 17.5t28 50.5zM645 1434q32 0 51 -18t19 -50l35 -1298q0 -68 -68 -68h-55q-68 0 -68 68l-2 270h-307l-100 -283q-18 -55 -78 -55h-52q-36 0 -50.5 22t-2.5 56l488 1302q22 54 77 54h113zM307 500h250l-4 692z" />
    <glyph glyph-name="aringacute" unicode="&#x1fb;" horiz-adv-x="868" 
d="M870 2173q44 0 56 -25.5t-19 -56.5l-157 -162q-33 -33 -78 -33h-8q-39 0 -51.5 22t8.5 56l108 156q28 43 80 43h61zM668 1849q70 0 113.5 -43t31.5 -114q-12 -75 -64 -116.5t-137 -41.5q-72 0 -115 43.5t-30 114.5q12 75 63.5 116t137.5 41zM711 1692q6 33 -10 51t-48 18
t-55 -18t-29 -51t11 -50.5t49 -17.5t54 17.5t28 50.5zM645 1434q32 0 51 -18t19 -50l35 -1298q0 -68 -68 -68h-55q-68 0 -68 68l-2 270h-307l-100 -283q-18 -55 -78 -55h-52q-36 0 -50.5 22t-2.5 56l488 1302q22 54 77 54h113zM307 500h250l-4 692z" />
    <glyph glyph-name="AEacute" unicode="&#x1fc;" horiz-adv-x="1275" 
d="M983 1546q-39 0 -51.5 22t8.5 56l109 156q28 43 79 43h62q44 0 56 -25.5t-19 -56.5l-158 -162q-33 -33 -78 -33h-8zM1303 1434q34 0 50.5 -19t10.5 -53l-6 -39q-12 -59 -74 -59h-350l-78 -451h274q34 0 51 -19.5t11 -54.5l-6 -37q-12 -61 -74 -61h-287l-82 -471h344
q35 0 51 -18.5t9 -53.5l-6 -37q-9 -61 -72 -61h-475q-34 0 -51 18.5t-11 53.5l48 264h-295l-135 -285q-20 -51 -80 -51h-56q-38 0 -52 23t1 57l633 1302q24 52 80 52h135v-2q6 2 23 2h469zM362 500h246l135 764h-20z" />
    <glyph glyph-name="aeacute" unicode="&#x1fd;" horiz-adv-x="1275" 
d="M983 1546q-39 0 -51.5 22t8.5 56l109 156q28 43 79 43h62q44 0 56 -25.5t-19 -56.5l-158 -162q-33 -33 -78 -33h-8zM1303 1434q34 0 50.5 -19t10.5 -53l-6 -39q-12 -59 -74 -59h-350l-78 -451h274q34 0 51 -19.5t11 -54.5l-6 -37q-12 -61 -74 -61h-287l-82 -471h344
q35 0 51 -18.5t9 -53.5l-6 -37q-9 -61 -72 -61h-475q-34 0 -51 18.5t-11 53.5l48 264h-295l-135 -285q-20 -51 -80 -51h-56q-38 0 -52 23t1 57l633 1302q24 52 80 52h135v-2q6 2 23 2h469zM362 500h246l135 764h-20z" />
    <glyph glyph-name="Oslashacute" unicode="&#x1fe;" horiz-adv-x="925" 
d="M645 1546q-39 0 -51.5 22t8.5 56l109 156q28 43 80 43h61q44 0 56 -25.5t-19 -56.5l-158 -162q-33 -33 -78 -33h-8zM637 1450q156 0 239 -76t56 -227l-152 -860q-28 -158 -125 -230.5t-276 -72.5h-17q-157 0 -239.5 76t-54.5 227l151 860q28 159 125 231t277 72h16z
M266 324q-6 -38 -6 -64l406 1012q-27 8 -68 8q-83 0 -130.5 -39t-61.5 -131zM733 1110q7 41 4 64l-403 -1012q27 -8 67 -8q83 0 129.5 39t63.5 131z" />
    <glyph glyph-name="oslashacute" unicode="&#x1ff;" horiz-adv-x="925" 
d="M645 1546q-39 0 -51.5 22t8.5 56l109 156q28 43 80 43h61q44 0 56 -25.5t-19 -56.5l-158 -162q-33 -33 -78 -33h-8zM637 1450q156 0 239 -76t56 -227l-152 -860q-28 -158 -125 -230.5t-276 -72.5h-17q-157 0 -239.5 76t-54.5 227l151 860q28 159 125 231t277 72h16z
M266 324q-6 -38 -6 -64l406 1012q-27 8 -68 8q-83 0 -130.5 -39t-61.5 -131zM733 1110q7 41 4 64l-403 -1012q27 -8 67 -8q83 0 129.5 39t63.5 131z" />
    <glyph glyph-name="Scommaaccent" unicode="&#x218;" horiz-adv-x="856" 
d="M854 989q-9 -61 -74 -61h-51q-73 0 -61 71l22 123q13 84 -18.5 122t-108.5 38q-155 0 -180 -160l-18 -98q-10 -64 6.5 -99t72.5 -71l170 -102q30 -19 51.5 -35t43.5 -36t34 -39.5t22.5 -45.5t9.5 -53.5t-5 -63.5l-37 -196q-28 -160 -120.5 -229.5t-272.5 -69.5h-4
q-76 0 -134.5 16.5t-99.5 51t-56 93.5t-1 138l31 182q12 61 76 61h51q73 0 61 -71l-24 -140q-13 -84 18.5 -123.5t108.5 -39.5q158 0 184 163l20 113q12 66 -7 103t-79 73l-166 103q-87 54 -126 118.5t-25 149.5l31 180q53 295 393 295h4q144 0 229 -74.5t58 -220.5z
M354 -143q35 0 51.5 -19.5t10.5 -54.5l-17 -96q-28 -155 -143 -291q-22 -28 -55 -8q-15 9 -17.5 23.5t9.5 29.5q67 98 92 190h-15q-34 0 -50.5 18.5t-10.5 53.5l16 92q12 62 74 62h55z" />
    <glyph glyph-name="scommaaccent" unicode="&#x219;" horiz-adv-x="856" 
d="M854 989q-9 -61 -74 -61h-51q-73 0 -61 71l22 123q13 84 -18.5 122t-108.5 38q-155 0 -180 -160l-18 -98q-10 -64 6.5 -99t72.5 -71l170 -102q30 -19 51.5 -35t43.5 -36t34 -39.5t22.5 -45.5t9.5 -53.5t-5 -63.5l-37 -196q-28 -160 -120.5 -229.5t-272.5 -69.5h-4
q-76 0 -134.5 16.5t-99.5 51t-56 93.5t-1 138l31 182q12 61 76 61h51q73 0 61 -71l-24 -140q-13 -84 18.5 -123.5t108.5 -39.5q158 0 184 163l20 113q12 66 -7 103t-79 73l-166 103q-87 54 -126 118.5t-25 149.5l31 180q53 295 393 295h4q144 0 229 -74.5t58 -220.5z
M354 -143q35 0 51.5 -19.5t10.5 -54.5l-17 -96q-28 -155 -143 -291q-22 -28 -55 -8q-15 9 -17.5 23.5t9.5 29.5q67 98 92 190h-15q-34 0 -50.5 18.5t-10.5 53.5l16 92q12 62 74 62h55z" />
    <glyph glyph-name="circumflex" unicode="&#x2c6;" horiz-adv-x="892" 
d="M803 1546q35 0 47.5 21.5t-2.5 56.5l-68 148q-20 51 -78 51h-55q-49 0 -82 -39l-125 -154q-26 -34 -19.5 -59t40.5 -25h33q51 0 81 43l87 111l40 -98q20 -56 80 -56h21z" />
    <glyph glyph-name="caron" unicode="&#x2c7;" horiz-adv-x="892" 
d="M864 1741q26 34 21 58t-39 24h-35q-54 0 -82 -43l-84 -111l-43 100q-18 54 -78 54h-14q-38 0 -52.5 -21.5t-0.5 -56.5l69 -148q20 -51 78 -51h55q49 0 82 41z" />
    <glyph glyph-name="breve" unicode="&#x2d8;" horiz-adv-x="966" 
d="M872 1804q27 0 40.5 -14t9.5 -41l-9 -45q-29 -160 -235 -160h-25q-91 0 -141.5 41t-36.5 121l8 51q6 47 58 47h39q58 0 49 -55l-2 -14q-12 -70 55 -70h8q70 0 82 70l4 22q9 47 55 47h41z" />
    <glyph glyph-name="dotaccent" unicode="&#x2d9;" horiz-adv-x="585" 
d="M528 1751q34 0 51 -19.5t11 -54.5l-15 -69q-9 -62 -71 -62h-45q-34 0 -51 18.5t-11 53.5l15 72q9 61 71 61h45z" />
    <glyph glyph-name="ring" unicode="&#x2da;" horiz-adv-x="780" 
d="M629 1849q71 0 114 -43t31 -114q-12 -75 -64 -116.5t-137 -41.5q-72 0 -115 43.5t-30 114.5q12 75 63.5 116t137.5 41zM614 1761q-32 0 -55 -18t-29 -51t11 -50.5t49 -17.5t54 17.5t28 50.5t-10 51t-48 18z" />
    <glyph glyph-name="ogonek" unicode="&#x2db;" horiz-adv-x="804" 
d="M332 -203h14q21 3 29.5 -2.5t7.5 -23.5l-6 -31q-7 -29 -27 -39q-47 -27 -100 -27q-84 0 -115 65q-33 68 14 153.5t154 142.5l96 -35q-88 -38 -119 -105q-24 -53 6 -82q16 -16 46 -16z" />
    <glyph glyph-name="tilde" unicode="&#x2dc;" horiz-adv-x="995" 
d="M512 1583q6 36 25.5 56t46.5 20q26 0 54.5 -17.5t51 -39t58 -39t73.5 -17.5q165 0 203 211q3 18 -6 28.5t-29 10.5h-57q-35 0 -41 -29q-6 -35 -24.5 -55t-47.5 -20q-24 0 -50.5 17.5t-47.5 38.5t-55.5 38.5t-73.5 17.5q-82 0 -136.5 -51.5t-72.5 -159.5q-6 -39 33 -39h55
q35 0 41 29z" />
    <glyph glyph-name="hungarumlaut" unicode="&#x2dd;" horiz-adv-x="1536" 
d="M842 1792q36 31 73 31h31q39 0 48.5 -22t-17.5 -50l-172 -174q-31 -31 -72 -31h-33q-40 0 -49 22.5t17 51.5zM1122 1792q27 31 72 31h33q39 0 48 -22t-18 -50l-172 -174q-31 -31 -71 -31h-33q-38 0 -47.5 22.5t16.5 51.5z" />
    <glyph glyph-name="uni0326" unicode="&#x326;" horiz-adv-x="0" 
d="M-422 -143q35 0 51.5 -19.5t10.5 -54.5l-17 -96q-28 -155 -143 -291q-22 -28 -55 -8q-15 9 -18 23.5t9 29.5q67 98 92 190h-14q-34 0 -50.5 18.5t-10.5 53.5l16 92q12 62 74 62h55z" />
    <glyph glyph-name="Wgrave" unicode="&#x1e80;" horiz-adv-x="1314" 
d="M784 1823q58 0 76 -54l55 -151q12 -34 -0.5 -53t-44.5 -19h-22q-49 0 -76 43l-98 154q-21 35 -8 57.5t53 22.5h65zM1364 1434q35 0 50 -21.5t5 -56.5l-438 -1301q-18 -55 -78 -55h-57q-68 0 -68 68l-18 999l-377 -1012q-21 -55 -78 -55h-63q-68 0 -68 68l19 1298
q0 32 18.5 50t50.5 18h49q34 0 51.5 -18.5t14.5 -51.5l-43 -1020l379 1036q19 54 75 54h52q67 0 67 -68l15 -1022l319 1032q16 58 76 58h47z" />
    <glyph glyph-name="wgrave" unicode="&#x1e81;" horiz-adv-x="1314" 
d="M784 1823q58 0 76 -54l55 -151q12 -34 -0.5 -53t-44.5 -19h-22q-49 0 -76 43l-98 154q-21 35 -8 57.5t53 22.5h65zM1364 1434q35 0 50 -21.5t5 -56.5l-438 -1301q-18 -55 -78 -55h-57q-68 0 -68 68l-18 999l-377 -1012q-21 -55 -78 -55h-63q-68 0 -68 68l19 1298
q0 32 18.5 50t50.5 18h49q34 0 51.5 -18.5t14.5 -51.5l-43 -1020l379 1036q19 54 75 54h52q67 0 67 -68l15 -1022l319 1032q16 58 76 58h47z" />
    <glyph glyph-name="Wacute" unicode="&#x1e82;" horiz-adv-x="1314" 
d="M911 1780q28 43 80 43h62q44 0 56 -25.5t-19 -56.5l-158 -162q-33 -33 -78 -33h-8q-39 0 -51.5 22t8.5 56zM1364 1434q35 0 50 -21.5t5 -56.5l-438 -1301q-18 -55 -78 -55h-57q-68 0 -68 68l-18 999l-377 -1012q-21 -55 -78 -55h-63q-68 0 -68 68l19 1298q0 32 18.5 50
t50.5 18h49q34 0 51.5 -18.5t14.5 -51.5l-43 -1020l379 1036q19 54 75 54h52q67 0 67 -68l15 -1022l319 1032q16 58 76 58h47z" />
    <glyph glyph-name="wacute" unicode="&#x1e83;" horiz-adv-x="1314" 
d="M911 1780q28 43 80 43h62q44 0 56 -25.5t-19 -56.5l-158 -162q-33 -33 -78 -33h-8q-39 0 -51.5 22t8.5 56zM1364 1434q35 0 50 -21.5t5 -56.5l-438 -1301q-18 -55 -78 -55h-57q-68 0 -68 68l-18 999l-377 -1012q-21 -55 -78 -55h-63q-68 0 -68 68l19 1298q0 32 18.5 50
t50.5 18h49q34 0 51.5 -18.5t14.5 -51.5l-43 -1020l379 1036q19 54 75 54h52q67 0 67 -68l15 -1022l319 1032q16 58 76 58h47z" />
    <glyph glyph-name="Wdieresis" unicode="&#x1e84;" horiz-adv-x="1314" 
d="M741 1751q34 0 51 -19.5t11 -54.5l-15 -69q-9 -62 -73 -62h-43q-34 0 -51 18.5t-11 53.5l13 72q11 61 73 61h45zM1057 1751q35 0 51 -19.5t10 -54.5l-12 -69q-12 -62 -74 -62h-45q-34 0 -50.5 18.5t-10.5 53.5l14 72q9 61 74 61h43zM1364 1434q35 0 50 -21.5t5 -56.5
l-438 -1301q-18 -55 -78 -55h-57q-68 0 -68 68l-18 999l-377 -1012q-21 -55 -78 -55h-63q-68 0 -68 68l19 1298q0 32 18.5 50t50.5 18h49q34 0 51.5 -18.5t14.5 -51.5l-43 -1020l379 1036q19 54 75 54h52q67 0 67 -68l15 -1022l319 1032q16 58 76 58h47z" />
    <glyph glyph-name="wdieresis" unicode="&#x1e85;" horiz-adv-x="1314" 
d="M741 1751q34 0 51 -19.5t11 -54.5l-15 -69q-9 -62 -73 -62h-43q-34 0 -51 18.5t-11 53.5l13 72q11 61 73 61h45zM1057 1751q35 0 51 -19.5t10 -54.5l-12 -69q-12 -62 -74 -62h-45q-34 0 -50.5 18.5t-10.5 53.5l14 72q9 61 74 61h43zM1364 1434q35 0 50 -21.5t5 -56.5
l-438 -1301q-18 -55 -78 -55h-57q-68 0 -68 68l-18 999l-377 -1012q-21 -55 -78 -55h-63q-68 0 -68 68l19 1298q0 32 18.5 50t50.5 18h49q34 0 51.5 -18.5t14.5 -51.5l-43 -1020l379 1036q19 54 75 54h52q67 0 67 -68l15 -1022l319 1032q16 58 76 58h47z" />
    <glyph glyph-name="Ygrave" unicode="&#x1ef2;" horiz-adv-x="847" 
d="M545 1823q58 0 76 -54l55 -151q12 -34 -0.5 -53t-44.5 -19h-23q-49 0 -76 43l-98 154q-21 35 -8 57.5t53 22.5h66zM522 528l-82 -467q-9 -61 -73 -61h-56q-34 0 -50 18.5t-9 53.5l78 456l-129 834q-5 34 11.5 53t51.5 19h58q65 0 71 -66l68 -627l293 641q24 52 80 52h57
q40 0 54 -23t-3 -57z" />
    <glyph glyph-name="ygrave" unicode="&#x1ef3;" horiz-adv-x="847" 
d="M545 1823q58 0 76 -54l55 -151q12 -34 -0.5 -53t-44.5 -19h-23q-49 0 -76 43l-98 154q-21 35 -8 57.5t53 22.5h66zM522 528l-82 -467q-9 -61 -73 -61h-56q-34 0 -50 18.5t-9 53.5l78 456l-129 834q-5 34 11.5 53t51.5 19h58q65 0 71 -66l68 -627l293 641q24 52 80 52h57
q40 0 54 -23t-3 -57z" />
    <glyph glyph-name="endash" unicode="&#x2013;" horiz-adv-x="729" 
d="M659 811q35 0 51.5 -19.5t10.5 -54.5l-4 -20q-9 -62 -72 -62h-498q-35 0 -51 19.5t-10 54.5l4 21q9 61 72 61h497z" />
    <glyph glyph-name="emdash" unicode="&#x2014;" horiz-adv-x="1036" 
d="M967 813q35 0 52 -19.5t11 -54.5l-6 -24q-9 -62 -72 -62h-805q-35 0 -52 19.5t-11 54.5l6 25q9 61 72 61h805z" />
    <glyph glyph-name="quoteleft" unicode="&#x2018;" horiz-adv-x="368" 
d="M244 967q-35 0 -51.5 19t-10.5 54l17 97q28 154 143 290q22 29 55 9q15 -9 18 -24t-9 -30q-69 -100 -93 -190h15q34 0 50.5 -18.5t10.5 -53.5l-16 -92q-12 -61 -74 -61h-55z" />
    <glyph glyph-name="quoteright" unicode="&#x2019;" horiz-adv-x="368" 
d="M369 1434q35 0 51 -19.5t10 -54.5l-16 -96q-28 -154 -144 -291q-22 -28 -55 -8q-15 9 -17.5 23.5t9.5 29.5q67 98 92 190h-14q-34 0 -51 18.5t-11 53.5l17 92q12 62 73 62h56z" />
    <glyph glyph-name="quotesinglbase" unicode="&#x201a;" horiz-adv-x="368" 
d="M156 225q73 0 61 -73l-16 -97q-28 -154 -144 -291q-22 -28 -55 -8q-15 9 -17.5 24t9.5 30q67 98 92 190h-14q-34 0 -51 18.5t-11 53.5l17 92q12 61 73 61h56z" />
    <glyph glyph-name="quotedblleft" unicode="&#x201c;" horiz-adv-x="638" 
d="M244 967q-35 0 -51.5 19t-10.5 54l17 97q28 154 143 290q22 29 55 9q15 -9 18 -24t-9 -30q-69 -100 -93 -190h15q34 0 50.5 -18.5t10.5 -53.5l-16 -92q-12 -61 -74 -61h-55zM514 967q-73 0 -61 73l16 97q28 154 143 290q23 29 56 9q15 -9 17.5 -24t-9.5 -30
q-67 -98 -92 -190h14q34 0 50.5 -18.5t10.5 -53.5l-16 -92q-12 -61 -74 -61h-55z" />
    <glyph glyph-name="quotedblright" unicode="&#x201d;" horiz-adv-x="638" 
d="M369 1434q35 0 51 -19.5t10 -54.5l-16 -96q-28 -154 -144 -291q-22 -28 -55 -8q-15 9 -17.5 23.5t9.5 29.5q67 98 92 190h-14q-34 0 -51 18.5t-11 53.5l17 92q12 62 73 62h56zM639 1434q35 0 51 -19.5t10 -54.5l-16 -96q-28 -155 -143 -291q-22 -28 -56 -8
q-15 9 -17.5 23.5t9.5 29.5q67 98 92 190h-14q-34 0 -50.5 18.5t-10.5 53.5l16 92q12 62 74 62h55z" />
    <glyph glyph-name="quotedblbase" unicode="&#x201e;" horiz-adv-x="638" 
d="M156 225q73 0 61 -73l-16 -97q-28 -154 -144 -291q-22 -28 -55 -8q-15 9 -17.5 24t9.5 30q67 98 92 190h-14q-34 0 -51 18.5t-11 53.5l17 92q12 61 73 61h56zM426 225q73 0 61 -73l-16 -97q-28 -155 -143 -291q-22 -28 -56 -8q-15 9 -17.5 24t9.5 30q67 98 92 190h-14
q-34 0 -50.5 18.5t-10.5 53.5l16 92q12 61 74 61h55z" />
    <glyph glyph-name="dagger" unicode="&#x2020;" horiz-adv-x="675" 
d="M662 1024q34 0 50.5 -19t10.5 -53l-4 -22q-12 -62 -74 -62h-160l-143 -807q-9 -61 -74 -61h-30q-35 0 -51 18.5t-9 53.5l139 796h-149q-34 0 -51 19.5t-11 54.5l5 21q9 61 73 61h160l62 348q9 62 73 62h31q34 0 50 -18.5t9 -53.5l-57 -338h150z" />
    <glyph glyph-name="daggerdbl" unicode="&#x2021;" horiz-adv-x="675" 
d="M719 930q-12 -62 -74 -62h-160l-55 -303h150q34 0 50.5 -19t10.5 -54l-4 -21q-9 -61 -72 -61h-162l-61 -349q-9 -61 -74 -61h-30q-35 0 -51 18.5t-9 53.5l58 338h-150q-34 0 -50.5 18t-10.5 53l4 23q11 61 73 61h160l55 303h-149q-34 0 -51 19.5t-11 54.5l5 21
q9 61 73 61h160l62 348q9 62 73 62h31q34 0 50 -18.5t9 -53.5l-57 -338h150q34 0 50.5 -18.5t10.5 -53.5z" />
    <glyph glyph-name="bullet" unicode="&#x2022;" horiz-adv-x="591" 
d="M365 887q149 0 122 -158q-15 -87 -55.5 -122.5t-122.5 -35.5q-158 0 -127 158q15 87 56.5 122.5t126.5 35.5z" />
    <glyph glyph-name="ellipsis" unicode="&#x2026;" horiz-adv-x="1167" 
d="M156 225q73 0 61 -73l-16 -91q-9 -61 -72 -61h-57q-34 0 -51 18.5t-11 53.5l17 92q12 61 73 61h56zM555 225q73 0 61 -73l-16 -91q-9 -61 -72 -61h-57q-34 0 -50.5 18.5t-10.5 53.5l16 92q12 61 74 61h55zM954 225q35 0 51.5 -19t10.5 -54l-17 -91q-9 -61 -71 -61h-58
q-34 0 -50.5 18.5t-10.5 53.5l16 92q12 61 74 61h55z" />
    <glyph glyph-name="perthousand" unicode="&#x2030;" horiz-adv-x="1499" 
d="M436 1442q67 0 111 -43.5t28 -128.5l-47 -266q-14 -89 -66.5 -131t-131.5 -42h-33q-69 0 -113 43.5t-30 129.5l47 266q32 172 202 172h33zM1020 1434q24 0 31 -16.5t-7 -39.5l-866 -1347q-16 -31 -55 -31h-19q-27 0 -35.5 16t5.5 39l866 1348q16 31 55 31h25zM459 1247
q14 86 -49 86h-21q-64 0 -78 -86l-39 -221q-16 -86 47 -86h21q64 0 80 86zM825 602q67 0 111.5 -43.5t28.5 -128.5l-47 -266q-14 -88 -67.5 -130t-133.5 -42h-33q-69 0 -112 43t-29 129l47 266q32 172 203 172h32zM1278 602q67 0 111 -43.5t28 -128.5l-45 -266
q-17 -88 -70.5 -130t-132.5 -42h-32q-69 0 -112.5 43t-29.5 129l47 266q32 172 203 172h33zM848 408q14 86 -49 86h-21q-64 0 -78 -86l-38 -222q-16 -86 47 -86h20q64 0 80 86zM1300 408q14 86 -49 86h-20q-64 0 -78 -86l-39 -222q-16 -86 47 -86h21q64 0 80 86z" />
    <glyph glyph-name="guilsinglleft" unicode="&#x2039;" horiz-adv-x="458" 
d="M440 889q35 25 43 69l9 50q8 41 -14 55t-56 -12l-313 -246q-37 -27 -43 -70l-3 -16q-8 -47 25 -80l219 -240q26 -28 51 -21t31 44l8 51q9 49 -24 82l-156 164z" />
    <glyph glyph-name="guilsinglright" unicode="&#x203a;" horiz-adv-x="458" 
d="M137 977q-8 -47 25 -80l153 -166l-221 -170q-19 -14 -29 -28.5t-14 -38.5l-8 -52q-7 -43 14.5 -56t55.5 13l313 246q37 27 43 70l2 16q8 47 -25 80l-219 240q-26 28 -50 20.5t-30 -45.5z" />
    <glyph glyph-name="fraction" unicode="&#x2044;" horiz-adv-x="188" 
d="M436 1401q17 33 58 33h12q28 0 37.5 -16.5t-4.5 -41.5l-717 -1343q-17 -33 -55 -33h-13q-28 0 -37.5 16t2.5 41z" />
    <glyph glyph-name="Euro" unicode="&#x20ac;" horiz-adv-x="925" 
d="M645 1450q75 0 134.5 -18.5t100.5 -55t57.5 -95t2.5 -134.5l-35 -195q-9 -61 -74 -61h-55q-34 0 -50.5 18.5t-10.5 53.5l26 147q15 92 -16.5 131t-112.5 39t-126 -39.5t-60 -130.5l-39 -217h182q43 0 37 -43l-4 -21q-6 -36 -43 -36h-188l-23 -119h182q43 0 37 -45l-4 -19
q-3 -37 -41 -37h-190l-45 -249q-17 -91 15 -130.5t114 -39.5q80 0 124.5 39t61.5 131l35 192q9 62 72 62h55q36 0 52.5 -18.5t10.5 -53.5l-39 -219q-27 -160 -124 -231.5t-277 -71.5h-4q-76 0 -135 17t-101 52.5t-58 95t-1 138.5l51 286h-76q-42 0 -36 43l4 21q6 37 43 37
h82l22 119h-76q-42 0 -36 45l4 18q5 37 43 37h82l45 254q26 155 124 229t277 74h4z" />
    <glyph glyph-name="uni2120" unicode="&#x2120;" horiz-adv-x="823" 
d="M457 1272q-6 -27 -33 -27h-25q-31 0 -28 31l8 33q4 31 -5.5 44t-35.5 13q-51 0 -59 -57l-7 -29q-4 -27 3 -40t36 -34l64 -43q59 -39 45 -106l-10 -64q-21 -121 -158 -121q-62 0 -93.5 30.5t-19.5 90.5l11 58q3 26 30 26h25q15 0 22 -8t4 -22l-6 -41q-6 -33 3 -45.5
t36 -12.5q28 0 43 13t21 45l6 34q4 27 -6.5 41t-44.5 37l-58 41q-52 37 -39 107l11 57q10 58 50 88.5t105 30.5q57 0 90 -31.5t23 -87.5zM809 1208l-115 -221q-11 -20 -35 -20q-23 0 -26 26l-37 215l-51 -301q-6 -26 -33 -26h-27q-14 0 -21.5 8.5t-4.5 21.5l86 496
q1 12 11 19.5t22 7.5h24q28 0 31 -27l49 -301l154 305q9 23 32 23h31q15 0 22.5 -8.5t4.5 -22.5l-84 -496q-6 -26 -33 -26h-25q-31 0 -28 30z" />
    <glyph glyph-name="trademark" unicode="&#x2122;" horiz-adv-x="792" 
d="M432 1434q15 0 21.5 -8.5t3.5 -22.5l-2 -21q-1 -13 -10.5 -20.5t-22.5 -7.5h-62l-77 -447q-6 -26 -33 -26h-29q-31 0 -28 30l77 443h-57q-15 0 -22.5 9t-4.5 23l4 21q1 12 10 19.5t21 7.5h211zM778 1208l-114 -221q-11 -20 -35 -20t-27 26l-37 215l-51 -301
q-6 -26 -33 -26h-26q-14 0 -22 8.5t-5 21.5l86 496q1 12 11 19.5t22 7.5h24q28 0 31 -27l49 -301l152 305q11 23 35 23h30q15 0 22.5 -8.5t4.5 -22.5l-84 -496q-7 -26 -33 -26h-24q-32 0 -29 30z" />
    <glyph glyph-name="uni2153" unicode="&#x2153;" horiz-adv-x="1085" 
d="M780 1401q17 33 58 33h12q28 0 37.5 -16.5t-4.5 -41.5l-717 -1343q-17 -33 -55 -33h-13q-28 0 -37.5 16t2.5 41zM240 610q-9 -45 -52 -45h-36q-25 0 -37.5 14.5t-8.5 38.5l123 701q3 17 13 22q28 25 47 62q19 31 47 31h4q43 0 37 -43zM1012 582q-10 -59 -29.5 -88
t-56.5 -43q28 -12 39 -45.5t2 -77.5l-27 -150q-14 -92 -67.5 -141t-157.5 -49h-31q-86 0 -130.5 51.5t-29.5 138.5l15 82q9 45 53 45h35q25 0 37 -14t8 -39l-8 -57q-17 -86 51 -86h10q70 0 84 86l22 127q11 65 -53 65h-55q-54 0 -45 53l4 23q6 43 53 43h51q79 0 93 78l14 86
q14 86 -53 86h-13q-35 0 -55 -20t-27 -66l-8 -45q-6 -45 -53 -45h-35q-51 0 -45 53l10 53q16 97 69.5 144t166.5 47h10q94 0 140.5 -50t29.5 -141z" />
    <glyph glyph-name="uni2154" unicode="&#x2154;" horiz-adv-x="1325" 
d="M252 1112q-51 0 -45 53l18 97q18 96 70.5 140t163.5 44h2q94 0 142.5 -47.5t31.5 -136.5l-17 -95q-3 -16 -8.5 -32t-10 -28t-15 -26.5t-16.5 -23.5t-21 -24l-21.5 -21.5t-26.5 -22.5t-27 -21.5t-31 -23.5t-31 -24q-75 -60 -105.5 -92.5t-36.5 -65.5l-12 -74h223
q25 0 37 -13.5t8 -37.5l-4 -23q-6 -45 -53 -45h-315q-25 0 -37 14.5t-9 39.5l27 141q5 32 19.5 62t30.5 52.5t47 51t53 46t65 50.5q90 70 107 90q21 24 26 53l15 76q8 43 -6 62.5t-54 19.5q-37 0 -56.5 -19.5t-27.5 -62.5l-14 -88q-9 -45 -53 -45h-33zM1020 1401
q17 33 57 33h13q28 0 37 -16.5t-5 -41.5l-716 -1343q-17 -33 -56 -33h-12q-28 0 -37.5 16t2.5 41zM1251 582q-10 -59 -29.5 -88t-56.5 -43q27 -12 38 -45t3 -78l-26 -150q-16 -93 -69 -141.5t-157 -48.5h-30q-86 0 -131.5 52t-28.5 138l14 82q9 45 53 45h35q25 0 37 -14
t8 -39l-8 -57q-17 -86 51 -86h11q70 0 84 86l22 127q11 65 -53 65h-55q-54 0 -45 53l4 23q6 43 53 43h51q40 0 61.5 18.5t30.5 59.5l15 86q17 86 -54 86h-12q-35 0 -55 -20t-27 -66l-8 -45q-6 -45 -53 -45h-35q-51 0 -45 53l10 53q16 97 69.5 144t166.5 47h10
q94 0 140.5 -50t29.5 -141z" />
    <glyph glyph-name="uni2155" unicode="&#x2155;" horiz-adv-x="1120" 
d="M780 1401q17 33 58 33h12q28 0 37.5 -16.5t-4.5 -41.5l-717 -1343q-17 -33 -55 -33h-13q-28 0 -37.5 16t2.5 41zM240 610q-9 -45 -52 -45h-36q-25 0 -37.5 14.5t-8.5 38.5l123 701q3 17 13 22q28 25 47 62q19 31 47 31h4q43 0 37 -43zM1071 788q-6 -45 -51 -45h-221
l-37 -204q44 41 110 41q72 0 114 -48.5t28 -130.5l-41 -229q-16 -94 -70 -139t-168 -45h-4q-96 0 -141.5 47.5t-30.5 136.5l19 104q9 43 53 43h33q52 0 43 -51l-15 -80q-7 -43 7.5 -62.5t52.5 -19.5q39 0 59.5 19.5t28.5 62.5l34 197q7 40 -5 57t-42 17q-40 0 -79 -39
q-19 -22 -41 -14l-54 14q-43 12 -37 57l62 342q6 45 51 45h303q25 0 36.5 -14t6.5 -39z" />
    <glyph glyph-name="uni2156" unicode="&#x2156;" horiz-adv-x="1359" 
d="M252 1112q-51 0 -45 53l18 97q18 96 70.5 140t163.5 44h2q94 0 142.5 -47.5t31.5 -136.5l-17 -95q-3 -16 -8.5 -32t-10 -28t-15 -26.5t-16.5 -23.5t-21 -24l-21.5 -21.5t-26.5 -22.5t-27 -21.5t-31 -23.5t-31 -24q-75 -60 -105.5 -92.5t-36.5 -65.5l-12 -74h223
q25 0 37 -13.5t8 -37.5l-4 -23q-6 -45 -53 -45h-315q-25 0 -37 14.5t-9 39.5l27 141q5 32 19.5 62t30.5 52.5t47 51t53 46t65 50.5q90 70 107 90q21 24 26 53l15 76q8 43 -6 62.5t-54 19.5q-37 0 -56.5 -19.5t-27.5 -62.5l-14 -88q-9 -45 -53 -45h-33zM1020 1401
q17 33 57 33h13q28 0 37 -16.5t-5 -41.5l-716 -1343q-17 -33 -56 -33h-12q-28 0 -37.5 16t2.5 41zM1311 788q-6 -45 -51 -45h-222l-37 -204q44 41 111 41q72 0 113.5 -48.5t27.5 -130.5l-41 -229q-16 -94 -69.5 -139t-167.5 -45h-4q-96 0 -141.5 47.5t-30.5 136.5l18 104
q9 43 53 43h33q52 0 43 -51l-14 -80q-7 -43 7 -62.5t52 -19.5q39 0 59.5 19.5t28.5 62.5l35 197q7 40 -5 57t-42 17q-41 0 -80 -39q-19 -22 -41 -14l-53 14q-43 12 -37 57l62 342q6 45 51 45h303q25 0 36.5 -14t6.5 -39z" />
    <glyph glyph-name="uni2157" unicode="&#x2157;" horiz-adv-x="1345" 
d="M616 1151q-10 -59 -29.5 -88t-56.5 -43q27 -12 38 -45t3 -78l-26 -149q-16 -93 -69 -142t-157 -49h-30q-86 0 -131.5 52.5t-28.5 138.5l14 81q9 45 54 45h34q25 0 37 -14t8 -39l-8 -57q-17 -86 51 -86h11q70 0 84 86l22 127q11 65 -53 65h-55q-25 0 -37 14t-8 40l4 22
q6 43 53 43h51q40 0 61.5 18.5t30.5 59.5l15 86q17 86 -54 86h-12q-35 0 -55 -20t-27 -66l-8 -45q-6 -45 -53 -45h-35q-51 0 -45 53l10 53q16 97 69.5 144t166.5 47h10q94 0 140.5 -50t29.5 -141zM1006 1401q17 33 57 33h12q28 0 37.5 -16.5t-4.5 -41.5l-717 -1343
q-17 -33 -55 -33h-12q-28 0 -37.5 16t2.5 41zM1296 788q-6 -45 -51 -45h-221l-37 -204q44 41 111 41q72 0 113.5 -48.5t27.5 -130.5l-41 -229q-16 -94 -69.5 -139t-167.5 -45h-5q-96 0 -141.5 47.5t-30.5 136.5l19 104q9 43 53 43h33q52 0 43 -51l-14 -80q-7 -43 7 -62.5
t52 -19.5q40 0 61 19.5t27 62.5l35 197q7 40 -5 57t-42 17q-41 0 -80 -39q-19 -22 -41 -14l-53 14q-43 12 -37 57l61 342q6 45 51 45h303q25 0 36.5 -14t6.5 -39z" />
    <glyph glyph-name="uni2158" unicode="&#x2158;" horiz-adv-x="1361" 
d="M580 1434q24 0 36 -14.5t9 -39.5l-88 -493h14q49 0 43 -51l-4 -27q-9 -43 -55 -43h-19l-29 -156q-6 -45 -53 -45h-37q-51 0 -45 53l27 148h-191q-54 0 -45 53l4 33q4 22 21 55l278 492q17 35 60 35h74zM1022 1401q17 33 57 33h13q28 0 37 -16.5t-5 -41.5l-716 -1343
q-17 -33 -56 -33h-12q-28 0 -37.5 16t2.5 41zM463 1233l-189 -346h127zM1313 788q-6 -45 -51 -45h-224l-34 -204q44 41 110 41q72 0 113.5 -48.5t27.5 -130.5l-41 -229q-16 -94 -69.5 -139t-167.5 -45h-4q-97 0 -143 48t-29 136l18 104q9 43 53 43h33q52 0 43 -51l-14 -80
q-8 -43 6 -62.5t53 -19.5t59.5 19.5t28.5 62.5l35 197q13 74 -47 74q-41 0 -80 -39q-19 -22 -41 -14l-53 14q-43 11 -37 57l60 342q9 45 53 45h301q26 0 38 -14t7 -39z" />
    <glyph glyph-name="uni2159" unicode="&#x2159;" horiz-adv-x="1124" 
d="M780 1401q17 33 58 33h12q28 0 37.5 -16.5t-4.5 -41.5l-717 -1343q-17 -33 -55 -33h-13q-28 0 -37.5 16t2.5 41zM240 610q-9 -45 -52 -45h-36q-25 0 -37.5 14.5t-8.5 38.5l123 701q3 17 13 22q28 25 47 62q19 31 47 31h4q43 0 37 -43zM1063 653q-6 -35 -53 -35h-33
q-25 0 -37 15t-8 41q7 45 -7 64.5t-53 19.5q-40 0 -61 -19.5t-29 -62.5l-34 -191q42 54 120 54q72 0 112.5 -48.5t27.5 -130.5l-33 -188q-18 -94 -71.5 -139t-166.5 -45h-4q-97 0 -143 48t-29 136l92 520q14 94 68.5 139.5t169.5 45.5h4q95 0 142 -48.5t32 -136.5zM817 418
q-82 0 -94 -74l-27 -156q-8 -43 6 -62.5t54 -19.5q39 0 59.5 19.5t28.5 62.5l28 156q7 41 -7 57.5t-48 16.5z" />
    <glyph glyph-name="uni215A" unicode="&#x215a;" horiz-adv-x="1357" 
d="M641 1358q-6 -45 -51 -45h-223l-35 -205q44 41 110 41q72 0 114 -48t28 -130l-41 -230q-16 -94 -70 -139t-168 -45h-4q-97 0 -143 48t-29 136l18 105q9 43 54 43h32q52 0 43 -51l-14 -80q-8 -43 6 -62.5t54 -19.5q39 0 59.5 19.5t28.5 62.5l34 196q7 40 -5 57t-42 17
q-41 0 -80 -39q-19 -22 -41 -14l-53 14q-43 11 -37 58l60 342q9 45 53 45h301q26 0 38 -14.5t7 -39.5zM1014 1401q17 33 57 33h12q28 0 37.5 -16.5t-4.5 -41.5l-717 -1343q-17 -33 -55 -33h-12q-28 0 -37.5 16t2.5 41zM1294 653q-6 -35 -53 -35h-33q-25 0 -36.5 15t-6.5 41
q7 45 -7 64.5t-54 19.5t-61 -19.5t-29 -62.5l-33 -191q39 54 119 54q72 0 112.5 -48.5t26.5 -130.5l-33 -188q-16 -94 -69.5 -139t-167.5 -45h-4q-96 0 -141.5 47.5t-30.5 136.5l92 520q16 94 70 139.5t169 45.5h4q96 0 144 -48.5t31 -136.5zM1049 418q-80 0 -95 -74
l-26 -156q-8 -43 6 -62.5t53 -19.5t59.5 19.5t28.5 62.5l29 156q7 41 -7 57.5t-48 16.5z" />
    <glyph glyph-name="oneeighth" unicode="&#x215b;" horiz-adv-x="1101" 
d="M780 1401q17 33 58 33h12q28 0 37.5 -16.5t-4.5 -41.5l-717 -1343q-17 -33 -55 -33h-13q-28 0 -37.5 16t2.5 41zM240 610q-9 -45 -52 -45h-36q-25 0 -37.5 14.5t-8.5 38.5l123 701q3 17 13 22q28 25 47 62q19 31 47 31h4q43 0 37 -43zM887 877q86 0 130 -51.5t27 -139.5
l-18 -104q-17 -112 -96 -133q31 -15 43.5 -53.5t3.5 -92.5l-23 -125q-14 -94 -66 -142t-157 -48h-39q-86 0 -129 51t-28 139l22 125q23 119 105 146q-35 10 -50 46t-6 87l19 104q18 95 69 143t154 48h39zM893 580l16 90q11 86 -51 86h-22q-64 0 -78 -86l-17 -90
q-14 -74 50 -74h22q67 0 80 74zM825 195l21 118q11 74 -53 74h-23q-62 0 -76 -74l-20 -118q-14 -86 49 -86h22q63 0 80 86z" />
    <glyph glyph-name="threeeighths" unicode="&#x215c;" horiz-adv-x="1327" 
d="M616 1151q-10 -59 -29.5 -88t-56.5 -43q27 -12 38 -45t3 -78l-26 -149q-16 -93 -69 -142t-157 -49h-30q-86 0 -131.5 52.5t-28.5 138.5l14 81q9 45 54 45h34q25 0 37 -14t8 -39l-8 -57q-17 -86 51 -86h11q70 0 84 86l22 127q11 65 -53 65h-55q-25 0 -37 14t-8 40l4 22
q6 43 53 43h51q40 0 61.5 18.5t30.5 59.5l15 86q17 86 -54 86h-12q-35 0 -55 -20t-27 -66l-8 -45q-6 -45 -53 -45h-35q-51 0 -45 53l10 53q16 97 69.5 144t166.5 47h10q94 0 140.5 -50t29.5 -141zM1006 1401q17 33 57 33h12q28 0 37.5 -16.5t-4.5 -41.5l-717 -1343
q-17 -33 -55 -33h-12q-28 0 -37.5 16t2.5 41zM1112 877q86 0 130.5 -51.5t27.5 -139.5l-19 -104q-17 -112 -96 -133q31 -15 43.5 -53.5t3.5 -92.5l-22 -125q-16 -94 -68 -142t-156 -48h-38q-86 0 -129.5 51t-28.5 139l22 125q23 119 105 146q-35 10 -50 46t-6 87l19 104
q18 95 69 143t154 48h39zM1118 580l17 90q14 86 -52 86h-22q-64 0 -78 -86l-16 -90q-14 -74 49 -74h22q67 0 80 74zM1051 195l20 118q11 74 -53 74h-23q-61 0 -75 -74l-21 -118q-14 -86 49 -86h23q63 0 80 86z" />
    <glyph glyph-name="fiveeighths" unicode="&#x215d;" horiz-adv-x="1335" 
d="M641 1358q-6 -45 -51 -45h-223l-35 -205q44 41 110 41q72 0 114 -48t28 -130l-41 -230q-16 -94 -70 -139t-168 -45h-4q-97 0 -143 48t-29 136l18 105q9 43 54 43h32q52 0 43 -51l-14 -80q-8 -43 6 -62.5t54 -19.5q39 0 59.5 19.5t28.5 62.5l34 196q7 40 -5 57t-42 17
q-41 0 -80 -39q-19 -22 -41 -14l-53 14q-43 11 -37 58l60 342q9 45 53 45h301q26 0 38 -14.5t7 -39.5zM1014 1401q17 33 57 33h12q28 0 37.5 -16.5t-4.5 -41.5l-717 -1343q-17 -33 -55 -33h-12q-28 0 -37.5 16t2.5 41zM1120 877q86 0 130.5 -51.5t27.5 -139.5l-18 -104
q-17 -112 -97 -133q31 -15 43.5 -53.5t3.5 -92.5l-22 -125q-16 -94 -67.5 -142t-155.5 -48h-39q-86 0 -129.5 51t-28.5 139l23 125q23 119 104 146q-35 10 -49.5 46t-5.5 87l18 104q18 95 69 143t154 48h39zM1126 580l17 90q14 86 -51 86h-23q-64 0 -78 -86l-16 -90
q-14 -74 49 -74h23q66 0 79 74zM1059 195l20 118q11 74 -53 74h-22q-62 0 -76 -74l-21 -118q-14 -86 49 -86h23q63 0 80 86z" />
    <glyph glyph-name="seveneighths" unicode="&#x215e;" horiz-adv-x="1187" 
d="M868 1401q17 33 58 33h12q28 0 37.5 -16.5t-4.5 -41.5l-717 -1343q-17 -33 -55 -33h-13q-28 0 -37 16t3 41zM616 1354q-6 -35 -18 -60l-307 -692q-14 -37 -58 -37h-34q-26 0 -36.5 16.5t1.5 41.5l309 690h-188q-25 0 -37 14t-8 39l2 23q9 45 55 45h278q25 0 37.5 -14.5
t8.5 -39.5zM975 877q86 0 130.5 -51.5t27.5 -139.5l-19 -104q-20 -112 -96 -133q31 -15 43.5 -53.5t3.5 -92.5l-23 -125q-16 -94 -67.5 -142t-155.5 -48h-39q-86 0 -130 51t-27 139l22 125q20 119 103 146q-34 11 -48.5 46.5t-5.5 86.5l19 104q16 95 67.5 143t155.5 48h39z
M979 580l16 90q14 86 -49 86h-22q-64 0 -78 -86l-17 -90q-14 -74 50 -74h22q67 0 78 74zM911 195l21 118q13 74 -51 74h-23q-65 0 -76 -74l-20 -118q-14 -86 47 -86h22q66 0 80 86z" />
    <glyph glyph-name="minus" unicode="&#x2212;" horiz-adv-x="860" 
d="M741 807q34 0 51 -18.5t11 -53.5l-2 -12q-11 -61 -74 -61h-528q-74 0 -62 71l2 12q9 62 72 62h530z" />
    <glyph glyph-name="notequal" unicode="&#x2260;" horiz-adv-x="860" 
d="M770 977q35 0 52.5 -20t11.5 -54l-3 -12q-4 -29 -24 -45.5t-49 -16.5h-183l-98 -192h234q35 0 52 -19.5t11 -54.5l-2 -12q-12 -62 -74 -62h-295l-141 -278q-17 -33 -55 -33h-12q-26 0 -36 16t1 39l129 256h-121q-35 0 -51.5 19.5t-10.5 54.5l3 10q9 64 71 64h182l99 192
h-234q-35 0 -51 20t-10 54l2 10q9 64 74 64h293l141 278q17 33 55 33h12q26 0 36 -16t-1 -39l-129 -256h121z" />
    <glyph glyph-name="A.ss01" 
d="M629 1450q157 0 237 -74t54 -229l-193 -1086q-9 -61 -74 -61h-55q-34 0 -50.5 18.5t-10.5 53.5l75 422h-311l-78 -433q-11 -61 -73 -61h-56q-34 0 -50.5 18.5t-10.5 53.5l190 1075q27 161 122.5 232t275.5 71h8zM721 1110q15 93 -15.5 131.5t-111.5 38.5q-83 0 -126 -38
t-58 -132l-80 -444h311z" />
    <glyph glyph-name="Aacute.ss01" 
d="M641 1546q-39 0 -51.5 22t8.5 56l109 156q28 43 79 43h62q44 0 56 -25.5t-19 -56.5l-158 -162q-33 -33 -78 -33h-8zM629 1450q157 0 237 -74t54 -229l-193 -1086q-9 -61 -74 -61h-55q-34 0 -50.5 18.5t-10.5 53.5l75 422h-311l-78 -433q-11 -61 -73 -61h-56
q-34 0 -50.5 18.5t-10.5 53.5l190 1075q27 161 122.5 232t275.5 71h8zM721 1110q15 93 -15.5 131.5t-111.5 38.5q-83 0 -126 -38t-58 -132l-80 -444h311z" />
    <glyph glyph-name="Abreve.ss01" 
d="M629 1544q-91 0 -141.5 41t-36.5 121l8 51q6 47 57 47h39q58 0 49 -55l-2 -14q-12 -70 55 -70h9q70 0 82 70l4 22q9 47 55 47h41q58 0 49 -55l-8 -45q-29 -160 -236 -160h-24zM629 1450q157 0 237 -74t54 -229l-193 -1086q-9 -61 -74 -61h-55q-34 0 -50.5 18.5
t-10.5 53.5l75 422h-311l-78 -433q-11 -61 -73 -61h-56q-34 0 -50.5 18.5t-10.5 53.5l190 1075q27 161 122.5 232t275.5 71h8zM721 1110q15 93 -15.5 131.5t-111.5 38.5q-83 0 -126 -38t-58 -132l-80 -444h311z" />
    <glyph glyph-name="Acircumflex.ss01" 
d="M473 1546q-34 0 -40 25t20 59l125 154q33 39 81 39h56q58 0 78 -51l67 -148q15 -35 2.5 -56.5t-47.5 -21.5h-20q-60 0 -80 56l-41 98l-86 -111q-30 -43 -82 -43h-33zM629 1450q157 0 237 -74t54 -229l-193 -1086q-9 -61 -74 -61h-55q-34 0 -50.5 18.5t-10.5 53.5l75 422
h-311l-78 -433q-11 -61 -73 -61h-56q-34 0 -50.5 18.5t-10.5 53.5l190 1075q27 161 122.5 232t275.5 71h8zM721 1110q15 93 -15.5 131.5t-111.5 38.5q-83 0 -126 -38t-58 -132l-80 -444h311z" />
    <glyph glyph-name="Adieresis.ss01" 
d="M467 1546q-34 0 -50.5 18.5t-10.5 53.5l12 72q11 61 74 61h45q34 0 50.5 -19.5t10.5 -54.5l-14 -69q-9 -62 -74 -62h-43zM782 1546q-34 0 -50.5 18.5t-10.5 53.5l14 72q9 61 74 61h43q35 0 51 -19.5t10 -54.5l-12 -69q-12 -62 -74 -62h-45zM629 1450q157 0 237 -74
t54 -229l-193 -1086q-9 -61 -74 -61h-55q-34 0 -50.5 18.5t-10.5 53.5l75 422h-311l-78 -433q-11 -61 -73 -61h-56q-34 0 -50.5 18.5t-10.5 53.5l190 1075q27 161 122.5 232t275.5 71h8zM721 1110q15 93 -15.5 131.5t-111.5 38.5q-83 0 -126 -38t-58 -132l-80 -444h311z" />
    <glyph glyph-name="Agrave.ss01" 
d="M567 1589l-98 154q-21 35 -8 57.5t53 22.5h66q57 0 75 -54l56 -151q12 -34 -0.5 -53t-44.5 -19h-23q-49 0 -76 43zM629 1450q157 0 237 -74t54 -229l-193 -1086q-9 -61 -74 -61h-55q-34 0 -50.5 18.5t-10.5 53.5l75 422h-311l-78 -433q-11 -61 -73 -61h-56
q-34 0 -50.5 18.5t-10.5 53.5l190 1075q27 161 122.5 232t275.5 71h8zM721 1110q15 93 -15.5 131.5t-111.5 38.5q-83 0 -126 -38t-58 -132l-80 -444h311z" />
    <glyph glyph-name="Amacron.ss01" 
d="M487 1567q-35 0 -50.5 18t-8.5 53l2 23q9 61 72 61h329q33 0 49.5 -19t10.5 -52l-4 -25q-9 -59 -72 -59h-328zM629 1450q157 0 237 -74t54 -229l-193 -1086q-9 -61 -74 -61h-55q-34 0 -50.5 18.5t-10.5 53.5l75 422h-311l-78 -433q-11 -61 -73 -61h-56q-34 0 -50.5 18.5
t-10.5 53.5l190 1075q27 161 122.5 232t275.5 71h8zM721 1110q15 93 -15.5 131.5t-111.5 38.5q-83 0 -126 -38t-58 -132l-80 -444h311z" />
    <glyph glyph-name="Aogonek.ss01" 
d="M629 1450q157 0 237 -74t54 -229l-193 -1086q-9 -61 -74 -61q-88 -38 -119 -105q-24 -53 6 -82q16 -16 46 -16h14q21 3 29.5 -2.5t7.5 -23.5l-6 -31q-7 -29 -27 -39q-47 -27 -100 -27q-83 0 -115 60.5t7.5 146t144.5 146.5q-10 17 -4 45l75 422h-311l-78 -433
q-11 -61 -73 -61h-56q-34 0 -50.5 18.5t-10.5 53.5l190 1075q27 161 122.5 232t275.5 71h8zM721 1110q15 93 -15.5 131.5t-111.5 38.5q-83 0 -126 -38t-58 -132l-80 -444h311z" />
    <glyph glyph-name="Aring.ss01" 
d="M639 1534q-72 0 -115 43.5t-30 114.5q12 75 63 116t137 41q71 0 114.5 -43t31.5 -114q-12 -75 -64 -116.5t-137 -41.5zM596 1692q-6 -33 10.5 -50.5t48.5 -17.5t54 17.5t28 50.5t-9.5 51t-47.5 18t-55 -18t-29 -51zM629 1450q157 0 237 -74t54 -229l-193 -1086
q-9 -61 -74 -61h-55q-34 0 -50.5 18.5t-10.5 53.5l75 422h-311l-78 -433q-11 -61 -73 -61h-56q-34 0 -50.5 18.5t-10.5 53.5l190 1075q27 161 122.5 232t275.5 71h8zM721 1110q15 93 -15.5 131.5t-111.5 38.5q-83 0 -126 -38t-58 -132l-80 -444h311z" />
    <glyph glyph-name="Aringacute.ss01" 
d="M893 2173q44 0 56 -25.5t-19 -56.5l-158 -162q-33 -33 -78 -33h-8q-39 0 -51.5 22t8.5 56l109 156q28 43 79 43h62zM639 1534q-72 0 -115 43.5t-30 114.5q12 75 63 116t137 41q71 0 114.5 -43t31.5 -114q-12 -75 -64 -116.5t-137 -41.5zM596 1692q-6 -33 10.5 -50.5
t48.5 -17.5t54 17.5t28 50.5t-9.5 51t-47.5 18t-55 -18t-29 -51zM629 1450q157 0 237 -74t54 -229l-193 -1086q-9 -61 -74 -61h-55q-34 0 -50.5 18.5t-10.5 53.5l75 422h-311l-78 -433q-11 -61 -73 -61h-56q-34 0 -50.5 18.5t-10.5 53.5l190 1075q27 161 122.5 232t275.5 71
h8zM721 1110q15 93 -15.5 131.5t-111.5 38.5q-83 0 -126 -38t-58 -132l-80 -444h311z" />
    <glyph glyph-name="Atilde.ss01" 
d="M950 1796q20 0 29 -10.5t6 -28.5q-38 -211 -203 -211q-38 0 -73.5 17.5t-58 39t-51 39t-54.5 17.5q-27 0 -46.5 -20t-25.5 -56q-6 -29 -41 -29h-55q-39 0 -33 39q18 108 72.5 159.5t136.5 51.5q39 0 73.5 -17.5t55.5 -38.5t47.5 -38.5t50.5 -17.5q29 0 47.5 20t24.5 55
q6 29 41 29h57zM629 1450q157 0 237 -74t54 -229l-193 -1086q-9 -61 -74 -61h-55q-34 0 -50.5 18.5t-10.5 53.5l75 422h-311l-78 -433q-11 -61 -73 -61h-56q-34 0 -50.5 18.5t-10.5 53.5l190 1075q27 161 122.5 232t275.5 71h8zM721 1110q15 93 -15.5 131.5t-111.5 38.5
q-83 0 -126 -38t-58 -132l-80 -444h311z" />
    <glyph glyph-name="AE.ss01" horiz-adv-x="1267" 
d="M1294 1434q34 0 51 -19.5t11 -52.5l-6 -39q-12 -59 -74 -59h-350l-78 -451h274q34 0 51 -19.5t11 -54.5l-6 -37q-12 -61 -74 -61h-287l-82 -471h344q35 0 51 -18.5t9 -53.5l-6 -37q-9 -61 -72 -61h-475q-34 0 -51 18.5t-11 53.5l74 415h-299l-76 -426q-11 -61 -73 -61
h-56q-34 0 -50.5 18.5t-10.5 53.5l186 1058q29 161 123.5 232.5t273.5 71.5h203h6h469zM330 659h299l106 605h-145q-81 0 -124 -38.5t-60 -131.5z" />
    <glyph glyph-name="AEacute.ss01" horiz-adv-x="1267" 
d="M911 1546q-39 0 -51.5 22t8.5 56l109 156q28 43 80 43h61q44 0 56 -25.5t-19 -56.5l-158 -162q-33 -33 -77 -33h-9zM1294 1434q34 0 51 -19.5t11 -52.5l-6 -39q-12 -59 -74 -59h-350l-78 -451h274q34 0 51 -19.5t11 -54.5l-6 -37q-12 -61 -74 -61h-287l-82 -471h344
q35 0 51 -18.5t9 -53.5l-6 -37q-9 -61 -72 -61h-475q-34 0 -51 18.5t-11 53.5l74 415h-299l-76 -426q-11 -61 -73 -61h-56q-34 0 -50.5 18.5t-10.5 53.5l186 1058q29 161 123.5 232.5t273.5 71.5h203h6h469zM330 659h299l106 605h-145q-81 0 -124 -38.5t-60 -131.5z" />
    <glyph glyph-name="G.ss01" horiz-adv-x="925" 
d="M909 1010q-12 -62 -75 -62h-56q-34 0 -50.5 18.5t-10.5 53.5l16 90q15 93 -18 131.5t-117 38.5q-83 0 -130.5 -39t-61.5 -131l-140 -786q-17 -92 16.5 -131t118.5 -39q83 0 129.5 39t63.5 131l43 239h-98q-74 0 -62 72l4 33q9 59 74 59h227q74 0 62 -72l-107 -604
q-7 -57 -57 -57q-49 0 -62 57l-8 55q-69 -122 -245 -122h-17q-70 0 -126.5 17.5t-97 52.5t-56 94.5t-0.5 138.5l151 860q26 155 124.5 229t277.5 74h16q75 0 134.5 -18.5t100.5 -55t57.5 -95t2.5 -134.5z" />
    <glyph glyph-name="Gbreve.ss01" horiz-adv-x="925" 
d="M852 1804q58 0 49 -55l-8 -45q-29 -160 -236 -160h-24q-91 0 -141.5 41t-36.5 121l8 51q6 47 57 47h39q58 0 49 -55l-2 -14q-12 -70 56 -70h8q70 0 82 70l4 22q9 47 55 47h41zM909 1010q-12 -62 -75 -62h-56q-34 0 -50.5 18.5t-10.5 53.5l16 90q15 93 -18 131.5
t-117 38.5q-83 0 -130.5 -39t-61.5 -131l-140 -786q-17 -92 16.5 -131t118.5 -39q83 0 129.5 39t63.5 131l43 239h-98q-74 0 -62 72l4 33q9 59 74 59h227q74 0 62 -72l-107 -604q-7 -57 -57 -57q-49 0 -62 57l-8 55q-69 -122 -245 -122h-17q-70 0 -126.5 17.5t-97 52.5
t-56 94.5t-0.5 138.5l151 860q26 155 124.5 229t277.5 74h16q75 0 134.5 -18.5t100.5 -55t57.5 -95t2.5 -134.5z" />
    <glyph glyph-name="Gcommaaccent.ss01" horiz-adv-x="925" 
d="M909 1010q-12 -62 -75 -62h-56q-34 0 -50.5 18.5t-10.5 53.5l16 90q15 93 -18 131.5t-117 38.5q-83 0 -130.5 -39t-61.5 -131l-140 -786q-17 -92 16.5 -131t118.5 -39q83 0 129.5 39t63.5 131l43 239h-98q-74 0 -62 72l4 33q9 59 74 59h227q74 0 62 -72l-107 -604
q-7 -57 -57 -57q-49 0 -62 57l-8 55q-69 -122 -245 -122h-17q-70 0 -126.5 17.5t-97 52.5t-56 94.5t-0.5 138.5l151 860q26 155 124.5 229t277.5 74h16q75 0 134.5 -18.5t100.5 -55t57.5 -95t2.5 -134.5zM367 -143q35 0 51 -19.5t10 -54.5l-16 -96q-28 -154 -144 -291
q-22 -28 -55 -8q-15 9 -17.5 23.5t9.5 29.5q67 98 92 190h-14q-34 0 -51 18.5t-11 53.5l17 92q12 62 73 62h56z" />
    <glyph glyph-name="Gdotaccent.ss01" horiz-adv-x="925" 
d="M698 1751q34 0 51 -19.5t11 -54.5l-15 -69q-9 -62 -71 -62h-45q-34 0 -51 18.5t-11 53.5l15 72q9 61 71 61h45zM909 1010q-12 -62 -75 -62h-56q-34 0 -50.5 18.5t-10.5 53.5l16 90q15 93 -18 131.5t-117 38.5q-83 0 -130.5 -39t-61.5 -131l-140 -786q-17 -92 16.5 -131
t118.5 -39q83 0 129.5 39t63.5 131l43 239h-98q-74 0 -62 72l4 33q9 59 74 59h227q74 0 62 -72l-107 -604q-7 -57 -57 -57q-49 0 -62 57l-8 55q-69 -122 -245 -122h-17q-70 0 -126.5 17.5t-97 52.5t-56 94.5t-0.5 138.5l151 860q26 155 124.5 229t277.5 74h16
q75 0 134.5 -18.5t100.5 -55t57.5 -95t2.5 -134.5z" />
    <glyph glyph-name="M.ss01" horiz-adv-x="1392" 
d="M1180 1450q52 0 95 -17t76 -54t44 -94t-2 -138l-191 -1086q-11 -61 -74 -61h-55q-34 0 -50.5 18.5t-10.5 53.5l180 1028q35 180 -102 180q-74 0 -126 -48t-65 -132l-184 -1039q-11 -61 -74 -61h-55q-34 0 -51 18.5t-11 53.5l183 1028q33 180 -105 180q-74 0 -125.5 -48
t-64.5 -132l-185 -1039q-9 -61 -73 -61h-56q-34 0 -50.5 18.5t-10.5 53.5l229 1300q9 62 72 62h51q69 0 66 -72l-4 -39q48 67 101.5 97t139.5 30q76 0 134 -39t79 -115q52 84 118 119t157 35z" />
    <glyph glyph-name="N.ss01" horiz-adv-x="921" 
d="M731 61q-9 -61 -72 -61h-55q-73 0 -61 72l180 1028q33 180 -113 180q-76 0 -129.5 -46.5t-68.5 -133.5l-185 -1039q-9 -61 -73 -61h-56q-34 0 -50.5 18.5t-10.5 53.5l229 1300q9 62 72 62h51q33 0 50.5 -19t15.5 -53l-4 -39q47 67 104 97t147 30q114 0 181.5 -76.5
t40.5 -226.5z" />
    <glyph glyph-name="Nacute.ss01" horiz-adv-x="921" 
d="M711 1780q28 43 80 43h61q44 0 56 -25.5t-19 -56.5l-158 -162q-33 -33 -78 -33h-8q-39 0 -51.5 22t8.5 56zM731 61q-9 -61 -72 -61h-55q-73 0 -61 72l180 1028q33 180 -113 180q-76 0 -129.5 -46.5t-68.5 -133.5l-185 -1039q-9 -61 -73 -61h-56q-34 0 -50.5 18.5
t-10.5 53.5l229 1300q9 62 72 62h51q33 0 50.5 -19t15.5 -53l-4 -39q47 67 104 97t147 30q114 0 181.5 -76.5t40.5 -226.5z" />
    <glyph glyph-name="Ncaron.ss01" horiz-adv-x="921" 
d="M881 1741q26 34 20.5 58t-39.5 24h-35q-54 0 -82 -43l-83 -111l-44 100q-18 54 -77 54h-15q-38 0 -52.5 -21.5t-0.5 -56.5l70 -148q20 -51 78 -51h55q49 0 82 41zM731 61q-9 -61 -72 -61h-55q-73 0 -61 72l180 1028q33 180 -113 180q-76 0 -129.5 -46.5t-68.5 -133.5
l-185 -1039q-9 -61 -73 -61h-56q-34 0 -50.5 18.5t-10.5 53.5l229 1300q9 62 72 62h51q33 0 50.5 -19t15.5 -53l-4 -39q47 67 104 97t147 30q114 0 181.5 -76.5t40.5 -226.5z" />
    <glyph glyph-name="Ncommaaccent.ss01" horiz-adv-x="921" 
d="M731 61q-9 -61 -72 -61h-55q-73 0 -61 72l180 1028q33 180 -113 180q-76 0 -129.5 -46.5t-68.5 -133.5l-185 -1039q-9 -61 -73 -61h-56q-34 0 -50.5 18.5t-10.5 53.5l229 1300q9 62 72 62h51q33 0 50.5 -19t15.5 -53l-4 -39q47 67 104 97t147 30q114 0 181.5 -76.5
t40.5 -226.5zM367 -143q35 0 51 -19.5t10 -54.5l-16 -96q-28 -154 -144 -291q-22 -28 -55 -8q-15 9 -17.5 23.5t9.5 29.5q67 98 92 190h-14q-34 0 -51 18.5t-11 53.5l17 92q12 62 73 62h56z" />
    <glyph glyph-name="Eng.ss01" horiz-adv-x="921" 
d="M702 1450q114 0 181.5 -76.5t40.5 -226.5l-207 -1170q-27 -154 -127 -224t-271 -70h-6q-34 0 -50.5 19t-10.5 54l6 33q11 61 74 61h12q80 0 125.5 39t62.5 131l191 1080q33 180 -113 180q-76 0 -129.5 -46.5t-68.5 -133.5l-185 -1039q-9 -61 -73 -61h-56
q-34 0 -50.5 18.5t-10.5 53.5l229 1300q9 62 72 62h51q33 0 50.5 -19t15.5 -53l-4 -39q47 66 105 96.5t146 30.5z" />
    <glyph glyph-name="Ntilde.ss01" horiz-adv-x="921" 
d="M477 1583q6 36 25.5 56t46.5 20q26 0 54.5 -17.5t51 -39t58 -39t73.5 -17.5q165 0 203 211q3 18 -6 28.5t-29 10.5h-57q-35 0 -41 -29q-6 -35 -24.5 -55t-47.5 -20q-24 0 -50.5 17.5t-47.5 38.5t-55.5 38.5t-73.5 17.5q-82 0 -136.5 -51.5t-72.5 -159.5q-6 -39 33 -39h55
q35 0 41 29zM731 61q-9 -61 -72 -61h-55q-73 0 -61 72l180 1028q33 180 -113 180q-76 0 -129.5 -46.5t-68.5 -133.5l-185 -1039q-9 -61 -73 -61h-56q-34 0 -50.5 18.5t-10.5 53.5l229 1300q9 62 72 62h51q33 0 50.5 -19t15.5 -53l-4 -39q47 67 104 97t147 30
q114 0 181.5 -76.5t40.5 -226.5z" />
    <glyph glyph-name="Q.ss01" horiz-adv-x="925" 
d="M637 1450q156 0 239 -76t56 -227l-152 -860q-25 -142 -105.5 -214.5t-225.5 -86.5q-3 -55 24.5 -81t83.5 -20q72 10 72 -51q3 -62 -56 -74q-61 -12 -110 -7t-83.5 27t-53 53t-18 71t21.5 80q-68 4 -121.5 24t-90 56.5t-50.5 93t0 129.5l151 860q28 159 125 231t277 72h16
zM733 1110q15 93 -18 131.5t-117 38.5q-83 0 -130.5 -39t-61.5 -131l-140 -786q-17 -92 16.5 -131t118.5 -39q83 0 129.5 39t63.5 131z" />
    <glyph glyph-name="R.ss01" horiz-adv-x="915" 
d="M922 1130l-39 -229q-15 -89 -73.5 -147t-143.5 -70q80 -13 117.5 -74t25.5 -129l-51 -291q-17 -102 10 -129q2 -2 7 -9t6.5 -9.5t3.5 -8t1 -11.5q-6 -25 -34 -25h-76q-72 0 -98.5 57t-12.5 135l45 263q14 82 -21 113.5t-116 31.5h-149l-97 -537q-9 -61 -73 -61h-56
q-34 0 -50.5 18.5t-10.5 53.5l229 1300q9 62 72 62h289q157 0 240 -76.5t55 -227.5zM352 768h150q165 0 192 156l29 170q17 92 -16.5 131t-118.5 39h-150z" />
    <glyph glyph-name="Racute.ss01" horiz-adv-x="915" 
d="M682 1780q28 43 80 43h61q44 0 56 -25.5t-19 -56.5l-158 -162q-33 -33 -77 -33h-9q-39 0 -51.5 22t8.5 56zM922 1130l-39 -229q-15 -89 -73.5 -147t-143.5 -70q80 -13 117.5 -74t25.5 -129l-51 -291q-17 -102 10 -129q2 -2 7 -9t6.5 -9.5t3.5 -8t1 -11.5q-6 -25 -34 -25
h-76q-72 0 -98.5 57t-12.5 135l45 263q14 82 -21 113.5t-116 31.5h-149l-97 -537q-9 -61 -73 -61h-56q-34 0 -50.5 18.5t-10.5 53.5l229 1300q9 62 72 62h289q157 0 240 -76.5t55 -227.5zM352 768h150q165 0 192 156l29 170q17 92 -16.5 131t-118.5 39h-150z" />
    <glyph glyph-name="Rcaron.ss01" horiz-adv-x="915" 
d="M852 1741q26 34 21 58t-39 24h-35q-54 0 -82 -43l-84 -111l-43 100q-18 54 -78 54h-14q-38 0 -53 -21.5t-1 -56.5l70 -148q20 -51 78 -51h55q49 0 82 41zM922 1130l-39 -229q-15 -89 -73.5 -147t-143.5 -70q80 -13 117.5 -74t25.5 -129l-51 -291q-17 -102 10 -129
q2 -2 7 -9t6.5 -9.5t3.5 -8t1 -11.5q-6 -25 -34 -25h-76q-72 0 -98.5 57t-12.5 135l45 263q14 82 -21 113.5t-116 31.5h-149l-97 -537q-9 -61 -73 -61h-56q-34 0 -50.5 18.5t-10.5 53.5l229 1300q9 62 72 62h289q157 0 240 -76.5t55 -227.5zM352 768h150q165 0 192 156
l29 170q17 92 -16.5 131t-118.5 39h-150z" />
    <glyph glyph-name="Rcommaaccent.ss01" horiz-adv-x="915" 
d="M922 1130l-39 -229q-15 -89 -73.5 -147t-143.5 -70q80 -13 117.5 -74t25.5 -129l-51 -291q-17 -102 10 -129q2 -2 7 -9t6.5 -9.5t3.5 -8t1 -11.5q-6 -25 -34 -25h-76q-72 0 -98.5 57t-12.5 135l45 263q14 82 -21 113.5t-116 31.5h-149l-97 -537q-9 -61 -73 -61h-56
q-34 0 -50.5 18.5t-10.5 53.5l229 1300q9 62 72 62h289q157 0 240 -76.5t55 -227.5zM352 768h150q165 0 192 156l29 170q17 92 -16.5 131t-118.5 39h-150zM389 -143q35 0 51.5 -19.5t10.5 -54.5l-17 -96q-28 -155 -143 -291q-22 -28 -55 -8q-15 9 -18 23.5t9 29.5
q67 98 92 190h-14q-34 0 -50.5 18.5t-10.5 53.5l16 92q12 62 74 62h55z" />
    <glyph glyph-name="W.ss01" horiz-adv-x="1386" 
d="M1235 1372q12 62 74 62h55q34 0 50.5 -18.5t10.5 -53.5l-186 -1069q-28 -159 -131 -234t-258 -75q-67 0 -133 31t-90 96q-50 -69 -117.5 -98t-157.5 -29q-60 0 -114.5 17.5t-97.5 52.5t-62.5 95.5t-5.5 137.5l190 1085q9 62 72 62h55q74 0 62 -72l-179 -1028
q-33 -180 115 -180q146 0 180 180l183 1038q9 62 71 62h56q73 0 61 -72l-178 -1028q-33 -180 114 -180q72 0 118 45.5t61 134.5z" />
    <glyph glyph-name="Wacute.ss01" horiz-adv-x="1386" 
d="M942 1780q28 43 80 43h61q44 0 56 -25.5t-19 -56.5l-157 -162q-33 -33 -78 -33h-8q-39 0 -51.5 22t8.5 56zM1235 1372q12 62 74 62h55q34 0 50.5 -18.5t10.5 -53.5l-186 -1069q-28 -159 -131 -234t-258 -75q-67 0 -133 31t-90 96q-50 -69 -117.5 -98t-157.5 -29
q-60 0 -114.5 17.5t-97.5 52.5t-62.5 95.5t-5.5 137.5l190 1085q9 62 72 62h55q74 0 62 -72l-179 -1028q-33 -180 115 -180q146 0 180 180l183 1038q9 62 71 62h56q73 0 61 -72l-178 -1028q-33 -180 114 -180q72 0 118 45.5t61 134.5z" />
    <glyph glyph-name="Wcircumflex.ss01" horiz-adv-x="1386" 
d="M1051 1546q35 0 47.5 21.5t-2.5 56.5l-68 148q-20 51 -78 51h-55q-49 0 -82 -39l-125 -154q-26 -34 -19.5 -59t40.5 -25h32q52 0 82 43l86 111l41 -98q20 -56 80 -56h21zM1235 1372q12 62 74 62h55q34 0 50.5 -18.5t10.5 -53.5l-186 -1069q-28 -159 -131 -234t-258 -75
q-67 0 -133 31t-90 96q-50 -69 -117.5 -98t-157.5 -29q-60 0 -114.5 17.5t-97.5 52.5t-62.5 95.5t-5.5 137.5l190 1085q9 62 72 62h55q74 0 62 -72l-179 -1028q-33 -180 115 -180q146 0 180 180l183 1038q9 62 71 62h56q73 0 61 -72l-178 -1028q-33 -180 114 -180
q72 0 118 45.5t61 134.5z" />
    <glyph glyph-name="Wdieresis.ss01" horiz-adv-x="1386" 
d="M772 1751q34 0 51 -19.5t11 -54.5l-15 -69q-9 -62 -74 -62h-43q-34 0 -50.5 18.5t-10.5 53.5l12 72q11 61 74 61h45zM1087 1751q35 0 51.5 -19.5t10.5 -54.5l-12 -69q-12 -62 -74 -62h-45q-34 0 -51 18.5t-11 53.5l15 72q9 61 73 61h43zM1235 1372q12 62 74 62h55
q34 0 50.5 -18.5t10.5 -53.5l-186 -1069q-28 -159 -131 -234t-258 -75q-67 0 -133 31t-90 96q-50 -69 -117.5 -98t-157.5 -29q-60 0 -114.5 17.5t-97.5 52.5t-62.5 95.5t-5.5 137.5l190 1085q9 62 72 62h55q74 0 62 -72l-179 -1028q-33 -180 115 -180q146 0 180 180
l183 1038q9 62 71 62h56q73 0 61 -72l-178 -1028q-33 -180 114 -180q72 0 118 45.5t61 134.5z" />
    <glyph glyph-name="Wgrave.ss01" horiz-adv-x="1386" 
d="M815 1823q58 0 76 -54l55 -151q12 -34 -0.5 -53t-44.5 -19h-22q-49 0 -76 43l-98 154q-21 35 -8 57.5t53 22.5h65zM1235 1372q12 62 74 62h55q34 0 50.5 -18.5t10.5 -53.5l-186 -1069q-28 -159 -131 -234t-258 -75q-67 0 -133 31t-90 96q-50 -69 -117.5 -98t-157.5 -29
q-60 0 -114.5 17.5t-97.5 52.5t-62.5 95.5t-5.5 137.5l190 1085q9 62 72 62h55q74 0 62 -72l-179 -1028q-33 -180 115 -180q146 0 180 180l183 1038q9 62 71 62h56q73 0 61 -72l-178 -1028q-33 -180 114 -180q72 0 118 45.5t61 134.5z" />
    <glyph glyph-name="Y.ss01" horiz-adv-x="913" 
d="M762 1372q12 62 74 62h55q34 0 50.5 -18.5t10.5 -53.5l-188 -1075q-28 -160 -122.5 -231.5t-274.5 -71.5h-9q-158 0 -238.5 74t-51.5 229l12 65q9 62 72 62h61q32 0 47 -18.5t10 -49.5l-4 -22q-17 -93 13 -131.5t114 -38.5q81 0 124.5 38.5t60.5 131.5l63 358
q-48 -66 -106 -95.5t-146 -29.5q-53 0 -97.5 17t-78.5 54t-45.5 94t0.5 138l90 512q9 62 72 62h55q73 0 61 -72l-77 -455q-33 -180 112 -180q77 0 130.5 46.5t68.5 133.5z" />
    <glyph glyph-name="Yacute.ss01" horiz-adv-x="913" 
d="M702 1780q28 43 80 43h62q44 0 56 -25.5t-19 -56.5l-158 -162q-33 -33 -78 -33h-8q-39 0 -51.5 22t8.5 56zM762 1372q12 62 74 62h55q34 0 50.5 -18.5t10.5 -53.5l-188 -1075q-28 -160 -122.5 -231.5t-274.5 -71.5h-9q-158 0 -238.5 74t-51.5 229l12 65q9 62 72 62h61
q32 0 47 -18.5t10 -49.5l-4 -22q-17 -93 13 -131.5t114 -38.5q81 0 124.5 38.5t60.5 131.5l63 358q-48 -66 -106 -95.5t-146 -29.5q-53 0 -97.5 17t-78.5 54t-45.5 94t0.5 138l90 512q9 62 72 62h55q73 0 61 -72l-77 -455q-33 -180 112 -180q77 0 130.5 46.5t68.5 133.5z
" />
    <glyph glyph-name="Ycircumflex.ss01" horiz-adv-x="913" 
d="M811 1546q35 0 47.5 21.5t-2.5 56.5l-68 148q-20 51 -77 51h-56q-49 0 -82 -39l-124 -154q-26 -34 -20 -59t40 -25h33q52 0 82 43l86 111l41 -98q20 -56 80 -56h20zM762 1372q12 62 74 62h55q34 0 50.5 -18.5t10.5 -53.5l-188 -1075q-28 -160 -122.5 -231.5t-274.5 -71.5
h-9q-158 0 -238.5 74t-51.5 229l12 65q9 62 72 62h61q32 0 47 -18.5t10 -49.5l-4 -22q-17 -93 13 -131.5t114 -38.5q81 0 124.5 38.5t60.5 131.5l63 358q-48 -66 -106 -95.5t-146 -29.5q-53 0 -97.5 17t-78.5 54t-45.5 94t0.5 138l90 512q9 62 72 62h55q73 0 61 -72
l-77 -455q-33 -180 112 -180q77 0 130.5 46.5t68.5 133.5z" />
    <glyph glyph-name="Ydieresis.ss01" horiz-adv-x="913" 
d="M532 1751q34 0 51 -19.5t11 -54.5l-14 -69q-9 -62 -74 -62h-43q-34 0 -51 18.5t-11 53.5l13 72q11 61 73 61h45zM848 1751q35 0 51 -19.5t10 -54.5l-12 -69q-12 -62 -74 -62h-45q-34 0 -50.5 18.5t-10.5 53.5l14 72q9 61 74 61h43zM762 1372q12 62 74 62h55
q34 0 50.5 -18.5t10.5 -53.5l-188 -1075q-28 -160 -122.5 -231.5t-274.5 -71.5h-9q-158 0 -238.5 74t-51.5 229l12 65q9 62 72 62h61q32 0 47 -18.5t10 -49.5l-4 -22q-17 -93 13 -131.5t114 -38.5q81 0 124.5 38.5t60.5 131.5l63 358q-48 -66 -106 -95.5t-146 -29.5
q-53 0 -97.5 17t-78.5 54t-45.5 94t0.5 138l90 512q9 62 72 62h55q73 0 61 -72l-77 -455q-33 -180 112 -180q77 0 130.5 46.5t68.5 133.5z" />
    <glyph glyph-name="Ygrave.ss01" horiz-adv-x="913" 
d="M575 1823q58 0 76 -54l56 -151q12 -34 -0.5 -53t-44.5 -19h-23q-49 0 -76 43l-98 154q-21 35 -8 57.5t53 22.5h65zM762 1372q12 62 74 62h55q34 0 50.5 -18.5t10.5 -53.5l-188 -1075q-28 -160 -122.5 -231.5t-274.5 -71.5h-9q-158 0 -238.5 74t-51.5 229l12 65
q9 62 72 62h61q32 0 47 -18.5t10 -49.5l-4 -22q-17 -93 13 -131.5t114 -38.5q81 0 124.5 38.5t60.5 131.5l63 358q-48 -66 -106 -95.5t-146 -29.5q-53 0 -97.5 17t-78.5 54t-45.5 94t0.5 138l90 512q9 62 72 62h55q73 0 61 -72l-77 -455q-33 -180 112 -180q77 0 130.5 46.5
t68.5 133.5z" />
    <glyph glyph-name="i.loclTRK" horiz-adv-x="438" 
d="M455 1751q34 0 50.5 -19.5t10.5 -54.5l-14 -69q-9 -62 -72 -62h-45q-34 0 -50.5 18.5t-10.5 53.5l14 72q9 61 72 61h45zM236 61q-9 -61 -74 -61h-56q-34 0 -50.5 18.5t-10.5 53.5l229 1300q9 62 72 62h55q74 0 62 -72z" />
    <glyph glyph-name="a.ss01" 
d="M629 1450q157 0 237 -74t54 -229l-193 -1086q-9 -61 -74 -61h-55q-34 0 -50.5 18.5t-10.5 53.5l75 422h-311l-78 -433q-11 -61 -73 -61h-56q-34 0 -50.5 18.5t-10.5 53.5l190 1075q27 161 122.5 232t275.5 71h8zM721 1110q15 93 -15.5 131.5t-111.5 38.5q-83 0 -126 -38
t-58 -132l-80 -444h311z" />
    <glyph glyph-name="aacute.ss01" 
d="M641 1546q-39 0 -51.5 22t8.5 56l109 156q28 43 79 43h62q44 0 56 -25.5t-19 -56.5l-158 -162q-33 -33 -78 -33h-8zM629 1450q157 0 237 -74t54 -229l-193 -1086q-9 -61 -74 -61h-55q-34 0 -50.5 18.5t-10.5 53.5l75 422h-311l-78 -433q-11 -61 -73 -61h-56
q-34 0 -50.5 18.5t-10.5 53.5l190 1075q27 161 122.5 232t275.5 71h8zM721 1110q15 93 -15.5 131.5t-111.5 38.5q-83 0 -126 -38t-58 -132l-80 -444h311z" />
    <glyph glyph-name="abreve.ss01" 
d="M629 1544q-91 0 -141.5 41t-36.5 121l8 51q6 47 57 47h39q58 0 49 -55l-2 -14q-12 -70 55 -70h9q70 0 82 70l4 22q9 47 55 47h41q58 0 49 -55l-8 -45q-29 -160 -236 -160h-24zM629 1450q157 0 237 -74t54 -229l-193 -1086q-9 -61 -74 -61h-55q-34 0 -50.5 18.5
t-10.5 53.5l75 422h-311l-78 -433q-11 -61 -73 -61h-56q-34 0 -50.5 18.5t-10.5 53.5l190 1075q27 161 122.5 232t275.5 71h8zM721 1110q15 93 -15.5 131.5t-111.5 38.5q-83 0 -126 -38t-58 -132l-80 -444h311z" />
    <glyph glyph-name="acircumflex.ss01" 
d="M473 1546q-34 0 -40 25t20 59l125 154q33 39 81 39h56q58 0 78 -51l67 -148q15 -35 2.5 -56.5t-47.5 -21.5h-20q-60 0 -80 56l-41 98l-86 -111q-30 -43 -82 -43h-33zM629 1450q157 0 237 -74t54 -229l-193 -1086q-9 -61 -74 -61h-55q-34 0 -50.5 18.5t-10.5 53.5l75 422
h-311l-78 -433q-11 -61 -73 -61h-56q-34 0 -50.5 18.5t-10.5 53.5l190 1075q27 161 122.5 232t275.5 71h8zM721 1110q15 93 -15.5 131.5t-111.5 38.5q-83 0 -126 -38t-58 -132l-80 -444h311z" />
    <glyph glyph-name="adieresis.ss01" 
d="M467 1546q-34 0 -50.5 18.5t-10.5 53.5l12 72q11 61 74 61h45q34 0 50.5 -19.5t10.5 -54.5l-14 -69q-9 -62 -74 -62h-43zM782 1546q-34 0 -50.5 18.5t-10.5 53.5l14 72q9 61 74 61h43q35 0 51 -19.5t10 -54.5l-12 -69q-12 -62 -74 -62h-45zM629 1450q157 0 237 -74
t54 -229l-193 -1086q-9 -61 -74 -61h-55q-34 0 -50.5 18.5t-10.5 53.5l75 422h-311l-78 -433q-11 -61 -73 -61h-56q-34 0 -50.5 18.5t-10.5 53.5l190 1075q27 161 122.5 232t275.5 71h8zM721 1110q15 93 -15.5 131.5t-111.5 38.5q-83 0 -126 -38t-58 -132l-80 -444h311z" />
    <glyph glyph-name="agrave.ss01" 
d="M567 1589l-98 154q-21 35 -8 57.5t53 22.5h66q57 0 75 -54l56 -151q12 -34 -0.5 -53t-44.5 -19h-23q-49 0 -76 43zM629 1450q157 0 237 -74t54 -229l-193 -1086q-9 -61 -74 -61h-55q-34 0 -50.5 18.5t-10.5 53.5l75 422h-311l-78 -433q-11 -61 -73 -61h-56
q-34 0 -50.5 18.5t-10.5 53.5l190 1075q27 161 122.5 232t275.5 71h8zM721 1110q15 93 -15.5 131.5t-111.5 38.5q-83 0 -126 -38t-58 -132l-80 -444h311z" />
    <glyph glyph-name="amacron.ss01" 
d="M487 1567q-35 0 -50.5 18t-8.5 53l2 23q9 61 72 61h329q33 0 49.5 -19t10.5 -52l-4 -25q-9 -59 -72 -59h-328zM629 1450q157 0 237 -74t54 -229l-193 -1086q-9 -61 -74 -61h-55q-34 0 -50.5 18.5t-10.5 53.5l75 422h-311l-78 -433q-11 -61 -73 -61h-56q-34 0 -50.5 18.5
t-10.5 53.5l190 1075q27 161 122.5 232t275.5 71h8zM721 1110q15 93 -15.5 131.5t-111.5 38.5q-83 0 -126 -38t-58 -132l-80 -444h311z" />
    <glyph glyph-name="aogonek.ss01" 
d="M629 1450q157 0 237 -74t54 -229l-193 -1086q-9 -61 -74 -61q-88 -38 -119 -105q-24 -53 6 -82q16 -16 46 -16h14q21 3 29.5 -2.5t7.5 -23.5l-6 -31q-7 -29 -27 -39q-47 -27 -100 -27q-83 0 -115 60.5t7.5 146t144.5 146.5q-10 17 -4 45l75 422h-311l-78 -433
q-11 -61 -73 -61h-56q-34 0 -50.5 18.5t-10.5 53.5l190 1075q27 161 122.5 232t275.5 71h8zM721 1110q15 93 -15.5 131.5t-111.5 38.5q-83 0 -126 -38t-58 -132l-80 -444h311z" />
    <glyph glyph-name="aring.ss01" 
d="M639 1534q-72 0 -115 43.5t-30 114.5q12 75 63 116t137 41q71 0 114.5 -43t31.5 -114q-12 -75 -64 -116.5t-137 -41.5zM596 1692q-6 -33 10.5 -50.5t48.5 -17.5t54 17.5t28 50.5t-9.5 51t-47.5 18t-55 -18t-29 -51zM629 1450q157 0 237 -74t54 -229l-193 -1086
q-9 -61 -74 -61h-55q-34 0 -50.5 18.5t-10.5 53.5l75 422h-311l-78 -433q-11 -61 -73 -61h-56q-34 0 -50.5 18.5t-10.5 53.5l190 1075q27 161 122.5 232t275.5 71h8zM721 1110q15 93 -15.5 131.5t-111.5 38.5q-83 0 -126 -38t-58 -132l-80 -444h311z" />
    <glyph glyph-name="aringacute.ss01" 
d="M893 2173q44 0 56 -25.5t-19 -56.5l-158 -162q-33 -33 -78 -33h-8q-39 0 -51.5 22t8.5 56l109 156q28 43 79 43h62zM639 1534q-72 0 -115 43.5t-30 114.5q12 75 63 116t137 41q71 0 114.5 -43t31.5 -114q-12 -75 -64 -116.5t-137 -41.5zM596 1692q-6 -33 10.5 -50.5
t48.5 -17.5t54 17.5t28 50.5t-9.5 51t-47.5 18t-55 -18t-29 -51zM629 1450q157 0 237 -74t54 -229l-193 -1086q-9 -61 -74 -61h-55q-34 0 -50.5 18.5t-10.5 53.5l75 422h-311l-78 -433q-11 -61 -73 -61h-56q-34 0 -50.5 18.5t-10.5 53.5l190 1075q27 161 122.5 232t275.5 71
h8zM721 1110q15 93 -15.5 131.5t-111.5 38.5q-83 0 -126 -38t-58 -132l-80 -444h311z" />
    <glyph glyph-name="atilde.ss01" 
d="M950 1796q20 0 29 -10.5t6 -28.5q-38 -211 -203 -211q-38 0 -73.5 17.5t-58 39t-51 39t-54.5 17.5q-27 0 -46.5 -20t-25.5 -56q-6 -29 -41 -29h-55q-39 0 -33 39q18 108 72.5 159.5t136.5 51.5q39 0 73.5 -17.5t55.5 -38.5t47.5 -38.5t50.5 -17.5q29 0 47.5 20t24.5 55
q6 29 41 29h57zM629 1450q157 0 237 -74t54 -229l-193 -1086q-9 -61 -74 -61h-55q-34 0 -50.5 18.5t-10.5 53.5l75 422h-311l-78 -433q-11 -61 -73 -61h-56q-34 0 -50.5 18.5t-10.5 53.5l190 1075q27 161 122.5 232t275.5 71h8zM721 1110q15 93 -15.5 131.5t-111.5 38.5
q-83 0 -126 -38t-58 -132l-80 -444h311z" />
    <glyph glyph-name="ae.ss01" horiz-adv-x="1267" 
d="M1294 1434q34 0 51 -19.5t11 -52.5l-6 -39q-12 -59 -74 -59h-350l-78 -451h274q34 0 51 -19.5t11 -54.5l-6 -37q-12 -61 -74 -61h-287l-82 -471h344q35 0 51 -18.5t9 -53.5l-6 -37q-9 -61 -72 -61h-475q-34 0 -51 18.5t-11 53.5l74 415h-299l-76 -426q-11 -61 -73 -61
h-56q-34 0 -50.5 18.5t-10.5 53.5l186 1058q29 161 123.5 232.5t273.5 71.5h203h6h469zM330 659h299l106 605h-145q-81 0 -124 -38.5t-60 -131.5z" />
    <glyph glyph-name="aeacute.ss01" horiz-adv-x="1267" 
d="M911 1546q-39 0 -51.5 22t8.5 56l109 156q28 43 80 43h61q44 0 56 -25.5t-19 -56.5l-158 -162q-33 -33 -77 -33h-9zM1294 1434q34 0 51 -19.5t11 -52.5l-6 -39q-12 -59 -74 -59h-350l-78 -451h274q34 0 51 -19.5t11 -54.5l-6 -37q-12 -61 -74 -61h-287l-82 -471h344
q35 0 51 -18.5t9 -53.5l-6 -37q-9 -61 -72 -61h-475q-34 0 -51 18.5t-11 53.5l74 415h-299l-76 -426q-11 -61 -73 -61h-56q-34 0 -50.5 18.5t-10.5 53.5l186 1058q29 161 123.5 232.5t273.5 71.5h203h6h469zM330 659h299l106 605h-145q-81 0 -124 -38.5t-60 -131.5z" />
    <glyph glyph-name="g.ss01" horiz-adv-x="925" 
d="M909 1010q-12 -62 -75 -62h-56q-34 0 -50.5 18.5t-10.5 53.5l16 90q15 93 -18 131.5t-117 38.5q-83 0 -130.5 -39t-61.5 -131l-140 -786q-17 -92 16.5 -131t118.5 -39q83 0 129.5 39t63.5 131l43 239h-98q-74 0 -62 72l4 33q9 59 74 59h227q74 0 62 -72l-107 -604
q-7 -57 -57 -57q-49 0 -62 57l-8 55q-69 -122 -245 -122h-17q-70 0 -126.5 17.5t-97 52.5t-56 94.5t-0.5 138.5l151 860q26 155 124.5 229t277.5 74h16q75 0 134.5 -18.5t100.5 -55t57.5 -95t2.5 -134.5z" />
    <glyph glyph-name="gbreve.ss01" horiz-adv-x="925" 
d="M852 1804q58 0 49 -55l-8 -45q-29 -160 -236 -160h-24q-91 0 -141.5 41t-36.5 121l8 51q6 47 57 47h39q58 0 49 -55l-2 -14q-12 -70 56 -70h8q70 0 82 70l4 22q9 47 55 47h41zM909 1010q-12 -62 -75 -62h-56q-34 0 -50.5 18.5t-10.5 53.5l16 90q15 93 -18 131.5
t-117 38.5q-83 0 -130.5 -39t-61.5 -131l-140 -786q-17 -92 16.5 -131t118.5 -39q83 0 129.5 39t63.5 131l43 239h-98q-74 0 -62 72l4 33q9 59 74 59h227q74 0 62 -72l-107 -604q-7 -57 -57 -57q-49 0 -62 57l-8 55q-69 -122 -245 -122h-17q-70 0 -126.5 17.5t-97 52.5
t-56 94.5t-0.5 138.5l151 860q26 155 124.5 229t277.5 74h16q75 0 134.5 -18.5t100.5 -55t57.5 -95t2.5 -134.5z" />
    <glyph glyph-name="gcommaaccent.ss01" horiz-adv-x="925" 
d="M909 1010q-12 -62 -75 -62h-56q-34 0 -50.5 18.5t-10.5 53.5l16 90q15 93 -18 131.5t-117 38.5q-83 0 -130.5 -39t-61.5 -131l-140 -786q-17 -92 16.5 -131t118.5 -39q83 0 129.5 39t63.5 131l43 239h-98q-74 0 -62 72l4 33q9 59 74 59h227q74 0 62 -72l-107 -604
q-7 -57 -57 -57q-49 0 -62 57l-8 55q-69 -122 -245 -122h-17q-70 0 -126.5 17.5t-97 52.5t-56 94.5t-0.5 138.5l151 860q26 155 124.5 229t277.5 74h16q75 0 134.5 -18.5t100.5 -55t57.5 -95t2.5 -134.5zM367 -143q35 0 51 -19.5t10 -54.5l-16 -96q-28 -154 -144 -291
q-22 -28 -55 -8q-15 9 -17.5 23.5t9.5 29.5q67 98 92 190h-14q-34 0 -51 18.5t-11 53.5l17 92q12 62 73 62h56z" />
    <glyph glyph-name="gdotaccent.ss01" horiz-adv-x="925" 
d="M698 1751q34 0 51 -19.5t11 -54.5l-15 -69q-9 -62 -71 -62h-45q-34 0 -51 18.5t-11 53.5l15 72q9 61 71 61h45zM909 1010q-12 -62 -75 -62h-56q-34 0 -50.5 18.5t-10.5 53.5l16 90q15 93 -18 131.5t-117 38.5q-83 0 -130.5 -39t-61.5 -131l-140 -786q-17 -92 16.5 -131
t118.5 -39q83 0 129.5 39t63.5 131l43 239h-98q-74 0 -62 72l4 33q9 59 74 59h227q74 0 62 -72l-107 -604q-7 -57 -57 -57q-49 0 -62 57l-8 55q-69 -122 -245 -122h-17q-70 0 -126.5 17.5t-97 52.5t-56 94.5t-0.5 138.5l151 860q26 155 124.5 229t277.5 74h16
q75 0 134.5 -18.5t100.5 -55t57.5 -95t2.5 -134.5z" />
    <glyph glyph-name="m.ss01" horiz-adv-x="1392" 
d="M1180 1450q52 0 95 -17t76 -54t44 -94t-2 -138l-191 -1086q-11 -61 -74 -61h-55q-34 0 -50.5 18.5t-10.5 53.5l180 1028q35 180 -102 180q-74 0 -126 -48t-65 -132l-184 -1039q-11 -61 -74 -61h-55q-34 0 -51 18.5t-11 53.5l183 1028q33 180 -105 180q-74 0 -125.5 -48
t-64.5 -132l-185 -1039q-9 -61 -73 -61h-56q-34 0 -50.5 18.5t-10.5 53.5l229 1300q9 62 72 62h51q69 0 66 -72l-4 -39q48 67 101.5 97t139.5 30q76 0 134 -39t79 -115q52 84 118 119t157 35z" />
    <glyph glyph-name="n.ss01" horiz-adv-x="921" 
d="M731 61q-9 -61 -72 -61h-55q-73 0 -61 72l180 1028q33 180 -113 180q-76 0 -129.5 -46.5t-68.5 -133.5l-185 -1039q-9 -61 -73 -61h-56q-34 0 -50.5 18.5t-10.5 53.5l229 1300q9 62 72 62h51q33 0 50.5 -19t15.5 -53l-4 -39q47 67 104 97t147 30q114 0 181.5 -76.5
t40.5 -226.5z" />
    <glyph glyph-name="nacute.ss01" horiz-adv-x="921" 
d="M711 1780q28 43 80 43h61q44 0 56 -25.5t-19 -56.5l-158 -162q-33 -33 -78 -33h-8q-39 0 -51.5 22t8.5 56zM731 61q-9 -61 -72 -61h-55q-73 0 -61 72l180 1028q33 180 -113 180q-76 0 -129.5 -46.5t-68.5 -133.5l-185 -1039q-9 -61 -73 -61h-56q-34 0 -50.5 18.5
t-10.5 53.5l229 1300q9 62 72 62h51q33 0 50.5 -19t15.5 -53l-4 -39q47 67 104 97t147 30q114 0 181.5 -76.5t40.5 -226.5z" />
    <glyph glyph-name="ncaron.ss01" horiz-adv-x="921" 
d="M881 1741q26 34 20.5 58t-39.5 24h-35q-54 0 -82 -43l-83 -111l-44 100q-18 54 -77 54h-15q-38 0 -52.5 -21.5t-0.5 -56.5l70 -148q20 -51 78 -51h55q49 0 82 41zM731 61q-9 -61 -72 -61h-55q-73 0 -61 72l180 1028q33 180 -113 180q-76 0 -129.5 -46.5t-68.5 -133.5
l-185 -1039q-9 -61 -73 -61h-56q-34 0 -50.5 18.5t-10.5 53.5l229 1300q9 62 72 62h51q33 0 50.5 -19t15.5 -53l-4 -39q47 67 104 97t147 30q114 0 181.5 -76.5t40.5 -226.5z" />
    <glyph glyph-name="ncommaaccent.ss01" horiz-adv-x="921" 
d="M731 61q-9 -61 -72 -61h-55q-73 0 -61 72l180 1028q33 180 -113 180q-76 0 -129.5 -46.5t-68.5 -133.5l-185 -1039q-9 -61 -73 -61h-56q-34 0 -50.5 18.5t-10.5 53.5l229 1300q9 62 72 62h51q33 0 50.5 -19t15.5 -53l-4 -39q47 67 104 97t147 30q114 0 181.5 -76.5
t40.5 -226.5zM367 -143q35 0 51 -19.5t10 -54.5l-16 -96q-28 -154 -144 -291q-22 -28 -55 -8q-15 9 -17.5 23.5t9.5 29.5q67 98 92 190h-14q-34 0 -51 18.5t-11 53.5l17 92q12 62 73 62h56z" />
    <glyph glyph-name="eng.ss01" horiz-adv-x="921" 
d="M702 1450q114 0 181.5 -76.5t40.5 -226.5l-207 -1170q-27 -154 -127 -224t-271 -70h-6q-34 0 -50.5 19t-10.5 54l6 33q11 61 74 61h12q80 0 125.5 39t62.5 131l191 1080q33 180 -113 180q-76 0 -129.5 -46.5t-68.5 -133.5l-185 -1039q-9 -61 -73 -61h-56
q-34 0 -50.5 18.5t-10.5 53.5l229 1300q9 62 72 62h51q33 0 50.5 -19t15.5 -53l-4 -39q47 66 105 96.5t146 30.5z" />
    <glyph glyph-name="ntilde.ss01" horiz-adv-x="921" 
d="M477 1583q6 36 25.5 56t46.5 20q26 0 54.5 -17.5t51 -39t58 -39t73.5 -17.5q165 0 203 211q3 18 -6 28.5t-29 10.5h-57q-35 0 -41 -29q-6 -35 -24.5 -55t-47.5 -20q-24 0 -50.5 17.5t-47.5 38.5t-55.5 38.5t-73.5 17.5q-82 0 -136.5 -51.5t-72.5 -159.5q-6 -39 33 -39h55
q35 0 41 29zM731 61q-9 -61 -72 -61h-55q-73 0 -61 72l180 1028q33 180 -113 180q-76 0 -129.5 -46.5t-68.5 -133.5l-185 -1039q-9 -61 -73 -61h-56q-34 0 -50.5 18.5t-10.5 53.5l229 1300q9 62 72 62h51q33 0 50.5 -19t15.5 -53l-4 -39q47 67 104 97t147 30
q114 0 181.5 -76.5t40.5 -226.5z" />
    <glyph glyph-name="q.ss01" horiz-adv-x="925" 
d="M637 1450q156 0 239 -76t56 -227l-152 -860q-25 -142 -105.5 -214.5t-225.5 -86.5q-3 -55 24.5 -81t83.5 -20q72 10 72 -51q3 -62 -56 -74q-61 -12 -110 -7t-83.5 27t-53 53t-18 71t21.5 80q-68 4 -121.5 24t-90 56.5t-50.5 93t0 129.5l151 860q28 159 125 231t277 72h16
zM733 1110q15 93 -18 131.5t-117 38.5q-83 0 -130.5 -39t-61.5 -131l-140 -786q-17 -92 16.5 -131t118.5 -39q83 0 129.5 39t63.5 131z" />
    <glyph glyph-name="r.ss01" horiz-adv-x="915" 
d="M922 1130l-39 -229q-15 -89 -73.5 -147t-143.5 -70q80 -13 117.5 -74t25.5 -129l-51 -291q-17 -102 10 -129q2 -2 7 -9t6.5 -9.5t3.5 -8t1 -11.5q-6 -25 -34 -25h-76q-72 0 -98.5 57t-12.5 135l45 263q14 82 -21 113.5t-116 31.5h-149l-97 -537q-9 -61 -73 -61h-56
q-34 0 -50.5 18.5t-10.5 53.5l229 1300q9 62 72 62h289q157 0 240 -76.5t55 -227.5zM352 768h150q165 0 192 156l29 170q17 92 -16.5 131t-118.5 39h-150z" />
    <glyph glyph-name="racute.ss01" horiz-adv-x="915" 
d="M682 1780q28 43 80 43h61q44 0 56 -25.5t-19 -56.5l-158 -162q-33 -33 -77 -33h-9q-39 0 -51.5 22t8.5 56zM922 1130l-39 -229q-15 -89 -73.5 -147t-143.5 -70q80 -13 117.5 -74t25.5 -129l-51 -291q-17 -102 10 -129q2 -2 7 -9t6.5 -9.5t3.5 -8t1 -11.5q-6 -25 -34 -25
h-76q-72 0 -98.5 57t-12.5 135l45 263q14 82 -21 113.5t-116 31.5h-149l-97 -537q-9 -61 -73 -61h-56q-34 0 -50.5 18.5t-10.5 53.5l229 1300q9 62 72 62h289q157 0 240 -76.5t55 -227.5zM352 768h150q165 0 192 156l29 170q17 92 -16.5 131t-118.5 39h-150z" />
    <glyph glyph-name="rcaron.ss01" horiz-adv-x="915" 
d="M852 1741q26 34 21 58t-39 24h-35q-54 0 -82 -43l-84 -111l-43 100q-18 54 -78 54h-14q-38 0 -53 -21.5t-1 -56.5l70 -148q20 -51 78 -51h55q49 0 82 41zM922 1130l-39 -229q-15 -89 -73.5 -147t-143.5 -70q80 -13 117.5 -74t25.5 -129l-51 -291q-17 -102 10 -129
q2 -2 7 -9t6.5 -9.5t3.5 -8t1 -11.5q-6 -25 -34 -25h-76q-72 0 -98.5 57t-12.5 135l45 263q14 82 -21 113.5t-116 31.5h-149l-97 -537q-9 -61 -73 -61h-56q-34 0 -50.5 18.5t-10.5 53.5l229 1300q9 62 72 62h289q157 0 240 -76.5t55 -227.5zM352 768h150q165 0 192 156
l29 170q17 92 -16.5 131t-118.5 39h-150z" />
    <glyph glyph-name="rcommaaccent.ss01" horiz-adv-x="915" 
d="M922 1130l-39 -229q-15 -89 -73.5 -147t-143.5 -70q80 -13 117.5 -74t25.5 -129l-51 -291q-17 -102 10 -129q2 -2 7 -9t6.5 -9.5t3.5 -8t1 -11.5q-6 -25 -34 -25h-76q-72 0 -98.5 57t-12.5 135l45 263q14 82 -21 113.5t-116 31.5h-149l-97 -537q-9 -61 -73 -61h-56
q-34 0 -50.5 18.5t-10.5 53.5l229 1300q9 62 72 62h289q157 0 240 -76.5t55 -227.5zM352 768h150q165 0 192 156l29 170q17 92 -16.5 131t-118.5 39h-150zM389 -143q35 0 51.5 -19.5t10.5 -54.5l-17 -96q-28 -155 -143 -291q-22 -28 -55 -8q-15 9 -18 23.5t9 29.5
q67 98 92 190h-14q-34 0 -50.5 18.5t-10.5 53.5l16 92q12 62 74 62h55z" />
    <glyph glyph-name="w.ss01" horiz-adv-x="1386" 
d="M1235 1372q12 62 74 62h55q34 0 50.5 -18.5t10.5 -53.5l-186 -1069q-28 -159 -131 -234t-258 -75q-67 0 -133 31t-90 96q-50 -69 -117.5 -98t-157.5 -29q-60 0 -114.5 17.5t-97.5 52.5t-62.5 95.5t-5.5 137.5l190 1085q9 62 72 62h55q74 0 62 -72l-179 -1028
q-33 -180 115 -180q146 0 180 180l183 1038q9 62 71 62h56q73 0 61 -72l-178 -1028q-33 -180 114 -180q72 0 118 45.5t61 134.5z" />
    <glyph glyph-name="wacute.ss01" horiz-adv-x="1386" 
d="M942 1780q28 43 80 43h61q44 0 56 -25.5t-19 -56.5l-157 -162q-33 -33 -78 -33h-8q-39 0 -51.5 22t8.5 56zM1235 1372q12 62 74 62h55q34 0 50.5 -18.5t10.5 -53.5l-186 -1069q-28 -159 -131 -234t-258 -75q-67 0 -133 31t-90 96q-50 -69 -117.5 -98t-157.5 -29
q-60 0 -114.5 17.5t-97.5 52.5t-62.5 95.5t-5.5 137.5l190 1085q9 62 72 62h55q74 0 62 -72l-179 -1028q-33 -180 115 -180q146 0 180 180l183 1038q9 62 71 62h56q73 0 61 -72l-178 -1028q-33 -180 114 -180q72 0 118 45.5t61 134.5z" />
    <glyph glyph-name="wcircumflex.ss01" horiz-adv-x="1386" 
d="M1051 1546q35 0 47.5 21.5t-2.5 56.5l-68 148q-20 51 -78 51h-55q-49 0 -82 -39l-125 -154q-26 -34 -19.5 -59t40.5 -25h32q52 0 82 43l86 111l41 -98q20 -56 80 -56h21zM1235 1372q12 62 74 62h55q34 0 50.5 -18.5t10.5 -53.5l-186 -1069q-28 -159 -131 -234t-258 -75
q-67 0 -133 31t-90 96q-50 -69 -117.5 -98t-157.5 -29q-60 0 -114.5 17.5t-97.5 52.5t-62.5 95.5t-5.5 137.5l190 1085q9 62 72 62h55q74 0 62 -72l-179 -1028q-33 -180 115 -180q146 0 180 180l183 1038q9 62 71 62h56q73 0 61 -72l-178 -1028q-33 -180 114 -180
q72 0 118 45.5t61 134.5z" />
    <glyph glyph-name="wdieresis.ss01" horiz-adv-x="1386" 
d="M772 1751q34 0 51 -19.5t11 -54.5l-15 -69q-9 -62 -74 -62h-43q-34 0 -50.5 18.5t-10.5 53.5l12 72q11 61 74 61h45zM1087 1751q35 0 51.5 -19.5t10.5 -54.5l-12 -69q-12 -62 -74 -62h-45q-34 0 -51 18.5t-11 53.5l15 72q9 61 73 61h43zM1235 1372q12 62 74 62h55
q34 0 50.5 -18.5t10.5 -53.5l-186 -1069q-28 -159 -131 -234t-258 -75q-67 0 -133 31t-90 96q-50 -69 -117.5 -98t-157.5 -29q-60 0 -114.5 17.5t-97.5 52.5t-62.5 95.5t-5.5 137.5l190 1085q9 62 72 62h55q74 0 62 -72l-179 -1028q-33 -180 115 -180q146 0 180 180
l183 1038q9 62 71 62h56q73 0 61 -72l-178 -1028q-33 -180 114 -180q72 0 118 45.5t61 134.5z" />
    <glyph glyph-name="wgrave.ss01" horiz-adv-x="1386" 
d="M815 1823q58 0 76 -54l55 -151q12 -34 -0.5 -53t-44.5 -19h-22q-49 0 -76 43l-98 154q-21 35 -8 57.5t53 22.5h65zM1235 1372q12 62 74 62h55q34 0 50.5 -18.5t10.5 -53.5l-186 -1069q-28 -159 -131 -234t-258 -75q-67 0 -133 31t-90 96q-50 -69 -117.5 -98t-157.5 -29
q-60 0 -114.5 17.5t-97.5 52.5t-62.5 95.5t-5.5 137.5l190 1085q9 62 72 62h55q74 0 62 -72l-179 -1028q-33 -180 115 -180q146 0 180 180l183 1038q9 62 71 62h56q73 0 61 -72l-178 -1028q-33 -180 114 -180q72 0 118 45.5t61 134.5z" />
    <glyph glyph-name="y.ss01" horiz-adv-x="913" 
d="M762 1372q12 62 74 62h55q34 0 50.5 -18.5t10.5 -53.5l-188 -1075q-28 -160 -122.5 -231.5t-274.5 -71.5h-9q-158 0 -238.5 74t-51.5 229l12 65q9 62 72 62h61q32 0 47 -18.5t10 -49.5l-4 -22q-17 -93 13 -131.5t114 -38.5q81 0 124.5 38.5t60.5 131.5l63 358
q-48 -66 -106 -95.5t-146 -29.5q-53 0 -97.5 17t-78.5 54t-45.5 94t0.5 138l90 512q9 62 72 62h55q73 0 61 -72l-77 -455q-33 -180 112 -180q77 0 130.5 46.5t68.5 133.5z" />
    <glyph glyph-name="yacute.ss01" horiz-adv-x="913" 
d="M702 1780q28 43 80 43h62q44 0 56 -25.5t-19 -56.5l-158 -162q-33 -33 -78 -33h-8q-39 0 -51.5 22t8.5 56zM762 1372q12 62 74 62h55q34 0 50.5 -18.5t10.5 -53.5l-188 -1075q-28 -160 -122.5 -231.5t-274.5 -71.5h-9q-158 0 -238.5 74t-51.5 229l12 65q9 62 72 62h61
q32 0 47 -18.5t10 -49.5l-4 -22q-17 -93 13 -131.5t114 -38.5q81 0 124.5 38.5t60.5 131.5l63 358q-48 -66 -106 -95.5t-146 -29.5q-53 0 -97.5 17t-78.5 54t-45.5 94t0.5 138l90 512q9 62 72 62h55q73 0 61 -72l-77 -455q-33 -180 112 -180q77 0 130.5 46.5t68.5 133.5z
" />
    <glyph glyph-name="ycircumflex.ss01" horiz-adv-x="913" 
d="M811 1546q35 0 47.5 21.5t-2.5 56.5l-68 148q-20 51 -77 51h-56q-49 0 -82 -39l-124 -154q-26 -34 -20 -59t40 -25h33q52 0 82 43l86 111l41 -98q20 -56 80 -56h20zM762 1372q12 62 74 62h55q34 0 50.5 -18.5t10.5 -53.5l-188 -1075q-28 -160 -122.5 -231.5t-274.5 -71.5
h-9q-158 0 -238.5 74t-51.5 229l12 65q9 62 72 62h61q32 0 47 -18.5t10 -49.5l-4 -22q-17 -93 13 -131.5t114 -38.5q81 0 124.5 38.5t60.5 131.5l63 358q-48 -66 -106 -95.5t-146 -29.5q-53 0 -97.5 17t-78.5 54t-45.5 94t0.5 138l90 512q9 62 72 62h55q73 0 61 -72
l-77 -455q-33 -180 112 -180q77 0 130.5 46.5t68.5 133.5z" />
    <glyph glyph-name="ydieresis.ss01" horiz-adv-x="913" 
d="M532 1751q34 0 51 -19.5t11 -54.5l-14 -69q-9 -62 -74 -62h-43q-34 0 -51 18.5t-11 53.5l13 72q11 61 73 61h45zM848 1751q35 0 51 -19.5t10 -54.5l-12 -69q-12 -62 -74 -62h-45q-34 0 -50.5 18.5t-10.5 53.5l14 72q9 61 74 61h43zM762 1372q12 62 74 62h55
q34 0 50.5 -18.5t10.5 -53.5l-188 -1075q-28 -160 -122.5 -231.5t-274.5 -71.5h-9q-158 0 -238.5 74t-51.5 229l12 65q9 62 72 62h61q32 0 47 -18.5t10 -49.5l-4 -22q-17 -93 13 -131.5t114 -38.5q81 0 124.5 38.5t60.5 131.5l63 358q-48 -66 -106 -95.5t-146 -29.5
q-53 0 -97.5 17t-78.5 54t-45.5 94t0.5 138l90 512q9 62 72 62h55q73 0 61 -72l-77 -455q-33 -180 112 -180q77 0 130.5 46.5t68.5 133.5z" />
    <glyph glyph-name="ygrave.ss01" horiz-adv-x="913" 
d="M575 1823q58 0 76 -54l56 -151q12 -34 -0.5 -53t-44.5 -19h-23q-49 0 -76 43l-98 154q-21 35 -8 57.5t53 22.5h65zM762 1372q12 62 74 62h55q34 0 50.5 -18.5t10.5 -53.5l-188 -1075q-28 -160 -122.5 -231.5t-274.5 -71.5h-9q-158 0 -238.5 74t-51.5 229l12 65
q9 62 72 62h61q32 0 47 -18.5t10 -49.5l-4 -22q-17 -93 13 -131.5t114 -38.5q81 0 124.5 38.5t60.5 131.5l63 358q-48 -66 -106 -95.5t-146 -29.5q-53 0 -97.5 17t-78.5 54t-45.5 94t0.5 138l90 512q9 62 72 62h55q73 0 61 -72l-77 -455q-33 -180 112 -180q77 0 130.5 46.5
t68.5 133.5z" />
    <glyph glyph-name="one.ss01" horiz-adv-x="577" 
d="M356 61q-11 -61 -73 -61h-50q-34 0 -50.5 18.5t-10.5 53.5l207 1173l-152 -57q-38 -13 -57.5 4.5t-11.5 56.5l2 23q12 54 61 71l197 76q40 15 82 15h22q74 0 62 -72z" />
    <glyph glyph-name="zero.tf" horiz-adv-x="860" 
d="M604 1450q149 0 227.5 -76t51.5 -227l-152 -860q-28 -158 -120.5 -230.5t-264.5 -72.5h-16q-150 0 -228.5 76t-50.5 227l152 860q28 158 120.5 230.5t264.5 72.5h16zM690 1110q15 92 -16 131t-109 39q-77 0 -122.5 -39t-59.5 -131l-139 -786q-17 -92 15 -131t110 -39
q76 0 120.5 39t61.5 131z" />
    <glyph glyph-name="one.tf" horiz-adv-x="860" 
d="M631 166q34 0 50.5 -19.5t10.5 -54.5l-6 -31q-9 -61 -72 -61h-516q-34 0 -50.5 19t-10.5 53l6 32q9 62 74 62h178l188 1069l-170 -57q-37 -12 -56.5 4.5t-12.5 54.5l6 35q8 52 61 69l215 78q44 15 82 15h23q34 0 50.5 -18.5t10.5 -53.5l-209 -1196h148z" />
    <glyph glyph-name="two.tf" horiz-adv-x="860" 
d="M258 934q-34 0 -50 19.5t-9 54.5l24 147q28 156 116 225.5t261 69.5h4q150 0 224 -73t46 -222l-30 -186q-6 -30 -16.5 -57.5t-20 -48.5t-31.5 -46.5t-35 -40.5t-47 -43t-50.5 -41t-62 -48t-67.5 -52q-58 -45 -84.5 -66.5t-64.5 -55t-55 -55.5t-32 -50t-20 -56l-27 -147
h396q34 0 50.5 -18.5t10.5 -53.5l-6 -29q-9 -61 -72 -61h-520q-34 0 -50.5 18.5t-10.5 53.5l43 241q9 52 33 100.5t45.5 80.5t78.5 83t83.5 72t107.5 83q9 7 14 11q128 96 157 124q56 53 66 112l27 151q31 158 -115 158q-70 0 -110.5 -36.5t-55.5 -121.5l-24 -135
q-12 -61 -74 -61h-47z" />
    <glyph glyph-name="three.tf" horiz-adv-x="860" 
d="M838 971q-7 -45 -19 -79.5t-32.5 -67t-54.5 -53t-81 -26.5q75 -16 98.5 -75.5t10.5 -130.5l-43 -252q-27 -152 -111 -227.5t-246 -75.5h-55q-139 0 -208 80t-42 223l21 125q11 61 74 61h49q35 0 52 -19t11 -53l-16 -90q-31 -166 108 -166h15q135 0 166 166l38 224
q23 127 -106 127h-90q-34 0 -51 19t-11 54l4 25q9 61 74 61h82q75 0 118 34.5t56 113.5l29 153q27 166 -109 166h-18q-139 0 -166 -166l-12 -67q-9 -62 -74 -62h-45q-73 0 -61 72l14 82q28 160 118 231.5t259 71.5h14q146 0 222 -75t48 -228z" />
    <glyph glyph-name="four.tf" horiz-adv-x="860" 
d="M760 1434q34 0 50.5 -18.5t10.5 -53.5l-149 -850h63q34 0 50 -18.5t10 -53.5l-4 -30q-4 -30 -24 -46t-50 -16h-74l-51 -287q-9 -61 -74 -61h-49q-34 0 -50.5 18.5t-10.5 53.5l49 276h-359q-36 0 -52 18.5t-9 53.5l8 57q6 33 29 80l493 829q23 48 80 48h113zM610 1217
l-401 -705h276z" />
    <glyph glyph-name="five.tf" horiz-adv-x="860" 
d="M895 1329q-9 -61 -72 -61h-387l-69 -400q37 39 81.5 59.5t122.5 20.5q51 0 95 -15t79.5 -46.5t50 -87.5t1.5 -129l-70 -391q-26 -155 -116 -225t-263 -70h-4q-150 0 -226.5 73t-49.5 222l28 161q9 60 74 60h45q73 0 61 -72l-20 -125q-14 -85 15.5 -121.5t101.5 -36.5
q73 0 115 36.5t57 121.5l59 340q14 80 -13.5 110.5t-82.5 30.5q-84 0 -148 -61q-31 -36 -69 -25l-74 21q-61 19 -49 82l100 571q9 62 72 62h500q34 0 50.5 -18.5t10.5 -53.5z" />
    <glyph glyph-name="six.tf" horiz-adv-x="860" 
d="M850 1077q-9 -57 -72 -57h-51q-34 0 -50.5 19t-10.5 53l6 38q17 89 -9 123.5t-98 34.5q-73 0 -110 -34t-54 -124l-55 -319q64 74 197 74q56 0 102.5 -16.5t81.5 -49t49.5 -88.5t1.5 -129l-57 -323q-27 -157 -113.5 -226t-263.5 -69h-4q-154 0 -227.5 72.5t-46.5 222.5
l153 876q28 158 112.5 226.5t260.5 68.5h4q153 0 223.5 -72t42.5 -223zM471 721q-142 0 -166 -146l-49 -272q-14 -89 13.5 -123.5t101.5 -34.5q73 0 113.5 35t54.5 123l49 272q13 80 -17 113t-100 33z" />
    <glyph glyph-name="seven.tf" horiz-adv-x="860" 
d="M920 1337q-4 -29 -27 -77l-596 -1211q-22 -49 -80 -49h-45q-40 0 -54 23t3 57l590 1188h-439q-73 0 -61 73l6 31q9 62 72 62h573q34 0 51 -18.5t11 -53.5z" />
    <glyph glyph-name="eight.tf" horiz-adv-x="860" 
d="M629 1450q139 0 207.5 -79.5t42.5 -223.5l-31 -176q-7 -46 -18.5 -80.5t-32 -67t-54.5 -52.5t-81 -26q39 -6 64.5 -35t33 -66t10 -77t-5.5 -69l-37 -211q-27 -152 -110.5 -227.5t-245.5 -75.5h-64q-139 0 -208 80t-42 223l37 211q36 221 189 247q-50 7 -78 45t-30.5 85.5
t3.5 95.5l31 176q26 152 110 227.5t246 75.5h64zM659 969l29 153q14 86 -14.5 126t-85.5 40h-39q-59 0 -101.5 -40t-56.5 -126l-29 -153q-13 -77 16.5 -112.5t88.5 -35.5h39q57 0 98.5 35.5t54.5 112.5zM545 311l35 203q14 77 -15 112.5t-88 35.5h-39q-57 0 -99 -35.5
t-56 -112.5l-35 -203q-14 -86 14 -126t86 -40h39q57 0 100.5 40.5t57.5 125.5z" />
    <glyph glyph-name="nine.tf" horiz-adv-x="860" 
d="M84 358q9 56 72 56h49q36 0 52 -18.5t9 -53.5l-6 -39q-15 -90 10.5 -124t98.5 -34q72 0 109 34.5t52 123.5l56 320q-64 -74 -197 -74q-56 0 -102.5 16.5t-81.5 49t-49.5 88t-1.5 128.5l57 324q28 157 115 226t264 69h4q154 0 227 -72.5t45 -222.5l-153 -876
q-27 -158 -111 -226.5t-260 -68.5h-4q-153 0 -224 72t-44 223zM461 713q65 0 110 35t58 110l47 272q17 88 -11.5 123t-101.5 35q-74 0 -113.5 -34.5t-56.5 -123.5l-47 -272q-14 -79 16 -112t99 -33z" />
    <glyph glyph-name="colon.tf" horiz-adv-x="430" 
d="M317 975q35 0 51.5 -19.5t10.5 -54.5l-17 -90q-9 -61 -71 -61h-58q-34 0 -50.5 18t-10.5 53l16 92q12 62 74 62h55zM186 225q35 0 51.5 -19t10.5 -54l-17 -91q-9 -61 -71 -61h-58q-34 0 -50.5 18.5t-10.5 53.5l16 92q12 61 74 61h55z" />
    <glyph glyph-name="comma.tf" horiz-adv-x="430" 
d="M186 225q35 0 51.5 -19t10.5 -54l-17 -97q-28 -155 -143 -291q-22 -28 -55 -8q-15 9 -17.5 24t9.5 30q67 98 92 190h-15q-34 0 -50.5 18.5t-10.5 53.5l16 92q12 61 74 61h55z" />
    <glyph glyph-name="numbersign.tf" horiz-adv-x="860" 
d="M899 1434q38 0 52.5 -21.5t0.5 -56.5l-135 -336h55q33 0 49.5 -18.5t10.5 -53.5l-4 -20q-9 -60 -72 -60h-100l-121 -303h96q33 0 49.5 -18.5t10.5 -52.5l-5 -21q-9 -59 -71 -59h-142l-145 -361q-20 -53 -80 -53h-10q-38 0 -52.5 21.5t-0.5 56.5l135 336h-152l-145 -361
q-20 -53 -80 -53h-10q-38 0 -52.5 21.5t-0.5 56.5l135 336h-54q-34 0 -50.5 19t-10.5 52l4 21q9 59 72 59h100l121 303h-94q-34 0 -51 19.5t-11 52.5l4 21q9 59 72 59h141l146 362q21 52 80 52h10q38 0 52.5 -21.5t0.5 -56.5l-135 -336h152l145 362q21 52 80 52h10zM481 565
l121 303h-151l-121 -303h151z" />
    <glyph glyph-name="period.tf" horiz-adv-x="430" 
d="M186 225q35 0 51.5 -19t10.5 -54l-17 -91q-9 -61 -71 -61h-58q-34 0 -50.5 18.5t-10.5 53.5l16 92q12 61 74 61h55z" />
    <glyph glyph-name="semicolon.tf" horiz-adv-x="430" 
d="M317 975q35 0 51.5 -19.5t10.5 -54.5l-17 -90q-9 -61 -71 -61h-58q-34 0 -50.5 18t-10.5 53l16 92q12 62 74 62h55zM186 225q35 0 51.5 -19t10.5 -54l-17 -97q-28 -155 -143 -291q-22 -28 -55 -8q-15 9 -17.5 24t9.5 30q67 98 92 190h-15q-34 0 -50.5 18.5t-10.5 53.5
l16 92q12 61 74 61h55z" />
    <glyph glyph-name="space.tf" horiz-adv-x="430" 
 />
    <glyph glyph-name="cent.tf" horiz-adv-x="860" 
d="M653 1274q118 -20 176 -95t37 -202l-12 -66q-11 -61 -74 -61h-53q-34 0 -50.5 18.5t-10.5 53.5l2 18q17 91 -15.5 131.5t-113.5 40.5q-82 0 -129 -40t-64 -132l-78 -446q-17 -91 15.5 -131.5t113.5 -40.5q164 0 193 172l12 63q11 61 74 61h51q35 0 51 -18.5t10 -52.5
l-14 -90q-26 -139 -103 -211.5t-214 -87.5l-17 -97q-9 -61 -73 -61h-35q-74 0 -62 72l15 88q-119 18 -177 91t-36 206l92 520q25 135 102 208.5t215 90.5l17 96q12 62 73 62h37q35 0 51 -18.5t9 -53.5z" />
    <glyph glyph-name="dollar.tf" horiz-adv-x="860" 
d="M684 1442q109 -20 166.5 -92.5t34.5 -194.5l-29 -166q-9 -61 -74 -61h-51q-73 0 -61 71l22 123q13 84 -18.5 122t-108.5 38q-155 0 -180 -160l-18 -98q-10 -64 6.5 -99t72.5 -71l170 -102q30 -19 51.5 -35t43.5 -36t34 -39.5t22.5 -45.5t9.5 -53.5t-5 -63.5l-37 -196
q-25 -141 -98.5 -211t-208.5 -84l-16 -86q-12 -62 -74 -62h-37q-34 0 -50 18.5t-9 53.5l12 78q-118 16 -174.5 88t-32.5 205l31 182q12 61 76 61h51q73 0 61 -71l-24 -140q-13 -84 18.5 -123.5t108.5 -39.5q158 0 184 163l20 113q12 66 -7 103t-79 73l-165 103
q-87 54 -126.5 118.5t-25.5 149.5l31 180q47 255 309 291l16 86q12 61 74 61h35q73 0 61 -71z" />
    <glyph glyph-name="Euro.tf" horiz-adv-x="860" 
d="M623 1450q75 0 134.5 -18.5t100.5 -55t57.5 -95t2.5 -134.5l-35 -195q-9 -61 -74 -61h-55q-34 0 -51 18.5t-11 53.5l27 147q15 92 -16.5 131t-112.5 39t-126.5 -39.5t-60.5 -130.5l-38 -217h182q43 0 37 -43l-4 -21q-6 -36 -43 -36h-189l-22 -119h182q43 0 37 -45l-4 -19
q-3 -37 -41 -37h-191l-45 -249q-17 -91 15 -130.5t114 -39.5q80 0 125 39t62 131l34 192q9 62 72 62h55q36 0 53 -18.5t11 -53.5l-39 -219q-27 -160 -124 -231.5t-277 -71.5h-5q-158 0 -240.5 74t-53.5 229l51 286h-51q-41 0 -35 43l2 21q6 37 43 37h57l23 119h-52
q-42 0 -36 45l4 18q5 37 43 37h57l45 254q26 155 124 229t277 74h5z" />
    <glyph glyph-name="florin.tf" horiz-adv-x="860" 
d="M864 1434q34 0 51 -19.5t11 -52.5l-8 -39q-9 -59 -72 -59h-35q-78 0 -122.5 -39t-61.5 -131l-45 -260h149q35 0 49.5 -22t1.5 -56l-14 -37q-18 -53 -76 -53h-141l-64 -363q-29 -157 -123.5 -230t-265.5 -73h-30q-34 0 -51 18.5t-11 53.5l8 39q9 59 72 59h35
q78 0 122.5 39t61.5 131l57 326h-149q-35 0 -49.5 21.5t-1.5 55.5l14 37q19 54 76 54h139l53 296q29 159 123.5 231.5t266.5 72.5h30z" />
    <glyph glyph-name="sterling.tf" horiz-adv-x="860" 
d="M870 977q-9 -59 -73 -59h-54q-75 0 -63 71l25 141q12 71 -5.5 110.5t-81.5 39.5q-65 0 -97 -39.5t-44 -110.5l-59 -337h157q34 0 50 -18.5t10 -53.5l-4 -23q-9 -61 -72 -61h-168q-41 -229 -84.5 -332t-126.5 -135h455q34 0 50 -18.5t9 -53.5l-6 -37q-9 -61 -72 -61h-565
q-32 0 -50.5 18t-18.5 50v49q-1 28 9.5 45.5t35.5 36.5q67 43 101 137.5t71 300.5h-54q-34 0 -49.5 19t-9.5 53l2 24q12 60 72 60h65l64 354q25 150 106 226.5t250 76.5h4q146 0 211.5 -81t40.5 -222z" />
    <glyph glyph-name="yen.tf" horiz-adv-x="860" 
d="M897 1434q40 0 54 -23t-3 -57l-342 -672h111q43 0 37 -43l-4 -21q-6 -36 -43 -36h-152l-27 -54l-12 -65h162q43 0 37 -45l-4 -19q-3 -37 -41 -37h-170l-54 -301q-9 -61 -73 -61h-56q-34 0 -50 18.5t-9 53.5l49 290h-184q-40 0 -37 44l4 20q6 37 43 37h193l10 65l-8 54
h-166q-43 0 -37 45l4 18q3 37 41 37h141l-104 680q-5 34 11.5 53t51.5 19h58q65 0 71 -66l68 -627l293 641q24 52 80 52h57z" />
    <glyph glyph-name="percent.tf" horiz-adv-x="860" 
d="M383 1442q67 0 111 -43.5t28 -128.5l-47 -266q-14 -88 -67 -130.5t-132 -42.5h-32q-69 0 -113.5 43.5t-30.5 129.5l47 266q32 172 203 172h33zM885 1434q26 0 33 -16.5t-7 -39.5l-790 -1345q-17 -33 -55 -33h-17q-26 0 -35 16t4 39l791 1346q17 33 55 33h21zM406 1247
q14 86 -50 86h-20q-64 0 -78 -86l-39 -221q-16 -86 47 -86h21q64 0 80 86zM690 602q67 0 111 -43.5t28 -128.5l-47 -266q-14 -88 -67.5 -130t-132.5 -42h-33q-69 0 -112 43t-29 129l47 266q32 172 202 172h33zM713 408q14 86 -49 86h-21q-64 0 -78 -86l-39 -222
q-16 -86 47 -86h21q64 0 80 86z" />
    <glyph glyph-name="bar.tf" horiz-adv-x="430" 
d="M186 -143q-9 -62 -71 -62h-41q-34 0 -51 18.5t-11 53.5l303 1710q9 61 72 61h41q34 0 50.5 -18t10.5 -53z" />
    <glyph glyph-name="brokenbar.tf" horiz-adv-x="430" 
d="M270 901q-34 0 -50.5 18.5t-10.5 53.5l106 604q9 61 72 61h41q34 0 50.5 -18t10.5 -53l-106 -604q-9 -62 -72 -62h-41zM240 573q34 0 50.5 -18t10.5 -53l-115 -645q-9 -62 -71 -62h-41q-34 0 -51 18.5t-11 53.5l115 645q9 61 72 61h41z" />
    </font>
</defs>
</svg>
