<?xml version="1.0" standalone="no"?>
<!DOCTYPE svg PUBLIC "-//W3C//DTD SVG 1.1//EN" "http://www.w3.org/Graphics/SVG/1.1/DTD/svg11.dtd" >
<svg xmlns="http://www.w3.org/2000/svg" xmlns:xlink="http://www.w3.org/1999/xlink" version="1.1">
<metadata>
Created by FontForge 20170731 at Sat Aug  8 16:42:55 2020
 By Aleksey,,,
Copyright (c) 2016 by Mattox Shuler. All rights reserved.
</metadata>
<defs>
<font id="Rift-BoldItalic" horiz-adv-x="917" >
  <font-face 
    font-family="Rift Bold"
    font-weight="700"
    font-style="italic"
    font-stretch="normal"
    units-per-em="2048"
    panose-1="0 0 8 0 0 0 0 0 0 0"
    ascent="1597"
    descent="-451"
    x-height="1434"
    cap-height="1434"
    bbox="-633 -680 1756.94 2183"
    underline-thickness="102"
    underline-position="-307"
    slope="-10"
    unicode-range="U+0020-2260"
  />
<missing-glyph horiz-adv-x="1024" 
d="M840 1597v-2048h-650v2048h650zM682 1460h-338v-67h133v-76h-135v-68h340v68h-135v76h135v67zM547 1196h-205v-213h340v70h-135v143zM477 1126v-73h-67v73h67zM682 928h-340v-68h135v-76h-135v-67h205v143h135v68zM682 805h-68v-135h-272v-70h340v205zM682 555h-205v-115
h70v47h67v-96h-204v164h-68v-231h340v231zM682 201h-340v-232h340v232zM614 133v-96h-204v96h204zM682 -78h-340v-67h143l-143 -97v-67h340v67h-209l143 97h66v67z" />
    <glyph glyph-name=".notdef" horiz-adv-x="1024" 
d="M840 1597v-2048h-650v2048h650zM682 1460h-338v-67h133v-76h-135v-68h340v68h-135v76h135v67zM547 1196h-205v-213h340v70h-135v143zM477 1126v-73h-67v73h67zM682 928h-340v-68h135v-76h-135v-67h205v143h135v68zM682 805h-68v-135h-272v-70h340v205zM682 555h-205v-115
h70v47h67v-96h-204v164h-68v-231h340v231zM682 201h-340v-232h340v232zM614 133v-96h-204v96h204zM682 -78h-340v-67h143l-143 -97v-67h340v67h-209l143 97h66v67z" />
    <glyph glyph-name=".null" horiz-adv-x="0" 
 />
    <glyph glyph-name="nonmarkingreturn" horiz-adv-x="682" 
 />
    <glyph glyph-name="space" unicode=" " horiz-adv-x="327" 
 />
    <glyph glyph-name="exclam" unicode="!" horiz-adv-x="397" 
d="M479 1434l-37 -220l-180 -839h-176l117 837l39 222h237zM272 266l-47 -266h-233l47 266h233z" />
    <glyph glyph-name="quotedbl" unicode="&#x22;" horiz-adv-x="735" 
d="M530 1434l-292 -549h-132l179 549h245zM877 1434l-293 -549h-131l178 549h246z" />
    <glyph glyph-name="numbersign" unicode="#" horiz-adv-x="1224" 
d="M1264 852h-244l-111 -270h226l-33 -185h-266l-160 -397h-209l160 397h-215l-160 -397h-209l160 397h-203l33 185h243l111 270h-225l33 184h266l160 398h208l-159 -398h215l159 398h209l-159 -398h202zM700 582l111 270h-215l-111 -270h215z" />
    <glyph glyph-name="dollar" unicode="$" horiz-adv-x="856" 
d="M700 1440q106 -24 161.5 -94.5t33.5 -190.5l-41 -233h-233l36 200q19 123 -100 123q-122 0 -141 -123l-19 -98q-9 -56 5 -90.5t59 -63.5l151 -94q30 -19 51 -33.5t42.5 -32.5t35.5 -35t25.5 -37.5t16 -42.5t5 -48.5t-5.5 -57.5l-37 -206q-24 -137 -97 -206t-204 -87
l-26 -150h-211l26 152q-113 20 -168 90.5t-32 200.5l45 249h233l-39 -217q-10 -64 17.5 -95.5t83.5 -31.5q57 0 96 32t49 95l21 113q10 58 -5 93.5t-63 64.5l-149 94q-197 125 -168 287l32 188q46 249 303 289l27 149h211z" />
    <glyph glyph-name="percent" unicode="%" horiz-adv-x="1046" 
d="M436 1442q70 0 116 -43t30 -127l-47 -271q-28 -170 -205 -170h-33q-72 0 -118 43t-32 127l48 271q32 170 208 170h33zM1085 1434l-917 -1434h-135l917 1434h135zM446 1247q14 70 -40 70h-19q-51 0 -65 -70l-39 -221q-11 -70 41 -70h18q55 0 66 70zM825 602q70 0 116 -43
t30 -127l-47 -270q-14 -87 -68.5 -128.5t-138.5 -41.5h-33q-72 0 -116.5 42.5t-30.5 127.5l47 270q32 170 209 170h32zM836 408q11 69 -41 69h-19q-54 0 -65 -69l-39 -222q-11 -69 41 -69h18q55 0 66 69z" />
    <glyph glyph-name="ampersand" unicode="&#x26;" horiz-adv-x="948" 
d="M936 782l-213 -469l149 -313h-223l-47 96q-51 -57 -122 -84.5t-177 -27.5h-14q-146 0 -214 77.5t-44 208.5l57 320q29 165 141 233q-53 124 -34 244l14 88q29 158 125.5 226.5t277.5 68.5h4q159 0 242.5 -72t54.5 -223l-32 -192h-226l29 163q11 68 -16.5 95.5t-83.5 27.5
q-126 0 -146 -123l-10 -55q-12 -51 -5 -93t48 -130l141 -299l107 233h217zM354 180q56 0 86 28t60 97l-168 342l-6 -29l-52 -294q-14 -77 3.5 -110.5t76.5 -33.5z" />
    <glyph glyph-name="quotesingle" unicode="'" horiz-adv-x="389" 
d="M530 1434l-292 -549h-132l179 549h245z" />
    <glyph glyph-name="parenleft" unicode="(" horiz-adv-x="565" 
d="M606 1323q-64 0 -103 -29.5t-50 -101.5l-168 -950q-13 -72 16 -101.5t92 -29.5h70l-37 -209h-70q-76 0 -137 17t-105 52.5t-61.5 95t-3.5 138.5l180 1024q29 161 130 232t284 71h70l-37 -209h-70z" />
    <glyph glyph-name="parenright" unicode=")" horiz-adv-x="563" 
d="M244 1323h-70l37 209h70q76 0 136.5 -17t105 -52t62 -94.5t3.5 -139.5l-180 -1024q-29 -160 -130.5 -231.5t-283.5 -71.5h-70l37 209h70q63 0 101.5 29.5t51.5 101.5l168 950q11 72 -17 101.5t-91 29.5z" />
    <glyph glyph-name="asterisk" unicode="*" horiz-adv-x="700" 
d="M537 1116l137 -166l-154 -104l-69 209l-146 -209l-121 104l195 168l-227 39l77 154l195 -101l2 232h178l-82 -232l232 109l22 -164z" />
    <glyph glyph-name="plus" unicode="+" horiz-adv-x="860" 
d="M829 825l-30 -176h-256l-45 -256h-176l45 256h-256l30 176h256l45 256h176l-45 -256h256z" />
    <glyph glyph-name="comma" unicode="," horiz-adv-x="397" 
d="M272 266l-36 -205q-16 -90 -68.5 -176.5t-122.5 -154.5l-80 45q95 110 133 225h-106l47 266h233z" />
    <glyph glyph-name="hyphen" unicode="-" horiz-adv-x="565" 
d="M580 829l-33 -192h-484l33 192h484z" />
    <glyph glyph-name="period" unicode="." horiz-adv-x="397" 
d="M272 266l-47 -266h-233l47 266h233z" />
    <glyph glyph-name="slash" unicode="/" horiz-adv-x="653" 
d="M834 1532l-725 -1630h-215l724 1630h216z" />
    <glyph glyph-name="zero" unicode="0" horiz-adv-x="892" 
d="M621 1450q156 0 236 -74t54 -229l-151 -860q-29 -161 -124 -232t-274 -71h-16q-156 0 -237.5 74t-53.5 229l152 860q27 161 122.5 232t274.5 71h17zM676 1110q11 73 -14.5 102t-86.5 29t-97.5 -29t-47.5 -102l-139 -786q-13 -73 13 -102t87 -29t97 29t49 102z" />
    <glyph glyph-name="one" unicode="1" horiz-adv-x="483" 
d="M262 0h-229l223 1266q90 79 129 168h129z" />
    <glyph glyph-name="two" unicode="2" horiz-adv-x="811" 
d="M145 922l41 233q29 159 119.5 227t269.5 68h5q157 0 233.5 -71t48.5 -224l-28 -168q-7 -38 -18 -69.5t-30 -61.5t-35 -51.5t-48.5 -51.5t-53.5 -47.5t-66.5 -55t-72.5 -60.5q-15 -13 -43.5 -36.5t-41.5 -34.5t-35.5 -30.5t-33.5 -30t-27 -26.5t-24.5 -27.5t-17.5 -25
t-14 -26t-7 -25.5l-22 -131h450l-35 -197h-679l59 332q5 30 13.5 57t24 54.5t28 48t38.5 47.5t41 43.5t50 46.5t52 44t60.5 49t61.5 50q13 10 36 29t32.5 27t27 22.5t25 21.5t20 19.5t18 20t13.5 18t11.5 19.5t7 20t5.5 22l25 139q13 69 -11.5 96t-78.5 27t-86 -27t-45 -96
l-37 -208h-226z" />
    <glyph glyph-name="three" unicode="3" horiz-adv-x="821" 
d="M829 971q-7 -46 -18.5 -80.5t-31.5 -66.5t-53 -52t-77 -27q47 -9 74.5 -45t30.5 -77.5t-2 -83.5l-43 -252q-28 -155 -114.5 -229t-254.5 -74h-55q-145 0 -217 78t-45 225l32 192h230l-29 -168q-13 -69 12 -100t72 -31h14q46 0 81 30.5t48 100.5l39 224q10 54 -12 82
t-66 28h-174l33 193h154q119 0 141 131l29 153q11 70 -13.5 100.5t-70.5 30.5h-19q-47 0 -82.5 -31t-46.5 -100l-24 -135h-226l29 160q29 163 121.5 233t267.5 70h15q73 0 129 -16.5t96.5 -51.5t55.5 -95t1 -140z" />
    <glyph glyph-name="four" unicode="4" horiz-adv-x="774" 
d="M817 1434l-158 -904h103l-37 -200h-102l-58 -330h-229l57 330h-409l36 207l490 897h307zM549 1198l-342 -668h223z" />
    <glyph glyph-name="five" unicode="5" horiz-adv-x="839" 
d="M881 1233h-430l-60 -336q34 32 71.5 48t106.5 16q55 0 100.5 -16t81 -51.5t47 -91.5t-0.5 -136l-68 -387q-28 -159 -119.5 -227t-271.5 -68h-4q-157 0 -236 71.5t-53 223.5l41 233h225l-37 -209q-11 -69 13.5 -96t81.5 -27t90.5 27t44.5 96l59 336q11 69 -10 96t-68 27
q-81 0 -133 -86l-219 61l123 697h659z" />
    <glyph glyph-name="six" unicode="6" horiz-adv-x="860" 
d="M852 1020h-229l18 110q13 71 -7 97t-75 26t-84.5 -26t-42.5 -97l-51 -294q31 31 69 47t109 16q56 0 102 -16.5t81 -50.5t48.5 -92.5t0.5 -135.5l-58 -325q-28 -159 -118.5 -227t-270.5 -68h-4q-157 0 -235 71.5t-52 223.5l154 876q29 160 117.5 227.5t267.5 67.5h4
q156 0 231 -71t47 -224zM467 700q-110 0 -131 -122l-49 -275q-11 -70 11.5 -96.5t78.5 -26.5t88 26.5t43 96.5l49 275q11 70 -11.5 96t-78.5 26z" />
    <glyph glyph-name="seven" unicode="7" horiz-adv-x="706" 
d="M791 1268l-533 -1268h-233l518 1233h-400l35 201h641z" />
    <glyph glyph-name="eight" unicode="8" horiz-adv-x="841" 
d="M618 1450q145 0 217 -78t46 -225l-31 -176q-7 -46 -18.5 -80.5t-31.5 -66.5t-53 -52t-77 -27q35 -7 59 -36t32 -65.5t10 -76.5t-5 -69l-37 -211q-28 -155 -114.5 -229t-254.5 -74h-63q-145 0 -217 78t-45 225l37 211q36 219 182 247q-47 7 -73.5 45t-28.5 85.5t4 95.5
l30 176q27 154 114 228.5t255 74.5h63zM618 969l29 153q11 67 -12.5 99t-63.5 32h-39q-40 0 -74.5 -32t-45.5 -99l-29 -153q-11 -67 12.5 -99t63.5 -32h39q40 0 74.5 32t45.5 99zM504 311l35 203q12 66 -11 98.5t-63 32.5h-39q-40 0 -75.5 -32t-47.5 -99l-35 -203
q-11 -67 12.5 -99t63.5 -32h39q40 0 75 32.5t46 98.5z" />
    <glyph glyph-name="nine" unicode="9" horiz-adv-x="860" 
d="M82 414h229l-20 -111q-12 -71 8.5 -97t75.5 -26t84 26t41 97l51 295q-34 -32 -71 -47.5t-107 -15.5q-56 0 -102 16.5t-81 50t-48.5 92t-0.5 135.5l58 326q29 159 120 227t271 68h4q157 0 235 -71.5t50 -223.5l-154 -876q-28 -159 -116 -227t-267 -68h-4q-156 0 -232 71
t-49 224zM465 733q112 0 133 123l47 274q13 70 -9.5 96.5t-78.5 26.5t-88 -26.5t-45 -96.5l-47 -274q-13 -70 9.5 -96.5t78.5 -26.5z" />
    <glyph glyph-name="colon" unicode=":" horiz-adv-x="397" 
d="M401 1004l-47 -267h-233l47 267h233zM272 266l-47 -266h-233l47 266h233z" />
    <glyph glyph-name="semicolon" unicode=";" horiz-adv-x="397" 
d="M401 1004l-47 -267h-233l47 267h233zM272 266l-36 -205q-16 -90 -68.5 -176.5t-122.5 -154.5l-80 45q95 110 133 225h-106l47 266h233z" />
    <glyph glyph-name="less" unicode="&#x3c;" horiz-adv-x="860" 
d="M797 989l45 254l-666 -409l-37 -205l523 -410l43 238l-375 268z" />
    <glyph glyph-name="equal" unicode="=" horiz-adv-x="860" 
d="M858 991l-31 -176h-688l31 176h688zM799 651l-31 -176h-688l31 176h688z" />
    <glyph glyph-name="greater" unicode="&#x3e;" horiz-adv-x="860" 
d="M233 1006l375 -269l-467 -264l-45 -254l666 410l37 205l-523 409z" />
    <glyph glyph-name="question" unicode="?" horiz-adv-x="782" 
d="M272 389l33 191q14 79 51.5 140.5t116.5 123.5q32 25 47.5 39t37 45.5t26.5 62.5l24 139q13 69 -11.5 96t-78.5 27t-86 -27t-45 -96l-37 -208h-225l41 233q29 159 119.5 227t269.5 68h4q157 0 234 -71t49 -224l-29 -168q-6 -33 -15 -61.5t-17 -49t-22.5 -42t-22.5 -32.5
t-27.5 -28t-26 -22.5t-29.5 -22t-28 -20.5q-43 -32 -66 -51.5t-50.5 -57.5t-33.5 -78l-22 -133h-181zM457 266l-47 -266h-234l47 266h234z" />
    <glyph glyph-name="at" unicode="@" horiz-adv-x="1267" 
d="M979 1450q159 0 246 -74.5t61 -228.5l-117 -653q-52 -304 -305 -304q-62 0 -99 26t-44 56q-18 -39 -74.5 -66.5t-128.5 -27.5h-4q-30 0 -61 11.5t-58.5 34.5t-41 65.5t-3.5 97.5l90 504q18 104 83 156.5t157 52.5h4q52 0 95 -30.5t46 -65.5l58 83h112l-123 -688
q-6 -40 8 -60t42 -20q39 0 68.5 44t41.5 112l121 690q14 82 -32 120t-138 38h-412q-92 0 -152.5 -38t-74.5 -120l-176 -1007q-14 -82 32 -120t138 -38h493l-22 -127h-479q-76 0 -135 17t-100.5 52.5t-57.5 95t-2 138.5l172 971q27 159 129 231t285 72h358zM702 424l78 430
q8 50 -10.5 70t-60.5 20q-86 0 -101 -90l-78 -430q-7 -50 12 -70t60 -20q87 0 100 90z" />
    <glyph glyph-name="A" unicode="A" horiz-adv-x="868" 
d="M762 0h-236l6 319h-264l-106 -319h-236l518 1434h299zM334 516h201l12 637z" />
    <glyph glyph-name="B" unicode="B" horiz-adv-x="903" 
d="M903 971q-16 -96 -66 -156t-135 -70q81 -13 112 -75.5t17 -151.5l-43 -235q-24 -137 -126.5 -210t-278.5 -73h-371l252 1434h375q152 0 235.5 -75.5t59.5 -207.5zM467 1229l-70 -387h133q112 0 132 110l28 166q20 111 -90 111h-133zM596 530q9 56 -15.5 83.5t-76.5 27.5
h-142l-75 -436h141q112 0 129 110z" />
    <glyph glyph-name="C" unicode="C" horiz-adv-x="905" 
d="M831 584l-51 -297q-29 -162 -129.5 -232.5t-283.5 -70.5h-5q-77 0 -137.5 16.5t-105 51t-62 94.5t-2.5 141l152 860q27 157 129.5 230t284.5 73h4q76 0 136.5 -18t104.5 -53.5t61.5 -94.5t4.5 -137l-47 -262h-238l41 225q11 72 -15 101.5t-87 29.5q-127 0 -148 -131
l-139 -786q-13 -71 14 -101t88 -30t98 30t50 101l45 260h237z" />
    <glyph glyph-name="D" unicode="D" horiz-adv-x="923" 
d="M631 1434q76 0 137 -17.5t105 -53t61.5 -95t3.5 -138.5l-145 -827q-29 -160 -130.5 -231.5t-283.5 -71.5h-367l252 1434h367zM694 1094q13 72 -16 101.5t-92 29.5h-121l-178 -1016h121q63 0 101.5 29.5t51.5 101.5z" />
    <glyph glyph-name="E" unicode="E" horiz-adv-x="802" 
d="M647 0h-635l252 1434h629l-37 -209h-391l-68 -394h328l-37 -208h-328l-73 -414h397z" />
    <glyph glyph-name="F" unicode="F" horiz-adv-x="755" 
d="M12 0l252 1434h621l-37 -209h-383l-70 -404h320l-37 -209h-320l-108 -612h-238z" />
    <glyph glyph-name="G" unicode="G" horiz-adv-x="921" 
d="M870 737l-77 -450q-29 -162 -130 -232.5t-284 -70.5h-17q-77 0 -137.5 16.5t-105 51t-62 94.5t-2.5 141l152 860q27 157 129.5 230t284.5 73h16q76 0 136.5 -18t104.5 -53.5t61.5 -94.5t4.5 -137l-37 -205h-237l30 168q11 72 -17 101.5t-91 29.5q-64 0 -103.5 -29.5
t-50.5 -101.5l-139 -786q-13 -72 16 -101.5t93 -29.5q63 0 101.5 29.5t51.5 101.5l37 213h-139l35 200h376z" />
    <glyph glyph-name="H" unicode="H" horiz-adv-x="952" 
d="M264 1434h238l-105 -598h273l104 598h238l-252 -1434h-238l111 623h-273l-110 -623h-238z" />
    <glyph glyph-name="I" unicode="I" horiz-adv-x="458" 
d="M258 0h-238l252 1434h238z" />
    <glyph glyph-name="J" unicode="J" horiz-adv-x="577" 
d="M57 213q64 0 103.5 29.5t52.5 101.5l190 1090h238l-199 -1131q-29 -162 -131 -232.5t-286 -70.5h-91l37 213h86z" />
    <glyph glyph-name="K" unicode="K" horiz-adv-x="880" 
d="M1022 1434l-369 -539l142 -895h-236l-88 631l-147 -217l-74 -414h-238l252 1434h238l-113 -646l377 646h256z" />
    <glyph glyph-name="L" unicode="L" horiz-adv-x="731" 
d="M653 213l-37 -213h-604l252 1434h238l-215 -1221h366z" />
    <glyph glyph-name="M" unicode="M" horiz-adv-x="1218" 
d="M950 877l-332 -668h-133l-98 668l-154 -877h-221l252 1434h221l131 -834l424 834h238l-252 -1434h-229z" />
    <glyph glyph-name="N" unicode="N" horiz-adv-x="960" 
d="M229 0h-217l252 1434h234l149 -887l156 887h217l-252 -1434h-221l-154 932z" />
    <glyph glyph-name="O" unicode="O" horiz-adv-x="925" 
d="M207 1147q29 161 130 232t284 71h16q159 0 246 -74.5t61 -228.5l-151 -860q-29 -160 -130.5 -231.5t-283.5 -71.5h-17q-76 0 -137 17t-105 52.5t-61.5 95t-3.5 138.5zM299 324q-13 -72 16 -101.5t93 -29.5q63 0 101.5 29.5t51.5 101.5l139 786q11 72 -17 101.5t-91 29.5
q-64 0 -103.5 -29.5t-50.5 -101.5z" />
    <glyph glyph-name="P" unicode="P" horiz-adv-x="882" 
d="M635 1434q76 0 137 -17.5t105 -53t61.5 -95t3.5 -138.5l-47 -272q-29 -160 -130.5 -231.5t-283.5 -71.5h-133l-98 -555h-238l252 1434h371zM664 895l34 199q13 72 -16 101.5t-92 29.5h-125l-80 -461h125q63 0 102 29.5t52 101.5z" />
    <glyph glyph-name="Q" unicode="Q" horiz-adv-x="925" 
d="M637 1450q159 0 246 -74.5t61 -228.5l-151 -860q-24 -135 -100.5 -206.5t-209.5 -90.5l-34 -195h-218l35 197q-116 20 -175.5 93.5t-35.5 201.5l152 860q29 161 130 232t284 71h16zM700 1110q11 72 -17 101.5t-91 29.5q-64 0 -103.5 -29.5t-50.5 -101.5l-139 -786
q-13 -72 16 -101.5t93 -29.5q63 0 101.5 29.5t51.5 101.5z" />
    <glyph glyph-name="R" unicode="R" horiz-adv-x="923" 
d="M635 1434q76 0 137 -17.5t105 -53t61.5 -95t3.5 -138.5l-45 -256q-36 -205 -201 -270l97 -604h-236l-80 571h-127l-100 -571h-238l252 1434h371zM698 1094q13 72 -16 101.5t-92 29.5h-125l-78 -449h125q63 0 102 29.5t52 101.5z" />
    <glyph glyph-name="S" unicode="S" horiz-adv-x="856" 
d="M854 922h-233l36 200q19 123 -100 123q-122 0 -141 -123l-19 -98q-9 -56 5 -90.5t59 -63.5l151 -94q30 -19 51 -33.5t42.5 -32.5t35.5 -35t25.5 -37.5t16 -42.5t5 -48.5t-5.5 -57.5l-37 -206q-29 -162 -125.5 -230.5t-279.5 -68.5h-4q-77 0 -136.5 16t-103 49.5t-60.5 93
t-3 140.5l45 249h233l-39 -217q-10 -64 17.5 -95.5t83.5 -31.5q57 0 96 32t49 95l21 113q10 58 -5 93.5t-63 64.5l-149 94q-197 125 -168 287l32 188q54 295 406 295h4q69 0 127 -16.5t103 -50.5t64 -92.5t5 -135.5z" />
    <glyph glyph-name="T" unicode="T" horiz-adv-x="757" 
d="M899 1434l-37 -209h-239l-215 -1225h-238l215 1225h-240l37 209h717z" />
    <glyph glyph-name="U" unicode="U" 
d="M981 1434l-201 -1147q-29 -162 -127.5 -232.5t-281.5 -70.5h-9q-77 0 -136.5 16.5t-103.5 51t-61 94.5t-2 141l201 1147h238l-195 -1110q-13 -73 12.5 -102t87.5 -29t97.5 29t48.5 102l194 1110h238z" />
    <glyph glyph-name="V" unicode="V" horiz-adv-x="835" 
d="M981 1434l-522 -1434h-262l-19 1434h236l-21 -1063l352 1063h236z" />
    <glyph glyph-name="W" unicode="W" horiz-adv-x="1314" 
d="M1456 1434l-477 -1434h-223l-11 983l-358 -983h-231l26 1434h230l-64 -1024l365 1024h213l4 -1024l297 1024h229z" />
    <glyph glyph-name="X" unicode="X" horiz-adv-x="866" 
d="M981 1434l-373 -703l152 -731h-240l-86 524l-258 -524h-250l410 731l-135 703h239l68 -480l223 480h250z" />
    <glyph glyph-name="Y" unicode="Y" horiz-adv-x="847" 
d="M543 510l-90 -510h-238l90 510l-127 924h244l43 -666l276 666h252z" />
    <glyph glyph-name="Z" unicode="Z" horiz-adv-x="768" 
d="M672 197l-35 -197h-686l29 164l608 1073h-393l32 197h647l-28 -164l-606 -1073h432z" />
    <glyph glyph-name="bracketleft" unicode="[" horiz-adv-x="565" 
d="M475 1323l-213 -1212h201l-37 -209h-430l287 1630h430l-37 -209h-201z" />
    <glyph glyph-name="backslash" unicode="\" horiz-adv-x="653" 
d="M180 1532h205l162 -1630h-205z" />
    <glyph glyph-name="bracketright" unicode="]" horiz-adv-x="565" 
d="M375 1323h-201l37 209h430l-287 -1630h-430l37 209h201z" />
    <glyph glyph-name="asciicircum" unicode="^" horiz-adv-x="770" 
d="M270 717l246 508l70 -508h205l-121 717h-246l-371 -717h217z" />
    <glyph glyph-name="underscore" unicode="_" horiz-adv-x="745" 
d="M651 -82l-30 -168h-766l30 168h766z" />
    <glyph glyph-name="grave" unicode="`" horiz-adv-x="927" 
d="M702 1835l101 -289h-174l-191 289h264z" />
    <glyph glyph-name="a" unicode="a" horiz-adv-x="868" 
d="M762 0h-236l6 319h-264l-106 -319h-236l518 1434h299zM334 516h201l12 637z" />
    <glyph glyph-name="b" unicode="b" horiz-adv-x="903" 
d="M903 971q-16 -96 -66 -156t-135 -70q81 -13 112 -75.5t17 -151.5l-43 -235q-24 -137 -126.5 -210t-278.5 -73h-371l252 1434h375q152 0 235.5 -75.5t59.5 -207.5zM467 1229l-70 -387h133q112 0 132 110l28 166q20 111 -90 111h-133zM596 530q9 56 -15.5 83.5t-76.5 27.5
h-142l-75 -436h141q112 0 129 110z" />
    <glyph glyph-name="c" unicode="c" horiz-adv-x="905" 
d="M831 584l-51 -297q-29 -162 -129.5 -232.5t-283.5 -70.5h-5q-77 0 -137.5 16.5t-105 51t-62 94.5t-2.5 141l152 860q27 157 129.5 230t284.5 73h4q76 0 136.5 -18t104.5 -53.5t61.5 -94.5t4.5 -137l-47 -262h-238l41 225q11 72 -15 101.5t-87 29.5q-127 0 -148 -131
l-139 -786q-13 -71 14 -101t88 -30t98 30t50 101l45 260h237z" />
    <glyph glyph-name="d" unicode="d" horiz-adv-x="923" 
d="M631 1434q76 0 137 -17.5t105 -53t61.5 -95t3.5 -138.5l-145 -827q-29 -160 -130.5 -231.5t-283.5 -71.5h-367l252 1434h367zM694 1094q13 72 -16 101.5t-92 29.5h-121l-178 -1016h121q63 0 101.5 29.5t51.5 101.5z" />
    <glyph glyph-name="e" unicode="e" horiz-adv-x="802" 
d="M647 0h-635l252 1434h629l-37 -209h-391l-68 -394h328l-37 -208h-328l-73 -414h397z" />
    <glyph glyph-name="f" unicode="f" horiz-adv-x="755" 
d="M12 0l252 1434h621l-37 -209h-383l-70 -404h320l-37 -209h-320l-108 -612h-238z" />
    <glyph glyph-name="g" unicode="g" horiz-adv-x="921" 
d="M870 737l-77 -450q-29 -162 -130 -232.5t-284 -70.5h-17q-77 0 -137.5 16.5t-105 51t-62 94.5t-2.5 141l152 860q27 157 129.5 230t284.5 73h16q76 0 136.5 -18t104.5 -53.5t61.5 -94.5t4.5 -137l-37 -205h-237l30 168q11 72 -17 101.5t-91 29.5q-64 0 -103.5 -29.5
t-50.5 -101.5l-139 -786q-13 -72 16 -101.5t93 -29.5q63 0 101.5 29.5t51.5 101.5l37 213h-139l35 200h376z" />
    <glyph glyph-name="h" unicode="h" horiz-adv-x="952" 
d="M264 1434h238l-105 -598h273l104 598h238l-252 -1434h-238l111 623h-273l-110 -623h-238z" />
    <glyph glyph-name="i" unicode="i" horiz-adv-x="458" 
d="M258 0h-238l252 1434h238z" />
    <glyph glyph-name="j" unicode="j" horiz-adv-x="577" 
d="M57 213q64 0 103.5 29.5t52.5 101.5l190 1090h238l-199 -1131q-29 -162 -131 -232.5t-286 -70.5h-91l37 213h86z" />
    <glyph glyph-name="k" unicode="k" horiz-adv-x="880" 
d="M1022 1434l-369 -539l142 -895h-236l-88 631l-147 -217l-74 -414h-238l252 1434h238l-113 -646l377 646h256z" />
    <glyph glyph-name="l" unicode="l" horiz-adv-x="731" 
d="M653 213l-37 -213h-604l252 1434h238l-215 -1221h366z" />
    <glyph glyph-name="m" unicode="m" horiz-adv-x="1218" 
d="M950 877l-332 -668h-133l-98 668l-154 -877h-221l252 1434h221l131 -834l424 834h238l-252 -1434h-229z" />
    <glyph glyph-name="n" unicode="n" horiz-adv-x="960" 
d="M229 0h-217l252 1434h234l149 -887l156 887h217l-252 -1434h-221l-154 932z" />
    <glyph glyph-name="o" unicode="o" horiz-adv-x="925" 
d="M207 1147q29 161 130 232t284 71h16q159 0 246 -74.5t61 -228.5l-151 -860q-29 -160 -130.5 -231.5t-283.5 -71.5h-17q-76 0 -137 17t-105 52.5t-61.5 95t-3.5 138.5zM299 324q-13 -72 16 -101.5t93 -29.5q63 0 101.5 29.5t51.5 101.5l139 786q11 72 -17 101.5t-91 29.5
q-64 0 -103.5 -29.5t-50.5 -101.5z" />
    <glyph glyph-name="p" unicode="p" horiz-adv-x="882" 
d="M635 1434q76 0 137 -17.5t105 -53t61.5 -95t3.5 -138.5l-47 -272q-29 -160 -130.5 -231.5t-283.5 -71.5h-133l-98 -555h-238l252 1434h371zM664 895l34 199q13 72 -16 101.5t-92 29.5h-125l-80 -461h125q63 0 102 29.5t52 101.5z" />
    <glyph glyph-name="q" unicode="q" horiz-adv-x="925" 
d="M637 1450q159 0 246 -74.5t61 -228.5l-151 -860q-24 -135 -100.5 -206.5t-209.5 -90.5l-34 -195h-218l35 197q-116 20 -175.5 93.5t-35.5 201.5l152 860q29 161 130 232t284 71h16zM700 1110q11 72 -17 101.5t-91 29.5q-64 0 -103.5 -29.5t-50.5 -101.5l-139 -786
q-13 -72 16 -101.5t93 -29.5q63 0 101.5 29.5t51.5 101.5z" />
    <glyph glyph-name="r" unicode="r" horiz-adv-x="923" 
d="M635 1434q76 0 137 -17.5t105 -53t61.5 -95t3.5 -138.5l-45 -256q-36 -205 -201 -270l97 -604h-236l-80 571h-127l-100 -571h-238l252 1434h371zM698 1094q13 72 -16 101.5t-92 29.5h-125l-78 -449h125q63 0 102 29.5t52 101.5z" />
    <glyph glyph-name="s" unicode="s" horiz-adv-x="856" 
d="M854 922h-233l36 200q19 123 -100 123q-122 0 -141 -123l-19 -98q-9 -56 5 -90.5t59 -63.5l151 -94q30 -19 51 -33.5t42.5 -32.5t35.5 -35t25.5 -37.5t16 -42.5t5 -48.5t-5.5 -57.5l-37 -206q-29 -162 -125.5 -230.5t-279.5 -68.5h-4q-77 0 -136.5 16t-103 49.5t-60.5 93
t-3 140.5l45 249h233l-39 -217q-10 -64 17.5 -95.5t83.5 -31.5q57 0 96 32t49 95l21 113q10 58 -5 93.5t-63 64.5l-149 94q-197 125 -168 287l32 188q54 295 406 295h4q69 0 127 -16.5t103 -50.5t64 -92.5t5 -135.5z" />
    <glyph glyph-name="t" unicode="t" horiz-adv-x="757" 
d="M899 1434l-37 -209h-239l-215 -1225h-238l215 1225h-240l37 209h717z" />
    <glyph glyph-name="u" unicode="u" 
d="M981 1434l-201 -1147q-29 -162 -127.5 -232.5t-281.5 -70.5h-9q-77 0 -136.5 16.5t-103.5 51t-61 94.5t-2 141l201 1147h238l-195 -1110q-13 -73 12.5 -102t87.5 -29t97.5 29t48.5 102l194 1110h238z" />
    <glyph glyph-name="v" unicode="v" horiz-adv-x="835" 
d="M981 1434l-522 -1434h-262l-19 1434h236l-21 -1063l352 1063h236z" />
    <glyph glyph-name="w" unicode="w" horiz-adv-x="1314" 
d="M1456 1434l-477 -1434h-223l-11 983l-358 -983h-231l26 1434h230l-64 -1024l365 1024h213l4 -1024l297 1024h229z" />
    <glyph glyph-name="x" unicode="x" horiz-adv-x="866" 
d="M981 1434l-373 -703l152 -731h-240l-86 524l-258 -524h-250l410 731l-135 703h239l68 -480l223 480h250z" />
    <glyph glyph-name="y" unicode="y" horiz-adv-x="847" 
d="M543 510l-90 -510h-238l90 510l-127 924h244l43 -666l276 666h252z" />
    <glyph glyph-name="z" unicode="z" horiz-adv-x="768" 
d="M672 197l-35 -197h-686l29 164l608 1073h-393l32 197h647l-28 -164l-606 -1073h432z" />
    <glyph glyph-name="braceleft" unicode="{" horiz-adv-x="630" 
d="M672 1323q-64 0 -103.5 -29.5t-50.5 -101.5l-51 -283q-15 -83 -56 -120t-141 -64q156 -46 133 -184l-53 -299q-13 -72 16 -101.5t93 -29.5h69l-36 -209h-70q-76 0 -137 17t-105 52.5t-61.5 95t-3.5 138.5l51 295q11 62 -17 93.5t-104 37.5l33 186q77 6 117 38.5t51 94.5
l49 279q29 161 130 232t284 71h69l-37 -209h-69z" />
    <glyph glyph-name="bar" unicode="|" horiz-adv-x="503" 
d="M233 -205h-217l326 1843h217z" />
    <glyph glyph-name="braceright" unicode="}" horiz-adv-x="628" 
d="M244 1323h-70l37 209h70q76 0 136.5 -17t105 -52t62 -94.5t3.5 -139.5l-49 -279q-11 -63 16.5 -95t101.5 -38l-32 -186q-76 -6 -115.5 -37.5t-50.5 -93.5l-51 -295q-29 -160 -130.5 -231.5t-283.5 -71.5h-70l37 209h70q63 0 101.5 29.5t51.5 101.5l54 299
q15 82 55.5 119.5t138.5 64.5q-154 46 -131 184l51 283q11 72 -17 101.5t-91 29.5z" />
    <glyph glyph-name="asciitilde" unicode="~" horiz-adv-x="811" 
d="M246 623q9 51 55 51q28 0 75 -23.5t100.5 -47t96.5 -23.5q89 0 149 57t81 172l8 51h-168l-6 -31q-7 -51 -55 -51q-26 0 -69 23.5t-93 47t-94 23.5q-91 0 -156 -57.5t-86 -171.5l-8 -51h164z" />
    <glyph glyph-name="exclamdown" unicode="&#xa1;" horiz-adv-x="395" 
d="M432 1167h-233l45 267h233zM227 0h-237l39 221l178 838h176l-117 -840z" />
    <glyph glyph-name="cent" unicode="&#xa2;" horiz-adv-x="843" 
d="M666 1278q113 -23 169.5 -97t34.5 -198l-24 -139h-234l17 102q24 135 -105 135t-153 -135l-80 -459q-24 -135 104 -135q130 0 154 135l24 138h234l-31 -174q-24 -137 -100 -208t-209 -89l-27 -154h-211l27 156q-114 20 -171 93t-34 202l94 532q23 133 100 205.5t210 91.5
l26 154h211z" />
    <glyph glyph-name="sterling" unicode="&#xa3;" horiz-adv-x="843" 
d="M866 905h-237l39 225q19 111 -64 111q-44 0 -70 -31t-34 -80l-56 -317h209l-32 -188h-209q-39 -218 -75.5 -300t-121.5 -116h508l-37 -209h-713l-4 209q96 44 131.5 119.5t73.5 296.5h-117l33 188h117l59 334q26 151 113.5 227t259.5 76h4q149 0 220 -79.5t46 -223.5z
" />
    <glyph glyph-name="yen" unicode="&#xa5;" horiz-adv-x="847" 
d="M993 1434l-364 -746h127l-19 -110h-162l-32 -68l-8 -43h182l-19 -111h-182l-63 -356h-238l64 356h-207l18 111h207l8 43l-10 68h-184l18 110h152l-103 746h244l43 -666l276 666h252z" />
    <glyph glyph-name="brokenbar" unicode="&#xa6;" horiz-adv-x="503" 
d="M213 901l129 737h217l-129 -737h-217zM371 573l-138 -778h-217l138 778h217z" />
    <glyph glyph-name="section" unicode="&#xa7;" horiz-adv-x="860" 
d="M565 588l4 24q9 55 -28.5 98t-128.5 95q-59 35 -98 63.5t-76 68.5t-50.5 87t-3.5 102l21 111q51 295 403 295h4q69 0 127 -16.5t103 -50.5t64.5 -92.5t6.5 -135.5l-28 -152h-234l23 119q19 123 -99 123q-120 0 -139 -123l-8 -41q-9 -54 25.5 -89.5t134.5 -90.5
q63 -34 104 -63.5t75 -69t45.5 -88.5t0.5 -109l-41 -239q-42 97 -207 174zM358 768l-6 -35q-9 -54 25.5 -89.5t134.5 -90.5q64 -34 105 -63.5t75 -69t45 -88.5t0 -109l-22 -125q-29 -162 -126 -230.5t-280 -68.5h-4q-77 0 -136.5 16t-103 49.5t-60.5 93t-3 140.5l35 189h233
l-28 -156q-10 -64 16 -95.5t82 -31.5q57 0 95 31.5t48 95.5l11 51q9 54 -28.5 97t-129.5 96q-46 27 -78.5 49.5t-66.5 54t-53 62t-28 71t-1 84.5l43 248q7 -15 17.5 -29.5t19.5 -26t26 -25.5t26.5 -21.5t30.5 -21l28 -18t30.5 -18.5t27.5 -16z" />
    <glyph glyph-name="dieresis" unicode="&#xa8;" horiz-adv-x="901" 
d="M614 1784l-43 -238h-217l43 238h217zM954 1784l-43 -238h-217l43 238h217z" />
    <glyph glyph-name="copyright" unicode="&#xa9;" horiz-adv-x="1267" 
d="M979 1450q159 0 246 -74.5t61 -228.5l-151 -860q-29 -160 -130.5 -231.5t-283.5 -71.5h-371q-76 0 -135 17t-100.5 52.5t-57.5 95t-2 138.5l152 860q27 159 129 231t285 72h358zM1153 1165q14 82 -32 120t-138 38h-412q-92 0 -152.5 -38t-74.5 -120l-158 -897
q-14 -82 33 -119.5t139 -37.5h412q194 0 225 157zM915 627l-36 -203q-20 -111 -91.5 -160t-201.5 -49h-4q-50 0 -92.5 11.5t-76.5 35t-49.5 65.5t-5.5 97l105 586q36 209 295 209h4q49 0 91.5 -12.5t75.5 -37t48 -66t6 -93.5l-31 -179h-174l25 142q9 50 -10 70t-60 20
q-87 0 -102 -90l-90 -512q-9 -50 9.5 -70t59.5 -20q88 0 103 90l28 166h174z" />
    <glyph glyph-name="ordfeminine" unicode="&#xaa;" horiz-adv-x="466" 
d="M483 858h-121l9 43q-37 -45 -127 -45q-52 0 -88 41.5t-23 110.5l12 67q24 150 162 150q28 0 60 -14t45 -33l18 100q9 55 -39 55h-22q-23 0 -39.5 -14.5t-20.5 -40.5l-4 -21h-121l6 35q27 150 197 150h31q29 0 56 -9.5t49 -27.5t32 -47.5t4 -65.5zM391 1061q12 55 -39 55
h-24q-48 0 -60 -55l-8 -45q-9 -55 41 -55h25q48 0 57 55zM444 639h-376l18 109h377z" />
    <glyph glyph-name="guillemotleft" unicode="&#xab;" horiz-adv-x="806" 
d="M477 887l43 248l-450 -349l-23 -122l328 -349l41 232l-170 172zM825 887l43 248l-450 -349l-23 -122l328 -349l41 232l-170 172z" />
    <glyph glyph-name="registered" unicode="&#xae;" horiz-adv-x="673" 
d="M594 1446q88 0 133.5 -44.5t32.5 -121.5l-78 -440q-29 -168 -223 -168h-191q-85 0 -130 45t-32 123l78 440q30 166 226 166h184zM682 1290q6 38 -17.5 59t-70.5 21h-211q-48 0 -79.5 -21t-37.5 -59l-82 -461q-6 -38 17.5 -59.5t70.5 -21.5h211q47 0 78.5 21.5t38.5 59.5z
M481 1311q54 0 85.5 -26.5t23.5 -80.5l-17 -90q-15 -74 -71 -94l35 -213h-84l-27 201h-45l-37 -201h-84l90 504h131zM504 1192q8 45 -37 45h-45l-29 -158h45q46 0 54 47z" />
    <glyph glyph-name="macron" unicode="&#xaf;" horiz-adv-x="790" 
d="M813 1567h-463l33 188h463z" />
    <glyph glyph-name="degree" unicode="&#xb0;" horiz-adv-x="575" 
d="M455 1450q113 0 170 -74t34 -202q-24 -133 -100 -205t-203 -72q-114 0 -171.5 74t-34.5 203q24 133 100.5 204.5t204.5 71.5zM434 1335q-63 0 -106 -42.5t-56 -118.5t14.5 -119t90.5 -43q62 0 104.5 43t55.5 119t-14 118.5t-89 42.5z" />
    <glyph glyph-name="plusminus" unicode="&#xb1;" horiz-adv-x="860" 
d="M596 950h256l-31 -176h-256l-45 -256h-176l45 256h-256l31 176h256l45 256h176zM43 262l31 176h688l-31 -176h-688z" />
    <glyph glyph-name="acute" unicode="&#xb4;" horiz-adv-x="927" 
d="M680 1835h276l-288 -289h-179z" />
    <glyph glyph-name="paragraph" unicode="&#xb6;" horiz-adv-x="1218" 
d="M1278 1434l-252 -1434h-238l216 1225h-99l-215 -1225h-237l98 555h-133q-76 0 -137 17t-105 52.5t-61.5 95t-3.5 138.5l47 272q29 160 130 232t283 72h707z" />
    <glyph glyph-name="periodcentered" unicode="&#xb7;" horiz-adv-x="397" 
d="M377 864l-47 -266h-234l47 266h234z" />
    <glyph glyph-name="cedilla" unicode="&#xb8;" horiz-adv-x="720" 
d="M403 0l-16 -98q-21 -110 -69.5 -151.5t-137.5 -41.5q-76 0 -123 29l-6 131h109q23 0 33.5 9t13.5 32l16 90h180z" />
    <glyph glyph-name="ordmasculine" unicode="&#xba;" horiz-adv-x="477" 
d="M420 1442q68 0 114.5 -43.5t30.5 -126.5l-43 -250q-28 -170 -207 -170h-32q-70 0 -116 43t-32 127l43 250q17 90 67.5 130t141.5 40h33zM436 1257q14 76 -45 76h-14q-60 0 -74 -76l-39 -221q-14 -75 47 -75h15q57 0 71 75zM68 639l18 109h387l-18 -109h-387z" />
    <glyph glyph-name="guillemotright" unicode="&#xbb;" horiz-adv-x="806" 
d="M119 903l168 -172l-230 -168l-43 -248l451 349l22 122l-327 349zM467 903l168 -172l-229 -168l-44 -248l451 349l23 122l-328 349z" />
    <glyph glyph-name="onequarter" unicode="&#xbc;" horiz-adv-x="1050" 
d="M795 1434h133l-758 -1434h-133zM252 565h-160l133 762q63 55 80 107h98zM973 868l-94 -532h59l-25 -141h-59l-35 -195h-160l35 195h-239l22 135l295 538h201zM774 643l-158 -307h103z" />
    <glyph glyph-name="onehalf" unicode="&#xbd;" horiz-adv-x="1083" 
d="M795 1434h133l-758 -1434h-133zM252 565h-160l133 762q63 55 80 107h98zM586 541l26 151q15 97 69.5 141t170.5 44h2q98 0 146.5 -47t33.5 -138l-18 -100q-4 -23 -11 -43t-20 -40t-22 -32.5t-30.5 -33t-31.5 -29t-39.5 -33t-40.5 -33.5q-13 -11 -32.5 -27t-30 -24.5
t-24.5 -20.5t-21 -19.5t-14.5 -17t-11.5 -17.5t-5 -17l-12 -66h266l-25 -139h-426l37 207q4 21 12 41t15.5 35.5t24.5 35.5t26.5 30.5t33.5 32t33.5 29t39.5 31.5t38 31q65 52 86 73.5t25 47.5l14 82q6 34 -4 47.5t-41 13.5q-28 0 -41.5 -13.5t-19.5 -47.5l-23 -135h-155z
" />
    <glyph glyph-name="threequarters" unicode="&#xbe;" horiz-adv-x="1269" 
d="M623 1151q-10 -59 -28 -87t-52 -44q22 -12 32 -45t3 -78l-27 -149q-18 -96 -72.5 -143.5t-159.5 -47.5h-30q-88 0 -135.5 51t-30.5 140l22 126h160l-18 -110q-12 -66 37 -66h10q49 0 61 66l23 131q9 51 -37 51h-115l25 139h102q58 0 70 64l16 90q12 66 -39 66h-12
q-47 0 -59 -66l-17 -90h-157l18 106q18 100 73 145.5t169 45.5h10q96 0 144.5 -48.5t31.5 -142.5zM1012 1434h133l-758 -1434h-133zM1192 868l-94 -532h59l-24 -141h-60l-35 -195h-159l34 195h-239l22 135l295 538h201zM993 643l-157 -307h102z" />
    <glyph glyph-name="questiondown" unicode="&#xbf;" horiz-adv-x="782" 
d="M399 1167l45 267h234l-45 -267h-234zM584 1044l-33 -190q-14 -78 -52 -139t-118 -125q-21 -17 -34 -28.5t-31.5 -31.5t-30 -42t-15.5 -46l-24 -139q-11 -69 13.5 -96t78.5 -27t86 27t43 96l37 209h225l-41 -233q-28 -159 -118 -227t-269 -68h-4q-76 0 -133 16.5t-97 51
t-54.5 92t-0.5 135.5l29 167q6 33 15 62t16.5 49t23 41.5t22.5 32.5t27.5 28.5t26 22.5t29.5 22.5t28 20.5q44 33 66.5 51.5t50 56.5t33.5 78l24 133h181z" />
    <glyph glyph-name="Agrave" unicode="&#xc0;" horiz-adv-x="868" 
d="M731 1546h-174l-190 289h264zM762 0h-236l6 319h-264l-106 -319h-236l518 1434h299zM334 516h201l12 637z" />
    <glyph glyph-name="Aacute" unicode="&#xc1;" horiz-adv-x="868" 
d="M965 1835l-289 -289h-178l190 289h277zM444 1434h299l19 -1434h-236l6 319h-264l-106 -319h-236zM334 516h201l12 637z" />
    <glyph glyph-name="Acircumflex" unicode="&#xc2;" horiz-adv-x="868" 
d="M645 1688l-94 -142h-199l217 289h193l115 -289h-187zM444 1434h299l19 -1434h-236l6 319h-264l-106 -319h-236zM334 516h201l12 637z" />
    <glyph glyph-name="Atilde" unicode="&#xc3;" horiz-adv-x="868" 
d="M815 1806h160l-8 -43q-21 -114 -74.5 -164.5t-136.5 -50.5q-36 0 -71 14t-58.5 30t-51.5 30t-51 14q-52 0 -61 -51l-4 -31h-156l8 43q37 215 221 215q37 0 70.5 -14t54 -30t45 -30t46.5 -14q50 0 61 52zM444 1434h299l19 -1434h-236l6 319h-264l-106 -319h-236zM334 516
h201l12 637z" />
    <glyph glyph-name="Adieresis" unicode="&#xc4;" horiz-adv-x="868" 
d="M596 1784l-43 -238h-217l43 238h217zM719 1784h217l-43 -238h-217zM444 1434h299l19 -1434h-236l6 319h-264l-106 -319h-236zM334 516h201l12 637z" />
    <glyph glyph-name="Aring" unicode="&#xc5;" horiz-adv-x="868" 
d="M668 1849q71 0 115.5 -42.5t33.5 -114.5q-14 -76 -66.5 -117t-138.5 -41q-73 0 -117.5 43t-31.5 115q12 75 65 116t140 41zM700 1692q5 26 -8 41.5t-41 15.5t-47.5 -15.5t-23.5 -41.5q-5 -26 9 -42t42 -16t46 16t23 42zM444 1434h299l19 -1434h-236l6 319h-264l-106 -319
h-236zM334 516h201l12 637z" />
    <glyph glyph-name="AE" unicode="&#xc6;" horiz-adv-x="1298" 
d="M1352 1225h-391l-68 -394h328l-37 -208h-328l-74 -414h398l-37 -209h-635l55 319h-256l-145 -319h-248l682 1434h793zM397 516h201l125 709z" />
    <glyph glyph-name="Ccedilla" unicode="&#xc7;" horiz-adv-x="905" 
d="M625 1450q76 0 136.5 -18t104.5 -53.5t61.5 -94.5t4.5 -137l-47 -262h-238l41 225q11 72 -15 101.5t-87 29.5q-127 0 -148 -131l-139 -786q-13 -71 14 -101t88 -30t98 30t50 101l45 260h237l-51 -297q-26 -144 -108 -215.5t-226 -83.5l-14 -86q-21 -110 -69.5 -151.5
t-137.5 -41.5q-76 0 -123 29l-6 131h109q23 0 33.5 9t13.5 32l14 82q-117 19 -176.5 91.5t-34.5 203.5l152 860q27 157 129.5 230t284.5 73h4z" />
    <glyph glyph-name="Egrave" unicode="&#xc8;" horiz-adv-x="802" 
d="M612 1835l101 -289h-174l-191 289h264zM647 0h-635l252 1434h629l-37 -209h-391l-68 -394h328l-37 -208h-328l-73 -414h397z" />
    <glyph glyph-name="Eacute" unicode="&#xc9;" horiz-adv-x="802" 
d="M670 1835h276l-289 -289h-178zM647 0h-635l252 1434h629l-37 -209h-391l-68 -394h328l-37 -208h-328l-73 -414h397z" />
    <glyph glyph-name="Ecircumflex" unicode="&#xca;" horiz-adv-x="802" 
d="M858 1546l-115 289h-192l-217 -289h198l95 142l45 -142h186zM647 0h-635l252 1434h629l-37 -209h-391l-68 -394h328l-37 -208h-328l-73 -414h397z" />
    <glyph glyph-name="Edieresis" unicode="&#xcb;" horiz-adv-x="802" 
d="M578 1784l-43 -238h-218l43 238h218zM918 1784l-44 -238h-217l43 238h218zM647 0h-635l252 1434h629l-37 -209h-391l-68 -394h328l-37 -208h-328l-73 -414h397z" />
    <glyph glyph-name="Igrave" unicode="&#xcc;" horiz-adv-x="458" 
d="M428 1835l100 -289h-174l-190 289h264zM258 0h-238l252 1434h238z" />
    <glyph glyph-name="Iacute" unicode="&#xcd;" horiz-adv-x="458" 
d="M485 1835h277l-289 -289h-178zM258 0h-238l252 1434h238z" />
    <glyph glyph-name="Icircumflex" unicode="&#xce;" horiz-adv-x="458" 
d="M674 1546l-115 289h-192l-217 -289h198l94 142l45 -142h187zM258 0h-238l252 1434h238z" />
    <glyph glyph-name="Idieresis" unicode="&#xcf;" horiz-adv-x="458" 
d="M393 1784l-43 -238h-217l43 238h217zM733 1784l-43 -238h-217l43 238h217zM258 0h-238l252 1434h238z" />
    <glyph glyph-name="Eth" unicode="&#xd0;" horiz-adv-x="944" 
d="M651 1434q76 0 137 -17.5t105 -53t61.5 -95t3.5 -138.5l-145 -827q-29 -160 -130.5 -231.5t-283.5 -71.5h-366l110 627h-94l37 204h92l107 603h366zM715 1094q13 72 -16 101.5t-93 29.5h-121l-69 -394h162l-37 -204h-160l-74 -418h121q63 0 102 29.5t52 101.5z" />
    <glyph glyph-name="Ntilde" unicode="&#xd1;" horiz-adv-x="960" 
d="M516 1585q9 51 62 51q28 0 64 -22t79 -44t88 -22q83 0 136.5 50.5t74.5 164.5l8 43h-160l-6 -30q-11 -52 -61 -52q-22 0 -46.5 14t-44.5 30t-53.5 30t-70.5 14q-184 0 -221 -215l-9 -43h156zM229 0h-217l252 1434h234l149 -887l156 887h217l-252 -1434h-221l-154 932z
" />
    <glyph glyph-name="Ograve" unicode="&#xd2;" horiz-adv-x="925" 
d="M662 1835l100 -289h-174l-191 289h265zM207 1147q29 161 130 232t284 71h16q159 0 246 -74.5t61 -228.5l-151 -860q-29 -160 -130.5 -231.5t-283.5 -71.5h-17q-76 0 -137 17t-105 52.5t-61.5 95t-3.5 138.5zM299 324q-13 -72 16 -101.5t93 -29.5q63 0 101.5 29.5
t51.5 101.5l139 786q11 72 -17 101.5t-91 29.5q-64 0 -103.5 -29.5t-50.5 -101.5z" />
    <glyph glyph-name="Oacute" unicode="&#xd3;" horiz-adv-x="925" 
d="M719 1835h276l-288 -289h-179zM207 1147q29 161 130 232t284 71h16q159 0 246 -74.5t61 -228.5l-151 -860q-29 -160 -130.5 -231.5t-283.5 -71.5h-17q-76 0 -137 17t-105 52.5t-61.5 95t-3.5 138.5zM299 324q-13 -72 16 -101.5t93 -29.5q63 0 101.5 29.5t51.5 101.5
l139 786q11 72 -17 101.5t-91 29.5q-64 0 -103.5 -29.5t-50.5 -101.5z" />
    <glyph glyph-name="Ocircumflex" unicode="&#xd4;" horiz-adv-x="925" 
d="M907 1546l-114 289h-193l-217 -289h199l94 142l45 -142h186zM207 1147q29 161 130 232t284 71h16q159 0 246 -74.5t61 -228.5l-151 -860q-29 -160 -130.5 -231.5t-283.5 -71.5h-17q-76 0 -137 17t-105 52.5t-61.5 95t-3.5 138.5zM299 324q-13 -72 16 -101.5t93 -29.5
q63 0 101.5 29.5t51.5 101.5l139 786q11 72 -17 101.5t-91 29.5q-64 0 -103.5 -29.5t-50.5 -101.5z" />
    <glyph glyph-name="Otilde" unicode="&#xd5;" horiz-adv-x="925" 
d="M494 1585q9 51 61 51q28 0 64 -22t79 -44t88 -22q83 0 136.5 50.5t74.5 164.5l9 43h-160l-6 -30q-11 -52 -62 -52q-22 0 -46.5 14t-44.5 30t-53.5 30t-70.5 14q-184 0 -221 -215l-8 -43h155zM207 1147q29 161 130 232t284 71h16q159 0 246 -74.5t61 -228.5l-151 -860
q-29 -160 -130.5 -231.5t-283.5 -71.5h-17q-76 0 -137 17t-105 52.5t-61.5 95t-3.5 138.5zM299 324q-13 -72 16 -101.5t93 -29.5q63 0 101.5 29.5t51.5 101.5l139 786q11 72 -17 101.5t-91 29.5q-64 0 -103.5 -29.5t-50.5 -101.5z" />
    <glyph glyph-name="Odieresis" unicode="&#xd6;" horiz-adv-x="925" 
d="M627 1784l-43 -238h-217l43 238h217zM967 1784l-43 -238h-217l43 238h217zM207 1147q29 161 130 232t284 71h16q159 0 246 -74.5t61 -228.5l-151 -860q-29 -160 -130.5 -231.5t-283.5 -71.5h-17q-76 0 -137 17t-105 52.5t-61.5 95t-3.5 138.5zM299 324q-13 -72 16 -101.5
t93 -29.5q63 0 101.5 29.5t51.5 101.5l139 786q11 72 -17 101.5t-91 29.5q-64 0 -103.5 -29.5t-50.5 -101.5z" />
    <glyph glyph-name="multiply" unicode="&#xd7;" horiz-adv-x="860" 
d="M807 918l-217 -181l153 -180l-143 -125l-145 184l-215 -184l-107 125l215 180l-151 181l143 124l145 -184l215 184z" />
    <glyph glyph-name="Oslash" unicode="&#xd8;" horiz-adv-x="925" 
d="M637 1450q159 0 246 -74.5t61 -228.5l-151 -860q-29 -160 -130.5 -231.5t-283.5 -71.5h-17q-76 0 -137 17t-105 52.5t-61.5 95t-3.5 138.5l152 860q29 161 130 232t284 71h16zM592 1241q-64 0 -103.5 -29.5t-50.5 -101.5l-125 -702l330 827q-21 6 -51 6zM408 193
q63 0 101.5 29.5t51.5 101.5l125 702l-330 -827q21 -6 52 -6z" />
    <glyph glyph-name="Ugrave" unicode="&#xd9;" 
d="M657 1835l101 -289h-174l-191 289h264zM981 1434l-201 -1147q-29 -162 -127.5 -232.5t-281.5 -70.5h-9q-77 0 -136.5 16.5t-103.5 51t-61 94.5t-2 141l201 1147h238l-195 -1110q-13 -73 12.5 -102t87.5 -29t97.5 29t48.5 102l194 1110h238z" />
    <glyph glyph-name="Uacute" unicode="&#xda;" 
d="M715 1835h276l-289 -289h-178zM981 1434l-201 -1147q-29 -162 -127.5 -232.5t-281.5 -70.5h-9q-77 0 -136.5 16.5t-103.5 51t-61 94.5t-2 141l201 1147h238l-195 -1110q-13 -73 12.5 -102t87.5 -29t97.5 29t48.5 102l194 1110h238z" />
    <glyph glyph-name="Ucircumflex" unicode="&#xdb;" 
d="M903 1546l-115 289h-192l-217 -289h199l94 142l45 -142h186zM981 1434l-201 -1147q-29 -162 -127.5 -232.5t-281.5 -70.5h-9q-77 0 -136.5 16.5t-103.5 51t-61 94.5t-2 141l201 1147h238l-195 -1110q-13 -73 12.5 -102t87.5 -29t97.5 29t48.5 102l194 1110h238z" />
    <glyph glyph-name="Udieresis" unicode="&#xdc;" 
d="M623 1784l-43 -238h-218l44 238h217zM963 1784l-43 -238h-218l43 238h218zM981 1434l-201 -1147q-29 -162 -127.5 -232.5t-281.5 -70.5h-9q-77 0 -136.5 16.5t-103.5 51t-61 94.5t-2 141l201 1147h238l-195 -1110q-13 -73 12.5 -102t87.5 -29t97.5 29t48.5 102l194 1110
h238z" />
    <glyph glyph-name="Yacute" unicode="&#xdd;" horiz-adv-x="847" 
d="M680 1835h276l-288 -289h-179zM543 510l-90 -510h-238l90 510l-127 924h244l43 -666l276 666h252z" />
    <glyph glyph-name="Thorn" unicode="&#xde;" horiz-adv-x="882" 
d="M590 1167q76 0 136.5 -17t104 -52.5t61 -95t3.5 -138.5l-47 -272q-29 -160 -130.5 -231.5t-283.5 -71.5h-133l-51 -289h-238l252 1434h238l-45 -267h133zM616 629l35 198q13 72 -15 101.5t-91 29.5h-125l-82 -460h125q63 0 101.5 29.5t51.5 101.5z" />
    <glyph glyph-name="germandbls" unicode="&#xdf;" horiz-adv-x="1712" 
d="M854 922h-233l36 200q19 123 -100 123q-122 0 -141 -123l-19 -98q-9 -56 5 -90.5t59 -63.5l151 -94q30 -19 51 -33.5t42.5 -32.5t35.5 -35t25.5 -37.5t16 -42.5t5 -48.5t-5.5 -57.5l-37 -206q-29 -162 -125.5 -230.5t-279.5 -68.5h-4q-77 0 -136.5 16t-103 49.5t-60.5 93
t-3 140.5l45 249h233l-39 -217q-10 -64 17.5 -95.5t83.5 -31.5q57 0 96 32t49 95l21 113q10 58 -5 93.5t-63 64.5l-149 94q-197 125 -168 287l32 188q54 295 406 295h4q69 0 127 -16.5t103 -50.5t64 -92.5t5 -135.5zM1710 922h-233l36 200q19 123 -100 123q-122 0 -141 -123
l-19 -98q-9 -56 5 -90.5t59 -63.5l151 -94q30 -19 51 -33.5t42.5 -32.5t35.5 -35t25.5 -37.5t16 -42.5t5 -48.5t-5.5 -57.5l-36 -206q-29 -162 -126 -230.5t-280 -68.5h-4q-77 0 -136.5 16t-103 49.5t-60.5 93t-3 140.5l45 249h233l-39 -217q-10 -64 17.5 -95.5t83.5 -31.5
q57 0 96 32t49 95l21 113q10 58 -5 93.5t-63 64.5l-149 94q-197 125 -168 287l32 188q54 295 406 295h4q69 0 127 -16.5t103 -50.5t64 -92.5t5 -135.5z" />
    <glyph glyph-name="agrave" unicode="&#xe0;" horiz-adv-x="868" 
d="M731 1546h-174l-190 289h264zM762 0h-236l6 319h-264l-106 -319h-236l518 1434h299zM334 516h201l12 637z" />
    <glyph glyph-name="aacute" unicode="&#xe1;" horiz-adv-x="868" 
d="M965 1835l-289 -289h-178l190 289h277zM444 1434h299l19 -1434h-236l6 319h-264l-106 -319h-236zM334 516h201l12 637z" />
    <glyph glyph-name="acircumflex" unicode="&#xe2;" horiz-adv-x="868" 
d="M645 1688l-94 -142h-199l217 289h193l115 -289h-187zM444 1434h299l19 -1434h-236l6 319h-264l-106 -319h-236zM334 516h201l12 637z" />
    <glyph glyph-name="atilde" unicode="&#xe3;" horiz-adv-x="868" 
d="M815 1806h160l-8 -43q-21 -114 -74.5 -164.5t-136.5 -50.5q-36 0 -71 14t-58.5 30t-51.5 30t-51 14q-52 0 -61 -51l-4 -31h-156l8 43q37 215 221 215q37 0 70.5 -14t54 -30t45 -30t46.5 -14q50 0 61 52zM444 1434h299l19 -1434h-236l6 319h-264l-106 -319h-236zM334 516
h201l12 637z" />
    <glyph glyph-name="adieresis" unicode="&#xe4;" horiz-adv-x="868" 
d="M596 1784l-43 -238h-217l43 238h217zM719 1784h217l-43 -238h-217zM444 1434h299l19 -1434h-236l6 319h-264l-106 -319h-236zM334 516h201l12 637z" />
    <glyph glyph-name="aring" unicode="&#xe5;" horiz-adv-x="868" 
d="M668 1849q71 0 115.5 -42.5t33.5 -114.5q-14 -76 -66.5 -117t-138.5 -41q-73 0 -117.5 43t-31.5 115q12 75 65 116t140 41zM700 1692q5 26 -8 41.5t-41 15.5t-47.5 -15.5t-23.5 -41.5q-5 -26 9 -42t42 -16t46 16t23 42zM444 1434h299l19 -1434h-236l6 319h-264l-106 -319
h-236zM334 516h201l12 637z" />
    <glyph glyph-name="ae" unicode="&#xe6;" horiz-adv-x="1298" 
d="M1352 1225h-391l-68 -394h328l-37 -208h-328l-74 -414h398l-37 -209h-635l55 319h-256l-145 -319h-248l682 1434h793zM397 516h201l125 709z" />
    <glyph glyph-name="ccedilla" unicode="&#xe7;" horiz-adv-x="905" 
d="M625 1450q76 0 136.5 -18t104.5 -53.5t61.5 -94.5t4.5 -137l-47 -262h-238l41 225q11 72 -15 101.5t-87 29.5q-127 0 -148 -131l-139 -786q-13 -71 14 -101t88 -30t98 30t50 101l45 260h237l-51 -297q-26 -144 -108 -215.5t-226 -83.5l-14 -86q-21 -110 -69.5 -151.5
t-137.5 -41.5q-76 0 -123 29l-6 131h109q23 0 33.5 9t13.5 32l14 82q-117 19 -176.5 91.5t-34.5 203.5l152 860q27 157 129.5 230t284.5 73h4z" />
    <glyph glyph-name="egrave" unicode="&#xe8;" horiz-adv-x="802" 
d="M612 1835l101 -289h-174l-191 289h264zM647 0h-635l252 1434h629l-37 -209h-391l-68 -394h328l-37 -208h-328l-73 -414h397z" />
    <glyph glyph-name="eacute" unicode="&#xe9;" horiz-adv-x="802" 
d="M670 1835h276l-289 -289h-178zM647 0h-635l252 1434h629l-37 -209h-391l-68 -394h328l-37 -208h-328l-73 -414h397z" />
    <glyph glyph-name="ecircumflex" unicode="&#xea;" horiz-adv-x="802" 
d="M858 1546l-115 289h-192l-217 -289h198l95 142l45 -142h186zM647 0h-635l252 1434h629l-37 -209h-391l-68 -394h328l-37 -208h-328l-73 -414h397z" />
    <glyph glyph-name="edieresis" unicode="&#xeb;" horiz-adv-x="802" 
d="M578 1784l-43 -238h-218l43 238h218zM918 1784l-44 -238h-217l43 238h218zM647 0h-635l252 1434h629l-37 -209h-391l-68 -394h328l-37 -208h-328l-73 -414h397z" />
    <glyph glyph-name="igrave" unicode="&#xec;" horiz-adv-x="458" 
d="M428 1835l100 -289h-174l-190 289h264zM258 0h-238l252 1434h238z" />
    <glyph glyph-name="iacute" unicode="&#xed;" horiz-adv-x="458" 
d="M485 1835h277l-289 -289h-178zM258 0h-238l252 1434h238z" />
    <glyph glyph-name="icircumflex" unicode="&#xee;" horiz-adv-x="458" 
d="M674 1546l-115 289h-192l-217 -289h198l94 142l45 -142h187zM258 0h-238l252 1434h238z" />
    <glyph glyph-name="idieresis" unicode="&#xef;" horiz-adv-x="458" 
d="M393 1784l-43 -238h-217l43 238h217zM733 1784l-43 -238h-217l43 238h217zM258 0h-238l252 1434h238z" />
    <glyph glyph-name="eth" unicode="&#xf0;" horiz-adv-x="944" 
d="M651 1434q76 0 137 -17.5t105 -53t61.5 -95t3.5 -138.5l-145 -827q-29 -160 -130.5 -231.5t-283.5 -71.5h-366l110 627h-94l37 204h92l107 603h366zM715 1094q13 72 -16 101.5t-93 29.5h-121l-69 -394h162l-37 -204h-160l-74 -418h121q63 0 102 29.5t52 101.5z" />
    <glyph glyph-name="ntilde" unicode="&#xf1;" horiz-adv-x="960" 
d="M516 1585q9 51 62 51q28 0 64 -22t79 -44t88 -22q83 0 136.5 50.5t74.5 164.5l8 43h-160l-6 -30q-11 -52 -61 -52q-22 0 -46.5 14t-44.5 30t-53.5 30t-70.5 14q-184 0 -221 -215l-9 -43h156zM229 0h-217l252 1434h234l149 -887l156 887h217l-252 -1434h-221l-154 932z
" />
    <glyph glyph-name="ograve" unicode="&#xf2;" horiz-adv-x="925" 
d="M662 1835l100 -289h-174l-191 289h265zM207 1147q29 161 130 232t284 71h16q159 0 246 -74.5t61 -228.5l-151 -860q-29 -160 -130.5 -231.5t-283.5 -71.5h-17q-76 0 -137 17t-105 52.5t-61.5 95t-3.5 138.5zM299 324q-13 -72 16 -101.5t93 -29.5q63 0 101.5 29.5
t51.5 101.5l139 786q11 72 -17 101.5t-91 29.5q-64 0 -103.5 -29.5t-50.5 -101.5z" />
    <glyph glyph-name="oacute" unicode="&#xf3;" horiz-adv-x="925" 
d="M719 1835h276l-288 -289h-179zM207 1147q29 161 130 232t284 71h16q159 0 246 -74.5t61 -228.5l-151 -860q-29 -160 -130.5 -231.5t-283.5 -71.5h-17q-76 0 -137 17t-105 52.5t-61.5 95t-3.5 138.5zM299 324q-13 -72 16 -101.5t93 -29.5q63 0 101.5 29.5t51.5 101.5
l139 786q11 72 -17 101.5t-91 29.5q-64 0 -103.5 -29.5t-50.5 -101.5z" />
    <glyph glyph-name="ocircumflex" unicode="&#xf4;" horiz-adv-x="925" 
d="M907 1546l-114 289h-193l-217 -289h199l94 142l45 -142h186zM207 1147q29 161 130 232t284 71h16q159 0 246 -74.5t61 -228.5l-151 -860q-29 -160 -130.5 -231.5t-283.5 -71.5h-17q-76 0 -137 17t-105 52.5t-61.5 95t-3.5 138.5zM299 324q-13 -72 16 -101.5t93 -29.5
q63 0 101.5 29.5t51.5 101.5l139 786q11 72 -17 101.5t-91 29.5q-64 0 -103.5 -29.5t-50.5 -101.5z" />
    <glyph glyph-name="otilde" unicode="&#xf5;" horiz-adv-x="925" 
d="M494 1585q9 51 61 51q28 0 64 -22t79 -44t88 -22q83 0 136.5 50.5t74.5 164.5l9 43h-160l-6 -30q-11 -52 -62 -52q-22 0 -46.5 14t-44.5 30t-53.5 30t-70.5 14q-184 0 -221 -215l-8 -43h155zM207 1147q29 161 130 232t284 71h16q159 0 246 -74.5t61 -228.5l-151 -860
q-29 -160 -130.5 -231.5t-283.5 -71.5h-17q-76 0 -137 17t-105 52.5t-61.5 95t-3.5 138.5zM299 324q-13 -72 16 -101.5t93 -29.5q63 0 101.5 29.5t51.5 101.5l139 786q11 72 -17 101.5t-91 29.5q-64 0 -103.5 -29.5t-50.5 -101.5z" />
    <glyph glyph-name="odieresis" unicode="&#xf6;" horiz-adv-x="925" 
d="M627 1784l-43 -238h-217l43 238h217zM967 1784l-43 -238h-217l43 238h217zM207 1147q29 161 130 232t284 71h16q159 0 246 -74.5t61 -228.5l-151 -860q-29 -160 -130.5 -231.5t-283.5 -71.5h-17q-76 0 -137 17t-105 52.5t-61.5 95t-3.5 138.5zM299 324q-13 -72 16 -101.5
t93 -29.5q63 0 101.5 29.5t51.5 101.5l139 786q11 72 -17 101.5t-91 29.5q-64 0 -103.5 -29.5t-50.5 -101.5z" />
    <glyph glyph-name="divide" unicode="&#xf7;" horiz-adv-x="860" 
d="M664 1214l-41 -225h-217l40 225h218zM829 825l-30 -176h-688l30 176h688zM535 485l-41 -225h-218l41 225h218z" />
    <glyph glyph-name="oslash" unicode="&#xf8;" horiz-adv-x="925" 
d="M637 1450q159 0 246 -74.5t61 -228.5l-151 -860q-29 -160 -130.5 -231.5t-283.5 -71.5h-17q-76 0 -137 17t-105 52.5t-61.5 95t-3.5 138.5l152 860q29 161 130 232t284 71h16zM592 1241q-64 0 -103.5 -29.5t-50.5 -101.5l-125 -702l330 827q-21 6 -51 6zM408 193
q63 0 101.5 29.5t51.5 101.5l125 702l-330 -827q21 -6 52 -6z" />
    <glyph glyph-name="ugrave" unicode="&#xf9;" 
d="M657 1835l101 -289h-174l-191 289h264zM981 1434l-201 -1147q-29 -162 -127.5 -232.5t-281.5 -70.5h-9q-77 0 -136.5 16.5t-103.5 51t-61 94.5t-2 141l201 1147h238l-195 -1110q-13 -73 12.5 -102t87.5 -29t97.5 29t48.5 102l194 1110h238z" />
    <glyph glyph-name="uacute" unicode="&#xfa;" 
d="M715 1835h276l-289 -289h-178zM981 1434l-201 -1147q-29 -162 -127.5 -232.5t-281.5 -70.5h-9q-77 0 -136.5 16.5t-103.5 51t-61 94.5t-2 141l201 1147h238l-195 -1110q-13 -73 12.5 -102t87.5 -29t97.5 29t48.5 102l194 1110h238z" />
    <glyph glyph-name="ucircumflex" unicode="&#xfb;" 
d="M903 1546l-115 289h-192l-217 -289h199l94 142l45 -142h186zM981 1434l-201 -1147q-29 -162 -127.5 -232.5t-281.5 -70.5h-9q-77 0 -136.5 16.5t-103.5 51t-61 94.5t-2 141l201 1147h238l-195 -1110q-13 -73 12.5 -102t87.5 -29t97.5 29t48.5 102l194 1110h238z" />
    <glyph glyph-name="udieresis" unicode="&#xfc;" 
d="M623 1784l-43 -238h-218l44 238h217zM963 1784l-43 -238h-218l43 238h218zM981 1434l-201 -1147q-29 -162 -127.5 -232.5t-281.5 -70.5h-9q-77 0 -136.5 16.5t-103.5 51t-61 94.5t-2 141l201 1147h238l-195 -1110q-13 -73 12.5 -102t87.5 -29t97.5 29t48.5 102l194 1110
h238z" />
    <glyph glyph-name="yacute" unicode="&#xfd;" horiz-adv-x="847" 
d="M680 1835h276l-288 -289h-179zM543 510l-90 -510h-238l90 510l-127 924h244l43 -666l276 666h252z" />
    <glyph glyph-name="thorn" unicode="&#xfe;" horiz-adv-x="882" 
d="M590 1167q76 0 136.5 -17t104 -52.5t61 -95t3.5 -138.5l-47 -272q-29 -160 -130.5 -231.5t-283.5 -71.5h-133l-51 -289h-238l252 1434h238l-45 -267h133zM616 629l35 198q13 72 -15 101.5t-91 29.5h-125l-82 -460h125q63 0 101.5 29.5t51.5 101.5z" />
    <glyph glyph-name="ydieresis" unicode="&#xff;" horiz-adv-x="847" 
d="M588 1784l-43 -238h-217l43 238h217zM928 1784l-43 -238h-217l43 238h217zM543 510l-90 -510h-238l90 510l-127 924h244l43 -666l276 666h252z" />
    <glyph glyph-name="Amacron" unicode="&#x100;" horiz-adv-x="868" 
d="M420 1755h463l-33 -188h-463zM444 1434h299l19 -1434h-236l6 319h-264l-106 -319h-236zM334 516h201l12 637z" />
    <glyph glyph-name="amacron" unicode="&#x101;" horiz-adv-x="868" 
d="M420 1755h463l-33 -188h-463zM444 1434h299l19 -1434h-236l6 319h-264l-106 -319h-236zM334 516h201l12 637z" />
    <glyph glyph-name="Abreve" unicode="&#x102;" horiz-adv-x="868" 
d="M711 1817h176l-19 -113q-15 -83 -73.5 -121.5t-167.5 -38.5h-25q-96 0 -147 40.5t-37 121.5l18 111h176l-12 -78q-9 -51 35 -51h8q46 0 55 51zM444 1434h299l19 -1434h-236l6 319h-264l-106 -319h-236zM334 516h201l12 637z" />
    <glyph glyph-name="abreve" unicode="&#x103;" horiz-adv-x="868" 
d="M711 1817h176l-19 -113q-15 -83 -73.5 -121.5t-167.5 -38.5h-25q-96 0 -147 40.5t-37 121.5l18 111h176l-12 -78q-9 -51 35 -51h8q46 0 55 51zM444 1434h299l19 -1434h-236l6 319h-264l-106 -319h-236zM334 516h201l12 637z" />
    <glyph glyph-name="Aogonek" unicode="&#x104;" horiz-adv-x="868" 
d="M682 0q-92 -37 -125 -103q-26 -52 5 -79q16 -15 46 -15q23 0 56 11l-21 -115q-55 -41 -135 -41q-54 0 -90.5 22.5t-47 60.5t-1.5 82t48.5 91.5t102.5 85.5h6l6 319h-264l-106 -319h-236l518 1434h299l19 -1434h-80zM334 516h201l12 637z" />
    <glyph glyph-name="aogonek" unicode="&#x105;" horiz-adv-x="868" 
d="M682 0q-92 -37 -125 -103q-26 -52 5 -79q16 -15 46 -15q23 0 56 11l-21 -115q-55 -41 -135 -41q-54 0 -90.5 22.5t-47 60.5t-1.5 82t48.5 91.5t102.5 85.5h6l6 319h-264l-106 -319h-236l518 1434h299l19 -1434h-80zM334 516h201l12 637z" />
    <glyph glyph-name="Cacute" unicode="&#x106;" horiz-adv-x="905" 
d="M713 1835h276l-289 -289h-178zM831 584l-51 -297q-29 -162 -129.5 -232.5t-283.5 -70.5h-5q-77 0 -137.5 16.5t-105 51t-62 94.5t-2.5 141l152 860q27 157 129.5 230t284.5 73h4q76 0 136.5 -18t104.5 -53.5t61.5 -94.5t4.5 -137l-47 -262h-238l41 225q11 72 -15 101.5
t-87 29.5q-127 0 -148 -131l-139 -786q-13 -71 14 -101t88 -30t98 30t50 101l45 260h237z" />
    <glyph glyph-name="cacute" unicode="&#x107;" horiz-adv-x="905" 
d="M713 1835h276l-289 -289h-178zM831 584l-51 -297q-29 -162 -129.5 -232.5t-283.5 -70.5h-5q-77 0 -137.5 16.5t-105 51t-62 94.5t-2.5 141l152 860q27 157 129.5 230t284.5 73h4q76 0 136.5 -18t104.5 -53.5t61.5 -94.5t4.5 -137l-47 -262h-238l41 225q11 72 -15 101.5
t-87 29.5q-127 0 -148 -131l-139 -786q-13 -71 14 -101t88 -30t98 30t50 101l45 260h237z" />
    <glyph glyph-name="Cdotaccent" unicode="&#x10a;" horiz-adv-x="905" 
d="M791 1784l-43 -238h-218l43 238h218zM831 584l-51 -297q-29 -162 -129.5 -232.5t-283.5 -70.5h-5q-77 0 -137.5 16.5t-105 51t-62 94.5t-2.5 141l152 860q27 157 129.5 230t284.5 73h4q76 0 136.5 -18t104.5 -53.5t61.5 -94.5t4.5 -137l-47 -262h-238l41 225
q11 72 -15 101.5t-87 29.5q-127 0 -148 -131l-139 -786q-13 -71 14 -101t88 -30t98 30t50 101l45 260h237z" />
    <glyph glyph-name="cdotaccent" unicode="&#x10b;" horiz-adv-x="905" 
d="M791 1784l-43 -238h-218l43 238h218zM831 584l-51 -297q-29 -162 -129.5 -232.5t-283.5 -70.5h-5q-77 0 -137.5 16.5t-105 51t-62 94.5t-2.5 141l152 860q27 157 129.5 230t284.5 73h4q76 0 136.5 -18t104.5 -53.5t61.5 -94.5t4.5 -137l-47 -262h-238l41 225
q11 72 -15 101.5t-87 29.5q-127 0 -148 -131l-139 -786q-13 -71 14 -101t88 -30t98 30t50 101l45 260h237z" />
    <glyph glyph-name="Ccaron" unicode="&#x10c;" horiz-adv-x="905" 
d="M952 1835h-198l-95 -141l-45 141h-186l115 -289h192zM831 584l-51 -297q-29 -162 -129.5 -232.5t-283.5 -70.5h-5q-77 0 -137.5 16.5t-105 51t-62 94.5t-2.5 141l152 860q27 157 129.5 230t284.5 73h4q76 0 136.5 -18t104.5 -53.5t61.5 -94.5t4.5 -137l-47 -262h-238
l41 225q11 72 -15 101.5t-87 29.5q-127 0 -148 -131l-139 -786q-13 -71 14 -101t88 -30t98 30t50 101l45 260h237z" />
    <glyph glyph-name="ccaron" unicode="&#x10d;" horiz-adv-x="905" 
d="M952 1835h-198l-95 -141l-45 141h-186l115 -289h192zM831 584l-51 -297q-29 -162 -129.5 -232.5t-283.5 -70.5h-5q-77 0 -137.5 16.5t-105 51t-62 94.5t-2.5 141l152 860q27 157 129.5 230t284.5 73h4q76 0 136.5 -18t104.5 -53.5t61.5 -94.5t4.5 -137l-47 -262h-238
l41 225q11 72 -15 101.5t-87 29.5q-127 0 -148 -131l-139 -786q-13 -71 14 -101t88 -30t98 30t50 101l45 260h237z" />
    <glyph glyph-name="Dcaron" unicode="&#x10e;" horiz-adv-x="923" 
d="M946 1835h-198l-95 -141l-45 141h-186l115 -289h192zM631 1434q76 0 137 -17.5t105 -53t61.5 -95t3.5 -138.5l-145 -827q-29 -160 -130.5 -231.5t-283.5 -71.5h-367l252 1434h367zM694 1094q13 72 -16 101.5t-92 29.5h-121l-178 -1016h121q63 0 101.5 29.5t51.5 101.5z
" />
    <glyph glyph-name="dcaron" unicode="&#x10f;" horiz-adv-x="923" 
d="M946 1835h-198l-95 -141l-45 141h-186l115 -289h192zM631 1434q76 0 137 -17.5t105 -53t61.5 -95t3.5 -138.5l-145 -827q-29 -160 -130.5 -231.5t-283.5 -71.5h-367l252 1434h367zM694 1094q13 72 -16 101.5t-92 29.5h-121l-178 -1016h121q63 0 101.5 29.5t51.5 101.5z
" />
    <glyph glyph-name="Dcroat" unicode="&#x110;" horiz-adv-x="944" 
d="M651 1434q76 0 137 -17.5t105 -53t61.5 -95t3.5 -138.5l-145 -827q-29 -160 -130.5 -231.5t-283.5 -71.5h-366l110 627h-94l37 204h92l107 603h366zM715 1094q13 72 -16 101.5t-93 29.5h-121l-69 -394h162l-37 -204h-160l-74 -418h121q63 0 102 29.5t52 101.5z" />
    <glyph glyph-name="dcroat" unicode="&#x111;" horiz-adv-x="944" 
d="M651 1434q76 0 137 -17.5t105 -53t61.5 -95t3.5 -138.5l-145 -827q-29 -160 -130.5 -231.5t-283.5 -71.5h-366l110 627h-94l37 204h92l107 603h366zM715 1094q13 72 -16 101.5t-93 29.5h-121l-69 -394h162l-37 -204h-160l-74 -418h121q63 0 102 29.5t52 101.5z" />
    <glyph glyph-name="Emacron" unicode="&#x112;" horiz-adv-x="802" 
d="M831 1567h-462l32 188h463zM647 0h-635l252 1434h629l-37 -209h-391l-68 -394h328l-37 -208h-328l-73 -414h397z" />
    <glyph glyph-name="emacron" unicode="&#x113;" horiz-adv-x="802" 
d="M831 1567h-462l32 188h463zM647 0h-635l252 1434h629l-37 -209h-391l-68 -394h328l-37 -208h-328l-73 -414h397z" />
    <glyph glyph-name="Ebreve" unicode="&#x114;" horiz-adv-x="802" 
d="M868 1817l-18 -113q-15 -83 -74 -121.5t-168 -38.5h-24q-96 0 -147.5 40.5t-37.5 121.5l19 111h176l-12 -78q-9 -51 34 -51h9q46 0 55 51l12 78h176zM647 0h-635l252 1434h629l-37 -209h-391l-68 -394h328l-37 -208h-328l-73 -414h397z" />
    <glyph glyph-name="ebreve" unicode="&#x115;" horiz-adv-x="802" 
d="M868 1817l-18 -113q-15 -83 -74 -121.5t-168 -38.5h-24q-96 0 -147.5 40.5t-37.5 121.5l19 111h176l-12 -78q-9 -51 34 -51h9q46 0 55 51l12 78h176zM647 0h-635l252 1434h629l-37 -209h-391l-68 -394h328l-37 -208h-328l-73 -414h397z" />
    <glyph glyph-name="Edotaccent" unicode="&#x116;" horiz-adv-x="802" 
d="M748 1784l-43 -238h-218l43 238h218zM647 0h-635l252 1434h629l-37 -209h-391l-68 -394h328l-37 -208h-328l-73 -414h397z" />
    <glyph glyph-name="edotaccent" unicode="&#x117;" horiz-adv-x="802" 
d="M748 1784l-43 -238h-218l43 238h218zM647 0h-635l252 1434h629l-37 -209h-391l-68 -394h328l-37 -208h-328l-73 -414h397z" />
    <glyph glyph-name="Eogonek" unicode="&#x118;" horiz-adv-x="802" 
d="M856 1225h-391l-68 -394h328l-37 -208h-328l-73 -414h397l-37 -209q-92 -37 -125 -103q-26 -52 5 -79q16 -15 46 -15q23 0 56 11l-21 -115q-55 -41 -135 -41q-54 0 -90.5 22.5t-47 60.5t-1.5 82t48.5 91.5t102.5 85.5h-473l252 1434h629z" />
    <glyph glyph-name="eogonek" unicode="&#x119;" horiz-adv-x="802" 
d="M856 1225h-391l-68 -394h328l-37 -208h-328l-73 -414h397l-37 -209q-92 -37 -125 -103q-26 -52 5 -79q16 -15 46 -15q23 0 56 11l-21 -115q-55 -41 -135 -41q-54 0 -90.5 22.5t-47 60.5t-1.5 82t48.5 91.5t102.5 85.5h-473l252 1434h629z" />
    <glyph glyph-name="Ecaron" unicode="&#x11a;" horiz-adv-x="802" 
d="M909 1835h-198l-95 -141l-45 141h-186l115 -289h192zM647 0h-635l252 1434h629l-37 -209h-391l-68 -394h328l-37 -208h-328l-73 -414h397z" />
    <glyph glyph-name="ecaron" unicode="&#x11b;" horiz-adv-x="802" 
d="M909 1835h-198l-95 -141l-45 141h-186l115 -289h192zM647 0h-635l252 1434h629l-37 -209h-391l-68 -394h328l-37 -208h-328l-73 -414h397z" />
    <glyph glyph-name="Gbreve" unicode="&#x11e;" horiz-adv-x="921" 
d="M918 1817l-19 -113q-15 -83 -74 -121.5t-168 -38.5h-24q-96 0 -147 40.5t-37 121.5l18 111h176l-12 -78q-9 -51 35 -51h8q46 0 55 51l12 78h177zM870 737l-77 -450q-29 -162 -130 -232.5t-284 -70.5h-17q-77 0 -137.5 16.5t-105 51t-62 94.5t-2.5 141l152 860
q27 157 129.5 230t284.5 73h16q76 0 136.5 -18t104.5 -53.5t61.5 -94.5t4.5 -137l-37 -205h-237l30 168q11 72 -17 101.5t-91 29.5q-64 0 -103.5 -29.5t-50.5 -101.5l-139 -786q-13 -72 16 -101.5t93 -29.5q63 0 101.5 29.5t51.5 101.5l37 213h-139l35 200h376z" />
    <glyph glyph-name="gbreve" unicode="&#x11f;" horiz-adv-x="921" 
d="M918 1817l-19 -113q-15 -83 -74 -121.5t-168 -38.5h-24q-96 0 -147 40.5t-37 121.5l18 111h176l-12 -78q-9 -51 35 -51h8q46 0 55 51l12 78h177zM870 737l-77 -450q-29 -162 -130 -232.5t-284 -70.5h-17q-77 0 -137.5 16.5t-105 51t-62 94.5t-2.5 141l152 860
q27 157 129.5 230t284.5 73h16q76 0 136.5 -18t104.5 -53.5t61.5 -94.5t4.5 -137l-37 -205h-237l30 168q11 72 -17 101.5t-91 29.5q-64 0 -103.5 -29.5t-50.5 -101.5l-139 -786q-13 -72 16 -101.5t93 -29.5q63 0 101.5 29.5t51.5 101.5l37 213h-139l35 200h376z" />
    <glyph glyph-name="Gdotaccent" unicode="&#x120;" horiz-adv-x="921" 
d="M797 1784l-43 -238h-217l43 238h217zM870 737l-77 -450q-29 -162 -130 -232.5t-284 -70.5h-17q-77 0 -137.5 16.5t-105 51t-62 94.5t-2.5 141l152 860q27 157 129.5 230t284.5 73h16q76 0 136.5 -18t104.5 -53.5t61.5 -94.5t4.5 -137l-37 -205h-237l30 168
q11 72 -17 101.5t-91 29.5q-64 0 -103.5 -29.5t-50.5 -101.5l-139 -786q-13 -72 16 -101.5t93 -29.5q63 0 101.5 29.5t51.5 101.5l37 213h-139l35 200h376z" />
    <glyph glyph-name="gdotaccent" unicode="&#x121;" horiz-adv-x="921" 
d="M797 1784l-43 -238h-217l43 238h217zM870 737l-77 -450q-29 -162 -130 -232.5t-284 -70.5h-17q-77 0 -137.5 16.5t-105 51t-62 94.5t-2.5 141l152 860q27 157 129.5 230t284.5 73h16q76 0 136.5 -18t104.5 -53.5t61.5 -94.5t4.5 -137l-37 -205h-237l30 168
q11 72 -17 101.5t-91 29.5q-64 0 -103.5 -29.5t-50.5 -101.5l-139 -786q-13 -72 16 -101.5t93 -29.5q63 0 101.5 29.5t51.5 101.5l37 213h-139l35 200h376z" />
    <glyph glyph-name="Gcommaaccent" unicode="&#x122;" horiz-adv-x="921" 
d="M870 737l-77 -450q-29 -162 -130 -232.5t-284 -70.5h-17q-77 0 -137.5 16.5t-105 51t-62 94.5t-2.5 141l152 860q27 157 129.5 230t284.5 73h16q76 0 136.5 -18t104.5 -53.5t61.5 -94.5t4.5 -137l-37 -205h-237l30 168q11 72 -17 101.5t-91 29.5q-64 0 -103.5 -29.5
t-50.5 -101.5l-139 -786q-13 -72 16 -101.5t93 -29.5q63 0 101.5 29.5t51.5 101.5l37 213h-139l35 200h376zM459 -143l-37 -205q-16 -91 -69 -177.5t-122 -154.5l-79 45q95 110 133 225h-107l47 267h234z" />
    <glyph glyph-name="gcommaaccent" unicode="&#x123;" horiz-adv-x="921" 
d="M870 737l-77 -450q-29 -162 -130 -232.5t-284 -70.5h-17q-77 0 -137.5 16.5t-105 51t-62 94.5t-2.5 141l152 860q27 157 129.5 230t284.5 73h16q76 0 136.5 -18t104.5 -53.5t61.5 -94.5t4.5 -137l-37 -205h-237l30 168q11 72 -17 101.5t-91 29.5q-64 0 -103.5 -29.5
t-50.5 -101.5l-139 -786q-13 -72 16 -101.5t93 -29.5q63 0 101.5 29.5t51.5 101.5l37 213h-139l35 200h376zM459 -143l-37 -205q-16 -91 -69 -177.5t-122 -154.5l-79 45q95 110 133 225h-107l47 267h234z" />
    <glyph glyph-name="Hbar" unicode="&#x126;" horiz-adv-x="993" 
d="M1090 1176l-23 -136h-104l-183 -1040h-237l110 623h-272l-111 -623h-237l182 1040h-100l22 136h103l45 258h237l-45 -258h273l45 258h237l-45 -258h103zM690 836l35 204h-272l-35 -204h272z" />
    <glyph glyph-name="hbar" unicode="&#x127;" horiz-adv-x="993" 
d="M1090 1176l-23 -136h-104l-183 -1040h-237l110 623h-272l-111 -623h-237l182 1040h-100l22 136h103l45 258h237l-45 -258h273l45 258h237l-45 -258h103zM690 836l35 204h-272l-35 -204h272z" />
    <glyph glyph-name="Imacron" unicode="&#x12a;" horiz-adv-x="458" 
d="M647 1567h-463l33 188h463zM258 0h-238l252 1434h238z" />
    <glyph glyph-name="imacron" unicode="&#x12b;" horiz-adv-x="458" 
d="M647 1567h-463l33 188h463zM258 0h-238l252 1434h238z" />
    <glyph glyph-name="Ibreve" unicode="&#x12c;" horiz-adv-x="458" 
d="M684 1817l-18 -113q-15 -83 -74 -121.5t-168 -38.5h-25q-96 0 -147 40.5t-37 121.5l18 111h177l-13 -78q-9 -51 35 -51h8q47 0 56 51l12 78h176zM258 0h-238l252 1434h238z" />
    <glyph glyph-name="ibreve" unicode="&#x12d;" horiz-adv-x="458" 
d="M684 1817l-18 -113q-15 -83 -74 -121.5t-168 -38.5h-25q-96 0 -147 40.5t-37 121.5l18 111h177l-13 -78q-9 -51 35 -51h8q47 0 56 51l12 78h176zM258 0h-238l252 1434h238z" />
    <glyph glyph-name="Iogonek" unicode="&#x12e;" horiz-adv-x="458" 
d="M272 1434h238l-252 -1434h-76q-92 -37 -124 -103q-26 -52 5 -79q16 -15 46 -15q22 0 55 11l-21 -115q-55 -41 -135 -41q-54 0 -90.5 22.5t-47 60.5t-1.5 82t48.5 91.5t102.5 85.5z" />
    <glyph glyph-name="iogonek" unicode="&#x12f;" horiz-adv-x="458" 
d="M272 1434h238l-252 -1434h-76q-92 -37 -124 -103q-26 -52 5 -79q16 -15 46 -15q22 0 55 11l-21 -115q-55 -41 -135 -41q-54 0 -90.5 22.5t-47 60.5t-1.5 82t48.5 91.5t102.5 85.5z" />
    <glyph glyph-name="Idotaccent" unicode="&#x130;" horiz-adv-x="458" 
d="M563 1784l-43 -238h-217l43 238h217zM258 0h-238l252 1434h238z" />
    <glyph glyph-name="IJ" unicode="&#x132;" horiz-adv-x="823" 
d="M303 213q64 0 103.5 29.5t52.5 101.5l190 1090h238l-199 -1131q-28 -161 -131 -232t-287 -71h-258l37 213h254zM313 360h-237l188 1074h238z" />
    <glyph glyph-name="ij" unicode="&#x133;" horiz-adv-x="823" 
d="M303 213q64 0 103.5 29.5t52.5 101.5l190 1090h238l-199 -1131q-28 -161 -131 -232t-287 -71h-258l37 213h254zM313 360h-237l188 1074h238z" />
    <glyph glyph-name="Kcommaaccent" unicode="&#x136;" horiz-adv-x="880" 
d="M1022 1434l-369 -539l142 -895h-236l-88 631l-147 -217l-74 -414h-238l252 1434h238l-113 -646l377 646h256zM203 -410l47 267h233l-37 -205q-16 -91 -68.5 -178t-121.5 -154l-80 45q95 110 133 225h-106z" />
    <glyph glyph-name="kcommaaccent" unicode="&#x137;" horiz-adv-x="880" 
d="M1022 1434l-369 -539l142 -895h-236l-88 631l-147 -217l-74 -414h-238l252 1434h238l-113 -646l377 646h256zM203 -410l47 267h233l-37 -205q-16 -91 -68.5 -178t-121.5 -154l-80 45q95 110 133 225h-106z" />
    <glyph glyph-name="Lacute" unicode="&#x139;" horiz-adv-x="731" 
d="M477 1835h277l-289 -289h-178zM653 213l-37 -213h-604l252 1434h238l-215 -1221h366z" />
    <glyph glyph-name="lacute" unicode="&#x13a;" horiz-adv-x="731" 
d="M477 1835h277l-289 -289h-178zM653 213l-37 -213h-604l252 1434h238l-215 -1221h366z" />
    <glyph glyph-name="Lcommaaccent" unicode="&#x13b;" horiz-adv-x="731" 
d="M653 213l-37 -213h-604l252 1434h238l-215 -1221h366zM401 -143l-36 -205q-16 -91 -69 -177.5t-122 -154.5l-80 45q95 110 133 225h-106l47 267h233z" />
    <glyph glyph-name="lcommaaccent" unicode="&#x13c;" horiz-adv-x="731" 
d="M653 213l-37 -213h-604l252 1434h238l-215 -1221h366zM401 -143l-36 -205q-16 -91 -69 -177.5t-122 -154.5l-80 45q95 110 133 225h-106l47 267h233z" />
    <glyph glyph-name="Lcaron" unicode="&#x13d;" horiz-adv-x="731" 
d="M653 213l-37 -213h-604l252 1434h238l-215 -1221h366zM834 1434l-37 -205q-16 -91 -69 -177.5t-122 -154.5l-80 45q95 110 133 225h-106l47 267h234z" />
    <glyph glyph-name="lcaron" unicode="&#x13e;" horiz-adv-x="731" 
d="M653 213l-37 -213h-604l252 1434h238l-215 -1221h366zM834 1434l-37 -205q-16 -91 -69 -177.5t-122 -154.5l-80 45q95 110 133 225h-106l47 267h234z" />
    <glyph glyph-name="Ldot" unicode="&#x13f;" horiz-adv-x="731" 
d="M653 213l-37 -213h-604l252 1434h238l-215 -1221h366zM741 958l-47 -266h-233l47 266h233z" />
    <glyph glyph-name="ldot" unicode="&#x140;" horiz-adv-x="731" 
d="M653 213l-37 -213h-604l252 1434h238l-215 -1221h366zM741 958l-47 -266h-233l47 266h233z" />
    <glyph glyph-name="Lslash" unicode="&#x141;" horiz-adv-x="751" 
d="M307 213h367l-37 -213h-604l106 606l-110 -49l34 195l111 49l111 633h237l-92 -521l217 97l-35 -195l-215 -96z" />
    <glyph glyph-name="lslash" unicode="&#x142;" horiz-adv-x="751" 
d="M307 213h367l-37 -213h-604l106 606l-110 -49l34 195l111 49l111 633h237l-92 -521l217 97l-35 -195l-215 -96z" />
    <glyph glyph-name="Nacute" unicode="&#x143;" horiz-adv-x="960" 
d="M741 1835h277l-289 -289h-178zM229 0h-217l252 1434h234l149 -887l156 887h217l-252 -1434h-221l-154 932z" />
    <glyph glyph-name="nacute" unicode="&#x144;" horiz-adv-x="960" 
d="M741 1835h277l-289 -289h-178zM229 0h-217l252 1434h234l149 -887l156 887h217l-252 -1434h-221l-154 932z" />
    <glyph glyph-name="Ncommaaccent" unicode="&#x145;" horiz-adv-x="960" 
d="M229 0h-217l252 1434h234l149 -887l156 887h217l-252 -1434h-221l-154 932zM475 -143l-37 -205q-16 -91 -68.5 -178t-121.5 -154l-80 45q95 110 133 225h-106l47 267h233z" />
    <glyph glyph-name="ncommaaccent" unicode="&#x146;" horiz-adv-x="960" 
d="M229 0h-217l252 1434h234l149 -887l156 887h217l-252 -1434h-221l-154 932zM475 -143l-37 -205q-16 -91 -68.5 -178t-121.5 -154l-80 45q95 110 133 225h-106l47 267h233z" />
    <glyph glyph-name="Ncaron" unicode="&#x147;" horiz-adv-x="960" 
d="M981 1835h-199l-94 -141l-45 141h-186l114 -289h193zM229 0h-217l252 1434h234l149 -887l156 887h217l-252 -1434h-221l-154 932z" />
    <glyph glyph-name="ncaron" unicode="&#x148;" horiz-adv-x="960" 
d="M981 1835h-199l-94 -141l-45 141h-186l114 -289h193zM229 0h-217l252 1434h234l149 -887l156 887h217l-252 -1434h-221l-154 932z" />
    <glyph glyph-name="Eng" unicode="&#x14a;" horiz-adv-x="960" 
d="M762 -33q-28 -160 -133.5 -231.5t-284.5 -71.5h-49l37 205h57q135 0 158 131l-154 932l-164 -932h-217l252 1434h234l149 -887l156 887h217z" />
    <glyph glyph-name="eng" unicode="&#x14b;" horiz-adv-x="960" 
d="M762 -33q-28 -160 -133.5 -231.5t-284.5 -71.5h-49l37 205h57q135 0 158 131l-154 932l-164 -932h-217l252 1434h234l149 -887l156 887h217z" />
    <glyph glyph-name="Omacron" unicode="&#x14c;" horiz-adv-x="925" 
d="M881 1567h-463l33 188h462zM207 1147q29 161 130 232t284 71h16q159 0 246 -74.5t61 -228.5l-151 -860q-29 -160 -130.5 -231.5t-283.5 -71.5h-17q-76 0 -137 17t-105 52.5t-61.5 95t-3.5 138.5zM299 324q-13 -72 16 -101.5t93 -29.5q63 0 101.5 29.5t51.5 101.5l139 786
q11 72 -17 101.5t-91 29.5q-64 0 -103.5 -29.5t-50.5 -101.5z" />
    <glyph glyph-name="omacron" unicode="&#x14d;" horiz-adv-x="925" 
d="M881 1567h-463l33 188h462zM207 1147q29 161 130 232t284 71h16q159 0 246 -74.5t61 -228.5l-151 -860q-29 -160 -130.5 -231.5t-283.5 -71.5h-17q-76 0 -137 17t-105 52.5t-61.5 95t-3.5 138.5zM299 324q-13 -72 16 -101.5t93 -29.5q63 0 101.5 29.5t51.5 101.5l139 786
q11 72 -17 101.5t-91 29.5q-64 0 -103.5 -29.5t-50.5 -101.5z" />
    <glyph glyph-name="Obreve" unicode="&#x14e;" horiz-adv-x="925" 
d="M918 1817l-19 -113q-15 -83 -74 -121.5t-168 -38.5h-24q-96 0 -147 40.5t-37 121.5l18 111h176l-12 -78q-9 -51 35 -51h8q46 0 55 51l12 78h177zM207 1147q29 161 130 232t284 71h16q159 0 246 -74.5t61 -228.5l-151 -860q-29 -160 -130.5 -231.5t-283.5 -71.5h-17
q-76 0 -137 17t-105 52.5t-61.5 95t-3.5 138.5zM299 324q-13 -72 16 -101.5t93 -29.5q63 0 101.5 29.5t51.5 101.5l139 786q11 72 -17 101.5t-91 29.5q-64 0 -103.5 -29.5t-50.5 -101.5z" />
    <glyph glyph-name="obreve" unicode="&#x14f;" horiz-adv-x="925" 
d="M918 1817l-19 -113q-15 -83 -74 -121.5t-168 -38.5h-24q-96 0 -147 40.5t-37 121.5l18 111h176l-12 -78q-9 -51 35 -51h8q46 0 55 51l12 78h177zM207 1147q29 161 130 232t284 71h16q159 0 246 -74.5t61 -228.5l-151 -860q-29 -160 -130.5 -231.5t-283.5 -71.5h-17
q-76 0 -137 17t-105 52.5t-61.5 95t-3.5 138.5zM299 324q-13 -72 16 -101.5t93 -29.5q63 0 101.5 29.5t51.5 101.5l139 786q11 72 -17 101.5t-91 29.5q-64 0 -103.5 -29.5t-50.5 -101.5z" />
    <glyph glyph-name="Ohungarumlaut" unicode="&#x150;" horiz-adv-x="925" 
d="M614 1835h207l-274 -289h-209zM899 1835h209l-274 -289h-207zM207 1147q29 161 130 232t284 71h16q159 0 246 -74.5t61 -228.5l-151 -860q-29 -160 -130.5 -231.5t-283.5 -71.5h-17q-76 0 -137 17t-105 52.5t-61.5 95t-3.5 138.5zM299 324q-13 -72 16 -101.5t93 -29.5
q63 0 101.5 29.5t51.5 101.5l139 786q11 72 -17 101.5t-91 29.5q-64 0 -103.5 -29.5t-50.5 -101.5z" />
    <glyph glyph-name="ohungarumlaut" unicode="&#x151;" horiz-adv-x="925" 
d="M614 1835h207l-274 -289h-209zM899 1835h209l-274 -289h-207zM207 1147q29 161 130 232t284 71h16q159 0 246 -74.5t61 -228.5l-151 -860q-29 -160 -130.5 -231.5t-283.5 -71.5h-17q-76 0 -137 17t-105 52.5t-61.5 95t-3.5 138.5zM299 324q-13 -72 16 -101.5t93 -29.5
q63 0 101.5 29.5t51.5 101.5l139 786q11 72 -17 101.5t-91 29.5q-64 0 -103.5 -29.5t-50.5 -101.5z" />
    <glyph glyph-name="OE" unicode="&#x152;" horiz-adv-x="1284" 
d="M1337 1225h-391l-67 -394h327l-37 -208h-327l-74 -414h397l-37 -209h-763q-76 0 -137 17t-105.5 52.5t-62 95t-3.5 138.5l146 827q29 160 130 232t283 72h758zM410 209h120l179 1016h-121q-63 0 -102 -29.5t-52 -101.5l-133 -754q-13 -72 16 -101.5t93 -29.5z" />
    <glyph glyph-name="oe" unicode="&#x153;" horiz-adv-x="1284" 
d="M1337 1225h-391l-67 -394h327l-37 -208h-327l-74 -414h397l-37 -209h-763q-76 0 -137 17t-105.5 52.5t-62 95t-3.5 138.5l146 827q29 160 130 232t283 72h758zM410 209h120l179 1016h-121q-63 0 -102 -29.5t-52 -101.5l-133 -754q-13 -72 16 -101.5t93 -29.5z" />
    <glyph glyph-name="Racute" unicode="&#x154;" horiz-adv-x="923" 
d="M983 1835l-289 -289h-178l191 289h276zM635 1434q76 0 137 -17.5t105 -53t61.5 -95t3.5 -138.5l-45 -256q-36 -205 -201 -270l97 -604h-236l-80 571h-127l-100 -571h-238l252 1434h371zM698 1094q13 72 -16 101.5t-92 29.5h-125l-78 -449h125q63 0 102 29.5t52 101.5z
" />
    <glyph glyph-name="racute" unicode="&#x155;" horiz-adv-x="923" 
d="M983 1835l-289 -289h-178l191 289h276zM635 1434q76 0 137 -17.5t105 -53t61.5 -95t3.5 -138.5l-45 -256q-36 -205 -201 -270l97 -604h-236l-80 571h-127l-100 -571h-238l252 1434h371zM698 1094q13 72 -16 101.5t-92 29.5h-125l-78 -449h125q63 0 102 29.5t52 101.5z
" />
    <glyph glyph-name="Rcommaaccent" unicode="&#x156;" horiz-adv-x="923" 
d="M635 1434q76 0 137 -17.5t105 -53t61.5 -95t3.5 -138.5l-45 -256q-36 -205 -201 -270l97 -604h-236l-80 571h-127l-100 -571h-238l252 1434h371zM698 1094q13 72 -16 101.5t-92 29.5h-125l-78 -449h125q63 0 102 29.5t52 101.5zM203 -410l47 267h233l-37 -205
q-16 -91 -68.5 -178t-121.5 -154l-80 45q95 110 133 225h-106z" />
    <glyph glyph-name="rcommaaccent" unicode="&#x157;" horiz-adv-x="923" 
d="M635 1434q76 0 137 -17.5t105 -53t61.5 -95t3.5 -138.5l-45 -256q-36 -205 -201 -270l97 -604h-236l-80 571h-127l-100 -571h-238l252 1434h371zM698 1094q13 72 -16 101.5t-92 29.5h-125l-78 -449h125q63 0 102 29.5t52 101.5zM203 -410l47 267h233l-37 -205
q-16 -91 -68.5 -178t-121.5 -154l-80 45q95 110 133 225h-106z" />
    <glyph glyph-name="Rcaron" unicode="&#x158;" horiz-adv-x="923" 
d="M729 1546h-192l-115 289h186l45 -141l95 141h198zM635 1434q76 0 137 -17.5t105 -53t61.5 -95t3.5 -138.5l-45 -256q-36 -205 -201 -270l97 -604h-236l-80 571h-127l-100 -571h-238l252 1434h371zM698 1094q13 72 -16 101.5t-92 29.5h-125l-78 -449h125q63 0 102 29.5
t52 101.5z" />
    <glyph glyph-name="rcaron" unicode="&#x159;" horiz-adv-x="923" 
d="M729 1546h-192l-115 289h186l45 -141l95 141h198zM635 1434q76 0 137 -17.5t105 -53t61.5 -95t3.5 -138.5l-45 -256q-36 -205 -201 -270l97 -604h-236l-80 571h-127l-100 -571h-238l252 1434h371zM698 1094q13 72 -16 101.5t-92 29.5h-125l-78 -449h125q63 0 102 29.5
t52 101.5z" />
    <glyph glyph-name="Sacute" unicode="&#x15a;" horiz-adv-x="856" 
d="M684 1835h277l-289 -289h-178zM854 922h-233l36 200q19 123 -100 123q-122 0 -141 -123l-19 -98q-9 -56 5 -90.5t59 -63.5l151 -94q30 -19 51 -33.5t42.5 -32.5t35.5 -35t25.5 -37.5t16 -42.5t5 -48.5t-5.5 -57.5l-37 -206q-29 -162 -125.5 -230.5t-279.5 -68.5h-4
q-77 0 -136.5 16t-103 49.5t-60.5 93t-3 140.5l45 249h233l-39 -217q-10 -64 17.5 -95.5t83.5 -31.5q57 0 96 32t49 95l21 113q10 58 -5 93.5t-63 64.5l-149 94q-197 125 -168 287l32 188q54 295 406 295h4q69 0 127 -16.5t103 -50.5t64 -92.5t5 -135.5z" />
    <glyph glyph-name="sacute" unicode="&#x15b;" horiz-adv-x="856" 
d="M684 1835h277l-289 -289h-178zM854 922h-233l36 200q19 123 -100 123q-122 0 -141 -123l-19 -98q-9 -56 5 -90.5t59 -63.5l151 -94q30 -19 51 -33.5t42.5 -32.5t35.5 -35t25.5 -37.5t16 -42.5t5 -48.5t-5.5 -57.5l-37 -206q-29 -162 -125.5 -230.5t-279.5 -68.5h-4
q-77 0 -136.5 16t-103 49.5t-60.5 93t-3 140.5l45 249h233l-39 -217q-10 -64 17.5 -95.5t83.5 -31.5q57 0 96 32t49 95l21 113q10 58 -5 93.5t-63 64.5l-149 94q-197 125 -168 287l32 188q54 295 406 295h4q69 0 127 -16.5t103 -50.5t64 -92.5t5 -135.5z" />
    <glyph glyph-name="Scedilla" unicode="&#x15e;" horiz-adv-x="856" 
d="M596 1450q69 0 127 -16.5t103 -50.5t64 -92.5t5 -135.5l-41 -233h-233l36 200q19 123 -100 123q-122 0 -141 -123l-19 -98q-9 -56 5 -90.5t59 -63.5l151 -94q30 -19 51 -33.5t42.5 -32.5t35.5 -35t25.5 -37.5t16 -42.5t5 -48.5t-5.5 -57.5l-37 -206
q-24 -139 -98.5 -208.5t-208.5 -84.5l-14 -88q-21 -110 -69.5 -151.5t-137.5 -41.5q-76 0 -123 29l-6 131h109q23 0 33.5 9t13.5 32l14 78q-270 35 -225 295l45 249h233l-39 -217q-10 -64 17.5 -95.5t83.5 -31.5q57 0 96 32t49 95l21 113q10 58 -5 93.5t-63 64.5l-149 94
q-197 125 -168 287l32 188q54 295 406 295h4z" />
    <glyph glyph-name="scedilla" unicode="&#x15f;" horiz-adv-x="856" 
d="M596 1450q69 0 127 -16.5t103 -50.5t64 -92.5t5 -135.5l-41 -233h-233l36 200q19 123 -100 123q-122 0 -141 -123l-19 -98q-9 -56 5 -90.5t59 -63.5l151 -94q30 -19 51 -33.5t42.5 -32.5t35.5 -35t25.5 -37.5t16 -42.5t5 -48.5t-5.5 -57.5l-37 -206
q-24 -139 -98.5 -208.5t-208.5 -84.5l-14 -88q-21 -110 -69.5 -151.5t-137.5 -41.5q-76 0 -123 29l-6 131h109q23 0 33.5 9t13.5 32l14 78q-270 35 -225 295l45 249h233l-39 -217q-10 -64 17.5 -95.5t83.5 -31.5q57 0 96 32t49 95l21 113q10 58 -5 93.5t-63 64.5l-149 94
q-197 125 -168 287l32 188q54 295 406 295h4z" />
    <glyph glyph-name="Scaron" unicode="&#x160;" horiz-adv-x="856" 
d="M924 1835h-199l-94 -141l-45 141h-187l115 -289h193zM854 922h-233l36 200q19 123 -100 123q-122 0 -141 -123l-19 -98q-9 -56 5 -90.5t59 -63.5l151 -94q30 -19 51 -33.5t42.5 -32.5t35.5 -35t25.5 -37.5t16 -42.5t5 -48.5t-5.5 -57.5l-37 -206q-29 -162 -125.5 -230.5
t-279.5 -68.5h-4q-77 0 -136.5 16t-103 49.5t-60.5 93t-3 140.5l45 249h233l-39 -217q-10 -64 17.5 -95.5t83.5 -31.5q57 0 96 32t49 95l21 113q10 58 -5 93.5t-63 64.5l-149 94q-197 125 -168 287l32 188q54 295 406 295h4q69 0 127 -16.5t103 -50.5t64 -92.5t5 -135.5z
" />
    <glyph glyph-name="scaron" unicode="&#x161;" horiz-adv-x="856" 
d="M924 1835h-199l-94 -141l-45 141h-187l115 -289h193zM854 922h-233l36 200q19 123 -100 123q-122 0 -141 -123l-19 -98q-9 -56 5 -90.5t59 -63.5l151 -94q30 -19 51 -33.5t42.5 -32.5t35.5 -35t25.5 -37.5t16 -42.5t5 -48.5t-5.5 -57.5l-37 -206q-29 -162 -125.5 -230.5
t-279.5 -68.5h-4q-77 0 -136.5 16t-103 49.5t-60.5 93t-3 140.5l45 249h233l-39 -217q-10 -64 17.5 -95.5t83.5 -31.5q57 0 96 32t49 95l21 113q10 58 -5 93.5t-63 64.5l-149 94q-197 125 -168 287l32 188q54 295 406 295h4q69 0 127 -16.5t103 -50.5t64 -92.5t5 -135.5z
" />
    <glyph glyph-name="uni0162" unicode="&#x162;" horiz-adv-x="757" 
d="M182 1434h717l-37 -209h-239l-215 -1225q-32 -8 -49.5 -30.5t-28.5 -84.5q-16 -95 -67.5 -135.5t-135.5 -40.5q-76 0 -123 29l-6 131h108q24 0 34.5 9t13.5 32l231 1315h-240z" />
    <glyph glyph-name="uni0163" unicode="&#x163;" horiz-adv-x="757" 
d="M182 1434h717l-37 -209h-239l-215 -1225q-32 -8 -49.5 -30.5t-28.5 -84.5q-16 -95 -67.5 -135.5t-135.5 -40.5q-76 0 -123 29l-6 131h108q24 0 34.5 9t13.5 32l231 1315h-240z" />
    <glyph glyph-name="Tcaron" unicode="&#x164;" horiz-adv-x="757" 
d="M874 1835h-198l-94 -141l-45 141h-187l115 -289h192zM899 1434l-37 -209h-239l-215 -1225h-238l215 1225h-240l37 209h717z" />
    <glyph glyph-name="tcaron" unicode="&#x165;" horiz-adv-x="757" 
d="M874 1835h-198l-94 -141l-45 141h-187l115 -289h192zM899 1434l-37 -209h-239l-215 -1225h-238l215 1225h-240l37 209h717z" />
    <glyph glyph-name="Tbar" unicode="&#x166;" horiz-adv-x="757" 
d="M862 1225h-239l-52 -289h113l-33 -188h-112l-131 -748h-238l131 748h-113l33 188h113l51 289h-240l37 209h717z" />
    <glyph glyph-name="tbar" unicode="&#x167;" horiz-adv-x="757" 
d="M862 1225h-239l-52 -289h113l-33 -188h-112l-131 -748h-238l131 748h-113l33 188h113l51 289h-240l37 209h717z" />
    <glyph glyph-name="Umacron" unicode="&#x16a;" 
d="M877 1567h-463l32 188h463zM981 1434l-201 -1147q-29 -162 -127.5 -232.5t-281.5 -70.5h-9q-77 0 -136.5 16.5t-103.5 51t-61 94.5t-2 141l201 1147h238l-195 -1110q-13 -73 12.5 -102t87.5 -29t97.5 29t48.5 102l194 1110h238z" />
    <glyph glyph-name="umacron" unicode="&#x16b;" 
d="M877 1567h-463l32 188h463zM981 1434l-201 -1147q-29 -162 -127.5 -232.5t-281.5 -70.5h-9q-77 0 -136.5 16.5t-103.5 51t-61 94.5t-2 141l201 1147h238l-195 -1110q-13 -73 12.5 -102t87.5 -29t97.5 29t48.5 102l194 1110h238z" />
    <glyph glyph-name="Ubreve" unicode="&#x16c;" 
d="M913 1817l-18 -113q-15 -83 -74 -121.5t-168 -38.5h-24q-96 0 -147.5 40.5t-37.5 121.5l19 111h176l-12 -78q-9 -51 35 -51h8q46 0 55 51l12 78h176zM981 1434l-201 -1147q-29 -162 -127.5 -232.5t-281.5 -70.5h-9q-77 0 -136.5 16.5t-103.5 51t-61 94.5t-2 141l201 1147
h238l-195 -1110q-13 -73 12.5 -102t87.5 -29t97.5 29t48.5 102l194 1110h238z" />
    <glyph glyph-name="ubreve" unicode="&#x16d;" 
d="M913 1817l-18 -113q-15 -83 -74 -121.5t-168 -38.5h-24q-96 0 -147.5 40.5t-37.5 121.5l19 111h176l-12 -78q-9 -51 35 -51h8q46 0 55 51l12 78h176zM981 1434l-201 -1147q-29 -162 -127.5 -232.5t-281.5 -70.5h-9q-77 0 -136.5 16.5t-103.5 51t-61 94.5t-2 141l201 1147
h238l-195 -1110q-13 -73 12.5 -102t87.5 -29t97.5 29t48.5 102l194 1110h238z" />
    <glyph glyph-name="Uring" unicode="&#x16e;" 
d="M694 1849q71 0 116 -42.5t34 -114.5q-14 -76 -66.5 -117t-138.5 -41q-73 0 -118 43t-32 115q12 75 65 116t140 41zM678 1749q-28 0 -48 -15.5t-24 -41.5q-5 -26 9 -42t42 -16t46.5 16t23.5 42t-8 41.5t-41 15.5zM981 1434l-201 -1147q-29 -162 -127.5 -232.5
t-281.5 -70.5h-9q-77 0 -136.5 16.5t-103.5 51t-61 94.5t-2 141l201 1147h238l-195 -1110q-13 -73 12.5 -102t87.5 -29t97.5 29t48.5 102l194 1110h238z" />
    <glyph glyph-name="uring" unicode="&#x16f;" 
d="M694 1849q71 0 116 -42.5t34 -114.5q-14 -76 -66.5 -117t-138.5 -41q-73 0 -118 43t-32 115q12 75 65 116t140 41zM678 1749q-28 0 -48 -15.5t-24 -41.5q-5 -26 9 -42t42 -16t46.5 16t23.5 42t-8 41.5t-41 15.5zM981 1434l-201 -1147q-29 -162 -127.5 -232.5
t-281.5 -70.5h-9q-77 0 -136.5 16.5t-103.5 51t-61 94.5t-2 141l201 1147h238l-195 -1110q-13 -73 12.5 -102t87.5 -29t97.5 29t48.5 102l194 1110h238z" />
    <glyph glyph-name="Uhungarumlaut" unicode="&#x170;" 
d="M610 1835h207l-274 -289h-209zM895 1835h209l-275 -289h-206zM981 1434l-201 -1147q-29 -162 -127.5 -232.5t-281.5 -70.5h-9q-77 0 -136.5 16.5t-103.5 51t-61 94.5t-2 141l201 1147h238l-195 -1110q-13 -73 12.5 -102t87.5 -29t97.5 29t48.5 102l194 1110h238z" />
    <glyph glyph-name="uhungarumlaut" unicode="&#x171;" 
d="M610 1835h207l-274 -289h-209zM895 1835h209l-275 -289h-206zM981 1434l-201 -1147q-29 -162 -127.5 -232.5t-281.5 -70.5h-9q-77 0 -136.5 16.5t-103.5 51t-61 94.5t-2 141l201 1147h238l-195 -1110q-13 -73 12.5 -102t87.5 -29t97.5 29t48.5 102l194 1110h238z" />
    <glyph glyph-name="Uogonek" unicode="&#x172;" 
d="M743 1434h238l-201 -1147q-21 -124 -83.5 -193t-170.5 -94q-91 -38 -123 -103q-25 -52 5 -79q17 -15 47 -15q22 0 55 11l-21 -115q-55 -41 -135 -41q-64 0 -102 33t-42 80.5t30 106.5t102 106q-72 2 -128.5 20t-97 53t-56 93.5t-1.5 136.5l201 1147h238l-195 -1110
q-13 -73 12.5 -102t87.5 -29t97.5 29t48.5 102z" />
    <glyph glyph-name="uogonek" unicode="&#x173;" 
d="M743 1434h238l-201 -1147q-21 -124 -83.5 -193t-170.5 -94q-91 -38 -123 -103q-25 -52 5 -79q17 -15 47 -15q22 0 55 11l-21 -115q-55 -41 -135 -41q-64 0 -102 33t-42 80.5t30 106.5t102 106q-72 2 -128.5 20t-97 53t-56 93.5t-1.5 136.5l201 1147h238l-195 -1110
q-13 -73 12.5 -102t87.5 -29t97.5 29t48.5 102z" />
    <glyph glyph-name="Wcircumflex" unicode="&#x174;" horiz-adv-x="1314" 
d="M1108 1546l-115 289h-192l-217 -289h198l95 142l45 -142h186zM1456 1434l-477 -1434h-223l-11 983l-358 -983h-231l26 1434h230l-64 -1024l365 1024h213l4 -1024l297 1024h229z" />
    <glyph glyph-name="wcircumflex" unicode="&#x175;" horiz-adv-x="1314" 
d="M1108 1546l-115 289h-192l-217 -289h198l95 142l45 -142h186zM1456 1434l-477 -1434h-223l-11 983l-358 -983h-231l26 1434h230l-64 -1024l365 1024h213l4 -1024l297 1024h229z" />
    <glyph glyph-name="Ycircumflex" unicode="&#x176;" horiz-adv-x="847" 
d="M868 1546l-114 289h-193l-217 -289h199l94 142l45 -142h186zM543 510l-90 -510h-238l90 510l-127 924h244l43 -666l276 666h252z" />
    <glyph glyph-name="ycircumflex" unicode="&#x177;" horiz-adv-x="847" 
d="M868 1546l-114 289h-193l-217 -289h199l94 142l45 -142h186zM543 510l-90 -510h-238l90 510l-127 924h244l43 -666l276 666h252z" />
    <glyph glyph-name="Ydieresis" unicode="&#x178;" horiz-adv-x="847" 
d="M588 1784l-43 -238h-217l43 238h217zM928 1784l-43 -238h-217l43 238h217zM543 510l-90 -510h-238l90 510l-127 924h244l43 -666l276 666h252z" />
    <glyph glyph-name="Zacute" unicode="&#x179;" horiz-adv-x="768" 
d="M655 1835h277l-289 -289h-178zM672 197l-35 -197h-686l29 164l608 1073h-393l32 197h647l-28 -164l-606 -1073h432z" />
    <glyph glyph-name="zacute" unicode="&#x17a;" horiz-adv-x="768" 
d="M655 1835h277l-289 -289h-178zM672 197l-35 -197h-686l29 164l608 1073h-393l32 197h647l-28 -164l-606 -1073h432z" />
    <glyph glyph-name="Zdotaccent" unicode="&#x17b;" horiz-adv-x="768" 
d="M733 1784l-43 -238h-217l43 238h217zM672 197l-35 -197h-686l29 164l608 1073h-393l32 197h647l-28 -164l-606 -1073h432z" />
    <glyph glyph-name="zdotaccent" unicode="&#x17c;" horiz-adv-x="768" 
d="M733 1784l-43 -238h-217l43 238h217zM672 197l-35 -197h-686l29 164l608 1073h-393l32 197h647l-28 -164l-606 -1073h432z" />
    <glyph glyph-name="Zcaron" unicode="&#x17d;" horiz-adv-x="768" 
d="M895 1835h-199l-94 -141l-45 141h-186l114 -289h193zM672 197l-35 -197h-686l29 164l608 1073h-393l32 197h647l-28 -164l-606 -1073h432z" />
    <glyph glyph-name="zcaron" unicode="&#x17e;" horiz-adv-x="768" 
d="M895 1835h-199l-94 -141l-45 141h-186l114 -289h193zM672 197l-35 -197h-686l29 164l608 1073h-393l32 197h647l-28 -164l-606 -1073h432z" />
    <glyph glyph-name="florin" unicode="&#x192;" horiz-adv-x="704" 
d="M756 1434h82l-37 -209h-74q-135 0 -158 -131l-43 -242h189l-76 -205h-147l-62 -344q-29 -159 -130 -231t-280 -72h-81l36 209h74q135 0 158 131l53 307h-186l76 205h147l49 278q29 161 130 232.5t280 71.5z" />
    <glyph glyph-name="Aringacute" unicode="&#x1fa;" horiz-adv-x="868" 
d="M1032 2183l-289 -289h-178l191 289h276zM668 1849q71 0 115.5 -42.5t33.5 -114.5q-14 -76 -66.5 -117t-138.5 -41q-73 0 -117.5 43t-31.5 115q12 75 65 116t140 41zM700 1692q5 26 -8 41.5t-41 15.5t-47.5 -15.5t-23.5 -41.5q-5 -26 9 -42t42 -16t46 16t23 42zM444 1434
h299l19 -1434h-236l6 319h-264l-106 -319h-236zM334 516h201l12 637z" />
    <glyph glyph-name="aringacute" unicode="&#x1fb;" horiz-adv-x="868" 
d="M1032 2183l-289 -289h-178l191 289h276zM668 1849q71 0 115.5 -42.5t33.5 -114.5q-14 -76 -66.5 -117t-138.5 -41q-73 0 -117.5 43t-31.5 115q12 75 65 116t140 41zM700 1692q5 26 -8 41.5t-41 15.5t-47.5 -15.5t-23.5 -41.5q-5 -26 9 -42t42 -16t46 16t23 42zM444 1434
h299l19 -1434h-236l6 319h-264l-106 -319h-236zM334 516h201l12 637z" />
    <glyph glyph-name="AEacute" unicode="&#x1fc;" horiz-adv-x="1298" 
d="M1333 1835l-289 -289h-178l191 289h276zM1352 1225h-391l-68 -394h328l-37 -208h-328l-74 -414h398l-37 -209h-635l55 319h-256l-145 -319h-248l682 1434h793zM397 516h201l125 709z" />
    <glyph glyph-name="aeacute" unicode="&#x1fd;" horiz-adv-x="1298" 
d="M1333 1835l-289 -289h-178l191 289h276zM1352 1225h-391l-68 -394h328l-37 -208h-328l-74 -414h398l-37 -209h-635l55 319h-256l-145 -319h-248l682 1434h793zM397 516h201l125 709z" />
    <glyph glyph-name="Oslashacute" unicode="&#x1fe;" horiz-adv-x="925" 
d="M995 1835l-288 -289h-179l191 289h276zM637 1450q159 0 246 -74.5t61 -228.5l-151 -860q-29 -160 -130.5 -231.5t-283.5 -71.5h-17q-76 0 -137 17t-105 52.5t-61.5 95t-3.5 138.5l152 860q29 161 130 232t284 71h16zM592 1241q-64 0 -103.5 -29.5t-50.5 -101.5l-125 -702
l330 827q-21 6 -51 6zM408 193q63 0 101.5 29.5t51.5 101.5l125 702l-330 -827q21 -6 52 -6z" />
    <glyph glyph-name="oslashacute" unicode="&#x1ff;" horiz-adv-x="925" 
d="M995 1835l-288 -289h-179l191 289h276zM637 1450q159 0 246 -74.5t61 -228.5l-151 -860q-29 -160 -130.5 -231.5t-283.5 -71.5h-17q-76 0 -137 17t-105 52.5t-61.5 95t-3.5 138.5l152 860q29 161 130 232t284 71h16zM592 1241q-64 0 -103.5 -29.5t-50.5 -101.5l-125 -702
l330 827q-21 6 -51 6zM408 193q63 0 101.5 29.5t51.5 101.5l125 702l-330 -827q21 -6 52 -6z" />
    <glyph glyph-name="Scommaaccent" unicode="&#x218;" horiz-adv-x="856" 
d="M854 922h-233l36 200q19 123 -100 123q-122 0 -141 -123l-19 -98q-9 -56 5 -90.5t59 -63.5l151 -94q30 -19 51 -33.5t42.5 -32.5t35.5 -35t25.5 -37.5t16 -42.5t5 -48.5t-5.5 -57.5l-37 -206q-29 -162 -125.5 -230.5t-279.5 -68.5h-4q-77 0 -136.5 16t-103 49.5t-60.5 93
t-3 140.5l45 249h233l-39 -217q-10 -64 17.5 -95.5t83.5 -31.5q57 0 96 32t49 95l21 113q10 58 -5 93.5t-63 64.5l-149 94q-197 125 -168 287l32 188q54 295 406 295h4q69 0 127 -16.5t103 -50.5t64 -92.5t5 -135.5zM444 -143l-36 -205q-16 -91 -69 -177.5t-122 -154.5
l-80 45q95 110 133 225h-106l47 267h233z" />
    <glyph glyph-name="scommaaccent" unicode="&#x219;" horiz-adv-x="856" 
d="M854 922h-233l36 200q19 123 -100 123q-122 0 -141 -123l-19 -98q-9 -56 5 -90.5t59 -63.5l151 -94q30 -19 51 -33.5t42.5 -32.5t35.5 -35t25.5 -37.5t16 -42.5t5 -48.5t-5.5 -57.5l-37 -206q-29 -162 -125.5 -230.5t-279.5 -68.5h-4q-77 0 -136.5 16t-103 49.5t-60.5 93
t-3 140.5l45 249h233l-39 -217q-10 -64 17.5 -95.5t83.5 -31.5q57 0 96 32t49 95l21 113q10 58 -5 93.5t-63 64.5l-149 94q-197 125 -168 287l32 188q54 295 406 295h4q69 0 127 -16.5t103 -50.5t64 -92.5t5 -135.5zM444 -143l-36 -205q-16 -91 -69 -177.5t-122 -154.5
l-80 45q95 110 133 225h-106l47 267h233z" />
    <glyph glyph-name="circumflex" unicode="&#x2c6;" horiz-adv-x="892" 
d="M891 1546l-115 289h-192l-217 -289h198l94 142l46 -142h186z" />
    <glyph glyph-name="caron" unicode="&#x2c7;" horiz-adv-x="892" 
d="M942 1835h-199l-94 -141l-45 141h-186l114 -289h193z" />
    <glyph glyph-name="breve" unicode="&#x2d8;" horiz-adv-x="966" 
d="M938 1817l-18 -113q-15 -83 -74 -121.5t-168 -38.5h-25q-96 0 -147 40.5t-37 121.5l18 111h177l-13 -78q-9 -51 35 -51h8q47 0 56 51l12 78h176z" />
    <glyph glyph-name="dotaccent" unicode="&#x2d9;" horiz-adv-x="585" 
d="M627 1784l-43 -238h-217l43 238h217z" />
    <glyph glyph-name="ring" unicode="&#x2da;" horiz-adv-x="780" 
d="M629 1849q71 0 115.5 -42.5t33.5 -114.5q-14 -76 -66.5 -117t-138.5 -41q-73 0 -117.5 43t-31.5 115q12 75 65 116t140 41zM612 1749q-28 0 -47.5 -15.5t-23.5 -41.5q-5 -26 9 -42t42 -16t46.5 16t23.5 42t-8.5 41.5t-41.5 15.5z" />
    <glyph glyph-name="ogonek" unicode="&#x2db;" horiz-adv-x="804" 
d="M342 -197q22 0 55 11l-20 -115q-55 -41 -135 -41q-54 0 -90.5 22.5t-47 60.5t-1.5 82t48.5 91.5t102.5 85.5h162q-92 -37 -125 -103q-26 -52 5 -79q16 -15 46 -15z" />
    <glyph glyph-name="tilde" unicode="&#x2dc;" horiz-adv-x="995" 
d="M528 1585q9 51 62 51q28 0 64 -22t79 -44t88 -22q83 0 136.5 50.5t74.5 164.5l8 43h-159l-7 -30q-11 -52 -61 -52q-22 0 -46.5 14t-44.5 30t-53.5 30t-70.5 14q-184 0 -221 -215l-8 -43h155z" />
    <glyph glyph-name="hungarumlaut" unicode="&#x2dd;" horiz-adv-x="1536" 
d="M856 1835h207l-275 -289h-208zM1141 1835h209l-275 -289h-207z" />
    <glyph glyph-name="uni0326" unicode="&#x326;" horiz-adv-x="0" 
d="M-326 -143l-36 -205q-16 -91 -69 -177.5t-122 -154.5l-80 45q95 110 133 225h-106l47 267h233z" />
    <glyph glyph-name="Wgrave" unicode="&#x1e80;" horiz-adv-x="1314" 
d="M862 1835l101 -289h-175l-190 289h264zM1456 1434l-477 -1434h-223l-11 983l-358 -983h-231l26 1434h230l-64 -1024l365 1024h213l4 -1024l297 1024h229z" />
    <glyph glyph-name="wgrave" unicode="&#x1e81;" horiz-adv-x="1314" 
d="M862 1835l101 -289h-175l-190 289h264zM1456 1434l-477 -1434h-223l-11 983l-358 -983h-231l26 1434h230l-64 -1024l365 1024h213l4 -1024l297 1024h229z" />
    <glyph glyph-name="Wacute" unicode="&#x1e82;" horiz-adv-x="1314" 
d="M920 1835h276l-289 -289h-178zM1456 1434l-477 -1434h-223l-11 983l-358 -983h-231l26 1434h230l-64 -1024l365 1024h213l4 -1024l297 1024h229z" />
    <glyph glyph-name="wacute" unicode="&#x1e83;" horiz-adv-x="1314" 
d="M920 1835h276l-289 -289h-178zM1456 1434l-477 -1434h-223l-11 983l-358 -983h-231l26 1434h230l-64 -1024l365 1024h213l4 -1024l297 1024h229z" />
    <glyph glyph-name="Wdieresis" unicode="&#x1e84;" horiz-adv-x="1314" 
d="M827 1784l-43 -238h-217l43 238h217zM1167 1784l-43 -238h-217l43 238h217zM1456 1434l-477 -1434h-223l-11 983l-358 -983h-231l26 1434h230l-64 -1024l365 1024h213l4 -1024l297 1024h229z" />
    <glyph glyph-name="wdieresis" unicode="&#x1e85;" horiz-adv-x="1314" 
d="M827 1784l-43 -238h-217l43 238h217zM1167 1784l-43 -238h-217l43 238h217zM1456 1434l-477 -1434h-223l-11 983l-358 -983h-231l26 1434h230l-64 -1024l365 1024h213l4 -1024l297 1024h229z" />
    <glyph glyph-name="Ygrave" unicode="&#x1ef2;" horiz-adv-x="847" 
d="M623 1835l100 -289h-174l-191 289h265zM543 510l-90 -510h-238l90 510l-127 924h244l43 -666l276 666h252z" />
    <glyph glyph-name="ygrave" unicode="&#x1ef3;" horiz-adv-x="847" 
d="M623 1835l100 -289h-174l-191 289h265zM543 510l-90 -510h-238l90 510l-127 924h244l43 -666l276 666h252z" />
    <glyph glyph-name="endash" unicode="&#x2013;" horiz-adv-x="729" 
d="M743 827l-32 -188h-648l33 188h647z" />
    <glyph glyph-name="emdash" unicode="&#x2014;" horiz-adv-x="1036" 
d="M1051 829l-33 -192h-955l33 192h955z" />
    <glyph glyph-name="quoteleft" unicode="&#x2018;" horiz-adv-x="397" 
d="M154 918l36 204q16 91 69 177.5t122 154.5l80 -45q-95 -110 -133 -225h106l-47 -266h-233z" />
    <glyph glyph-name="quoteright" unicode="&#x2019;" horiz-adv-x="397" 
d="M477 1434l-37 -205q-16 -91 -68.5 -178t-121.5 -154l-80 45q95 110 133 225h-106l47 267h233z" />
    <glyph glyph-name="quotesinglbase" unicode="&#x201a;" horiz-adv-x="397" 
d="M272 266l-36 -205q-16 -90 -68.5 -176.5t-122.5 -154.5l-80 45q95 110 133 225h-106l47 266h233z" />
    <glyph glyph-name="quotedblleft" unicode="&#x201c;" horiz-adv-x="704" 
d="M154 918l36 204q16 91 69 177.5t122 154.5l80 -45q-95 -110 -133 -225h106l-47 -266h-233zM461 918l37 204q16 91 68.5 178t121.5 154l80 -45q-95 -110 -133 -225h106l-47 -266h-233z" />
    <glyph glyph-name="quotedblright" unicode="&#x201d;" horiz-adv-x="704" 
d="M477 1434l-37 -205q-16 -91 -68.5 -178t-121.5 -154l-80 45q95 110 133 225h-106l47 267h233zM784 1434l-36 -205q-16 -91 -69 -177.5t-122 -154.5l-80 45q95 110 133 225h-106l47 267h233z" />
    <glyph glyph-name="quotedblbase" unicode="&#x201e;" horiz-adv-x="704" 
d="M272 266l-36 -205q-16 -90 -68.5 -176.5t-122.5 -154.5l-80 45q95 110 133 225h-106l47 266h233zM580 266l-37 -205q-16 -90 -68.5 -176.5t-122.5 -154.5l-80 45q43 50 80 111.5t54 113.5h-107l47 266h234z" />
    <glyph glyph-name="dagger" unicode="&#x2020;" horiz-adv-x="675" 
d="M741 1024l-32 -188h-211l-148 -836h-205l148 836h-211l33 188h211l71 410h205l-72 -410h211z" />
    <glyph glyph-name="daggerdbl" unicode="&#x2021;" horiz-adv-x="675" 
d="M709 836h-211l-43 -238h211l-33 -188h-211l-72 -410h-205l72 410h-211l33 188h211l43 238h-211l33 188h211l71 410h205l-72 -410h211z" />
    <glyph glyph-name="bullet" unicode="&#x2022;" horiz-adv-x="604" 
d="M373 905q170 0 139 -176q-19 -98 -63.5 -137t-137.5 -39q-175 0 -141 176q17 98 63 137t140 39z" />
    <glyph glyph-name="ellipsis" unicode="&#x2026;" horiz-adv-x="1245" 
d="M272 266l-47 -266h-233l47 266h233zM696 266l-47 -266h-233l47 266h233zM1120 266l-47 -266h-233l47 266h233z" />
    <glyph glyph-name="perthousand" unicode="&#x2030;" horiz-adv-x="1505" 
d="M436 1442q70 0 116 -43t30 -127l-47 -271q-28 -170 -205 -170h-33q-72 0 -118 43t-32 127l48 271q32 170 208 170h33zM1085 1434l-917 -1434h-135l917 1434h135zM446 1247q14 70 -40 70h-19q-51 0 -65 -70l-39 -221q-11 -70 41 -70h18q55 0 66 70zM825 602q70 0 116 -43
t30 -127l-47 -270q-14 -87 -68.5 -128.5t-138.5 -41.5h-33q-72 0 -116.5 42.5t-30.5 127.5l47 270q32 170 209 170h32zM1284 602q70 0 116 -43t30 -127l-48 -270q-28 -170 -206 -170h-33q-72 0 -117 43t-31 127l47 270q32 170 209 170h33zM836 408q11 69 -41 69h-19
q-54 0 -65 -69l-39 -222q-11 -69 41 -69h18q55 0 66 69zM1294 408q11 69 -41 69h-18q-55 0 -66 -69l-39 -222q-11 -69 41 -69h19q54 0 65 69z" />
    <glyph glyph-name="guilsinglleft" unicode="&#x2039;" horiz-adv-x="458" 
d="M477 887l43 248l-450 -349l-23 -122l328 -349l41 232l-170 172z" />
    <glyph glyph-name="guilsinglright" unicode="&#x203a;" horiz-adv-x="458" 
d="M119 903l168 -172l-230 -168l-43 -248l451 349l22 122l-327 349z" />
    <glyph glyph-name="fraction" unicode="&#x2044;" horiz-adv-x="188" 
d="M442 1434h133l-757 -1434h-133z" />
    <glyph glyph-name="Euro" unicode="&#x20ac;" horiz-adv-x="925" 
d="M645 1450q76 0 136.5 -18t104.5 -53.5t61.5 -94.5t4.5 -137l-47 -262h-237l41 225q11 71 -15.5 101t-87.5 30t-98.5 -30t-48.5 -101l-37 -211h192l-18 -111h-195l-18 -110h192l-18 -111h-195l-43 -243q-13 -71 14.5 -101t88.5 -30t97.5 29.5t49.5 101.5l45 260h238
l-51 -297q-29 -162 -130 -232.5t-284 -70.5h-4q-77 0 -137.5 16.5t-105 51t-62 94.5t-2.5 141l49 280h-107l19 111h108l19 110h-107l19 111h108l43 248q27 157 129.5 230t284.5 73h4z" />
    <glyph glyph-name="uni2120" unicode="&#x2120;" horiz-adv-x="819" 
d="M451 1245h-95l13 64q4 29 -4 40t-29 11q-23 0 -35 -11t-16 -40l-6 -29q-4 -26 2 -38.5t32 -31.5l64 -43q57 -40 43 -108l-10 -66q-21 -121 -160 -121q-63 0 -95 31t-20 90l15 84h94l-13 -71q-6 -31 2 -41.5t31 -10.5t35 10.5t18 41.5l7 34q4 26 -6.5 40.5t-41.5 35.5
l-57 41q-50 38 -37 107l11 59q10 58 51 88.5t106 30.5q57 0 91 -31.5t24 -87.5zM795 1182l-113 -221h-53l-35 221l-53 -301h-95l97 553h88l49 -322l156 322h96l-96 -553h-95z" />
    <glyph glyph-name="trademark" unicode="&#x2122;" horiz-adv-x="792" 
d="M467 1434l-14 -88h-88l-82 -465h-101l82 465h-88l14 88h277zM768 1182l-113 -221h-53l-35 221l-53 -301h-94l96 553h88l49 -322l156 322h96l-96 -553h-94z" />
    <glyph glyph-name="uni2153" unicode="&#x2153;" horiz-adv-x="1091" 
d="M795 1434h133l-758 -1434h-133zM252 565h-160l133 762q63 55 80 107h98zM1022 582q-10 -59 -28 -87t-52 -44q23 -13 33.5 -46t1.5 -77l-27 -150q-15 -95 -70 -142.5t-161 -47.5h-31q-87 0 -134 50t-32 140l23 127h160l-19 -110q-12 -66 37 -66h10q50 0 62 66l22 131
q9 51 -37 51h-114l24 139h103q57 0 69 64l17 90q9 65 -39 65h-13q-47 0 -59 -65l-16 -90h-158l18 106q18 100 73 145.5t169 45.5h10q96 0 144.5 -48.5t31.5 -142.5z" />
    <glyph glyph-name="uni2154" unicode="&#x2154;" horiz-adv-x="1327" 
d="M193 1110l26 152q18 97 71.5 140.5t168.5 43.5h2q99 0 148 -46.5t32 -137.5l-18 -101q-5 -27 -16 -52t-19.5 -40.5t-34 -40.5t-33.5 -33t-46 -39t-46 -38q-11 -9 -29 -24t-26.5 -22t-22 -18.5t-20 -18l-15.5 -15.5t-13 -16t-8 -14.5t-5 -15.5l-13 -65h267l-25 -140h-426
l37 207q4 21 12 41t15.5 35.5t24.5 35.5t26.5 30.5t33.5 32t33.5 29t39.5 31.5t38 31q65 52 86 73.5t25 47.5l14 82q6 34 -4 48t-41 14q-28 0 -41.5 -14t-19.5 -48l-23 -135h-155zM1030 1434h133l-757 -1434h-134zM1257 582q-10 -59 -27.5 -87t-51.5 -44q22 -12 31.5 -45
t2.5 -78l-26 -150q-18 -96 -72.5 -143t-159.5 -47h-30q-88 0 -135.5 50.5t-30.5 139.5l22 127h160l-18 -110q-12 -66 36 -66h11q49 0 61 66l23 131q9 51 -37 51h-115l25 139h102q58 0 70 64l16 90q12 65 -39 65h-12q-47 0 -59 -65l-17 -90h-158l19 106q18 100 73 145.5
t169 45.5h10q96 0 144.5 -48.5t31.5 -142.5z" />
    <glyph glyph-name="uni2155" unicode="&#x2155;" horiz-adv-x="1136" 
d="M795 1434h133l-758 -1434h-133zM252 565h-160l133 762q63 55 80 107h98zM1081 723h-254l-28 -160q39 23 90 23q75 0 117 -49.5t28 -135.5l-41 -229q-18 -97 -73 -140.5t-170 -43.5h-5q-98 0 -146.5 46.5t-31.5 137.5l27 152h156l-25 -136q-6 -34 4 -47.5t41 -13.5
t45.5 13.5t20.5 47.5l34 197q6 32 -1.5 45.5t-32.5 13.5q-23 0 -38.5 -11.5t-33.5 -39.5l-148 39l76 432h414z" />
    <glyph glyph-name="uni2156" unicode="&#x2156;" horiz-adv-x="1372" 
d="M193 1110l26 152q18 97 71.5 140.5t168.5 43.5h2q99 0 148 -46.5t32 -137.5l-18 -101q-5 -27 -16 -52t-19.5 -40.5t-34 -40.5t-33.5 -33t-46 -39t-46 -38q-11 -9 -29 -24t-26.5 -22t-22 -18.5t-20 -18l-15.5 -15.5t-13 -16t-8 -14.5t-5 -15.5l-13 -65h267l-25 -140h-426
l37 207q4 21 12 41t15.5 35.5t24.5 35.5t26.5 30.5t33.5 32t33.5 29t39.5 31.5t38 31q65 52 86 73.5t25 47.5l14 82q6 34 -4 48t-41 14q-28 0 -41.5 -14t-19.5 -48l-23 -135h-155zM1030 1434h133l-757 -1434h-134zM1317 723h-254l-29 -160q39 23 90 23q75 0 117.5 -49.5
t28.5 -135.5l-41 -229q-18 -96 -73 -140t-171 -44h-4q-98 0 -146.5 46.5t-31.5 137.5l26 152h156l-24 -136q-6 -34 4 -47.5t41 -13.5t45 13.5t20 47.5l35 197q6 32 -2 45.5t-33 13.5q-23 0 -38.5 -11.5t-33.5 -39.5l-147 39l76 432h413z" />
    <glyph glyph-name="uni2157" unicode="&#x2157;" horiz-adv-x="1353" 
d="M623 1151q-10 -59 -28 -87t-52 -44q22 -12 32 -45t3 -78l-27 -149q-18 -96 -72.5 -143.5t-159.5 -47.5h-30q-88 0 -135.5 51t-30.5 140l22 126h160l-18 -110q-12 -66 37 -66h10q49 0 61 66l23 131q9 51 -37 51h-115l25 139h102q58 0 70 64l16 90q12 66 -39 66h-12
q-47 0 -59 -66l-17 -90h-157l18 106q18 100 73 145.5t169 45.5h10q96 0 144.5 -48.5t31.5 -142.5zM1012 1434h133l-758 -1434h-133zM1298 723h-254l-28 -160q39 23 90 23q75 0 117 -49.5t28 -135.5l-41 -229q-18 -97 -73 -140.5t-170 -43.5h-4q-99 0 -147.5 46.5
t-31.5 137.5l27 152h156l-25 -136q-6 -34 4 -47.5t41 -13.5t45.5 13.5t20.5 47.5l34 197q6 32 -1.5 45.5t-32.5 13.5q-23 0 -38.5 -11.5t-33.5 -39.5l-147 39l75 432h414z" />
    <glyph glyph-name="uni2158" unicode="&#x2158;" horiz-adv-x="1372" 
d="M643 1434l-92 -533h59l-26 -141h-60l-32 -195h-160l33 195h-240l25 135l292 539h201zM1030 1434h133l-757 -1434h-134zM444 1208l-155 -307h102zM1317 723h-254l-29 -160q39 23 90 23q75 0 117.5 -49.5t28.5 -135.5l-41 -229q-18 -96 -73 -140t-171 -44h-4
q-98 0 -146.5 46.5t-31.5 137.5l26 152h156l-24 -136q-6 -34 4 -47.5t41 -13.5t45 13.5t20 47.5l35 197q6 32 -2 45.5t-33 13.5q-23 0 -38.5 -11.5t-33.5 -39.5l-147 39l76 432h413z" />
    <glyph glyph-name="uni2159" unicode="&#x2159;" horiz-adv-x="1140" 
d="M795 1434h133l-758 -1434h-133zM252 565h-160l133 762q63 55 80 107h98zM1077 616h-157l10 60q6 34 -4 47.5t-41 13.5t-47.5 -14t-22.5 -47l-31 -172q38 41 101 41q75 0 116.5 -49.5t26.5 -135.5l-33 -188q-18 -97 -73 -140.5t-170 -43.5h-4q-99 0 -147.5 46.5
t-31.5 137.5l93 520q15 96 71.5 140.5t173.5 44.5h4q97 0 146.5 -47t34.5 -138zM823 403q-31 0 -46 -13.5t-21 -47.5l-27 -154q-6 -34 4 -47.5t41 -13.5t45.5 13.5t20.5 47.5l28 156q6 33 -4 46t-41 13z" />
    <glyph glyph-name="uni215A" unicode="&#x215a;" horiz-adv-x="1366" 
d="M637 1292h-254l-29 -159q37 22 90 22q75 0 117.5 -49t28.5 -135l-41 -230q-18 -96 -73 -140t-171 -44h-4q-98 0 -146.5 46.5t-31.5 137.5l27 152h155l-24 -135q-6 -34 4 -48t41 -14q30 0 44.5 14t20.5 48l35 196q6 32 -2 46t-33 14q-23 0 -38.5 -11.5t-33.5 -39.5
l-147 38l76 433h414zM1020 1434h133l-758 -1434h-133zM1300 616h-157l10 60q6 34 -4 47.5t-41 13.5t-47.5 -14t-22.5 -47l-30 -172q38 41 100 41q75 0 116.5 -49.5t26.5 -135.5l-32 -188q-18 -96 -73 -140t-171 -44h-4q-98 0 -146.5 46.5t-31.5 137.5l92 520q18 97 73 141
t172 44h5q98 0 148 -47t32 -138zM1047 403q-31 0 -46.5 -13.5t-21.5 -47.5l-27 -154q-6 -34 4 -47.5t41 -13.5t45.5 13.5t20.5 47.5l29 156q6 33 -4 46t-41 13z" />
    <glyph glyph-name="oneeighth" unicode="&#x215b;" horiz-adv-x="1110" 
d="M795 1434h133l-758 -1434h-133zM252 565h-160l133 762q63 55 80 107h98zM895 877q88 0 134.5 -50t29.5 -141l-19 -104q-10 -60 -33.5 -90t-62.5 -43q29 -14 42.5 -53.5t4.5 -92.5l-22 -125q-15 -96 -69.5 -143t-160.5 -47h-39q-87 0 -132.5 49.5t-30.5 140.5l22 125
q11 63 36.5 96.5t66.5 49.5q-31 9 -47 46t-7 87l19 104q18 97 71 144t158 47h39zM881 580l16 90q11 65 -35 65h-22q-45 0 -56 -65l-16 -90q-11 -64 33 -64h22q48 0 58 64zM813 195l21 118q10 64 -35 64h-23q-44 0 -55 -64l-21 -118q-11 -66 33 -66h23q46 0 57 66z" />
    <glyph glyph-name="threeeighths" unicode="&#x215c;" horiz-adv-x="1327" 
d="M623 1151q-10 -59 -28 -87t-52 -44q22 -12 32 -45t3 -78l-27 -149q-18 -96 -72.5 -143.5t-159.5 -47.5h-30q-88 0 -135.5 51t-30.5 140l22 126h160l-18 -110q-12 -66 37 -66h10q49 0 61 66l23 131q9 51 -37 51h-115l25 139h102q58 0 70 64l16 90q12 66 -39 66h-12
q-47 0 -59 -66l-17 -90h-157l18 106q18 100 73 145.5t169 45.5h10q96 0 144.5 -48.5t31.5 -142.5zM1012 1434h133l-758 -1434h-133zM1112 877q88 0 134.5 -50t29.5 -141l-19 -104q-10 -60 -33.5 -90t-62.5 -43q29 -14 42.5 -53.5t4.5 -92.5l-22 -125q-18 -97 -71 -143.5
t-159 -46.5h-38q-88 0 -134.5 49.5t-29.5 140.5l22 125q11 63 36.5 96.5t66.5 49.5q-31 9 -47 46t-7 87l19 104q18 97 71 144t158 47h39zM1098 580l16 90q11 65 -35 65h-22q-45 0 -56 -65l-16 -90q-11 -64 33 -64h22q48 0 58 64zM1030 195l21 118q10 64 -35 64h-23
q-44 0 -55 -64l-20 -118q-11 -66 32 -66h23q46 0 57 66z" />
    <glyph glyph-name="fiveeighths" unicode="&#x215d;" horiz-adv-x="1335" 
d="M637 1292h-254l-29 -159q37 22 90 22q75 0 117.5 -49t28.5 -135l-41 -230q-18 -96 -73 -140t-171 -44h-4q-98 0 -146.5 46.5t-31.5 137.5l27 152h155l-24 -135q-6 -34 4 -48t41 -14q30 0 44.5 14t20.5 48l35 196q6 32 -2 46t-33 14q-23 0 -38.5 -11.5t-33.5 -39.5
l-147 38l76 433h414zM1020 1434h133l-758 -1434h-133zM1120 877q88 0 134.5 -50t29.5 -141l-18 -104q-10 -60 -34 -90t-63 -43q29 -14 43 -54t5 -92l-23 -125q-18 -97 -70.5 -143.5t-158.5 -46.5h-39q-88 0 -134.5 49.5t-29.5 140.5l22 125q11 63 36.5 96.5t66.5 49.5
q-31 9 -46.5 46t-6.5 87l18 104q18 97 71 144t158 47h39zM1106 580l16 90q11 65 -35 65h-22q-44 0 -55 -65l-17 -90q-11 -64 33 -64h23q47 0 57 64zM1038 195l21 118q10 64 -35 64h-23q-44 0 -55 -64l-20 -118q-11 -66 32 -66h23q46 0 57 66z" />
    <glyph glyph-name="seveneighths" unicode="&#x215e;" horiz-adv-x="1187" 
d="M872 1434h134l-758 -1434h-133zM612 1303l-323 -738h-164l324 727h-230l25 142h391zM973 877q88 0 134.5 -50t29.5 -141l-19 -104q-10 -60 -33.5 -90t-62.5 -43q29 -14 42.5 -53.5t4.5 -92.5l-22 -125q-18 -97 -71 -143.5t-159 -46.5h-39q-88 0 -134.5 49.5t-29.5 140.5
l23 125q11 63 36 96.5t66 49.5q-31 9 -46.5 46t-6.5 87l19 104q18 97 71 144t158 47h39zM958 580l17 90q11 65 -35 65h-22q-45 0 -56 -65l-16 -90q-11 -64 33 -64h22q47 0 57 64zM891 195l20 118q10 64 -34 64h-23q-44 0 -55 -64l-21 -118q-11 -66 33 -66h23q46 0 57 66z
" />
    <glyph glyph-name="minus" unicode="&#x2212;" horiz-adv-x="860" 
d="M829 825l-30 -176h-688l30 176h688z" />
    <glyph glyph-name="notequal" unicode="&#x2260;" horiz-adv-x="860" 
d="M827 815h-252l-86 -164h310l-31 -176h-369l-151 -297h-127l151 297h-192l31 176h251l87 164h-310l31 176h369l151 297h127l-151 -297h192z" />
    <glyph glyph-name="A.ss01" 
d="M629 1450q77 0 136.5 -16.5t103 -51t60.5 -94.5t3 -141l-203 -1147h-237l83 469h-245l-84 -469h-238l203 1147q29 163 128 233t282 70h8zM367 678h245l76 432q12 73 -13 102t-87 29q-63 0 -99 -29t-47 -102z" />
    <glyph glyph-name="Aacute.ss01" 
d="M991 1835l-289 -289h-178l191 289h276zM629 1450q77 0 136.5 -16.5t103 -51t60.5 -94.5t3 -141l-203 -1147h-237l83 469h-245l-84 -469h-238l203 1147q29 163 128 233t282 70h8zM367 678h245l76 432q12 73 -13 102t-87 29q-63 0 -99 -29t-47 -102z" />
    <glyph glyph-name="Abreve.ss01" 
d="M629 1544q-96 0 -147.5 40.5t-37.5 121.5l19 111h176l-12 -78q-9 -51 35 -51h8q46 0 55 51l12 78h176l-18 -113q-15 -83 -74 -121.5t-168 -38.5h-24zM629 1450q77 0 136.5 -16.5t103 -51t60.5 -94.5t3 -141l-203 -1147h-237l83 469h-245l-84 -469h-238l203 1147
q29 163 128 233t282 70h8zM367 678h245l76 432q12 73 -13 102t-87 29q-63 0 -99 -29t-47 -102z" />
    <glyph glyph-name="Acircumflex.ss01" 
d="M672 1688l-94 -142h-199l217 289h192l115 -289h-186zM629 1450q77 0 136.5 -16.5t103 -51t60.5 -94.5t3 -141l-203 -1147h-237l83 469h-245l-84 -469h-238l203 1147q29 163 128 233t282 70h8zM367 678h245l76 432q12 73 -13 102t-87 29q-63 0 -99 -29t-47 -102z" />
    <glyph glyph-name="Adieresis.ss01" 
d="M623 1784l-43 -238h-218l44 238h217zM963 1784l-43 -238h-218l43 238h218zM629 1450q77 0 136.5 -16.5t103 -51t60.5 -94.5t3 -141l-203 -1147h-237l83 469h-245l-84 -469h-238l203 1147q29 163 128 233t282 70h8zM367 678h245l76 432q12 73 -13 102t-87 29
q-63 0 -99 -29t-47 -102z" />
    <glyph glyph-name="Agrave.ss01" 
d="M758 1546h-174l-191 289h264zM629 1450q77 0 136.5 -16.5t103 -51t60.5 -94.5t3 -141l-203 -1147h-237l83 469h-245l-84 -469h-238l203 1147q29 163 128 233t282 70h8zM367 678h245l76 432q12 73 -13 102t-87 29q-63 0 -99 -29t-47 -102z" />
    <glyph glyph-name="Amacron.ss01" 
d="M909 1755l-32 -188h-463l32 188h463zM629 1450q77 0 136.5 -16.5t103 -51t60.5 -94.5t3 -141l-203 -1147h-237l83 469h-245l-84 -469h-238l203 1147q29 163 128 233t282 70h8zM367 678h245l76 432q12 73 -13 102t-87 29q-63 0 -99 -29t-47 -102z" />
    <glyph glyph-name="Aogonek.ss01" 
d="M629 1450q77 0 136.5 -16.5t103 -51t60.5 -94.5t3 -141l-203 -1147h-76q-92 -37 -124 -103q-26 -52 5 -79q16 -15 46 -15q22 0 55 11l-21 -115q-55 -41 -135 -41q-54 0 -90.5 22.5t-47 60.5t-1 82t49 91.5t102.5 85.5l83 469h-245l-84 -469h-238l203 1147q29 163 128 233
t282 70h8zM367 678h245l76 432q12 73 -13 102t-87 29q-63 0 -99 -29t-47 -102z" />
    <glyph glyph-name="Aring.ss01" 
d="M639 1534q-73 0 -118 43t-32 115q12 75 65 116t140 41q71 0 116 -42.5t34 -114.5q-14 -76 -66.5 -117t-138.5 -41zM606 1692q-5 -26 9 -42t42 -16t46.5 16t23.5 42t-8 41.5t-41 15.5t-48 -15.5t-24 -41.5zM629 1450q77 0 136.5 -16.5t103 -51t60.5 -94.5t3 -141
l-203 -1147h-237l83 469h-245l-84 -469h-238l203 1147q29 163 128 233t282 70h8zM367 678h245l76 432q12 73 -13 102t-87 29q-63 0 -99 -29t-47 -102z" />
    <glyph glyph-name="Aringacute.ss01" 
d="M1053 2183l-289 -289h-178l190 289h277zM639 1534q-73 0 -118 43t-32 115q12 75 65 116t140 41q71 0 116 -42.5t34 -114.5q-14 -76 -66.5 -117t-138.5 -41zM606 1692q-5 -26 9 -42t42 -16t46.5 16t23.5 42t-8 41.5t-41 15.5t-48 -15.5t-24 -41.5zM629 1450
q77 0 136.5 -16.5t103 -51t60.5 -94.5t3 -141l-203 -1147h-237l83 469h-245l-84 -469h-238l203 1147q29 163 128 233t282 70h8zM367 678h245l76 432q12 73 -13 102t-87 29q-63 0 -99 -29t-47 -102z" />
    <glyph glyph-name="Atilde.ss01" 
d="M842 1806h159l-8 -43q-21 -114 -74.5 -164.5t-136.5 -50.5q-45 0 -88 22t-79 44t-64 22q-53 0 -62 -51l-4 -31h-155l8 43q37 215 221 215q37 0 70.5 -14t53.5 -30t44.5 -30t46.5 -14q51 0 62 52zM629 1450q77 0 136.5 -16.5t103 -51t60.5 -94.5t3 -141l-203 -1147h-237
l83 469h-245l-84 -469h-238l203 1147q29 163 128 233t282 70h8zM367 678h245l76 432q12 73 -13 102t-87 29q-63 0 -99 -29t-47 -102z" />
    <glyph glyph-name="AE.ss01" horiz-adv-x="1282" 
d="M1335 1225h-391l-67 -394h327l-37 -208h-327l-74 -414h397l-37 -209h-634l81 469h-245l-82 -469h-238l199 1130q30 164 128 234t281 70h756zM365 678h245l97 547h-123q-62 0 -97.5 -29t-48.5 -102z" />
    <glyph glyph-name="AEacute.ss01" horiz-adv-x="1282" 
d="M1237 1835l-289 -289h-178l191 289h276zM1335 1225h-391l-67 -394h327l-37 -208h-327l-74 -414h397l-37 -209h-634l81 469h-245l-82 -469h-238l199 1130q30 164 128 234t281 70h756zM365 678h245l97 547h-123q-62 0 -97.5 -29t-48.5 -102z" />
    <glyph glyph-name="G.ss01" horiz-adv-x="925" 
d="M907 942h-237l30 168q11 72 -17 101.5t-91 29.5q-64 0 -103.5 -29.5t-50.5 -101.5l-139 -786q-13 -72 16 -101.5t93 -29.5q63 0 101.5 29.5t51.5 101.5l37 213h-139l35 200h376l-129 -737h-118l-27 106q-59 -122 -238 -122h-16q-69 0 -125.5 16.5t-99 51t-60 94.5
t-2.5 141l152 860q27 157 129.5 230t284.5 73h16q76 0 136.5 -18t104.5 -53.5t61.5 -94.5t4.5 -137z" />
    <glyph glyph-name="Gbreve.ss01" horiz-adv-x="925" 
d="M918 1817l-19 -113q-15 -83 -74 -121.5t-168 -38.5h-24q-96 0 -147 40.5t-37 121.5l18 111h176l-12 -78q-9 -51 35 -51h8q46 0 55 51l12 78h177zM907 942h-237l30 168q11 72 -17 101.5t-91 29.5q-64 0 -103.5 -29.5t-50.5 -101.5l-139 -786q-13 -72 16 -101.5t93 -29.5
q63 0 101.5 29.5t51.5 101.5l37 213h-139l35 200h376l-129 -737h-118l-27 106q-59 -122 -238 -122h-16q-69 0 -125.5 16.5t-99 51t-60 94.5t-2.5 141l152 860q27 157 129.5 230t284.5 73h16q76 0 136.5 -18t104.5 -53.5t61.5 -94.5t4.5 -137z" />
    <glyph glyph-name="Gcommaaccent.ss01" horiz-adv-x="925" 
d="M907 942h-237l30 168q11 72 -17 101.5t-91 29.5q-64 0 -103.5 -29.5t-50.5 -101.5l-139 -786q-13 -72 16 -101.5t93 -29.5q63 0 101.5 29.5t51.5 101.5l37 213h-139l35 200h376l-129 -737h-118l-27 106q-59 -122 -238 -122h-16q-69 0 -125.5 16.5t-99 51t-60 94.5
t-2.5 141l152 860q27 157 129.5 230t284.5 73h16q76 0 136.5 -18t104.5 -53.5t61.5 -94.5t4.5 -137zM459 -143l-37 -205q-16 -91 -69 -177.5t-122 -154.5l-79 45q95 110 133 225h-107l47 267h234z" />
    <glyph glyph-name="Gdotaccent.ss01" horiz-adv-x="925" 
d="M797 1784l-43 -238h-217l43 238h217zM907 942h-237l30 168q11 72 -17 101.5t-91 29.5q-64 0 -103.5 -29.5t-50.5 -101.5l-139 -786q-13 -72 16 -101.5t93 -29.5q63 0 101.5 29.5t51.5 101.5l37 213h-139l35 200h376l-129 -737h-118l-27 106q-59 -122 -238 -122h-16
q-69 0 -125.5 16.5t-99 51t-60 94.5t-2.5 141l152 860q27 157 129.5 230t284.5 73h16q76 0 136.5 -18t104.5 -53.5t61.5 -94.5t4.5 -137z" />
    <glyph glyph-name="M.ss01" horiz-adv-x="1372" 
d="M1178 1450q49 0 90.5 -16.5t75 -52.5t44 -93.5t-1.5 -140.5l-202 -1147h-238l195 1100q25 141 -84 141q-60 0 -97.5 -36.5t-48.5 -104.5l-194 -1100h-238l195 1100q25 141 -84 141q-60 0 -97.5 -36.5t-48.5 -104.5l-194 -1100h-238l252 1434h238l-17 -95q46 58 93.5 84.5
t132.5 26.5q71 0 126.5 -35t77.5 -106q48 77 110 109t153 32z" />
    <glyph glyph-name="N.ss01" horiz-adv-x="921" 
d="M733 0h-237l194 1100q25 141 -94 141q-128 0 -152 -141l-194 -1100h-238l252 1434h238l-17 -95q43 57 95.5 84t138.5 27q51 0 94 -16.5t77.5 -52.5t46 -93.5t-0.5 -140.5z" />
    <glyph glyph-name="Nacute.ss01" horiz-adv-x="921" 
d="M719 1835h276l-288 -289h-179zM733 0h-237l194 1100q25 141 -94 141q-128 0 -152 -141l-194 -1100h-238l252 1434h238l-17 -95q43 57 95.5 84t138.5 27q51 0 94 -16.5t77.5 -52.5t46 -93.5t-0.5 -140.5z" />
    <glyph glyph-name="Ncaron.ss01" horiz-adv-x="921" 
d="M958 1835h-198l-94 -141l-45 141h-187l115 -289h192zM733 0h-237l194 1100q25 141 -94 141q-128 0 -152 -141l-194 -1100h-238l252 1434h238l-17 -95q43 57 95.5 84t138.5 27q51 0 94 -16.5t77.5 -52.5t46 -93.5t-0.5 -140.5z" />
    <glyph glyph-name="Ncommaaccent.ss01" horiz-adv-x="921" 
d="M733 0h-237l194 1100q25 141 -94 141q-128 0 -152 -141l-194 -1100h-238l252 1434h238l-17 -95q43 57 95.5 84t138.5 27q51 0 94 -16.5t77.5 -52.5t46 -93.5t-0.5 -140.5zM459 -143l-37 -205q-16 -91 -69 -177.5t-122 -154.5l-79 45q95 110 133 225h-107l47 267h234z" />
    <glyph glyph-name="Eng.ss01" horiz-adv-x="921" 
d="M719 1450q51 0 94 -16.5t77.5 -52.5t46 -93.5t-0.5 -140.5l-209 -1180q-28 -161 -132.5 -232t-285.5 -71h-49l37 205h45q63 0 102 29.5t52 101.5l194 1100q25 141 -94 141q-128 0 -152 -141l-194 -1100h-238l252 1434h238l-17 -95q43 56 96 83.5t138 27.5z" />
    <glyph glyph-name="Ntilde.ss01" horiz-adv-x="921" 
d="M494 1585q9 51 61 51q28 0 64 -22t79 -44t88 -22q83 0 136.5 50.5t74.5 164.5l9 43h-160l-6 -30q-11 -52 -62 -52q-22 0 -46.5 14t-44.5 30t-53.5 30t-70.5 14q-184 0 -221 -215l-8 -43h155zM733 0h-237l194 1100q25 141 -94 141q-128 0 -152 -141l-194 -1100h-238
l252 1434h238l-17 -95q43 57 95.5 84t138.5 27q51 0 94 -16.5t77.5 -52.5t46 -93.5t-0.5 -140.5z" />
    <glyph glyph-name="Q.ss01" horiz-adv-x="925" 
d="M637 1450q159 0 246 -74.5t61 -228.5l-151 -860q-26 -140 -107 -212t-221 -87q4 -64 50.5 -81.5t135.5 9.5v-147q-60 -20 -115.5 -23.5t-97 7.5t-74.5 33t-47.5 53.5t-17 68.5t17.5 78q-141 10 -214.5 84t-47.5 217l152 860q29 161 130 232t284 71h16zM700 1110
q11 72 -17 101.5t-91 29.5q-64 0 -103.5 -29.5t-50.5 -101.5l-139 -786q-13 -72 16 -101.5t93 -29.5q63 0 101.5 29.5t51.5 101.5z" />
    <glyph glyph-name="R.ss01" horiz-adv-x="915" 
d="M934 1130l-41 -235q-15 -88 -73 -144.5t-144 -68.5q79 -16 117 -79t26 -128l-51 -287q-19 -113 35 -131l-10 -61h-123q-81 0 -117 58t-23 134l45 258q13 72 -15 102t-91 30h-117l-102 -578h-238l252 1434h363q76 0 137 -17.5t105 -53t61.5 -95t3.5 -138.5zM389 786h117
q63 0 101.5 30t51.5 102l31 176q13 72 -16 101.5t-92 29.5h-117z" />
    <glyph glyph-name="Racute.ss01" horiz-adv-x="915" 
d="M690 1835h277l-289 -289h-178zM934 1130l-41 -235q-15 -88 -73 -144.5t-144 -68.5q79 -16 117 -79t26 -128l-51 -287q-19 -113 35 -131l-10 -61h-123q-81 0 -117 58t-23 134l45 258q13 72 -15 102t-91 30h-117l-102 -578h-238l252 1434h363q76 0 137 -17.5t105 -53
t61.5 -95t3.5 -138.5zM389 786h117q63 0 101.5 30t51.5 102l31 176q13 72 -16 101.5t-92 29.5h-117z" />
    <glyph glyph-name="Rcaron.ss01" horiz-adv-x="915" 
d="M930 1835h-199l-94 -141l-45 141h-186l114 -289h193zM934 1130l-41 -235q-15 -88 -73 -144.5t-144 -68.5q79 -16 117 -79t26 -128l-51 -287q-19 -113 35 -131l-10 -61h-123q-81 0 -117 58t-23 134l45 258q13 72 -15 102t-91 30h-117l-102 -578h-238l252 1434h363
q76 0 137 -17.5t105 -53t61.5 -95t3.5 -138.5zM389 786h117q63 0 101.5 30t51.5 102l31 176q13 72 -16 101.5t-92 29.5h-117z" />
    <glyph glyph-name="Rcommaaccent.ss01" horiz-adv-x="915" 
d="M934 1130l-41 -235q-15 -88 -73 -144.5t-144 -68.5q79 -16 117 -79t26 -128l-51 -287q-19 -113 35 -131l-10 -61h-123q-81 0 -117 58t-23 134l45 258q13 72 -15 102t-91 30h-117l-102 -578h-238l252 1434h363q76 0 137 -17.5t105 -53t61.5 -95t3.5 -138.5zM389 786h117
q63 0 101.5 30t51.5 102l31 176q13 72 -16 101.5t-92 29.5h-117zM481 -143l-37 -205q-16 -91 -68.5 -178t-121.5 -154l-80 45q95 110 133 225h-106l47 267h233z" />
    <glyph glyph-name="W.ss01" horiz-adv-x="1368" 
d="M1194 1434h238l-201 -1147q-28 -157 -133.5 -230t-263.5 -73q-63 0 -127.5 26.5t-92.5 85.5q-50 -62 -114 -87t-150 -25q-49 0 -94 10t-86.5 33.5t-70 57.5t-40 86t-0.5 116l201 1147h238l-193 -1100q-24 -141 90 -141q116 0 140 141l192 1100h238l-193 -1100
q-24 -141 90 -141q115 0 139 141z" />
    <glyph glyph-name="Wacute.ss01" horiz-adv-x="1368" 
d="M940 1835h277l-289 -289h-178zM1194 1434h238l-201 -1147q-28 -157 -133.5 -230t-263.5 -73q-63 0 -127.5 26.5t-92.5 85.5q-50 -62 -114 -87t-150 -25q-49 0 -94 10t-86.5 33.5t-70 57.5t-40 86t-0.5 116l201 1147h238l-193 -1100q-24 -141 90 -141q116 0 140 141
l192 1100h238l-193 -1100q-24 -141 90 -141q115 0 139 141z" />
    <glyph glyph-name="Wcircumflex.ss01" horiz-adv-x="1368" 
d="M1128 1546l-114 289h-193l-217 -289h199l94 142l45 -142h186zM1194 1434h238l-201 -1147q-28 -157 -133.5 -230t-263.5 -73q-63 0 -127.5 26.5t-92.5 85.5q-50 -62 -114 -87t-150 -25q-49 0 -94 10t-86.5 33.5t-70 57.5t-40 86t-0.5 116l201 1147h238l-193 -1100
q-24 -141 90 -141q116 0 140 141l192 1100h238l-193 -1100q-24 -141 90 -141q115 0 139 141z" />
    <glyph glyph-name="Wdieresis.ss01" horiz-adv-x="1368" 
d="M848 1784l-43 -238h-217l43 238h217zM1188 1784l-43 -238h-217l43 238h217zM1194 1434h238l-201 -1147q-28 -157 -133.5 -230t-263.5 -73q-63 0 -127.5 26.5t-92.5 85.5q-50 -62 -114 -87t-150 -25q-49 0 -94 10t-86.5 33.5t-70 57.5t-40 86t-0.5 116l201 1147h238
l-193 -1100q-24 -141 90 -141q116 0 140 141l192 1100h238l-193 -1100q-24 -141 90 -141q115 0 139 141z" />
    <glyph glyph-name="Wgrave.ss01" horiz-adv-x="1368" 
d="M883 1835l100 -289h-174l-191 289h265zM1194 1434h238l-201 -1147q-28 -157 -133.5 -230t-263.5 -73q-63 0 -127.5 26.5t-92.5 85.5q-50 -62 -114 -87t-150 -25q-49 0 -94 10t-86.5 33.5t-70 57.5t-40 86t-0.5 116l201 1147h238l-193 -1100q-24 -141 90 -141
q116 0 140 141l192 1100h238l-193 -1100q-24 -141 90 -141q115 0 139 141z" />
    <glyph glyph-name="Y.ss01" horiz-adv-x="913" 
d="M739 1434h238l-201 -1147q-29 -162 -127.5 -232.5t-281.5 -70.5h-9q-77 0 -136.5 16.5t-103.5 51t-61 94.5t-2 141l21 119h237l-14 -82q-13 -73 12.5 -102t87.5 -29t97.5 29t48.5 102l57 329q-41 -58 -93.5 -84t-137.5 -26q-51 0 -94 16.5t-77.5 52.5t-46 93.5t0.5 140.5
l102 588h238l-95 -541q-25 -141 95 -141q127 0 151 141z" />
    <glyph glyph-name="Yacute.ss01" horiz-adv-x="913" 
d="M711 1835h276l-289 -289h-178zM739 1434h238l-201 -1147q-29 -162 -127.5 -232.5t-281.5 -70.5h-9q-77 0 -136.5 16.5t-103.5 51t-61 94.5t-2 141l21 119h237l-14 -82q-13 -73 12.5 -102t87.5 -29t97.5 29t48.5 102l57 329q-41 -58 -93.5 -84t-137.5 -26q-51 0 -94 16.5
t-77.5 52.5t-46 93.5t0.5 140.5l102 588h238l-95 -541q-25 -141 95 -141q127 0 151 141z" />
    <glyph glyph-name="Ycircumflex.ss01" horiz-adv-x="913" 
d="M899 1546l-115 289h-192l-217 -289h198l95 142l45 -142h186zM739 1434h238l-201 -1147q-29 -162 -127.5 -232.5t-281.5 -70.5h-9q-77 0 -136.5 16.5t-103.5 51t-61 94.5t-2 141l21 119h237l-14 -82q-13 -73 12.5 -102t87.5 -29t97.5 29t48.5 102l57 329
q-41 -58 -93.5 -84t-137.5 -26q-51 0 -94 16.5t-77.5 52.5t-46 93.5t0.5 140.5l102 588h238l-95 -541q-25 -141 95 -141q127 0 151 141z" />
    <glyph glyph-name="Ydieresis.ss01" horiz-adv-x="913" 
d="M618 1784l-43 -238h-217l43 238h217zM958 1784l-43 -238h-217l43 238h217zM739 1434h238l-201 -1147q-29 -162 -127.5 -232.5t-281.5 -70.5h-9q-77 0 -136.5 16.5t-103.5 51t-61 94.5t-2 141l21 119h237l-14 -82q-13 -73 12.5 -102t87.5 -29t97.5 29t48.5 102l57 329
q-41 -58 -93.5 -84t-137.5 -26q-51 0 -94 16.5t-77.5 52.5t-46 93.5t0.5 140.5l102 588h238l-95 -541q-25 -141 95 -141q127 0 151 141z" />
    <glyph glyph-name="Ygrave.ss01" horiz-adv-x="913" 
d="M653 1835l101 -289h-174l-191 289h264zM739 1434h238l-201 -1147q-29 -162 -127.5 -232.5t-281.5 -70.5h-9q-77 0 -136.5 16.5t-103.5 51t-61 94.5t-2 141l21 119h237l-14 -82q-13 -73 12.5 -102t87.5 -29t97.5 29t48.5 102l57 329q-41 -58 -93.5 -84t-137.5 -26
q-51 0 -94 16.5t-77.5 52.5t-46 93.5t0.5 140.5l102 588h238l-95 -541q-25 -141 95 -141q127 0 151 141z" />
    <glyph glyph-name="i.loclTRK" horiz-adv-x="458" 
d="M563 1784l-43 -238h-217l43 238h217zM258 0h-238l252 1434h238z" />
    <glyph glyph-name="a.ss01" 
d="M629 1450q77 0 136.5 -16.5t103 -51t60.5 -94.5t3 -141l-203 -1147h-237l83 469h-245l-84 -469h-238l203 1147q29 163 128 233t282 70h8zM367 678h245l76 432q12 73 -13 102t-87 29q-63 0 -99 -29t-47 -102z" />
    <glyph glyph-name="aacute.ss01" 
d="M991 1835l-289 -289h-178l191 289h276zM629 1450q77 0 136.5 -16.5t103 -51t60.5 -94.5t3 -141l-203 -1147h-237l83 469h-245l-84 -469h-238l203 1147q29 163 128 233t282 70h8zM367 678h245l76 432q12 73 -13 102t-87 29q-63 0 -99 -29t-47 -102z" />
    <glyph glyph-name="abreve.ss01" 
d="M629 1544q-96 0 -147.5 40.5t-37.5 121.5l19 111h176l-12 -78q-9 -51 35 -51h8q46 0 55 51l12 78h176l-18 -113q-15 -83 -74 -121.5t-168 -38.5h-24zM629 1450q77 0 136.5 -16.5t103 -51t60.5 -94.5t3 -141l-203 -1147h-237l83 469h-245l-84 -469h-238l203 1147
q29 163 128 233t282 70h8zM367 678h245l76 432q12 73 -13 102t-87 29q-63 0 -99 -29t-47 -102z" />
    <glyph glyph-name="acircumflex.ss01" 
d="M672 1688l-94 -142h-199l217 289h192l115 -289h-186zM629 1450q77 0 136.5 -16.5t103 -51t60.5 -94.5t3 -141l-203 -1147h-237l83 469h-245l-84 -469h-238l203 1147q29 163 128 233t282 70h8zM367 678h245l76 432q12 73 -13 102t-87 29q-63 0 -99 -29t-47 -102z" />
    <glyph glyph-name="adieresis.ss01" 
d="M623 1784l-43 -238h-218l44 238h217zM963 1784l-43 -238h-218l43 238h218zM629 1450q77 0 136.5 -16.5t103 -51t60.5 -94.5t3 -141l-203 -1147h-237l83 469h-245l-84 -469h-238l203 1147q29 163 128 233t282 70h8zM367 678h245l76 432q12 73 -13 102t-87 29
q-63 0 -99 -29t-47 -102z" />
    <glyph glyph-name="agrave.ss01" 
d="M758 1546h-174l-191 289h264zM629 1450q77 0 136.5 -16.5t103 -51t60.5 -94.5t3 -141l-203 -1147h-237l83 469h-245l-84 -469h-238l203 1147q29 163 128 233t282 70h8zM367 678h245l76 432q12 73 -13 102t-87 29q-63 0 -99 -29t-47 -102z" />
    <glyph glyph-name="amacron.ss01" 
d="M909 1755l-32 -188h-463l32 188h463zM629 1450q77 0 136.5 -16.5t103 -51t60.5 -94.5t3 -141l-203 -1147h-237l83 469h-245l-84 -469h-238l203 1147q29 163 128 233t282 70h8zM367 678h245l76 432q12 73 -13 102t-87 29q-63 0 -99 -29t-47 -102z" />
    <glyph glyph-name="aogonek.ss01" 
d="M629 1450q77 0 136.5 -16.5t103 -51t60.5 -94.5t3 -141l-203 -1147h-76q-92 -37 -124 -103q-26 -52 5 -79q16 -15 46 -15q22 0 55 11l-21 -115q-55 -41 -135 -41q-54 0 -90.5 22.5t-47 60.5t-1 82t49 91.5t102.5 85.5l83 469h-245l-84 -469h-238l203 1147q29 163 128 233
t282 70h8zM367 678h245l76 432q12 73 -13 102t-87 29q-63 0 -99 -29t-47 -102z" />
    <glyph glyph-name="aring.ss01" 
d="M639 1534q-73 0 -118 43t-32 115q12 75 65 116t140 41q71 0 116 -42.5t34 -114.5q-14 -76 -66.5 -117t-138.5 -41zM606 1692q-5 -26 9 -42t42 -16t46.5 16t23.5 42t-8 41.5t-41 15.5t-48 -15.5t-24 -41.5zM629 1450q77 0 136.5 -16.5t103 -51t60.5 -94.5t3 -141
l-203 -1147h-237l83 469h-245l-84 -469h-238l203 1147q29 163 128 233t282 70h8zM367 678h245l76 432q12 73 -13 102t-87 29q-63 0 -99 -29t-47 -102z" />
    <glyph glyph-name="aringacute.ss01" 
d="M1053 2183l-289 -289h-178l190 289h277zM639 1534q-73 0 -118 43t-32 115q12 75 65 116t140 41q71 0 116 -42.5t34 -114.5q-14 -76 -66.5 -117t-138.5 -41zM606 1692q-5 -26 9 -42t42 -16t46.5 16t23.5 42t-8 41.5t-41 15.5t-48 -15.5t-24 -41.5zM629 1450
q77 0 136.5 -16.5t103 -51t60.5 -94.5t3 -141l-203 -1147h-237l83 469h-245l-84 -469h-238l203 1147q29 163 128 233t282 70h8zM367 678h245l76 432q12 73 -13 102t-87 29q-63 0 -99 -29t-47 -102z" />
    <glyph glyph-name="atilde.ss01" 
d="M842 1806h159l-8 -43q-21 -114 -74.5 -164.5t-136.5 -50.5q-45 0 -88 22t-79 44t-64 22q-53 0 -62 -51l-4 -31h-155l8 43q37 215 221 215q37 0 70.5 -14t53.5 -30t44.5 -30t46.5 -14q51 0 62 52zM629 1450q77 0 136.5 -16.5t103 -51t60.5 -94.5t3 -141l-203 -1147h-237
l83 469h-245l-84 -469h-238l203 1147q29 163 128 233t282 70h8zM367 678h245l76 432q12 73 -13 102t-87 29q-63 0 -99 -29t-47 -102z" />
    <glyph glyph-name="ae.ss01" horiz-adv-x="1282" 
d="M1335 1225h-391l-67 -394h327l-37 -208h-327l-74 -414h397l-37 -209h-634l81 469h-245l-82 -469h-238l199 1130q30 164 128 234t281 70h756zM365 678h245l97 547h-123q-62 0 -97.5 -29t-48.5 -102z" />
    <glyph glyph-name="aeacute.ss01" horiz-adv-x="1282" 
d="M1237 1835l-289 -289h-178l191 289h276zM1335 1225h-391l-67 -394h327l-37 -208h-327l-74 -414h397l-37 -209h-634l81 469h-245l-82 -469h-238l199 1130q30 164 128 234t281 70h756zM365 678h245l97 547h-123q-62 0 -97.5 -29t-48.5 -102z" />
    <glyph glyph-name="g.ss01" horiz-adv-x="925" 
d="M907 942h-237l30 168q11 72 -17 101.5t-91 29.5q-64 0 -103.5 -29.5t-50.5 -101.5l-139 -786q-13 -72 16 -101.5t93 -29.5q63 0 101.5 29.5t51.5 101.5l37 213h-139l35 200h376l-129 -737h-118l-27 106q-59 -122 -238 -122h-16q-69 0 -125.5 16.5t-99 51t-60 94.5
t-2.5 141l152 860q27 157 129.5 230t284.5 73h16q76 0 136.5 -18t104.5 -53.5t61.5 -94.5t4.5 -137z" />
    <glyph glyph-name="gbreve.ss01" horiz-adv-x="925" 
d="M918 1817l-19 -113q-15 -83 -74 -121.5t-168 -38.5h-24q-96 0 -147 40.5t-37 121.5l18 111h176l-12 -78q-9 -51 35 -51h8q46 0 55 51l12 78h177zM907 942h-237l30 168q11 72 -17 101.5t-91 29.5q-64 0 -103.5 -29.5t-50.5 -101.5l-139 -786q-13 -72 16 -101.5t93 -29.5
q63 0 101.5 29.5t51.5 101.5l37 213h-139l35 200h376l-129 -737h-118l-27 106q-59 -122 -238 -122h-16q-69 0 -125.5 16.5t-99 51t-60 94.5t-2.5 141l152 860q27 157 129.5 230t284.5 73h16q76 0 136.5 -18t104.5 -53.5t61.5 -94.5t4.5 -137z" />
    <glyph glyph-name="gcommaaccent.ss01" horiz-adv-x="925" 
d="M907 942h-237l30 168q11 72 -17 101.5t-91 29.5q-64 0 -103.5 -29.5t-50.5 -101.5l-139 -786q-13 -72 16 -101.5t93 -29.5q63 0 101.5 29.5t51.5 101.5l37 213h-139l35 200h376l-129 -737h-118l-27 106q-59 -122 -238 -122h-16q-69 0 -125.5 16.5t-99 51t-60 94.5
t-2.5 141l152 860q27 157 129.5 230t284.5 73h16q76 0 136.5 -18t104.5 -53.5t61.5 -94.5t4.5 -137zM459 -143l-37 -205q-16 -91 -69 -177.5t-122 -154.5l-79 45q95 110 133 225h-107l47 267h234z" />
    <glyph glyph-name="gdotaccent.ss01" horiz-adv-x="925" 
d="M797 1784l-43 -238h-217l43 238h217zM907 942h-237l30 168q11 72 -17 101.5t-91 29.5q-64 0 -103.5 -29.5t-50.5 -101.5l-139 -786q-13 -72 16 -101.5t93 -29.5q63 0 101.5 29.5t51.5 101.5l37 213h-139l35 200h376l-129 -737h-118l-27 106q-59 -122 -238 -122h-16
q-69 0 -125.5 16.5t-99 51t-60 94.5t-2.5 141l152 860q27 157 129.5 230t284.5 73h16q76 0 136.5 -18t104.5 -53.5t61.5 -94.5t4.5 -137z" />
    <glyph glyph-name="m.ss01" horiz-adv-x="1372" 
d="M1178 1450q49 0 90.5 -16.5t75 -52.5t44 -93.5t-1.5 -140.5l-202 -1147h-238l195 1100q25 141 -84 141q-60 0 -97.5 -36.5t-48.5 -104.5l-194 -1100h-238l195 1100q25 141 -84 141q-60 0 -97.5 -36.5t-48.5 -104.5l-194 -1100h-238l252 1434h238l-17 -95q46 58 93.5 84.5
t132.5 26.5q71 0 126.5 -35t77.5 -106q48 77 110 109t153 32z" />
    <glyph glyph-name="n.ss01" horiz-adv-x="921" 
d="M733 0h-237l194 1100q25 141 -94 141q-128 0 -152 -141l-194 -1100h-238l252 1434h238l-17 -95q43 57 95.5 84t138.5 27q51 0 94 -16.5t77.5 -52.5t46 -93.5t-0.5 -140.5z" />
    <glyph glyph-name="nacute.ss01" horiz-adv-x="921" 
d="M719 1835h276l-288 -289h-179zM733 0h-237l194 1100q25 141 -94 141q-128 0 -152 -141l-194 -1100h-238l252 1434h238l-17 -95q43 57 95.5 84t138.5 27q51 0 94 -16.5t77.5 -52.5t46 -93.5t-0.5 -140.5z" />
    <glyph glyph-name="ncaron.ss01" horiz-adv-x="921" 
d="M958 1835h-198l-94 -141l-45 141h-187l115 -289h192zM733 0h-237l194 1100q25 141 -94 141q-128 0 -152 -141l-194 -1100h-238l252 1434h238l-17 -95q43 57 95.5 84t138.5 27q51 0 94 -16.5t77.5 -52.5t46 -93.5t-0.5 -140.5z" />
    <glyph glyph-name="ncommaaccent.ss01" horiz-adv-x="921" 
d="M733 0h-237l194 1100q25 141 -94 141q-128 0 -152 -141l-194 -1100h-238l252 1434h238l-17 -95q43 57 95.5 84t138.5 27q51 0 94 -16.5t77.5 -52.5t46 -93.5t-0.5 -140.5zM459 -143l-37 -205q-16 -91 -69 -177.5t-122 -154.5l-79 45q95 110 133 225h-107l47 267h234z" />
    <glyph glyph-name="eng.ss01" horiz-adv-x="921" 
d="M719 1450q51 0 94 -16.5t77.5 -52.5t46 -93.5t-0.5 -140.5l-209 -1180q-28 -161 -132.5 -232t-285.5 -71h-49l37 205h45q63 0 102 29.5t52 101.5l194 1100q25 141 -94 141q-128 0 -152 -141l-194 -1100h-238l252 1434h238l-17 -95q43 56 96 83.5t138 27.5z" />
    <glyph glyph-name="ntilde.ss01" horiz-adv-x="921" 
d="M494 1585q9 51 61 51q28 0 64 -22t79 -44t88 -22q83 0 136.5 50.5t74.5 164.5l9 43h-160l-6 -30q-11 -52 -62 -52q-22 0 -46.5 14t-44.5 30t-53.5 30t-70.5 14q-184 0 -221 -215l-8 -43h155zM733 0h-237l194 1100q25 141 -94 141q-128 0 -152 -141l-194 -1100h-238
l252 1434h238l-17 -95q43 57 95.5 84t138.5 27q51 0 94 -16.5t77.5 -52.5t46 -93.5t-0.5 -140.5z" />
    <glyph glyph-name="q.ss01" horiz-adv-x="925" 
d="M637 1450q159 0 246 -74.5t61 -228.5l-151 -860q-26 -140 -107 -212t-221 -87q4 -64 50.5 -81.5t135.5 9.5v-147q-60 -20 -115.5 -23.5t-97 7.5t-74.5 33t-47.5 53.5t-17 68.5t17.5 78q-141 10 -214.5 84t-47.5 217l152 860q29 161 130 232t284 71h16zM700 1110
q11 72 -17 101.5t-91 29.5q-64 0 -103.5 -29.5t-50.5 -101.5l-139 -786q-13 -72 16 -101.5t93 -29.5q63 0 101.5 29.5t51.5 101.5z" />
    <glyph glyph-name="r.ss01" horiz-adv-x="915" 
d="M934 1130l-41 -235q-15 -88 -73 -144.5t-144 -68.5q79 -16 117 -79t26 -128l-51 -287q-19 -113 35 -131l-10 -61h-123q-81 0 -117 58t-23 134l45 258q13 72 -15 102t-91 30h-117l-102 -578h-238l252 1434h363q76 0 137 -17.5t105 -53t61.5 -95t3.5 -138.5zM389 786h117
q63 0 101.5 30t51.5 102l31 176q13 72 -16 101.5t-92 29.5h-117z" />
    <glyph glyph-name="racute.ss01" horiz-adv-x="915" 
d="M690 1835h277l-289 -289h-178zM934 1130l-41 -235q-15 -88 -73 -144.5t-144 -68.5q79 -16 117 -79t26 -128l-51 -287q-19 -113 35 -131l-10 -61h-123q-81 0 -117 58t-23 134l45 258q13 72 -15 102t-91 30h-117l-102 -578h-238l252 1434h363q76 0 137 -17.5t105 -53
t61.5 -95t3.5 -138.5zM389 786h117q63 0 101.5 30t51.5 102l31 176q13 72 -16 101.5t-92 29.5h-117z" />
    <glyph glyph-name="rcaron.ss01" horiz-adv-x="915" 
d="M930 1835h-199l-94 -141l-45 141h-186l114 -289h193zM934 1130l-41 -235q-15 -88 -73 -144.5t-144 -68.5q79 -16 117 -79t26 -128l-51 -287q-19 -113 35 -131l-10 -61h-123q-81 0 -117 58t-23 134l45 258q13 72 -15 102t-91 30h-117l-102 -578h-238l252 1434h363
q76 0 137 -17.5t105 -53t61.5 -95t3.5 -138.5zM389 786h117q63 0 101.5 30t51.5 102l31 176q13 72 -16 101.5t-92 29.5h-117z" />
    <glyph glyph-name="rcommaaccent.ss01" horiz-adv-x="915" 
d="M934 1130l-41 -235q-15 -88 -73 -144.5t-144 -68.5q79 -16 117 -79t26 -128l-51 -287q-19 -113 35 -131l-10 -61h-123q-81 0 -117 58t-23 134l45 258q13 72 -15 102t-91 30h-117l-102 -578h-238l252 1434h363q76 0 137 -17.5t105 -53t61.5 -95t3.5 -138.5zM389 786h117
q63 0 101.5 30t51.5 102l31 176q13 72 -16 101.5t-92 29.5h-117zM481 -143l-37 -205q-16 -91 -68.5 -178t-121.5 -154l-80 45q95 110 133 225h-106l47 267h233z" />
    <glyph glyph-name="w.ss01" horiz-adv-x="1368" 
d="M1194 1434h238l-201 -1147q-28 -157 -133.5 -230t-263.5 -73q-63 0 -127.5 26.5t-92.5 85.5q-50 -62 -114 -87t-150 -25q-49 0 -94 10t-86.5 33.5t-70 57.5t-40 86t-0.5 116l201 1147h238l-193 -1100q-24 -141 90 -141q116 0 140 141l192 1100h238l-193 -1100
q-24 -141 90 -141q115 0 139 141z" />
    <glyph glyph-name="wacute.ss01" horiz-adv-x="1368" 
d="M940 1835h277l-289 -289h-178zM1194 1434h238l-201 -1147q-28 -157 -133.5 -230t-263.5 -73q-63 0 -127.5 26.5t-92.5 85.5q-50 -62 -114 -87t-150 -25q-49 0 -94 10t-86.5 33.5t-70 57.5t-40 86t-0.5 116l201 1147h238l-193 -1100q-24 -141 90 -141q116 0 140 141
l192 1100h238l-193 -1100q-24 -141 90 -141q115 0 139 141z" />
    <glyph glyph-name="wcircumflex.ss01" horiz-adv-x="1368" 
d="M1128 1546l-114 289h-193l-217 -289h199l94 142l45 -142h186zM1194 1434h238l-201 -1147q-28 -157 -133.5 -230t-263.5 -73q-63 0 -127.5 26.5t-92.5 85.5q-50 -62 -114 -87t-150 -25q-49 0 -94 10t-86.5 33.5t-70 57.5t-40 86t-0.5 116l201 1147h238l-193 -1100
q-24 -141 90 -141q116 0 140 141l192 1100h238l-193 -1100q-24 -141 90 -141q115 0 139 141z" />
    <glyph glyph-name="wdieresis.ss01" horiz-adv-x="1368" 
d="M848 1784l-43 -238h-217l43 238h217zM1188 1784l-43 -238h-217l43 238h217zM1194 1434h238l-201 -1147q-28 -157 -133.5 -230t-263.5 -73q-63 0 -127.5 26.5t-92.5 85.5q-50 -62 -114 -87t-150 -25q-49 0 -94 10t-86.5 33.5t-70 57.5t-40 86t-0.5 116l201 1147h238
l-193 -1100q-24 -141 90 -141q116 0 140 141l192 1100h238l-193 -1100q-24 -141 90 -141q115 0 139 141z" />
    <glyph glyph-name="wgrave.ss01" horiz-adv-x="1368" 
d="M883 1835l100 -289h-174l-191 289h265zM1194 1434h238l-201 -1147q-28 -157 -133.5 -230t-263.5 -73q-63 0 -127.5 26.5t-92.5 85.5q-50 -62 -114 -87t-150 -25q-49 0 -94 10t-86.5 33.5t-70 57.5t-40 86t-0.5 116l201 1147h238l-193 -1100q-24 -141 90 -141
q116 0 140 141l192 1100h238l-193 -1100q-24 -141 90 -141q115 0 139 141z" />
    <glyph glyph-name="y.ss01" horiz-adv-x="913" 
d="M739 1434h238l-201 -1147q-29 -162 -127.5 -232.5t-281.5 -70.5h-9q-77 0 -136.5 16.5t-103.5 51t-61 94.5t-2 141l21 119h237l-14 -82q-13 -73 12.5 -102t87.5 -29t97.5 29t48.5 102l57 329q-41 -58 -93.5 -84t-137.5 -26q-51 0 -94 16.5t-77.5 52.5t-46 93.5t0.5 140.5
l102 588h238l-95 -541q-25 -141 95 -141q127 0 151 141z" />
    <glyph glyph-name="yacute.ss01" horiz-adv-x="913" 
d="M711 1835h276l-289 -289h-178zM739 1434h238l-201 -1147q-29 -162 -127.5 -232.5t-281.5 -70.5h-9q-77 0 -136.5 16.5t-103.5 51t-61 94.5t-2 141l21 119h237l-14 -82q-13 -73 12.5 -102t87.5 -29t97.5 29t48.5 102l57 329q-41 -58 -93.5 -84t-137.5 -26q-51 0 -94 16.5
t-77.5 52.5t-46 93.5t0.5 140.5l102 588h238l-95 -541q-25 -141 95 -141q127 0 151 141z" />
    <glyph glyph-name="ycircumflex.ss01" horiz-adv-x="913" 
d="M899 1546l-115 289h-192l-217 -289h198l95 142l45 -142h186zM739 1434h238l-201 -1147q-29 -162 -127.5 -232.5t-281.5 -70.5h-9q-77 0 -136.5 16.5t-103.5 51t-61 94.5t-2 141l21 119h237l-14 -82q-13 -73 12.5 -102t87.5 -29t97.5 29t48.5 102l57 329
q-41 -58 -93.5 -84t-137.5 -26q-51 0 -94 16.5t-77.5 52.5t-46 93.5t0.5 140.5l102 588h238l-95 -541q-25 -141 95 -141q127 0 151 141z" />
    <glyph glyph-name="ydieresis.ss01" horiz-adv-x="913" 
d="M618 1784l-43 -238h-217l43 238h217zM958 1784l-43 -238h-217l43 238h217zM739 1434h238l-201 -1147q-29 -162 -127.5 -232.5t-281.5 -70.5h-9q-77 0 -136.5 16.5t-103.5 51t-61 94.5t-2 141l21 119h237l-14 -82q-13 -73 12.5 -102t87.5 -29t97.5 29t48.5 102l57 329
q-41 -58 -93.5 -84t-137.5 -26q-51 0 -94 16.5t-77.5 52.5t-46 93.5t0.5 140.5l102 588h238l-95 -541q-25 -141 95 -141q127 0 151 141z" />
    <glyph glyph-name="ygrave.ss01" horiz-adv-x="913" 
d="M653 1835l101 -289h-174l-191 289h264zM739 1434h238l-201 -1147q-29 -162 -127.5 -232.5t-281.5 -70.5h-9q-77 0 -136.5 16.5t-103.5 51t-61 94.5t-2 141l21 119h237l-14 -82q-13 -73 12.5 -102t87.5 -29t97.5 29t48.5 102l57 329q-41 -58 -93.5 -84t-137.5 -26
q-51 0 -94 16.5t-77.5 52.5t-46 93.5t0.5 140.5l102 588h238l-95 -541q-25 -141 95 -141q127 0 151 141z" />
    <glyph glyph-name="one.ss01" horiz-adv-x="602" 
d="M381 0h-229l213 1202l-228 -72l37 201l291 103h168z" />
    <glyph glyph-name="zero.tf" horiz-adv-x="860" 
d="M604 1450q156 0 236.5 -74t54.5 -229l-152 -860q-29 -161 -123.5 -232t-273.5 -71h-16q-156 0 -237.5 74t-53.5 229l151 860q27 161 123 232t275 71h16zM659 1110q11 73 -14 102t-86 29t-97.5 -29t-47.5 -102l-140 -786q-13 -73 13.5 -102t87.5 -29t96.5 29t48.5 102z
" />
    <glyph glyph-name="one.tf" horiz-adv-x="860" 
d="M727 1434l-217 -1233h213l-35 -201h-676l35 201h234l174 989l-246 -72l39 213l311 103h168z" />
    <glyph glyph-name="two.tf" horiz-adv-x="860" 
d="M170 922l41 233q29 159 119.5 227t269.5 68h4q157 0 234 -71t49 -224l-29 -168q-7 -38 -17.5 -69.5t-30 -61.5t-35 -51t-48.5 -51.5t-53 -48t-66.5 -55.5t-72.5 -60q-15 -13 -43.5 -36.5t-41.5 -34.5t-35.5 -30.5t-33.5 -30t-27 -26.5t-24.5 -27.5t-17.5 -25t-14 -26
t-7 -25.5l-23 -131h451l-35 -197h-680l59 332q5 30 13.5 57t24 54.5t28 48t38.5 47.5t41 43.5t50 46.5t52 44t60.5 49t61.5 50q14 11 39.5 32t35.5 29.5t29 24.5t26.5 23.5l20.5 20.5t18 21.5t12 20.5t10.5 23t5.5 24l24 139q13 69 -11.5 96t-78.5 27t-86 -27t-45 -96
l-37 -208h-225z" />
    <glyph glyph-name="three.tf" horiz-adv-x="860" 
d="M850 971q-7 -46 -18.5 -80.5t-31.5 -66.5t-53 -52t-77 -27q47 -9 74 -45t30 -77.5t-2 -83.5l-43 -252q-28 -155 -114.5 -229t-254.5 -74h-55q-145 0 -217 78t-45 225l33 192h229l-29 -168q-13 -69 12 -100t72 -31h15q46 0 81 30.5t48 100.5l39 224q10 54 -12 82t-66 28
h-174l33 193h153q119 0 141 131l29 153q11 70 -13.5 100.5t-70.5 30.5h-18q-47 0 -82.5 -31t-46.5 -100l-25 -135h-225l29 160q29 163 121.5 233t267.5 70h14q73 0 129.5 -16.5t97 -51.5t55.5 -95t1 -140z" />
    <glyph glyph-name="four.tf" horiz-adv-x="860" 
d="M848 1434l-158 -904h123l-37 -200h-123l-57 -330h-229l57 330h-410l37 207l490 897h307zM580 1198l-342 -668h223z" />
    <glyph glyph-name="five.tf" horiz-adv-x="860" 
d="M891 1233h-430l-60 -336q34 32 72 48t107 16q55 0 100.5 -16t80.5 -51.5t46.5 -91.5t-0.5 -136l-68 -387q-28 -159 -119.5 -227t-271.5 -68h-4q-157 0 -236 71.5t-53 223.5l41 233h226l-37 -209q-11 -69 13 -96t81 -27t90.5 27t44.5 96l59 336q11 69 -9.5 96t-67.5 27
q-82 0 -134 -86l-219 61l123 697h660z" />
    <glyph glyph-name="six.tf" horiz-adv-x="860" 
d="M852 1020h-229l18 110q13 71 -7 97t-75 26t-84.5 -26t-42.5 -97l-51 -294q31 31 69 47t109 16q56 0 102 -16.5t81 -50.5t48.5 -92.5t0.5 -135.5l-58 -325q-28 -159 -118.5 -227t-270.5 -68h-4q-157 0 -235 71.5t-52 223.5l154 876q29 160 117.5 227.5t267.5 67.5h4
q156 0 231 -71t47 -224zM467 700q-110 0 -131 -122l-49 -275q-11 -70 11.5 -96.5t78.5 -26.5t88 26.5t43 96.5l49 275q11 70 -11.5 96t-78.5 26z" />
    <glyph glyph-name="seven.tf" horiz-adv-x="860" 
d="M913 1268l-614 -1268h-233l600 1233h-482l35 201h723z" />
    <glyph glyph-name="eight.tf" horiz-adv-x="860" 
d="M629 1450q145 0 216.5 -78t45.5 -225l-31 -176q-7 -46 -18.5 -80.5t-31.5 -66.5t-53 -52t-77 -27q35 -7 59 -36t32 -65.5t10 -76.5t-5 -69l-37 -211q-29 -155 -114.5 -229t-253.5 -74h-64q-145 0 -217 78t-45 225l37 211q36 219 182 247q-47 7 -73.5 45t-28.5 85.5
t4 95.5l31 176q27 155 113.5 229t254.5 74h64zM629 969l28 153q11 67 -12 99t-63 32h-39q-40 0 -75 -32.5t-46 -98.5l-29 -153q-11 -67 12.5 -99t63.5 -32h39q40 0 75 32.5t46 98.5zM514 311l35 203q12 66 -11 98.5t-63 32.5h-39q-40 0 -75.5 -32t-47.5 -99l-34 -203
q-11 -67 12 -99t63 -32h39q40 0 75 32.5t46 98.5z" />
    <glyph glyph-name="nine.tf" horiz-adv-x="860" 
d="M82 414h229l-20 -111q-12 -71 8.5 -97t75.5 -26t84 26t41 97l51 295q-34 -32 -71 -47.5t-107 -15.5q-56 0 -102 16.5t-81 50t-48.5 92t-0.5 135.5l58 326q29 159 120 227t271 68h4q157 0 235 -71.5t50 -223.5l-154 -876q-28 -159 -116 -227t-267 -68h-4q-156 0 -232 71
t-49 224zM465 733q112 0 133 123l47 274q13 70 -9.5 96.5t-78.5 26.5t-88 -26.5t-45 -96.5l-47 -274q-13 -70 9.5 -96.5t78.5 -26.5z" />
    <glyph glyph-name="colon.tf" horiz-adv-x="430" 
d="M418 1004l-47 -267h-234l47 267h234zM289 266l-47 -266h-234l47 266h234z" />
    <glyph glyph-name="comma.tf" horiz-adv-x="430" 
d="M289 266l-37 -205q-16 -90 -68.5 -176.5t-122.5 -154.5l-79 45q95 110 133 225h-107l47 266h234z" />
    <glyph glyph-name="numbersign.tf" horiz-adv-x="860" 
d="M989 1434l-160 -398h121l-32 -184h-162l-111 -270h164l-33 -185h-205l-159 -397h-183l160 397h-104l-160 -397h-182l159 397h-120l32 185h162l111 270h-164l33 184h204l160 398h182l-159 -398h104l160 398h182zM463 582l110 270h-104l-111 -270h105z" />
    <glyph glyph-name="period.tf" horiz-adv-x="430" 
d="M289 266l-47 -266h-234l47 266h234z" />
    <glyph glyph-name="semicolon.tf" horiz-adv-x="430" 
d="M418 1004l-47 -267h-234l47 267h234zM289 266l-37 -205q-16 -90 -68.5 -176.5t-122.5 -154.5l-79 45q95 110 133 225h-107l47 266h234z" />
    <glyph glyph-name="space.tf" horiz-adv-x="430" 
 />
    <glyph glyph-name="cent.tf" horiz-adv-x="860" 
d="M674 1278q113 -23 170 -97t35 -198l-25 -139h-233l16 102q24 135 -105 135t-153 -135l-80 -459q-24 -135 104 -135q130 0 154 135l25 138h233l-31 -174q-24 -137 -100 -208t-209 -89l-26 -154h-211l26 156q-114 20 -171 93t-34 202l95 532q23 133 100 205.5t209 91.5
l26 154h211z" />
    <glyph glyph-name="dollar.tf" horiz-adv-x="860" 
d="M702 1440q106 -24 161.5 -94.5t33.5 -190.5l-41 -233h-233l36 200q19 123 -100 123q-122 0 -141 -123l-19 -98q-9 -56 5 -90.5t59 -63.5l151 -94q30 -19 51 -33.5t42.5 -32.5t35.5 -35t25.5 -37.5t16 -42.5t5 -48.5t-5.5 -57.5l-36 -206q-24 -137 -97.5 -206t-204.5 -87
l-26 -150h-211l27 152q-114 20 -169 91t-32 200l45 249h233l-39 -217q-10 -64 17.5 -95.5t83.5 -31.5q57 0 96 32t49 95l21 113q10 58 -5 93.5t-63 64.5l-149 94q-197 125 -168 287l32 188q46 249 304 289l26 149h211z" />
    <glyph glyph-name="Euro.tf" horiz-adv-x="860" 
d="M621 1450q76 0 136.5 -18t104.5 -53.5t61.5 -94.5t4.5 -137l-47 -262h-238l41 225q11 72 -15 101.5t-87 29.5q-127 0 -148 -131l-37 -211h193l-19 -111h-194l-19 -110h193l-19 -111h-194l-43 -243q-13 -71 14 -101t88 -30t98 30t50 101l45 260h237l-51 -297
q-29 -162 -130 -232.5t-284 -70.5h-4q-77 0 -137.5 16.5t-105 51t-62 94.5t-2.5 141l49 280h-86l19 111h88l18 110h-86l19 111h88l43 248q27 157 129.5 230t283.5 73h5z" />
    <glyph glyph-name="florin.tf" horiz-adv-x="860" 
d="M805 1225q-135 0 -158 -131l-43 -242h217l-76 -205h-176l-61 -344q-29 -159 -130 -231t-280 -72h-110l37 209h102q135 0 158 131l53 307h-215l76 205h176l49 278q29 161 130 232.5t280 71.5h110l-37 -209h-102z" />
    <glyph glyph-name="sterling.tf" horiz-adv-x="860" 
d="M872 905h-237l39 225q19 111 -64 111q-44 0 -70 -31t-34 -80l-55 -317h208l-32 -188h-209q-39 -218 -75.5 -300t-121.5 -116h508l-37 -209h-712l-5 209q96 44 131.5 119.5t73.5 296.5h-117l33 188h117l59 334q26 151 113.5 227t259.5 76h4q149 0 220 -79.5t46 -223.5z
" />
    <glyph glyph-name="yen.tf" horiz-adv-x="860" 
d="M999 1434l-364 -746h127l-19 -110h-161l-33 -68l-8 -43h182l-18 -111h-183l-63 -356h-238l64 356h-207l18 111h207l8 43l-10 68h-184l18 110h152l-103 746h244l43 -666l277 666h251z" />
    <glyph glyph-name="percent.tf" horiz-adv-x="860" 
d="M383 1442q70 0 115.5 -43t29.5 -127l-47 -271q-28 -170 -205 -170h-32q-72 0 -118 43t-32 127l47 271q32 170 209 170h33zM950 1434l-835 -1434h-135l835 1434h135zM393 1247q14 70 -41 70h-18q-52 0 -66 -70l-39 -221q-11 -70 41 -70h19q54 0 65 70zM690 602
q70 0 116 -43t30 -127l-48 -270q-28 -170 -206 -170h-33q-72 0 -117 43t-31 127l48 270q32 170 208 170h33zM700 408q11 69 -41 69h-18q-55 0 -66 -69l-38 -222q-11 -69 41 -69h18q55 0 66 69z" />
    <glyph glyph-name="bar.tf" horiz-adv-x="430" 
d="M197 -205h-217l325 1843h217z" />
    <glyph glyph-name="brokenbar.tf" horiz-adv-x="430" 
d="M176 901l129 737h217l-129 -737h-217zM334 573l-137 -778h-217l137 778h217z" />
    </font>
</defs>
</svg>
